G04*
G04 #@! TF.GenerationSoftware,Altium Limited,Altium Designer,20.0.7 (75)*
G04*
G04 Layer_Color=65535*
%FSLAX25Y25*%
%MOIN*%
G70*
G01*
G75*
%ADD10C,0.00984*%
%ADD11C,0.00787*%
%ADD12C,0.04000*%
%ADD13C,0.02000*%
%ADD14C,0.01181*%
%ADD15C,0.00400*%
G36*
X2053550Y138175D02*
X1755300D01*
Y183600D01*
X2053550D01*
Y138175D01*
D02*
G37*
%LPC*%
G36*
X2019925Y175900D02*
X2019500D01*
X2019325Y175875D01*
X2019200Y175850D01*
X2019175Y175825D01*
X2019150D01*
X2018975Y175775D01*
X2018825Y175700D01*
X2018725Y175625D01*
X2018750Y175650D01*
X2018450D01*
Y175550D01*
Y175500D01*
Y175400D01*
Y175375D01*
X2018400Y175300D01*
X2018350Y175225D01*
X2018250Y175025D01*
X2018150Y174875D01*
X2018125Y174825D01*
Y174800D01*
Y174725D01*
Y174700D01*
Y174675D01*
Y174650D01*
Y174625D01*
Y174600D01*
Y174575D01*
Y174550D01*
Y174525D01*
Y174450D01*
Y174425D01*
Y155283D01*
X2017750Y156150D01*
X2016850Y158350D01*
X2016475Y159200D01*
X2014800Y163350D01*
X2014400Y164225D01*
X2013750Y165875D01*
X2013350Y166725D01*
X2013000Y167650D01*
X2012650Y168525D01*
X2011700Y170800D01*
X2011300Y171675D01*
X2010325Y174200D01*
X2010000Y174925D01*
Y174950D01*
Y174975D01*
X2009925Y175100D01*
X2009900Y175200D01*
X2009850Y175250D01*
Y175275D01*
X2009750Y175375D01*
X2009675Y175450D01*
X2009650Y175475D01*
X2009625Y175500D01*
X2009575Y175550D01*
X2009450Y175650D01*
X2009350Y175700D01*
X2009275Y175725D01*
X2009250D01*
X2009125Y175800D01*
X2008975Y175850D01*
X2008850Y175900D01*
X2008000D01*
Y175875D01*
X2008275D01*
X2008100Y175800D01*
X2007967Y175750D01*
X2007825D01*
X2007700Y175625D01*
X2007625Y175525D01*
X2007575Y175475D01*
X2007550Y175450D01*
X2007450Y175350D01*
X2007400Y175275D01*
X2007350Y175225D01*
Y175200D01*
X2007275Y175075D01*
X2007225Y175000D01*
X2007200Y174950D01*
Y174925D01*
X2007150Y174825D01*
X2007125Y174700D01*
Y147700D01*
X2007150Y147600D01*
X2007175Y147525D01*
Y147500D01*
Y147450D01*
X2007225Y147275D01*
X2007275Y147125D01*
X2007325Y147025D01*
X2007350Y147000D01*
X2007550Y146800D01*
X2007700Y146675D01*
X2007825Y146575D01*
X2007875Y146550D01*
X2007950Y146500D01*
X2007975Y146475D01*
X2008000Y146450D01*
X2008100D01*
X2008250Y146400D01*
X2008400Y146375D01*
X2008675D01*
X2008875Y146400D01*
X2009025Y146425D01*
X2009125Y146450D01*
X2009175Y146475D01*
X2009350Y146575D01*
X2009550Y146700D01*
X2009700Y146800D01*
X2009725Y146850D01*
X2009750D01*
Y146875D01*
X2009800Y146925D01*
X2009850Y147025D01*
X2009900Y147125D01*
X2009925Y147175D01*
Y147150D01*
X2009975Y147300D01*
X2010000Y147375D01*
Y147400D01*
X2010050Y147525D01*
X2010075Y147625D01*
Y147700D01*
Y147725D01*
Y147775D01*
Y147825D01*
Y166929D01*
X2011750Y162875D01*
X2012100Y162050D01*
X2012800Y160350D01*
X2013125Y159525D01*
X2015100Y154750D01*
X2015500Y153875D01*
X2016150Y152225D01*
X2016500Y151450D01*
X2017875Y148100D01*
X2017950Y147975D01*
X2018000Y147850D01*
X2018025Y147775D01*
Y147750D01*
X2018075Y147650D01*
X2018100Y147575D01*
X2018125Y147550D01*
Y147525D01*
X2018150Y147425D01*
X2018175Y147325D01*
X2018225Y147250D01*
Y147200D01*
Y147175D01*
X2018400Y146950D01*
X2018600Y146775D01*
X2018775Y146625D01*
X2018950Y146525D01*
X2019100Y146450D01*
X2019225Y146400D01*
X2019300Y146375D01*
X2019325D01*
X2019600Y146400D01*
X2019875Y146450D01*
X2020100Y146525D01*
X2020325Y146600D01*
X2020475Y146700D01*
X2020625Y146775D01*
X2020700Y146825D01*
X2020725Y146850D01*
X2020800Y146950D01*
X2020850Y147050D01*
X2020900Y147150D01*
X2020925Y147175D01*
Y147200D01*
X2020950Y147250D01*
X2020975Y147325D01*
X2021025Y147400D01*
Y147425D01*
X2021050Y147575D01*
X2021075Y147700D01*
Y174550D01*
X2021050D01*
Y174600D01*
X2021025Y174775D01*
X2021000Y174900D01*
X2020975Y174975D01*
X2020950Y175000D01*
Y175050D01*
Y175075D01*
X2020925Y175100D01*
X2020900Y175150D01*
X2020875Y175175D01*
X2020850Y175200D01*
X2020825Y175250D01*
X2020750Y175350D01*
X2020700Y175425D01*
X2020675Y175450D01*
X2020625Y175500D01*
X2020575Y175525D01*
X2020550Y175550D01*
Y175575D01*
Y175675D01*
Y175750D01*
Y175775D01*
X2020200D01*
X2020125Y175825D01*
X2020050Y175875D01*
X2019975D01*
X2019925Y175900D01*
D02*
G37*
G36*
X1937900D02*
X1937725D01*
X1937400Y175850D01*
X1937125Y175750D01*
X1936875Y175600D01*
X1936675Y175425D01*
X1936500Y175225D01*
X1936400Y175075D01*
X1936325Y174975D01*
X1936300Y174925D01*
X1932175Y164300D01*
X1928050Y174925D01*
X1927850Y175250D01*
X1927600Y175500D01*
X1927350Y175675D01*
X1927125Y175775D01*
X1926925Y175850D01*
X1926750Y175875D01*
X1926650Y175900D01*
X1926450D01*
X1926275Y175875D01*
X1926150Y175850D01*
X1926100D01*
X1925900Y175725D01*
X1925725Y175600D01*
X1925575Y175425D01*
X1925475Y175275D01*
X1925375Y175150D01*
X1925325Y175025D01*
X1925300Y174950D01*
X1925275Y174925D01*
X1925225Y174725D01*
Y174175D01*
X1925250Y174025D01*
X1925275Y173900D01*
X1925300Y173825D01*
Y173800D01*
X1930725Y160850D01*
Y147825D01*
X1930750Y147600D01*
X1930800Y147425D01*
X1930850Y147250D01*
X1930925Y147100D01*
X1931000Y146975D01*
X1931075Y146875D01*
X1931100Y146825D01*
X1931125Y146800D01*
X1931275Y146650D01*
X1931450Y146550D01*
X1931625Y146475D01*
X1931800Y146425D01*
X1931950Y146400D01*
X1932075Y146375D01*
X1932175D01*
X1932400Y146400D01*
X1932600Y146450D01*
X1932775Y146500D01*
X1932925Y146600D01*
X1933025Y146675D01*
X1933125Y146725D01*
X1933175Y146775D01*
X1933200Y146800D01*
X1933350Y146975D01*
X1933450Y147150D01*
X1933525Y147300D01*
X1933575Y147475D01*
X1933600Y147625D01*
X1933625Y147725D01*
Y147800D01*
Y147825D01*
Y160825D01*
X1939025Y173800D01*
X1939075Y174025D01*
X1939125Y174250D01*
Y174600D01*
X1939100Y174725D01*
X1939075Y174850D01*
X1939050Y174900D01*
Y174925D01*
X1938950Y175150D01*
X1938825Y175350D01*
X1938700Y175500D01*
X1938575Y175625D01*
X1938450Y175725D01*
X1938350Y175800D01*
X1938275Y175850D01*
X1938250D01*
X1938075Y175875D01*
X1937900Y175900D01*
D02*
G37*
G36*
X1854000Y175875D02*
X1853700D01*
X1853525Y175850D01*
X1853350Y175825D01*
X1853050Y175700D01*
X1852925Y175625D01*
X1852825Y175575D01*
X1852775Y175550D01*
X1852750Y175525D01*
X1852600Y175375D01*
X1852500Y175250D01*
X1852400Y175075D01*
X1852325Y174950D01*
X1852275Y174825D01*
X1852250Y174725D01*
X1852225Y174650D01*
Y174625D01*
X1848275Y153650D01*
X1844350Y174675D01*
X1844200Y175025D01*
X1844025Y175300D01*
X1843925Y175400D01*
X1843875Y175475D01*
X1843825Y175500D01*
X1843800Y175525D01*
X1843650Y175650D01*
X1843475Y175725D01*
X1843175Y175825D01*
X1843025Y175850D01*
X1842925Y175875D01*
X1842575D01*
X1842325Y175800D01*
X1842100Y175675D01*
X1841925Y175575D01*
X1841800Y175450D01*
X1841675Y175350D01*
X1841600Y175250D01*
X1841575Y175200D01*
X1841550Y175175D01*
X1841450Y174975D01*
X1841400Y174775D01*
X1841350Y174575D01*
Y174400D01*
X1841325Y174250D01*
X1841350Y174125D01*
Y174025D01*
Y174000D01*
X1846700Y147575D01*
X1846825Y147250D01*
X1847025Y146975D01*
X1847250Y146775D01*
X1847475Y146625D01*
X1847675Y146500D01*
X1847850Y146450D01*
X1847975Y146400D01*
X1848025D01*
X1848125Y146375D01*
X1848350D01*
X1848550Y146400D01*
X1848725Y146425D01*
X1849025Y146550D01*
X1849150Y146600D01*
X1849225Y146650D01*
X1849275Y146675D01*
X1849300Y146700D01*
X1849450Y146850D01*
X1849575Y147000D01*
X1849725Y147275D01*
X1849800Y147400D01*
X1849825Y147500D01*
X1849850Y147575D01*
Y147600D01*
X1855225Y174000D01*
X1855250Y174250D01*
X1855225Y174475D01*
X1855200Y174675D01*
X1855150Y174850D01*
X1855100Y174975D01*
X1855050Y175075D01*
X1855025Y175150D01*
X1855000Y175175D01*
X1854875Y175350D01*
X1854700Y175500D01*
X1854525Y175625D01*
X1854375Y175725D01*
X1854225Y175775D01*
X1854100Y175825D01*
X1854000Y175875D01*
D02*
G37*
G36*
X2009925Y147150D02*
X2009875Y147025D01*
X2009825Y146900D01*
X2009925D01*
Y146925D01*
Y147025D01*
Y147075D01*
Y147150D01*
D02*
G37*
G36*
X2037125Y175900D02*
X2025900D01*
X2025675Y175875D01*
X2025500Y175850D01*
X2025325Y175775D01*
X2025175Y175700D01*
X2025050Y175625D01*
X2024975Y175575D01*
X2024925Y175525D01*
X2024900Y175500D01*
X2024775Y175350D01*
X2024675Y175175D01*
X2024600Y175025D01*
X2024550Y174875D01*
X2024525Y174725D01*
X2024500Y174625D01*
Y174425D01*
X2024525Y174225D01*
X2024575Y174025D01*
X2024625Y173850D01*
X2024700Y173700D01*
X2024775Y173575D01*
X2024850Y173475D01*
X2024875Y173425D01*
X2024900Y173400D01*
X2025050Y173250D01*
X2025225Y173150D01*
X2025400Y173075D01*
X2025550Y173025D01*
X2025700Y173000D01*
X2025800Y172975D01*
X2030000D01*
Y147825D01*
X2030025Y147600D01*
X2030075Y147425D01*
X2030125Y147250D01*
X2030225Y147100D01*
X2030300Y146975D01*
X2030350Y146875D01*
X2030400Y146825D01*
X2030425Y146800D01*
X2030600Y146650D01*
X2030775Y146550D01*
X2030950Y146475D01*
X2031125Y146425D01*
X2031250Y146400D01*
X2031375Y146375D01*
X2031475D01*
X2031675Y146400D01*
X2031875Y146450D01*
X2032050Y146500D01*
X2032200Y146600D01*
X2032300Y146675D01*
X2032400Y146725D01*
X2032450Y146775D01*
X2032475Y146800D01*
X2032625Y146975D01*
X2032725Y147150D01*
X2032825Y147300D01*
X2032875Y147475D01*
X2032900Y147625D01*
X2032925Y147725D01*
Y147800D01*
Y147825D01*
Y172975D01*
X2037025D01*
X2037250Y173000D01*
X2037425Y173050D01*
X2037600Y173100D01*
X2037750Y173200D01*
X2037875Y173275D01*
X2037950Y173325D01*
X2038000Y173375D01*
X2038025Y173400D01*
X2038175Y173575D01*
X2038275Y173750D01*
X2038350Y173925D01*
X2038400Y174075D01*
X2038425Y174225D01*
X2038450Y174325D01*
Y174525D01*
X2038425Y174725D01*
X2038375Y174900D01*
X2038325Y175075D01*
X2038250Y175200D01*
X2038150Y175325D01*
X2038100Y175400D01*
X2038050Y175450D01*
X2038025Y175475D01*
X2037875Y175625D01*
X2037700Y175725D01*
X2037525Y175800D01*
X2037375Y175850D01*
X2037225Y175875D01*
X2037125Y175900D01*
D02*
G37*
G36*
X2002275D02*
X2002150D01*
X2001925Y175875D01*
X2001725Y175850D01*
X2001550Y175775D01*
X2001400Y175700D01*
X2001275Y175625D01*
X2001175Y175575D01*
X2001125Y175525D01*
X2001100Y175500D01*
X2000975Y175350D01*
X2000875Y175175D01*
X2000800Y174975D01*
X2000750Y174825D01*
X2000725Y174650D01*
X2000700Y174550D01*
Y147825D01*
X2000725Y147600D01*
X2000775Y147375D01*
X2000825Y147200D01*
X2000925Y147050D01*
X2001000Y146925D01*
X2001050Y146825D01*
X2001100Y146775D01*
X2001125Y146750D01*
X2001300Y146625D01*
X2001475Y146525D01*
X2001625Y146475D01*
X2001800Y146425D01*
X2001950Y146400D01*
X2002050Y146375D01*
X2002150D01*
X2002400Y146400D01*
X2002600Y146450D01*
X2002800Y146500D01*
X2002950Y146575D01*
X2003075Y146650D01*
X2003150Y146725D01*
X2003200Y146750D01*
X2003225Y146775D01*
X2003375Y146925D01*
X2003475Y147100D01*
X2003550Y147275D01*
X2003600Y147450D01*
X2003625Y147600D01*
X2003650Y147725D01*
Y174425D01*
X2003625Y174650D01*
X2003575Y174875D01*
X2003525Y175050D01*
X2003450Y175200D01*
X2003350Y175325D01*
X2003300Y175425D01*
X2003250Y175475D01*
X2003225Y175500D01*
X2003075Y175625D01*
X2002900Y175725D01*
X2002700Y175800D01*
X2002550Y175850D01*
X2002375Y175875D01*
X2002275Y175900D01*
D02*
G37*
G36*
X1990350D02*
X1984700D01*
X1984475Y175875D01*
X1984275Y175825D01*
X1984075Y175750D01*
X1983925Y175675D01*
X1983800Y175600D01*
X1983725Y175525D01*
X1983675Y175475D01*
X1983650Y175450D01*
X1983525Y175275D01*
X1983425Y175125D01*
X1983350Y174950D01*
X1983300Y174800D01*
X1983275Y174675D01*
X1983250Y174575D01*
Y147850D01*
X1983275Y147625D01*
X1983325Y147425D01*
X1983375Y147250D01*
X1983475Y147100D01*
X1983550Y146975D01*
X1983600Y146875D01*
X1983650Y146825D01*
X1983675Y146800D01*
X1983850Y146650D01*
X1984025Y146550D01*
X1984175Y146475D01*
X1984350Y146425D01*
X1984500Y146400D01*
X1984600Y146375D01*
X1984700D01*
X1984925Y146400D01*
X1985125Y146450D01*
X1985300Y146500D01*
X1985450Y146600D01*
X1985575Y146675D01*
X1985675Y146725D01*
X1985725Y146775D01*
X1985750Y146800D01*
X1985900Y146975D01*
X1986000Y147150D01*
X1986100Y147325D01*
X1986150Y147475D01*
X1986175Y147625D01*
X1986200Y147750D01*
Y147825D01*
Y147850D01*
Y159425D01*
X1989950D01*
X1994350Y147350D01*
X1994550Y147025D01*
X1994750Y146775D01*
X1994975Y146625D01*
X1995200Y146500D01*
X1995400Y146425D01*
X1995575Y146400D01*
X1995675Y146375D01*
X1995725D01*
X1995950Y146400D01*
X1996100Y146425D01*
X1996225Y146450D01*
X1996250Y146475D01*
X1996450Y146550D01*
X1996625Y146675D01*
X1996750Y146775D01*
X1996875Y146900D01*
X1996950Y147025D01*
X1997000Y147100D01*
X1997050Y147175D01*
Y147200D01*
X1997125Y147400D01*
X1997150Y147600D01*
X1997175Y147800D01*
Y147950D01*
X1997150Y148100D01*
Y148200D01*
X1997125Y148275D01*
Y148300D01*
X1992797Y159941D01*
X1993375Y160200D01*
X1994000Y160600D01*
X1994550Y161025D01*
X1995025Y161425D01*
X1995375Y161800D01*
X1995525Y161975D01*
X1995650Y162125D01*
X1995750Y162225D01*
X1995825Y162325D01*
X1995850Y162375D01*
X1995875Y162400D01*
X1996100Y162725D01*
X1996275Y163075D01*
X1996450Y163425D01*
X1996575Y163750D01*
X1996800Y164400D01*
X1996950Y165000D01*
X1997000Y165275D01*
X1997025Y165525D01*
X1997075Y165725D01*
Y165925D01*
X1997100Y166075D01*
Y166175D01*
Y166250D01*
Y166275D01*
Y169075D01*
X1997075Y169600D01*
X1997025Y170075D01*
X1996925Y170550D01*
X1996775Y171000D01*
X1996625Y171425D01*
X1996450Y171825D01*
X1996275Y172200D01*
X1996100Y172525D01*
X1995900Y172825D01*
X1995725Y173100D01*
X1995550Y173325D01*
X1995400Y173525D01*
X1995275Y173675D01*
X1995175Y173775D01*
X1995100Y173850D01*
X1995075Y173875D01*
X1994700Y174225D01*
X1994300Y174550D01*
X1993875Y174825D01*
X1993475Y175050D01*
X1993075Y175250D01*
X1992650Y175400D01*
X1992275Y175550D01*
X1991900Y175650D01*
X1991550Y175725D01*
X1991225Y175800D01*
X1990950Y175850D01*
X1990700Y175875D01*
X1990500D01*
X1990350Y175900D01*
D02*
G37*
G36*
X1973025D02*
X1967375D01*
X1967150Y175875D01*
X1966950Y175825D01*
X1966750Y175750D01*
X1966600Y175675D01*
X1966475Y175600D01*
X1966400Y175525D01*
X1966350Y175475D01*
X1966325Y175450D01*
X1966200Y175275D01*
X1966100Y175125D01*
X1966025Y174950D01*
X1965975Y174800D01*
X1965950Y174675D01*
X1965925Y174575D01*
Y147825D01*
X1965950Y147600D01*
X1966000Y147425D01*
X1966050Y147250D01*
X1966150Y147100D01*
X1966225Y146975D01*
X1966275Y146875D01*
X1966325Y146825D01*
X1966350Y146800D01*
X1966525Y146650D01*
X1966700Y146550D01*
X1966850Y146475D01*
X1967025Y146425D01*
X1967175Y146400D01*
X1967275Y146375D01*
X1967375D01*
X1967600Y146400D01*
X1967800Y146450D01*
X1967975Y146500D01*
X1968125Y146600D01*
X1968250Y146675D01*
X1968350Y146725D01*
X1968400Y146775D01*
X1968425Y146800D01*
X1968575Y146975D01*
X1968675Y147150D01*
X1968775Y147300D01*
X1968825Y147475D01*
X1968850Y147625D01*
X1968875Y147725D01*
Y147800D01*
Y147825D01*
Y159425D01*
X1972900D01*
X1973425Y159450D01*
X1973925Y159500D01*
X1974400Y159600D01*
X1974850Y159750D01*
X1975300Y159900D01*
X1975700Y160050D01*
X1976050Y160250D01*
X1976400Y160425D01*
X1976700Y160600D01*
X1976975Y160800D01*
X1977200Y160950D01*
X1977400Y161125D01*
X1977550Y161250D01*
X1977650Y161350D01*
X1977725Y161400D01*
X1977750Y161425D01*
X1978100Y161800D01*
X1978425Y162200D01*
X1978700Y162625D01*
X1978925Y163025D01*
X1979125Y163425D01*
X1979275Y163850D01*
X1979425Y164225D01*
X1979525Y164600D01*
X1979600Y164950D01*
X1979675Y165275D01*
X1979725Y165550D01*
X1979750Y165800D01*
Y166000D01*
X1979775Y166150D01*
Y169025D01*
X1979750Y169550D01*
X1979700Y170050D01*
X1979600Y170525D01*
X1979450Y170975D01*
X1979300Y171425D01*
X1979125Y171825D01*
X1978950Y172175D01*
X1978775Y172525D01*
X1978575Y172825D01*
X1978400Y173100D01*
X1978225Y173325D01*
X1978075Y173525D01*
X1977950Y173675D01*
X1977850Y173775D01*
X1977775Y173850D01*
X1977750Y173875D01*
X1977375Y174225D01*
X1976975Y174550D01*
X1976550Y174825D01*
X1976150Y175050D01*
X1975750Y175250D01*
X1975325Y175400D01*
X1974950Y175550D01*
X1974575Y175650D01*
X1974225Y175725D01*
X1973900Y175800D01*
X1973625Y175850D01*
X1973375Y175875D01*
X1973175D01*
X1973025Y175900D01*
D02*
G37*
G36*
X1913775Y175875D02*
X1913150D01*
X1912825Y175750D01*
X1912575Y175600D01*
X1912375Y175400D01*
X1912225Y175200D01*
X1912125Y175025D01*
X1912050Y174875D01*
X1912000Y174775D01*
Y174725D01*
X1905375Y148125D01*
X1905350Y147925D01*
Y147725D01*
X1905375Y147550D01*
X1905425Y147400D01*
X1905450Y147275D01*
X1905500Y147175D01*
X1905550Y147100D01*
Y147075D01*
X1905675Y146900D01*
X1905825Y146750D01*
X1905975Y146650D01*
X1906125Y146550D01*
X1906250Y146475D01*
X1906375Y146425D01*
X1906450Y146400D01*
X1906475D01*
X1906575Y146375D01*
X1906775D01*
X1907150Y146425D01*
X1907450Y146550D01*
X1907700Y146700D01*
X1907875Y146900D01*
X1908025Y147100D01*
X1908125Y147250D01*
X1908175Y147375D01*
X1908200Y147425D01*
X1909625Y153025D01*
X1917275D01*
X1918675Y147475D01*
X1918725Y147300D01*
X1918800Y147150D01*
X1918975Y146900D01*
X1919075Y146800D01*
X1919125Y146725D01*
X1919175Y146700D01*
X1919200Y146675D01*
X1919350Y146575D01*
X1919525Y146500D01*
X1919825Y146425D01*
X1919950Y146400D01*
X1920050Y146375D01*
X1920275D01*
X1920400Y146400D01*
X1920475Y146425D01*
X1920500D01*
X1920700Y146500D01*
X1920875Y146600D01*
X1921000Y146700D01*
X1921125Y146800D01*
X1921225Y146900D01*
X1921300Y147000D01*
X1921325Y147050D01*
X1921350Y147075D01*
X1921450Y147250D01*
X1921525Y147425D01*
X1921550Y147600D01*
X1921575Y147725D01*
Y147925D01*
X1921550Y147975D01*
Y148000D01*
X1914900Y174725D01*
X1914775Y175025D01*
X1914600Y175275D01*
X1914425Y175475D01*
X1914225Y175650D01*
X1914025Y175750D01*
X1913875Y175825D01*
X1913775Y175875D01*
D02*
G37*
G36*
X1892900Y175900D02*
X1892800D01*
X1892575Y175875D01*
X1892375Y175850D01*
X1892175Y175775D01*
X1892025Y175700D01*
X1891900Y175625D01*
X1891825Y175575D01*
X1891775Y175525D01*
X1891750Y175500D01*
X1891625Y175350D01*
X1891525Y175175D01*
X1891450Y175000D01*
X1891400Y174850D01*
X1891375Y174700D01*
X1891350Y174575D01*
Y147825D01*
X1891375Y147600D01*
X1891425Y147400D01*
X1891475Y147200D01*
X1891550Y147050D01*
X1891625Y146925D01*
X1891700Y146850D01*
X1891725Y146800D01*
X1891750Y146775D01*
X1891900Y146650D01*
X1892075Y146550D01*
X1892250Y146475D01*
X1892425Y146425D01*
X1892575Y146400D01*
X1892700Y146375D01*
X1901475D01*
X1901700Y146400D01*
X1901900Y146425D01*
X1902075Y146500D01*
X1902225Y146575D01*
X1902350Y146625D01*
X1902425Y146700D01*
X1902475Y146725D01*
X1902500Y146750D01*
X1902650Y146925D01*
X1902775Y147100D01*
X1902850Y147275D01*
X1902925Y147450D01*
X1902950Y147600D01*
X1902975Y147725D01*
Y147825D01*
X1902950Y148050D01*
X1902900Y148275D01*
X1902825Y148450D01*
X1902750Y148600D01*
X1902675Y148725D01*
X1902600Y148825D01*
X1902550Y148875D01*
X1902525Y148900D01*
X1902375Y149025D01*
X1902200Y149125D01*
X1902025Y149200D01*
X1901850Y149250D01*
X1901700Y149275D01*
X1901575Y149300D01*
X1894300D01*
Y174475D01*
X1894275Y174700D01*
X1894225Y174900D01*
X1894150Y175075D01*
X1894075Y175225D01*
X1893975Y175350D01*
X1893900Y175425D01*
X1893850Y175475D01*
X1893825Y175500D01*
X1893675Y175625D01*
X1893500Y175725D01*
X1893325Y175800D01*
X1893175Y175850D01*
X1893025Y175875D01*
X1892900Y175900D01*
D02*
G37*
G36*
X1881000D02*
X1875350D01*
X1875125Y175875D01*
X1874925Y175825D01*
X1874725Y175750D01*
X1874575Y175675D01*
X1874450Y175600D01*
X1874375Y175525D01*
X1874325Y175475D01*
X1874300Y175450D01*
X1874175Y175275D01*
X1874075Y175125D01*
X1874000Y174950D01*
X1873950Y174800D01*
X1873925Y174675D01*
X1873900Y174575D01*
Y147850D01*
X1873925Y147625D01*
X1873975Y147425D01*
X1874025Y147250D01*
X1874125Y147100D01*
X1874200Y146975D01*
X1874250Y146875D01*
X1874300Y146825D01*
X1874325Y146800D01*
X1874500Y146650D01*
X1874675Y146550D01*
X1874825Y146475D01*
X1875000Y146425D01*
X1875150Y146400D01*
X1875250Y146375D01*
X1875350D01*
X1875575Y146400D01*
X1875775Y146450D01*
X1875950Y146500D01*
X1876100Y146600D01*
X1876225Y146675D01*
X1876325Y146725D01*
X1876375Y146775D01*
X1876400Y146800D01*
X1876550Y146975D01*
X1876650Y147150D01*
X1876750Y147325D01*
X1876800Y147475D01*
X1876825Y147625D01*
X1876850Y147750D01*
Y147825D01*
Y147850D01*
Y159425D01*
X1880600D01*
X1885000Y147350D01*
X1885200Y147025D01*
X1885400Y146775D01*
X1885625Y146625D01*
X1885850Y146500D01*
X1886050Y146425D01*
X1886225Y146400D01*
X1886325Y146375D01*
X1886375D01*
X1886600Y146400D01*
X1886750Y146425D01*
X1886875Y146450D01*
X1886900Y146475D01*
X1887100Y146550D01*
X1887275Y146675D01*
X1887400Y146775D01*
X1887525Y146900D01*
X1887600Y147025D01*
X1887650Y147100D01*
X1887700Y147175D01*
Y147200D01*
X1887775Y147400D01*
X1887800Y147600D01*
X1887825Y147800D01*
Y147950D01*
X1887800Y148100D01*
Y148200D01*
X1887775Y148275D01*
Y148300D01*
X1883447Y159941D01*
X1884025Y160200D01*
X1884650Y160600D01*
X1885200Y161025D01*
X1885675Y161425D01*
X1886025Y161800D01*
X1886175Y161975D01*
X1886300Y162125D01*
X1886400Y162225D01*
X1886475Y162325D01*
X1886500Y162375D01*
X1886525Y162400D01*
X1886750Y162725D01*
X1886925Y163075D01*
X1887100Y163425D01*
X1887225Y163750D01*
X1887450Y164400D01*
X1887600Y165000D01*
X1887650Y165275D01*
X1887675Y165525D01*
X1887725Y165725D01*
Y165925D01*
X1887750Y166075D01*
Y166175D01*
Y166250D01*
Y166275D01*
Y169075D01*
X1887725Y169600D01*
X1887675Y170075D01*
X1887575Y170550D01*
X1887425Y171000D01*
X1887275Y171425D01*
X1887100Y171825D01*
X1886925Y172200D01*
X1886750Y172525D01*
X1886550Y172825D01*
X1886375Y173100D01*
X1886200Y173325D01*
X1886050Y173525D01*
X1885925Y173675D01*
X1885825Y173775D01*
X1885750Y173850D01*
X1885725Y173875D01*
X1885350Y174225D01*
X1884950Y174550D01*
X1884525Y174825D01*
X1884125Y175050D01*
X1883725Y175250D01*
X1883300Y175400D01*
X1882925Y175550D01*
X1882550Y175650D01*
X1882200Y175725D01*
X1881875Y175800D01*
X1881600Y175850D01*
X1881350Y175875D01*
X1881150D01*
X1881000Y175900D01*
D02*
G37*
G36*
X1869050D02*
X1860250D01*
X1860025Y175875D01*
X1859825Y175850D01*
X1859625Y175775D01*
X1859475Y175700D01*
X1859350Y175625D01*
X1859275Y175575D01*
X1859225Y175525D01*
X1859200Y175500D01*
X1859075Y175350D01*
X1858975Y175175D01*
X1858900Y175000D01*
X1858850Y174850D01*
X1858825Y174700D01*
X1858800Y174575D01*
Y147825D01*
X1858825Y147600D01*
X1858875Y147400D01*
X1858925Y147200D01*
X1859000Y147050D01*
X1859075Y146925D01*
X1859150Y146850D01*
X1859175Y146800D01*
X1859200Y146775D01*
X1859350Y146650D01*
X1859525Y146550D01*
X1859700Y146475D01*
X1859875Y146425D01*
X1860025Y146400D01*
X1860150Y146375D01*
X1868925D01*
X1869175Y146400D01*
X1869375Y146450D01*
X1869575Y146500D01*
X1869725Y146575D01*
X1869850Y146650D01*
X1869950Y146725D01*
X1870000Y146750D01*
X1870025Y146775D01*
X1870150Y146925D01*
X1870250Y147100D01*
X1870325Y147275D01*
X1870375Y147450D01*
X1870400Y147600D01*
X1870425Y147725D01*
Y147825D01*
X1870400Y148050D01*
X1870375Y148275D01*
X1870300Y148450D01*
X1870225Y148600D01*
X1870150Y148725D01*
X1870100Y148800D01*
X1870050Y148850D01*
X1870025Y148875D01*
X1869850Y149025D01*
X1869675Y149125D01*
X1869500Y149200D01*
X1869325Y149250D01*
X1869150Y149275D01*
X1869050Y149300D01*
X1861750D01*
Y159925D01*
X1866600D01*
X1866850Y159950D01*
X1867050Y160000D01*
X1867250Y160050D01*
X1867400Y160125D01*
X1867525Y160200D01*
X1867600Y160275D01*
X1867650Y160300D01*
X1867675Y160325D01*
X1867800Y160500D01*
X1867900Y160675D01*
X1867975Y160850D01*
X1868025Y161025D01*
X1868050Y161200D01*
X1868075Y161325D01*
Y161400D01*
Y161425D01*
X1868050Y161650D01*
X1868025Y161825D01*
X1867950Y162000D01*
X1867875Y162150D01*
X1867800Y162275D01*
X1867750Y162350D01*
X1867700Y162400D01*
X1867675Y162425D01*
X1867525Y162575D01*
X1867350Y162675D01*
X1867150Y162750D01*
X1867000Y162800D01*
X1866825Y162825D01*
X1866725Y162850D01*
X1861750D01*
Y172975D01*
X1868925D01*
X1869175Y173000D01*
X1869375Y173050D01*
X1869575Y173100D01*
X1869725Y173175D01*
X1869850Y173250D01*
X1869950Y173325D01*
X1870000Y173350D01*
X1870025Y173375D01*
X1870150Y173550D01*
X1870250Y173725D01*
X1870325Y173900D01*
X1870375Y174075D01*
X1870400Y174250D01*
X1870425Y174375D01*
Y174475D01*
X1870400Y174700D01*
X1870375Y174900D01*
X1870300Y175075D01*
X1870225Y175225D01*
X1870150Y175325D01*
X1870100Y175425D01*
X1870050Y175475D01*
X1870025Y175500D01*
X1869850Y175625D01*
X1869675Y175725D01*
X1869500Y175800D01*
X1869325Y175850D01*
X1869150Y175875D01*
X1869050Y175900D01*
D02*
G37*
G36*
X1831100D02*
X1830875D01*
X1830325Y175875D01*
X1829825Y175825D01*
X1829375Y175725D01*
X1828950Y175625D01*
X1828625Y175525D01*
X1828375Y175425D01*
X1828275Y175400D01*
X1828200Y175375D01*
X1828175Y175350D01*
X1828150D01*
X1827675Y175125D01*
X1827250Y174875D01*
X1826875Y174625D01*
X1826575Y174400D01*
X1826300Y174175D01*
X1826100Y174000D01*
X1826000Y173900D01*
X1825950Y173850D01*
X1825600Y173500D01*
X1825300Y173125D01*
X1825050Y172750D01*
X1824850Y172400D01*
X1824675Y172100D01*
X1824575Y171875D01*
X1824525Y171775D01*
X1824500Y171700D01*
X1824475Y171675D01*
Y171650D01*
X1824275Y171150D01*
X1824150Y170675D01*
X1824050Y170225D01*
X1823975Y169825D01*
X1823925Y169450D01*
X1823900Y169200D01*
Y153350D01*
X1823925Y152800D01*
X1823975Y152300D01*
X1824075Y151850D01*
X1824175Y151450D01*
X1824275Y151125D01*
X1824375Y150875D01*
X1824400Y150775D01*
X1824425Y150700D01*
X1824450Y150675D01*
Y150650D01*
X1824675Y150175D01*
X1824900Y149750D01*
X1825150Y149375D01*
X1825400Y149050D01*
X1825625Y148775D01*
X1825800Y148600D01*
X1825900Y148475D01*
X1825950Y148425D01*
X1826300Y148075D01*
X1826700Y147775D01*
X1827050Y147525D01*
X1827400Y147300D01*
X1827725Y147150D01*
X1827950Y147025D01*
X1828050Y146975D01*
X1828125Y146950D01*
X1828150Y146925D01*
X1828175D01*
X1828650Y146750D01*
X1829125Y146600D01*
X1829575Y146500D01*
X1829975Y146450D01*
X1830350Y146400D01*
X1830625Y146375D01*
X1830875D01*
X1831375Y146400D01*
X1831850Y146450D01*
X1832275Y146550D01*
X1832650Y146650D01*
X1832950Y146725D01*
X1833175Y146825D01*
X1833325Y146875D01*
X1833375Y146900D01*
X1833900Y147125D01*
X1834375Y147375D01*
X1834800Y147625D01*
X1835150Y147875D01*
X1835450Y148100D01*
X1835650Y148275D01*
X1835775Y148375D01*
X1835825Y148425D01*
X1836150Y148775D01*
X1836450Y149175D01*
X1836700Y149525D01*
X1836925Y149875D01*
X1837100Y150200D01*
X1837225Y150425D01*
X1837275Y150525D01*
X1837300Y150600D01*
X1837325Y150625D01*
Y150650D01*
X1837500Y151125D01*
X1837625Y151600D01*
X1837725Y152050D01*
X1837775Y152475D01*
X1837825Y152825D01*
X1837850Y153100D01*
Y168950D01*
X1837825Y169450D01*
X1837775Y169925D01*
X1837700Y170350D01*
X1837600Y170725D01*
X1837500Y171000D01*
X1837425Y171225D01*
X1837375Y171375D01*
X1837350Y171425D01*
X1837125Y171950D01*
X1836850Y172450D01*
X1836600Y172850D01*
X1836375Y173200D01*
X1836150Y173475D01*
X1835975Y173675D01*
X1835875Y173800D01*
X1835825Y173850D01*
X1835450Y174200D01*
X1835025Y174500D01*
X1834625Y174750D01*
X1834250Y174975D01*
X1833900Y175150D01*
X1833650Y175300D01*
X1833550Y175350D01*
X1833475Y175375D01*
X1833425Y175400D01*
X1833400D01*
X1832975Y175575D01*
X1832525Y175700D01*
X1832100Y175775D01*
X1831725Y175850D01*
X1831375Y175875D01*
X1831100Y175900D01*
D02*
G37*
G36*
X1801300D02*
X1795650D01*
X1795425Y175875D01*
X1795225Y175825D01*
X1795025Y175750D01*
X1794875Y175675D01*
X1794750Y175600D01*
X1794675Y175525D01*
X1794625Y175475D01*
X1794600Y175450D01*
X1794475Y175275D01*
X1794375Y175125D01*
X1794300Y174950D01*
X1794250Y174800D01*
X1794225Y174675D01*
X1794200Y174575D01*
Y147825D01*
X1794225Y147600D01*
X1794275Y147425D01*
X1794325Y147250D01*
X1794425Y147100D01*
X1794500Y146975D01*
X1794550Y146875D01*
X1794600Y146825D01*
X1794625Y146800D01*
X1794800Y146650D01*
X1794975Y146550D01*
X1795125Y146475D01*
X1795300Y146425D01*
X1795450Y146400D01*
X1795550Y146375D01*
X1795650D01*
X1795875Y146400D01*
X1796075Y146450D01*
X1796250Y146500D01*
X1796400Y146600D01*
X1796525Y146675D01*
X1796625Y146725D01*
X1796675Y146775D01*
X1796700Y146800D01*
X1796850Y146975D01*
X1796950Y147150D01*
X1797050Y147300D01*
X1797100Y147475D01*
X1797125Y147625D01*
X1797150Y147725D01*
Y147800D01*
Y147825D01*
Y159425D01*
X1801175D01*
X1801700Y159450D01*
X1802200Y159500D01*
X1802675Y159600D01*
X1803125Y159750D01*
X1803575Y159900D01*
X1803975Y160050D01*
X1804325Y160250D01*
X1804675Y160425D01*
X1804975Y160600D01*
X1805250Y160800D01*
X1805475Y160950D01*
X1805675Y161125D01*
X1805825Y161250D01*
X1805925Y161350D01*
X1806000Y161400D01*
X1806025Y161425D01*
X1806375Y161800D01*
X1806700Y162200D01*
X1806975Y162625D01*
X1807200Y163025D01*
X1807400Y163425D01*
X1807550Y163850D01*
X1807700Y164225D01*
X1807800Y164600D01*
X1807875Y164950D01*
X1807950Y165275D01*
X1808000Y165550D01*
X1808025Y165800D01*
Y166000D01*
X1808050Y166150D01*
Y169025D01*
X1808025Y169550D01*
X1807975Y170050D01*
X1807875Y170525D01*
X1807725Y170975D01*
X1807575Y171425D01*
X1807400Y171825D01*
X1807225Y172175D01*
X1807050Y172525D01*
X1806850Y172825D01*
X1806675Y173100D01*
X1806500Y173325D01*
X1806350Y173525D01*
X1806225Y173675D01*
X1806125Y173775D01*
X1806050Y173850D01*
X1806025Y173875D01*
X1805650Y174225D01*
X1805250Y174550D01*
X1804825Y174825D01*
X1804425Y175050D01*
X1804025Y175250D01*
X1803600Y175400D01*
X1803225Y175550D01*
X1802850Y175650D01*
X1802500Y175725D01*
X1802175Y175800D01*
X1801900Y175850D01*
X1801650Y175875D01*
X1801450D01*
X1801300Y175900D01*
D02*
G37*
G36*
X1783950D02*
X1783725D01*
X1783175Y175875D01*
X1782675Y175825D01*
X1782225Y175725D01*
X1781800Y175625D01*
X1781475Y175525D01*
X1781225Y175425D01*
X1781125Y175400D01*
X1781050Y175375D01*
X1781025Y175350D01*
X1781000D01*
X1780525Y175125D01*
X1780100Y174875D01*
X1779725Y174625D01*
X1779425Y174400D01*
X1779150Y174175D01*
X1778950Y174000D01*
X1778850Y173900D01*
X1778800Y173850D01*
X1778450Y173500D01*
X1778150Y173125D01*
X1777900Y172750D01*
X1777700Y172400D01*
X1777525Y172100D01*
X1777425Y171875D01*
X1777375Y171775D01*
X1777350Y171700D01*
X1777325Y171675D01*
Y171650D01*
X1777125Y171150D01*
X1777000Y170675D01*
X1776900Y170225D01*
X1776825Y169825D01*
X1776775Y169450D01*
X1776750Y169200D01*
Y153350D01*
X1776775Y152800D01*
X1776825Y152300D01*
X1776925Y151850D01*
X1777025Y151450D01*
X1777125Y151125D01*
X1777225Y150875D01*
X1777250Y150775D01*
X1777275Y150700D01*
X1777300Y150675D01*
Y150650D01*
X1777525Y150175D01*
X1777750Y149750D01*
X1778000Y149375D01*
X1778250Y149050D01*
X1778475Y148775D01*
X1778650Y148600D01*
X1778750Y148475D01*
X1778800Y148425D01*
X1779150Y148075D01*
X1779550Y147775D01*
X1779900Y147525D01*
X1780250Y147300D01*
X1780575Y147150D01*
X1780800Y147025D01*
X1780900Y146975D01*
X1780975Y146950D01*
X1781000Y146925D01*
X1781025D01*
X1781500Y146750D01*
X1781975Y146600D01*
X1782425Y146500D01*
X1782825Y146450D01*
X1783200Y146400D01*
X1783475Y146375D01*
X1783725D01*
X1784225Y146400D01*
X1784700Y146450D01*
X1785125Y146550D01*
X1785500Y146650D01*
X1785800Y146725D01*
X1786025Y146825D01*
X1786175Y146875D01*
X1786225Y146900D01*
X1786750Y147125D01*
X1787225Y147375D01*
X1787650Y147625D01*
X1788000Y147875D01*
X1788300Y148100D01*
X1788500Y148275D01*
X1788625Y148375D01*
X1788675Y148425D01*
X1789000Y148775D01*
X1789300Y149175D01*
X1789550Y149525D01*
X1789775Y149875D01*
X1789950Y150200D01*
X1790075Y150425D01*
X1790125Y150525D01*
X1790150Y150600D01*
X1790175Y150625D01*
Y150650D01*
X1790350Y151125D01*
X1790475Y151600D01*
X1790575Y152050D01*
X1790625Y152475D01*
X1790675Y152825D01*
X1790700Y153100D01*
Y168950D01*
X1790675Y169450D01*
X1790625Y169925D01*
X1790550Y170350D01*
X1790450Y170725D01*
X1790350Y171000D01*
X1790275Y171225D01*
X1790225Y171375D01*
X1790200Y171425D01*
X1789975Y171950D01*
X1789700Y172450D01*
X1789450Y172850D01*
X1789225Y173200D01*
X1789000Y173475D01*
X1788825Y173675D01*
X1788725Y173800D01*
X1788675Y173850D01*
X1788300Y174200D01*
X1787875Y174500D01*
X1787475Y174750D01*
X1787100Y174975D01*
X1786750Y175150D01*
X1786500Y175300D01*
X1786400Y175350D01*
X1786325Y175375D01*
X1786275Y175400D01*
X1786250D01*
X1785825Y175575D01*
X1785375Y175700D01*
X1784950Y175775D01*
X1784575Y175850D01*
X1784225Y175875D01*
X1783950Y175900D01*
D02*
G37*
G36*
X1771925D02*
X1760700D01*
X1760475Y175875D01*
X1760300Y175850D01*
X1760125Y175775D01*
X1759975Y175700D01*
X1759850Y175625D01*
X1759775Y175575D01*
X1759725Y175525D01*
X1759700Y175500D01*
X1759575Y175350D01*
X1759475Y175175D01*
X1759400Y175025D01*
X1759350Y174875D01*
X1759325Y174725D01*
X1759300Y174625D01*
Y174425D01*
X1759325Y174225D01*
X1759375Y174025D01*
X1759425Y173850D01*
X1759500Y173700D01*
X1759575Y173575D01*
X1759650Y173475D01*
X1759675Y173425D01*
X1759700Y173400D01*
X1759850Y173250D01*
X1760025Y173150D01*
X1760200Y173075D01*
X1760350Y173025D01*
X1760500Y173000D01*
X1760600Y172975D01*
X1764800D01*
Y147825D01*
X1764825Y147600D01*
X1764875Y147425D01*
X1764925Y147250D01*
X1765025Y147100D01*
X1765100Y146975D01*
X1765150Y146875D01*
X1765200Y146825D01*
X1765225Y146800D01*
X1765400Y146650D01*
X1765575Y146550D01*
X1765750Y146475D01*
X1765925Y146425D01*
X1766050Y146400D01*
X1766175Y146375D01*
X1766275D01*
X1766475Y146400D01*
X1766675Y146450D01*
X1766850Y146500D01*
X1767000Y146600D01*
X1767100Y146675D01*
X1767200Y146725D01*
X1767250Y146775D01*
X1767275Y146800D01*
X1767425Y146975D01*
X1767525Y147150D01*
X1767625Y147300D01*
X1767675Y147475D01*
X1767700Y147625D01*
X1767725Y147725D01*
Y147800D01*
Y147825D01*
Y172975D01*
X1771825D01*
X1772050Y173000D01*
X1772225Y173050D01*
X1772400Y173100D01*
X1772550Y173200D01*
X1772675Y173275D01*
X1772750Y173325D01*
X1772800Y173375D01*
X1772825Y173400D01*
X1772975Y173575D01*
X1773075Y173750D01*
X1773150Y173925D01*
X1773200Y174075D01*
X1773225Y174225D01*
X1773250Y174325D01*
Y174525D01*
X1773225Y174725D01*
X1773175Y174900D01*
X1773125Y175075D01*
X1773050Y175200D01*
X1772950Y175325D01*
X1772900Y175400D01*
X1772850Y175450D01*
X1772825Y175475D01*
X1772675Y175625D01*
X1772500Y175725D01*
X1772325Y175800D01*
X1772175Y175850D01*
X1772025Y175875D01*
X1771925Y175900D01*
D02*
G37*
G36*
X1962300Y179600D02*
X1962125D01*
X1961900Y179550D01*
X1961675Y179475D01*
X1961500Y179400D01*
X1961350Y179275D01*
X1961250Y179175D01*
X1961175Y179100D01*
X1961125Y179025D01*
X1961100Y179000D01*
X1960550Y178275D01*
X1960025Y177550D01*
X1959600Y176900D01*
X1959200Y176300D01*
X1959050Y176025D01*
X1958900Y175800D01*
X1958775Y175600D01*
X1958675Y175400D01*
X1958575Y175275D01*
X1958525Y175175D01*
X1958500Y175100D01*
X1958475Y175075D01*
X1958050Y174225D01*
X1957675Y173400D01*
X1957325Y172625D01*
X1957175Y172275D01*
X1957050Y171950D01*
X1956925Y171650D01*
X1956825Y171375D01*
X1956725Y171125D01*
X1956650Y170925D01*
X1956600Y170775D01*
X1956550Y170650D01*
X1956525Y170575D01*
Y170550D01*
X1956250Y169675D01*
X1956000Y168800D01*
X1955775Y167925D01*
X1955575Y167075D01*
X1955425Y166225D01*
X1955300Y165450D01*
X1955200Y164675D01*
X1955100Y163975D01*
X1955025Y163325D01*
X1954975Y162725D01*
X1954950Y162200D01*
X1954925Y161775D01*
X1954900Y161400D01*
Y160925D01*
X1954925Y160000D01*
X1954975Y159100D01*
X1955050Y158225D01*
X1955150Y157375D01*
X1955275Y156525D01*
X1955400Y155750D01*
X1955550Y155000D01*
X1955700Y154300D01*
X1955850Y153675D01*
X1956000Y153100D01*
X1956125Y152575D01*
X1956250Y152150D01*
X1956350Y151825D01*
X1956425Y151550D01*
X1956450Y151475D01*
X1956475Y151400D01*
X1956500Y151375D01*
Y151350D01*
X1956800Y150500D01*
X1957125Y149675D01*
X1957475Y148850D01*
X1957850Y148075D01*
X1958225Y147325D01*
X1958600Y146625D01*
X1958975Y145975D01*
X1959350Y145375D01*
X1959700Y144800D01*
X1960025Y144300D01*
X1960300Y143875D01*
X1960575Y143500D01*
X1960775Y143225D01*
X1960950Y143000D01*
X1961050Y142875D01*
X1961075Y142825D01*
X1961225Y142650D01*
X1961400Y142525D01*
X1961575Y142425D01*
X1961725Y142375D01*
X1961875Y142325D01*
X1961975Y142300D01*
X1962050Y142275D01*
X1962200D01*
X1962400Y142300D01*
X1962600Y142325D01*
X1962750Y142375D01*
X1962900Y142450D01*
X1963025Y142500D01*
X1963125Y142550D01*
X1963175Y142575D01*
X1963200Y142600D01*
X1963375Y142750D01*
X1963500Y142900D01*
X1963600Y143050D01*
X1963675Y143200D01*
X1963725Y143350D01*
X1963750Y143450D01*
X1963775Y143525D01*
Y143775D01*
X1963750Y143975D01*
X1963675Y144175D01*
X1963600Y144325D01*
X1963525Y144475D01*
X1963475Y144575D01*
X1963425Y144625D01*
X1963400Y144650D01*
X1962900Y145325D01*
X1962450Y146000D01*
X1962000Y146650D01*
X1961625Y147250D01*
X1961450Y147525D01*
X1961300Y147800D01*
X1961175Y148025D01*
X1961075Y148200D01*
X1960975Y148350D01*
X1960900Y148475D01*
X1960875Y148550D01*
X1960850Y148575D01*
X1960525Y149250D01*
X1960200Y149925D01*
X1959925Y150600D01*
X1959675Y151225D01*
X1959550Y151525D01*
X1959450Y151775D01*
X1959375Y152025D01*
X1959300Y152225D01*
X1959225Y152375D01*
X1959175Y152500D01*
X1959150Y152575D01*
Y152600D01*
X1958925Y153350D01*
X1958700Y154075D01*
X1958525Y154825D01*
X1958375Y155550D01*
X1958250Y156275D01*
X1958125Y156950D01*
X1958050Y157625D01*
X1957975Y158225D01*
X1957925Y158800D01*
X1957875Y159325D01*
X1957850Y159775D01*
X1957825Y160175D01*
X1957800Y160500D01*
Y160725D01*
Y160875D01*
Y160925D01*
X1957825Y161750D01*
X1957850Y162550D01*
X1957925Y163325D01*
X1958000Y164075D01*
X1958125Y164800D01*
X1958225Y165500D01*
X1958350Y166150D01*
X1958475Y166750D01*
X1958600Y167300D01*
X1958725Y167800D01*
X1958850Y168250D01*
X1958950Y168600D01*
X1959025Y168900D01*
X1959100Y169125D01*
X1959125Y169250D01*
X1959150Y169300D01*
X1959450Y170125D01*
X1959775Y170900D01*
X1960100Y171600D01*
X1960225Y171925D01*
X1960375Y172225D01*
X1960500Y172500D01*
X1960625Y172750D01*
X1960725Y172950D01*
X1960825Y173125D01*
X1960900Y173275D01*
X1960950Y173400D01*
X1961000Y173450D01*
Y173475D01*
X1961400Y174200D01*
X1961825Y174875D01*
X1962225Y175525D01*
X1962600Y176075D01*
X1962775Y176325D01*
X1962925Y176550D01*
X1963075Y176750D01*
X1963200Y176925D01*
X1963300Y177050D01*
X1963375Y177150D01*
X1963400Y177200D01*
X1963425Y177225D01*
X1963550Y177425D01*
X1963650Y177600D01*
X1963700Y177775D01*
X1963750Y177950D01*
X1963775Y178100D01*
Y178300D01*
X1963725Y178500D01*
X1963625Y178700D01*
X1963550Y178850D01*
X1963450Y179000D01*
X1963375Y179100D01*
X1963300Y179175D01*
X1963250Y179225D01*
X1963225Y179250D01*
X1963050Y179375D01*
X1962875Y179450D01*
X1962525Y179550D01*
X1962400Y179575D01*
X1962300Y179600D01*
D02*
G37*
G36*
X2042225Y179525D02*
X2042000Y179500D01*
X2041825Y179475D01*
X2041650Y179425D01*
X2041500Y179375D01*
X2041375Y179300D01*
X2041275Y179250D01*
X2041225Y179225D01*
X2041200Y179200D01*
X2041050Y179050D01*
X2040925Y178900D01*
X2040825Y178750D01*
X2040750Y178575D01*
X2040700Y178450D01*
X2040675Y178325D01*
X2040650Y178250D01*
Y178025D01*
X2040675Y177825D01*
X2040725Y177625D01*
X2040775Y177475D01*
X2040825Y177350D01*
X2040875Y177250D01*
X2040925Y177175D01*
Y177150D01*
X2041450Y176475D01*
X2041925Y175825D01*
X2042350Y175175D01*
X2042725Y174600D01*
X2042875Y174350D01*
X2043025Y174125D01*
X2043150Y173925D01*
X2043250Y173725D01*
X2043325Y173600D01*
X2043375Y173500D01*
X2043425Y173425D01*
Y173400D01*
X2043800Y172675D01*
X2044125Y171950D01*
X2044450Y171250D01*
X2044725Y170625D01*
X2044825Y170325D01*
X2044925Y170075D01*
X2045025Y169850D01*
X2045100Y169650D01*
X2045175Y169500D01*
X2045225Y169375D01*
X2045250Y169300D01*
Y169275D01*
X2045500Y168500D01*
X2045700Y167750D01*
X2045875Y166975D01*
X2046025Y166225D01*
X2046150Y165500D01*
X2046275Y164800D01*
X2046350Y164150D01*
X2046425Y163525D01*
X2046500Y162950D01*
X2046525Y162425D01*
X2046550Y161975D01*
X2046575Y161575D01*
X2046600Y161250D01*
Y161025D01*
Y160875D01*
Y160850D01*
Y160825D01*
X2046575Y160000D01*
X2046550Y159200D01*
X2046475Y158425D01*
X2046400Y157650D01*
X2046300Y156925D01*
X2046175Y156225D01*
X2046050Y155575D01*
X2045925Y154950D01*
X2045800Y154400D01*
X2045675Y153900D01*
X2045575Y153450D01*
X2045450Y153075D01*
X2045375Y152775D01*
X2045300Y152550D01*
X2045275Y152425D01*
X2045250Y152375D01*
X2044950Y151575D01*
X2044625Y150825D01*
X2044350Y150150D01*
X2044200Y149850D01*
X2044075Y149575D01*
X2043950Y149325D01*
X2043850Y149100D01*
X2043750Y148900D01*
X2043675Y148725D01*
X2043625Y148600D01*
X2043575Y148500D01*
X2043525Y148450D01*
Y148425D01*
X2043075Y147650D01*
X2042625Y146925D01*
X2042200Y146275D01*
X2041800Y145700D01*
X2041600Y145450D01*
X2041450Y145225D01*
X2041300Y145025D01*
X2041175Y144850D01*
X2041075Y144725D01*
X2041000Y144625D01*
X2040950Y144575D01*
X2040925Y144550D01*
X2040825Y144375D01*
X2040750Y144175D01*
X2040675Y143825D01*
X2040650Y143700D01*
Y143475D01*
X2040700Y143250D01*
X2040775Y143075D01*
X2040850Y142900D01*
X2040950Y142775D01*
X2041050Y142650D01*
X2041125Y142575D01*
X2041175Y142525D01*
X2041200Y142500D01*
X2041375Y142400D01*
X2041525Y142325D01*
X2041825Y142225D01*
X2041950Y142200D01*
X2042050Y142175D01*
X2042325D01*
X2042525Y142225D01*
X2042700Y142300D01*
X2042875Y142400D01*
X2043000Y142500D01*
X2043125Y142600D01*
X2043200Y142675D01*
X2043250Y142725D01*
X2043275Y142750D01*
X2043825Y143475D01*
X2044350Y144225D01*
X2044850Y144975D01*
X2045300Y145725D01*
X2045700Y146450D01*
X2046100Y147175D01*
X2046450Y147850D01*
X2046750Y148500D01*
X2047025Y149100D01*
X2047275Y149650D01*
X2047475Y150125D01*
X2047650Y150550D01*
X2047775Y150900D01*
X2047875Y151150D01*
X2047900Y151225D01*
X2047925Y151300D01*
X2047950Y151325D01*
Y151350D01*
X2048225Y152225D01*
X2048475Y153075D01*
X2048700Y153925D01*
X2048875Y154775D01*
X2049025Y155575D01*
X2049150Y156375D01*
X2049275Y157125D01*
X2049350Y157825D01*
X2049425Y158450D01*
X2049475Y159050D01*
X2049500Y159550D01*
X2049525Y160000D01*
X2049550Y160350D01*
Y160825D01*
X2049525Y161750D01*
X2049475Y162650D01*
X2049375Y163550D01*
X2049250Y164425D01*
X2049125Y165275D01*
X2048975Y166100D01*
X2048800Y166850D01*
X2048625Y167575D01*
X2048450Y168225D01*
X2048275Y168825D01*
X2048125Y169350D01*
X2048000Y169775D01*
X2047875Y170150D01*
X2047825Y170275D01*
X2047775Y170400D01*
X2047750Y170500D01*
X2047725Y170575D01*
X2047700Y170600D01*
Y170625D01*
X2047425Y171425D01*
X2047125Y172200D01*
X2046800Y172975D01*
X2046450Y173725D01*
X2046075Y174450D01*
X2045700Y175125D01*
X2045350Y175775D01*
X2044975Y176375D01*
X2044625Y176925D01*
X2044300Y177425D01*
X2044025Y177850D01*
X2043750Y178225D01*
X2043550Y178525D01*
X2043400Y178750D01*
X2043275Y178875D01*
X2043250Y178925D01*
X2043100Y179125D01*
X2042950Y179250D01*
X2042800Y179350D01*
X2042650Y179425D01*
X2042525Y179475D01*
X2042450Y179500D01*
X2042350D01*
X2042225Y179525D01*
D02*
G37*
%LPD*%
G36*
X2018700Y175600D02*
X2018675D01*
X2018725Y175625D01*
X2018700Y175600D01*
D02*
G37*
G36*
X1990800Y172925D02*
X1991350Y172800D01*
X1991825Y172600D01*
X1992225Y172400D01*
X1992550Y172200D01*
X1992800Y172000D01*
X1992950Y171875D01*
X1992975Y171850D01*
X1993000Y171825D01*
X1993200Y171600D01*
X1993375Y171375D01*
X1993675Y170900D01*
X1993875Y170450D01*
X1994000Y170025D01*
X1994100Y169650D01*
X1994125Y169475D01*
Y169350D01*
X1994150Y169225D01*
Y169150D01*
Y169100D01*
Y169075D01*
Y166275D01*
Y165975D01*
X1994100Y165700D01*
X1993975Y165175D01*
X1993775Y164700D01*
X1993575Y164300D01*
X1993375Y163950D01*
X1993175Y163700D01*
X1993100Y163625D01*
X1993050Y163550D01*
X1993025Y163525D01*
X1993000Y163500D01*
X1992775Y163300D01*
X1992550Y163125D01*
X1992075Y162825D01*
X1991625Y162625D01*
X1991175Y162500D01*
X1990800Y162400D01*
X1990650Y162375D01*
X1990500D01*
X1990375Y162350D01*
X1986200D01*
Y172975D01*
X1990525D01*
X1990800Y172925D01*
D02*
G37*
G36*
X1973475D02*
X1974025Y172800D01*
X1974500Y172600D01*
X1974900Y172400D01*
X1975225Y172200D01*
X1975475Y172000D01*
X1975625Y171875D01*
X1975650Y171850D01*
X1975675Y171825D01*
X1975875Y171600D01*
X1976050Y171375D01*
X1976350Y170900D01*
X1976550Y170425D01*
X1976675Y170000D01*
X1976775Y169600D01*
X1976800Y169450D01*
Y169300D01*
X1976825Y169175D01*
Y169100D01*
Y169050D01*
Y169025D01*
Y166275D01*
Y165975D01*
X1976775Y165675D01*
X1976650Y165150D01*
X1976450Y164650D01*
X1976250Y164250D01*
X1976050Y163900D01*
X1975850Y163650D01*
X1975775Y163575D01*
X1975725Y163500D01*
X1975700Y163475D01*
X1975675Y163450D01*
X1975450Y163250D01*
X1975225Y163075D01*
X1974750Y162775D01*
X1974300Y162575D01*
X1973850Y162450D01*
X1973475Y162350D01*
X1973325Y162325D01*
X1973175D01*
X1973050Y162300D01*
X1968875D01*
Y172975D01*
X1973200D01*
X1973475Y172925D01*
D02*
G37*
G36*
X1916700Y155975D02*
X1910200D01*
X1913450Y169800D01*
X1916700Y155975D01*
D02*
G37*
G36*
X1881450Y172925D02*
X1882000Y172800D01*
X1882475Y172600D01*
X1882875Y172400D01*
X1883200Y172200D01*
X1883450Y172000D01*
X1883600Y171875D01*
X1883625Y171850D01*
X1883650Y171825D01*
X1883850Y171600D01*
X1884025Y171375D01*
X1884325Y170900D01*
X1884525Y170450D01*
X1884650Y170025D01*
X1884750Y169650D01*
X1884775Y169475D01*
Y169350D01*
X1884800Y169225D01*
Y169150D01*
Y169100D01*
Y169075D01*
Y166275D01*
Y165975D01*
X1884750Y165700D01*
X1884625Y165175D01*
X1884425Y164700D01*
X1884225Y164300D01*
X1884025Y163950D01*
X1883825Y163700D01*
X1883750Y163625D01*
X1883700Y163550D01*
X1883675Y163525D01*
X1883650Y163500D01*
X1883425Y163300D01*
X1883200Y163125D01*
X1882725Y162825D01*
X1882275Y162625D01*
X1881825Y162500D01*
X1881450Y162400D01*
X1881300Y162375D01*
X1881150D01*
X1881025Y162350D01*
X1876850D01*
Y172975D01*
X1881175D01*
X1881450Y172925D01*
D02*
G37*
G36*
X1831175Y172950D02*
X1831450Y172925D01*
X1831700Y172875D01*
X1831950Y172825D01*
X1832125Y172750D01*
X1832275Y172700D01*
X1832375Y172675D01*
X1832400Y172650D01*
X1832675Y172525D01*
X1832950Y172375D01*
X1833175Y172225D01*
X1833375Y172075D01*
X1833550Y171925D01*
X1833675Y171800D01*
X1833750Y171725D01*
X1833775Y171700D01*
X1834100Y171300D01*
X1834375Y170925D01*
X1834450Y170775D01*
X1834525Y170650D01*
X1834550Y170550D01*
X1834575Y170525D01*
X1834675Y170250D01*
X1834775Y169975D01*
X1834825Y169700D01*
X1834850Y169450D01*
X1834875Y169250D01*
X1834900Y169100D01*
Y169000D01*
Y168950D01*
Y153350D01*
X1834875Y153025D01*
X1834850Y152725D01*
X1834700Y152150D01*
X1834475Y151625D01*
X1834250Y151175D01*
X1834000Y150775D01*
X1833875Y150625D01*
X1833775Y150500D01*
X1833700Y150400D01*
X1833625Y150325D01*
X1833600Y150275D01*
X1833575Y150250D01*
X1833150Y149925D01*
X1832700Y149700D01*
X1832250Y149525D01*
X1831825Y149425D01*
X1831450Y149350D01*
X1831275Y149325D01*
X1831150D01*
X1831025Y149300D01*
X1830875D01*
X1830575Y149325D01*
X1830275Y149350D01*
X1829700Y149475D01*
X1829225Y149650D01*
X1828800Y149875D01*
X1828450Y150075D01*
X1828200Y150250D01*
X1828125Y150325D01*
X1828050Y150375D01*
X1828025Y150425D01*
X1828000D01*
X1827800Y150650D01*
X1827625Y150900D01*
X1827325Y151400D01*
X1827125Y151875D01*
X1827000Y152350D01*
X1826900Y152750D01*
X1826875Y152925D01*
Y153075D01*
X1826850Y153175D01*
Y153275D01*
Y153325D01*
Y153350D01*
Y168950D01*
X1826900Y169550D01*
X1827000Y170075D01*
X1827150Y170525D01*
X1827325Y170925D01*
X1827475Y171225D01*
X1827625Y171450D01*
X1827725Y171600D01*
X1827775Y171650D01*
X1828050Y171875D01*
X1828325Y172100D01*
X1828600Y172275D01*
X1828850Y172425D01*
X1829375Y172650D01*
X1829850Y172800D01*
X1830275Y172900D01*
X1830450Y172925D01*
X1830600Y172950D01*
X1830700Y172975D01*
X1830875D01*
X1831175Y172950D01*
D02*
G37*
G36*
X1801750Y172925D02*
X1802300Y172800D01*
X1802775Y172600D01*
X1803175Y172400D01*
X1803500Y172200D01*
X1803750Y172000D01*
X1803900Y171875D01*
X1803925Y171850D01*
X1803950Y171825D01*
X1804150Y171600D01*
X1804325Y171375D01*
X1804625Y170900D01*
X1804825Y170425D01*
X1804950Y170000D01*
X1805050Y169600D01*
X1805075Y169450D01*
Y169300D01*
X1805100Y169175D01*
Y169100D01*
Y169050D01*
Y169025D01*
Y166275D01*
Y165975D01*
X1805050Y165675D01*
X1804925Y165150D01*
X1804725Y164650D01*
X1804525Y164250D01*
X1804325Y163900D01*
X1804125Y163650D01*
X1804050Y163575D01*
X1804000Y163500D01*
X1803975Y163475D01*
X1803950Y163450D01*
X1803725Y163250D01*
X1803500Y163075D01*
X1803025Y162775D01*
X1802575Y162575D01*
X1802125Y162450D01*
X1801750Y162350D01*
X1801600Y162325D01*
X1801450D01*
X1801325Y162300D01*
X1797150D01*
Y172975D01*
X1801475D01*
X1801750Y172925D01*
D02*
G37*
G36*
X1784025Y172950D02*
X1784300Y172925D01*
X1784550Y172875D01*
X1784800Y172825D01*
X1784975Y172750D01*
X1785125Y172700D01*
X1785225Y172675D01*
X1785250Y172650D01*
X1785525Y172525D01*
X1785800Y172375D01*
X1786025Y172225D01*
X1786225Y172075D01*
X1786400Y171925D01*
X1786525Y171800D01*
X1786600Y171725D01*
X1786625Y171700D01*
X1786950Y171300D01*
X1787225Y170925D01*
X1787300Y170775D01*
X1787375Y170650D01*
X1787400Y170550D01*
X1787425Y170525D01*
X1787525Y170250D01*
X1787625Y169975D01*
X1787675Y169700D01*
X1787700Y169450D01*
X1787725Y169250D01*
X1787750Y169100D01*
Y169000D01*
Y168950D01*
Y153350D01*
X1787725Y153025D01*
X1787700Y152725D01*
X1787550Y152150D01*
X1787325Y151625D01*
X1787100Y151175D01*
X1786850Y150775D01*
X1786725Y150625D01*
X1786625Y150500D01*
X1786550Y150400D01*
X1786475Y150325D01*
X1786450Y150275D01*
X1786425Y150250D01*
X1786000Y149925D01*
X1785550Y149700D01*
X1785100Y149525D01*
X1784675Y149425D01*
X1784300Y149350D01*
X1784125Y149325D01*
X1784000D01*
X1783875Y149300D01*
X1783725D01*
X1783425Y149325D01*
X1783125Y149350D01*
X1782550Y149475D01*
X1782075Y149650D01*
X1781650Y149875D01*
X1781300Y150075D01*
X1781050Y150250D01*
X1780975Y150325D01*
X1780900Y150375D01*
X1780875Y150425D01*
X1780850D01*
X1780650Y150650D01*
X1780475Y150900D01*
X1780175Y151400D01*
X1779975Y151875D01*
X1779850Y152350D01*
X1779750Y152750D01*
X1779725Y152925D01*
Y153075D01*
X1779700Y153175D01*
Y153275D01*
Y153325D01*
Y153350D01*
Y168950D01*
X1779750Y169550D01*
X1779850Y170075D01*
X1780000Y170525D01*
X1780175Y170925D01*
X1780325Y171225D01*
X1780475Y171450D01*
X1780575Y171600D01*
X1780625Y171650D01*
X1780900Y171875D01*
X1781175Y172100D01*
X1781450Y172275D01*
X1781700Y172425D01*
X1782225Y172650D01*
X1782700Y172800D01*
X1783125Y172900D01*
X1783300Y172925D01*
X1783450Y172950D01*
X1783550Y172975D01*
X1783725D01*
X1784025Y172950D01*
D02*
G37*
D10*
X316975Y249095D02*
X317713Y249521D01*
X316975Y249948D01*
Y249095D01*
X473528Y342239D02*
X474266Y342666D01*
X473528Y343092D01*
Y342239D01*
D11*
X338900Y189988D02*
Y201012D01*
X419282D01*
Y189988D01*
X338900D01*
X331900Y209688D02*
X412282D01*
Y220712D01*
X331900D01*
Y209688D01*
X330189Y230520D02*
X330835Y231269D01*
X331407Y232076D01*
X331900Y232934D01*
X332310Y233835D01*
X332632Y234770D01*
X332865Y235731D01*
X333005Y236711D01*
X333052Y237699D01*
X333005Y238687D01*
X332865Y239666D01*
X332632Y240628D01*
X332310Y241563D01*
X331900Y242463D01*
X331407Y243321D01*
X330835Y244128D01*
X330189Y244878D01*
X329475Y245562D01*
X328700Y246176D01*
X327870Y246714D01*
X326992Y247171D01*
X326075Y247543D01*
X325127Y247826D01*
X324157Y248018D01*
X323173Y248117D01*
X322183Y248123D01*
X321198Y248035D01*
X320226Y247854D01*
X319274Y247581D01*
X318354Y247220D01*
X317471Y246773D01*
X316635Y246245D01*
X316635Y246245D02*
Y229152D01*
X316635Y229152D02*
X317471Y228624D01*
X318354Y228177D01*
X319274Y227816D01*
X320226Y227544D01*
X321198Y227363D01*
X322183Y227275D01*
X323173Y227280D01*
X324157Y227380D01*
X325127Y227572D01*
X326075Y227855D01*
X326992Y228226D01*
X327870Y228683D01*
X328700Y229221D01*
X329475Y229835D01*
X330189Y230520D01*
X428385Y201012D02*
X490385D01*
Y189988D01*
X428385D01*
Y201012D01*
X420300Y209688D02*
X482300D01*
Y220712D01*
X420300D01*
Y209688D01*
X482774Y312865D02*
Y340565D01*
X470374D01*
Y312865D01*
X482774D01*
X489282Y360988D02*
Y372012D01*
X408900D01*
Y360988D01*
X489282D01*
Y379988D02*
Y391012D01*
X408900D01*
Y379988D01*
X489282D01*
X403818Y391012D02*
Y379988D01*
X303018D01*
Y391012D01*
X403818D01*
Y372012D02*
Y360988D01*
X303018D01*
Y372012D01*
X403818D01*
D12*
X354500Y237900D02*
Y257900D01*
X354500Y257900D02*
X355506Y257951D01*
X356502Y258102D01*
X357477Y258353D01*
X358423Y258701D01*
X359328Y259143D01*
X360185Y259673D01*
X360984Y260287D01*
X361717Y260978D01*
X362376Y261739D01*
X362956Y262562D01*
X363451Y263440D01*
X363854Y264363D01*
X364162Y265322D01*
X364372Y266307D01*
X364482Y267309D01*
X364491Y268316D01*
X364399Y269319D01*
X364206Y270308D01*
X363914Y271272D01*
X363527Y272202D01*
X363049Y273088D01*
X362483Y273922D01*
X361837Y274695D01*
X361116Y275398D01*
X360328Y276026D01*
X359481Y276571D01*
X358584Y277028D01*
X357645Y277393D01*
X356674Y277661D01*
X355680Y277830D01*
X354676Y277899D01*
X354500Y277898D02*
Y297900D01*
X493500D01*
Y237900D01*
X354500D01*
D13*
X245065Y282700D02*
X339800D01*
Y288979D01*
X339800Y288979D02*
X338844Y289121D01*
X337958Y289505D01*
X337199Y290103D01*
X336621Y290877D01*
X336261Y291774D01*
X336144Y292733D01*
X336278Y293689D01*
X336653Y294580D01*
X337245Y295343D01*
X338014Y295929D01*
X338907Y296296D01*
X339865Y296422D01*
X339865Y296422D02*
Y302965D01*
X245065D01*
X245065Y302800D02*
X245065Y282700D01*
X367165Y323901D02*
Y344001D01*
Y344166D02*
X461965D01*
Y337622D01*
X461965Y337622D02*
X461007Y337497D01*
X460114Y337129D01*
X459345Y336543D01*
X458753Y335780D01*
X458378Y334890D01*
X458244Y333933D01*
X458361Y332974D01*
X458721Y332078D01*
X459299Y331304D01*
X460057Y330705D01*
X460944Y330322D01*
X461900Y330179D01*
X461900Y330180D02*
Y323901D01*
X367165D01*
D14*
X301563Y217864D02*
Y238336D01*
X309437Y238336D01*
Y217864D01*
X301563Y217864D01*
X339663Y238211D02*
X339663Y258683D01*
X347537Y258683D01*
Y238211D01*
X339663D01*
X346074Y321764D02*
Y342236D01*
X338200D01*
X338200Y321764D01*
X346074Y321764D01*
X349370D02*
Y342236D01*
X357244D01*
Y321764D01*
X349370Y321764D01*
X334904Y342236D02*
X327030D01*
Y321764D01*
X334904D01*
Y342236D01*
X323734Y342236D02*
Y321764D01*
X315860D01*
X315860Y342236D01*
X323734Y342236D01*
X312564Y342236D02*
X304690D01*
Y321764D01*
X312564D01*
Y342236D01*
X301394D02*
X301394Y321764D01*
X293520D01*
X293520Y342236D01*
X301394D01*
X290224D02*
X282350D01*
Y321764D01*
X290224D01*
Y342236D01*
X279054Y342236D02*
Y321764D01*
X271180D01*
X271180Y342236D01*
X279054Y342236D01*
X268377Y342236D02*
X260503D01*
Y321764D01*
X268377D01*
Y342236D01*
X257207D02*
X249333D01*
Y321764D01*
X257207D01*
Y342236D01*
D15*
X249236Y266600D02*
X250302D01*
X249769D01*
Y269799D01*
X249236Y269266D01*
X295101Y231798D02*
X295634Y231265D01*
X295101Y231798D02*
X298300D01*
Y232331D01*
Y231265D01*
Y229665D02*
Y229132D01*
X295101D01*
X295634Y228599D01*
Y227533D02*
X296701D01*
X297234Y226999D01*
Y225400D01*
X298300D02*
X295101D01*
Y226999D01*
X295634Y227533D01*
X297234Y226466D02*
X298300Y227533D01*
Y228599D02*
Y229665D01*
X320987Y216923D02*
X323120D01*
X322053D01*
Y213724D01*
X324186D02*
X325786D01*
X326319Y214257D01*
Y214790D01*
X325786Y215323D01*
X324186D01*
X325786D01*
X326319Y215856D01*
Y216389D01*
X325786Y216923D01*
X324186D01*
Y213724D01*
X327918D02*
X327385Y214257D01*
X327918Y213724D02*
X328984D01*
X329518Y214257D01*
Y214790D01*
X328984Y215323D01*
X328451D01*
X328984D01*
X329518Y215856D01*
Y216389D01*
X328984Y216923D01*
X327918D01*
X327385Y216389D01*
X327437Y196179D02*
X329570D01*
X328503D01*
Y192980D01*
X330636D02*
X332236D01*
X332769Y193513D01*
Y194046D01*
X332236Y194579D01*
X330636D01*
X332236D01*
X332769Y195112D01*
Y195645D01*
X332236Y196179D01*
X330636D01*
Y192980D01*
X335435D02*
Y196179D01*
X333835Y194579D01*
X335968D01*
X428393Y207025D02*
X430526D01*
X429459D01*
Y203826D01*
X431592D02*
X433191D01*
X433725Y204359D01*
Y204892D01*
X433191Y205425D01*
X431592D01*
X433191D01*
X433725Y205959D01*
Y206492D01*
X433191Y207025D01*
X431592D01*
Y203826D01*
X435324D02*
X434791Y204359D01*
Y205425D02*
X435857Y205959D01*
X436390D01*
X436924Y205425D01*
Y204359D01*
X436390Y203826D01*
X435324D01*
X434791Y205425D02*
Y207025D01*
X436924D01*
X428291Y223526D02*
X428824Y224059D01*
Y224592D01*
X428291Y225125D01*
X426691D01*
Y224059D01*
X427224Y223526D01*
X428291D01*
X427757Y226192D02*
X426691Y225125D01*
X425625Y224592D02*
X425092Y225125D01*
X423492D01*
X425092D01*
X425625Y225658D01*
Y226192D01*
X425092Y226725D01*
X423492D01*
Y223526D01*
X425092D01*
X425625Y224059D01*
Y224592D01*
X427757Y226192D02*
X428824Y226725D01*
X422426D02*
X421359D01*
Y223526D01*
X420293Y226725D02*
X422426D01*
X487901Y333700D02*
Y335833D01*
Y334766D01*
X491100D01*
Y336899D02*
Y338498D01*
X490567Y339032D01*
X490034D01*
X489501Y338498D01*
Y336899D01*
Y338498D01*
X488967Y339032D01*
X488434D01*
X487901Y338498D01*
Y336899D01*
X491100D01*
X490567Y340098D02*
X491100Y340631D01*
Y341697D01*
X490567Y342231D01*
X488434D01*
X487901Y341697D01*
Y340631D01*
X488434Y340098D01*
X488967D01*
X489501Y340631D01*
Y342231D01*
X470832Y342800D02*
X468699D01*
X470832Y344933D01*
Y345466D01*
X470299Y345999D01*
X469233D01*
X468699Y345466D01*
X467633Y345999D02*
Y343333D01*
X467100Y342800D01*
X466034D01*
X465500Y343333D01*
Y345999D01*
X414798Y355000D02*
Y355533D01*
X416930Y357666D01*
Y358199D01*
X414798D01*
X413198D02*
X411599D01*
Y355000D01*
X413198D01*
X413732Y355533D01*
Y356066D01*
X413198Y356599D01*
X411599D01*
X413198D01*
X413732Y357133D01*
Y357666D01*
X413198Y358199D01*
X410533D02*
X409466D01*
Y355000D01*
X408400Y358199D02*
X410533D01*
X409966Y374200D02*
Y377399D01*
X411032D01*
X408900D01*
X412099D02*
Y374200D01*
X413698D01*
X414231Y374733D01*
Y375266D01*
X413698Y375799D01*
X412099D01*
X413698D01*
X414231Y376333D01*
Y376866D01*
X413698Y377399D01*
X412099D01*
X415831D02*
X416897D01*
X417430Y376866D01*
Y376333D01*
X416897Y375799D01*
X417430Y375266D01*
Y374733D01*
X416897Y374200D01*
X415831D01*
X415298Y374733D01*
Y375266D01*
X415831Y375799D01*
X415298Y376333D01*
Y376866D01*
X415831Y377399D01*
Y375799D02*
X416897D01*
X353992Y355125D02*
X354525Y354592D01*
Y354059D01*
X353992Y353525D01*
X353458D01*
X353992D01*
X354525Y352992D01*
Y352459D01*
X353992Y351926D01*
X352925D01*
X352392Y352459D01*
X351326Y351926D02*
X350259Y352992D01*
X350793D02*
X349193D01*
Y351926D02*
Y355125D01*
X350793D01*
X351326Y354592D01*
Y353525D01*
X350793Y352992D01*
X352392Y354592D02*
X352925Y355125D01*
X353992D01*
X342792D02*
X341192Y353525D01*
X343325D01*
X342792Y351926D02*
Y355125D01*
X339593D02*
X340126Y354592D01*
Y353525D01*
X339593Y352992D01*
X337993D01*
Y351926D02*
Y355125D01*
X339593D01*
X339059Y352992D02*
X340126Y351926D01*
X363566Y308379D02*
X364100D01*
Y305713D01*
X363566Y305180D01*
X363033D01*
X362500Y305713D01*
X365699Y305180D02*
X366765D01*
X366232D01*
Y308379D01*
X365699Y307845D01*
X364633Y308379D02*
X363566D01*
X332125Y352459D02*
X331592Y351926D01*
X330525D01*
X329992Y352459D01*
Y353525D02*
X331058Y354059D01*
X331592D01*
X332125Y353525D01*
Y352459D01*
Y355125D02*
X329992D01*
Y353525D01*
X328926D02*
X328393Y352992D01*
X326793D01*
Y351926D02*
Y355125D01*
X328393D01*
X328926Y354592D01*
Y353525D01*
X327859Y352992D02*
X328926Y351926D01*
X320492D02*
X321025Y352459D01*
Y352992D01*
X320492Y353525D01*
X318892D01*
Y352459D01*
X319425Y351926D01*
X320492D01*
X317826D02*
X316759Y352992D01*
X317292D02*
X315693D01*
Y351926D02*
Y355125D01*
X317292D01*
X317826Y354592D01*
Y353525D01*
X317292Y352992D01*
X318892Y353525D02*
X319958Y354592D01*
X321025Y355125D01*
X309825D02*
Y354592D01*
X307692Y352459D01*
Y351926D01*
X306626D02*
X305559Y352992D01*
X306093D02*
X304493D01*
Y351926D02*
Y355125D01*
X306093D01*
X306626Y354592D01*
Y353525D01*
X306093Y352992D01*
X307692Y355125D02*
X309825D01*
X298092D02*
X298625Y354592D01*
Y354059D01*
X298092Y353525D01*
X298625Y352992D01*
Y352459D01*
X298092Y351926D01*
X297025D01*
X296492Y352459D01*
Y352992D01*
X297025Y353525D01*
X296492Y354059D01*
Y354592D01*
X297025Y355125D01*
X298092D01*
Y353525D02*
X297025D01*
X295426D02*
X294893Y352992D01*
X293293D01*
Y351926D02*
Y355125D01*
X294893D01*
X295426Y354592D01*
Y353525D01*
X294359Y352992D02*
X295426Y351926D01*
X295499Y360988D02*
X297098D01*
X297632Y361521D01*
Y362055D01*
X297098Y362588D01*
X295499D01*
X297098D01*
X297632Y363121D01*
Y363654D01*
X297098Y364187D01*
X295499D01*
Y360988D01*
X298698D02*
X299764D01*
X299231D01*
Y364187D01*
X298698Y363654D01*
X294433Y364187D02*
X293366D01*
Y360988D01*
X292300Y364187D02*
X294433D01*
X299149Y374826D02*
Y378025D01*
X300216D01*
X298083D01*
X301282D02*
Y374826D01*
X302881D01*
X303415Y375359D01*
Y375892D01*
X302881Y376425D01*
X301282D01*
X302881D01*
X303415Y376958D01*
Y377492D01*
X302881Y378025D01*
X301282D01*
X305014D02*
X304481Y377492D01*
X305014Y378025D02*
X306080D01*
X306613Y377492D01*
Y376958D01*
X304481Y374826D01*
X306613D01*
X286992Y355125D02*
X285925D01*
X285392Y354592D01*
Y354059D01*
X285925Y353525D01*
X287525D01*
Y352459D02*
Y354592D01*
X286992Y355125D01*
X283792D02*
X284326Y354592D01*
Y353525D01*
X283792Y352992D01*
X282193D01*
Y351926D02*
Y355125D01*
X283792D01*
X283259Y352992D02*
X284326Y351926D01*
X285392Y352459D02*
X285925Y351926D01*
X286992D01*
X287525Y352459D01*
X278991D02*
X278457Y351926D01*
X277391D01*
X276858Y352459D01*
Y354592D01*
X277391Y355125D01*
X278457D01*
X278991Y354592D01*
Y352459D01*
X275258Y351926D02*
X274725D01*
Y355125D01*
X274192Y354592D01*
X273126D02*
Y353525D01*
X272592Y352992D01*
X270993D01*
Y351926D02*
Y355125D01*
X272592D01*
X273126Y354592D01*
X272059Y352992D02*
X273126Y351926D01*
X274192D02*
X275258D01*
X264551Y351926D02*
X264018D01*
Y355125D01*
X263485Y354592D01*
X262419D02*
Y353525D01*
X261885Y352992D01*
X260286D01*
Y351926D02*
Y355125D01*
X261885D01*
X262419Y354592D01*
X261352Y352992D02*
X262419Y351926D01*
X263485D02*
X264551D01*
X254518D02*
X252385D01*
X254518Y354058D01*
Y354592D01*
X253984Y355125D01*
X252918D01*
X252385Y354592D01*
X251319D02*
Y353525D01*
X250785Y352992D01*
X249186D01*
Y351926D02*
Y355125D01*
X250785D01*
X251319Y354592D01*
X250252Y352992D02*
X251319Y351926D01*
X248170Y269799D02*
Y267133D01*
X247637Y266600D01*
X246570D01*
X246037Y267133D01*
Y269799D01*
X321520Y256099D02*
X320987Y255566D01*
Y253433D01*
X321520Y252900D01*
X322587D01*
X323120Y253433D01*
Y255566D01*
X322587Y256099D01*
X321520D01*
X322053Y253966D02*
X323120Y252900D01*
X324186D02*
X325252D01*
X324719D01*
Y256099D01*
X324186Y255566D01*
X333101Y256698D02*
X333634Y256165D01*
X333101Y256698D02*
Y257764D01*
X333634Y258297D01*
X334167D01*
X336300Y256165D01*
Y258297D01*
Y254565D02*
Y254032D01*
X333101D01*
X333634Y253499D01*
Y252433D02*
X334700D01*
X335234Y251900D01*
Y250300D01*
X336300D02*
X333101D01*
Y251900D01*
X333634Y252433D01*
X335234Y251366D02*
X336300Y252433D01*
Y253499D02*
Y254565D01*
M02*
