G04*
G04 #@! TF.GenerationSoftware,Altium Limited,Altium Designer,20.0.7 (75)*
G04*
G04 Layer_Color=30967*
%FSLAX25Y25*%
%MOIN*%
G70*
G01*
G75*
%ADD15C,0.00400*%
G36*
X2108250Y138175D02*
X1755300D01*
Y183600D01*
X2108250D01*
Y138175D01*
D02*
G37*
%LPC*%
G36*
X2074625Y175900D02*
X2074200D01*
X2074025Y175875D01*
X2073900Y175850D01*
X2073875Y175825D01*
X2073850D01*
X2073675Y175775D01*
X2073525Y175700D01*
X2073425Y175625D01*
X2073450Y175650D01*
X2073150D01*
Y175550D01*
Y175500D01*
Y175400D01*
Y175375D01*
X2073100Y175300D01*
X2073050Y175225D01*
X2072950Y175025D01*
X2072850Y174875D01*
X2072825Y174825D01*
Y174800D01*
Y174725D01*
Y174700D01*
Y174675D01*
Y174650D01*
Y174625D01*
Y174600D01*
Y174575D01*
Y174550D01*
Y174525D01*
Y174450D01*
Y174425D01*
Y155283D01*
X2072450Y156150D01*
X2071550Y158350D01*
X2071175Y159200D01*
X2069500Y163350D01*
X2069100Y164225D01*
X2068450Y165875D01*
X2068050Y166725D01*
X2067700Y167650D01*
X2067350Y168525D01*
X2066400Y170800D01*
X2066000Y171675D01*
X2065025Y174200D01*
X2064700Y174925D01*
Y174950D01*
Y174975D01*
X2064625Y175100D01*
X2064600Y175200D01*
X2064550Y175250D01*
Y175275D01*
X2064450Y175375D01*
X2064375Y175450D01*
X2064350Y175475D01*
X2064325Y175500D01*
X2064275Y175550D01*
X2064150Y175650D01*
X2064050Y175700D01*
X2063975Y175725D01*
X2063950D01*
X2063825Y175800D01*
X2063675Y175850D01*
X2063550Y175900D01*
X2062700D01*
Y175875D01*
X2062975D01*
X2062800Y175800D01*
X2062667Y175750D01*
X2062525D01*
X2062400Y175625D01*
X2062325Y175525D01*
X2062275Y175475D01*
X2062250Y175450D01*
X2062150Y175350D01*
X2062100Y175275D01*
X2062050Y175225D01*
Y175200D01*
X2061975Y175075D01*
X2061925Y175000D01*
X2061900Y174950D01*
Y174925D01*
X2061850Y174825D01*
X2061825Y174700D01*
Y147700D01*
X2061850Y147600D01*
X2061875Y147525D01*
Y147500D01*
Y147450D01*
X2061925Y147275D01*
X2061975Y147125D01*
X2062025Y147025D01*
X2062050Y147000D01*
X2062250Y146800D01*
X2062400Y146675D01*
X2062525Y146575D01*
X2062575Y146550D01*
X2062650Y146500D01*
X2062675Y146475D01*
X2062700Y146450D01*
X2062800D01*
X2062950Y146400D01*
X2063100Y146375D01*
X2063375D01*
X2063575Y146400D01*
X2063725Y146425D01*
X2063825Y146450D01*
X2063875Y146475D01*
X2064050Y146575D01*
X2064250Y146700D01*
X2064400Y146800D01*
X2064425Y146850D01*
X2064450D01*
Y146875D01*
X2064500Y146925D01*
X2064550Y147025D01*
X2064600Y147125D01*
X2064625Y147175D01*
Y147150D01*
X2064675Y147300D01*
X2064700Y147375D01*
Y147400D01*
X2064750Y147525D01*
X2064775Y147625D01*
Y147700D01*
Y147725D01*
Y147775D01*
Y147825D01*
Y166929D01*
X2066450Y162875D01*
X2066800Y162050D01*
X2067500Y160350D01*
X2067825Y159525D01*
X2069800Y154750D01*
X2070200Y153875D01*
X2070850Y152225D01*
X2071200Y151450D01*
X2072575Y148100D01*
X2072650Y147975D01*
X2072700Y147850D01*
X2072725Y147775D01*
Y147750D01*
X2072775Y147650D01*
X2072800Y147575D01*
X2072825Y147550D01*
Y147525D01*
X2072850Y147425D01*
X2072875Y147325D01*
X2072925Y147250D01*
Y147200D01*
Y147175D01*
X2073100Y146950D01*
X2073300Y146775D01*
X2073475Y146625D01*
X2073650Y146525D01*
X2073800Y146450D01*
X2073925Y146400D01*
X2074000Y146375D01*
X2074025D01*
X2074300Y146400D01*
X2074575Y146450D01*
X2074800Y146525D01*
X2075025Y146600D01*
X2075175Y146700D01*
X2075325Y146775D01*
X2075400Y146825D01*
X2075425Y146850D01*
X2075500Y146950D01*
X2075550Y147050D01*
X2075600Y147150D01*
X2075625Y147175D01*
Y147200D01*
X2075650Y147250D01*
X2075675Y147325D01*
X2075725Y147400D01*
Y147425D01*
X2075750Y147575D01*
X2075775Y147700D01*
Y174550D01*
X2075750D01*
Y174600D01*
X2075725Y174775D01*
X2075700Y174900D01*
X2075675Y174975D01*
X2075650Y175000D01*
Y175050D01*
Y175075D01*
X2075625Y175100D01*
X2075600Y175150D01*
X2075575Y175175D01*
X2075550Y175200D01*
X2075525Y175250D01*
X2075450Y175350D01*
X2075400Y175425D01*
X2075375Y175450D01*
X2075325Y175500D01*
X2075275Y175525D01*
X2075250Y175550D01*
Y175575D01*
Y175675D01*
Y175750D01*
Y175775D01*
X2074900D01*
X2074825Y175825D01*
X2074750Y175875D01*
X2074675D01*
X2074625Y175900D01*
D02*
G37*
G36*
X1992600D02*
X1992425D01*
X1992100Y175850D01*
X1991825Y175750D01*
X1991575Y175600D01*
X1991375Y175425D01*
X1991200Y175225D01*
X1991100Y175075D01*
X1991025Y174975D01*
X1991000Y174925D01*
X1986875Y164300D01*
X1982750Y174925D01*
X1982550Y175250D01*
X1982300Y175500D01*
X1982050Y175675D01*
X1981825Y175775D01*
X1981625Y175850D01*
X1981450Y175875D01*
X1981350Y175900D01*
X1981150D01*
X1980975Y175875D01*
X1980850Y175850D01*
X1980800D01*
X1980600Y175725D01*
X1980425Y175600D01*
X1980275Y175425D01*
X1980175Y175275D01*
X1980075Y175150D01*
X1980025Y175025D01*
X1980000Y174950D01*
X1979975Y174925D01*
X1979925Y174725D01*
Y174175D01*
X1979950Y174025D01*
X1979975Y173900D01*
X1980000Y173825D01*
Y173800D01*
X1985425Y160850D01*
Y147825D01*
X1985450Y147600D01*
X1985500Y147425D01*
X1985550Y147250D01*
X1985625Y147100D01*
X1985700Y146975D01*
X1985775Y146875D01*
X1985800Y146825D01*
X1985825Y146800D01*
X1985975Y146650D01*
X1986150Y146550D01*
X1986325Y146475D01*
X1986500Y146425D01*
X1986650Y146400D01*
X1986775Y146375D01*
X1986875D01*
X1987100Y146400D01*
X1987300Y146450D01*
X1987475Y146500D01*
X1987625Y146600D01*
X1987725Y146675D01*
X1987825Y146725D01*
X1987875Y146775D01*
X1987900Y146800D01*
X1988050Y146975D01*
X1988150Y147150D01*
X1988225Y147300D01*
X1988275Y147475D01*
X1988300Y147625D01*
X1988325Y147725D01*
Y147800D01*
Y147825D01*
Y160825D01*
X1993725Y173800D01*
X1993775Y174025D01*
X1993825Y174250D01*
Y174600D01*
X1993800Y174725D01*
X1993775Y174850D01*
X1993750Y174900D01*
Y174925D01*
X1993650Y175150D01*
X1993525Y175350D01*
X1993400Y175500D01*
X1993275Y175625D01*
X1993150Y175725D01*
X1993050Y175800D01*
X1992975Y175850D01*
X1992950D01*
X1992775Y175875D01*
X1992600Y175900D01*
D02*
G37*
G36*
X1861450Y175875D02*
X1861275D01*
X1861050Y175850D01*
X1860875Y175825D01*
X1860775Y175800D01*
X1860750Y175775D01*
X1860400D01*
Y175575D01*
X1860375Y175550D01*
X1860300Y175500D01*
X1860250Y175450D01*
X1860225Y175425D01*
X1860075Y175275D01*
X1859975Y175125D01*
X1859900Y175000D01*
X1859875Y174975D01*
Y174950D01*
X1854600Y161850D01*
X1849275Y175050D01*
X1849100Y175325D01*
X1848875Y175525D01*
X1848650Y175675D01*
X1848425Y175775D01*
X1848225Y175825D01*
X1848075Y175875D01*
X1847925D01*
X1847725Y175850D01*
X1847575Y175825D01*
X1847475Y175800D01*
X1847450Y175775D01*
X1847400D01*
X1847100Y175600D01*
X1846875Y175400D01*
X1846725Y175175D01*
X1846600Y174950D01*
X1846550Y174750D01*
X1846500Y174600D01*
X1846475Y174500D01*
Y147825D01*
X1846500Y147600D01*
X1846550Y147425D01*
X1846600Y147250D01*
X1846700Y147100D01*
X1846775Y146975D01*
X1846825Y146875D01*
X1846875Y146825D01*
X1846900Y146800D01*
X1847075Y146650D01*
X1847250Y146550D01*
X1847400Y146475D01*
X1847575Y146425D01*
X1847725Y146400D01*
X1847825Y146375D01*
X1847925D01*
X1848150Y146400D01*
X1848350Y146450D01*
X1848525Y146500D01*
X1848675Y146600D01*
X1848800Y146675D01*
X1848900Y146725D01*
X1848950Y146775D01*
X1848975Y146800D01*
X1849125Y146975D01*
X1849225Y147150D01*
X1849325Y147300D01*
X1849375Y147475D01*
X1849400Y147625D01*
X1849425Y147725D01*
Y147800D01*
Y147825D01*
Y168850D01*
X1853250Y158125D01*
X1853350Y157950D01*
X1853475Y157800D01*
X1853725Y157575D01*
X1853850Y157500D01*
X1853950Y157450D01*
X1854000Y157400D01*
X1854025D01*
X1854225Y157325D01*
X1854400Y157300D01*
X1854550Y157275D01*
X1854600D01*
X1854925Y157300D01*
X1855200Y157400D01*
X1855425Y157525D01*
X1855600Y157675D01*
X1855750Y157825D01*
X1855850Y157950D01*
X1855900Y158050D01*
X1855925Y158075D01*
X1859775Y168825D01*
Y147825D01*
X1859800Y147600D01*
X1859850Y147425D01*
X1859900Y147250D01*
X1860000Y147100D01*
X1860075Y146975D01*
X1860125Y146875D01*
X1860175Y146825D01*
X1860200Y146800D01*
X1860375Y146650D01*
X1860550Y146550D01*
X1860725Y146475D01*
X1860900Y146425D01*
X1861050Y146400D01*
X1861175Y146375D01*
X1861275D01*
X1861475Y146400D01*
X1861675Y146450D01*
X1861850Y146500D01*
X1862000Y146600D01*
X1862100Y146675D01*
X1862200Y146725D01*
X1862250Y146775D01*
X1862275Y146800D01*
X1862425Y146975D01*
X1862525Y147150D01*
X1862625Y147300D01*
X1862675Y147475D01*
X1862700Y147625D01*
X1862725Y147725D01*
Y174400D01*
X1862675Y174725D01*
X1862575Y175000D01*
X1862425Y175250D01*
X1862250Y175425D01*
X1862075Y175575D01*
X1861925Y175700D01*
X1861825Y175750D01*
X1861775Y175775D01*
X1861725D01*
X1861600Y175825D01*
X1861450Y175875D01*
D02*
G37*
G36*
X1908700D02*
X1908400D01*
X1908225Y175850D01*
X1908050Y175825D01*
X1907750Y175700D01*
X1907625Y175625D01*
X1907525Y175575D01*
X1907475Y175550D01*
X1907450Y175525D01*
X1907300Y175375D01*
X1907200Y175250D01*
X1907100Y175075D01*
X1907025Y174950D01*
X1906975Y174825D01*
X1906950Y174725D01*
X1906925Y174650D01*
Y174625D01*
X1902975Y153650D01*
X1899050Y174675D01*
X1898900Y175025D01*
X1898725Y175300D01*
X1898625Y175400D01*
X1898575Y175475D01*
X1898525Y175500D01*
X1898500Y175525D01*
X1898350Y175650D01*
X1898175Y175725D01*
X1897875Y175825D01*
X1897725Y175850D01*
X1897625Y175875D01*
X1897275D01*
X1897025Y175800D01*
X1896800Y175675D01*
X1896625Y175575D01*
X1896500Y175450D01*
X1896375Y175350D01*
X1896300Y175250D01*
X1896275Y175200D01*
X1896250Y175175D01*
X1896150Y174975D01*
X1896100Y174775D01*
X1896050Y174575D01*
Y174400D01*
X1896025Y174250D01*
X1896050Y174125D01*
Y174025D01*
Y174000D01*
X1901400Y147575D01*
X1901525Y147250D01*
X1901725Y146975D01*
X1901950Y146775D01*
X1902175Y146625D01*
X1902375Y146500D01*
X1902550Y146450D01*
X1902675Y146400D01*
X1902725D01*
X1902825Y146375D01*
X1903050D01*
X1903250Y146400D01*
X1903425Y146425D01*
X1903725Y146550D01*
X1903850Y146600D01*
X1903925Y146650D01*
X1903975Y146675D01*
X1904000Y146700D01*
X1904150Y146850D01*
X1904275Y147000D01*
X1904425Y147275D01*
X1904500Y147400D01*
X1904525Y147500D01*
X1904550Y147575D01*
Y147600D01*
X1909925Y174000D01*
X1909950Y174250D01*
X1909925Y174475D01*
X1909900Y174675D01*
X1909850Y174850D01*
X1909800Y174975D01*
X1909750Y175075D01*
X1909725Y175150D01*
X1909700Y175175D01*
X1909575Y175350D01*
X1909400Y175500D01*
X1909225Y175625D01*
X1909075Y175725D01*
X1908925Y175775D01*
X1908800Y175825D01*
X1908700Y175875D01*
D02*
G37*
G36*
X2064625Y147150D02*
X2064575Y147025D01*
X2064525Y146900D01*
X2064625D01*
Y146925D01*
Y147025D01*
Y147075D01*
Y147150D01*
D02*
G37*
G36*
X2091825Y175900D02*
X2080600D01*
X2080375Y175875D01*
X2080200Y175850D01*
X2080025Y175775D01*
X2079875Y175700D01*
X2079750Y175625D01*
X2079675Y175575D01*
X2079625Y175525D01*
X2079600Y175500D01*
X2079475Y175350D01*
X2079375Y175175D01*
X2079300Y175025D01*
X2079250Y174875D01*
X2079225Y174725D01*
X2079200Y174625D01*
Y174425D01*
X2079225Y174225D01*
X2079275Y174025D01*
X2079325Y173850D01*
X2079400Y173700D01*
X2079475Y173575D01*
X2079550Y173475D01*
X2079575Y173425D01*
X2079600Y173400D01*
X2079750Y173250D01*
X2079925Y173150D01*
X2080100Y173075D01*
X2080250Y173025D01*
X2080400Y173000D01*
X2080500Y172975D01*
X2084700D01*
Y147825D01*
X2084725Y147600D01*
X2084775Y147425D01*
X2084825Y147250D01*
X2084925Y147100D01*
X2085000Y146975D01*
X2085050Y146875D01*
X2085100Y146825D01*
X2085125Y146800D01*
X2085300Y146650D01*
X2085475Y146550D01*
X2085650Y146475D01*
X2085825Y146425D01*
X2085950Y146400D01*
X2086075Y146375D01*
X2086175D01*
X2086375Y146400D01*
X2086575Y146450D01*
X2086750Y146500D01*
X2086900Y146600D01*
X2087000Y146675D01*
X2087100Y146725D01*
X2087150Y146775D01*
X2087175Y146800D01*
X2087325Y146975D01*
X2087425Y147150D01*
X2087525Y147300D01*
X2087575Y147475D01*
X2087600Y147625D01*
X2087625Y147725D01*
Y147800D01*
Y147825D01*
Y172975D01*
X2091725D01*
X2091950Y173000D01*
X2092125Y173050D01*
X2092300Y173100D01*
X2092450Y173200D01*
X2092575Y173275D01*
X2092650Y173325D01*
X2092700Y173375D01*
X2092725Y173400D01*
X2092875Y173575D01*
X2092975Y173750D01*
X2093050Y173925D01*
X2093100Y174075D01*
X2093125Y174225D01*
X2093150Y174325D01*
Y174525D01*
X2093125Y174725D01*
X2093075Y174900D01*
X2093025Y175075D01*
X2092950Y175200D01*
X2092850Y175325D01*
X2092800Y175400D01*
X2092750Y175450D01*
X2092725Y175475D01*
X2092575Y175625D01*
X2092400Y175725D01*
X2092225Y175800D01*
X2092075Y175850D01*
X2091925Y175875D01*
X2091825Y175900D01*
D02*
G37*
G36*
X2056975D02*
X2056850D01*
X2056625Y175875D01*
X2056425Y175850D01*
X2056250Y175775D01*
X2056100Y175700D01*
X2055975Y175625D01*
X2055875Y175575D01*
X2055825Y175525D01*
X2055800Y175500D01*
X2055675Y175350D01*
X2055575Y175175D01*
X2055500Y174975D01*
X2055450Y174825D01*
X2055425Y174650D01*
X2055400Y174550D01*
Y147825D01*
X2055425Y147600D01*
X2055475Y147375D01*
X2055525Y147200D01*
X2055625Y147050D01*
X2055700Y146925D01*
X2055750Y146825D01*
X2055800Y146775D01*
X2055825Y146750D01*
X2056000Y146625D01*
X2056175Y146525D01*
X2056325Y146475D01*
X2056500Y146425D01*
X2056650Y146400D01*
X2056750Y146375D01*
X2056850D01*
X2057100Y146400D01*
X2057300Y146450D01*
X2057500Y146500D01*
X2057650Y146575D01*
X2057775Y146650D01*
X2057850Y146725D01*
X2057900Y146750D01*
X2057925Y146775D01*
X2058075Y146925D01*
X2058175Y147100D01*
X2058250Y147275D01*
X2058300Y147450D01*
X2058325Y147600D01*
X2058350Y147725D01*
Y174425D01*
X2058325Y174650D01*
X2058275Y174875D01*
X2058225Y175050D01*
X2058150Y175200D01*
X2058050Y175325D01*
X2058000Y175425D01*
X2057950Y175475D01*
X2057925Y175500D01*
X2057775Y175625D01*
X2057600Y175725D01*
X2057400Y175800D01*
X2057250Y175850D01*
X2057075Y175875D01*
X2056975Y175900D01*
D02*
G37*
G36*
X2045050D02*
X2039400D01*
X2039175Y175875D01*
X2038975Y175825D01*
X2038775Y175750D01*
X2038625Y175675D01*
X2038500Y175600D01*
X2038425Y175525D01*
X2038375Y175475D01*
X2038350Y175450D01*
X2038225Y175275D01*
X2038125Y175125D01*
X2038050Y174950D01*
X2038000Y174800D01*
X2037975Y174675D01*
X2037950Y174575D01*
Y147850D01*
X2037975Y147625D01*
X2038025Y147425D01*
X2038075Y147250D01*
X2038175Y147100D01*
X2038250Y146975D01*
X2038300Y146875D01*
X2038350Y146825D01*
X2038375Y146800D01*
X2038550Y146650D01*
X2038725Y146550D01*
X2038875Y146475D01*
X2039050Y146425D01*
X2039200Y146400D01*
X2039300Y146375D01*
X2039400D01*
X2039625Y146400D01*
X2039825Y146450D01*
X2040000Y146500D01*
X2040150Y146600D01*
X2040275Y146675D01*
X2040375Y146725D01*
X2040425Y146775D01*
X2040450Y146800D01*
X2040600Y146975D01*
X2040700Y147150D01*
X2040800Y147325D01*
X2040850Y147475D01*
X2040875Y147625D01*
X2040900Y147750D01*
Y147825D01*
Y147850D01*
Y159425D01*
X2044650D01*
X2049050Y147350D01*
X2049250Y147025D01*
X2049450Y146775D01*
X2049675Y146625D01*
X2049900Y146500D01*
X2050100Y146425D01*
X2050275Y146400D01*
X2050375Y146375D01*
X2050425D01*
X2050650Y146400D01*
X2050800Y146425D01*
X2050925Y146450D01*
X2050950Y146475D01*
X2051150Y146550D01*
X2051325Y146675D01*
X2051450Y146775D01*
X2051575Y146900D01*
X2051650Y147025D01*
X2051700Y147100D01*
X2051750Y147175D01*
Y147200D01*
X2051825Y147400D01*
X2051850Y147600D01*
X2051875Y147800D01*
Y147950D01*
X2051850Y148100D01*
Y148200D01*
X2051825Y148275D01*
Y148300D01*
X2047497Y159941D01*
X2048075Y160200D01*
X2048700Y160600D01*
X2049250Y161025D01*
X2049725Y161425D01*
X2050075Y161800D01*
X2050225Y161975D01*
X2050350Y162125D01*
X2050450Y162225D01*
X2050525Y162325D01*
X2050550Y162375D01*
X2050575Y162400D01*
X2050800Y162725D01*
X2050975Y163075D01*
X2051150Y163425D01*
X2051275Y163750D01*
X2051500Y164400D01*
X2051650Y165000D01*
X2051700Y165275D01*
X2051725Y165525D01*
X2051775Y165725D01*
Y165925D01*
X2051800Y166075D01*
Y166175D01*
Y166250D01*
Y166275D01*
Y169075D01*
X2051775Y169600D01*
X2051725Y170075D01*
X2051625Y170550D01*
X2051475Y171000D01*
X2051325Y171425D01*
X2051150Y171825D01*
X2050975Y172200D01*
X2050800Y172525D01*
X2050600Y172825D01*
X2050425Y173100D01*
X2050250Y173325D01*
X2050100Y173525D01*
X2049975Y173675D01*
X2049875Y173775D01*
X2049800Y173850D01*
X2049775Y173875D01*
X2049400Y174225D01*
X2049000Y174550D01*
X2048575Y174825D01*
X2048175Y175050D01*
X2047775Y175250D01*
X2047350Y175400D01*
X2046975Y175550D01*
X2046600Y175650D01*
X2046250Y175725D01*
X2045925Y175800D01*
X2045650Y175850D01*
X2045400Y175875D01*
X2045200D01*
X2045050Y175900D01*
D02*
G37*
G36*
X2027725D02*
X2022075D01*
X2021850Y175875D01*
X2021650Y175825D01*
X2021450Y175750D01*
X2021300Y175675D01*
X2021175Y175600D01*
X2021100Y175525D01*
X2021050Y175475D01*
X2021025Y175450D01*
X2020900Y175275D01*
X2020800Y175125D01*
X2020725Y174950D01*
X2020675Y174800D01*
X2020650Y174675D01*
X2020625Y174575D01*
Y147825D01*
X2020650Y147600D01*
X2020700Y147425D01*
X2020750Y147250D01*
X2020850Y147100D01*
X2020925Y146975D01*
X2020975Y146875D01*
X2021025Y146825D01*
X2021050Y146800D01*
X2021225Y146650D01*
X2021400Y146550D01*
X2021550Y146475D01*
X2021725Y146425D01*
X2021875Y146400D01*
X2021975Y146375D01*
X2022075D01*
X2022300Y146400D01*
X2022500Y146450D01*
X2022675Y146500D01*
X2022825Y146600D01*
X2022950Y146675D01*
X2023050Y146725D01*
X2023100Y146775D01*
X2023125Y146800D01*
X2023275Y146975D01*
X2023375Y147150D01*
X2023475Y147300D01*
X2023525Y147475D01*
X2023550Y147625D01*
X2023575Y147725D01*
Y147800D01*
Y147825D01*
Y159425D01*
X2027600D01*
X2028125Y159450D01*
X2028625Y159500D01*
X2029100Y159600D01*
X2029550Y159750D01*
X2030000Y159900D01*
X2030400Y160050D01*
X2030750Y160250D01*
X2031100Y160425D01*
X2031400Y160600D01*
X2031675Y160800D01*
X2031900Y160950D01*
X2032100Y161125D01*
X2032250Y161250D01*
X2032350Y161350D01*
X2032425Y161400D01*
X2032450Y161425D01*
X2032800Y161800D01*
X2033125Y162200D01*
X2033400Y162625D01*
X2033625Y163025D01*
X2033825Y163425D01*
X2033975Y163850D01*
X2034125Y164225D01*
X2034225Y164600D01*
X2034300Y164950D01*
X2034375Y165275D01*
X2034425Y165550D01*
X2034450Y165800D01*
Y166000D01*
X2034475Y166150D01*
Y169025D01*
X2034450Y169550D01*
X2034400Y170050D01*
X2034300Y170525D01*
X2034150Y170975D01*
X2034000Y171425D01*
X2033825Y171825D01*
X2033650Y172175D01*
X2033475Y172525D01*
X2033275Y172825D01*
X2033100Y173100D01*
X2032925Y173325D01*
X2032775Y173525D01*
X2032650Y173675D01*
X2032550Y173775D01*
X2032475Y173850D01*
X2032450Y173875D01*
X2032075Y174225D01*
X2031675Y174550D01*
X2031250Y174825D01*
X2030850Y175050D01*
X2030450Y175250D01*
X2030025Y175400D01*
X2029650Y175550D01*
X2029275Y175650D01*
X2028925Y175725D01*
X2028600Y175800D01*
X2028325Y175850D01*
X2028075Y175875D01*
X2027875D01*
X2027725Y175900D01*
D02*
G37*
G36*
X1968475Y175875D02*
X1967850D01*
X1967525Y175750D01*
X1967275Y175600D01*
X1967075Y175400D01*
X1966925Y175200D01*
X1966825Y175025D01*
X1966750Y174875D01*
X1966700Y174775D01*
Y174725D01*
X1960075Y148125D01*
X1960050Y147925D01*
Y147725D01*
X1960075Y147550D01*
X1960125Y147400D01*
X1960150Y147275D01*
X1960200Y147175D01*
X1960250Y147100D01*
Y147075D01*
X1960375Y146900D01*
X1960525Y146750D01*
X1960675Y146650D01*
X1960825Y146550D01*
X1960950Y146475D01*
X1961075Y146425D01*
X1961150Y146400D01*
X1961175D01*
X1961275Y146375D01*
X1961475D01*
X1961850Y146425D01*
X1962150Y146550D01*
X1962400Y146700D01*
X1962575Y146900D01*
X1962725Y147100D01*
X1962825Y147250D01*
X1962875Y147375D01*
X1962900Y147425D01*
X1964325Y153025D01*
X1971975D01*
X1973375Y147475D01*
X1973425Y147300D01*
X1973500Y147150D01*
X1973675Y146900D01*
X1973775Y146800D01*
X1973825Y146725D01*
X1973875Y146700D01*
X1973900Y146675D01*
X1974050Y146575D01*
X1974225Y146500D01*
X1974525Y146425D01*
X1974650Y146400D01*
X1974750Y146375D01*
X1974975D01*
X1975100Y146400D01*
X1975175Y146425D01*
X1975200D01*
X1975400Y146500D01*
X1975575Y146600D01*
X1975700Y146700D01*
X1975825Y146800D01*
X1975925Y146900D01*
X1976000Y147000D01*
X1976025Y147050D01*
X1976050Y147075D01*
X1976150Y147250D01*
X1976225Y147425D01*
X1976250Y147600D01*
X1976275Y147725D01*
Y147925D01*
X1976250Y147975D01*
Y148000D01*
X1969600Y174725D01*
X1969475Y175025D01*
X1969300Y175275D01*
X1969125Y175475D01*
X1968925Y175650D01*
X1968725Y175750D01*
X1968575Y175825D01*
X1968475Y175875D01*
D02*
G37*
G36*
X1947600Y175900D02*
X1947500D01*
X1947275Y175875D01*
X1947075Y175850D01*
X1946875Y175775D01*
X1946725Y175700D01*
X1946600Y175625D01*
X1946525Y175575D01*
X1946475Y175525D01*
X1946450Y175500D01*
X1946325Y175350D01*
X1946225Y175175D01*
X1946150Y175000D01*
X1946100Y174850D01*
X1946075Y174700D01*
X1946050Y174575D01*
Y147825D01*
X1946075Y147600D01*
X1946125Y147400D01*
X1946175Y147200D01*
X1946250Y147050D01*
X1946325Y146925D01*
X1946400Y146850D01*
X1946425Y146800D01*
X1946450Y146775D01*
X1946600Y146650D01*
X1946775Y146550D01*
X1946950Y146475D01*
X1947125Y146425D01*
X1947275Y146400D01*
X1947400Y146375D01*
X1956175D01*
X1956400Y146400D01*
X1956600Y146425D01*
X1956775Y146500D01*
X1956925Y146575D01*
X1957050Y146625D01*
X1957125Y146700D01*
X1957175Y146725D01*
X1957200Y146750D01*
X1957350Y146925D01*
X1957475Y147100D01*
X1957550Y147275D01*
X1957625Y147450D01*
X1957650Y147600D01*
X1957675Y147725D01*
Y147825D01*
X1957650Y148050D01*
X1957600Y148275D01*
X1957525Y148450D01*
X1957450Y148600D01*
X1957375Y148725D01*
X1957300Y148825D01*
X1957250Y148875D01*
X1957225Y148900D01*
X1957075Y149025D01*
X1956900Y149125D01*
X1956725Y149200D01*
X1956550Y149250D01*
X1956400Y149275D01*
X1956275Y149300D01*
X1949000D01*
Y174475D01*
X1948975Y174700D01*
X1948925Y174900D01*
X1948850Y175075D01*
X1948775Y175225D01*
X1948675Y175350D01*
X1948600Y175425D01*
X1948550Y175475D01*
X1948525Y175500D01*
X1948375Y175625D01*
X1948200Y175725D01*
X1948025Y175800D01*
X1947875Y175850D01*
X1947725Y175875D01*
X1947600Y175900D01*
D02*
G37*
G36*
X1935700D02*
X1930050D01*
X1929825Y175875D01*
X1929625Y175825D01*
X1929425Y175750D01*
X1929275Y175675D01*
X1929150Y175600D01*
X1929075Y175525D01*
X1929025Y175475D01*
X1929000Y175450D01*
X1928875Y175275D01*
X1928775Y175125D01*
X1928700Y174950D01*
X1928650Y174800D01*
X1928625Y174675D01*
X1928600Y174575D01*
Y147850D01*
X1928625Y147625D01*
X1928675Y147425D01*
X1928725Y147250D01*
X1928825Y147100D01*
X1928900Y146975D01*
X1928950Y146875D01*
X1929000Y146825D01*
X1929025Y146800D01*
X1929200Y146650D01*
X1929375Y146550D01*
X1929525Y146475D01*
X1929700Y146425D01*
X1929850Y146400D01*
X1929950Y146375D01*
X1930050D01*
X1930275Y146400D01*
X1930475Y146450D01*
X1930650Y146500D01*
X1930800Y146600D01*
X1930925Y146675D01*
X1931025Y146725D01*
X1931075Y146775D01*
X1931100Y146800D01*
X1931250Y146975D01*
X1931350Y147150D01*
X1931450Y147325D01*
X1931500Y147475D01*
X1931525Y147625D01*
X1931550Y147750D01*
Y147825D01*
Y147850D01*
Y159425D01*
X1935300D01*
X1939700Y147350D01*
X1939900Y147025D01*
X1940100Y146775D01*
X1940325Y146625D01*
X1940550Y146500D01*
X1940750Y146425D01*
X1940925Y146400D01*
X1941025Y146375D01*
X1941075D01*
X1941300Y146400D01*
X1941450Y146425D01*
X1941575Y146450D01*
X1941600Y146475D01*
X1941800Y146550D01*
X1941975Y146675D01*
X1942100Y146775D01*
X1942225Y146900D01*
X1942300Y147025D01*
X1942350Y147100D01*
X1942400Y147175D01*
Y147200D01*
X1942475Y147400D01*
X1942500Y147600D01*
X1942525Y147800D01*
Y147950D01*
X1942500Y148100D01*
Y148200D01*
X1942475Y148275D01*
Y148300D01*
X1938147Y159941D01*
X1938725Y160200D01*
X1939350Y160600D01*
X1939900Y161025D01*
X1940375Y161425D01*
X1940725Y161800D01*
X1940875Y161975D01*
X1941000Y162125D01*
X1941100Y162225D01*
X1941175Y162325D01*
X1941200Y162375D01*
X1941225Y162400D01*
X1941450Y162725D01*
X1941625Y163075D01*
X1941800Y163425D01*
X1941925Y163750D01*
X1942150Y164400D01*
X1942300Y165000D01*
X1942350Y165275D01*
X1942375Y165525D01*
X1942425Y165725D01*
Y165925D01*
X1942450Y166075D01*
Y166175D01*
Y166250D01*
Y166275D01*
Y169075D01*
X1942425Y169600D01*
X1942375Y170075D01*
X1942275Y170550D01*
X1942125Y171000D01*
X1941975Y171425D01*
X1941800Y171825D01*
X1941625Y172200D01*
X1941450Y172525D01*
X1941250Y172825D01*
X1941075Y173100D01*
X1940900Y173325D01*
X1940750Y173525D01*
X1940625Y173675D01*
X1940525Y173775D01*
X1940450Y173850D01*
X1940425Y173875D01*
X1940050Y174225D01*
X1939650Y174550D01*
X1939225Y174825D01*
X1938825Y175050D01*
X1938425Y175250D01*
X1938000Y175400D01*
X1937625Y175550D01*
X1937250Y175650D01*
X1936900Y175725D01*
X1936575Y175800D01*
X1936300Y175850D01*
X1936050Y175875D01*
X1935850D01*
X1935700Y175900D01*
D02*
G37*
G36*
X1923750D02*
X1914950D01*
X1914725Y175875D01*
X1914525Y175850D01*
X1914325Y175775D01*
X1914175Y175700D01*
X1914050Y175625D01*
X1913975Y175575D01*
X1913925Y175525D01*
X1913900Y175500D01*
X1913775Y175350D01*
X1913675Y175175D01*
X1913600Y175000D01*
X1913550Y174850D01*
X1913525Y174700D01*
X1913500Y174575D01*
Y147825D01*
X1913525Y147600D01*
X1913575Y147400D01*
X1913625Y147200D01*
X1913700Y147050D01*
X1913775Y146925D01*
X1913850Y146850D01*
X1913875Y146800D01*
X1913900Y146775D01*
X1914050Y146650D01*
X1914225Y146550D01*
X1914400Y146475D01*
X1914575Y146425D01*
X1914725Y146400D01*
X1914850Y146375D01*
X1923625D01*
X1923875Y146400D01*
X1924075Y146450D01*
X1924275Y146500D01*
X1924425Y146575D01*
X1924550Y146650D01*
X1924650Y146725D01*
X1924700Y146750D01*
X1924725Y146775D01*
X1924850Y146925D01*
X1924950Y147100D01*
X1925025Y147275D01*
X1925075Y147450D01*
X1925100Y147600D01*
X1925125Y147725D01*
Y147825D01*
X1925100Y148050D01*
X1925075Y148275D01*
X1925000Y148450D01*
X1924925Y148600D01*
X1924850Y148725D01*
X1924800Y148800D01*
X1924750Y148850D01*
X1924725Y148875D01*
X1924550Y149025D01*
X1924375Y149125D01*
X1924200Y149200D01*
X1924025Y149250D01*
X1923850Y149275D01*
X1923750Y149300D01*
X1916450D01*
Y159925D01*
X1921300D01*
X1921550Y159950D01*
X1921750Y160000D01*
X1921950Y160050D01*
X1922100Y160125D01*
X1922225Y160200D01*
X1922300Y160275D01*
X1922350Y160300D01*
X1922375Y160325D01*
X1922500Y160500D01*
X1922600Y160675D01*
X1922675Y160850D01*
X1922725Y161025D01*
X1922750Y161200D01*
X1922775Y161325D01*
Y161400D01*
Y161425D01*
X1922750Y161650D01*
X1922725Y161825D01*
X1922650Y162000D01*
X1922575Y162150D01*
X1922500Y162275D01*
X1922450Y162350D01*
X1922400Y162400D01*
X1922375Y162425D01*
X1922225Y162575D01*
X1922050Y162675D01*
X1921850Y162750D01*
X1921700Y162800D01*
X1921525Y162825D01*
X1921425Y162850D01*
X1916450D01*
Y172975D01*
X1923625D01*
X1923875Y173000D01*
X1924075Y173050D01*
X1924275Y173100D01*
X1924425Y173175D01*
X1924550Y173250D01*
X1924650Y173325D01*
X1924700Y173350D01*
X1924725Y173375D01*
X1924850Y173550D01*
X1924950Y173725D01*
X1925025Y173900D01*
X1925075Y174075D01*
X1925100Y174250D01*
X1925125Y174375D01*
Y174475D01*
X1925100Y174700D01*
X1925075Y174900D01*
X1925000Y175075D01*
X1924925Y175225D01*
X1924850Y175325D01*
X1924800Y175425D01*
X1924750Y175475D01*
X1924725Y175500D01*
X1924550Y175625D01*
X1924375Y175725D01*
X1924200Y175800D01*
X1924025Y175850D01*
X1923850Y175875D01*
X1923750Y175900D01*
D02*
G37*
G36*
X1885800D02*
X1885575D01*
X1885025Y175875D01*
X1884525Y175825D01*
X1884075Y175725D01*
X1883650Y175625D01*
X1883325Y175525D01*
X1883075Y175425D01*
X1882975Y175400D01*
X1882900Y175375D01*
X1882875Y175350D01*
X1882850D01*
X1882375Y175125D01*
X1881950Y174875D01*
X1881575Y174625D01*
X1881275Y174400D01*
X1881000Y174175D01*
X1880800Y174000D01*
X1880700Y173900D01*
X1880650Y173850D01*
X1880300Y173500D01*
X1880000Y173125D01*
X1879750Y172750D01*
X1879550Y172400D01*
X1879375Y172100D01*
X1879275Y171875D01*
X1879225Y171775D01*
X1879200Y171700D01*
X1879175Y171675D01*
Y171650D01*
X1878975Y171150D01*
X1878850Y170675D01*
X1878750Y170225D01*
X1878675Y169825D01*
X1878625Y169450D01*
X1878600Y169200D01*
Y153350D01*
X1878625Y152800D01*
X1878675Y152300D01*
X1878775Y151850D01*
X1878875Y151450D01*
X1878975Y151125D01*
X1879075Y150875D01*
X1879100Y150775D01*
X1879125Y150700D01*
X1879150Y150675D01*
Y150650D01*
X1879375Y150175D01*
X1879600Y149750D01*
X1879850Y149375D01*
X1880100Y149050D01*
X1880325Y148775D01*
X1880500Y148600D01*
X1880600Y148475D01*
X1880650Y148425D01*
X1881000Y148075D01*
X1881400Y147775D01*
X1881750Y147525D01*
X1882100Y147300D01*
X1882425Y147150D01*
X1882650Y147025D01*
X1882750Y146975D01*
X1882825Y146950D01*
X1882850Y146925D01*
X1882875D01*
X1883350Y146750D01*
X1883825Y146600D01*
X1884275Y146500D01*
X1884675Y146450D01*
X1885050Y146400D01*
X1885325Y146375D01*
X1885575D01*
X1886075Y146400D01*
X1886550Y146450D01*
X1886975Y146550D01*
X1887350Y146650D01*
X1887650Y146725D01*
X1887875Y146825D01*
X1888025Y146875D01*
X1888075Y146900D01*
X1888600Y147125D01*
X1889075Y147375D01*
X1889500Y147625D01*
X1889850Y147875D01*
X1890150Y148100D01*
X1890350Y148275D01*
X1890475Y148375D01*
X1890525Y148425D01*
X1890850Y148775D01*
X1891150Y149175D01*
X1891400Y149525D01*
X1891625Y149875D01*
X1891800Y150200D01*
X1891925Y150425D01*
X1891975Y150525D01*
X1892000Y150600D01*
X1892025Y150625D01*
Y150650D01*
X1892200Y151125D01*
X1892325Y151600D01*
X1892425Y152050D01*
X1892475Y152475D01*
X1892525Y152825D01*
X1892550Y153100D01*
Y168950D01*
X1892525Y169450D01*
X1892475Y169925D01*
X1892400Y170350D01*
X1892300Y170725D01*
X1892200Y171000D01*
X1892125Y171225D01*
X1892075Y171375D01*
X1892050Y171425D01*
X1891825Y171950D01*
X1891550Y172450D01*
X1891300Y172850D01*
X1891075Y173200D01*
X1890850Y173475D01*
X1890675Y173675D01*
X1890575Y173800D01*
X1890525Y173850D01*
X1890150Y174200D01*
X1889725Y174500D01*
X1889325Y174750D01*
X1888950Y174975D01*
X1888600Y175150D01*
X1888350Y175300D01*
X1888250Y175350D01*
X1888175Y175375D01*
X1888125Y175400D01*
X1888100D01*
X1887675Y175575D01*
X1887225Y175700D01*
X1886800Y175775D01*
X1886425Y175850D01*
X1886075Y175875D01*
X1885800Y175900D01*
D02*
G37*
G36*
X1836225D02*
X1836000D01*
X1835450Y175875D01*
X1834950Y175825D01*
X1834500Y175725D01*
X1834075Y175625D01*
X1833750Y175525D01*
X1833500Y175425D01*
X1833400Y175400D01*
X1833325Y175375D01*
X1833300Y175350D01*
X1833275D01*
X1832800Y175125D01*
X1832375Y174875D01*
X1832000Y174625D01*
X1831700Y174400D01*
X1831425Y174175D01*
X1831225Y174000D01*
X1831125Y173900D01*
X1831075Y173850D01*
X1830725Y173500D01*
X1830425Y173125D01*
X1830175Y172750D01*
X1829975Y172400D01*
X1829800Y172100D01*
X1829700Y171875D01*
X1829650Y171775D01*
X1829625Y171700D01*
X1829600Y171675D01*
Y171650D01*
X1829400Y171150D01*
X1829275Y170675D01*
X1829175Y170225D01*
X1829100Y169825D01*
X1829050Y169450D01*
X1829025Y169200D01*
Y153350D01*
X1829050Y152800D01*
X1829100Y152300D01*
X1829200Y151850D01*
X1829300Y151450D01*
X1829400Y151125D01*
X1829500Y150875D01*
X1829525Y150775D01*
X1829550Y150700D01*
X1829575Y150675D01*
Y150650D01*
X1829800Y150175D01*
X1830025Y149750D01*
X1830275Y149375D01*
X1830525Y149050D01*
X1830750Y148775D01*
X1830925Y148600D01*
X1831025Y148475D01*
X1831075Y148425D01*
X1831425Y148075D01*
X1831825Y147775D01*
X1832175Y147525D01*
X1832525Y147300D01*
X1832850Y147150D01*
X1833075Y147025D01*
X1833175Y146975D01*
X1833250Y146950D01*
X1833275Y146925D01*
X1833300D01*
X1833775Y146750D01*
X1834250Y146600D01*
X1834700Y146500D01*
X1835100Y146450D01*
X1835475Y146400D01*
X1835750Y146375D01*
X1836000D01*
X1836500Y146400D01*
X1836975Y146450D01*
X1837400Y146550D01*
X1837775Y146650D01*
X1838075Y146725D01*
X1838300Y146825D01*
X1838450Y146875D01*
X1838500Y146900D01*
X1839025Y147125D01*
X1839500Y147375D01*
X1839925Y147625D01*
X1840275Y147875D01*
X1840575Y148100D01*
X1840775Y148275D01*
X1840900Y148375D01*
X1840950Y148425D01*
X1841275Y148775D01*
X1841575Y149175D01*
X1841825Y149525D01*
X1842050Y149875D01*
X1842225Y150200D01*
X1842350Y150425D01*
X1842400Y150525D01*
X1842425Y150600D01*
X1842450Y150625D01*
Y150650D01*
X1842625Y151125D01*
X1842750Y151600D01*
X1842850Y152050D01*
X1842900Y152475D01*
X1842950Y152825D01*
X1842975Y153100D01*
Y168950D01*
X1842950Y169450D01*
X1842900Y169925D01*
X1842825Y170350D01*
X1842725Y170725D01*
X1842625Y171000D01*
X1842550Y171225D01*
X1842500Y171375D01*
X1842475Y171425D01*
X1842250Y171950D01*
X1841975Y172450D01*
X1841725Y172850D01*
X1841500Y173200D01*
X1841275Y173475D01*
X1841100Y173675D01*
X1841000Y173800D01*
X1840950Y173850D01*
X1840575Y174200D01*
X1840150Y174500D01*
X1839750Y174750D01*
X1839375Y174975D01*
X1839025Y175150D01*
X1838775Y175300D01*
X1838675Y175350D01*
X1838600Y175375D01*
X1838550Y175400D01*
X1838525D01*
X1838100Y175575D01*
X1837650Y175700D01*
X1837225Y175775D01*
X1836850Y175850D01*
X1836500Y175875D01*
X1836225Y175900D01*
D02*
G37*
G36*
X1824200D02*
X1812975D01*
X1812750Y175875D01*
X1812575Y175850D01*
X1812400Y175775D01*
X1812250Y175700D01*
X1812125Y175625D01*
X1812050Y175575D01*
X1812000Y175525D01*
X1811975Y175500D01*
X1811850Y175350D01*
X1811750Y175175D01*
X1811675Y175025D01*
X1811625Y174875D01*
X1811600Y174725D01*
X1811575Y174625D01*
Y174425D01*
X1811600Y174225D01*
X1811650Y174025D01*
X1811700Y173850D01*
X1811775Y173700D01*
X1811850Y173575D01*
X1811925Y173475D01*
X1811950Y173425D01*
X1811975Y173400D01*
X1812125Y173250D01*
X1812300Y173150D01*
X1812475Y173075D01*
X1812625Y173025D01*
X1812775Y173000D01*
X1812875Y172975D01*
X1817075D01*
Y147825D01*
X1817100Y147600D01*
X1817150Y147425D01*
X1817200Y147250D01*
X1817300Y147100D01*
X1817375Y146975D01*
X1817425Y146875D01*
X1817475Y146825D01*
X1817500Y146800D01*
X1817675Y146650D01*
X1817850Y146550D01*
X1818025Y146475D01*
X1818200Y146425D01*
X1818325Y146400D01*
X1818450Y146375D01*
X1818550D01*
X1818750Y146400D01*
X1818950Y146450D01*
X1819125Y146500D01*
X1819275Y146600D01*
X1819375Y146675D01*
X1819475Y146725D01*
X1819525Y146775D01*
X1819550Y146800D01*
X1819700Y146975D01*
X1819800Y147150D01*
X1819900Y147300D01*
X1819950Y147475D01*
X1819975Y147625D01*
X1820000Y147725D01*
Y147800D01*
Y147825D01*
Y172975D01*
X1824100D01*
X1824325Y173000D01*
X1824500Y173050D01*
X1824675Y173100D01*
X1824825Y173200D01*
X1824950Y173275D01*
X1825025Y173325D01*
X1825075Y173375D01*
X1825100Y173400D01*
X1825250Y173575D01*
X1825350Y173750D01*
X1825425Y173925D01*
X1825475Y174075D01*
X1825500Y174225D01*
X1825525Y174325D01*
Y174525D01*
X1825500Y174725D01*
X1825450Y174900D01*
X1825400Y175075D01*
X1825325Y175200D01*
X1825225Y175325D01*
X1825175Y175400D01*
X1825125Y175450D01*
X1825100Y175475D01*
X1824950Y175625D01*
X1824775Y175725D01*
X1824600Y175800D01*
X1824450Y175850D01*
X1824300Y175875D01*
X1824200Y175900D01*
D02*
G37*
G36*
X1806750D02*
X1795525D01*
X1795300Y175875D01*
X1795125Y175850D01*
X1794950Y175775D01*
X1794800Y175700D01*
X1794675Y175625D01*
X1794600Y175575D01*
X1794550Y175525D01*
X1794525Y175500D01*
X1794400Y175350D01*
X1794300Y175175D01*
X1794225Y175025D01*
X1794175Y174875D01*
X1794150Y174725D01*
X1794125Y174625D01*
Y174425D01*
X1794150Y174225D01*
X1794200Y174025D01*
X1794250Y173850D01*
X1794325Y173700D01*
X1794400Y173575D01*
X1794475Y173475D01*
X1794500Y173425D01*
X1794525Y173400D01*
X1794675Y173250D01*
X1794850Y173150D01*
X1795025Y173075D01*
X1795175Y173025D01*
X1795325Y173000D01*
X1795425Y172975D01*
X1799625D01*
Y147825D01*
X1799650Y147600D01*
X1799700Y147425D01*
X1799750Y147250D01*
X1799850Y147100D01*
X1799925Y146975D01*
X1799975Y146875D01*
X1800025Y146825D01*
X1800050Y146800D01*
X1800225Y146650D01*
X1800400Y146550D01*
X1800575Y146475D01*
X1800750Y146425D01*
X1800875Y146400D01*
X1801000Y146375D01*
X1801100D01*
X1801300Y146400D01*
X1801500Y146450D01*
X1801675Y146500D01*
X1801825Y146600D01*
X1801925Y146675D01*
X1802025Y146725D01*
X1802075Y146775D01*
X1802100Y146800D01*
X1802250Y146975D01*
X1802350Y147150D01*
X1802450Y147300D01*
X1802500Y147475D01*
X1802525Y147625D01*
X1802550Y147725D01*
Y147800D01*
Y147825D01*
Y172975D01*
X1806650D01*
X1806875Y173000D01*
X1807050Y173050D01*
X1807225Y173100D01*
X1807375Y173200D01*
X1807500Y173275D01*
X1807575Y173325D01*
X1807625Y173375D01*
X1807650Y173400D01*
X1807800Y173575D01*
X1807900Y173750D01*
X1807975Y173925D01*
X1808025Y174075D01*
X1808050Y174225D01*
X1808075Y174325D01*
Y174525D01*
X1808050Y174725D01*
X1808000Y174900D01*
X1807950Y175075D01*
X1807875Y175200D01*
X1807775Y175325D01*
X1807725Y175400D01*
X1807675Y175450D01*
X1807650Y175475D01*
X1807500Y175625D01*
X1807325Y175725D01*
X1807150Y175800D01*
X1807000Y175850D01*
X1806850Y175875D01*
X1806750Y175900D01*
D02*
G37*
G36*
X1783875D02*
X1783650D01*
X1783100Y175875D01*
X1782600Y175825D01*
X1782150Y175725D01*
X1781725Y175625D01*
X1781400Y175525D01*
X1781150Y175425D01*
X1781050Y175400D01*
X1780975Y175375D01*
X1780950Y175350D01*
X1780925D01*
X1780450Y175125D01*
X1780025Y174875D01*
X1779650Y174625D01*
X1779350Y174400D01*
X1779075Y174175D01*
X1778875Y174000D01*
X1778775Y173900D01*
X1778725Y173850D01*
X1778375Y173500D01*
X1778075Y173125D01*
X1777825Y172750D01*
X1777625Y172400D01*
X1777450Y172100D01*
X1777350Y171875D01*
X1777300Y171775D01*
X1777275Y171700D01*
X1777250Y171675D01*
Y171650D01*
X1777050Y171150D01*
X1776925Y170675D01*
X1776825Y170225D01*
X1776750Y169825D01*
X1776700Y169450D01*
X1776675Y169200D01*
Y153350D01*
X1776700Y152800D01*
X1776750Y152300D01*
X1776850Y151850D01*
X1776950Y151450D01*
X1777050Y151125D01*
X1777150Y150875D01*
X1777175Y150775D01*
X1777200Y150700D01*
X1777225Y150675D01*
Y150650D01*
X1777450Y150175D01*
X1777675Y149750D01*
X1777925Y149375D01*
X1778175Y149050D01*
X1778400Y148775D01*
X1778575Y148600D01*
X1778675Y148475D01*
X1778725Y148425D01*
X1779075Y148075D01*
X1779475Y147775D01*
X1779825Y147525D01*
X1780175Y147300D01*
X1780500Y147150D01*
X1780725Y147025D01*
X1780825Y146975D01*
X1780900Y146950D01*
X1780925Y146925D01*
X1780950D01*
X1781425Y146750D01*
X1781900Y146600D01*
X1782350Y146500D01*
X1782750Y146450D01*
X1783125Y146400D01*
X1783400Y146375D01*
X1783650D01*
X1784150Y146400D01*
X1784625Y146450D01*
X1785050Y146550D01*
X1785425Y146650D01*
X1785725Y146725D01*
X1785950Y146825D01*
X1786100Y146875D01*
X1786150Y146900D01*
X1786675Y147125D01*
X1787150Y147375D01*
X1787575Y147625D01*
X1787925Y147875D01*
X1788225Y148100D01*
X1788425Y148275D01*
X1788550Y148375D01*
X1788600Y148425D01*
X1788925Y148775D01*
X1789225Y149175D01*
X1789475Y149525D01*
X1789700Y149875D01*
X1789875Y150200D01*
X1790000Y150425D01*
X1790050Y150525D01*
X1790075Y150600D01*
X1790100Y150625D01*
Y150650D01*
X1790275Y151125D01*
X1790400Y151600D01*
X1790500Y152050D01*
X1790550Y152475D01*
X1790600Y152825D01*
X1790625Y153100D01*
Y168950D01*
X1790600Y169450D01*
X1790550Y169925D01*
X1790475Y170350D01*
X1790375Y170725D01*
X1790275Y171000D01*
X1790200Y171225D01*
X1790150Y171375D01*
X1790125Y171425D01*
X1789900Y171950D01*
X1789625Y172450D01*
X1789375Y172850D01*
X1789150Y173200D01*
X1788925Y173475D01*
X1788750Y173675D01*
X1788650Y173800D01*
X1788600Y173850D01*
X1788225Y174200D01*
X1787800Y174500D01*
X1787400Y174750D01*
X1787025Y174975D01*
X1786675Y175150D01*
X1786425Y175300D01*
X1786325Y175350D01*
X1786250Y175375D01*
X1786200Y175400D01*
X1786175D01*
X1785750Y175575D01*
X1785300Y175700D01*
X1784875Y175775D01*
X1784500Y175850D01*
X1784150Y175875D01*
X1783875Y175900D01*
D02*
G37*
G36*
X1766425D02*
X1760750D01*
X1760525Y175875D01*
X1760350Y175825D01*
X1760175Y175775D01*
X1760025Y175700D01*
X1759900Y175600D01*
X1759800Y175550D01*
X1759750Y175500D01*
X1759725Y175475D01*
X1759575Y175300D01*
X1759475Y175150D01*
X1759400Y174975D01*
X1759350Y174825D01*
X1759325Y174675D01*
X1759300Y174575D01*
Y147825D01*
X1759325Y147600D01*
X1759375Y147425D01*
X1759425Y147250D01*
X1759500Y147100D01*
X1759575Y146975D01*
X1759650Y146875D01*
X1759675Y146825D01*
X1759700Y146800D01*
X1759850Y146650D01*
X1760025Y146550D01*
X1760200Y146475D01*
X1760375Y146425D01*
X1760525Y146400D01*
X1760650Y146375D01*
X1766300D01*
X1766825Y146400D01*
X1767325Y146450D01*
X1767825Y146550D01*
X1768275Y146700D01*
X1768700Y146850D01*
X1769100Y147000D01*
X1769475Y147200D01*
X1769825Y147375D01*
X1770125Y147550D01*
X1770400Y147750D01*
X1770625Y147900D01*
X1770825Y148075D01*
X1770975Y148200D01*
X1771075Y148300D01*
X1771150Y148350D01*
X1771175Y148375D01*
X1771525Y148775D01*
X1771850Y149175D01*
X1772125Y149575D01*
X1772350Y150000D01*
X1772550Y150400D01*
X1772700Y150800D01*
X1772850Y151200D01*
X1772950Y151575D01*
X1773025Y151925D01*
X1773100Y152250D01*
X1773150Y152525D01*
X1773175Y152775D01*
Y152975D01*
X1773200Y153125D01*
Y156025D01*
X1773175Y156650D01*
X1773075Y157225D01*
X1772925Y157800D01*
X1772725Y158325D01*
X1772500Y158825D01*
X1772250Y159275D01*
X1771975Y159725D01*
X1771700Y160100D01*
X1771400Y160450D01*
X1771125Y160775D01*
X1770875Y161050D01*
X1770650Y161275D01*
X1770512Y161396D01*
X1770700Y161550D01*
X1771150Y162025D01*
X1771575Y162500D01*
X1771925Y162975D01*
X1772200Y163450D01*
X1772450Y163925D01*
X1772650Y164375D01*
X1772825Y164825D01*
X1772950Y165225D01*
X1773050Y165600D01*
X1773100Y165950D01*
X1773150Y166225D01*
X1773175Y166475D01*
X1773200Y166650D01*
Y169025D01*
X1773175Y169550D01*
X1773125Y170050D01*
X1773025Y170525D01*
X1772875Y170975D01*
X1772725Y171425D01*
X1772550Y171825D01*
X1772375Y172175D01*
X1772200Y172525D01*
X1772000Y172825D01*
X1771825Y173100D01*
X1771650Y173325D01*
X1771500Y173525D01*
X1771375Y173675D01*
X1771275Y173775D01*
X1771200Y173850D01*
X1771175Y173875D01*
X1770800Y174225D01*
X1770400Y174550D01*
X1769975Y174825D01*
X1769575Y175050D01*
X1769150Y175250D01*
X1768750Y175400D01*
X1768350Y175550D01*
X1768000Y175650D01*
X1767650Y175725D01*
X1767325Y175800D01*
X1767025Y175850D01*
X1766775Y175875D01*
X1766575D01*
X1766425Y175900D01*
D02*
G37*
G36*
X2017000Y179600D02*
X2016825D01*
X2016600Y179550D01*
X2016375Y179475D01*
X2016200Y179400D01*
X2016050Y179275D01*
X2015950Y179175D01*
X2015875Y179100D01*
X2015825Y179025D01*
X2015800Y179000D01*
X2015250Y178275D01*
X2014725Y177550D01*
X2014300Y176900D01*
X2013900Y176300D01*
X2013750Y176025D01*
X2013600Y175800D01*
X2013475Y175600D01*
X2013375Y175400D01*
X2013275Y175275D01*
X2013225Y175175D01*
X2013200Y175100D01*
X2013175Y175075D01*
X2012750Y174225D01*
X2012375Y173400D01*
X2012025Y172625D01*
X2011875Y172275D01*
X2011750Y171950D01*
X2011625Y171650D01*
X2011525Y171375D01*
X2011425Y171125D01*
X2011350Y170925D01*
X2011300Y170775D01*
X2011250Y170650D01*
X2011225Y170575D01*
Y170550D01*
X2010950Y169675D01*
X2010700Y168800D01*
X2010475Y167925D01*
X2010275Y167075D01*
X2010125Y166225D01*
X2010000Y165450D01*
X2009900Y164675D01*
X2009800Y163975D01*
X2009725Y163325D01*
X2009675Y162725D01*
X2009650Y162200D01*
X2009625Y161775D01*
X2009600Y161400D01*
Y160925D01*
X2009625Y160000D01*
X2009675Y159100D01*
X2009750Y158225D01*
X2009850Y157375D01*
X2009975Y156525D01*
X2010100Y155750D01*
X2010250Y155000D01*
X2010400Y154300D01*
X2010550Y153675D01*
X2010700Y153100D01*
X2010825Y152575D01*
X2010950Y152150D01*
X2011050Y151825D01*
X2011125Y151550D01*
X2011150Y151475D01*
X2011175Y151400D01*
X2011200Y151375D01*
Y151350D01*
X2011500Y150500D01*
X2011825Y149675D01*
X2012175Y148850D01*
X2012550Y148075D01*
X2012925Y147325D01*
X2013300Y146625D01*
X2013675Y145975D01*
X2014050Y145375D01*
X2014400Y144800D01*
X2014725Y144300D01*
X2015000Y143875D01*
X2015275Y143500D01*
X2015475Y143225D01*
X2015650Y143000D01*
X2015750Y142875D01*
X2015775Y142825D01*
X2015925Y142650D01*
X2016100Y142525D01*
X2016275Y142425D01*
X2016425Y142375D01*
X2016575Y142325D01*
X2016675Y142300D01*
X2016750Y142275D01*
X2016900D01*
X2017100Y142300D01*
X2017300Y142325D01*
X2017450Y142375D01*
X2017600Y142450D01*
X2017725Y142500D01*
X2017825Y142550D01*
X2017875Y142575D01*
X2017900Y142600D01*
X2018075Y142750D01*
X2018200Y142900D01*
X2018300Y143050D01*
X2018375Y143200D01*
X2018425Y143350D01*
X2018450Y143450D01*
X2018475Y143525D01*
Y143775D01*
X2018450Y143975D01*
X2018375Y144175D01*
X2018300Y144325D01*
X2018225Y144475D01*
X2018175Y144575D01*
X2018125Y144625D01*
X2018100Y144650D01*
X2017600Y145325D01*
X2017150Y146000D01*
X2016700Y146650D01*
X2016325Y147250D01*
X2016150Y147525D01*
X2016000Y147800D01*
X2015875Y148025D01*
X2015775Y148200D01*
X2015675Y148350D01*
X2015600Y148475D01*
X2015575Y148550D01*
X2015550Y148575D01*
X2015225Y149250D01*
X2014900Y149925D01*
X2014625Y150600D01*
X2014375Y151225D01*
X2014250Y151525D01*
X2014150Y151775D01*
X2014075Y152025D01*
X2014000Y152225D01*
X2013925Y152375D01*
X2013875Y152500D01*
X2013850Y152575D01*
Y152600D01*
X2013625Y153350D01*
X2013400Y154075D01*
X2013225Y154825D01*
X2013075Y155550D01*
X2012950Y156275D01*
X2012825Y156950D01*
X2012750Y157625D01*
X2012675Y158225D01*
X2012625Y158800D01*
X2012575Y159325D01*
X2012550Y159775D01*
X2012525Y160175D01*
X2012500Y160500D01*
Y160725D01*
Y160875D01*
Y160925D01*
X2012525Y161750D01*
X2012550Y162550D01*
X2012625Y163325D01*
X2012700Y164075D01*
X2012825Y164800D01*
X2012925Y165500D01*
X2013050Y166150D01*
X2013175Y166750D01*
X2013300Y167300D01*
X2013425Y167800D01*
X2013550Y168250D01*
X2013650Y168600D01*
X2013725Y168900D01*
X2013800Y169125D01*
X2013825Y169250D01*
X2013850Y169300D01*
X2014150Y170125D01*
X2014475Y170900D01*
X2014800Y171600D01*
X2014925Y171925D01*
X2015075Y172225D01*
X2015200Y172500D01*
X2015325Y172750D01*
X2015425Y172950D01*
X2015525Y173125D01*
X2015600Y173275D01*
X2015650Y173400D01*
X2015700Y173450D01*
Y173475D01*
X2016100Y174200D01*
X2016525Y174875D01*
X2016925Y175525D01*
X2017300Y176075D01*
X2017475Y176325D01*
X2017625Y176550D01*
X2017775Y176750D01*
X2017900Y176925D01*
X2018000Y177050D01*
X2018075Y177150D01*
X2018100Y177200D01*
X2018125Y177225D01*
X2018250Y177425D01*
X2018350Y177600D01*
X2018400Y177775D01*
X2018450Y177950D01*
X2018475Y178100D01*
Y178300D01*
X2018425Y178500D01*
X2018325Y178700D01*
X2018250Y178850D01*
X2018150Y179000D01*
X2018075Y179100D01*
X2018000Y179175D01*
X2017950Y179225D01*
X2017925Y179250D01*
X2017750Y179375D01*
X2017575Y179450D01*
X2017225Y179550D01*
X2017100Y179575D01*
X2017000Y179600D01*
D02*
G37*
G36*
X2096925Y179525D02*
X2096700Y179500D01*
X2096525Y179475D01*
X2096350Y179425D01*
X2096200Y179375D01*
X2096075Y179300D01*
X2095975Y179250D01*
X2095925Y179225D01*
X2095900Y179200D01*
X2095750Y179050D01*
X2095625Y178900D01*
X2095525Y178750D01*
X2095450Y178575D01*
X2095400Y178450D01*
X2095375Y178325D01*
X2095350Y178250D01*
Y178025D01*
X2095375Y177825D01*
X2095425Y177625D01*
X2095475Y177475D01*
X2095525Y177350D01*
X2095575Y177250D01*
X2095625Y177175D01*
Y177150D01*
X2096150Y176475D01*
X2096625Y175825D01*
X2097050Y175175D01*
X2097425Y174600D01*
X2097575Y174350D01*
X2097725Y174125D01*
X2097850Y173925D01*
X2097950Y173725D01*
X2098025Y173600D01*
X2098075Y173500D01*
X2098125Y173425D01*
Y173400D01*
X2098500Y172675D01*
X2098825Y171950D01*
X2099150Y171250D01*
X2099425Y170625D01*
X2099525Y170325D01*
X2099625Y170075D01*
X2099725Y169850D01*
X2099800Y169650D01*
X2099875Y169500D01*
X2099925Y169375D01*
X2099950Y169300D01*
Y169275D01*
X2100200Y168500D01*
X2100400Y167750D01*
X2100575Y166975D01*
X2100725Y166225D01*
X2100850Y165500D01*
X2100975Y164800D01*
X2101050Y164150D01*
X2101125Y163525D01*
X2101200Y162950D01*
X2101225Y162425D01*
X2101250Y161975D01*
X2101275Y161575D01*
X2101300Y161250D01*
Y161025D01*
Y160875D01*
Y160850D01*
Y160825D01*
X2101275Y160000D01*
X2101250Y159200D01*
X2101175Y158425D01*
X2101100Y157650D01*
X2101000Y156925D01*
X2100875Y156225D01*
X2100750Y155575D01*
X2100625Y154950D01*
X2100500Y154400D01*
X2100375Y153900D01*
X2100275Y153450D01*
X2100150Y153075D01*
X2100075Y152775D01*
X2100000Y152550D01*
X2099975Y152425D01*
X2099950Y152375D01*
X2099650Y151575D01*
X2099325Y150825D01*
X2099050Y150150D01*
X2098900Y149850D01*
X2098775Y149575D01*
X2098650Y149325D01*
X2098550Y149100D01*
X2098450Y148900D01*
X2098375Y148725D01*
X2098325Y148600D01*
X2098275Y148500D01*
X2098225Y148450D01*
Y148425D01*
X2097775Y147650D01*
X2097325Y146925D01*
X2096900Y146275D01*
X2096500Y145700D01*
X2096300Y145450D01*
X2096150Y145225D01*
X2096000Y145025D01*
X2095875Y144850D01*
X2095775Y144725D01*
X2095700Y144625D01*
X2095650Y144575D01*
X2095625Y144550D01*
X2095525Y144375D01*
X2095450Y144175D01*
X2095375Y143825D01*
X2095350Y143700D01*
Y143475D01*
X2095400Y143250D01*
X2095475Y143075D01*
X2095550Y142900D01*
X2095650Y142775D01*
X2095750Y142650D01*
X2095825Y142575D01*
X2095875Y142525D01*
X2095900Y142500D01*
X2096075Y142400D01*
X2096225Y142325D01*
X2096525Y142225D01*
X2096650Y142200D01*
X2096750Y142175D01*
X2097025D01*
X2097225Y142225D01*
X2097400Y142300D01*
X2097575Y142400D01*
X2097700Y142500D01*
X2097825Y142600D01*
X2097900Y142675D01*
X2097950Y142725D01*
X2097975Y142750D01*
X2098525Y143475D01*
X2099050Y144225D01*
X2099550Y144975D01*
X2100000Y145725D01*
X2100400Y146450D01*
X2100800Y147175D01*
X2101150Y147850D01*
X2101450Y148500D01*
X2101725Y149100D01*
X2101975Y149650D01*
X2102175Y150125D01*
X2102350Y150550D01*
X2102475Y150900D01*
X2102575Y151150D01*
X2102600Y151225D01*
X2102625Y151300D01*
X2102650Y151325D01*
Y151350D01*
X2102925Y152225D01*
X2103175Y153075D01*
X2103400Y153925D01*
X2103575Y154775D01*
X2103725Y155575D01*
X2103850Y156375D01*
X2103975Y157125D01*
X2104050Y157825D01*
X2104125Y158450D01*
X2104175Y159050D01*
X2104200Y159550D01*
X2104225Y160000D01*
X2104250Y160350D01*
Y160825D01*
X2104225Y161750D01*
X2104175Y162650D01*
X2104075Y163550D01*
X2103950Y164425D01*
X2103825Y165275D01*
X2103675Y166100D01*
X2103500Y166850D01*
X2103325Y167575D01*
X2103150Y168225D01*
X2102975Y168825D01*
X2102825Y169350D01*
X2102700Y169775D01*
X2102575Y170150D01*
X2102525Y170275D01*
X2102475Y170400D01*
X2102450Y170500D01*
X2102425Y170575D01*
X2102400Y170600D01*
Y170625D01*
X2102125Y171425D01*
X2101825Y172200D01*
X2101500Y172975D01*
X2101150Y173725D01*
X2100775Y174450D01*
X2100400Y175125D01*
X2100050Y175775D01*
X2099675Y176375D01*
X2099325Y176925D01*
X2099000Y177425D01*
X2098725Y177850D01*
X2098450Y178225D01*
X2098250Y178525D01*
X2098100Y178750D01*
X2097975Y178875D01*
X2097950Y178925D01*
X2097800Y179125D01*
X2097650Y179250D01*
X2097500Y179350D01*
X2097350Y179425D01*
X2097225Y179475D01*
X2097150Y179500D01*
X2097050D01*
X2096925Y179525D01*
D02*
G37*
%LPD*%
G36*
X2073400Y175600D02*
X2073375D01*
X2073425Y175625D01*
X2073400Y175600D01*
D02*
G37*
G36*
X2045500Y172925D02*
X2046050Y172800D01*
X2046525Y172600D01*
X2046925Y172400D01*
X2047250Y172200D01*
X2047500Y172000D01*
X2047650Y171875D01*
X2047675Y171850D01*
X2047700Y171825D01*
X2047900Y171600D01*
X2048075Y171375D01*
X2048375Y170900D01*
X2048575Y170450D01*
X2048700Y170025D01*
X2048800Y169650D01*
X2048825Y169475D01*
Y169350D01*
X2048850Y169225D01*
Y169150D01*
Y169100D01*
Y169075D01*
Y166275D01*
Y165975D01*
X2048800Y165700D01*
X2048675Y165175D01*
X2048475Y164700D01*
X2048275Y164300D01*
X2048075Y163950D01*
X2047875Y163700D01*
X2047800Y163625D01*
X2047750Y163550D01*
X2047725Y163525D01*
X2047700Y163500D01*
X2047475Y163300D01*
X2047250Y163125D01*
X2046775Y162825D01*
X2046325Y162625D01*
X2045875Y162500D01*
X2045500Y162400D01*
X2045350Y162375D01*
X2045200D01*
X2045075Y162350D01*
X2040900D01*
Y172975D01*
X2045225D01*
X2045500Y172925D01*
D02*
G37*
G36*
X2028175D02*
X2028725Y172800D01*
X2029200Y172600D01*
X2029600Y172400D01*
X2029925Y172200D01*
X2030175Y172000D01*
X2030325Y171875D01*
X2030350Y171850D01*
X2030375Y171825D01*
X2030575Y171600D01*
X2030750Y171375D01*
X2031050Y170900D01*
X2031250Y170425D01*
X2031375Y170000D01*
X2031475Y169600D01*
X2031500Y169450D01*
Y169300D01*
X2031525Y169175D01*
Y169100D01*
Y169050D01*
Y169025D01*
Y166275D01*
Y165975D01*
X2031475Y165675D01*
X2031350Y165150D01*
X2031150Y164650D01*
X2030950Y164250D01*
X2030750Y163900D01*
X2030550Y163650D01*
X2030475Y163575D01*
X2030425Y163500D01*
X2030400Y163475D01*
X2030375Y163450D01*
X2030150Y163250D01*
X2029925Y163075D01*
X2029450Y162775D01*
X2029000Y162575D01*
X2028550Y162450D01*
X2028175Y162350D01*
X2028025Y162325D01*
X2027875D01*
X2027750Y162300D01*
X2023575D01*
Y172975D01*
X2027900D01*
X2028175Y172925D01*
D02*
G37*
G36*
X1971400Y155975D02*
X1964900D01*
X1968150Y169800D01*
X1971400Y155975D01*
D02*
G37*
G36*
X1936150Y172925D02*
X1936700Y172800D01*
X1937175Y172600D01*
X1937575Y172400D01*
X1937900Y172200D01*
X1938150Y172000D01*
X1938300Y171875D01*
X1938325Y171850D01*
X1938350Y171825D01*
X1938550Y171600D01*
X1938725Y171375D01*
X1939025Y170900D01*
X1939225Y170450D01*
X1939350Y170025D01*
X1939450Y169650D01*
X1939475Y169475D01*
Y169350D01*
X1939500Y169225D01*
Y169150D01*
Y169100D01*
Y169075D01*
Y166275D01*
Y165975D01*
X1939450Y165700D01*
X1939325Y165175D01*
X1939125Y164700D01*
X1938925Y164300D01*
X1938725Y163950D01*
X1938525Y163700D01*
X1938450Y163625D01*
X1938400Y163550D01*
X1938375Y163525D01*
X1938350Y163500D01*
X1938125Y163300D01*
X1937900Y163125D01*
X1937425Y162825D01*
X1936975Y162625D01*
X1936525Y162500D01*
X1936150Y162400D01*
X1936000Y162375D01*
X1935850D01*
X1935725Y162350D01*
X1931550D01*
Y172975D01*
X1935875D01*
X1936150Y172925D01*
D02*
G37*
G36*
X1885875Y172950D02*
X1886150Y172925D01*
X1886400Y172875D01*
X1886650Y172825D01*
X1886825Y172750D01*
X1886975Y172700D01*
X1887075Y172675D01*
X1887100Y172650D01*
X1887375Y172525D01*
X1887650Y172375D01*
X1887875Y172225D01*
X1888075Y172075D01*
X1888250Y171925D01*
X1888375Y171800D01*
X1888450Y171725D01*
X1888475Y171700D01*
X1888800Y171300D01*
X1889075Y170925D01*
X1889150Y170775D01*
X1889225Y170650D01*
X1889250Y170550D01*
X1889275Y170525D01*
X1889375Y170250D01*
X1889475Y169975D01*
X1889525Y169700D01*
X1889550Y169450D01*
X1889575Y169250D01*
X1889600Y169100D01*
Y169000D01*
Y168950D01*
Y153350D01*
X1889575Y153025D01*
X1889550Y152725D01*
X1889400Y152150D01*
X1889175Y151625D01*
X1888950Y151175D01*
X1888700Y150775D01*
X1888575Y150625D01*
X1888475Y150500D01*
X1888400Y150400D01*
X1888325Y150325D01*
X1888300Y150275D01*
X1888275Y150250D01*
X1887850Y149925D01*
X1887400Y149700D01*
X1886950Y149525D01*
X1886525Y149425D01*
X1886150Y149350D01*
X1885975Y149325D01*
X1885850D01*
X1885725Y149300D01*
X1885575D01*
X1885275Y149325D01*
X1884975Y149350D01*
X1884400Y149475D01*
X1883925Y149650D01*
X1883500Y149875D01*
X1883150Y150075D01*
X1882900Y150250D01*
X1882825Y150325D01*
X1882750Y150375D01*
X1882725Y150425D01*
X1882700D01*
X1882500Y150650D01*
X1882325Y150900D01*
X1882025Y151400D01*
X1881825Y151875D01*
X1881700Y152350D01*
X1881600Y152750D01*
X1881575Y152925D01*
Y153075D01*
X1881550Y153175D01*
Y153275D01*
Y153325D01*
Y153350D01*
Y168950D01*
X1881600Y169550D01*
X1881700Y170075D01*
X1881850Y170525D01*
X1882025Y170925D01*
X1882175Y171225D01*
X1882325Y171450D01*
X1882425Y171600D01*
X1882475Y171650D01*
X1882750Y171875D01*
X1883025Y172100D01*
X1883300Y172275D01*
X1883550Y172425D01*
X1884075Y172650D01*
X1884550Y172800D01*
X1884975Y172900D01*
X1885150Y172925D01*
X1885300Y172950D01*
X1885400Y172975D01*
X1885575D01*
X1885875Y172950D01*
D02*
G37*
G36*
X1836300D02*
X1836575Y172925D01*
X1836825Y172875D01*
X1837075Y172825D01*
X1837250Y172750D01*
X1837400Y172700D01*
X1837500Y172675D01*
X1837525Y172650D01*
X1837800Y172525D01*
X1838075Y172375D01*
X1838300Y172225D01*
X1838500Y172075D01*
X1838675Y171925D01*
X1838800Y171800D01*
X1838875Y171725D01*
X1838900Y171700D01*
X1839225Y171300D01*
X1839500Y170925D01*
X1839575Y170775D01*
X1839650Y170650D01*
X1839675Y170550D01*
X1839700Y170525D01*
X1839800Y170250D01*
X1839900Y169975D01*
X1839950Y169700D01*
X1839975Y169450D01*
X1840000Y169250D01*
X1840025Y169100D01*
Y169000D01*
Y168950D01*
Y153350D01*
X1840000Y153025D01*
X1839975Y152725D01*
X1839825Y152150D01*
X1839600Y151625D01*
X1839375Y151175D01*
X1839125Y150775D01*
X1839000Y150625D01*
X1838900Y150500D01*
X1838825Y150400D01*
X1838750Y150325D01*
X1838725Y150275D01*
X1838700Y150250D01*
X1838275Y149925D01*
X1837825Y149700D01*
X1837375Y149525D01*
X1836950Y149425D01*
X1836575Y149350D01*
X1836400Y149325D01*
X1836275D01*
X1836150Y149300D01*
X1836000D01*
X1835700Y149325D01*
X1835400Y149350D01*
X1834825Y149475D01*
X1834350Y149650D01*
X1833925Y149875D01*
X1833575Y150075D01*
X1833325Y150250D01*
X1833250Y150325D01*
X1833175Y150375D01*
X1833150Y150425D01*
X1833125D01*
X1832925Y150650D01*
X1832750Y150900D01*
X1832450Y151400D01*
X1832250Y151875D01*
X1832125Y152350D01*
X1832025Y152750D01*
X1832000Y152925D01*
Y153075D01*
X1831975Y153175D01*
Y153275D01*
Y153325D01*
Y153350D01*
Y168950D01*
X1832025Y169550D01*
X1832125Y170075D01*
X1832275Y170525D01*
X1832450Y170925D01*
X1832600Y171225D01*
X1832750Y171450D01*
X1832850Y171600D01*
X1832900Y171650D01*
X1833175Y171875D01*
X1833450Y172100D01*
X1833725Y172275D01*
X1833975Y172425D01*
X1834500Y172650D01*
X1834975Y172800D01*
X1835400Y172900D01*
X1835575Y172925D01*
X1835725Y172950D01*
X1835825Y172975D01*
X1836000D01*
X1836300Y172950D01*
D02*
G37*
G36*
X1783950D02*
X1784225Y172925D01*
X1784475Y172875D01*
X1784725Y172825D01*
X1784900Y172750D01*
X1785050Y172700D01*
X1785150Y172675D01*
X1785175Y172650D01*
X1785450Y172525D01*
X1785725Y172375D01*
X1785950Y172225D01*
X1786150Y172075D01*
X1786325Y171925D01*
X1786450Y171800D01*
X1786525Y171725D01*
X1786550Y171700D01*
X1786875Y171300D01*
X1787150Y170925D01*
X1787225Y170775D01*
X1787300Y170650D01*
X1787325Y170550D01*
X1787350Y170525D01*
X1787450Y170250D01*
X1787550Y169975D01*
X1787600Y169700D01*
X1787625Y169450D01*
X1787650Y169250D01*
X1787675Y169100D01*
Y169000D01*
Y168950D01*
Y153350D01*
X1787650Y153025D01*
X1787625Y152725D01*
X1787475Y152150D01*
X1787250Y151625D01*
X1787025Y151175D01*
X1786775Y150775D01*
X1786650Y150625D01*
X1786550Y150500D01*
X1786475Y150400D01*
X1786400Y150325D01*
X1786375Y150275D01*
X1786350Y150250D01*
X1785925Y149925D01*
X1785475Y149700D01*
X1785025Y149525D01*
X1784600Y149425D01*
X1784225Y149350D01*
X1784050Y149325D01*
X1783925D01*
X1783800Y149300D01*
X1783650D01*
X1783350Y149325D01*
X1783050Y149350D01*
X1782475Y149475D01*
X1782000Y149650D01*
X1781575Y149875D01*
X1781225Y150075D01*
X1780975Y150250D01*
X1780900Y150325D01*
X1780825Y150375D01*
X1780800Y150425D01*
X1780775D01*
X1780575Y150650D01*
X1780400Y150900D01*
X1780100Y151400D01*
X1779900Y151875D01*
X1779775Y152350D01*
X1779675Y152750D01*
X1779650Y152925D01*
Y153075D01*
X1779625Y153175D01*
Y153275D01*
Y153325D01*
Y153350D01*
Y168950D01*
X1779675Y169550D01*
X1779775Y170075D01*
X1779925Y170525D01*
X1780100Y170925D01*
X1780250Y171225D01*
X1780400Y171450D01*
X1780500Y171600D01*
X1780550Y171650D01*
X1780825Y171875D01*
X1781100Y172100D01*
X1781375Y172275D01*
X1781625Y172425D01*
X1782150Y172650D01*
X1782625Y172800D01*
X1783050Y172900D01*
X1783225Y172925D01*
X1783375Y172950D01*
X1783475Y172975D01*
X1783650D01*
X1783950Y172950D01*
D02*
G37*
G36*
X1766875Y172925D02*
X1767425Y172800D01*
X1767900Y172600D01*
X1768300Y172400D01*
X1768625Y172200D01*
X1768875Y172000D01*
X1769025Y171875D01*
X1769050Y171850D01*
X1769075Y171825D01*
X1769275Y171600D01*
X1769475Y171375D01*
X1769750Y170900D01*
X1769975Y170425D01*
X1770100Y170000D01*
X1770200Y169600D01*
X1770225Y169450D01*
Y169300D01*
X1770250Y169175D01*
Y169100D01*
Y169050D01*
Y169025D01*
Y166800D01*
Y166500D01*
X1770200Y166200D01*
X1770075Y165675D01*
X1769875Y165200D01*
X1769675Y164775D01*
X1769450Y164450D01*
X1769250Y164200D01*
X1769175Y164125D01*
X1769125Y164050D01*
X1769100Y164025D01*
X1769075Y164000D01*
X1768850Y163800D01*
X1768625Y163625D01*
X1768150Y163325D01*
X1767700Y163125D01*
X1767250Y163000D01*
X1766875Y162900D01*
X1766725Y162875D01*
X1766575D01*
X1766450Y162850D01*
X1762250D01*
Y172975D01*
X1766600D01*
X1766875Y172925D01*
D02*
G37*
G36*
Y159875D02*
X1767425Y159750D01*
X1767900Y159550D01*
X1768300Y159350D01*
X1768625Y159125D01*
X1768875Y158925D01*
X1769025Y158800D01*
X1769050Y158775D01*
X1769075Y158750D01*
X1769275Y158525D01*
X1769475Y158300D01*
X1769750Y157850D01*
X1769975Y157375D01*
X1770100Y156950D01*
X1770200Y156575D01*
X1770225Y156425D01*
Y156300D01*
X1770250Y156175D01*
Y156100D01*
Y156050D01*
Y156025D01*
Y153250D01*
Y152950D01*
X1770200Y152650D01*
X1770075Y152125D01*
X1769875Y151650D01*
X1769675Y151225D01*
X1769450Y150900D01*
X1769250Y150650D01*
X1769175Y150575D01*
X1769125Y150500D01*
X1769100Y150475D01*
X1769075Y150450D01*
X1768850Y150250D01*
X1768625Y150075D01*
X1768150Y149775D01*
X1767700Y149575D01*
X1767250Y149450D01*
X1766875Y149350D01*
X1766725Y149325D01*
X1766575D01*
X1766450Y149300D01*
X1762250D01*
Y159925D01*
X1766600D01*
X1766875Y159875D01*
D02*
G37*
D15*
X258770Y290674D02*
Y293873D01*
X260369Y292273D01*
X258237D01*
X261436Y293339D02*
X261969Y293873D01*
X263035D01*
X263568Y293339D01*
Y291207D01*
X263035Y290674D01*
X261969D01*
X261436Y291207D01*
X328000Y273200D02*
X339600D01*
Y266600D01*
X328000Y266600D01*
Y273200D01*
X357244Y238999D02*
X357777D01*
X359910Y241131D01*
X360443D01*
Y238999D01*
Y237399D02*
Y236333D01*
X359910Y235800D01*
X357777D01*
X357244Y236333D01*
Y237399D01*
X357777Y237932D01*
X359910D02*
X360443Y237399D01*
X365949D02*
X366482Y237932D01*
X365949Y237399D02*
Y236333D01*
X366482Y235800D01*
X368615D01*
X369148Y236333D01*
Y237399D01*
X368615Y237932D01*
Y238999D02*
X369148Y239532D01*
Y240598D01*
X368615Y241131D01*
X368082D01*
X367549Y240598D01*
X367016Y241131D01*
X366482D01*
X365949Y240598D01*
Y239532D01*
X366482Y238999D01*
X367016D01*
X367549Y239532D01*
X368082Y238999D01*
X368615D01*
X367549Y239532D02*
Y240598D01*
X370699Y233200D02*
X364099D01*
Y221600D01*
X370699D01*
Y233200D01*
X362100D02*
X355500D01*
Y221600D01*
X362100D01*
Y233200D01*
X346920Y268633D02*
X346387Y268100D01*
X345321D01*
X344788Y268633D01*
X343721D02*
X343188Y268100D01*
X342122D01*
X341589Y268633D01*
Y269700D01*
X342122Y270233D01*
X342655D01*
X343721Y269700D01*
Y271299D01*
X341589D01*
X345321D02*
X346387D01*
X346920Y270766D01*
Y268633D01*
X344788Y270766D02*
X345321Y271299D01*
X372021Y276868D02*
X371488Y277401D01*
Y278468D01*
X372021Y279001D01*
X371488Y280067D02*
Y281133D01*
Y280600D01*
X374687D01*
X374154Y280067D01*
Y279001D02*
X374687Y278468D01*
Y277401D01*
X374154Y276868D01*
X372021D01*
X376900Y273200D02*
X383500D01*
Y284800D01*
X376900D01*
Y273200D01*
X375019Y301899D02*
X374485Y301366D01*
X373419D01*
X372886Y301899D01*
X371819Y301366D02*
X369687Y303499D01*
Y304032D01*
X370220Y304565D01*
X371286D01*
X371819Y304032D01*
X372886D02*
X373419Y304565D01*
X374485D01*
X375019Y304032D01*
Y301899D01*
X371819Y301366D02*
X369687D01*
X367100Y306400D02*
Y313000D01*
X378700D01*
Y306400D01*
X367100D01*
X449862Y307026D02*
Y313626D01*
X461462Y313626D01*
Y307026D01*
X449862D01*
X452956Y304663D02*
X454023Y304130D01*
X455089Y303064D01*
Y301997D01*
X454556Y301464D01*
X453489D01*
X452956Y301997D01*
Y302531D01*
X453489Y303064D01*
X455089D01*
X456155Y304130D02*
X456688Y304663D01*
X457755D01*
X458288Y304130D01*
Y301997D01*
X457755Y301464D01*
X456688D01*
X456155Y301997D01*
X483300Y341600D02*
Y348200D01*
X471700D01*
Y341600D01*
X483300D01*
X479500Y350910D02*
X478967Y350377D01*
X477901D01*
X477367Y350910D01*
X476301D02*
X475768Y350377D01*
X474702D01*
X474168Y350910D01*
Y351443D01*
X474702Y351976D01*
X475235D01*
X474702D01*
X474168Y352509D01*
Y353043D01*
X474702Y353576D01*
X475768D01*
X476301Y353043D01*
X477367D02*
X477901Y353576D01*
X478967D01*
X479500Y353043D01*
Y350910D01*
X266702Y302293D02*
Y295693D01*
X255102D01*
Y302293D01*
X266702D01*
M02*
