G04*
G04 #@! TF.GenerationSoftware,Altium Limited,Altium Designer,20.0.7 (75)*
G04*
G04 Layer_Color=16711935*
%FSLAX25Y25*%
%MOIN*%
G70*
G01*
G75*
%ADD24C,0.01000*%
G36*
X1958425Y137100D02*
X1755300D01*
Y184675D01*
X1958425D01*
Y137100D01*
D02*
G37*
G36*
X2089933Y165848D02*
X2089966D01*
X2090000Y165826D01*
X2090033Y165804D01*
X2090188D01*
Y165792D01*
Y165759D01*
Y165715D01*
Y165703D01*
X2090199Y165692D01*
X2090222Y165681D01*
X2090244Y165659D01*
X2090255Y165648D01*
X2090277Y165615D01*
X2090311Y165570D01*
X2090322Y165548D01*
X2090333Y165537D01*
X2090344Y165526D01*
X2090355Y165504D01*
X2090366Y165492D01*
Y165481D01*
Y165459D01*
X2090377Y165448D01*
X2090388Y165415D01*
X2090400Y165359D01*
X2090411Y165281D01*
Y165259D01*
X2090422D01*
Y165248D01*
Y165237D01*
Y165204D01*
Y153383D01*
Y153371D01*
Y153327D01*
X2090411Y153271D01*
X2090400Y153205D01*
Y153194D01*
X2090377Y153160D01*
X2090366Y153127D01*
X2090355Y153105D01*
Y153094D01*
X2090344Y153083D01*
X2090322Y153038D01*
X2090299Y152994D01*
X2090266Y152949D01*
X2090255Y152938D01*
X2090222Y152916D01*
X2090155Y152883D01*
X2090088Y152838D01*
X2089988Y152805D01*
X2089888Y152771D01*
X2089766Y152749D01*
X2089644Y152738D01*
X2089633D01*
X2089600Y152749D01*
X2089544Y152771D01*
X2089477Y152805D01*
X2089400Y152849D01*
X2089322Y152916D01*
X2089233Y152994D01*
X2089155Y153094D01*
Y153105D01*
Y153127D01*
X2089133Y153160D01*
X2089122Y153205D01*
X2089111Y153249D01*
Y153260D01*
X2089100Y153271D01*
X2089088Y153305D01*
X2089066Y153349D01*
Y153360D01*
X2089055Y153394D01*
X2089033Y153449D01*
X2089000Y153505D01*
X2088389Y154993D01*
X2088233Y155338D01*
X2087944Y156071D01*
X2087766Y156460D01*
X2086889Y158582D01*
X2086744Y158949D01*
X2086433Y159704D01*
X2086278Y160071D01*
X2085533Y161872D01*
Y153383D01*
Y153360D01*
Y153338D01*
Y153327D01*
Y153294D01*
X2085522Y153249D01*
X2085500Y153194D01*
Y153182D01*
X2085489Y153149D01*
X2085467Y153083D01*
Y153094D01*
X2085456Y153071D01*
X2085433Y153027D01*
X2085411Y152983D01*
X2085389Y152960D01*
Y152949D01*
X2085378D01*
X2085367Y152927D01*
X2085300Y152883D01*
X2085211Y152827D01*
X2085133Y152783D01*
X2085111Y152771D01*
X2085067Y152760D01*
X2085000Y152749D01*
X2084911Y152738D01*
X2084789D01*
X2084722Y152749D01*
X2084656Y152771D01*
X2084611D01*
X2084600Y152783D01*
X2084589Y152794D01*
X2084556Y152816D01*
X2084533Y152827D01*
X2084478Y152872D01*
X2084411Y152927D01*
X2084322Y153016D01*
X2084311Y153027D01*
X2084289Y153071D01*
X2084267Y153138D01*
X2084245Y153216D01*
Y153238D01*
Y153249D01*
X2084233Y153282D01*
X2084222Y153327D01*
Y153383D01*
Y165204D01*
Y165215D01*
Y165248D01*
Y165259D01*
Y165281D01*
Y165326D01*
X2084233Y165381D01*
X2084256Y165426D01*
Y165437D01*
X2084267Y165459D01*
X2084289Y165492D01*
X2084322Y165548D01*
Y165559D01*
X2084345Y165581D01*
X2084367Y165615D01*
X2084411Y165659D01*
X2084422Y165670D01*
X2084444Y165692D01*
X2084478Y165737D01*
X2084533Y165792D01*
X2084596D01*
X2084656Y165815D01*
X2084733Y165848D01*
X2084611D01*
Y165859D01*
X2084989D01*
X2085044Y165837D01*
X2085111Y165815D01*
X2085167Y165781D01*
X2085178D01*
X2085211Y165770D01*
X2085256Y165748D01*
X2085311Y165703D01*
X2085333Y165681D01*
X2085345Y165670D01*
X2085356Y165659D01*
X2085389Y165626D01*
X2085433Y165581D01*
Y165570D01*
X2085456Y165548D01*
X2085467Y165504D01*
X2085500Y165448D01*
Y165437D01*
Y165426D01*
X2085644Y165104D01*
X2086078Y163981D01*
X2086255Y163593D01*
X2086678Y162582D01*
X2086833Y162193D01*
X2086989Y161782D01*
X2087166Y161404D01*
X2087455Y160671D01*
X2087633Y160282D01*
X2088378Y158438D01*
X2088544Y158060D01*
X2088944Y157082D01*
X2089111Y156697D01*
Y165204D01*
Y165215D01*
Y165248D01*
Y165259D01*
Y165270D01*
Y165281D01*
Y165293D01*
Y165304D01*
Y165315D01*
Y165326D01*
Y165337D01*
Y165370D01*
Y165381D01*
X2089122Y165403D01*
X2089166Y165470D01*
X2089211Y165559D01*
X2089233Y165592D01*
X2089255Y165626D01*
Y165637D01*
Y165681D01*
Y165703D01*
Y165748D01*
X2089388D01*
X2089377Y165737D01*
X2089422Y165770D01*
X2089488Y165804D01*
X2089566Y165826D01*
X2089577D01*
X2089589Y165837D01*
X2089644Y165848D01*
X2089722Y165859D01*
X2089911D01*
X2089933Y165848D01*
D02*
G37*
G36*
X2045604D02*
X2045637D01*
X2045671Y165826D01*
X2045704Y165804D01*
X2045860D01*
Y165792D01*
Y165759D01*
Y165715D01*
Y165703D01*
X2045871Y165692D01*
X2045893Y165681D01*
X2045915Y165659D01*
X2045926Y165648D01*
X2045948Y165615D01*
X2045982Y165570D01*
X2045993Y165548D01*
X2046004Y165537D01*
X2046015Y165526D01*
X2046026Y165504D01*
X2046037Y165492D01*
Y165481D01*
Y165459D01*
X2046048Y165448D01*
X2046059Y165415D01*
X2046071Y165359D01*
X2046082Y165281D01*
Y165259D01*
X2046093D01*
Y165248D01*
Y165237D01*
Y165204D01*
Y153383D01*
Y153371D01*
Y153327D01*
X2046082Y153271D01*
X2046071Y153205D01*
Y153194D01*
X2046048Y153160D01*
X2046037Y153127D01*
X2046026Y153105D01*
Y153094D01*
X2046015Y153083D01*
X2045993Y153038D01*
X2045971Y152994D01*
X2045937Y152949D01*
X2045926Y152938D01*
X2045893Y152916D01*
X2045826Y152883D01*
X2045760Y152838D01*
X2045659Y152805D01*
X2045560Y152771D01*
X2045437Y152749D01*
X2045315Y152738D01*
X2045304D01*
X2045271Y152749D01*
X2045215Y152771D01*
X2045148Y152805D01*
X2045071Y152849D01*
X2044993Y152916D01*
X2044904Y152994D01*
X2044826Y153094D01*
Y153105D01*
Y153127D01*
X2044804Y153160D01*
X2044793Y153205D01*
X2044782Y153249D01*
Y153260D01*
X2044771Y153271D01*
X2044760Y153305D01*
X2044737Y153349D01*
Y153360D01*
X2044726Y153394D01*
X2044704Y153449D01*
X2044671Y153505D01*
X2044060Y154993D01*
X2043904Y155338D01*
X2043615Y156071D01*
X2043438Y156460D01*
X2042560Y158582D01*
X2042415Y158949D01*
X2042104Y159704D01*
X2041949Y160071D01*
X2041204Y161872D01*
Y153383D01*
Y153360D01*
Y153338D01*
Y153327D01*
Y153294D01*
X2041193Y153249D01*
X2041171Y153194D01*
Y153182D01*
X2041160Y153149D01*
X2041138Y153083D01*
Y153094D01*
X2041127Y153071D01*
X2041104Y153027D01*
X2041082Y152983D01*
X2041060Y152960D01*
Y152949D01*
X2041049D01*
X2041038Y152927D01*
X2040971Y152883D01*
X2040882Y152827D01*
X2040804Y152783D01*
X2040782Y152771D01*
X2040738Y152760D01*
X2040671Y152749D01*
X2040582Y152738D01*
X2040460D01*
X2040393Y152749D01*
X2040327Y152771D01*
X2040282D01*
X2040271Y152783D01*
X2040260Y152794D01*
X2040227Y152816D01*
X2040204Y152827D01*
X2040149Y152872D01*
X2040082Y152927D01*
X2039993Y153016D01*
X2039982Y153027D01*
X2039960Y153071D01*
X2039938Y153138D01*
X2039916Y153216D01*
Y153238D01*
Y153249D01*
X2039905Y153282D01*
X2039893Y153327D01*
Y153383D01*
Y165204D01*
Y165215D01*
Y165248D01*
Y165259D01*
Y165281D01*
Y165326D01*
X2039905Y165381D01*
X2039927Y165426D01*
Y165437D01*
X2039938Y165459D01*
X2039960Y165492D01*
X2039993Y165548D01*
Y165559D01*
X2040016Y165581D01*
X2040038Y165615D01*
X2040082Y165659D01*
X2040093Y165670D01*
X2040116Y165692D01*
X2040149Y165737D01*
X2040204Y165792D01*
X2040268D01*
X2040327Y165815D01*
X2040405Y165848D01*
X2040282D01*
Y165859D01*
X2040660D01*
X2040716Y165837D01*
X2040782Y165815D01*
X2040838Y165781D01*
X2040849D01*
X2040882Y165770D01*
X2040927Y165748D01*
X2040982Y165703D01*
X2041004Y165681D01*
X2041016Y165670D01*
X2041027Y165659D01*
X2041060Y165626D01*
X2041104Y165581D01*
Y165570D01*
X2041127Y165548D01*
X2041138Y165504D01*
X2041171Y165448D01*
Y165437D01*
Y165426D01*
X2041315Y165104D01*
X2041749Y163981D01*
X2041927Y163593D01*
X2042349Y162582D01*
X2042504Y162193D01*
X2042660Y161782D01*
X2042838Y161404D01*
X2043126Y160671D01*
X2043304Y160282D01*
X2044049Y158438D01*
X2044215Y158060D01*
X2044615Y157082D01*
X2044782Y156697D01*
Y165204D01*
Y165215D01*
Y165248D01*
Y165259D01*
Y165270D01*
Y165281D01*
Y165293D01*
Y165304D01*
Y165315D01*
Y165326D01*
Y165337D01*
Y165370D01*
Y165381D01*
X2044793Y165403D01*
X2044837Y165470D01*
X2044882Y165559D01*
X2044904Y165592D01*
X2044926Y165626D01*
Y165637D01*
Y165681D01*
Y165703D01*
Y165748D01*
X2045060D01*
X2045049Y165737D01*
X2045093Y165770D01*
X2045160Y165804D01*
X2045237Y165826D01*
X2045248D01*
X2045260Y165837D01*
X2045315Y165848D01*
X2045393Y165859D01*
X2045582D01*
X2045604Y165848D01*
D02*
G37*
G36*
X1990143Y165870D02*
X1990243Y165859D01*
X1990265D01*
X1990332Y165848D01*
X1990421Y165837D01*
X1990543Y165815D01*
X1990676Y165792D01*
X1990821Y165748D01*
X1990965Y165703D01*
X1991098Y165648D01*
X1991109D01*
X1991121Y165637D01*
X1991187Y165615D01*
X1991298Y165559D01*
X1991421Y165504D01*
X1991576Y165426D01*
X1991732Y165326D01*
X1991887Y165226D01*
X1992043Y165104D01*
X1992065Y165093D01*
X1992109Y165048D01*
X1992176Y164970D01*
X1992265Y164881D01*
X1992376Y164770D01*
X1992476Y164637D01*
X1992587Y164492D01*
X1992687Y164326D01*
Y164315D01*
X1992698Y164281D01*
X1992720Y164237D01*
X1992731Y164170D01*
X1992743Y164093D01*
X1992754Y163993D01*
X1992743Y163893D01*
X1992720Y163770D01*
Y163759D01*
X1992709Y163737D01*
X1992698Y163704D01*
X1992665Y163659D01*
X1992598Y163548D01*
X1992543Y163493D01*
X1992476Y163437D01*
X1992465D01*
X1992443Y163426D01*
X1992409Y163404D01*
X1992365Y163393D01*
X1992254Y163348D01*
X1992132Y163337D01*
X1992076D01*
X1992020Y163348D01*
X1991954Y163359D01*
X1991943D01*
X1991909Y163382D01*
X1991865Y163404D01*
X1991798Y163437D01*
X1991665Y163537D01*
X1991598Y163604D01*
X1991532Y163681D01*
Y163693D01*
X1991521Y163704D01*
X1991476Y163770D01*
X1991409Y163859D01*
X1991309Y163970D01*
X1991187Y164093D01*
X1991043Y164215D01*
X1990876Y164326D01*
X1990676Y164426D01*
X1990665Y164437D01*
X1990621Y164448D01*
X1990554Y164470D01*
X1990465Y164504D01*
X1990365Y164537D01*
X1990254Y164559D01*
X1990132Y164570D01*
X1990009Y164581D01*
X1989921D01*
X1989854Y164570D01*
X1989710Y164559D01*
X1989532Y164515D01*
X1989521D01*
X1989510Y164504D01*
X1989476Y164492D01*
X1989432Y164481D01*
X1989321Y164437D01*
X1989187Y164370D01*
X1989032Y164281D01*
X1988876Y164170D01*
X1988710Y164037D01*
X1988565Y163870D01*
X1988554Y163848D01*
X1988510Y163781D01*
X1988454Y163681D01*
X1988387Y163559D01*
X1988321Y163393D01*
X1988265Y163204D01*
X1988221Y162993D01*
X1988210Y162770D01*
Y155849D01*
Y155838D01*
Y155827D01*
Y155793D01*
X1988221Y155749D01*
X1988232Y155627D01*
X1988254Y155482D01*
X1988299Y155305D01*
X1988365Y155127D01*
X1988443Y154938D01*
X1988565Y154749D01*
X1988588Y154727D01*
X1988632Y154671D01*
X1988710Y154582D01*
X1988821Y154482D01*
X1988965Y154371D01*
X1989132Y154271D01*
X1989321Y154171D01*
X1989532Y154094D01*
X1989543D01*
X1989576Y154083D01*
X1989621Y154071D01*
X1989676D01*
X1989743Y154060D01*
X1989832Y154049D01*
X1990009Y154038D01*
X1990065D01*
X1990132Y154049D01*
X1990221Y154060D01*
X1990321Y154071D01*
X1990432Y154094D01*
X1990554Y154127D01*
X1990676Y154171D01*
X1990687D01*
X1990698Y154182D01*
X1990765Y154216D01*
X1990865Y154271D01*
X1990987Y154360D01*
X1991132Y154460D01*
X1991276Y154594D01*
X1991409Y154738D01*
X1991532Y154916D01*
X1991543Y154927D01*
X1991554Y154960D01*
X1991587Y154993D01*
X1991643Y155049D01*
X1991698Y155105D01*
X1991776Y155160D01*
X1991854Y155205D01*
X1991954Y155238D01*
X1991976D01*
X1992009Y155249D01*
X1992076Y155260D01*
X1992154D01*
X1992232Y155249D01*
X1992332Y155227D01*
X1992443Y155182D01*
X1992454Y155171D01*
X1992476Y155160D01*
X1992520Y155127D01*
X1992565Y155082D01*
X1992609Y155027D01*
X1992665Y154960D01*
X1992709Y154871D01*
X1992743Y154782D01*
Y154771D01*
X1992754Y154738D01*
Y154682D01*
Y154616D01*
X1992743Y154460D01*
X1992720Y154371D01*
X1992687Y154294D01*
X1992676Y154271D01*
X1992643Y154216D01*
X1992587Y154127D01*
X1992509Y154016D01*
X1992420Y153894D01*
X1992309Y153760D01*
X1992187Y153627D01*
X1992043Y153494D01*
X1992020Y153482D01*
X1991976Y153438D01*
X1991887Y153383D01*
X1991787Y153305D01*
X1991654Y153227D01*
X1991509Y153138D01*
X1991354Y153060D01*
X1991187Y152983D01*
X1991165Y152971D01*
X1991109Y152949D01*
X1991021Y152916D01*
X1990898Y152883D01*
X1990754Y152838D01*
X1990587Y152805D01*
X1990409Y152760D01*
X1990221Y152738D01*
X1989932D01*
X1989854Y152749D01*
X1989743D01*
X1989621Y152771D01*
X1989476Y152794D01*
X1989321Y152816D01*
X1989154Y152860D01*
X1989143D01*
X1989110Y152872D01*
X1989054Y152894D01*
X1988987Y152916D01*
X1988910Y152949D01*
X1988810Y152983D01*
X1988699Y153038D01*
X1988576Y153094D01*
X1988321Y153238D01*
X1988187Y153327D01*
X1988043Y153438D01*
X1987910Y153549D01*
X1987776Y153671D01*
X1987643Y153805D01*
X1987521Y153960D01*
X1987510Y153971D01*
X1987499Y153994D01*
X1987465Y154038D01*
X1987421Y154105D01*
X1987377Y154182D01*
X1987321Y154282D01*
X1987265Y154382D01*
X1987210Y154505D01*
X1987154Y154638D01*
X1987099Y154782D01*
X1986999Y155105D01*
X1986921Y155460D01*
X1986910Y155649D01*
X1986899Y155849D01*
Y162770D01*
Y162782D01*
Y162815D01*
Y162871D01*
X1986910Y162948D01*
X1986921Y163048D01*
X1986932Y163159D01*
X1986954Y163282D01*
X1986988Y163415D01*
X1987065Y163715D01*
X1987121Y163882D01*
X1987188Y164048D01*
X1987265Y164226D01*
X1987365Y164392D01*
X1987465Y164570D01*
X1987588Y164737D01*
X1987599Y164748D01*
X1987610Y164770D01*
X1987643Y164804D01*
X1987687Y164859D01*
X1987754Y164915D01*
X1987821Y164981D01*
X1987910Y165059D01*
X1987999Y165137D01*
X1988110Y165226D01*
X1988232Y165304D01*
X1988354Y165392D01*
X1988499Y165481D01*
X1988654Y165559D01*
X1988821Y165637D01*
X1988998Y165703D01*
X1989187Y165759D01*
X1989210Y165770D01*
X1989254Y165781D01*
X1989343Y165804D01*
X1989443Y165826D01*
X1989565Y165848D01*
X1989698Y165859D01*
X1989854Y165881D01*
X1990065D01*
X1990143Y165870D01*
D02*
G37*
G36*
X2121985Y165848D02*
X2122063Y165837D01*
X2122074D01*
X2122107Y165815D01*
X2122152Y165781D01*
X2122207Y165737D01*
X2122263Y165681D01*
X2122318Y165615D01*
X2122374Y165526D01*
X2122419Y165426D01*
Y165415D01*
X2122430Y165392D01*
X2122441Y165337D01*
X2122452Y165281D01*
Y165204D01*
Y165126D01*
X2122430Y165026D01*
X2122407Y164926D01*
X2120008Y159160D01*
Y153383D01*
Y153371D01*
Y153338D01*
X2119996Y153294D01*
X2119985Y153227D01*
X2119963Y153149D01*
X2119930Y153083D01*
X2119885Y153005D01*
X2119819Y152927D01*
X2119808Y152916D01*
X2119785Y152894D01*
X2119741Y152872D01*
X2119697Y152838D01*
X2119630Y152794D01*
X2119552Y152771D01*
X2119463Y152749D01*
X2119363Y152738D01*
X2119319D01*
X2119263Y152749D01*
X2119197Y152760D01*
X2119119Y152783D01*
X2119041Y152816D01*
X2118963Y152860D01*
X2118897Y152927D01*
X2118885Y152938D01*
X2118874Y152960D01*
X2118841Y153005D01*
X2118808Y153060D01*
X2118774Y153127D01*
X2118752Y153205D01*
X2118730Y153282D01*
X2118719Y153383D01*
Y159171D01*
X2116308Y164926D01*
Y164937D01*
X2116297Y164970D01*
X2116286Y165026D01*
X2116275Y165093D01*
Y165259D01*
Y165337D01*
X2116297Y165426D01*
X2116308Y165437D01*
X2116319Y165470D01*
X2116341Y165526D01*
X2116386Y165581D01*
X2116430Y165648D01*
X2116497Y165726D01*
X2116575Y165781D01*
X2116664Y165837D01*
X2116686D01*
X2116741Y165848D01*
X2116819Y165859D01*
X2116908D01*
X2116952Y165848D01*
X2117030Y165837D01*
X2117119Y165804D01*
X2117219Y165759D01*
X2117330Y165681D01*
X2117441Y165570D01*
X2117530Y165426D01*
X2119363Y160704D01*
X2121196Y165426D01*
X2121207Y165448D01*
X2121241Y165492D01*
X2121285Y165559D01*
X2121363Y165648D01*
X2121452Y165726D01*
X2121563Y165792D01*
X2121685Y165837D01*
X2121830Y165859D01*
X2121907D01*
X2121985Y165848D01*
D02*
G37*
G36*
X2082100D02*
X2082156Y165837D01*
X2082234Y165815D01*
X2082311Y165781D01*
X2082389Y165737D01*
X2082467Y165681D01*
X2082478Y165670D01*
X2082500Y165648D01*
X2082523Y165603D01*
X2082567Y165548D01*
X2082600Y165481D01*
X2082623Y165403D01*
X2082645Y165304D01*
X2082656Y165204D01*
Y155838D01*
Y155827D01*
Y155805D01*
Y155771D01*
Y155727D01*
X2082645Y155605D01*
X2082623Y155449D01*
X2082600Y155260D01*
X2082556Y155060D01*
X2082500Y154849D01*
X2082422Y154638D01*
Y154627D01*
X2082411Y154616D01*
X2082400Y154582D01*
X2082378Y154538D01*
X2082311Y154427D01*
X2082234Y154294D01*
X2082134Y154138D01*
X2082023Y153971D01*
X2081889Y153805D01*
X2081734Y153638D01*
X2081712Y153616D01*
X2081656Y153571D01*
X2081567Y153494D01*
X2081445Y153394D01*
X2081300Y153294D01*
X2081134Y153182D01*
X2080945Y153083D01*
X2080734Y152983D01*
X2080723D01*
X2080712Y152971D01*
X2080678Y152960D01*
X2080634Y152949D01*
X2080523Y152905D01*
X2080378Y152860D01*
X2080201Y152816D01*
X2080000Y152771D01*
X2079789Y152749D01*
X2079556Y152738D01*
X2079445D01*
X2079323Y152749D01*
X2079156Y152771D01*
X2078978Y152794D01*
X2078778Y152838D01*
X2078567Y152905D01*
X2078356Y152983D01*
X2078345D01*
X2078334Y152994D01*
X2078301Y153005D01*
X2078256Y153027D01*
X2078156Y153083D01*
X2078012Y153149D01*
X2077856Y153249D01*
X2077701Y153360D01*
X2077523Y153494D01*
X2077368Y153649D01*
X2077345Y153671D01*
X2077301Y153727D01*
X2077223Y153805D01*
X2077123Y153927D01*
X2077012Y154071D01*
X2076901Y154238D01*
X2076801Y154427D01*
X2076701Y154638D01*
Y154649D01*
X2076690Y154660D01*
X2076679Y154693D01*
X2076668Y154738D01*
X2076623Y154849D01*
X2076579Y154993D01*
X2076534Y155171D01*
X2076490Y155371D01*
X2076468Y155593D01*
X2076456Y155838D01*
Y165204D01*
Y165215D01*
Y165259D01*
X2076468Y165304D01*
X2076479Y165381D01*
X2076501Y165448D01*
X2076534Y165537D01*
X2076579Y165615D01*
X2076634Y165681D01*
X2076645Y165692D01*
X2076668Y165715D01*
X2076701Y165737D01*
X2076756Y165770D01*
X2076823Y165804D01*
X2076912Y165837D01*
X2077001Y165848D01*
X2077101Y165859D01*
X2077145D01*
X2077201Y165848D01*
X2077267Y165837D01*
X2077334Y165815D01*
X2077412Y165781D01*
X2077490Y165737D01*
X2077556Y165681D01*
X2077567Y165670D01*
X2077590Y165648D01*
X2077623Y165615D01*
X2077667Y165559D01*
X2077701Y165492D01*
X2077734Y165403D01*
X2077756Y165315D01*
X2077767Y165204D01*
Y155838D01*
Y155827D01*
Y155805D01*
Y155760D01*
X2077778Y155716D01*
Y155649D01*
X2077790Y155571D01*
X2077834Y155393D01*
X2077890Y155182D01*
X2077979Y154971D01*
X2078112Y154749D01*
X2078190Y154638D01*
X2078279Y154538D01*
X2078290D01*
X2078301Y154516D01*
X2078334Y154493D01*
X2078367Y154460D01*
X2078478Y154382D01*
X2078634Y154294D01*
X2078823Y154194D01*
X2079034Y154116D01*
X2079289Y154060D01*
X2079423Y154049D01*
X2079556Y154038D01*
X2079623D01*
X2079678Y154049D01*
X2079734D01*
X2079812Y154060D01*
X2079978Y154094D01*
X2080167Y154138D01*
X2080367Y154216D01*
X2080567Y154316D01*
X2080756Y154460D01*
X2080767Y154471D01*
X2080778Y154493D01*
X2080812Y154527D01*
X2080845Y154571D01*
X2080889Y154627D01*
X2080945Y154693D01*
X2081056Y154871D01*
X2081156Y155071D01*
X2081256Y155305D01*
X2081323Y155560D01*
X2081334Y155693D01*
X2081345Y155838D01*
Y165204D01*
Y165215D01*
Y165259D01*
X2081356Y165304D01*
X2081367Y165381D01*
X2081389Y165448D01*
X2081423Y165537D01*
X2081467Y165615D01*
X2081523Y165681D01*
X2081534Y165692D01*
X2081556Y165715D01*
X2081600Y165737D01*
X2081645Y165770D01*
X2081723Y165804D01*
X2081800Y165837D01*
X2081889Y165848D01*
X2082000Y165859D01*
X2082045D01*
X2082100Y165848D01*
D02*
G37*
G36*
X2020940D02*
X2020995Y165837D01*
X2021073Y165815D01*
X2021151Y165781D01*
X2021229Y165737D01*
X2021306Y165681D01*
X2021317Y165670D01*
X2021340Y165648D01*
X2021362Y165603D01*
X2021406Y165548D01*
X2021440Y165481D01*
X2021462Y165403D01*
X2021484Y165304D01*
X2021495Y165204D01*
Y155838D01*
Y155827D01*
Y155805D01*
Y155771D01*
Y155727D01*
X2021484Y155605D01*
X2021462Y155449D01*
X2021440Y155260D01*
X2021395Y155060D01*
X2021340Y154849D01*
X2021262Y154638D01*
Y154627D01*
X2021251Y154616D01*
X2021240Y154582D01*
X2021218Y154538D01*
X2021151Y154427D01*
X2021073Y154294D01*
X2020973Y154138D01*
X2020862Y153971D01*
X2020729Y153805D01*
X2020573Y153638D01*
X2020551Y153616D01*
X2020495Y153571D01*
X2020407Y153494D01*
X2020284Y153394D01*
X2020140Y153294D01*
X2019973Y153182D01*
X2019784Y153083D01*
X2019573Y152983D01*
X2019562D01*
X2019551Y152971D01*
X2019518Y152960D01*
X2019473Y152949D01*
X2019362Y152905D01*
X2019218Y152860D01*
X2019040Y152816D01*
X2018840Y152771D01*
X2018629Y152749D01*
X2018396Y152738D01*
X2018284D01*
X2018162Y152749D01*
X2017996Y152771D01*
X2017818Y152794D01*
X2017618Y152838D01*
X2017407Y152905D01*
X2017196Y152983D01*
X2017185D01*
X2017174Y152994D01*
X2017140Y153005D01*
X2017096Y153027D01*
X2016996Y153083D01*
X2016851Y153149D01*
X2016696Y153249D01*
X2016540Y153360D01*
X2016363Y153494D01*
X2016207Y153649D01*
X2016185Y153671D01*
X2016140Y153727D01*
X2016063Y153805D01*
X2015962Y153927D01*
X2015851Y154071D01*
X2015740Y154238D01*
X2015640Y154427D01*
X2015540Y154638D01*
Y154649D01*
X2015529Y154660D01*
X2015518Y154693D01*
X2015507Y154738D01*
X2015462Y154849D01*
X2015418Y154993D01*
X2015374Y155171D01*
X2015329Y155371D01*
X2015307Y155593D01*
X2015296Y155838D01*
Y165204D01*
Y165215D01*
Y165259D01*
X2015307Y165304D01*
X2015318Y165381D01*
X2015340Y165448D01*
X2015374Y165537D01*
X2015418Y165615D01*
X2015474Y165681D01*
X2015485Y165692D01*
X2015507Y165715D01*
X2015540Y165737D01*
X2015596Y165770D01*
X2015663Y165804D01*
X2015751Y165837D01*
X2015840Y165848D01*
X2015940Y165859D01*
X2015985D01*
X2016040Y165848D01*
X2016107Y165837D01*
X2016174Y165815D01*
X2016251Y165781D01*
X2016329Y165737D01*
X2016396Y165681D01*
X2016407Y165670D01*
X2016429Y165648D01*
X2016463Y165615D01*
X2016507Y165559D01*
X2016540Y165492D01*
X2016574Y165403D01*
X2016596Y165315D01*
X2016607Y165204D01*
Y155838D01*
Y155827D01*
Y155805D01*
Y155760D01*
X2016618Y155716D01*
Y155649D01*
X2016629Y155571D01*
X2016673Y155393D01*
X2016729Y155182D01*
X2016818Y154971D01*
X2016951Y154749D01*
X2017029Y154638D01*
X2017118Y154538D01*
X2017129D01*
X2017140Y154516D01*
X2017174Y154493D01*
X2017207Y154460D01*
X2017318Y154382D01*
X2017473Y154294D01*
X2017662Y154194D01*
X2017873Y154116D01*
X2018129Y154060D01*
X2018262Y154049D01*
X2018396Y154038D01*
X2018462D01*
X2018518Y154049D01*
X2018573D01*
X2018651Y154060D01*
X2018818Y154094D01*
X2019007Y154138D01*
X2019207Y154216D01*
X2019407Y154316D01*
X2019596Y154460D01*
X2019607Y154471D01*
X2019618Y154493D01*
X2019651Y154527D01*
X2019684Y154571D01*
X2019729Y154627D01*
X2019784Y154693D01*
X2019895Y154871D01*
X2019995Y155071D01*
X2020095Y155305D01*
X2020162Y155560D01*
X2020173Y155693D01*
X2020184Y155838D01*
Y165204D01*
Y165215D01*
Y165259D01*
X2020195Y165304D01*
X2020206Y165381D01*
X2020229Y165448D01*
X2020262Y165537D01*
X2020307Y165615D01*
X2020362Y165681D01*
X2020373Y165692D01*
X2020395Y165715D01*
X2020440Y165737D01*
X2020484Y165770D01*
X2020562Y165804D01*
X2020640Y165837D01*
X2020729Y165848D01*
X2020840Y165859D01*
X2020884D01*
X2020940Y165848D01*
D02*
G37*
G36*
X2085467Y153049D02*
Y153027D01*
Y152983D01*
Y152971D01*
X2085422D01*
X2085444Y153027D01*
X2085467Y153083D01*
Y153049D01*
D02*
G37*
G36*
X2041138D02*
Y153027D01*
Y152983D01*
Y152971D01*
X2041093D01*
X2041116Y153027D01*
X2041138Y153083D01*
Y153049D01*
D02*
G37*
G36*
X2111697Y165848D02*
X2111786D01*
X2111897Y165837D01*
X2112020Y165815D01*
X2112164Y165781D01*
X2112320Y165748D01*
X2112486Y165703D01*
X2112653Y165637D01*
X2112842Y165570D01*
X2113020Y165481D01*
X2113197Y165381D01*
X2113386Y165259D01*
X2113564Y165115D01*
X2113730Y164959D01*
X2113742Y164948D01*
X2113775Y164915D01*
X2113819Y164870D01*
X2113875Y164804D01*
X2113942Y164715D01*
X2114019Y164615D01*
X2114097Y164492D01*
X2114186Y164359D01*
X2114264Y164215D01*
X2114342Y164048D01*
X2114419Y163870D01*
X2114486Y163681D01*
X2114553Y163481D01*
X2114597Y163270D01*
X2114619Y163059D01*
X2114630Y162826D01*
Y161582D01*
Y161571D01*
Y161537D01*
Y161493D01*
X2114619Y161426D01*
Y161337D01*
X2114597Y161248D01*
X2114586Y161137D01*
X2114564Y161015D01*
X2114497Y160749D01*
X2114397Y160460D01*
X2114342Y160315D01*
X2114264Y160160D01*
X2114186Y160004D01*
X2114086Y159860D01*
X2114075Y159849D01*
X2114064Y159826D01*
X2114030Y159782D01*
X2113986Y159737D01*
X2113931Y159671D01*
X2113864Y159593D01*
X2113708Y159426D01*
X2113497Y159249D01*
X2113253Y159060D01*
X2112975Y158882D01*
X2112718Y158767D01*
X2114642Y153594D01*
Y153583D01*
X2114653Y153549D01*
Y153505D01*
X2114664Y153438D01*
Y153371D01*
X2114653Y153282D01*
X2114642Y153194D01*
X2114608Y153105D01*
Y153094D01*
X2114586Y153060D01*
X2114564Y153027D01*
X2114530Y152971D01*
X2114475Y152916D01*
X2114419Y152872D01*
X2114342Y152816D01*
X2114253Y152783D01*
X2114242Y152771D01*
X2114186Y152760D01*
X2114119Y152749D01*
X2114019Y152738D01*
X2113997D01*
X2113953Y152749D01*
X2113875Y152760D01*
X2113786Y152794D01*
X2113686Y152849D01*
X2113586Y152916D01*
X2113497Y153027D01*
X2113408Y153171D01*
X2111453Y158538D01*
X2109786D01*
Y153394D01*
Y153383D01*
Y153349D01*
X2109775Y153294D01*
X2109764Y153227D01*
X2109742Y153160D01*
X2109698Y153083D01*
X2109653Y153005D01*
X2109587Y152927D01*
X2109575Y152916D01*
X2109553Y152894D01*
X2109509Y152872D01*
X2109453Y152838D01*
X2109386Y152794D01*
X2109309Y152771D01*
X2109220Y152749D01*
X2109120Y152738D01*
X2109075D01*
X2109031Y152749D01*
X2108964Y152760D01*
X2108887Y152783D01*
X2108820Y152816D01*
X2108742Y152860D01*
X2108664Y152927D01*
X2108653Y152938D01*
X2108631Y152960D01*
X2108609Y153005D01*
X2108575Y153060D01*
X2108531Y153127D01*
X2108509Y153205D01*
X2108487Y153294D01*
X2108475Y153394D01*
Y165226D01*
Y165237D01*
Y165270D01*
X2108487Y165315D01*
X2108498Y165370D01*
X2108520Y165437D01*
X2108553Y165515D01*
X2108598Y165581D01*
X2108653Y165659D01*
X2108664Y165670D01*
X2108687Y165692D01*
X2108720Y165726D01*
X2108775Y165759D01*
X2108842Y165792D01*
X2108931Y165826D01*
X2109020Y165848D01*
X2109120Y165859D01*
X2111631D01*
X2111697Y165848D01*
D02*
G37*
G36*
X2103476Y165826D02*
X2103543Y165792D01*
X2103632Y165748D01*
X2103720Y165670D01*
X2103798Y165581D01*
X2103876Y165470D01*
X2103931Y165337D01*
X2106887Y153460D01*
Y153449D01*
X2106898Y153427D01*
Y153394D01*
Y153338D01*
X2106887Y153282D01*
X2106876Y153205D01*
X2106842Y153127D01*
X2106798Y153049D01*
X2106787Y153038D01*
X2106776Y153016D01*
X2106742Y152971D01*
X2106698Y152927D01*
X2106642Y152883D01*
X2106587Y152838D01*
X2106509Y152794D01*
X2106420Y152760D01*
X2106409D01*
X2106376Y152749D01*
X2106320Y152738D01*
X2106220D01*
X2106176Y152749D01*
X2106120Y152760D01*
X2105987Y152794D01*
X2105909Y152827D01*
X2105842Y152872D01*
X2105831Y152883D01*
X2105809Y152894D01*
X2105787Y152927D01*
X2105742Y152971D01*
X2105665Y153083D01*
X2105631Y153149D01*
X2105609Y153227D01*
X2104987Y155693D01*
X2101587D01*
X2100954Y153205D01*
X2100943Y153182D01*
X2100921Y153127D01*
X2100876Y153060D01*
X2100810Y152971D01*
X2100732Y152883D01*
X2100621Y152816D01*
X2100487Y152760D01*
X2100321Y152738D01*
X2100232D01*
X2100187Y152749D01*
X2100176D01*
X2100143Y152760D01*
X2100087Y152783D01*
X2100032Y152816D01*
X2099965Y152860D01*
X2099899Y152905D01*
X2099832Y152971D01*
X2099776Y153049D01*
Y153060D01*
X2099754Y153094D01*
X2099732Y153138D01*
X2099721Y153194D01*
X2099699Y153260D01*
X2099688Y153338D01*
Y153427D01*
X2099699Y153516D01*
X2102643Y165337D01*
Y165359D01*
X2102665Y165403D01*
X2102698Y165470D01*
X2102743Y165548D01*
X2102809Y165637D01*
X2102898Y165726D01*
X2103009Y165792D01*
X2103154Y165848D01*
X2103432D01*
X2103476Y165826D01*
D02*
G37*
G36*
X2095266Y165848D02*
X2095421Y165837D01*
X2095588Y165804D01*
X2095777Y165770D01*
X2095977Y165715D01*
X2096166Y165637D01*
X2096177D01*
X2096199Y165626D01*
X2096232Y165615D01*
X2096277Y165592D01*
X2096388Y165526D01*
X2096543Y165448D01*
X2096710Y165348D01*
X2096888Y165237D01*
X2097077Y165104D01*
X2097243Y164948D01*
X2097265Y164926D01*
X2097310Y164870D01*
X2097388Y164781D01*
X2097488Y164659D01*
X2097588Y164504D01*
X2097699Y164326D01*
X2097821Y164104D01*
X2097921Y163870D01*
X2097932Y163848D01*
X2097954Y163781D01*
X2097988Y163681D01*
X2098032Y163559D01*
X2098076Y163393D01*
X2098110Y163204D01*
X2098132Y162993D01*
X2098143Y162770D01*
Y155838D01*
Y155827D01*
Y155805D01*
Y155771D01*
Y155727D01*
X2098132Y155605D01*
X2098110Y155449D01*
X2098088Y155260D01*
X2098043Y155060D01*
X2097988Y154849D01*
X2097910Y154638D01*
Y154627D01*
X2097899Y154616D01*
X2097888Y154582D01*
X2097865Y154538D01*
X2097810Y154438D01*
X2097732Y154294D01*
X2097632Y154138D01*
X2097521Y153982D01*
X2097388Y153805D01*
X2097243Y153649D01*
X2097221Y153627D01*
X2097165Y153583D01*
X2097077Y153505D01*
X2096943Y153405D01*
X2096788Y153294D01*
X2096599Y153182D01*
X2096388Y153071D01*
X2096155Y152971D01*
X2096132Y152960D01*
X2096066Y152938D01*
X2095966Y152894D01*
X2095832Y152860D01*
X2095666Y152816D01*
X2095477Y152771D01*
X2095266Y152749D01*
X2095044Y152738D01*
X2092544D01*
X2092488Y152749D01*
X2092422Y152760D01*
X2092344Y152783D01*
X2092266Y152816D01*
X2092188Y152860D01*
X2092122Y152916D01*
X2092110Y152927D01*
X2092099Y152949D01*
X2092066Y152983D01*
X2092033Y153038D01*
X2091999Y153105D01*
X2091977Y153194D01*
X2091955Y153282D01*
X2091944Y153383D01*
Y165204D01*
Y165215D01*
Y165259D01*
X2091955Y165304D01*
X2091966Y165381D01*
X2091988Y165448D01*
X2092022Y165537D01*
X2092066Y165615D01*
X2092122Y165681D01*
X2092133Y165692D01*
X2092155Y165715D01*
X2092188Y165737D01*
X2092244Y165770D01*
X2092310Y165804D01*
X2092399Y165837D01*
X2092488Y165848D01*
X2092588Y165859D01*
X2095144D01*
X2095266Y165848D01*
D02*
G37*
G36*
X2072024D02*
X2072179Y165837D01*
X2072346Y165804D01*
X2072535Y165770D01*
X2072735Y165715D01*
X2072923Y165637D01*
X2072935D01*
X2072957Y165626D01*
X2072990Y165615D01*
X2073035Y165592D01*
X2073146Y165526D01*
X2073301Y165448D01*
X2073468Y165348D01*
X2073646Y165237D01*
X2073834Y165104D01*
X2074001Y164948D01*
X2074023Y164926D01*
X2074068Y164870D01*
X2074146Y164781D01*
X2074246Y164659D01*
X2074346Y164504D01*
X2074457Y164326D01*
X2074579Y164104D01*
X2074679Y163870D01*
X2074690Y163848D01*
X2074712Y163781D01*
X2074746Y163681D01*
X2074790Y163559D01*
X2074834Y163393D01*
X2074868Y163204D01*
X2074890Y162993D01*
X2074901Y162770D01*
Y155838D01*
Y155827D01*
Y155805D01*
Y155771D01*
Y155727D01*
X2074890Y155605D01*
X2074868Y155449D01*
X2074846Y155260D01*
X2074801Y155060D01*
X2074746Y154849D01*
X2074668Y154638D01*
Y154627D01*
X2074657Y154616D01*
X2074645Y154582D01*
X2074623Y154538D01*
X2074568Y154438D01*
X2074490Y154294D01*
X2074390Y154138D01*
X2074279Y153982D01*
X2074146Y153805D01*
X2074001Y153649D01*
X2073979Y153627D01*
X2073923Y153583D01*
X2073834Y153505D01*
X2073701Y153405D01*
X2073546Y153294D01*
X2073357Y153182D01*
X2073146Y153071D01*
X2072912Y152971D01*
X2072890Y152960D01*
X2072824Y152938D01*
X2072724Y152894D01*
X2072590Y152860D01*
X2072424Y152816D01*
X2072235Y152771D01*
X2072024Y152749D01*
X2071801Y152738D01*
X2071690D01*
X2071568Y152749D01*
X2071401Y152771D01*
X2071224Y152794D01*
X2071024Y152838D01*
X2070813Y152905D01*
X2070601Y152983D01*
X2070590D01*
X2070579Y152994D01*
X2070546Y153005D01*
X2070502Y153027D01*
X2070402Y153083D01*
X2070257Y153149D01*
X2070102Y153249D01*
X2069946Y153360D01*
X2069768Y153494D01*
X2069613Y153649D01*
X2069591Y153671D01*
X2069546Y153727D01*
X2069468Y153805D01*
X2069368Y153927D01*
X2069257Y154071D01*
X2069146Y154238D01*
X2069046Y154427D01*
X2068946Y154638D01*
Y154649D01*
X2068935Y154660D01*
X2068924Y154693D01*
X2068913Y154738D01*
X2068868Y154849D01*
X2068824Y154993D01*
X2068779Y155171D01*
X2068735Y155371D01*
X2068713Y155593D01*
X2068702Y155838D01*
Y162770D01*
Y162782D01*
Y162804D01*
Y162837D01*
Y162882D01*
X2068713Y162993D01*
X2068735Y163159D01*
X2068768Y163337D01*
X2068813Y163537D01*
X2068868Y163748D01*
X2068957Y163970D01*
Y163981D01*
X2068968Y163993D01*
X2068979Y164026D01*
X2069002Y164070D01*
X2069046Y164170D01*
X2069124Y164304D01*
X2069213Y164459D01*
X2069324Y164626D01*
X2069457Y164793D01*
X2069613Y164948D01*
X2069635Y164970D01*
X2069679Y165015D01*
X2069768Y165093D01*
X2069890Y165192D01*
X2070024Y165293D01*
X2070190Y165403D01*
X2070379Y165515D01*
X2070590Y165615D01*
X2070601D01*
X2070613Y165626D01*
X2070646Y165637D01*
X2070690Y165648D01*
X2070802Y165692D01*
X2070946Y165737D01*
X2071135Y165781D01*
X2071335Y165826D01*
X2071557Y165848D01*
X2071801Y165859D01*
X2071901D01*
X2072024Y165848D01*
D02*
G37*
G36*
X2064213D02*
X2064302D01*
X2064413Y165837D01*
X2064547Y165815D01*
X2064691Y165781D01*
X2064846Y165748D01*
X2065002Y165703D01*
X2065180Y165637D01*
X2065358Y165570D01*
X2065546Y165481D01*
X2065724Y165381D01*
X2065913Y165259D01*
X2066091Y165115D01*
X2066257Y164959D01*
X2066269Y164948D01*
X2066302Y164915D01*
X2066346Y164870D01*
X2066402Y164804D01*
X2066469Y164715D01*
X2066546Y164615D01*
X2066624Y164492D01*
X2066713Y164359D01*
X2066791Y164204D01*
X2066869Y164048D01*
X2066946Y163870D01*
X2067013Y163670D01*
X2067080Y163470D01*
X2067124Y163259D01*
X2067146Y163037D01*
X2067157Y162804D01*
Y161815D01*
Y161793D01*
Y161748D01*
X2067146Y161671D01*
X2067135Y161559D01*
X2067113Y161437D01*
X2067091Y161282D01*
X2067046Y161115D01*
X2066991Y160937D01*
X2066913Y160737D01*
X2066824Y160537D01*
X2066713Y160326D01*
X2066591Y160115D01*
X2066435Y159904D01*
X2066246Y159693D01*
X2066046Y159482D01*
X2065963Y159414D01*
X2066024Y159360D01*
X2066124Y159260D01*
X2066235Y159137D01*
X2066357Y158993D01*
X2066491Y158837D01*
X2066613Y158671D01*
X2066735Y158471D01*
X2066846Y158271D01*
X2066946Y158049D01*
X2067035Y157815D01*
X2067102Y157560D01*
X2067146Y157304D01*
X2067157Y157027D01*
Y155793D01*
Y155782D01*
Y155738D01*
X2067146Y155671D01*
Y155582D01*
X2067135Y155471D01*
X2067113Y155349D01*
X2067080Y155205D01*
X2067046Y155049D01*
X2067002Y154882D01*
X2066935Y154705D01*
X2066869Y154527D01*
X2066780Y154349D01*
X2066680Y154160D01*
X2066557Y153982D01*
X2066413Y153805D01*
X2066257Y153627D01*
X2066246Y153616D01*
X2066213Y153594D01*
X2066169Y153549D01*
X2066102Y153494D01*
X2066013Y153416D01*
X2065913Y153349D01*
X2065791Y153260D01*
X2065657Y153182D01*
X2065502Y153105D01*
X2065335Y153016D01*
X2065158Y152949D01*
X2064969Y152883D01*
X2064769Y152816D01*
X2064547Y152771D01*
X2064324Y152749D01*
X2064091Y152738D01*
X2061580D01*
X2061525Y152749D01*
X2061458Y152760D01*
X2061380Y152783D01*
X2061302Y152816D01*
X2061225Y152860D01*
X2061158Y152927D01*
X2061147Y152938D01*
X2061136Y152960D01*
X2061102Y153005D01*
X2061069Y153060D01*
X2061036Y153127D01*
X2061014Y153205D01*
X2060991Y153282D01*
X2060980Y153383D01*
Y165226D01*
Y165237D01*
Y165270D01*
X2060991Y165315D01*
X2061002Y165381D01*
X2061025Y165448D01*
X2061058Y165526D01*
X2061102Y165592D01*
X2061169Y165670D01*
X2061180Y165681D01*
X2061202Y165703D01*
X2061247Y165726D01*
X2061302Y165770D01*
X2061369Y165804D01*
X2061447Y165826D01*
X2061525Y165848D01*
X2061625Y165859D01*
X2064147D01*
X2064213Y165848D01*
D02*
G37*
G36*
X2052214D02*
X2052292Y165837D01*
X2052370Y165815D01*
X2052448Y165781D01*
X2052526Y165737D01*
X2052603Y165681D01*
X2052614Y165670D01*
X2052637Y165648D01*
X2052659Y165603D01*
X2052692Y165559D01*
X2052725Y165492D01*
X2052759Y165415D01*
X2052770Y165326D01*
X2052781Y165226D01*
Y165215D01*
Y165181D01*
X2052770Y165126D01*
X2052759Y165048D01*
X2052737Y164970D01*
X2052703Y164892D01*
X2052659Y164815D01*
X2052603Y164737D01*
X2052592Y164726D01*
X2052570Y164715D01*
X2052526Y164681D01*
X2052470Y164648D01*
X2052403Y164615D01*
X2052314Y164593D01*
X2052225Y164570D01*
X2052114Y164559D01*
X2048926D01*
Y160060D01*
X2051137D01*
X2051181Y160048D01*
X2051259Y160037D01*
X2051326Y160015D01*
X2051414Y159982D01*
X2051492Y159937D01*
X2051559Y159871D01*
X2051570Y159860D01*
X2051592Y159837D01*
X2051615Y159804D01*
X2051648Y159749D01*
X2051681Y159682D01*
X2051715Y159604D01*
X2051726Y159526D01*
X2051737Y159426D01*
Y159415D01*
Y159382D01*
X2051726Y159326D01*
X2051715Y159249D01*
X2051692Y159171D01*
X2051659Y159093D01*
X2051615Y159015D01*
X2051559Y158938D01*
X2051548Y158926D01*
X2051526Y158915D01*
X2051492Y158882D01*
X2051437Y158849D01*
X2051370Y158815D01*
X2051281Y158793D01*
X2051192Y158771D01*
X2051081Y158760D01*
X2048926D01*
Y154038D01*
X2052170D01*
X2052214Y154027D01*
X2052292Y154016D01*
X2052370Y153994D01*
X2052448Y153960D01*
X2052526Y153916D01*
X2052603Y153849D01*
X2052614Y153838D01*
X2052637Y153816D01*
X2052659Y153782D01*
X2052692Y153727D01*
X2052725Y153660D01*
X2052759Y153583D01*
X2052770Y153482D01*
X2052781Y153383D01*
Y153371D01*
Y153338D01*
X2052770Y153282D01*
X2052759Y153216D01*
X2052737Y153138D01*
X2052703Y153060D01*
X2052659Y152983D01*
X2052603Y152916D01*
X2052592Y152905D01*
X2052570Y152894D01*
X2052526Y152860D01*
X2052470Y152827D01*
X2052403Y152794D01*
X2052314Y152771D01*
X2052225Y152749D01*
X2052114Y152738D01*
X2048215D01*
X2048159Y152749D01*
X2048093Y152760D01*
X2048015Y152783D01*
X2047937Y152816D01*
X2047859Y152860D01*
X2047793Y152916D01*
X2047782Y152927D01*
X2047770Y152949D01*
X2047737Y152983D01*
X2047704Y153038D01*
X2047670Y153105D01*
X2047648Y153194D01*
X2047626Y153282D01*
X2047615Y153383D01*
Y165226D01*
Y165237D01*
Y165270D01*
X2047626Y165326D01*
X2047637Y165392D01*
X2047659Y165459D01*
X2047693Y165537D01*
X2047737Y165615D01*
X2047793Y165681D01*
X2047804Y165692D01*
X2047826Y165715D01*
X2047859Y165737D01*
X2047915Y165770D01*
X2047981Y165804D01*
X2048070Y165837D01*
X2048159Y165848D01*
X2048259Y165859D01*
X2052170D01*
X2052214Y165848D01*
D02*
G37*
G36*
X2037782D02*
X2037860Y165837D01*
X2037927Y165815D01*
X2038016Y165781D01*
X2038094Y165737D01*
X2038160Y165681D01*
X2038171Y165670D01*
X2038194Y165648D01*
X2038216Y165603D01*
X2038260Y165548D01*
X2038294Y165481D01*
X2038316Y165403D01*
X2038338Y165304D01*
X2038349Y165204D01*
Y153383D01*
Y153371D01*
Y153338D01*
X2038338Y153282D01*
X2038327Y153216D01*
X2038305Y153138D01*
X2038271Y153060D01*
X2038227Y152983D01*
X2038160Y152916D01*
X2038149Y152905D01*
X2038127Y152894D01*
X2038094Y152860D01*
X2038038Y152827D01*
X2037971Y152794D01*
X2037882Y152771D01*
X2037794Y152749D01*
X2037683Y152738D01*
X2037638D01*
X2037594Y152749D01*
X2037527Y152760D01*
X2037449Y152783D01*
X2037383Y152805D01*
X2037305Y152849D01*
X2037227Y152905D01*
X2037216Y152916D01*
X2037194Y152938D01*
X2037172Y152983D01*
X2037138Y153038D01*
X2037094Y153105D01*
X2037071Y153182D01*
X2037049Y153282D01*
X2037038Y153383D01*
Y165204D01*
Y165215D01*
Y165259D01*
X2037049Y165304D01*
X2037060Y165381D01*
X2037083Y165448D01*
X2037116Y165537D01*
X2037160Y165615D01*
X2037216Y165681D01*
X2037227Y165692D01*
X2037249Y165715D01*
X2037294Y165737D01*
X2037349Y165770D01*
X2037416Y165804D01*
X2037494Y165837D01*
X2037583Y165848D01*
X2037683Y165859D01*
X2037738D01*
X2037782Y165848D01*
D02*
G37*
G36*
X2031550D02*
X2031617Y165837D01*
X2031683Y165815D01*
X2031761Y165781D01*
X2031839Y165737D01*
X2031905Y165681D01*
X2031916Y165670D01*
X2031939Y165648D01*
X2031972Y165615D01*
X2032016Y165559D01*
X2032050Y165492D01*
X2032083Y165415D01*
X2032105Y165326D01*
X2032116Y165226D01*
Y154038D01*
X2035349D01*
X2035405Y154027D01*
X2035472Y154016D01*
X2035549Y153994D01*
X2035627Y153960D01*
X2035705Y153916D01*
X2035772Y153860D01*
X2035783Y153849D01*
X2035805Y153827D01*
X2035838Y153782D01*
X2035872Y153727D01*
X2035905Y153660D01*
X2035938Y153583D01*
X2035961Y153482D01*
X2035972Y153383D01*
Y153371D01*
Y153338D01*
X2035961Y153282D01*
X2035949Y153216D01*
X2035916Y153138D01*
X2035883Y153060D01*
X2035827Y152983D01*
X2035760Y152905D01*
X2035749Y152894D01*
X2035727Y152883D01*
X2035694Y152849D01*
X2035638Y152827D01*
X2035572Y152794D01*
X2035494Y152760D01*
X2035405Y152749D01*
X2035305Y152738D01*
X2031405D01*
X2031350Y152749D01*
X2031283Y152760D01*
X2031205Y152783D01*
X2031128Y152816D01*
X2031050Y152860D01*
X2030983Y152916D01*
X2030972Y152927D01*
X2030961Y152949D01*
X2030928Y152983D01*
X2030894Y153038D01*
X2030861Y153105D01*
X2030839Y153194D01*
X2030817Y153282D01*
X2030806Y153383D01*
Y165226D01*
Y165237D01*
Y165270D01*
X2030817Y165326D01*
X2030828Y165392D01*
X2030850Y165459D01*
X2030883Y165537D01*
X2030928Y165615D01*
X2030983Y165681D01*
X2030994Y165692D01*
X2031017Y165715D01*
X2031050Y165737D01*
X2031105Y165770D01*
X2031172Y165804D01*
X2031261Y165837D01*
X2031350Y165848D01*
X2031450Y165859D01*
X2031494D01*
X2031550Y165848D01*
D02*
G37*
G36*
X2028706D02*
X2028772Y165837D01*
X2028839Y165815D01*
X2028917Y165781D01*
X2028995Y165737D01*
X2029061Y165670D01*
X2029072Y165659D01*
X2029095Y165637D01*
X2029117Y165603D01*
X2029161Y165548D01*
X2029194Y165492D01*
X2029217Y165415D01*
X2029239Y165337D01*
X2029250Y165248D01*
Y165204D01*
Y165192D01*
Y165159D01*
X2029239Y165115D01*
X2029228Y165048D01*
X2029206Y164981D01*
X2029172Y164904D01*
X2029128Y164826D01*
X2029061Y164748D01*
X2029050Y164737D01*
X2029028Y164715D01*
X2028995Y164692D01*
X2028939Y164659D01*
X2028872Y164615D01*
X2028795Y164593D01*
X2028717Y164570D01*
X2028617Y164559D01*
X2026795D01*
Y153383D01*
Y153371D01*
Y153338D01*
X2026784Y153294D01*
X2026772Y153227D01*
X2026750Y153149D01*
X2026706Y153083D01*
X2026661Y153005D01*
X2026595Y152927D01*
X2026584Y152916D01*
X2026561Y152894D01*
X2026517Y152872D01*
X2026473Y152838D01*
X2026406Y152794D01*
X2026328Y152771D01*
X2026239Y152749D01*
X2026150Y152738D01*
X2026106D01*
X2026050Y152749D01*
X2025995Y152760D01*
X2025917Y152783D01*
X2025839Y152816D01*
X2025761Y152860D01*
X2025684Y152927D01*
X2025673Y152938D01*
X2025650Y152960D01*
X2025628Y153005D01*
X2025595Y153060D01*
X2025550Y153127D01*
X2025528Y153205D01*
X2025506Y153282D01*
X2025495Y153383D01*
Y164559D01*
X2023628D01*
X2023584Y164570D01*
X2023517Y164581D01*
X2023451Y164604D01*
X2023373Y164637D01*
X2023295Y164681D01*
X2023228Y164748D01*
X2023217Y164759D01*
X2023206Y164781D01*
X2023173Y164826D01*
X2023140Y164881D01*
X2023106Y164948D01*
X2023084Y165026D01*
X2023062Y165115D01*
X2023051Y165204D01*
Y165248D01*
Y165259D01*
Y165293D01*
X2023062Y165337D01*
X2023073Y165403D01*
X2023095Y165470D01*
X2023129Y165537D01*
X2023173Y165615D01*
X2023228Y165681D01*
X2023240Y165692D01*
X2023262Y165715D01*
X2023295Y165737D01*
X2023351Y165770D01*
X2023417Y165804D01*
X2023495Y165837D01*
X2023573Y165848D01*
X2023673Y165859D01*
X2028661D01*
X2028706Y165848D01*
D02*
G37*
G36*
X2010863D02*
X2011019Y165837D01*
X2011185Y165804D01*
X2011374Y165770D01*
X2011574Y165715D01*
X2011763Y165637D01*
X2011774D01*
X2011796Y165626D01*
X2011830Y165615D01*
X2011874Y165592D01*
X2011985Y165526D01*
X2012141Y165448D01*
X2012307Y165348D01*
X2012485Y165237D01*
X2012674Y165104D01*
X2012841Y164948D01*
X2012863Y164926D01*
X2012907Y164870D01*
X2012985Y164781D01*
X2013085Y164659D01*
X2013185Y164504D01*
X2013296Y164326D01*
X2013418Y164104D01*
X2013518Y163870D01*
X2013529Y163848D01*
X2013552Y163781D01*
X2013585Y163681D01*
X2013629Y163559D01*
X2013674Y163393D01*
X2013707Y163204D01*
X2013729Y162993D01*
X2013741Y162770D01*
Y155838D01*
Y155827D01*
Y155805D01*
Y155771D01*
Y155727D01*
X2013729Y155605D01*
X2013707Y155449D01*
X2013685Y155260D01*
X2013641Y155060D01*
X2013585Y154849D01*
X2013507Y154638D01*
Y154627D01*
X2013496Y154616D01*
X2013485Y154582D01*
X2013463Y154538D01*
X2013407Y154438D01*
X2013329Y154294D01*
X2013229Y154138D01*
X2013118Y153982D01*
X2012985Y153805D01*
X2012841Y153649D01*
X2012818Y153627D01*
X2012763Y153583D01*
X2012674Y153505D01*
X2012541Y153405D01*
X2012385Y153294D01*
X2012196Y153182D01*
X2011985Y153071D01*
X2011752Y152971D01*
X2011730Y152960D01*
X2011663Y152938D01*
X2011563Y152894D01*
X2011430Y152860D01*
X2011263Y152816D01*
X2011074Y152771D01*
X2010863Y152749D01*
X2010641Y152738D01*
X2010530D01*
X2010407Y152749D01*
X2010241Y152771D01*
X2010063Y152794D01*
X2009863Y152838D01*
X2009652Y152905D01*
X2009441Y152983D01*
X2009430D01*
X2009419Y152994D01*
X2009385Y153005D01*
X2009341Y153027D01*
X2009241Y153083D01*
X2009097Y153149D01*
X2008941Y153249D01*
X2008785Y153360D01*
X2008608Y153494D01*
X2008452Y153649D01*
X2008430Y153671D01*
X2008385Y153727D01*
X2008308Y153805D01*
X2008208Y153927D01*
X2008097Y154071D01*
X2007985Y154238D01*
X2007886Y154427D01*
X2007785Y154638D01*
Y154649D01*
X2007774Y154660D01*
X2007763Y154693D01*
X2007752Y154738D01*
X2007708Y154849D01*
X2007663Y154993D01*
X2007619Y155171D01*
X2007574Y155371D01*
X2007552Y155593D01*
X2007541Y155838D01*
Y162770D01*
Y162782D01*
Y162804D01*
Y162837D01*
Y162882D01*
X2007552Y162993D01*
X2007574Y163159D01*
X2007608Y163337D01*
X2007652Y163537D01*
X2007708Y163748D01*
X2007797Y163970D01*
Y163981D01*
X2007808Y163993D01*
X2007819Y164026D01*
X2007841Y164070D01*
X2007886Y164170D01*
X2007963Y164304D01*
X2008052Y164459D01*
X2008163Y164626D01*
X2008297Y164793D01*
X2008452Y164948D01*
X2008474Y164970D01*
X2008519Y165015D01*
X2008608Y165093D01*
X2008730Y165192D01*
X2008863Y165293D01*
X2009030Y165403D01*
X2009219Y165515D01*
X2009430Y165615D01*
X2009441D01*
X2009452Y165626D01*
X2009485Y165637D01*
X2009530Y165648D01*
X2009641Y165692D01*
X2009785Y165737D01*
X2009974Y165781D01*
X2010174Y165826D01*
X2010396Y165848D01*
X2010641Y165859D01*
X2010741D01*
X2010863Y165848D01*
D02*
G37*
G36*
X1997553D02*
X1997642D01*
X1997753Y165837D01*
X1997886Y165815D01*
X1998031Y165781D01*
X1998186Y165748D01*
X1998342Y165703D01*
X1998520Y165637D01*
X1998698Y165570D01*
X1998886Y165481D01*
X1999064Y165381D01*
X1999253Y165259D01*
X1999431Y165115D01*
X1999598Y164959D01*
X1999609Y164948D01*
X1999642Y164915D01*
X1999686Y164870D01*
X1999742Y164804D01*
X1999809Y164715D01*
X1999886Y164615D01*
X1999964Y164492D01*
X2000053Y164359D01*
X2000131Y164204D01*
X2000208Y164048D01*
X2000286Y163870D01*
X2000353Y163670D01*
X2000420Y163470D01*
X2000464Y163259D01*
X2000486Y163037D01*
X2000497Y162804D01*
Y161815D01*
Y161793D01*
Y161748D01*
X2000486Y161671D01*
X2000475Y161559D01*
X2000453Y161437D01*
X2000431Y161282D01*
X2000386Y161115D01*
X2000331Y160937D01*
X2000253Y160737D01*
X2000164Y160537D01*
X2000053Y160326D01*
X1999931Y160115D01*
X1999775Y159904D01*
X1999586Y159693D01*
X1999386Y159482D01*
X1999303Y159414D01*
X1999364Y159360D01*
X1999464Y159260D01*
X1999575Y159137D01*
X1999697Y158993D01*
X1999831Y158837D01*
X1999953Y158671D01*
X2000075Y158471D01*
X2000186Y158271D01*
X2000286Y158049D01*
X2000375Y157815D01*
X2000442Y157560D01*
X2000486Y157304D01*
X2000497Y157027D01*
Y155793D01*
Y155782D01*
Y155738D01*
X2000486Y155671D01*
Y155582D01*
X2000475Y155471D01*
X2000453Y155349D01*
X2000420Y155205D01*
X2000386Y155049D01*
X2000342Y154882D01*
X2000275Y154705D01*
X2000208Y154527D01*
X2000120Y154349D01*
X2000020Y154160D01*
X1999897Y153982D01*
X1999753Y153805D01*
X1999598Y153627D01*
X1999586Y153616D01*
X1999553Y153594D01*
X1999509Y153549D01*
X1999442Y153494D01*
X1999353Y153416D01*
X1999253Y153349D01*
X1999131Y153260D01*
X1998997Y153182D01*
X1998842Y153105D01*
X1998675Y153016D01*
X1998498Y152949D01*
X1998309Y152883D01*
X1998109Y152816D01*
X1997886Y152771D01*
X1997664Y152749D01*
X1997431Y152738D01*
X1994920D01*
X1994865Y152749D01*
X1994798Y152760D01*
X1994720Y152783D01*
X1994642Y152816D01*
X1994565Y152860D01*
X1994498Y152927D01*
X1994487Y152938D01*
X1994476Y152960D01*
X1994442Y153005D01*
X1994409Y153060D01*
X1994376Y153127D01*
X1994354Y153205D01*
X1994331Y153282D01*
X1994320Y153383D01*
Y165226D01*
Y165237D01*
Y165270D01*
X1994331Y165315D01*
X1994342Y165381D01*
X1994365Y165448D01*
X1994398Y165526D01*
X1994442Y165592D01*
X1994509Y165670D01*
X1994520Y165681D01*
X1994542Y165703D01*
X1994587Y165726D01*
X1994642Y165770D01*
X1994709Y165804D01*
X1994787Y165826D01*
X1994865Y165848D01*
X1994965Y165859D01*
X1997487D01*
X1997553Y165848D01*
D02*
G37*
G36*
X1982421D02*
X1982510D01*
X1982621Y165837D01*
X1982744Y165815D01*
X1982888Y165781D01*
X1983044Y165748D01*
X1983210Y165703D01*
X1983377Y165637D01*
X1983566Y165570D01*
X1983743Y165481D01*
X1983921Y165381D01*
X1984110Y165259D01*
X1984288Y165115D01*
X1984455Y164959D01*
X1984466Y164948D01*
X1984499Y164915D01*
X1984543Y164870D01*
X1984599Y164804D01*
X1984666Y164715D01*
X1984743Y164615D01*
X1984821Y164492D01*
X1984910Y164359D01*
X1984988Y164204D01*
X1985066Y164048D01*
X1985143Y163870D01*
X1985210Y163670D01*
X1985277Y163470D01*
X1985321Y163259D01*
X1985343Y163037D01*
X1985354Y162804D01*
Y161582D01*
Y161571D01*
Y161526D01*
X1985343Y161460D01*
Y161371D01*
X1985332Y161259D01*
X1985310Y161137D01*
X1985277Y160993D01*
X1985243Y160837D01*
X1985199Y160671D01*
X1985132Y160504D01*
X1985066Y160315D01*
X1984977Y160137D01*
X1984877Y159960D01*
X1984755Y159771D01*
X1984610Y159593D01*
X1984455Y159426D01*
X1984443Y159415D01*
X1984410Y159393D01*
X1984366Y159349D01*
X1984299Y159293D01*
X1984210Y159215D01*
X1984110Y159149D01*
X1983988Y159060D01*
X1983855Y158982D01*
X1983699Y158904D01*
X1983544Y158815D01*
X1983366Y158749D01*
X1983166Y158682D01*
X1982966Y158615D01*
X1982755Y158571D01*
X1982533Y158549D01*
X1982299Y158538D01*
X1980511D01*
Y153383D01*
Y153371D01*
Y153338D01*
X1980499Y153294D01*
X1980488Y153227D01*
X1980466Y153149D01*
X1980422Y153083D01*
X1980377Y153005D01*
X1980310Y152927D01*
X1980299Y152916D01*
X1980277Y152894D01*
X1980233Y152872D01*
X1980177Y152838D01*
X1980111Y152794D01*
X1980033Y152771D01*
X1979944Y152749D01*
X1979844Y152738D01*
X1979799D01*
X1979755Y152749D01*
X1979688Y152760D01*
X1979611Y152783D01*
X1979544Y152816D01*
X1979466Y152860D01*
X1979388Y152927D01*
X1979377Y152938D01*
X1979355Y152960D01*
X1979333Y153005D01*
X1979300Y153060D01*
X1979255Y153127D01*
X1979233Y153205D01*
X1979211Y153282D01*
X1979199Y153383D01*
Y165226D01*
Y165237D01*
Y165270D01*
X1979211Y165315D01*
X1979222Y165370D01*
X1979244Y165437D01*
X1979277Y165515D01*
X1979322Y165581D01*
X1979377Y165659D01*
X1979388Y165670D01*
X1979411Y165692D01*
X1979444Y165726D01*
X1979499Y165759D01*
X1979566Y165792D01*
X1979655Y165826D01*
X1979744Y165848D01*
X1979844Y165859D01*
X1982355D01*
X1982421Y165848D01*
D02*
G37*
G36*
X2059447Y166548D02*
X2059525Y166526D01*
X2059536D01*
X2059569Y166503D01*
X2059614Y166481D01*
X2059669Y166448D01*
X2059736Y166403D01*
X2059803Y166348D01*
X2059858Y166270D01*
X2059903Y166192D01*
Y166181D01*
X2059914Y166148D01*
X2059925Y166103D01*
X2059936Y166048D01*
X2059947Y165892D01*
X2059936Y165815D01*
X2059914Y165726D01*
X2054947Y152083D01*
Y152072D01*
X2054925Y152038D01*
X2054903Y151994D01*
X2054859Y151927D01*
X2054814Y151860D01*
X2054748Y151794D01*
X2054681Y151727D01*
X2054592Y151672D01*
X2054581Y151661D01*
X2054525Y151649D01*
X2054459Y151638D01*
X2054359Y151627D01*
X2054336D01*
X2054281Y151638D01*
X2054203Y151649D01*
X2054114Y151672D01*
X2054103D01*
X2054081Y151694D01*
X2054037Y151716D01*
X2053981Y151760D01*
X2053914Y151805D01*
X2053848Y151872D01*
X2053792Y151949D01*
X2053725Y152038D01*
Y152049D01*
X2053714Y152072D01*
X2053703Y152116D01*
X2053692Y152172D01*
Y152238D01*
Y152316D01*
Y152394D01*
X2053714Y152483D01*
X2058680Y166137D01*
X2058692Y166148D01*
X2058703Y166181D01*
X2058725Y166226D01*
X2058769Y166270D01*
X2058814Y166337D01*
X2058880Y166392D01*
X2058958Y166448D01*
X2059047Y166503D01*
X2059058D01*
X2059069Y166515D01*
X2059125Y166537D01*
X2059203Y166559D01*
X2059303Y166570D01*
X2059380D01*
X2059447Y166548D01*
D02*
G37*
G36*
X1977633Y167492D02*
X1977689Y167481D01*
X1977844Y167437D01*
X1977922Y167403D01*
X1978000Y167348D01*
X1978011Y167337D01*
X1978033Y167315D01*
X1978066Y167281D01*
X1978100Y167237D01*
X1978144Y167170D01*
X1978177Y167103D01*
X1978222Y167015D01*
X1978244Y166926D01*
Y166914D01*
Y166881D01*
Y166837D01*
X1978233Y166770D01*
X1978211Y166692D01*
X1978189Y166614D01*
X1978144Y166537D01*
X1978089Y166448D01*
X1978077Y166437D01*
X1978066Y166415D01*
X1978033Y166370D01*
X1977988Y166315D01*
X1977933Y166237D01*
X1977866Y166148D01*
X1977800Y166048D01*
X1977722Y165937D01*
X1977555Y165692D01*
X1977378Y165403D01*
X1977189Y165104D01*
X1977011Y164781D01*
Y164770D01*
X1976989Y164748D01*
X1976966Y164692D01*
X1976933Y164626D01*
X1976889Y164548D01*
X1976844Y164459D01*
X1976789Y164348D01*
X1976733Y164226D01*
X1976666Y164093D01*
X1976611Y163948D01*
X1976466Y163637D01*
X1976322Y163293D01*
X1976189Y162926D01*
X1976178Y162904D01*
X1976167Y162848D01*
X1976133Y162748D01*
X1976100Y162615D01*
X1976055Y162459D01*
X1976000Y162259D01*
X1975944Y162037D01*
X1975889Y161793D01*
X1975833Y161526D01*
X1975778Y161237D01*
X1975733Y160926D01*
X1975678Y160604D01*
X1975644Y160271D01*
X1975611Y159926D01*
X1975600Y159571D01*
X1975589Y159204D01*
Y159182D01*
Y159115D01*
Y159015D01*
X1975600Y158871D01*
X1975611Y158693D01*
X1975622Y158493D01*
X1975644Y158260D01*
X1975666Y158004D01*
X1975700Y157738D01*
X1975733Y157438D01*
X1975789Y157138D01*
X1975844Y156816D01*
X1975911Y156493D01*
X1975989Y156160D01*
X1976089Y155838D01*
X1976189Y155505D01*
Y155493D01*
X1976200Y155460D01*
X1976222Y155404D01*
X1976255Y155338D01*
X1976289Y155249D01*
X1976322Y155138D01*
X1976366Y155027D01*
X1976422Y154894D01*
X1976533Y154616D01*
X1976655Y154316D01*
X1976800Y154016D01*
X1976944Y153716D01*
X1976955Y153705D01*
X1976966Y153671D01*
X1977000Y153616D01*
X1977044Y153549D01*
X1977089Y153471D01*
X1977144Y153371D01*
X1977211Y153249D01*
X1977289Y153127D01*
X1977455Y152860D01*
X1977655Y152571D01*
X1977855Y152271D01*
X1978077Y151972D01*
X1978089Y151960D01*
X1978111Y151938D01*
X1978133Y151894D01*
X1978166Y151827D01*
X1978200Y151760D01*
X1978233Y151672D01*
X1978244Y151583D01*
Y151483D01*
Y151472D01*
X1978233Y151438D01*
X1978222Y151394D01*
X1978200Y151327D01*
X1978166Y151260D01*
X1978122Y151194D01*
X1978066Y151127D01*
X1977988Y151060D01*
X1977977Y151049D01*
X1977955Y151038D01*
X1977911Y151016D01*
X1977855Y150994D01*
X1977789Y150961D01*
X1977722Y150938D01*
X1977633Y150927D01*
X1977544Y150916D01*
X1977477D01*
X1977444Y150927D01*
X1977400Y150938D01*
X1977333Y150961D01*
X1977266Y150983D01*
X1977189Y151027D01*
X1977111Y151083D01*
X1977044Y151161D01*
X1977033Y151183D01*
X1976989Y151238D01*
X1976911Y151338D01*
X1976822Y151461D01*
X1976700Y151627D01*
X1976578Y151816D01*
X1976433Y152038D01*
X1976278Y152294D01*
X1976111Y152560D01*
X1975944Y152849D01*
X1975778Y153160D01*
X1975611Y153494D01*
X1975444Y153838D01*
X1975289Y154205D01*
X1975144Y154571D01*
X1975011Y154949D01*
Y154960D01*
X1975000Y154971D01*
X1974989Y155005D01*
X1974978Y155038D01*
X1974944Y155160D01*
X1974900Y155305D01*
X1974844Y155493D01*
X1974789Y155727D01*
X1974722Y155982D01*
X1974656Y156260D01*
X1974589Y156571D01*
X1974522Y156904D01*
X1974467Y157249D01*
X1974411Y157626D01*
X1974367Y158004D01*
X1974333Y158393D01*
X1974311Y158793D01*
X1974300Y159204D01*
Y159215D01*
Y159226D01*
Y159260D01*
Y159304D01*
Y159360D01*
Y159415D01*
X1974311Y159582D01*
X1974322Y159771D01*
X1974333Y160004D01*
X1974356Y160271D01*
X1974389Y160560D01*
X1974433Y160871D01*
X1974478Y161215D01*
X1974533Y161559D01*
X1974600Y161937D01*
X1974689Y162315D01*
X1974789Y162704D01*
X1974900Y163093D01*
X1975022Y163481D01*
Y163493D01*
X1975033Y163526D01*
X1975056Y163582D01*
X1975078Y163648D01*
X1975111Y163737D01*
X1975155Y163848D01*
X1975200Y163970D01*
X1975256Y164104D01*
X1975311Y164248D01*
X1975378Y164404D01*
X1975533Y164748D01*
X1975700Y165115D01*
X1975889Y165492D01*
X1975900Y165504D01*
X1975911Y165537D01*
X1975933Y165581D01*
X1975978Y165637D01*
X1976022Y165726D01*
X1976078Y165815D01*
X1976144Y165915D01*
X1976211Y166037D01*
X1976389Y166304D01*
X1976578Y166592D01*
X1976811Y166914D01*
X1977055Y167237D01*
X1977066Y167248D01*
X1977089Y167281D01*
X1977122Y167315D01*
X1977166Y167359D01*
X1977233Y167414D01*
X1977311Y167448D01*
X1977411Y167481D01*
X1977511Y167503D01*
X1977589D01*
X1977633Y167492D01*
D02*
G37*
G36*
X2124141Y167459D02*
X2124185D01*
X2124218Y167448D01*
X2124274Y167426D01*
X2124341Y167392D01*
X2124407Y167348D01*
X2124474Y167292D01*
X2124541Y167203D01*
X2124552Y167181D01*
X2124607Y167126D01*
X2124674Y167026D01*
X2124763Y166892D01*
X2124885Y166726D01*
X2125007Y166537D01*
X2125152Y166315D01*
X2125307Y166070D01*
X2125474Y165804D01*
X2125629Y165515D01*
X2125796Y165215D01*
X2125963Y164892D01*
X2126118Y164559D01*
X2126263Y164215D01*
X2126396Y163870D01*
X2126518Y163515D01*
Y163504D01*
X2126529Y163493D01*
X2126540Y163459D01*
X2126551Y163415D01*
X2126574Y163359D01*
X2126596Y163304D01*
X2126651Y163137D01*
X2126707Y162948D01*
X2126774Y162715D01*
X2126851Y162448D01*
X2126929Y162159D01*
X2127007Y161837D01*
X2127085Y161504D01*
X2127151Y161137D01*
X2127207Y160760D01*
X2127262Y160371D01*
X2127307Y159971D01*
X2127329Y159571D01*
X2127340Y159160D01*
Y159149D01*
Y159137D01*
Y159104D01*
Y159060D01*
Y158949D01*
X2127329Y158793D01*
X2127318Y158593D01*
X2127307Y158371D01*
X2127285Y158104D01*
X2127251Y157826D01*
X2127218Y157516D01*
X2127163Y157182D01*
X2127107Y156827D01*
X2127040Y156471D01*
X2126962Y156093D01*
X2126863Y155716D01*
X2126751Y155338D01*
X2126629Y154949D01*
Y154938D01*
X2126618Y154927D01*
X2126607Y154894D01*
X2126596Y154860D01*
X2126551Y154749D01*
X2126496Y154594D01*
X2126418Y154405D01*
X2126329Y154194D01*
X2126218Y153949D01*
X2126096Y153682D01*
X2125963Y153394D01*
X2125807Y153094D01*
X2125629Y152771D01*
X2125452Y152449D01*
X2125252Y152116D01*
X2125029Y151783D01*
X2124796Y151449D01*
X2124552Y151127D01*
X2124541Y151116D01*
X2124518Y151094D01*
X2124485Y151060D01*
X2124429Y151016D01*
X2124374Y150972D01*
X2124296Y150927D01*
X2124218Y150894D01*
X2124129Y150872D01*
X2124007D01*
X2123963Y150883D01*
X2123907Y150894D01*
X2123774Y150938D01*
X2123707Y150972D01*
X2123630Y151016D01*
X2123618Y151027D01*
X2123596Y151049D01*
X2123563Y151083D01*
X2123518Y151138D01*
X2123474Y151194D01*
X2123441Y151272D01*
X2123407Y151349D01*
X2123385Y151449D01*
Y151461D01*
Y151494D01*
Y151549D01*
X2123396Y151605D01*
X2123429Y151760D01*
X2123463Y151849D01*
X2123507Y151927D01*
X2123518Y151938D01*
X2123541Y151960D01*
X2123574Y152005D01*
X2123618Y152060D01*
X2123674Y152138D01*
X2123741Y152227D01*
X2123807Y152327D01*
X2123896Y152438D01*
X2124074Y152694D01*
X2124263Y152983D01*
X2124463Y153305D01*
X2124663Y153649D01*
Y153660D01*
X2124685Y153682D01*
X2124707Y153727D01*
X2124729Y153782D01*
X2124763Y153860D01*
X2124807Y153949D01*
X2124852Y154049D01*
X2124907Y154160D01*
X2124963Y154282D01*
X2125029Y154416D01*
X2125152Y154716D01*
X2125296Y155049D01*
X2125429Y155404D01*
X2125440Y155427D01*
X2125452Y155482D01*
X2125485Y155582D01*
X2125518Y155716D01*
X2125574Y155882D01*
X2125618Y156082D01*
X2125674Y156305D01*
X2125729Y156549D01*
X2125785Y156827D01*
X2125840Y157115D01*
X2125896Y157427D01*
X2125940Y157749D01*
X2125974Y158093D01*
X2126007Y158438D01*
X2126018Y158793D01*
X2126029Y159160D01*
Y159171D01*
Y159182D01*
Y159249D01*
Y159349D01*
X2126018Y159493D01*
X2126007Y159671D01*
X2125996Y159871D01*
X2125985Y160104D01*
X2125952Y160360D01*
X2125918Y160637D01*
X2125885Y160926D01*
X2125829Y161237D01*
X2125774Y161559D01*
X2125707Y161893D01*
X2125629Y162237D01*
X2125540Y162571D01*
X2125429Y162915D01*
Y162926D01*
X2125418Y162959D01*
X2125396Y163015D01*
X2125363Y163082D01*
X2125329Y163170D01*
X2125285Y163270D01*
X2125241Y163382D01*
X2125196Y163515D01*
X2125074Y163793D01*
X2124929Y164104D01*
X2124785Y164426D01*
X2124618Y164748D01*
Y164759D01*
X2124596Y164793D01*
X2124574Y164837D01*
X2124541Y164892D01*
X2124496Y164981D01*
X2124441Y165070D01*
X2124374Y165170D01*
X2124307Y165281D01*
X2124141Y165537D01*
X2123952Y165826D01*
X2123741Y166115D01*
X2123507Y166415D01*
Y166426D01*
X2123485Y166459D01*
X2123463Y166503D01*
X2123441Y166559D01*
X2123418Y166626D01*
X2123396Y166715D01*
X2123385Y166803D01*
Y166892D01*
Y166903D01*
X2123396Y166937D01*
X2123407Y166992D01*
X2123429Y167048D01*
X2123463Y167126D01*
X2123507Y167192D01*
X2123563Y167259D01*
X2123630Y167326D01*
X2123641Y167337D01*
X2123663Y167348D01*
X2123707Y167370D01*
X2123763Y167403D01*
X2123829Y167426D01*
X2123907Y167448D01*
X2123985Y167459D01*
X2124085Y167470D01*
X2124141Y167459D01*
D02*
G37*
%LPC*%
G36*
X1873600Y175675D02*
X1873325D01*
X1872775Y175650D01*
X1872525Y175625D01*
X1872300Y175600D01*
X1872100Y175550D01*
X1871950Y175525D01*
X1871850Y175500D01*
X1871825D01*
X1871275Y175350D01*
X1870775Y175150D01*
X1870325Y174950D01*
X1869925Y174725D01*
X1869600Y174525D01*
X1869350Y174375D01*
X1869275Y174325D01*
X1869200Y174275D01*
X1869175Y174225D01*
X1869150D01*
X1868725Y173875D01*
X1868350Y173500D01*
X1868025Y173125D01*
X1867750Y172775D01*
X1867525Y172450D01*
X1867350Y172225D01*
X1867300Y172125D01*
X1867250Y172050D01*
X1867225Y172025D01*
Y172000D01*
X1866975Y171500D01*
X1866775Y171000D01*
X1866625Y170525D01*
X1866525Y170100D01*
X1866475Y169725D01*
X1866450Y169575D01*
X1866425Y169425D01*
Y169325D01*
X1866400Y169250D01*
Y169200D01*
Y169175D01*
X1866375Y168625D01*
X1866400Y168075D01*
X1866475Y167575D01*
X1866550Y167100D01*
X1866650Y166725D01*
X1866700Y166550D01*
X1866750Y166425D01*
X1866775Y166300D01*
X1866800Y166225D01*
X1866825Y166175D01*
Y166150D01*
X1867025Y165675D01*
X1867300Y165225D01*
X1867600Y164800D01*
X1867900Y164425D01*
X1868175Y164125D01*
X1868400Y163875D01*
X1868500Y163800D01*
X1868575Y163725D01*
X1868600Y163700D01*
X1868625Y163675D01*
X1875650Y156325D01*
X1875875Y156050D01*
X1876075Y155775D01*
X1876225Y155525D01*
X1876375Y155275D01*
X1876475Y155075D01*
X1876550Y154900D01*
X1876600Y154800D01*
X1876625Y154750D01*
X1876725Y154425D01*
X1876800Y154125D01*
X1876850Y153825D01*
X1876875Y153550D01*
Y153325D01*
Y153150D01*
X1876850Y153050D01*
Y153000D01*
X1876800Y152650D01*
X1876725Y152300D01*
X1876525Y151700D01*
X1876250Y151150D01*
X1875950Y150700D01*
X1875675Y150350D01*
X1875525Y150200D01*
X1875425Y150100D01*
X1875325Y150000D01*
X1875250Y149925D01*
X1875200Y149900D01*
X1875175Y149875D01*
X1874725Y149600D01*
X1874275Y149375D01*
X1873850Y149225D01*
X1873475Y149125D01*
X1873150Y149075D01*
X1872875Y149050D01*
X1872775Y149025D01*
X1872650D01*
X1872350Y149050D01*
X1872050Y149075D01*
X1871925Y149100D01*
X1871825D01*
X1871750Y149125D01*
X1871725D01*
X1871400Y149200D01*
X1871100Y149300D01*
X1870825Y149425D01*
X1870575Y149525D01*
X1870375Y149650D01*
X1870200Y149750D01*
X1870100Y149800D01*
X1870075Y149825D01*
X1869825Y150025D01*
X1869625Y150225D01*
X1869450Y150425D01*
X1869275Y150625D01*
X1869175Y150775D01*
X1869075Y150900D01*
X1869025Y151000D01*
X1869000Y151025D01*
X1868825Y151275D01*
X1868675Y151450D01*
X1868550Y151550D01*
X1868525Y151575D01*
X1868500D01*
X1868375Y151650D01*
X1868250Y151700D01*
X1867950Y151825D01*
X1867825Y151850D01*
X1867700Y151875D01*
X1867625Y151900D01*
X1867600D01*
X1867325Y151850D01*
X1867100Y151775D01*
X1866925Y151700D01*
X1866900Y151650D01*
X1866875D01*
X1866725Y151550D01*
X1866575Y151425D01*
X1866475Y151300D01*
X1866400Y151175D01*
X1866350Y151075D01*
X1866300Y151000D01*
X1866275Y150950D01*
Y150925D01*
X1866225Y150675D01*
X1866200Y150425D01*
X1866225Y150225D01*
Y150075D01*
X1866275Y149925D01*
X1866300Y149825D01*
X1866325Y149775D01*
Y149750D01*
X1866650Y149250D01*
X1866975Y148800D01*
X1867325Y148425D01*
X1867625Y148100D01*
X1867900Y147825D01*
X1868125Y147625D01*
X1868275Y147525D01*
X1868300Y147475D01*
X1868325D01*
X1868825Y147175D01*
X1869325Y146900D01*
X1869775Y146700D01*
X1870200Y146525D01*
X1870550Y146400D01*
X1870825Y146325D01*
X1870925Y146275D01*
X1871000D01*
X1871050Y146250D01*
X1871075D01*
X1871650Y146175D01*
X1871900Y146125D01*
X1872125D01*
X1872300Y146100D01*
X1872575D01*
X1873150Y146125D01*
X1873425Y146150D01*
X1873650Y146175D01*
X1873850Y146200D01*
X1874000Y146225D01*
X1874100Y146250D01*
X1874125D01*
X1874725Y146425D01*
X1875250Y146625D01*
X1875725Y146850D01*
X1876150Y147075D01*
X1876475Y147250D01*
X1876750Y147425D01*
X1876825Y147500D01*
X1876900Y147525D01*
X1876925Y147575D01*
X1876950D01*
X1877375Y147950D01*
X1877775Y148325D01*
X1878125Y148700D01*
X1878400Y149050D01*
X1878625Y149375D01*
X1878800Y149625D01*
X1878850Y149725D01*
X1878900Y149800D01*
X1878925Y149825D01*
Y149850D01*
X1879175Y150350D01*
X1879375Y150875D01*
X1879525Y151350D01*
X1879650Y151775D01*
X1879725Y152150D01*
X1879750Y152300D01*
X1879775Y152450D01*
Y152550D01*
X1879800Y152625D01*
Y153300D01*
X1879775Y153875D01*
X1879700Y154375D01*
X1879625Y154825D01*
X1879525Y155225D01*
X1879500Y155375D01*
X1879450Y155500D01*
X1879425Y155600D01*
X1879400Y155675D01*
X1879375Y155725D01*
Y155750D01*
X1879150Y156275D01*
X1878900Y156750D01*
X1878650Y157175D01*
X1878375Y157550D01*
X1878150Y157850D01*
X1877950Y158075D01*
X1877825Y158225D01*
X1877800Y158275D01*
X1877775D01*
X1870475Y165850D01*
X1870250Y166100D01*
X1870075Y166375D01*
X1869900Y166650D01*
X1869775Y166925D01*
X1869575Y167425D01*
X1869425Y167925D01*
X1869350Y168325D01*
Y168500D01*
X1869325Y168650D01*
Y168775D01*
Y168875D01*
Y168925D01*
Y168950D01*
X1869375Y169300D01*
X1869425Y169625D01*
X1869625Y170200D01*
X1869900Y170700D01*
X1870175Y171125D01*
X1870450Y171450D01*
X1870675Y171675D01*
X1870775Y171775D01*
X1870850Y171825D01*
X1870875Y171875D01*
X1870900D01*
X1871325Y172150D01*
X1871750Y172350D01*
X1872150Y172500D01*
X1872500Y172600D01*
X1872825Y172650D01*
X1873075Y172700D01*
X1873575D01*
X1873875Y172675D01*
X1874000Y172650D01*
X1874100D01*
X1874175Y172625D01*
X1874200D01*
X1874525Y172550D01*
X1874800Y172450D01*
X1875350Y172175D01*
X1875800Y171875D01*
X1876150Y171550D01*
X1876450Y171250D01*
X1876650Y171000D01*
X1876725Y170925D01*
X1876775Y170850D01*
X1876825Y170800D01*
Y170775D01*
X1876950Y170575D01*
X1877100Y170400D01*
X1877250Y170250D01*
X1877400Y170150D01*
X1877550Y170075D01*
X1877650Y170025D01*
X1877725Y169975D01*
X1877750D01*
X1877900Y169950D01*
X1878150D01*
X1878400Y169975D01*
X1878600Y170025D01*
X1878725Y170050D01*
X1878775Y170075D01*
X1879000Y170225D01*
X1879175Y170400D01*
X1879300Y170550D01*
X1879400Y170725D01*
X1879475Y170850D01*
X1879525Y170950D01*
X1879550Y171025D01*
Y171050D01*
X1879575Y171275D01*
X1879600Y171475D01*
X1879575Y171650D01*
X1879550Y171800D01*
X1879525Y171900D01*
X1879475Y172000D01*
X1879450Y172050D01*
Y172075D01*
X1879125Y172550D01*
X1878825Y172975D01*
X1878500Y173300D01*
X1878225Y173575D01*
X1877975Y173750D01*
X1877800Y173900D01*
X1877675Y173975D01*
X1877625Y174000D01*
X1877100Y174400D01*
X1876600Y174725D01*
X1876125Y174975D01*
X1875700Y175175D01*
X1875350Y175325D01*
X1875075Y175400D01*
X1874975Y175450D01*
X1874900D01*
X1874850Y175475D01*
X1874825D01*
X1874250Y175600D01*
X1874000Y175625D01*
X1873775Y175650D01*
X1873600Y175675D01*
D02*
G37*
G36*
X1895850Y175625D02*
X1895750D01*
X1895525Y175600D01*
X1895325Y175575D01*
X1895150Y175500D01*
X1895000Y175425D01*
X1894875Y175350D01*
X1894800Y175300D01*
X1894750Y175250D01*
X1894725Y175225D01*
X1894575Y175075D01*
X1894475Y174900D01*
X1894375Y174725D01*
X1894325Y174575D01*
X1894300Y174425D01*
X1894275Y174300D01*
Y174225D01*
Y174200D01*
Y162575D01*
X1886225D01*
Y174200D01*
X1886200Y174425D01*
X1886150Y174625D01*
X1886100Y174800D01*
X1886025Y174950D01*
X1885925Y175050D01*
X1885875Y175150D01*
X1885825Y175200D01*
X1885800Y175225D01*
X1885650Y175350D01*
X1885475Y175450D01*
X1885275Y175525D01*
X1885125Y175575D01*
X1884950Y175600D01*
X1884850Y175625D01*
X1884725D01*
X1884500Y175600D01*
X1884300Y175575D01*
X1884125Y175500D01*
X1883975Y175425D01*
X1883850Y175350D01*
X1883750Y175300D01*
X1883700Y175250D01*
X1883675Y175225D01*
X1883550Y175075D01*
X1883450Y174900D01*
X1883375Y174725D01*
X1883325Y174575D01*
X1883300Y174425D01*
X1883275Y174300D01*
Y147550D01*
X1883300Y147325D01*
X1883350Y147100D01*
X1883400Y146925D01*
X1883500Y146775D01*
X1883575Y146650D01*
X1883625Y146550D01*
X1883675Y146500D01*
X1883700Y146475D01*
X1883875Y146350D01*
X1884050Y146250D01*
X1884200Y146200D01*
X1884375Y146150D01*
X1884525Y146125D01*
X1884625Y146100D01*
X1884725D01*
X1884975Y146125D01*
X1885175Y146175D01*
X1885375Y146225D01*
X1885525Y146300D01*
X1885650Y146375D01*
X1885725Y146450D01*
X1885775Y146475D01*
X1885800Y146500D01*
X1885950Y146650D01*
X1886050Y146825D01*
X1886125Y147000D01*
X1886175Y147175D01*
X1886200Y147325D01*
X1886225Y147450D01*
Y147525D01*
Y147550D01*
Y159650D01*
X1894275D01*
Y147550D01*
X1894300Y147300D01*
X1894350Y147100D01*
X1894425Y146925D01*
X1894500Y146750D01*
X1894575Y146650D01*
X1894650Y146550D01*
X1894700Y146500D01*
X1894725Y146475D01*
X1894875Y146350D01*
X1895050Y146250D01*
X1895225Y146200D01*
X1895400Y146150D01*
X1895525Y146125D01*
X1895650Y146100D01*
X1895750D01*
X1895975Y146125D01*
X1896200Y146175D01*
X1896375Y146225D01*
X1896525Y146300D01*
X1896650Y146375D01*
X1896725Y146450D01*
X1896775Y146475D01*
X1896800Y146500D01*
X1896950Y146650D01*
X1897050Y146825D01*
X1897125Y147000D01*
X1897175Y147175D01*
X1897200Y147325D01*
X1897225Y147450D01*
Y174200D01*
X1897200Y174425D01*
X1897150Y174625D01*
X1897100Y174800D01*
X1897025Y174950D01*
X1896925Y175050D01*
X1896875Y175150D01*
X1896825Y175200D01*
X1896800Y175225D01*
X1896650Y175350D01*
X1896475Y175450D01*
X1896300Y175525D01*
X1896125Y175575D01*
X1895975Y175600D01*
X1895850Y175625D01*
D02*
G37*
G36*
X1948050D02*
X1939250D01*
X1939025Y175600D01*
X1938825Y175575D01*
X1938625Y175500D01*
X1938475Y175425D01*
X1938350Y175350D01*
X1938275Y175300D01*
X1938225Y175250D01*
X1938200Y175225D01*
X1938075Y175075D01*
X1937975Y174900D01*
X1937900Y174725D01*
X1937850Y174575D01*
X1937825Y174425D01*
X1937800Y174300D01*
Y147550D01*
X1937825Y147325D01*
X1937875Y147125D01*
X1937925Y146925D01*
X1938000Y146775D01*
X1938075Y146650D01*
X1938150Y146575D01*
X1938175Y146525D01*
X1938200Y146500D01*
X1938350Y146375D01*
X1938525Y146275D01*
X1938700Y146200D01*
X1938875Y146150D01*
X1939025Y146125D01*
X1939150Y146100D01*
X1947925D01*
X1948175Y146125D01*
X1948375Y146175D01*
X1948575Y146225D01*
X1948725Y146300D01*
X1948850Y146375D01*
X1948950Y146450D01*
X1949000Y146475D01*
X1949025Y146500D01*
X1949150Y146650D01*
X1949250Y146825D01*
X1949325Y147000D01*
X1949375Y147175D01*
X1949400Y147325D01*
X1949425Y147450D01*
Y147550D01*
X1949400Y147775D01*
X1949375Y148000D01*
X1949300Y148175D01*
X1949225Y148325D01*
X1949150Y148450D01*
X1949100Y148525D01*
X1949050Y148575D01*
X1949025Y148600D01*
X1948850Y148750D01*
X1948675Y148850D01*
X1948500Y148925D01*
X1948325Y148975D01*
X1948150Y149000D01*
X1948050Y149025D01*
X1940750D01*
Y159650D01*
X1945600D01*
X1945850Y159675D01*
X1946050Y159725D01*
X1946250Y159775D01*
X1946400Y159850D01*
X1946525Y159925D01*
X1946600Y160000D01*
X1946650Y160025D01*
X1946675Y160050D01*
X1946800Y160225D01*
X1946900Y160400D01*
X1946975Y160575D01*
X1947025Y160750D01*
X1947050Y160925D01*
X1947075Y161050D01*
Y161125D01*
Y161150D01*
X1947050Y161375D01*
X1947025Y161550D01*
X1946950Y161725D01*
X1946875Y161875D01*
X1946800Y162000D01*
X1946750Y162075D01*
X1946700Y162125D01*
X1946675Y162150D01*
X1946525Y162300D01*
X1946350Y162400D01*
X1946150Y162475D01*
X1946000Y162525D01*
X1945825Y162550D01*
X1945725Y162575D01*
X1940750D01*
Y172700D01*
X1947925D01*
X1948175Y172725D01*
X1948375Y172775D01*
X1948575Y172825D01*
X1948725Y172900D01*
X1948850Y172975D01*
X1948950Y173050D01*
X1949000Y173075D01*
X1949025Y173100D01*
X1949150Y173275D01*
X1949250Y173450D01*
X1949325Y173625D01*
X1949375Y173800D01*
X1949400Y173975D01*
X1949425Y174100D01*
Y174200D01*
X1949400Y174425D01*
X1949375Y174625D01*
X1949300Y174800D01*
X1949225Y174950D01*
X1949150Y175050D01*
X1949100Y175150D01*
X1949050Y175200D01*
X1949025Y175225D01*
X1948850Y175350D01*
X1948675Y175450D01*
X1948500Y175525D01*
X1948325Y175575D01*
X1948150Y175600D01*
X1948050Y175625D01*
D02*
G37*
G36*
X1927575D02*
X1921925D01*
X1921700Y175600D01*
X1921500Y175550D01*
X1921300Y175475D01*
X1921150Y175400D01*
X1921025Y175325D01*
X1920950Y175250D01*
X1920900Y175200D01*
X1920875Y175175D01*
X1920750Y175000D01*
X1920650Y174850D01*
X1920575Y174675D01*
X1920525Y174525D01*
X1920500Y174400D01*
X1920475Y174300D01*
Y147550D01*
X1920500Y147325D01*
X1920550Y147150D01*
X1920600Y146975D01*
X1920700Y146825D01*
X1920775Y146700D01*
X1920825Y146600D01*
X1920875Y146550D01*
X1920900Y146525D01*
X1921075Y146375D01*
X1921250Y146275D01*
X1921400Y146200D01*
X1921575Y146150D01*
X1921725Y146125D01*
X1921825Y146100D01*
X1921925D01*
X1922150Y146125D01*
X1922350Y146175D01*
X1922525Y146225D01*
X1922675Y146325D01*
X1922800Y146400D01*
X1922900Y146450D01*
X1922950Y146500D01*
X1922975Y146525D01*
X1923125Y146700D01*
X1923225Y146875D01*
X1923325Y147025D01*
X1923375Y147200D01*
X1923400Y147350D01*
X1923425Y147450D01*
Y147525D01*
Y147550D01*
Y159150D01*
X1927450D01*
X1927975Y159175D01*
X1928475Y159225D01*
X1928950Y159325D01*
X1929400Y159475D01*
X1929850Y159625D01*
X1930250Y159775D01*
X1930600Y159975D01*
X1930950Y160150D01*
X1931250Y160325D01*
X1931525Y160525D01*
X1931750Y160675D01*
X1931950Y160850D01*
X1932100Y160975D01*
X1932200Y161075D01*
X1932275Y161125D01*
X1932300Y161150D01*
X1932650Y161525D01*
X1932975Y161925D01*
X1933250Y162350D01*
X1933475Y162750D01*
X1933675Y163150D01*
X1933825Y163575D01*
X1933975Y163950D01*
X1934075Y164325D01*
X1934150Y164675D01*
X1934225Y165000D01*
X1934275Y165275D01*
X1934300Y165525D01*
Y165725D01*
X1934325Y165875D01*
Y168750D01*
X1934300Y169275D01*
X1934250Y169775D01*
X1934150Y170250D01*
X1934000Y170700D01*
X1933850Y171150D01*
X1933675Y171550D01*
X1933500Y171900D01*
X1933325Y172250D01*
X1933125Y172550D01*
X1932950Y172825D01*
X1932775Y173050D01*
X1932625Y173250D01*
X1932500Y173400D01*
X1932400Y173500D01*
X1932325Y173575D01*
X1932300Y173600D01*
X1931925Y173950D01*
X1931525Y174275D01*
X1931100Y174550D01*
X1930700Y174775D01*
X1930300Y174975D01*
X1929875Y175125D01*
X1929500Y175275D01*
X1929125Y175375D01*
X1928775Y175450D01*
X1928450Y175525D01*
X1928175Y175575D01*
X1927925Y175600D01*
X1927725D01*
X1927575Y175625D01*
D02*
G37*
G36*
X1909125Y175600D02*
X1908500D01*
X1908175Y175475D01*
X1907925Y175325D01*
X1907725Y175125D01*
X1907575Y174925D01*
X1907475Y174750D01*
X1907400Y174600D01*
X1907350Y174500D01*
Y174450D01*
X1900725Y147850D01*
X1900700Y147650D01*
Y147450D01*
X1900725Y147275D01*
X1900775Y147125D01*
X1900800Y147000D01*
X1900850Y146900D01*
X1900900Y146825D01*
Y146800D01*
X1901025Y146625D01*
X1901175Y146475D01*
X1901325Y146375D01*
X1901475Y146275D01*
X1901600Y146200D01*
X1901725Y146150D01*
X1901800Y146125D01*
X1901825D01*
X1901925Y146100D01*
X1902125D01*
X1902500Y146150D01*
X1902800Y146275D01*
X1903050Y146425D01*
X1903225Y146625D01*
X1903375Y146825D01*
X1903475Y146975D01*
X1903525Y147100D01*
X1903550Y147150D01*
X1904975Y152750D01*
X1912625D01*
X1914025Y147200D01*
X1914075Y147025D01*
X1914150Y146875D01*
X1914325Y146625D01*
X1914425Y146525D01*
X1914475Y146450D01*
X1914525Y146425D01*
X1914550Y146400D01*
X1914700Y146300D01*
X1914875Y146225D01*
X1915175Y146150D01*
X1915300Y146125D01*
X1915400Y146100D01*
X1915625D01*
X1915750Y146125D01*
X1915825Y146150D01*
X1915850D01*
X1916050Y146225D01*
X1916225Y146325D01*
X1916350Y146425D01*
X1916475Y146525D01*
X1916575Y146625D01*
X1916650Y146725D01*
X1916675Y146775D01*
X1916700Y146800D01*
X1916800Y146975D01*
X1916875Y147150D01*
X1916900Y147325D01*
X1916925Y147450D01*
Y147650D01*
X1916900Y147700D01*
Y147725D01*
X1910250Y174450D01*
X1910125Y174750D01*
X1909950Y175000D01*
X1909775Y175200D01*
X1909575Y175375D01*
X1909375Y175475D01*
X1909225Y175550D01*
X1909125Y175600D01*
D02*
G37*
G36*
X1843525Y175625D02*
X1837775D01*
X1837550Y175600D01*
X1837350Y175575D01*
X1837150Y175500D01*
X1837000Y175425D01*
X1836875Y175350D01*
X1836800Y175300D01*
X1836750Y175250D01*
X1836725Y175225D01*
X1836600Y175075D01*
X1836500Y174900D01*
X1836425Y174700D01*
X1836375Y174550D01*
X1836350Y174375D01*
X1836325Y174275D01*
Y147550D01*
X1836350Y147325D01*
X1836400Y147125D01*
X1836450Y146925D01*
X1836525Y146775D01*
X1836600Y146650D01*
X1836675Y146575D01*
X1836700Y146525D01*
X1836725Y146500D01*
X1836875Y146375D01*
X1837050Y146275D01*
X1837225Y146200D01*
X1837400Y146150D01*
X1837550Y146125D01*
X1837675Y146100D01*
X1843300D01*
X1843800Y146125D01*
X1844275Y146175D01*
X1844700Y146275D01*
X1845075Y146375D01*
X1845375Y146450D01*
X1845600Y146550D01*
X1845750Y146600D01*
X1845800Y146625D01*
X1846325Y146850D01*
X1846800Y147100D01*
X1847225Y147350D01*
X1847575Y147600D01*
X1847875Y147825D01*
X1848075Y148000D01*
X1848200Y148100D01*
X1848250Y148150D01*
X1848575Y148500D01*
X1848875Y148900D01*
X1849125Y149250D01*
X1849350Y149600D01*
X1849525Y149925D01*
X1849650Y150150D01*
X1849700Y150250D01*
X1849725Y150325D01*
X1849750Y150350D01*
Y150375D01*
X1849925Y150850D01*
X1850050Y151325D01*
X1850150Y151775D01*
X1850200Y152200D01*
X1850250Y152550D01*
X1850275Y152825D01*
Y168675D01*
X1850250Y169175D01*
X1850200Y169650D01*
X1850125Y170075D01*
X1850025Y170450D01*
X1849925Y170725D01*
X1849850Y170950D01*
X1849800Y171100D01*
X1849775Y171150D01*
X1849550Y171675D01*
X1849275Y172175D01*
X1849025Y172575D01*
X1848800Y172925D01*
X1848575Y173200D01*
X1848400Y173400D01*
X1848300Y173525D01*
X1848250Y173575D01*
X1847875Y173925D01*
X1847450Y174225D01*
X1847050Y174475D01*
X1846675Y174700D01*
X1846325Y174875D01*
X1846075Y175025D01*
X1845975Y175075D01*
X1845900Y175100D01*
X1845850Y175125D01*
X1845825D01*
X1845400Y175300D01*
X1844950Y175425D01*
X1844525Y175500D01*
X1844150Y175575D01*
X1843800Y175600D01*
X1843525Y175625D01*
D02*
G37*
G36*
X1825975D02*
X1820325D01*
X1820100Y175600D01*
X1819900Y175550D01*
X1819700Y175475D01*
X1819550Y175400D01*
X1819425Y175325D01*
X1819350Y175250D01*
X1819300Y175200D01*
X1819275Y175175D01*
X1819150Y175000D01*
X1819050Y174850D01*
X1818975Y174675D01*
X1818925Y174525D01*
X1818900Y174400D01*
X1818875Y174300D01*
Y147575D01*
X1818900Y147350D01*
X1818950Y147150D01*
X1819000Y146975D01*
X1819100Y146825D01*
X1819175Y146700D01*
X1819225Y146600D01*
X1819275Y146550D01*
X1819300Y146525D01*
X1819475Y146375D01*
X1819650Y146275D01*
X1819800Y146200D01*
X1819975Y146150D01*
X1820125Y146125D01*
X1820225Y146100D01*
X1820325D01*
X1820550Y146125D01*
X1820750Y146175D01*
X1820925Y146225D01*
X1821075Y146325D01*
X1821200Y146400D01*
X1821300Y146450D01*
X1821350Y146500D01*
X1821375Y146525D01*
X1821525Y146700D01*
X1821625Y146875D01*
X1821725Y147050D01*
X1821775Y147200D01*
X1821800Y147350D01*
X1821825Y147475D01*
Y147550D01*
Y147575D01*
Y159150D01*
X1825575D01*
X1829975Y147075D01*
X1830175Y146750D01*
X1830375Y146500D01*
X1830600Y146350D01*
X1830825Y146225D01*
X1831025Y146150D01*
X1831200Y146125D01*
X1831300Y146100D01*
X1831350D01*
X1831575Y146125D01*
X1831725Y146150D01*
X1831850Y146175D01*
X1831875Y146200D01*
X1832075Y146275D01*
X1832250Y146400D01*
X1832375Y146500D01*
X1832500Y146625D01*
X1832575Y146750D01*
X1832625Y146825D01*
X1832675Y146900D01*
Y146925D01*
X1832750Y147125D01*
X1832775Y147325D01*
X1832800Y147525D01*
Y147675D01*
X1832775Y147825D01*
Y147925D01*
X1832750Y148000D01*
Y148025D01*
X1828422Y159666D01*
X1829000Y159925D01*
X1829625Y160325D01*
X1830175Y160750D01*
X1830650Y161150D01*
X1831000Y161525D01*
X1831150Y161700D01*
X1831275Y161850D01*
X1831375Y161950D01*
X1831450Y162050D01*
X1831475Y162100D01*
X1831500Y162125D01*
X1831725Y162450D01*
X1831900Y162800D01*
X1832075Y163150D01*
X1832200Y163475D01*
X1832425Y164125D01*
X1832575Y164725D01*
X1832625Y165000D01*
X1832650Y165250D01*
X1832700Y165450D01*
Y165650D01*
X1832725Y165800D01*
Y165900D01*
Y165975D01*
Y166000D01*
Y168800D01*
X1832700Y169325D01*
X1832650Y169800D01*
X1832550Y170275D01*
X1832400Y170725D01*
X1832250Y171150D01*
X1832075Y171550D01*
X1831900Y171925D01*
X1831725Y172250D01*
X1831525Y172550D01*
X1831350Y172825D01*
X1831175Y173050D01*
X1831025Y173250D01*
X1830900Y173400D01*
X1830800Y173500D01*
X1830725Y173575D01*
X1830700Y173600D01*
X1830325Y173950D01*
X1829925Y174275D01*
X1829500Y174550D01*
X1829100Y174775D01*
X1828700Y174975D01*
X1828275Y175125D01*
X1827900Y175275D01*
X1827525Y175375D01*
X1827175Y175450D01*
X1826850Y175525D01*
X1826575Y175575D01*
X1826325Y175600D01*
X1826125D01*
X1825975Y175625D01*
D02*
G37*
G36*
X1807525Y175600D02*
X1806900D01*
X1806575Y175475D01*
X1806325Y175325D01*
X1806125Y175125D01*
X1805975Y174925D01*
X1805875Y174750D01*
X1805800Y174600D01*
X1805750Y174500D01*
Y174450D01*
X1799125Y147850D01*
X1799100Y147650D01*
Y147450D01*
X1799125Y147275D01*
X1799175Y147125D01*
X1799200Y147000D01*
X1799250Y146900D01*
X1799300Y146825D01*
Y146800D01*
X1799425Y146625D01*
X1799575Y146475D01*
X1799725Y146375D01*
X1799875Y146275D01*
X1800000Y146200D01*
X1800125Y146150D01*
X1800200Y146125D01*
X1800225D01*
X1800325Y146100D01*
X1800525D01*
X1800900Y146150D01*
X1801200Y146275D01*
X1801450Y146425D01*
X1801625Y146625D01*
X1801775Y146825D01*
X1801875Y146975D01*
X1801925Y147100D01*
X1801950Y147150D01*
X1803375Y152750D01*
X1811025D01*
X1812425Y147200D01*
X1812475Y147025D01*
X1812550Y146875D01*
X1812725Y146625D01*
X1812825Y146525D01*
X1812875Y146450D01*
X1812925Y146425D01*
X1812950Y146400D01*
X1813100Y146300D01*
X1813275Y146225D01*
X1813575Y146150D01*
X1813700Y146125D01*
X1813800Y146100D01*
X1814025D01*
X1814150Y146125D01*
X1814225Y146150D01*
X1814250D01*
X1814450Y146225D01*
X1814625Y146325D01*
X1814750Y146425D01*
X1814875Y146525D01*
X1814975Y146625D01*
X1815050Y146725D01*
X1815075Y146775D01*
X1815100Y146800D01*
X1815200Y146975D01*
X1815275Y147150D01*
X1815300Y147325D01*
X1815325Y147450D01*
Y147650D01*
X1815300Y147700D01*
Y147725D01*
X1808650Y174450D01*
X1808525Y174750D01*
X1808350Y175000D01*
X1808175Y175200D01*
X1807975Y175375D01*
X1807775Y175475D01*
X1807625Y175550D01*
X1807525Y175600D01*
D02*
G37*
G36*
X1788875Y175625D02*
X1788650D01*
X1788100Y175600D01*
X1787600Y175550D01*
X1787150Y175450D01*
X1786725Y175350D01*
X1786400Y175250D01*
X1786150Y175150D01*
X1786050Y175125D01*
X1785975Y175100D01*
X1785950Y175075D01*
X1785925D01*
X1785450Y174850D01*
X1785025Y174600D01*
X1784650Y174350D01*
X1784350Y174125D01*
X1784075Y173900D01*
X1783875Y173725D01*
X1783775Y173625D01*
X1783725Y173575D01*
X1783375Y173225D01*
X1783075Y172850D01*
X1782825Y172475D01*
X1782625Y172125D01*
X1782450Y171825D01*
X1782350Y171600D01*
X1782300Y171500D01*
X1782275Y171425D01*
X1782250Y171400D01*
Y171375D01*
X1782050Y170875D01*
X1781925Y170400D01*
X1781825Y169950D01*
X1781750Y169550D01*
X1781700Y169175D01*
X1781675Y168925D01*
Y153075D01*
X1781700Y152525D01*
X1781750Y152025D01*
X1781850Y151575D01*
X1781950Y151175D01*
X1782050Y150850D01*
X1782150Y150600D01*
X1782175Y150500D01*
X1782200Y150425D01*
X1782225Y150400D01*
Y150375D01*
X1782450Y149900D01*
X1782675Y149475D01*
X1782925Y149100D01*
X1783175Y148775D01*
X1783400Y148500D01*
X1783575Y148325D01*
X1783675Y148200D01*
X1783725Y148150D01*
X1784075Y147800D01*
X1784475Y147500D01*
X1784825Y147250D01*
X1785175Y147025D01*
X1785500Y146875D01*
X1785725Y146750D01*
X1785825Y146700D01*
X1785900Y146675D01*
X1785925Y146650D01*
X1785950D01*
X1786425Y146475D01*
X1786900Y146325D01*
X1787350Y146225D01*
X1787750Y146175D01*
X1788125Y146125D01*
X1788400Y146100D01*
X1788650D01*
X1789150Y146125D01*
X1789625Y146175D01*
X1790050Y146275D01*
X1790425Y146375D01*
X1790725Y146450D01*
X1790950Y146550D01*
X1791100Y146600D01*
X1791150Y146625D01*
X1791675Y146850D01*
X1792150Y147100D01*
X1792575Y147350D01*
X1792925Y147600D01*
X1793225Y147825D01*
X1793425Y148000D01*
X1793550Y148100D01*
X1793600Y148150D01*
X1793925Y148500D01*
X1794225Y148900D01*
X1794475Y149250D01*
X1794700Y149600D01*
X1794875Y149925D01*
X1795000Y150150D01*
X1795050Y150250D01*
X1795075Y150325D01*
X1795100Y150350D01*
Y150375D01*
X1795275Y150850D01*
X1795400Y151325D01*
X1795500Y151775D01*
X1795550Y152200D01*
X1795600Y152550D01*
X1795625Y152825D01*
Y168675D01*
X1795600Y169175D01*
X1795550Y169650D01*
X1795475Y170075D01*
X1795375Y170450D01*
X1795275Y170725D01*
X1795200Y170950D01*
X1795150Y171100D01*
X1795125Y171150D01*
X1794900Y171675D01*
X1794625Y172175D01*
X1794375Y172575D01*
X1794150Y172925D01*
X1793925Y173200D01*
X1793750Y173400D01*
X1793650Y173525D01*
X1793600Y173575D01*
X1793225Y173925D01*
X1792800Y174225D01*
X1792400Y174475D01*
X1792025Y174700D01*
X1791675Y174875D01*
X1791425Y175025D01*
X1791325Y175075D01*
X1791250Y175100D01*
X1791200Y175125D01*
X1791175D01*
X1790750Y175300D01*
X1790300Y175425D01*
X1789875Y175500D01*
X1789500Y175575D01*
X1789150Y175600D01*
X1788875Y175625D01*
D02*
G37*
G36*
X1771425D02*
X1765750D01*
X1765525Y175600D01*
X1765350Y175550D01*
X1765175Y175500D01*
X1765025Y175425D01*
X1764900Y175325D01*
X1764800Y175275D01*
X1764750Y175225D01*
X1764725Y175200D01*
X1764575Y175025D01*
X1764475Y174875D01*
X1764400Y174700D01*
X1764350Y174550D01*
X1764325Y174400D01*
X1764300Y174300D01*
Y147550D01*
X1764325Y147325D01*
X1764375Y147150D01*
X1764425Y146975D01*
X1764500Y146825D01*
X1764575Y146700D01*
X1764650Y146600D01*
X1764675Y146550D01*
X1764700Y146525D01*
X1764850Y146375D01*
X1765025Y146275D01*
X1765200Y146200D01*
X1765375Y146150D01*
X1765525Y146125D01*
X1765650Y146100D01*
X1771300D01*
X1771825Y146125D01*
X1772325Y146175D01*
X1772825Y146275D01*
X1773275Y146425D01*
X1773700Y146575D01*
X1774100Y146725D01*
X1774475Y146925D01*
X1774825Y147100D01*
X1775125Y147275D01*
X1775400Y147475D01*
X1775625Y147625D01*
X1775825Y147800D01*
X1775975Y147925D01*
X1776075Y148025D01*
X1776150Y148075D01*
X1776175Y148100D01*
X1776525Y148500D01*
X1776850Y148900D01*
X1777125Y149300D01*
X1777350Y149725D01*
X1777550Y150125D01*
X1777700Y150525D01*
X1777850Y150925D01*
X1777950Y151300D01*
X1778025Y151650D01*
X1778100Y151975D01*
X1778150Y152250D01*
X1778175Y152500D01*
Y152700D01*
X1778200Y152850D01*
Y155750D01*
X1778175Y156375D01*
X1778075Y156950D01*
X1777925Y157525D01*
X1777725Y158050D01*
X1777500Y158550D01*
X1777250Y159000D01*
X1776975Y159450D01*
X1776700Y159825D01*
X1776400Y160175D01*
X1776125Y160500D01*
X1775875Y160775D01*
X1775650Y161000D01*
X1775512Y161121D01*
X1775700Y161275D01*
X1776150Y161750D01*
X1776575Y162225D01*
X1776925Y162700D01*
X1777200Y163175D01*
X1777450Y163650D01*
X1777650Y164100D01*
X1777825Y164550D01*
X1777950Y164950D01*
X1778050Y165325D01*
X1778100Y165675D01*
X1778150Y165950D01*
X1778175Y166200D01*
X1778200Y166375D01*
Y168750D01*
X1778175Y169275D01*
X1778125Y169775D01*
X1778025Y170250D01*
X1777875Y170700D01*
X1777725Y171150D01*
X1777550Y171550D01*
X1777375Y171900D01*
X1777200Y172250D01*
X1777000Y172550D01*
X1776825Y172825D01*
X1776650Y173050D01*
X1776500Y173250D01*
X1776375Y173400D01*
X1776275Y173500D01*
X1776200Y173575D01*
X1776175Y173600D01*
X1775800Y173950D01*
X1775400Y174275D01*
X1774975Y174550D01*
X1774575Y174775D01*
X1774150Y174975D01*
X1773750Y175125D01*
X1773350Y175275D01*
X1773000Y175375D01*
X1772650Y175450D01*
X1772325Y175525D01*
X1772025Y175575D01*
X1771775Y175600D01*
X1771575D01*
X1771425Y175625D01*
D02*
G37*
%LPD*%
G36*
X1928025Y172650D02*
X1928575Y172525D01*
X1929050Y172325D01*
X1929450Y172125D01*
X1929775Y171925D01*
X1930025Y171725D01*
X1930175Y171600D01*
X1930200Y171575D01*
X1930225Y171550D01*
X1930425Y171325D01*
X1930600Y171100D01*
X1930900Y170625D01*
X1931100Y170150D01*
X1931225Y169725D01*
X1931325Y169325D01*
X1931350Y169175D01*
Y169025D01*
X1931375Y168900D01*
Y168825D01*
Y168775D01*
Y168750D01*
Y166000D01*
Y165700D01*
X1931325Y165400D01*
X1931200Y164875D01*
X1931000Y164375D01*
X1930800Y163975D01*
X1930600Y163625D01*
X1930400Y163375D01*
X1930325Y163300D01*
X1930275Y163225D01*
X1930250Y163200D01*
X1930225Y163175D01*
X1930000Y162975D01*
X1929775Y162800D01*
X1929300Y162500D01*
X1928850Y162300D01*
X1928400Y162175D01*
X1928025Y162075D01*
X1927875Y162050D01*
X1927725D01*
X1927600Y162025D01*
X1923425D01*
Y172700D01*
X1927750D01*
X1928025Y172650D01*
D02*
G37*
G36*
X1912050Y155700D02*
X1905550D01*
X1908800Y169525D01*
X1912050Y155700D01*
D02*
G37*
G36*
X1843600Y172675D02*
X1843900Y172650D01*
X1844475Y172500D01*
X1845000Y172275D01*
X1845450Y172050D01*
X1845825Y171800D01*
X1845975Y171675D01*
X1846100Y171575D01*
X1846200Y171500D01*
X1846275Y171425D01*
X1846325Y171400D01*
X1846350Y171375D01*
X1846675Y170950D01*
X1846925Y170500D01*
X1847100Y170050D01*
X1847200Y169625D01*
X1847275Y169250D01*
X1847300Y169100D01*
Y168950D01*
X1847325Y168825D01*
Y168750D01*
Y168700D01*
Y168675D01*
Y153075D01*
Y152750D01*
X1847275Y152450D01*
X1847150Y151900D01*
X1846950Y151400D01*
X1846750Y150975D01*
X1846525Y150650D01*
X1846325Y150375D01*
X1846250Y150300D01*
X1846200Y150225D01*
X1846175Y150200D01*
X1846150Y150175D01*
X1845925Y149975D01*
X1845700Y149800D01*
X1845200Y149500D01*
X1844725Y149300D01*
X1844275Y149175D01*
X1843900Y149075D01*
X1843725Y149050D01*
X1843575D01*
X1843475Y149025D01*
X1839275D01*
Y172700D01*
X1843300D01*
X1843600Y172675D01*
D02*
G37*
G36*
X1826425Y172650D02*
X1826975Y172525D01*
X1827450Y172325D01*
X1827850Y172125D01*
X1828175Y171925D01*
X1828425Y171725D01*
X1828575Y171600D01*
X1828600Y171575D01*
X1828625Y171550D01*
X1828825Y171325D01*
X1829000Y171100D01*
X1829300Y170625D01*
X1829500Y170175D01*
X1829625Y169750D01*
X1829725Y169375D01*
X1829750Y169200D01*
Y169075D01*
X1829775Y168950D01*
Y168875D01*
Y168825D01*
Y168800D01*
Y166000D01*
Y165700D01*
X1829725Y165425D01*
X1829600Y164900D01*
X1829400Y164425D01*
X1829200Y164025D01*
X1829000Y163675D01*
X1828800Y163425D01*
X1828725Y163350D01*
X1828675Y163275D01*
X1828650Y163250D01*
X1828625Y163225D01*
X1828400Y163025D01*
X1828175Y162850D01*
X1827700Y162550D01*
X1827250Y162350D01*
X1826800Y162225D01*
X1826425Y162125D01*
X1826275Y162100D01*
X1826125D01*
X1826000Y162075D01*
X1821825D01*
Y172700D01*
X1826150D01*
X1826425Y172650D01*
D02*
G37*
G36*
X1810450Y155700D02*
X1803950D01*
X1807200Y169525D01*
X1810450Y155700D01*
D02*
G37*
G36*
X1788950Y172675D02*
X1789225Y172650D01*
X1789475Y172600D01*
X1789725Y172550D01*
X1789900Y172475D01*
X1790050Y172425D01*
X1790150Y172400D01*
X1790175Y172375D01*
X1790450Y172250D01*
X1790725Y172100D01*
X1790950Y171950D01*
X1791150Y171800D01*
X1791325Y171650D01*
X1791450Y171525D01*
X1791525Y171450D01*
X1791550Y171425D01*
X1791875Y171025D01*
X1792150Y170650D01*
X1792225Y170500D01*
X1792300Y170375D01*
X1792325Y170275D01*
X1792350Y170250D01*
X1792450Y169975D01*
X1792550Y169700D01*
X1792600Y169425D01*
X1792625Y169175D01*
X1792650Y168975D01*
X1792675Y168825D01*
Y168725D01*
Y168675D01*
Y153075D01*
X1792650Y152750D01*
X1792625Y152450D01*
X1792475Y151875D01*
X1792250Y151350D01*
X1792025Y150900D01*
X1791775Y150500D01*
X1791650Y150350D01*
X1791550Y150225D01*
X1791475Y150125D01*
X1791400Y150050D01*
X1791375Y150000D01*
X1791350Y149975D01*
X1790925Y149650D01*
X1790475Y149425D01*
X1790025Y149250D01*
X1789600Y149150D01*
X1789225Y149075D01*
X1789050Y149050D01*
X1788925D01*
X1788800Y149025D01*
X1788650D01*
X1788350Y149050D01*
X1788050Y149075D01*
X1787475Y149200D01*
X1787000Y149375D01*
X1786575Y149600D01*
X1786225Y149800D01*
X1785975Y149975D01*
X1785900Y150050D01*
X1785825Y150100D01*
X1785800Y150150D01*
X1785775D01*
X1785575Y150375D01*
X1785400Y150625D01*
X1785100Y151125D01*
X1784900Y151600D01*
X1784775Y152075D01*
X1784675Y152475D01*
X1784650Y152650D01*
Y152800D01*
X1784625Y152900D01*
Y153000D01*
Y153050D01*
Y153075D01*
Y168675D01*
X1784675Y169275D01*
X1784775Y169800D01*
X1784925Y170250D01*
X1785100Y170650D01*
X1785250Y170950D01*
X1785400Y171175D01*
X1785500Y171325D01*
X1785550Y171375D01*
X1785825Y171600D01*
X1786100Y171825D01*
X1786375Y172000D01*
X1786625Y172150D01*
X1787150Y172375D01*
X1787625Y172525D01*
X1788050Y172625D01*
X1788225Y172650D01*
X1788375Y172675D01*
X1788475Y172700D01*
X1788650D01*
X1788950Y172675D01*
D02*
G37*
G36*
X1771875Y172650D02*
X1772425Y172525D01*
X1772900Y172325D01*
X1773300Y172125D01*
X1773625Y171925D01*
X1773875Y171725D01*
X1774025Y171600D01*
X1774050Y171575D01*
X1774075Y171550D01*
X1774275Y171325D01*
X1774475Y171100D01*
X1774750Y170625D01*
X1774975Y170150D01*
X1775100Y169725D01*
X1775200Y169325D01*
X1775225Y169175D01*
Y169025D01*
X1775250Y168900D01*
Y168825D01*
Y168775D01*
Y168750D01*
Y166525D01*
Y166225D01*
X1775200Y165925D01*
X1775075Y165400D01*
X1774875Y164925D01*
X1774675Y164500D01*
X1774450Y164175D01*
X1774250Y163925D01*
X1774175Y163850D01*
X1774125Y163775D01*
X1774100Y163750D01*
X1774075Y163725D01*
X1773850Y163525D01*
X1773625Y163350D01*
X1773150Y163050D01*
X1772700Y162850D01*
X1772250Y162725D01*
X1771875Y162625D01*
X1771725Y162600D01*
X1771575D01*
X1771450Y162575D01*
X1767250D01*
Y172700D01*
X1771600D01*
X1771875Y172650D01*
D02*
G37*
G36*
Y159600D02*
X1772425Y159475D01*
X1772900Y159275D01*
X1773300Y159075D01*
X1773625Y158850D01*
X1773875Y158650D01*
X1774025Y158525D01*
X1774050Y158500D01*
X1774075Y158475D01*
X1774275Y158250D01*
X1774475Y158025D01*
X1774750Y157575D01*
X1774975Y157100D01*
X1775100Y156675D01*
X1775200Y156300D01*
X1775225Y156150D01*
Y156025D01*
X1775250Y155900D01*
Y155825D01*
Y155775D01*
Y155750D01*
Y152975D01*
Y152675D01*
X1775200Y152375D01*
X1775075Y151850D01*
X1774875Y151375D01*
X1774675Y150950D01*
X1774450Y150625D01*
X1774250Y150375D01*
X1774175Y150300D01*
X1774125Y150225D01*
X1774100Y150200D01*
X1774075Y150175D01*
X1773850Y149975D01*
X1773625Y149800D01*
X1773150Y149500D01*
X1772700Y149300D01*
X1772250Y149175D01*
X1771875Y149075D01*
X1771725Y149050D01*
X1771575D01*
X1771450Y149025D01*
X1767250D01*
Y159650D01*
X1771600D01*
X1771875Y159600D01*
D02*
G37*
%LPC*%
G36*
X2089377Y165737D02*
X2089355Y165726D01*
X2089366D01*
X2089377Y165737D01*
D02*
G37*
G36*
X2045049D02*
X2045026Y165726D01*
X2045037D01*
X2045049Y165737D01*
D02*
G37*
G36*
X2111708Y164559D02*
X2109786D01*
Y159837D01*
X2111642D01*
X2111697Y159849D01*
X2111764D01*
X2111831Y159860D01*
X2111997Y159904D01*
X2112197Y159960D01*
X2112397Y160048D01*
X2112608Y160182D01*
X2112708Y160260D01*
X2112808Y160348D01*
X2112819Y160360D01*
X2112831Y160371D01*
X2112853Y160404D01*
X2112886Y160437D01*
X2112975Y160548D01*
X2113064Y160704D01*
X2113153Y160882D01*
X2113242Y161093D01*
X2113297Y161326D01*
X2113319Y161448D01*
Y161582D01*
Y162826D01*
Y162837D01*
Y162859D01*
Y162893D01*
X2113308Y162948D01*
Y163004D01*
X2113297Y163082D01*
X2113253Y163248D01*
X2113197Y163437D01*
X2113108Y163637D01*
X2112975Y163848D01*
X2112897Y163948D01*
X2112808Y164048D01*
X2112797Y164059D01*
X2112786Y164070D01*
X2112720Y164126D01*
X2112608Y164215D01*
X2112464Y164304D01*
X2112286Y164392D01*
X2112075Y164481D01*
X2111831Y164537D01*
X2111708Y164559D01*
D02*
G37*
G36*
X2103287Y163148D02*
X2101843Y157004D01*
X2104731D01*
X2103287Y163148D01*
D02*
G37*
G36*
X2095044Y164559D02*
X2093255D01*
Y154038D01*
X2095121D01*
X2095166Y154049D01*
X2095232D01*
X2095310Y154060D01*
X2095477Y154105D01*
X2095677Y154160D01*
X2095888Y154249D01*
X2096110Y154382D01*
X2096210Y154460D01*
X2096310Y154549D01*
X2096321Y154560D01*
X2096332Y154571D01*
X2096354Y154605D01*
X2096388Y154638D01*
X2096477Y154760D01*
X2096577Y154905D01*
X2096666Y155094D01*
X2096754Y155316D01*
X2096810Y155560D01*
X2096832Y155693D01*
Y155838D01*
Y162770D01*
Y162782D01*
Y162804D01*
Y162837D01*
X2096821Y162893D01*
Y162959D01*
X2096810Y163026D01*
X2096777Y163193D01*
X2096732Y163382D01*
X2096654Y163582D01*
X2096543Y163781D01*
X2096399Y163970D01*
X2096388Y163981D01*
X2096366Y163993D01*
X2096332Y164026D01*
X2096288Y164059D01*
X2096232Y164104D01*
X2096166Y164159D01*
X2095999Y164270D01*
X2095799Y164370D01*
X2095566Y164470D01*
X2095310Y164537D01*
X2095177Y164548D01*
X2095044Y164559D01*
D02*
G37*
G36*
X2071801D02*
X2071724D01*
X2071679Y164548D01*
X2071613Y164537D01*
X2071535Y164526D01*
X2071346Y164481D01*
X2071135Y164415D01*
X2070901Y164315D01*
X2070790Y164248D01*
X2070668Y164170D01*
X2070546Y164070D01*
X2070424Y163970D01*
X2070402Y163948D01*
X2070357Y163882D01*
X2070290Y163781D01*
X2070224Y163648D01*
X2070146Y163470D01*
X2070079Y163270D01*
X2070035Y163037D01*
X2070013Y162770D01*
Y155838D01*
Y155827D01*
Y155805D01*
Y155760D01*
X2070024Y155716D01*
Y155649D01*
X2070035Y155571D01*
X2070079Y155393D01*
X2070135Y155182D01*
X2070224Y154971D01*
X2070357Y154749D01*
X2070435Y154638D01*
X2070524Y154538D01*
X2070535D01*
X2070546Y154516D01*
X2070579Y154493D01*
X2070613Y154460D01*
X2070724Y154382D01*
X2070879Y154294D01*
X2071068Y154194D01*
X2071279Y154116D01*
X2071535Y154060D01*
X2071668Y154049D01*
X2071801Y154038D01*
X2071868D01*
X2071924Y154049D01*
X2071979D01*
X2072057Y154060D01*
X2072223Y154094D01*
X2072412Y154138D01*
X2072612Y154216D01*
X2072812Y154316D01*
X2073001Y154460D01*
X2073012Y154471D01*
X2073023Y154493D01*
X2073057Y154527D01*
X2073090Y154571D01*
X2073135Y154627D01*
X2073190Y154693D01*
X2073301Y154871D01*
X2073401Y155071D01*
X2073501Y155305D01*
X2073568Y155560D01*
X2073579Y155693D01*
X2073590Y155838D01*
Y162770D01*
Y162793D01*
Y162837D01*
X2073579Y162904D01*
X2073568Y162993D01*
X2073557Y163104D01*
X2073535Y163226D01*
X2073490Y163348D01*
X2073446Y163470D01*
X2073434Y163481D01*
X2073423Y163526D01*
X2073390Y163582D01*
X2073357Y163648D01*
X2073235Y163815D01*
X2073090Y163993D01*
X2073079Y164004D01*
X2073046Y164037D01*
X2072990Y164093D01*
X2072912Y164159D01*
X2072824Y164226D01*
X2072724Y164293D01*
X2072601Y164359D01*
X2072479Y164415D01*
X2072468Y164426D01*
X2072424Y164437D01*
X2072357Y164459D01*
X2072279Y164492D01*
X2072168Y164515D01*
X2072057Y164537D01*
X2071935Y164548D01*
X2071801Y164559D01*
D02*
G37*
G36*
X2064224D02*
X2062291D01*
Y160060D01*
X2064158D01*
X2064213Y160071D01*
X2064280D01*
X2064347Y160082D01*
X2064513Y160126D01*
X2064713Y160182D01*
X2064913Y160271D01*
X2065124Y160404D01*
X2065224Y160482D01*
X2065324Y160571D01*
X2065335Y160582D01*
X2065346Y160593D01*
X2065369Y160626D01*
X2065402Y160660D01*
X2065491Y160771D01*
X2065591Y160915D01*
X2065680Y161104D01*
X2065769Y161315D01*
X2065824Y161548D01*
X2065846Y161682D01*
Y161815D01*
Y162804D01*
Y162815D01*
Y162837D01*
Y162871D01*
X2065835Y162926D01*
Y162993D01*
X2065824Y163059D01*
X2065780Y163237D01*
X2065724Y163426D01*
X2065624Y163637D01*
X2065502Y163848D01*
X2065413Y163948D01*
X2065324Y164048D01*
X2065313Y164059D01*
X2065302Y164070D01*
X2065235Y164126D01*
X2065124Y164215D01*
X2064980Y164304D01*
X2064802Y164392D01*
X2064591Y164481D01*
X2064347Y164537D01*
X2064224Y164559D01*
D02*
G37*
G36*
Y158760D02*
X2062291D01*
Y154038D01*
X2064158D01*
X2064213Y154049D01*
X2064280D01*
X2064347Y154060D01*
X2064513Y154105D01*
X2064713Y154160D01*
X2064913Y154249D01*
X2065124Y154382D01*
X2065224Y154460D01*
X2065324Y154549D01*
X2065335Y154560D01*
X2065346Y154571D01*
X2065369Y154605D01*
X2065402Y154638D01*
X2065491Y154749D01*
X2065591Y154894D01*
X2065680Y155082D01*
X2065769Y155294D01*
X2065824Y155527D01*
X2065846Y155660D01*
Y155793D01*
Y157027D01*
Y157038D01*
Y157060D01*
Y157093D01*
X2065835Y157149D01*
Y157204D01*
X2065824Y157271D01*
X2065780Y157438D01*
X2065724Y157626D01*
X2065624Y157838D01*
X2065502Y158038D01*
X2065413Y158138D01*
X2065324Y158238D01*
X2065313Y158249D01*
X2065302Y158260D01*
X2065235Y158315D01*
X2065124Y158404D01*
X2064980Y158504D01*
X2064802Y158593D01*
X2064591Y158682D01*
X2064347Y158738D01*
X2064224Y158760D01*
D02*
G37*
G36*
X2010641Y164559D02*
X2010563D01*
X2010519Y164548D01*
X2010452Y164537D01*
X2010374Y164526D01*
X2010185Y164481D01*
X2009974Y164415D01*
X2009741Y164315D01*
X2009630Y164248D01*
X2009508Y164170D01*
X2009385Y164070D01*
X2009263Y163970D01*
X2009241Y163948D01*
X2009196Y163882D01*
X2009130Y163781D01*
X2009063Y163648D01*
X2008985Y163470D01*
X2008919Y163270D01*
X2008874Y163037D01*
X2008852Y162770D01*
Y155838D01*
Y155827D01*
Y155805D01*
Y155760D01*
X2008863Y155716D01*
Y155649D01*
X2008874Y155571D01*
X2008919Y155393D01*
X2008974Y155182D01*
X2009063Y154971D01*
X2009196Y154749D01*
X2009274Y154638D01*
X2009363Y154538D01*
X2009374D01*
X2009385Y154516D01*
X2009419Y154493D01*
X2009452Y154460D01*
X2009563Y154382D01*
X2009719Y154294D01*
X2009908Y154194D01*
X2010119Y154116D01*
X2010374Y154060D01*
X2010508Y154049D01*
X2010641Y154038D01*
X2010707D01*
X2010763Y154049D01*
X2010819D01*
X2010896Y154060D01*
X2011063Y154094D01*
X2011252Y154138D01*
X2011452Y154216D01*
X2011652Y154316D01*
X2011841Y154460D01*
X2011852Y154471D01*
X2011863Y154493D01*
X2011896Y154527D01*
X2011930Y154571D01*
X2011974Y154627D01*
X2012030Y154693D01*
X2012141Y154871D01*
X2012241Y155071D01*
X2012341Y155305D01*
X2012407Y155560D01*
X2012418Y155693D01*
X2012429Y155838D01*
Y162770D01*
Y162793D01*
Y162837D01*
X2012418Y162904D01*
X2012407Y162993D01*
X2012396Y163104D01*
X2012374Y163226D01*
X2012329Y163348D01*
X2012285Y163470D01*
X2012274Y163481D01*
X2012263Y163526D01*
X2012230Y163582D01*
X2012196Y163648D01*
X2012074Y163815D01*
X2011930Y163993D01*
X2011918Y164004D01*
X2011885Y164037D01*
X2011830Y164093D01*
X2011752Y164159D01*
X2011663Y164226D01*
X2011563Y164293D01*
X2011441Y164359D01*
X2011319Y164415D01*
X2011307Y164426D01*
X2011263Y164437D01*
X2011196Y164459D01*
X2011119Y164492D01*
X2011007Y164515D01*
X2010896Y164537D01*
X2010774Y164548D01*
X2010641Y164559D01*
D02*
G37*
G36*
X1997564D02*
X1995631D01*
Y160060D01*
X1997498D01*
X1997553Y160071D01*
X1997620D01*
X1997687Y160082D01*
X1997853Y160126D01*
X1998053Y160182D01*
X1998253Y160271D01*
X1998464Y160404D01*
X1998564Y160482D01*
X1998664Y160571D01*
X1998675Y160582D01*
X1998686Y160593D01*
X1998709Y160626D01*
X1998742Y160660D01*
X1998831Y160771D01*
X1998931Y160915D01*
X1999020Y161104D01*
X1999109Y161315D01*
X1999164Y161548D01*
X1999186Y161682D01*
Y161815D01*
Y162804D01*
Y162815D01*
Y162837D01*
Y162871D01*
X1999175Y162926D01*
Y162993D01*
X1999164Y163059D01*
X1999120Y163237D01*
X1999064Y163426D01*
X1998964Y163637D01*
X1998842Y163848D01*
X1998753Y163948D01*
X1998664Y164048D01*
X1998653Y164059D01*
X1998642Y164070D01*
X1998575Y164126D01*
X1998464Y164215D01*
X1998320Y164304D01*
X1998142Y164392D01*
X1997931Y164481D01*
X1997687Y164537D01*
X1997564Y164559D01*
D02*
G37*
G36*
Y158760D02*
X1995631D01*
Y154038D01*
X1997498D01*
X1997553Y154049D01*
X1997620D01*
X1997687Y154060D01*
X1997853Y154105D01*
X1998053Y154160D01*
X1998253Y154249D01*
X1998464Y154382D01*
X1998564Y154460D01*
X1998664Y154549D01*
X1998675Y154560D01*
X1998686Y154571D01*
X1998709Y154605D01*
X1998742Y154638D01*
X1998831Y154749D01*
X1998931Y154894D01*
X1999020Y155082D01*
X1999109Y155294D01*
X1999164Y155527D01*
X1999186Y155660D01*
Y155793D01*
Y157027D01*
Y157038D01*
Y157060D01*
Y157093D01*
X1999175Y157149D01*
Y157204D01*
X1999164Y157271D01*
X1999120Y157438D01*
X1999064Y157626D01*
X1998964Y157838D01*
X1998842Y158038D01*
X1998753Y158138D01*
X1998664Y158238D01*
X1998653Y158249D01*
X1998642Y158260D01*
X1998575Y158315D01*
X1998464Y158404D01*
X1998320Y158504D01*
X1998142Y158593D01*
X1997931Y158682D01*
X1997687Y158738D01*
X1997564Y158760D01*
D02*
G37*
G36*
X1982433Y164559D02*
X1980511D01*
Y159815D01*
X1982366D01*
X1982421Y159826D01*
X1982488D01*
X1982555Y159837D01*
X1982721Y159882D01*
X1982921Y159937D01*
X1983121Y160026D01*
X1983332Y160160D01*
X1983432Y160237D01*
X1983532Y160326D01*
X1983544Y160337D01*
X1983555Y160348D01*
X1983577Y160382D01*
X1983610Y160415D01*
X1983699Y160526D01*
X1983788Y160682D01*
X1983877Y160860D01*
X1983966Y161082D01*
X1984021Y161315D01*
X1984044Y161448D01*
Y161582D01*
Y162804D01*
Y162815D01*
Y162837D01*
Y162871D01*
X1984032Y162926D01*
Y162993D01*
X1984021Y163059D01*
X1983977Y163237D01*
X1983921Y163426D01*
X1983832Y163637D01*
X1983699Y163848D01*
X1983621Y163948D01*
X1983532Y164048D01*
X1983521Y164059D01*
X1983510Y164070D01*
X1983443Y164126D01*
X1983332Y164215D01*
X1983188Y164304D01*
X1983010Y164392D01*
X1982799Y164481D01*
X1982555Y164537D01*
X1982433Y164559D01*
D02*
G37*
%LPD*%
D24*
X235882Y186359D02*
X236629Y185890D01*
X237461Y185599D01*
X238337Y185500D01*
X490581D01*
X491457Y185599D01*
X492289Y185890D01*
X493036Y186359D01*
X493659Y186982D01*
X494128Y187729D01*
X494419Y188561D01*
X494518Y189437D01*
Y194217D01*
X494622Y195020D01*
X494928Y195770D01*
X495414Y196418D01*
X503162Y204353D01*
X503770Y205162D01*
X504152Y206099D01*
X504282Y207103D01*
Y332897D01*
X504152Y333900D01*
X503770Y334838D01*
X503162Y335647D01*
X495414Y343582D01*
X494928Y344230D01*
X494622Y344980D01*
X494518Y345783D01*
Y387860D01*
X494384Y388879D01*
X493991Y389828D01*
X493365Y390644D01*
X489511Y394498D01*
X488695Y395124D01*
X487746Y395517D01*
X486727Y395651D01*
X238337D01*
X237461Y395553D01*
X236629Y395262D01*
X235882Y394793D01*
X235259Y394169D01*
X234790Y393423D01*
X234499Y392590D01*
X234400Y391714D01*
Y189437D01*
X234499Y188561D01*
X234790Y187729D01*
X235259Y186982D01*
X235882Y186359D01*
M02*
