G04*
G04 #@! TF.GenerationSoftware,Altium Limited,Altium Designer,20.0.7 (75)*
G04*
G04 Layer_Color=8388736*
%FSLAX25Y25*%
%MOIN*%
G70*
G01*
G75*
%ADD16O,0.08674X0.04737*%
%ADD17O,0.08674X0.04737*%
%ADD18C,0.06706*%
G04:AMPARAMS|DCode=19|XSize=67.06mil|YSize=67.06mil|CornerRadius=18.76mil|HoleSize=0mil|Usage=FLASHONLY|Rotation=0.000|XOffset=0mil|YOffset=0mil|HoleType=Round|Shape=RoundedRectangle|*
%AMROUNDEDRECTD19*
21,1,0.06706,0.02953,0,0,0.0*
21,1,0.02953,0.06706,0,0,0.0*
1,1,0.03753,0.01476,-0.01476*
1,1,0.03753,-0.01476,-0.01476*
1,1,0.03753,-0.01476,0.01476*
1,1,0.03753,0.01476,0.01476*
%
%ADD19ROUNDEDRECTD19*%
%ADD20C,0.04540*%
G04:AMPARAMS|DCode=21|XSize=45.4mil|YSize=45.4mil|CornerRadius=13.35mil|HoleSize=0mil|Usage=FLASHONLY|Rotation=270.000|XOffset=0mil|YOffset=0mil|HoleType=Round|Shape=RoundedRectangle|*
%AMROUNDEDRECTD21*
21,1,0.04540,0.01870,0,0,270.0*
21,1,0.01870,0.04540,0,0,270.0*
1,1,0.02670,-0.00935,-0.00935*
1,1,0.02670,-0.00935,0.00935*
1,1,0.02670,0.00935,0.00935*
1,1,0.02670,0.00935,-0.00935*
%
%ADD21ROUNDEDRECTD21*%
G04:AMPARAMS|DCode=22|XSize=67.06mil|YSize=67.06mil|CornerRadius=18.76mil|HoleSize=0mil|Usage=FLASHONLY|Rotation=90.000|XOffset=0mil|YOffset=0mil|HoleType=Round|Shape=RoundedRectangle|*
%AMROUNDEDRECTD22*
21,1,0.06706,0.02953,0,0,90.0*
21,1,0.02953,0.06706,0,0,90.0*
1,1,0.03753,0.01476,0.01476*
1,1,0.03753,0.01476,-0.01476*
1,1,0.03753,-0.01476,-0.01476*
1,1,0.03753,-0.01476,0.01476*
%
%ADD22ROUNDEDRECTD22*%
%ADD23C,0.13300*%
G36*
X2019450Y137100D02*
X1755300D01*
Y184675D01*
X2019450D01*
Y137100D01*
D02*
G37*
%LPC*%
G36*
X1986825Y175675D02*
X1986550D01*
X1986000Y175650D01*
X1985750Y175625D01*
X1985525Y175600D01*
X1985325Y175550D01*
X1985175Y175525D01*
X1985075Y175500D01*
X1985050D01*
X1984500Y175350D01*
X1984000Y175150D01*
X1983550Y174950D01*
X1983150Y174725D01*
X1982825Y174525D01*
X1982575Y174375D01*
X1982500Y174325D01*
X1982425Y174275D01*
X1982400Y174225D01*
X1982375D01*
X1981950Y173875D01*
X1981575Y173500D01*
X1981250Y173125D01*
X1980975Y172775D01*
X1980750Y172450D01*
X1980575Y172225D01*
X1980525Y172125D01*
X1980475Y172050D01*
X1980450Y172025D01*
Y172000D01*
X1980200Y171500D01*
X1980000Y171000D01*
X1979850Y170525D01*
X1979750Y170100D01*
X1979700Y169725D01*
X1979675Y169575D01*
X1979650Y169425D01*
Y169325D01*
X1979625Y169250D01*
Y169200D01*
Y169175D01*
X1979600Y168625D01*
X1979625Y168075D01*
X1979700Y167575D01*
X1979775Y167100D01*
X1979875Y166725D01*
X1979925Y166550D01*
X1979975Y166425D01*
X1980000Y166300D01*
X1980025Y166225D01*
X1980050Y166175D01*
Y166150D01*
X1980250Y165675D01*
X1980525Y165225D01*
X1980825Y164800D01*
X1981125Y164425D01*
X1981400Y164125D01*
X1981625Y163875D01*
X1981725Y163800D01*
X1981800Y163725D01*
X1981825Y163700D01*
X1981850Y163675D01*
X1988875Y156325D01*
X1989100Y156050D01*
X1989300Y155775D01*
X1989450Y155525D01*
X1989600Y155275D01*
X1989700Y155075D01*
X1989775Y154900D01*
X1989825Y154800D01*
X1989850Y154750D01*
X1989950Y154425D01*
X1990025Y154125D01*
X1990075Y153825D01*
X1990100Y153550D01*
Y153325D01*
Y153150D01*
X1990075Y153050D01*
Y153000D01*
X1990025Y152650D01*
X1989950Y152300D01*
X1989750Y151700D01*
X1989475Y151150D01*
X1989175Y150700D01*
X1988900Y150350D01*
X1988750Y150200D01*
X1988650Y150100D01*
X1988550Y150000D01*
X1988475Y149925D01*
X1988425Y149900D01*
X1988400Y149875D01*
X1987950Y149600D01*
X1987500Y149375D01*
X1987075Y149225D01*
X1986700Y149125D01*
X1986375Y149075D01*
X1986100Y149050D01*
X1986000Y149025D01*
X1985875D01*
X1985575Y149050D01*
X1985275Y149075D01*
X1985150Y149100D01*
X1985050D01*
X1984975Y149125D01*
X1984950D01*
X1984625Y149200D01*
X1984325Y149300D01*
X1984050Y149425D01*
X1983800Y149525D01*
X1983600Y149650D01*
X1983425Y149750D01*
X1983325Y149800D01*
X1983300Y149825D01*
X1983050Y150025D01*
X1982850Y150225D01*
X1982675Y150425D01*
X1982500Y150625D01*
X1982400Y150775D01*
X1982300Y150900D01*
X1982250Y151000D01*
X1982225Y151025D01*
X1982050Y151275D01*
X1981900Y151450D01*
X1981775Y151550D01*
X1981750Y151575D01*
X1981725D01*
X1981600Y151650D01*
X1981475Y151700D01*
X1981175Y151825D01*
X1981050Y151850D01*
X1980925Y151875D01*
X1980850Y151900D01*
X1980825D01*
X1980550Y151850D01*
X1980325Y151775D01*
X1980150Y151700D01*
X1980125Y151650D01*
X1980100D01*
X1979950Y151550D01*
X1979800Y151425D01*
X1979700Y151300D01*
X1979625Y151175D01*
X1979575Y151075D01*
X1979525Y151000D01*
X1979500Y150950D01*
Y150925D01*
X1979450Y150675D01*
X1979425Y150425D01*
X1979450Y150225D01*
Y150075D01*
X1979500Y149925D01*
X1979525Y149825D01*
X1979550Y149775D01*
Y149750D01*
X1979875Y149250D01*
X1980200Y148800D01*
X1980550Y148425D01*
X1980850Y148100D01*
X1981125Y147825D01*
X1981350Y147625D01*
X1981500Y147525D01*
X1981525Y147475D01*
X1981550D01*
X1982050Y147175D01*
X1982550Y146900D01*
X1983000Y146700D01*
X1983425Y146525D01*
X1983775Y146400D01*
X1984050Y146325D01*
X1984150Y146275D01*
X1984225D01*
X1984275Y146250D01*
X1984300D01*
X1984875Y146175D01*
X1985125Y146125D01*
X1985350D01*
X1985525Y146100D01*
X1985800D01*
X1986375Y146125D01*
X1986650Y146150D01*
X1986875Y146175D01*
X1987075Y146200D01*
X1987225Y146225D01*
X1987325Y146250D01*
X1987350D01*
X1987950Y146425D01*
X1988475Y146625D01*
X1988950Y146850D01*
X1989375Y147075D01*
X1989700Y147250D01*
X1989975Y147425D01*
X1990050Y147500D01*
X1990125Y147525D01*
X1990150Y147575D01*
X1990175D01*
X1990600Y147950D01*
X1991000Y148325D01*
X1991350Y148700D01*
X1991625Y149050D01*
X1991850Y149375D01*
X1992025Y149625D01*
X1992075Y149725D01*
X1992125Y149800D01*
X1992150Y149825D01*
Y149850D01*
X1992400Y150350D01*
X1992600Y150875D01*
X1992750Y151350D01*
X1992875Y151775D01*
X1992950Y152150D01*
X1992975Y152300D01*
X1993000Y152450D01*
Y152550D01*
X1993025Y152625D01*
Y153300D01*
X1993000Y153875D01*
X1992925Y154375D01*
X1992850Y154825D01*
X1992750Y155225D01*
X1992725Y155375D01*
X1992675Y155500D01*
X1992650Y155600D01*
X1992625Y155675D01*
X1992600Y155725D01*
Y155750D01*
X1992375Y156275D01*
X1992125Y156750D01*
X1991875Y157175D01*
X1991600Y157550D01*
X1991375Y157850D01*
X1991175Y158075D01*
X1991050Y158225D01*
X1991025Y158275D01*
X1991000D01*
X1983700Y165850D01*
X1983475Y166100D01*
X1983300Y166375D01*
X1983125Y166650D01*
X1983000Y166925D01*
X1982800Y167425D01*
X1982650Y167925D01*
X1982575Y168325D01*
Y168500D01*
X1982550Y168650D01*
Y168775D01*
Y168875D01*
Y168925D01*
Y168950D01*
X1982600Y169300D01*
X1982650Y169625D01*
X1982850Y170200D01*
X1983125Y170700D01*
X1983400Y171125D01*
X1983675Y171450D01*
X1983900Y171675D01*
X1984000Y171775D01*
X1984075Y171825D01*
X1984100Y171875D01*
X1984125D01*
X1984550Y172150D01*
X1984975Y172350D01*
X1985375Y172500D01*
X1985725Y172600D01*
X1986050Y172650D01*
X1986300Y172700D01*
X1986800D01*
X1987100Y172675D01*
X1987225Y172650D01*
X1987325D01*
X1987400Y172625D01*
X1987425D01*
X1987750Y172550D01*
X1988025Y172450D01*
X1988575Y172175D01*
X1989025Y171875D01*
X1989375Y171550D01*
X1989675Y171250D01*
X1989875Y171000D01*
X1989950Y170925D01*
X1990000Y170850D01*
X1990050Y170800D01*
Y170775D01*
X1990175Y170575D01*
X1990325Y170400D01*
X1990475Y170250D01*
X1990625Y170150D01*
X1990775Y170075D01*
X1990875Y170025D01*
X1990950Y169975D01*
X1990975D01*
X1991125Y169950D01*
X1991375D01*
X1991625Y169975D01*
X1991825Y170025D01*
X1991950Y170050D01*
X1992000Y170075D01*
X1992225Y170225D01*
X1992400Y170400D01*
X1992525Y170550D01*
X1992625Y170725D01*
X1992700Y170850D01*
X1992750Y170950D01*
X1992775Y171025D01*
Y171050D01*
X1992800Y171275D01*
X1992825Y171475D01*
X1992800Y171650D01*
X1992775Y171800D01*
X1992750Y171900D01*
X1992700Y172000D01*
X1992675Y172050D01*
Y172075D01*
X1992350Y172550D01*
X1992050Y172975D01*
X1991725Y173300D01*
X1991450Y173575D01*
X1991200Y173750D01*
X1991025Y173900D01*
X1990900Y173975D01*
X1990850Y174000D01*
X1990325Y174400D01*
X1989825Y174725D01*
X1989350Y174975D01*
X1988925Y175175D01*
X1988575Y175325D01*
X1988300Y175400D01*
X1988200Y175450D01*
X1988125D01*
X1988075Y175475D01*
X1988050D01*
X1987475Y175600D01*
X1987225Y175625D01*
X1987000Y175650D01*
X1986825Y175675D01*
D02*
G37*
G36*
X1836350D02*
X1836075D01*
X1835525Y175650D01*
X1835275Y175625D01*
X1835050Y175600D01*
X1834850Y175550D01*
X1834700Y175525D01*
X1834600Y175500D01*
X1834575D01*
X1834025Y175350D01*
X1833525Y175150D01*
X1833075Y174950D01*
X1832675Y174725D01*
X1832350Y174525D01*
X1832100Y174375D01*
X1832025Y174325D01*
X1831950Y174275D01*
X1831925Y174225D01*
X1831900D01*
X1831475Y173875D01*
X1831100Y173500D01*
X1830775Y173125D01*
X1830500Y172775D01*
X1830275Y172450D01*
X1830100Y172225D01*
X1830050Y172125D01*
X1830000Y172050D01*
X1829975Y172025D01*
Y172000D01*
X1829725Y171500D01*
X1829525Y171000D01*
X1829375Y170525D01*
X1829275Y170100D01*
X1829225Y169725D01*
X1829200Y169575D01*
X1829175Y169425D01*
Y169325D01*
X1829150Y169250D01*
Y169200D01*
Y169175D01*
X1829125Y168625D01*
X1829150Y168075D01*
X1829225Y167575D01*
X1829300Y167100D01*
X1829400Y166725D01*
X1829450Y166550D01*
X1829500Y166425D01*
X1829525Y166300D01*
X1829550Y166225D01*
X1829575Y166175D01*
Y166150D01*
X1829775Y165675D01*
X1830050Y165225D01*
X1830350Y164800D01*
X1830650Y164425D01*
X1830925Y164125D01*
X1831150Y163875D01*
X1831250Y163800D01*
X1831325Y163725D01*
X1831350Y163700D01*
X1831375Y163675D01*
X1838400Y156325D01*
X1838625Y156050D01*
X1838825Y155775D01*
X1838975Y155525D01*
X1839125Y155275D01*
X1839225Y155075D01*
X1839300Y154900D01*
X1839350Y154800D01*
X1839375Y154750D01*
X1839475Y154425D01*
X1839550Y154125D01*
X1839600Y153825D01*
X1839625Y153550D01*
Y153325D01*
Y153150D01*
X1839600Y153050D01*
Y153000D01*
X1839550Y152650D01*
X1839475Y152300D01*
X1839275Y151700D01*
X1839000Y151150D01*
X1838700Y150700D01*
X1838425Y150350D01*
X1838275Y150200D01*
X1838175Y150100D01*
X1838075Y150000D01*
X1838000Y149925D01*
X1837950Y149900D01*
X1837925Y149875D01*
X1837475Y149600D01*
X1837025Y149375D01*
X1836600Y149225D01*
X1836225Y149125D01*
X1835900Y149075D01*
X1835625Y149050D01*
X1835525Y149025D01*
X1835400D01*
X1835100Y149050D01*
X1834800Y149075D01*
X1834675Y149100D01*
X1834575D01*
X1834500Y149125D01*
X1834475D01*
X1834150Y149200D01*
X1833850Y149300D01*
X1833575Y149425D01*
X1833325Y149525D01*
X1833125Y149650D01*
X1832950Y149750D01*
X1832850Y149800D01*
X1832825Y149825D01*
X1832575Y150025D01*
X1832375Y150225D01*
X1832200Y150425D01*
X1832025Y150625D01*
X1831925Y150775D01*
X1831825Y150900D01*
X1831775Y151000D01*
X1831750Y151025D01*
X1831575Y151275D01*
X1831425Y151450D01*
X1831300Y151550D01*
X1831275Y151575D01*
X1831250D01*
X1831125Y151650D01*
X1831000Y151700D01*
X1830700Y151825D01*
X1830575Y151850D01*
X1830450Y151875D01*
X1830375Y151900D01*
X1830350D01*
X1830075Y151850D01*
X1829850Y151775D01*
X1829675Y151700D01*
X1829650Y151650D01*
X1829625D01*
X1829475Y151550D01*
X1829325Y151425D01*
X1829225Y151300D01*
X1829150Y151175D01*
X1829100Y151075D01*
X1829050Y151000D01*
X1829025Y150950D01*
Y150925D01*
X1828975Y150675D01*
X1828950Y150425D01*
X1828975Y150225D01*
Y150075D01*
X1829025Y149925D01*
X1829050Y149825D01*
X1829075Y149775D01*
Y149750D01*
X1829400Y149250D01*
X1829725Y148800D01*
X1830075Y148425D01*
X1830375Y148100D01*
X1830650Y147825D01*
X1830875Y147625D01*
X1831025Y147525D01*
X1831050Y147475D01*
X1831075D01*
X1831575Y147175D01*
X1832075Y146900D01*
X1832525Y146700D01*
X1832950Y146525D01*
X1833300Y146400D01*
X1833575Y146325D01*
X1833675Y146275D01*
X1833750D01*
X1833800Y146250D01*
X1833825D01*
X1834400Y146175D01*
X1834650Y146125D01*
X1834875D01*
X1835050Y146100D01*
X1835325D01*
X1835900Y146125D01*
X1836175Y146150D01*
X1836400Y146175D01*
X1836600Y146200D01*
X1836750Y146225D01*
X1836850Y146250D01*
X1836875D01*
X1837475Y146425D01*
X1838000Y146625D01*
X1838475Y146850D01*
X1838900Y147075D01*
X1839225Y147250D01*
X1839500Y147425D01*
X1839575Y147500D01*
X1839650Y147525D01*
X1839675Y147575D01*
X1839700D01*
X1840125Y147950D01*
X1840525Y148325D01*
X1840875Y148700D01*
X1841150Y149050D01*
X1841375Y149375D01*
X1841550Y149625D01*
X1841600Y149725D01*
X1841650Y149800D01*
X1841675Y149825D01*
Y149850D01*
X1841925Y150350D01*
X1842125Y150875D01*
X1842275Y151350D01*
X1842400Y151775D01*
X1842475Y152150D01*
X1842500Y152300D01*
X1842525Y152450D01*
Y152550D01*
X1842550Y152625D01*
Y153300D01*
X1842525Y153875D01*
X1842450Y154375D01*
X1842375Y154825D01*
X1842275Y155225D01*
X1842250Y155375D01*
X1842200Y155500D01*
X1842175Y155600D01*
X1842150Y155675D01*
X1842125Y155725D01*
Y155750D01*
X1841900Y156275D01*
X1841650Y156750D01*
X1841400Y157175D01*
X1841125Y157550D01*
X1840900Y157850D01*
X1840700Y158075D01*
X1840575Y158225D01*
X1840550Y158275D01*
X1840525D01*
X1833225Y165850D01*
X1833000Y166100D01*
X1832825Y166375D01*
X1832650Y166650D01*
X1832525Y166925D01*
X1832325Y167425D01*
X1832175Y167925D01*
X1832100Y168325D01*
Y168500D01*
X1832075Y168650D01*
Y168775D01*
Y168875D01*
Y168925D01*
Y168950D01*
X1832125Y169300D01*
X1832175Y169625D01*
X1832375Y170200D01*
X1832650Y170700D01*
X1832925Y171125D01*
X1833200Y171450D01*
X1833425Y171675D01*
X1833525Y171775D01*
X1833600Y171825D01*
X1833625Y171875D01*
X1833650D01*
X1834075Y172150D01*
X1834500Y172350D01*
X1834900Y172500D01*
X1835250Y172600D01*
X1835575Y172650D01*
X1835825Y172700D01*
X1836325D01*
X1836625Y172675D01*
X1836750Y172650D01*
X1836850D01*
X1836925Y172625D01*
X1836950D01*
X1837275Y172550D01*
X1837550Y172450D01*
X1838100Y172175D01*
X1838550Y171875D01*
X1838900Y171550D01*
X1839200Y171250D01*
X1839400Y171000D01*
X1839475Y170925D01*
X1839525Y170850D01*
X1839575Y170800D01*
Y170775D01*
X1839700Y170575D01*
X1839850Y170400D01*
X1840000Y170250D01*
X1840150Y170150D01*
X1840300Y170075D01*
X1840400Y170025D01*
X1840475Y169975D01*
X1840500D01*
X1840650Y169950D01*
X1840900D01*
X1841150Y169975D01*
X1841350Y170025D01*
X1841475Y170050D01*
X1841525Y170075D01*
X1841750Y170225D01*
X1841925Y170400D01*
X1842050Y170550D01*
X1842150Y170725D01*
X1842225Y170850D01*
X1842275Y170950D01*
X1842300Y171025D01*
Y171050D01*
X1842325Y171275D01*
X1842350Y171475D01*
X1842325Y171650D01*
X1842300Y171800D01*
X1842275Y171900D01*
X1842225Y172000D01*
X1842200Y172050D01*
Y172075D01*
X1841875Y172550D01*
X1841575Y172975D01*
X1841250Y173300D01*
X1840975Y173575D01*
X1840725Y173750D01*
X1840550Y173900D01*
X1840425Y173975D01*
X1840375Y174000D01*
X1839850Y174400D01*
X1839350Y174725D01*
X1838875Y174975D01*
X1838450Y175175D01*
X1838100Y175325D01*
X1837825Y175400D01*
X1837725Y175450D01*
X1837650D01*
X1837600Y175475D01*
X1837575D01*
X1837000Y175600D01*
X1836750Y175625D01*
X1836525Y175650D01*
X1836350Y175675D01*
D02*
G37*
G36*
X1954850Y175600D02*
X1954675D01*
X1954450Y175575D01*
X1954275Y175550D01*
X1954175Y175525D01*
X1954150Y175500D01*
X1953800D01*
Y175300D01*
X1953775Y175275D01*
X1953700Y175225D01*
X1953650Y175175D01*
X1953625Y175150D01*
X1953475Y175000D01*
X1953375Y174850D01*
X1953300Y174725D01*
X1953275Y174700D01*
Y174675D01*
X1948000Y161575D01*
X1942675Y174775D01*
X1942500Y175050D01*
X1942275Y175250D01*
X1942050Y175400D01*
X1941825Y175500D01*
X1941625Y175550D01*
X1941475Y175600D01*
X1941325D01*
X1941125Y175575D01*
X1940975Y175550D01*
X1940875Y175525D01*
X1940850Y175500D01*
X1940800D01*
X1940500Y175325D01*
X1940275Y175125D01*
X1940125Y174900D01*
X1940000Y174675D01*
X1939950Y174475D01*
X1939900Y174325D01*
X1939875Y174225D01*
Y147550D01*
X1939900Y147325D01*
X1939950Y147150D01*
X1940000Y146975D01*
X1940100Y146825D01*
X1940175Y146700D01*
X1940225Y146600D01*
X1940275Y146550D01*
X1940300Y146525D01*
X1940475Y146375D01*
X1940650Y146275D01*
X1940800Y146200D01*
X1940975Y146150D01*
X1941125Y146125D01*
X1941225Y146100D01*
X1941325D01*
X1941550Y146125D01*
X1941750Y146175D01*
X1941925Y146225D01*
X1942075Y146325D01*
X1942200Y146400D01*
X1942300Y146450D01*
X1942350Y146500D01*
X1942375Y146525D01*
X1942525Y146700D01*
X1942625Y146875D01*
X1942725Y147025D01*
X1942775Y147200D01*
X1942800Y147350D01*
X1942825Y147450D01*
Y147525D01*
Y147550D01*
Y168575D01*
X1946650Y157850D01*
X1946750Y157675D01*
X1946875Y157525D01*
X1947125Y157300D01*
X1947250Y157225D01*
X1947350Y157175D01*
X1947400Y157125D01*
X1947425D01*
X1947625Y157050D01*
X1947800Y157025D01*
X1947950Y157000D01*
X1948000D01*
X1948325Y157025D01*
X1948600Y157125D01*
X1948825Y157250D01*
X1949000Y157400D01*
X1949150Y157550D01*
X1949250Y157675D01*
X1949300Y157775D01*
X1949325Y157800D01*
X1953175Y168550D01*
Y147550D01*
X1953200Y147325D01*
X1953250Y147150D01*
X1953300Y146975D01*
X1953400Y146825D01*
X1953475Y146700D01*
X1953525Y146600D01*
X1953575Y146550D01*
X1953600Y146525D01*
X1953775Y146375D01*
X1953950Y146275D01*
X1954125Y146200D01*
X1954300Y146150D01*
X1954450Y146125D01*
X1954575Y146100D01*
X1954675D01*
X1954875Y146125D01*
X1955075Y146175D01*
X1955250Y146225D01*
X1955400Y146325D01*
X1955500Y146400D01*
X1955600Y146450D01*
X1955650Y146500D01*
X1955675Y146525D01*
X1955825Y146700D01*
X1955925Y146875D01*
X1956025Y147025D01*
X1956075Y147200D01*
X1956100Y147350D01*
X1956125Y147450D01*
Y174125D01*
X1956075Y174450D01*
X1955975Y174725D01*
X1955825Y174975D01*
X1955650Y175150D01*
X1955475Y175300D01*
X1955325Y175425D01*
X1955225Y175475D01*
X1955175Y175500D01*
X1955125D01*
X1955000Y175550D01*
X1954850Y175600D01*
D02*
G37*
G36*
X2009125Y175625D02*
X2008700D01*
X2008650Y175600D01*
X2008625D01*
X2008525Y175575D01*
X2008450Y175550D01*
X2008375Y175525D01*
X2008350Y175500D01*
X2008225Y175450D01*
X2008125Y175400D01*
X2008075Y175375D01*
X2008050Y175350D01*
X2008000Y175300D01*
X2007925Y175250D01*
X2007875Y175200D01*
X2007850Y175175D01*
X2007700Y175000D01*
X2007675Y174925D01*
X2007650Y174900D01*
X1999475Y161350D01*
Y174150D01*
Y174250D01*
Y174350D01*
Y174425D01*
Y174450D01*
X1999425Y174550D01*
X1999375Y174650D01*
X1999350Y174700D01*
Y174725D01*
X1999300Y174850D01*
X1999275Y174900D01*
X1999225Y175000D01*
X1999150Y175100D01*
X1999100Y175150D01*
X1999075Y175175D01*
X1999000Y175250D01*
X1998925Y175300D01*
X1998900Y175350D01*
X1998875D01*
X1998675Y175475D01*
X1998600Y175500D01*
X1998575D01*
X1998475Y175550D01*
X1998375Y175600D01*
X1998300D01*
X1998200Y175625D01*
X1997800D01*
X1997750Y175600D01*
X1997725D01*
X1997600Y175575D01*
X1997475Y175550D01*
X1997400Y175525D01*
X1997375Y175500D01*
X1997275Y175450D01*
X1997200Y175400D01*
X1997175Y175375D01*
X1997150Y175350D01*
X1997025Y175300D01*
X1996950Y175225D01*
X1996900Y175150D01*
X1996875Y175125D01*
X1996850Y175100D01*
X1996800Y175025D01*
X1996750Y174975D01*
X1996725Y174950D01*
X1996625Y174800D01*
X1996600Y174750D01*
Y174725D01*
X1996550Y174575D01*
X1996525Y174500D01*
Y174450D01*
Y174425D01*
X1996500Y174250D01*
Y147475D01*
X1996525Y147375D01*
Y147325D01*
Y147300D01*
X1996550Y147175D01*
X1996575Y147075D01*
X1996600Y147000D01*
Y146975D01*
X1996650Y146875D01*
X1996700Y146825D01*
X1996750Y146775D01*
X1996800Y146650D01*
X1996850Y146575D01*
X1996900Y146525D01*
X1996925D01*
X1996975Y146475D01*
X1997075Y146400D01*
X1997150Y146325D01*
X1997200Y146300D01*
X1997325Y146225D01*
X1997375Y146200D01*
X1997500Y146150D01*
X1997600Y146125D01*
X1997700D01*
X1997875Y146100D01*
X1998125D01*
X1998225Y146125D01*
X1998300D01*
X1998400Y146150D01*
X1998475Y146175D01*
X1998550Y146200D01*
X1998575D01*
X1998750Y146275D01*
X1998825Y146325D01*
X1998850D01*
X1999000Y146475D01*
X1999050Y146500D01*
X1999075Y146525D01*
X1999150Y146625D01*
X1999225Y146725D01*
X1999250Y146800D01*
X1999275Y146825D01*
X1999325Y146925D01*
X1999350Y146975D01*
X1999400Y147075D01*
X1999425Y147200D01*
X1999475Y147275D01*
Y147325D01*
Y147500D01*
Y147550D01*
Y147575D01*
Y156850D01*
X2002000Y161200D01*
X2007550Y147000D01*
X2007750Y146700D01*
X2007975Y146475D01*
X2008200Y146325D01*
X2008425Y146225D01*
X2008625Y146150D01*
X2008800Y146125D01*
X2008900Y146100D01*
X2008950D01*
X2009175Y146125D01*
X2009350Y146150D01*
X2009450Y146175D01*
X2009500Y146200D01*
X2009700Y146300D01*
X2009875Y146425D01*
X2010025Y146550D01*
X2010150Y146700D01*
X2010225Y146825D01*
X2010275Y146925D01*
X2010325Y147000D01*
Y147025D01*
X2010375Y147225D01*
X2010400Y147425D01*
X2010425Y147625D01*
X2010400Y147800D01*
X2010375Y147950D01*
X2010350Y148050D01*
X2010325Y148125D01*
Y148150D01*
X2003975Y163800D01*
X2010225Y173350D01*
X2010275Y173500D01*
X2010300Y173525D01*
Y173550D01*
X2010350Y173650D01*
X2010400Y173775D01*
X2010425Y173850D01*
X2010450Y173900D01*
Y174300D01*
X2010425Y174375D01*
X2010400Y174425D01*
Y174450D01*
X2010375Y174550D01*
X2010350Y174650D01*
X2010325Y174725D01*
X2010300Y174750D01*
X2010250Y174875D01*
X2010225Y174925D01*
X2010200Y174950D01*
X2010125Y175050D01*
X2010050Y175125D01*
X2010000Y175150D01*
X2009975Y175175D01*
X2009850Y175325D01*
X2009800Y175350D01*
X2009775Y175375D01*
X2009675Y175450D01*
X2009575Y175475D01*
X2009525Y175500D01*
X2009500D01*
X2009375Y175550D01*
X2009275Y175600D01*
X2009200D01*
X2009125Y175625D01*
D02*
G37*
G36*
X1968025Y175600D02*
X1967400D01*
X1967075Y175475D01*
X1966825Y175325D01*
X1966625Y175125D01*
X1966475Y174925D01*
X1966375Y174750D01*
X1966300Y174600D01*
X1966250Y174500D01*
Y174450D01*
X1959625Y147850D01*
X1959600Y147650D01*
Y147450D01*
X1959625Y147275D01*
X1959675Y147125D01*
X1959700Y147000D01*
X1959750Y146900D01*
X1959800Y146825D01*
Y146800D01*
X1959925Y146625D01*
X1960075Y146475D01*
X1960225Y146375D01*
X1960375Y146275D01*
X1960500Y146200D01*
X1960625Y146150D01*
X1960700Y146125D01*
X1960725D01*
X1960825Y146100D01*
X1961025D01*
X1961400Y146150D01*
X1961700Y146275D01*
X1961950Y146425D01*
X1962125Y146625D01*
X1962275Y146825D01*
X1962375Y146975D01*
X1962425Y147100D01*
X1962450Y147150D01*
X1963875Y152750D01*
X1971525D01*
X1972925Y147200D01*
X1972975Y147025D01*
X1973050Y146875D01*
X1973225Y146625D01*
X1973325Y146525D01*
X1973375Y146450D01*
X1973425Y146425D01*
X1973450Y146400D01*
X1973600Y146300D01*
X1973775Y146225D01*
X1974075Y146150D01*
X1974200Y146125D01*
X1974300Y146100D01*
X1974525D01*
X1974650Y146125D01*
X1974725Y146150D01*
X1974750D01*
X1974950Y146225D01*
X1975125Y146325D01*
X1975250Y146425D01*
X1975375Y146525D01*
X1975475Y146625D01*
X1975550Y146725D01*
X1975575Y146775D01*
X1975600Y146800D01*
X1975700Y146975D01*
X1975775Y147150D01*
X1975800Y147325D01*
X1975825Y147450D01*
Y147650D01*
X1975800Y147700D01*
Y147725D01*
X1969150Y174450D01*
X1969025Y174750D01*
X1968850Y175000D01*
X1968675Y175200D01*
X1968475Y175375D01*
X1968275Y175475D01*
X1968125Y175550D01*
X1968025Y175600D01*
D02*
G37*
G36*
X1917150Y175625D02*
X1911500D01*
X1911275Y175600D01*
X1911075Y175550D01*
X1910875Y175475D01*
X1910725Y175400D01*
X1910600Y175325D01*
X1910525Y175250D01*
X1910475Y175200D01*
X1910450Y175175D01*
X1910325Y175000D01*
X1910225Y174850D01*
X1910150Y174675D01*
X1910100Y174525D01*
X1910075Y174400D01*
X1910050Y174300D01*
Y147575D01*
X1910075Y147350D01*
X1910125Y147150D01*
X1910175Y146975D01*
X1910275Y146825D01*
X1910350Y146700D01*
X1910400Y146600D01*
X1910450Y146550D01*
X1910475Y146525D01*
X1910650Y146375D01*
X1910825Y146275D01*
X1910975Y146200D01*
X1911150Y146150D01*
X1911300Y146125D01*
X1911400Y146100D01*
X1911500D01*
X1911725Y146125D01*
X1911925Y146175D01*
X1912100Y146225D01*
X1912250Y146325D01*
X1912375Y146400D01*
X1912475Y146450D01*
X1912525Y146500D01*
X1912550Y146525D01*
X1912700Y146700D01*
X1912800Y146875D01*
X1912900Y147050D01*
X1912950Y147200D01*
X1912975Y147350D01*
X1913000Y147475D01*
Y147550D01*
Y147575D01*
Y159150D01*
X1916750D01*
X1921150Y147075D01*
X1921350Y146750D01*
X1921550Y146500D01*
X1921775Y146350D01*
X1922000Y146225D01*
X1922200Y146150D01*
X1922375Y146125D01*
X1922475Y146100D01*
X1922525D01*
X1922750Y146125D01*
X1922900Y146150D01*
X1923025Y146175D01*
X1923050Y146200D01*
X1923250Y146275D01*
X1923425Y146400D01*
X1923550Y146500D01*
X1923675Y146625D01*
X1923750Y146750D01*
X1923800Y146825D01*
X1923850Y146900D01*
Y146925D01*
X1923925Y147125D01*
X1923950Y147325D01*
X1923975Y147525D01*
Y147675D01*
X1923950Y147825D01*
Y147925D01*
X1923925Y148000D01*
Y148025D01*
X1919597Y159666D01*
X1920175Y159925D01*
X1920800Y160325D01*
X1921350Y160750D01*
X1921825Y161150D01*
X1922175Y161525D01*
X1922325Y161700D01*
X1922450Y161850D01*
X1922550Y161950D01*
X1922625Y162050D01*
X1922650Y162100D01*
X1922675Y162125D01*
X1922900Y162450D01*
X1923075Y162800D01*
X1923250Y163150D01*
X1923375Y163475D01*
X1923600Y164125D01*
X1923750Y164725D01*
X1923800Y165000D01*
X1923825Y165250D01*
X1923875Y165450D01*
Y165650D01*
X1923900Y165800D01*
Y165900D01*
Y165975D01*
Y166000D01*
Y168800D01*
X1923875Y169325D01*
X1923825Y169800D01*
X1923725Y170275D01*
X1923575Y170725D01*
X1923425Y171150D01*
X1923250Y171550D01*
X1923075Y171925D01*
X1922900Y172250D01*
X1922700Y172550D01*
X1922525Y172825D01*
X1922350Y173050D01*
X1922200Y173250D01*
X1922075Y173400D01*
X1921975Y173500D01*
X1921900Y173575D01*
X1921875Y173600D01*
X1921500Y173950D01*
X1921100Y174275D01*
X1920675Y174550D01*
X1920275Y174775D01*
X1919875Y174975D01*
X1919450Y175125D01*
X1919075Y175275D01*
X1918700Y175375D01*
X1918350Y175450D01*
X1918025Y175525D01*
X1917750Y175575D01*
X1917500Y175600D01*
X1917300D01*
X1917150Y175625D01*
D02*
G37*
G36*
X1905200D02*
X1896400D01*
X1896175Y175600D01*
X1895975Y175575D01*
X1895775Y175500D01*
X1895625Y175425D01*
X1895500Y175350D01*
X1895425Y175300D01*
X1895375Y175250D01*
X1895350Y175225D01*
X1895225Y175075D01*
X1895125Y174900D01*
X1895050Y174725D01*
X1895000Y174575D01*
X1894975Y174425D01*
X1894950Y174300D01*
Y147550D01*
X1894975Y147325D01*
X1895025Y147125D01*
X1895075Y146925D01*
X1895150Y146775D01*
X1895225Y146650D01*
X1895300Y146575D01*
X1895325Y146525D01*
X1895350Y146500D01*
X1895500Y146375D01*
X1895675Y146275D01*
X1895850Y146200D01*
X1896025Y146150D01*
X1896175Y146125D01*
X1896300Y146100D01*
X1905075D01*
X1905325Y146125D01*
X1905525Y146175D01*
X1905725Y146225D01*
X1905875Y146300D01*
X1906000Y146375D01*
X1906100Y146450D01*
X1906150Y146475D01*
X1906175Y146500D01*
X1906300Y146650D01*
X1906400Y146825D01*
X1906475Y147000D01*
X1906525Y147175D01*
X1906550Y147325D01*
X1906575Y147450D01*
Y147550D01*
X1906550Y147775D01*
X1906525Y148000D01*
X1906450Y148175D01*
X1906375Y148325D01*
X1906300Y148450D01*
X1906250Y148525D01*
X1906200Y148575D01*
X1906175Y148600D01*
X1906000Y148750D01*
X1905825Y148850D01*
X1905650Y148925D01*
X1905475Y148975D01*
X1905300Y149000D01*
X1905200Y149025D01*
X1897900D01*
Y159650D01*
X1902750D01*
X1903000Y159675D01*
X1903200Y159725D01*
X1903400Y159775D01*
X1903550Y159850D01*
X1903675Y159925D01*
X1903750Y160000D01*
X1903800Y160025D01*
X1903825Y160050D01*
X1903950Y160225D01*
X1904050Y160400D01*
X1904125Y160575D01*
X1904175Y160750D01*
X1904200Y160925D01*
X1904225Y161050D01*
Y161125D01*
Y161150D01*
X1904200Y161375D01*
X1904175Y161550D01*
X1904100Y161725D01*
X1904025Y161875D01*
X1903950Y162000D01*
X1903900Y162075D01*
X1903850Y162125D01*
X1903825Y162150D01*
X1903675Y162300D01*
X1903500Y162400D01*
X1903300Y162475D01*
X1903150Y162525D01*
X1902975Y162550D01*
X1902875Y162575D01*
X1897900D01*
Y172700D01*
X1905075D01*
X1905325Y172725D01*
X1905525Y172775D01*
X1905725Y172825D01*
X1905875Y172900D01*
X1906000Y172975D01*
X1906100Y173050D01*
X1906150Y173075D01*
X1906175Y173100D01*
X1906300Y173275D01*
X1906400Y173450D01*
X1906475Y173625D01*
X1906525Y173800D01*
X1906550Y173975D01*
X1906575Y174100D01*
Y174200D01*
X1906550Y174425D01*
X1906525Y174625D01*
X1906450Y174800D01*
X1906375Y174950D01*
X1906300Y175050D01*
X1906250Y175150D01*
X1906200Y175200D01*
X1906175Y175225D01*
X1906000Y175350D01*
X1905825Y175450D01*
X1905650Y175525D01*
X1905475Y175575D01*
X1905300Y175600D01*
X1905200Y175625D01*
D02*
G37*
G36*
X1884700D02*
X1878950D01*
X1878725Y175600D01*
X1878525Y175575D01*
X1878325Y175500D01*
X1878175Y175425D01*
X1878050Y175350D01*
X1877975Y175300D01*
X1877925Y175250D01*
X1877900Y175225D01*
X1877775Y175075D01*
X1877675Y174900D01*
X1877600Y174700D01*
X1877550Y174550D01*
X1877525Y174375D01*
X1877500Y174275D01*
Y147550D01*
X1877525Y147325D01*
X1877575Y147125D01*
X1877625Y146925D01*
X1877700Y146775D01*
X1877775Y146650D01*
X1877850Y146575D01*
X1877875Y146525D01*
X1877900Y146500D01*
X1878050Y146375D01*
X1878225Y146275D01*
X1878400Y146200D01*
X1878575Y146150D01*
X1878725Y146125D01*
X1878850Y146100D01*
X1884475D01*
X1884975Y146125D01*
X1885450Y146175D01*
X1885875Y146275D01*
X1886250Y146375D01*
X1886550Y146450D01*
X1886775Y146550D01*
X1886925Y146600D01*
X1886975Y146625D01*
X1887500Y146850D01*
X1887975Y147100D01*
X1888400Y147350D01*
X1888750Y147600D01*
X1889050Y147825D01*
X1889250Y148000D01*
X1889375Y148100D01*
X1889425Y148150D01*
X1889750Y148500D01*
X1890050Y148900D01*
X1890300Y149250D01*
X1890525Y149600D01*
X1890700Y149925D01*
X1890825Y150150D01*
X1890875Y150250D01*
X1890900Y150325D01*
X1890925Y150350D01*
Y150375D01*
X1891100Y150850D01*
X1891225Y151325D01*
X1891325Y151775D01*
X1891375Y152200D01*
X1891425Y152550D01*
X1891450Y152825D01*
Y168675D01*
X1891425Y169175D01*
X1891375Y169650D01*
X1891300Y170075D01*
X1891200Y170450D01*
X1891100Y170725D01*
X1891025Y170950D01*
X1890975Y171100D01*
X1890950Y171150D01*
X1890725Y171675D01*
X1890450Y172175D01*
X1890200Y172575D01*
X1889975Y172925D01*
X1889750Y173200D01*
X1889575Y173400D01*
X1889475Y173525D01*
X1889425Y173575D01*
X1889050Y173925D01*
X1888625Y174225D01*
X1888225Y174475D01*
X1887850Y174700D01*
X1887500Y174875D01*
X1887250Y175025D01*
X1887150Y175075D01*
X1887075Y175100D01*
X1887025Y175125D01*
X1887000D01*
X1886575Y175300D01*
X1886125Y175425D01*
X1885700Y175500D01*
X1885325Y175575D01*
X1884975Y175600D01*
X1884700Y175625D01*
D02*
G37*
G36*
X1865025D02*
X1864925D01*
X1864700Y175600D01*
X1864500Y175575D01*
X1864300Y175500D01*
X1864150Y175425D01*
X1864025Y175350D01*
X1863950Y175300D01*
X1863900Y175250D01*
X1863875Y175225D01*
X1863750Y175075D01*
X1863650Y174900D01*
X1863575Y174725D01*
X1863525Y174575D01*
X1863500Y174425D01*
X1863475Y174300D01*
Y147550D01*
X1863500Y147325D01*
X1863550Y147125D01*
X1863600Y146925D01*
X1863675Y146775D01*
X1863750Y146650D01*
X1863825Y146575D01*
X1863850Y146525D01*
X1863875Y146500D01*
X1864025Y146375D01*
X1864200Y146275D01*
X1864375Y146200D01*
X1864550Y146150D01*
X1864700Y146125D01*
X1864825Y146100D01*
X1873600D01*
X1873825Y146125D01*
X1874025Y146150D01*
X1874200Y146225D01*
X1874350Y146300D01*
X1874475Y146350D01*
X1874550Y146425D01*
X1874600Y146450D01*
X1874625Y146475D01*
X1874775Y146650D01*
X1874900Y146825D01*
X1874975Y147000D01*
X1875050Y147175D01*
X1875075Y147325D01*
X1875100Y147450D01*
Y147550D01*
X1875075Y147775D01*
X1875025Y148000D01*
X1874950Y148175D01*
X1874875Y148325D01*
X1874800Y148450D01*
X1874725Y148550D01*
X1874675Y148600D01*
X1874650Y148625D01*
X1874500Y148750D01*
X1874325Y148850D01*
X1874150Y148925D01*
X1873975Y148975D01*
X1873825Y149000D01*
X1873700Y149025D01*
X1866425D01*
Y174200D01*
X1866400Y174425D01*
X1866350Y174625D01*
X1866275Y174800D01*
X1866200Y174950D01*
X1866100Y175075D01*
X1866025Y175150D01*
X1865975Y175200D01*
X1865950Y175225D01*
X1865800Y175350D01*
X1865625Y175450D01*
X1865450Y175525D01*
X1865300Y175575D01*
X1865150Y175600D01*
X1865025Y175625D01*
D02*
G37*
G36*
X1853225D02*
X1853000D01*
X1852450Y175600D01*
X1851950Y175550D01*
X1851500Y175450D01*
X1851075Y175350D01*
X1850750Y175250D01*
X1850500Y175150D01*
X1850400Y175125D01*
X1850325Y175100D01*
X1850300Y175075D01*
X1850275D01*
X1849800Y174850D01*
X1849375Y174600D01*
X1849000Y174350D01*
X1848700Y174125D01*
X1848425Y173900D01*
X1848225Y173725D01*
X1848125Y173625D01*
X1848075Y173575D01*
X1847725Y173225D01*
X1847425Y172850D01*
X1847175Y172475D01*
X1846975Y172125D01*
X1846800Y171825D01*
X1846700Y171600D01*
X1846650Y171500D01*
X1846625Y171425D01*
X1846600Y171400D01*
Y171375D01*
X1846400Y170875D01*
X1846275Y170400D01*
X1846175Y169950D01*
X1846100Y169550D01*
X1846050Y169175D01*
X1846025Y168925D01*
Y153075D01*
X1846050Y152525D01*
X1846100Y152025D01*
X1846200Y151575D01*
X1846300Y151175D01*
X1846400Y150850D01*
X1846500Y150600D01*
X1846525Y150500D01*
X1846550Y150425D01*
X1846575Y150400D01*
Y150375D01*
X1846800Y149900D01*
X1847025Y149475D01*
X1847275Y149100D01*
X1847525Y148775D01*
X1847750Y148500D01*
X1847925Y148325D01*
X1848025Y148200D01*
X1848075Y148150D01*
X1848425Y147800D01*
X1848825Y147500D01*
X1849175Y147250D01*
X1849525Y147025D01*
X1849850Y146875D01*
X1850075Y146750D01*
X1850175Y146700D01*
X1850250Y146675D01*
X1850275Y146650D01*
X1850300D01*
X1850775Y146475D01*
X1851250Y146325D01*
X1851700Y146225D01*
X1852100Y146175D01*
X1852475Y146125D01*
X1852750Y146100D01*
X1853000D01*
X1853500Y146125D01*
X1853975Y146175D01*
X1854400Y146275D01*
X1854775Y146375D01*
X1855075Y146450D01*
X1855300Y146550D01*
X1855450Y146600D01*
X1855500Y146625D01*
X1856025Y146850D01*
X1856500Y147100D01*
X1856925Y147350D01*
X1857275Y147600D01*
X1857575Y147825D01*
X1857775Y148000D01*
X1857900Y148100D01*
X1857950Y148150D01*
X1858275Y148500D01*
X1858575Y148900D01*
X1858825Y149250D01*
X1859050Y149600D01*
X1859225Y149925D01*
X1859350Y150150D01*
X1859400Y150250D01*
X1859425Y150325D01*
X1859450Y150350D01*
Y150375D01*
X1859625Y150850D01*
X1859750Y151325D01*
X1859850Y151775D01*
X1859900Y152200D01*
X1859950Y152550D01*
X1859975Y152825D01*
Y168675D01*
X1859950Y169175D01*
X1859900Y169650D01*
X1859825Y170075D01*
X1859725Y170450D01*
X1859625Y170725D01*
X1859550Y170950D01*
X1859500Y171100D01*
X1859475Y171150D01*
X1859250Y171675D01*
X1858975Y172175D01*
X1858725Y172575D01*
X1858500Y172925D01*
X1858275Y173200D01*
X1858100Y173400D01*
X1858000Y173525D01*
X1857950Y173575D01*
X1857575Y173925D01*
X1857150Y174225D01*
X1856750Y174475D01*
X1856375Y174700D01*
X1856025Y174875D01*
X1855775Y175025D01*
X1855675Y175075D01*
X1855600Y175100D01*
X1855550Y175125D01*
X1855525D01*
X1855100Y175300D01*
X1854650Y175425D01*
X1854225Y175500D01*
X1853850Y175575D01*
X1853500Y175600D01*
X1853225Y175625D01*
D02*
G37*
G36*
X1806300D02*
X1800650D01*
X1800425Y175600D01*
X1800225Y175550D01*
X1800025Y175475D01*
X1799875Y175400D01*
X1799750Y175325D01*
X1799675Y175250D01*
X1799625Y175200D01*
X1799600Y175175D01*
X1799475Y175000D01*
X1799375Y174850D01*
X1799300Y174675D01*
X1799250Y174525D01*
X1799225Y174400D01*
X1799200Y174300D01*
Y147550D01*
X1799225Y147325D01*
X1799275Y147150D01*
X1799325Y146975D01*
X1799425Y146825D01*
X1799500Y146700D01*
X1799550Y146600D01*
X1799600Y146550D01*
X1799625Y146525D01*
X1799800Y146375D01*
X1799975Y146275D01*
X1800125Y146200D01*
X1800300Y146150D01*
X1800450Y146125D01*
X1800550Y146100D01*
X1800650D01*
X1800875Y146125D01*
X1801075Y146175D01*
X1801250Y146225D01*
X1801400Y146325D01*
X1801525Y146400D01*
X1801625Y146450D01*
X1801675Y146500D01*
X1801700Y146525D01*
X1801850Y146700D01*
X1801950Y146875D01*
X1802050Y147025D01*
X1802100Y147200D01*
X1802125Y147350D01*
X1802150Y147450D01*
Y147525D01*
Y147550D01*
Y159150D01*
X1806175D01*
X1806700Y159175D01*
X1807200Y159225D01*
X1807675Y159325D01*
X1808125Y159475D01*
X1808575Y159625D01*
X1808975Y159775D01*
X1809325Y159975D01*
X1809675Y160150D01*
X1809975Y160325D01*
X1810250Y160525D01*
X1810475Y160675D01*
X1810675Y160850D01*
X1810825Y160975D01*
X1810925Y161075D01*
X1811000Y161125D01*
X1811025Y161150D01*
X1811375Y161525D01*
X1811700Y161925D01*
X1811975Y162350D01*
X1812200Y162750D01*
X1812400Y163150D01*
X1812550Y163575D01*
X1812700Y163950D01*
X1812800Y164325D01*
X1812875Y164675D01*
X1812950Y165000D01*
X1813000Y165275D01*
X1813025Y165525D01*
Y165725D01*
X1813050Y165875D01*
Y168750D01*
X1813025Y169275D01*
X1812975Y169775D01*
X1812875Y170250D01*
X1812725Y170700D01*
X1812575Y171150D01*
X1812400Y171550D01*
X1812225Y171900D01*
X1812050Y172250D01*
X1811850Y172550D01*
X1811675Y172825D01*
X1811500Y173050D01*
X1811350Y173250D01*
X1811225Y173400D01*
X1811125Y173500D01*
X1811050Y173575D01*
X1811025Y173600D01*
X1810650Y173950D01*
X1810250Y174275D01*
X1809825Y174550D01*
X1809425Y174775D01*
X1809025Y174975D01*
X1808600Y175125D01*
X1808225Y175275D01*
X1807850Y175375D01*
X1807500Y175450D01*
X1807175Y175525D01*
X1806900Y175575D01*
X1806650Y175600D01*
X1806450D01*
X1806300Y175625D01*
D02*
G37*
G36*
X1788950D02*
X1788725D01*
X1788175Y175600D01*
X1787675Y175550D01*
X1787225Y175450D01*
X1786800Y175350D01*
X1786475Y175250D01*
X1786225Y175150D01*
X1786125Y175125D01*
X1786050Y175100D01*
X1786025Y175075D01*
X1786000D01*
X1785525Y174850D01*
X1785100Y174600D01*
X1784725Y174350D01*
X1784425Y174125D01*
X1784150Y173900D01*
X1783950Y173725D01*
X1783850Y173625D01*
X1783800Y173575D01*
X1783450Y173225D01*
X1783150Y172850D01*
X1782900Y172475D01*
X1782700Y172125D01*
X1782525Y171825D01*
X1782425Y171600D01*
X1782375Y171500D01*
X1782350Y171425D01*
X1782325Y171400D01*
Y171375D01*
X1782125Y170875D01*
X1782000Y170400D01*
X1781900Y169950D01*
X1781825Y169550D01*
X1781775Y169175D01*
X1781750Y168925D01*
Y153075D01*
X1781775Y152525D01*
X1781825Y152025D01*
X1781925Y151575D01*
X1782025Y151175D01*
X1782125Y150850D01*
X1782225Y150600D01*
X1782250Y150500D01*
X1782275Y150425D01*
X1782300Y150400D01*
Y150375D01*
X1782525Y149900D01*
X1782750Y149475D01*
X1783000Y149100D01*
X1783250Y148775D01*
X1783475Y148500D01*
X1783650Y148325D01*
X1783750Y148200D01*
X1783800Y148150D01*
X1784150Y147800D01*
X1784550Y147500D01*
X1784900Y147250D01*
X1785250Y147025D01*
X1785575Y146875D01*
X1785800Y146750D01*
X1785900Y146700D01*
X1785975Y146675D01*
X1786000Y146650D01*
X1786025D01*
X1786500Y146475D01*
X1786975Y146325D01*
X1787425Y146225D01*
X1787825Y146175D01*
X1788200Y146125D01*
X1788475Y146100D01*
X1788725D01*
X1789225Y146125D01*
X1789700Y146175D01*
X1790125Y146275D01*
X1790500Y146375D01*
X1790800Y146450D01*
X1791025Y146550D01*
X1791175Y146600D01*
X1791225Y146625D01*
X1791750Y146850D01*
X1792225Y147100D01*
X1792650Y147350D01*
X1793000Y147600D01*
X1793300Y147825D01*
X1793500Y148000D01*
X1793625Y148100D01*
X1793675Y148150D01*
X1794000Y148500D01*
X1794300Y148900D01*
X1794550Y149250D01*
X1794775Y149600D01*
X1794950Y149925D01*
X1795075Y150150D01*
X1795125Y150250D01*
X1795150Y150325D01*
X1795175Y150350D01*
Y150375D01*
X1795350Y150850D01*
X1795475Y151325D01*
X1795575Y151775D01*
X1795625Y152200D01*
X1795675Y152550D01*
X1795700Y152825D01*
Y168675D01*
X1795675Y169175D01*
X1795625Y169650D01*
X1795550Y170075D01*
X1795450Y170450D01*
X1795350Y170725D01*
X1795275Y170950D01*
X1795225Y171100D01*
X1795200Y171150D01*
X1794975Y171675D01*
X1794700Y172175D01*
X1794450Y172575D01*
X1794225Y172925D01*
X1794000Y173200D01*
X1793825Y173400D01*
X1793725Y173525D01*
X1793675Y173575D01*
X1793300Y173925D01*
X1792875Y174225D01*
X1792475Y174475D01*
X1792100Y174700D01*
X1791750Y174875D01*
X1791500Y175025D01*
X1791400Y175075D01*
X1791325Y175100D01*
X1791275Y175125D01*
X1791250D01*
X1790825Y175300D01*
X1790375Y175425D01*
X1789950Y175500D01*
X1789575Y175575D01*
X1789225Y175600D01*
X1788950Y175625D01*
D02*
G37*
G36*
X1776925D02*
X1765700D01*
X1765475Y175600D01*
X1765300Y175575D01*
X1765125Y175500D01*
X1764975Y175425D01*
X1764850Y175350D01*
X1764775Y175300D01*
X1764725Y175250D01*
X1764700Y175225D01*
X1764575Y175075D01*
X1764475Y174900D01*
X1764400Y174750D01*
X1764350Y174600D01*
X1764325Y174450D01*
X1764300Y174350D01*
Y174150D01*
X1764325Y173950D01*
X1764375Y173750D01*
X1764425Y173575D01*
X1764500Y173425D01*
X1764575Y173300D01*
X1764650Y173200D01*
X1764675Y173150D01*
X1764700Y173125D01*
X1764850Y172975D01*
X1765025Y172875D01*
X1765200Y172800D01*
X1765350Y172750D01*
X1765500Y172725D01*
X1765600Y172700D01*
X1769800D01*
Y147550D01*
X1769825Y147325D01*
X1769875Y147150D01*
X1769925Y146975D01*
X1770025Y146825D01*
X1770100Y146700D01*
X1770150Y146600D01*
X1770200Y146550D01*
X1770225Y146525D01*
X1770400Y146375D01*
X1770575Y146275D01*
X1770750Y146200D01*
X1770925Y146150D01*
X1771050Y146125D01*
X1771175Y146100D01*
X1771275D01*
X1771475Y146125D01*
X1771675Y146175D01*
X1771850Y146225D01*
X1772000Y146325D01*
X1772100Y146400D01*
X1772200Y146450D01*
X1772250Y146500D01*
X1772275Y146525D01*
X1772425Y146700D01*
X1772525Y146875D01*
X1772625Y147025D01*
X1772675Y147200D01*
X1772700Y147350D01*
X1772725Y147450D01*
Y147525D01*
Y147550D01*
Y172700D01*
X1776825D01*
X1777050Y172725D01*
X1777225Y172775D01*
X1777400Y172825D01*
X1777550Y172925D01*
X1777675Y173000D01*
X1777750Y173050D01*
X1777800Y173100D01*
X1777825Y173125D01*
X1777975Y173300D01*
X1778075Y173475D01*
X1778150Y173650D01*
X1778200Y173800D01*
X1778225Y173950D01*
X1778250Y174050D01*
Y174250D01*
X1778225Y174450D01*
X1778175Y174625D01*
X1778125Y174800D01*
X1778050Y174925D01*
X1777950Y175050D01*
X1777900Y175125D01*
X1777850Y175175D01*
X1777825Y175200D01*
X1777675Y175350D01*
X1777500Y175450D01*
X1777325Y175525D01*
X1777175Y175575D01*
X1777025Y175600D01*
X1776925Y175625D01*
D02*
G37*
%LPD*%
G36*
X1970950Y155700D02*
X1964450D01*
X1967700Y169525D01*
X1970950Y155700D01*
D02*
G37*
G36*
X1917600Y172650D02*
X1918150Y172525D01*
X1918625Y172325D01*
X1919025Y172125D01*
X1919350Y171925D01*
X1919600Y171725D01*
X1919750Y171600D01*
X1919775Y171575D01*
X1919800Y171550D01*
X1920000Y171325D01*
X1920175Y171100D01*
X1920475Y170625D01*
X1920675Y170175D01*
X1920800Y169750D01*
X1920900Y169375D01*
X1920925Y169200D01*
Y169075D01*
X1920950Y168950D01*
Y168875D01*
Y168825D01*
Y168800D01*
Y166000D01*
Y165700D01*
X1920900Y165425D01*
X1920775Y164900D01*
X1920575Y164425D01*
X1920375Y164025D01*
X1920175Y163675D01*
X1919975Y163425D01*
X1919900Y163350D01*
X1919850Y163275D01*
X1919825Y163250D01*
X1919800Y163225D01*
X1919575Y163025D01*
X1919350Y162850D01*
X1918875Y162550D01*
X1918425Y162350D01*
X1917975Y162225D01*
X1917600Y162125D01*
X1917450Y162100D01*
X1917300D01*
X1917175Y162075D01*
X1913000D01*
Y172700D01*
X1917325D01*
X1917600Y172650D01*
D02*
G37*
G36*
X1884775Y172675D02*
X1885075Y172650D01*
X1885650Y172500D01*
X1886175Y172275D01*
X1886625Y172050D01*
X1887000Y171800D01*
X1887150Y171675D01*
X1887275Y171575D01*
X1887375Y171500D01*
X1887450Y171425D01*
X1887500Y171400D01*
X1887525Y171375D01*
X1887850Y170950D01*
X1888100Y170500D01*
X1888275Y170050D01*
X1888375Y169625D01*
X1888450Y169250D01*
X1888475Y169100D01*
Y168950D01*
X1888500Y168825D01*
Y168750D01*
Y168700D01*
Y168675D01*
Y153075D01*
Y152750D01*
X1888450Y152450D01*
X1888325Y151900D01*
X1888125Y151400D01*
X1887925Y150975D01*
X1887700Y150650D01*
X1887500Y150375D01*
X1887425Y150300D01*
X1887375Y150225D01*
X1887350Y150200D01*
X1887325Y150175D01*
X1887100Y149975D01*
X1886875Y149800D01*
X1886375Y149500D01*
X1885900Y149300D01*
X1885450Y149175D01*
X1885075Y149075D01*
X1884900Y149050D01*
X1884750D01*
X1884650Y149025D01*
X1880450D01*
Y172700D01*
X1884475D01*
X1884775Y172675D01*
D02*
G37*
G36*
X1853300D02*
X1853575Y172650D01*
X1853825Y172600D01*
X1854075Y172550D01*
X1854250Y172475D01*
X1854400Y172425D01*
X1854500Y172400D01*
X1854525Y172375D01*
X1854800Y172250D01*
X1855075Y172100D01*
X1855300Y171950D01*
X1855500Y171800D01*
X1855675Y171650D01*
X1855800Y171525D01*
X1855875Y171450D01*
X1855900Y171425D01*
X1856225Y171025D01*
X1856500Y170650D01*
X1856575Y170500D01*
X1856650Y170375D01*
X1856675Y170275D01*
X1856700Y170250D01*
X1856800Y169975D01*
X1856900Y169700D01*
X1856950Y169425D01*
X1856975Y169175D01*
X1857000Y168975D01*
X1857025Y168825D01*
Y168725D01*
Y168675D01*
Y153075D01*
X1857000Y152750D01*
X1856975Y152450D01*
X1856825Y151875D01*
X1856600Y151350D01*
X1856375Y150900D01*
X1856125Y150500D01*
X1856000Y150350D01*
X1855900Y150225D01*
X1855825Y150125D01*
X1855750Y150050D01*
X1855725Y150000D01*
X1855700Y149975D01*
X1855275Y149650D01*
X1854825Y149425D01*
X1854375Y149250D01*
X1853950Y149150D01*
X1853575Y149075D01*
X1853400Y149050D01*
X1853275D01*
X1853150Y149025D01*
X1853000D01*
X1852700Y149050D01*
X1852400Y149075D01*
X1851825Y149200D01*
X1851350Y149375D01*
X1850925Y149600D01*
X1850575Y149800D01*
X1850325Y149975D01*
X1850250Y150050D01*
X1850175Y150100D01*
X1850150Y150150D01*
X1850125D01*
X1849925Y150375D01*
X1849750Y150625D01*
X1849450Y151125D01*
X1849250Y151600D01*
X1849125Y152075D01*
X1849025Y152475D01*
X1849000Y152650D01*
Y152800D01*
X1848975Y152900D01*
Y153000D01*
Y153050D01*
Y153075D01*
Y168675D01*
X1849025Y169275D01*
X1849125Y169800D01*
X1849275Y170250D01*
X1849450Y170650D01*
X1849600Y170950D01*
X1849750Y171175D01*
X1849850Y171325D01*
X1849900Y171375D01*
X1850175Y171600D01*
X1850450Y171825D01*
X1850725Y172000D01*
X1850975Y172150D01*
X1851500Y172375D01*
X1851975Y172525D01*
X1852400Y172625D01*
X1852575Y172650D01*
X1852725Y172675D01*
X1852825Y172700D01*
X1853000D01*
X1853300Y172675D01*
D02*
G37*
G36*
X1806750Y172650D02*
X1807300Y172525D01*
X1807775Y172325D01*
X1808175Y172125D01*
X1808500Y171925D01*
X1808750Y171725D01*
X1808900Y171600D01*
X1808925Y171575D01*
X1808950Y171550D01*
X1809150Y171325D01*
X1809325Y171100D01*
X1809625Y170625D01*
X1809825Y170150D01*
X1809950Y169725D01*
X1810050Y169325D01*
X1810075Y169175D01*
Y169025D01*
X1810100Y168900D01*
Y168825D01*
Y168775D01*
Y168750D01*
Y166000D01*
Y165700D01*
X1810050Y165400D01*
X1809925Y164875D01*
X1809725Y164375D01*
X1809525Y163975D01*
X1809325Y163625D01*
X1809125Y163375D01*
X1809050Y163300D01*
X1809000Y163225D01*
X1808975Y163200D01*
X1808950Y163175D01*
X1808725Y162975D01*
X1808500Y162800D01*
X1808025Y162500D01*
X1807575Y162300D01*
X1807125Y162175D01*
X1806750Y162075D01*
X1806600Y162050D01*
X1806450D01*
X1806325Y162025D01*
X1802150D01*
Y172700D01*
X1806475D01*
X1806750Y172650D01*
D02*
G37*
G36*
X1789025Y172675D02*
X1789300Y172650D01*
X1789550Y172600D01*
X1789800Y172550D01*
X1789975Y172475D01*
X1790125Y172425D01*
X1790225Y172400D01*
X1790250Y172375D01*
X1790525Y172250D01*
X1790800Y172100D01*
X1791025Y171950D01*
X1791225Y171800D01*
X1791400Y171650D01*
X1791525Y171525D01*
X1791600Y171450D01*
X1791625Y171425D01*
X1791950Y171025D01*
X1792225Y170650D01*
X1792300Y170500D01*
X1792375Y170375D01*
X1792400Y170275D01*
X1792425Y170250D01*
X1792525Y169975D01*
X1792625Y169700D01*
X1792675Y169425D01*
X1792700Y169175D01*
X1792725Y168975D01*
X1792750Y168825D01*
Y168725D01*
Y168675D01*
Y153075D01*
X1792725Y152750D01*
X1792700Y152450D01*
X1792550Y151875D01*
X1792325Y151350D01*
X1792100Y150900D01*
X1791850Y150500D01*
X1791725Y150350D01*
X1791625Y150225D01*
X1791550Y150125D01*
X1791475Y150050D01*
X1791450Y150000D01*
X1791425Y149975D01*
X1791000Y149650D01*
X1790550Y149425D01*
X1790100Y149250D01*
X1789675Y149150D01*
X1789300Y149075D01*
X1789125Y149050D01*
X1789000D01*
X1788875Y149025D01*
X1788725D01*
X1788425Y149050D01*
X1788125Y149075D01*
X1787550Y149200D01*
X1787075Y149375D01*
X1786650Y149600D01*
X1786300Y149800D01*
X1786050Y149975D01*
X1785975Y150050D01*
X1785900Y150100D01*
X1785875Y150150D01*
X1785850D01*
X1785650Y150375D01*
X1785475Y150625D01*
X1785175Y151125D01*
X1784975Y151600D01*
X1784850Y152075D01*
X1784750Y152475D01*
X1784725Y152650D01*
Y152800D01*
X1784700Y152900D01*
Y153000D01*
Y153050D01*
Y153075D01*
Y168675D01*
X1784750Y169275D01*
X1784850Y169800D01*
X1785000Y170250D01*
X1785175Y170650D01*
X1785325Y170950D01*
X1785475Y171175D01*
X1785575Y171325D01*
X1785625Y171375D01*
X1785900Y171600D01*
X1786175Y171825D01*
X1786450Y172000D01*
X1786700Y172150D01*
X1787225Y172375D01*
X1787700Y172525D01*
X1788125Y172625D01*
X1788300Y172650D01*
X1788450Y172675D01*
X1788550Y172700D01*
X1788725D01*
X1789025Y172675D01*
D02*
G37*
D16*
X322619Y232699D02*
D03*
D17*
X322619Y237699D02*
D03*
Y242699D02*
D03*
D18*
X257300Y277700D02*
D03*
X267300Y277700D02*
D03*
X277300D02*
D03*
X287300D02*
D03*
X305500Y242273D02*
D03*
X305500Y213927D02*
D03*
X354400Y195500D02*
D03*
X364400D02*
D03*
X374400D02*
D03*
X384400D02*
D03*
X394400D02*
D03*
X404400D02*
D03*
X414400D02*
D03*
X444285D02*
D03*
X454285D02*
D03*
X464285D02*
D03*
X474285D02*
D03*
X484285D02*
D03*
X476200Y215200D02*
D03*
X459000Y252900D02*
D03*
X449000D02*
D03*
X439000D02*
D03*
X429000D02*
D03*
Y282900D02*
D03*
X439000D02*
D03*
X449000D02*
D03*
X459000D02*
D03*
X456200Y215200D02*
D03*
X446200D02*
D03*
X436200D02*
D03*
X466200D02*
D03*
X419000Y252900D02*
D03*
X409000D02*
D03*
X399000D02*
D03*
Y282900D02*
D03*
X389000D02*
D03*
X409000D02*
D03*
X419000D02*
D03*
X407400Y215200D02*
D03*
X397400D02*
D03*
X387400D02*
D03*
X343600Y262620D02*
D03*
X343600Y234274D02*
D03*
X347400Y215200D02*
D03*
X357400D02*
D03*
X367400D02*
D03*
X377400D02*
D03*
X337300Y277700D02*
D03*
X327300D02*
D03*
X317300D02*
D03*
X307300D02*
D03*
X297300Y277700D02*
D03*
X342137Y317827D02*
D03*
X353307D02*
D03*
X369400Y318900D02*
D03*
X379400D02*
D03*
X389400D02*
D03*
X399400D02*
D03*
X409400D02*
D03*
X419400D02*
D03*
X429400D02*
D03*
X439400D02*
D03*
X449400D02*
D03*
X459400D02*
D03*
X474400Y366500D02*
D03*
X484400D02*
D03*
Y385500D02*
D03*
X474400D02*
D03*
X464400D02*
D03*
X454400D02*
D03*
X444400D02*
D03*
X434400D02*
D03*
Y366500D02*
D03*
X444400D02*
D03*
X454400D02*
D03*
X464400D02*
D03*
X449400Y348901D02*
D03*
X439400D02*
D03*
X429400D02*
D03*
X424400Y385500D02*
D03*
X398518D02*
D03*
X388518D02*
D03*
Y366500D02*
D03*
X398518D02*
D03*
X399400Y348901D02*
D03*
X389400D02*
D03*
X409400D02*
D03*
X419400D02*
D03*
X424400Y366500D02*
D03*
X378518Y385500D02*
D03*
X368518D02*
D03*
X358518D02*
D03*
X348518D02*
D03*
Y366500D02*
D03*
X358518D02*
D03*
X368518D02*
D03*
X378518D02*
D03*
X379400Y348901D02*
D03*
X369400D02*
D03*
X353307Y346173D02*
D03*
X342137D02*
D03*
X338518Y385500D02*
D03*
X328518D02*
D03*
X318518D02*
D03*
Y366500D02*
D03*
X328518D02*
D03*
X338518D02*
D03*
X330967Y346173D02*
D03*
X319797D02*
D03*
X308627D02*
D03*
X297457Y346173D02*
D03*
Y317827D02*
D03*
X297300Y307700D02*
D03*
X307300D02*
D03*
X317300D02*
D03*
X327300D02*
D03*
X330967Y317827D02*
D03*
X319797D02*
D03*
X308627D02*
D03*
X286287Y346173D02*
D03*
X275117D02*
D03*
X264440Y346173D02*
D03*
X253270D02*
D03*
Y317827D02*
D03*
X264440D02*
D03*
X275117Y317827D02*
D03*
X286287D02*
D03*
X287300Y307700D02*
D03*
X277300D02*
D03*
X267300D02*
D03*
X257300D02*
D03*
X247300D02*
D03*
Y277700D02*
D03*
D19*
X337400Y215200D02*
D03*
X344400Y195500D02*
D03*
X426200Y215200D02*
D03*
X434285Y195500D02*
D03*
X414400Y366500D02*
D03*
Y385500D02*
D03*
X308518D02*
D03*
Y366500D02*
D03*
D20*
X473974Y316666D02*
D03*
Y321666D02*
D03*
X478974D02*
D03*
Y326665D02*
D03*
Y331665D02*
D03*
Y336666D02*
D03*
X473974Y331665D02*
D03*
Y326665D02*
D03*
X478974Y316666D02*
D03*
D21*
X473974Y336666D02*
D03*
D22*
X337300Y307700D02*
D03*
X389000Y252900D02*
D03*
X459400Y348901D02*
D03*
D23*
X289400Y195500D02*
D03*
X494518Y215500D02*
D03*
Y325500D02*
D03*
X294518Y385500D02*
D03*
M02*
