M48
;Layer_Color=9474304
;FILE_FORMAT=2:5
INCH,LZ
;TYPE=PLATED
T1F00S00C0.01200
T2F00S00C0.02559
T3F00S00C0.03150
T4F00S00C0.03543
T5F00S00C0.12500
%
T01
X0449393Y0189126
X0459393
X0469393
X0479393
X0489393
X0494393Y0199126
X0483564Y0203462
X0472145Y0203217
X0462208Y0203715
X0452109Y0203585
X0449393Y0229126
X0459393
X0469393
X0479393
X0489393
X0494393Y0239126
X0484393
X0474393
X0464393
Y0259126
X0474393
X0484393
X0494393
X0489393Y0269126
X0494393Y0279126
X0484393
X0474393
X0464393
X0454393
X0459393Y0289126
X0449393
Y0269126
X0459393
X0454393Y0259126
X0489393Y0249126
X0484393Y0219126
X0489393Y0289126
X0439393
X0429393
X04141Y029
X04047Y02886
X0404393Y0279126
X0414393
X0411Y02723
X0420977Y02719
X0419393Y0269126
X04253Y02583
X0434393Y0259126
X0444393
X0439393Y0269126
X0444393Y0279126
X0439393Y0229126
X0429393
X0419393
X0409393
X0399393
X0398334Y022175
X04025Y02189
X04017Y02107
X03975Y02086
X03925Y0211
X03873Y02091
X03826Y02104
X03825Y02188
X0387017Y022267
X0389393Y0229126
X0379393
X03725Y02307
X03674Y02352
X0363Y02339
X03587Y02353
X0366105Y0250026
X03689Y02606
X03688Y02677
X03738Y02744
X0374393Y0279126
X03733Y0287
X0380093Y0286955
X03766Y02914
X038673Y0290869
X03852Y02749
X038Y02671
X03795Y0261
X03899Y02609
X04009Y02624
X04066Y02456
X0419Y02468
X0414393Y0219126
X0419393Y0209126
X0412594Y0204353
X0403562Y0202194
X0393259Y0202312
X0383151
X0373997Y0203096
X0364363Y0202858
X0353396Y02025
X0342923Y0203462
X0334393Y0199126
X0324393
X0314393
X0304393
X0309393Y0209126
X0319393
X0329393
X0324393Y0219126
X0314393
X0309393Y0229126
X0299393
X0294393Y0239126
X0314393
Y0259126
X0304393
X0301039Y0264827
X0301198Y0271782
X03132Y0273091
X0316777Y02689
X0321885Y0272473
X0325987Y0270023
X0330096Y0264684
X0332033Y0260097
X0323288Y0257121
X0322338Y02827
X0325979Y0287718
X0328388Y0291456
X0319393Y0289126
X0309393
X0312733Y028373
X0299393Y0289126
X0294393Y0259126
Y0219126
X0299393Y0209126
Y0189126
X0309393
X0319393
X0329393
X0339393
X0349393
X0359393
X0369393
X0379393
X0389393
X0399393
X0409393
X0419393
X0429393
X0439393
X0442436Y0202976
X0432797Y0202314
X0424393Y0199126
X03924Y02192
X0383051Y0250026
X0349252Y0262087
X0349393Y0269126
X0354393Y0279126
X0355565Y02868
X0359393Y0289126
X0347861Y0286195
X0339393Y0289126
X0332203Y0274784
X03608Y02758
X03662Y02813
X03383Y02386
X0339393Y0229126
X0329393
X0289393
X0279393
X0269393
X0274393Y0239126
X0284393
X0289388Y0250346
X0282425Y0258169
X0274587Y02503
X0259393Y0249126
X0249393
X02369Y02485
X0244393Y0239126
X0249393Y0229126
X0239393
X0244393Y0219126
X0254393
X0264393
X0274393
X0284393
X0289393Y0209126
X0279393
X0269393
X0259393
X0249393
X0239393
X0244393Y0199126
X0254393
X0264393
X0274393
X0279393Y0189126
X0269393
X0259393
X0249393
X0239393
X0264393Y0239126
X0260843Y0264296
X0262684Y0273245
X0262352Y0281713
X02653Y02863
X02544Y02853
X0249393Y0269126
X0254393Y0259126
X0244393
X0269393Y0269126
X0282275Y02742
X0279393Y0289126
X0289393
X0282275Y0304962
X0272504Y0304904
X0268696Y0298993
X02642Y02936
X02531Y02951
X02431Y02953
X02433Y0303
X02472Y0313
X0252416Y031176
X0244393Y0319126
X0249393Y0329126
X0259393
X0269393
X0279393
X0289393
X0284393Y0339126
X0274393
X0264393
X0254393
X0244393
X0239393Y0349126
X0244393Y0359126
X0254393
X0264393
X02725Y03608
X0269393Y0369126
X0279393
X02832Y03659
X02853Y03735
X0284393Y0379126
X0274393
X0264393
X0254393
X0244393
X0249393Y0389126
X0259393
X0269393
X0279393
X02916Y0369
X02891Y03613
X02912Y03558
X02896Y03513
X02828Y03509
X0279393Y0349126
X0269393
X02828Y03562
X0259393Y0369126
X0249393
X0239393
Y0389126
X0262146Y0304904
X02787Y03131
X0305138Y0313142
X0302318Y0302965
X0312974
X0322467
X0332107
X0332224Y031176
X0341621Y0312402
X0349393Y0309126
X0356674Y0310445
X0361188Y0303669
X0365454Y030378
X03657Y02955
X0374393Y0299126
X03735Y03047
X03741Y03148
X03804Y0309817
X0395439Y0309352
X0393817Y0305314
X03952Y02936
X0414393Y0299126
X04143Y03059
X04145Y03133
X0418Y0330343
X04144Y0337601
X0434393Y0339126
X0444393
Y0319126
X0447574Y0310021
X0436923Y0303946
X0439393Y0369126
X0439362Y037692
X0429181Y0376607
X0429393Y0369126
X0419393
X0419Y0377234
X0419393Y0389126
X0429393
X0439393
X0409393
X0404393Y0379126
X0394393
X0382462Y0373935
X0375246Y037692
X03708Y03711
X0364393Y0379126
X03487Y03767
X03479Y03611
X0344393Y0359126
X03411Y03549
X0336999Y0348538
X03339Y03403
X0324393Y0339126
X0314393
X0304393
X0294393
X02931Y03494
X02933Y03604
X03006Y03626
X0299393Y0369126
X0313616Y0369446
X0323691Y0369771
X0324393Y0379126
X0334393
X0333773Y0368588
X032559Y0348538
X0311689Y0351344
X03141Y0355859
X0303616
X0304393Y0379126
X0314393
X0319393Y0329126
X0329393
X033643Y0322404
X0347832Y0323187
X0349393Y0329126
X0355279Y0324756
X0356441Y0337443
X034937Y0339819
X0364393Y0339126
X0374393
X0374566Y034516
X0372573Y0354684
X0363623Y034888
X0359509Y034748
X03581Y03613
X0354393Y0359126
X0352Y03566
X0369393Y0329126
X0379393
X0389393
X0394393Y0339126
X0384393
X0363322Y0318781
X03456Y03027
X03527Y02952
X0321446Y0312
X0314393Y0319126
X0309393Y0329126
X0409393Y0369126
X0449393
X0449362Y0376565
X0459581Y0376749
X0459393Y0369126
X0469393
X0469314Y0376749
X0479176
X0479393Y0369126
X0489393
X0488916Y0376749
X0489393Y0389126
X0479393
X0469393
X0459393
X0449393
X0454393Y0339126
X0464393
X04818Y0339702
X0487167Y0335647
X0483962Y0332413
X0484393Y0319126
X0483034Y0310013
X0489393Y0309126
X0494393Y0299126
X0484393
X04804Y0301464
X0476933Y0305052
X0472538Y0300037
X0466929Y0305405
X0472062Y0310557
X046571Y0316924
X0454112Y0315556
X0451463Y0304785
X0480421Y0349839
X0494393Y0339126
T02
X0473974Y0316666
Y0321666
X0478974
Y0326665
Y0331665
Y0336666
X0473974
Y0331665
Y0326665
X0478974Y0316666
T03
X0449Y02529
X0459
Y02829
X0449
X0439
X0429
X0419
X0409
X0399
X0389
Y02529
X0399
X0409
X0419
X0429
X0439
X03436Y026262
X03373Y02777
X03273
X03173
X03073
X02973Y02777
X03055Y0242273
X03055Y0213927
X03436Y0234274
X02873Y02777
X02773
X02673
X02573Y02777
X02473
Y03077
X02573
X02673
X02773
X02873
X0286287Y0317827
X0275117
X026444Y0317827
X025327
Y0346173
X026444
X0275117Y0346173
X0286287
X0297457Y0346173
X0308627Y0346173
X0319797
X0330967
X0342137
X0353307
X03694Y0348901
X03794
X03894
X03994
X04094
X04194
X04294
X04394
Y03189
X04294
X04194
X04094
X03994
X03894
X03794
X03694
X0353307Y0317827
X0342137
X0330967
X0319797
X0308627
X0297457
X02973Y03077
X03073
X03173
X03273
X03373
X04494Y03189
X04594
Y0348901
X04494
T04
X0454285Y01955
X0464285
X0474285
X0484285
X04762Y02152
X04662
X04562
X04462
X04362
X04262
X04074
X03974
X03874
X03774
X03674
X03574
X03474
X03374
X03444Y01955
X03544
X03644
X03744
X03844
X03944
X04044
X04144
X0434285
X0444285
X0322619Y0232699
X0322619Y0237699
Y0242699
X0318518Y03665
X0308518
Y03855
X0318518
X0328518
X0338518
X0348518
X0358518
X0368518
X0378518
X0388518
X0398518
X04144
X04244
X04344
X04444
Y03665
X04344
X04244
X04144
X0398518
X0388518
X0378518
X0368518
X0358518
X0348518
X0338518
X0328518
X04544
X04644
X04744
X04844
Y03855
X04744
X04644
X04544
T05
X0494518Y02155
X02894Y01955
X0294518Y03855
X0494518Y03255
M30
