G04*
G04 #@! TF.GenerationSoftware,Altium Limited,Altium Designer,19.1.6 (110)*
G04*
G04 Layer_Physical_Order=2*
G04 Layer_Color=16711680*
%FSLAX43Y43*%
%MOMM*%
G71*
G01*
G75*
%ADD14C,0.200*%
%ADD26R,1.016X1.270*%
%ADD27R,1.270X1.016*%
%ADD29R,0.350X1.750*%
%ADD48C,0.508*%
%ADD50C,0.300*%
%ADD51C,0.950*%
G04:AMPARAMS|DCode=52|XSize=0.95mm|YSize=0.95mm|CornerRadius=0.238mm|HoleSize=0mm|Usage=FLASHONLY|Rotation=0.000|XOffset=0mm|YOffset=0mm|HoleType=Round|Shape=RoundedRectangle|*
%AMROUNDEDRECTD52*
21,1,0.950,0.475,0,0,0.0*
21,1,0.475,0.950,0,0,0.0*
1,1,0.475,0.238,-0.238*
1,1,0.475,-0.238,-0.238*
1,1,0.475,-0.238,0.238*
1,1,0.475,0.238,0.238*
%
%ADD52ROUNDEDRECTD52*%
%ADD53C,1.500*%
G04:AMPARAMS|DCode=54|XSize=1.5mm|YSize=1.5mm|CornerRadius=0.375mm|HoleSize=0mm|Usage=FLASHONLY|Rotation=270.000|XOffset=0mm|YOffset=0mm|HoleType=Round|Shape=RoundedRectangle|*
%AMROUNDEDRECTD54*
21,1,1.500,0.750,0,0,270.0*
21,1,0.750,1.500,0,0,270.0*
1,1,0.750,-0.375,-0.375*
1,1,0.750,-0.375,0.375*
1,1,0.750,0.375,0.375*
1,1,0.750,0.375,-0.375*
%
%ADD54ROUNDEDRECTD54*%
%ADD55O,1.600X1.800*%
G04:AMPARAMS|DCode=56|XSize=1.6mm|YSize=1.8mm|CornerRadius=0.08mm|HoleSize=0mm|Usage=FLASHONLY|Rotation=0.000|XOffset=0mm|YOffset=0mm|HoleType=Round|Shape=RoundedRectangle|*
%AMROUNDEDRECTD56*
21,1,1.600,1.640,0,0,0.0*
21,1,1.440,1.800,0,0,0.0*
1,1,0.160,0.720,-0.820*
1,1,0.160,-0.720,-0.820*
1,1,0.160,-0.720,0.820*
1,1,0.160,0.720,0.820*
%
%ADD56ROUNDEDRECTD56*%
G04:AMPARAMS|DCode=57|XSize=1.5mm|YSize=1.5mm|CornerRadius=0.375mm|HoleSize=0mm|Usage=FLASHONLY|Rotation=0.000|XOffset=0mm|YOffset=0mm|HoleType=Round|Shape=RoundedRectangle|*
%AMROUNDEDRECTD57*
21,1,1.500,0.750,0,0,0.0*
21,1,0.750,1.500,0,0,0.0*
1,1,0.750,0.375,-0.375*
1,1,0.750,-0.375,-0.375*
1,1,0.750,-0.375,0.375*
1,1,0.750,0.375,0.375*
%
%ADD57ROUNDEDRECTD57*%
%ADD58O,1.800X1.600*%
G04:AMPARAMS|DCode=59|XSize=1.6mm|YSize=1.8mm|CornerRadius=0.08mm|HoleSize=0mm|Usage=FLASHONLY|Rotation=270.000|XOffset=0mm|YOffset=0mm|HoleType=Round|Shape=RoundedRectangle|*
%AMROUNDEDRECTD59*
21,1,1.600,1.640,0,0,270.0*
21,1,1.440,1.800,0,0,270.0*
1,1,0.160,-0.820,-0.720*
1,1,0.160,-0.820,0.720*
1,1,0.160,0.820,0.720*
1,1,0.160,0.820,-0.720*
%
%ADD59ROUNDEDRECTD59*%
%ADD60C,3.175*%
%ADD61C,0.700*%
G36*
X123754Y99965D02*
X123871Y99916D01*
X123999Y99818D01*
X124931Y98887D01*
X125028Y98759D01*
X125077Y98642D01*
X125098Y98483D01*
Y87829D01*
X125104Y87796D01*
X125102Y87763D01*
X125128Y87559D01*
X125149Y87497D01*
X125162Y87433D01*
X125239Y87242D01*
X125276Y87187D01*
X125304Y87128D01*
X125428Y86964D01*
X125452Y86942D01*
X125470Y86914D01*
X127415Y84922D01*
X127510Y84795D01*
X127557Y84680D01*
X127578Y84523D01*
Y83122D01*
X127451Y83103D01*
X127360Y83403D01*
X127185Y83731D01*
X126949Y84018D01*
X126661Y84254D01*
X126333Y84429D01*
X125978Y84537D01*
X125608Y84574D01*
X125238Y84537D01*
X124882Y84429D01*
X124554Y84254D01*
X124266Y84018D01*
X124031Y83731D01*
X123855Y83403D01*
X123747Y83047D01*
X123711Y82677D01*
X123747Y82307D01*
X123855Y81951D01*
X124031Y81623D01*
X124266Y81336D01*
X124554Y81100D01*
X124882Y80925D01*
X125238Y80817D01*
X125608Y80780D01*
X125978Y80817D01*
X126333Y80925D01*
X126661Y81100D01*
X126949Y81336D01*
X127185Y81623D01*
X127360Y81951D01*
X127451Y82251D01*
X127578Y82232D01*
Y55182D01*
X127451Y55163D01*
X127360Y55463D01*
X127185Y55791D01*
X126949Y56078D01*
X126661Y56314D01*
X126333Y56489D01*
X125978Y56597D01*
X125608Y56634D01*
X125238Y56597D01*
X124882Y56489D01*
X124554Y56314D01*
X124266Y56078D01*
X124031Y55791D01*
X123855Y55463D01*
X123747Y55107D01*
X123711Y54737D01*
X123747Y54367D01*
X123855Y54011D01*
X124031Y53683D01*
X124266Y53396D01*
X124554Y53160D01*
X124882Y52985D01*
X125238Y52877D01*
X125608Y52840D01*
X125978Y52877D01*
X126333Y52985D01*
X126661Y53160D01*
X126949Y53396D01*
X127185Y53683D01*
X127360Y54011D01*
X127451Y54311D01*
X127578Y54292D01*
Y52637D01*
X127557Y52480D01*
X127510Y52365D01*
X127415Y52238D01*
X125470Y50246D01*
X125452Y50218D01*
X125428Y50196D01*
X125304Y50032D01*
X125276Y49973D01*
X125239Y49918D01*
X125162Y49727D01*
X125149Y49663D01*
X125128Y49601D01*
X125102Y49397D01*
X125104Y49364D01*
X125098Y49331D01*
Y48146D01*
X125082Y48009D01*
X125046Y47906D01*
X124988Y47813D01*
X124911Y47736D01*
X124819Y47678D01*
X124716Y47642D01*
X124579Y47627D01*
X60566D01*
X60429Y47642D01*
X60326Y47678D01*
X60234Y47736D01*
X60157Y47813D01*
X60099Y47906D01*
X60063Y48009D01*
X60047Y48146D01*
Y99467D01*
X60063Y99604D01*
X60099Y99707D01*
X60157Y99799D01*
X60234Y99876D01*
X60326Y99934D01*
X60429Y99970D01*
X60566Y99986D01*
X123595D01*
X123754Y99965D01*
D02*
G37*
%LPC*%
G36*
X86111Y98913D02*
Y98044D01*
X86980D01*
X86962Y98179D01*
X86861Y98423D01*
X86700Y98633D01*
X86490Y98794D01*
X86246Y98895D01*
X86111Y98913D01*
D02*
G37*
G36*
X85857D02*
X85721Y98895D01*
X85477Y98794D01*
X85268Y98633D01*
X85107Y98423D01*
X85005Y98179D01*
X84988Y98044D01*
X85857D01*
Y98913D01*
D02*
G37*
G36*
X86980Y97790D02*
X86111D01*
Y96921D01*
X86246Y96939D01*
X86490Y97040D01*
X86700Y97201D01*
X86861Y97411D01*
X86962Y97655D01*
X86980Y97790D01*
D02*
G37*
G36*
X85857D02*
X84988D01*
X85005Y97655D01*
X85107Y97411D01*
X85268Y97201D01*
X85477Y97040D01*
X85721Y96939D01*
X85857Y96921D01*
Y97790D01*
D02*
G37*
G36*
X105633Y98973D02*
X104883D01*
X104706Y98950D01*
X104542Y98882D01*
X104401Y98773D01*
X104293Y98632D01*
X104225Y98468D01*
X104202Y98292D01*
Y97542D01*
X104225Y97366D01*
X104293Y97202D01*
X104401Y97061D01*
X104542Y96952D01*
X104706Y96884D01*
X104883Y96861D01*
X105633D01*
X105809Y96884D01*
X105973Y96952D01*
X106114Y97061D01*
X106222Y97202D01*
X106290Y97366D01*
X106313Y97542D01*
Y98292D01*
X106290Y98468D01*
X106222Y98632D01*
X106114Y98773D01*
X105973Y98882D01*
X105809Y98950D01*
X105633Y98973D01*
D02*
G37*
G36*
X78739D02*
X77989D01*
X77812Y98950D01*
X77648Y98882D01*
X77507Y98773D01*
X77399Y98632D01*
X77331Y98468D01*
X77308Y98292D01*
Y97542D01*
X77331Y97366D01*
X77399Y97202D01*
X77507Y97061D01*
X77648Y96952D01*
X77812Y96884D01*
X77989Y96861D01*
X78739D01*
X78915Y96884D01*
X79079Y96952D01*
X79220Y97061D01*
X79328Y97202D01*
X79396Y97366D01*
X79419Y97542D01*
Y98292D01*
X79396Y98468D01*
X79328Y98632D01*
X79220Y98773D01*
X79079Y98882D01*
X78915Y98950D01*
X78739Y98973D01*
D02*
G37*
G36*
X123038Y98976D02*
X122763Y98940D01*
X122508Y98834D01*
X122289Y98666D01*
X122120Y98447D01*
X122015Y98191D01*
X121979Y97917D01*
X122015Y97643D01*
X122120Y97387D01*
X122289Y97168D01*
X122508Y97000D01*
X122763Y96894D01*
X123038Y96858D01*
X123312Y96894D01*
X123567Y97000D01*
X123786Y97168D01*
X123955Y97387D01*
X124061Y97643D01*
X124097Y97917D01*
X124061Y98191D01*
X123955Y98447D01*
X123786Y98666D01*
X123567Y98834D01*
X123312Y98940D01*
X123038Y98976D01*
D02*
G37*
G36*
X120498D02*
X120223Y98940D01*
X119968Y98834D01*
X119749Y98666D01*
X119580Y98447D01*
X119475Y98191D01*
X119439Y97917D01*
X119475Y97643D01*
X119580Y97387D01*
X119749Y97168D01*
X119968Y97000D01*
X120223Y96894D01*
X120498Y96858D01*
X120772Y96894D01*
X121027Y97000D01*
X121246Y97168D01*
X121415Y97387D01*
X121521Y97643D01*
X121557Y97917D01*
X121521Y98191D01*
X121415Y98447D01*
X121246Y98666D01*
X121027Y98834D01*
X120772Y98940D01*
X120498Y98976D01*
D02*
G37*
G36*
X117958D02*
X117683Y98940D01*
X117428Y98834D01*
X117209Y98666D01*
X117040Y98447D01*
X116935Y98191D01*
X116899Y97917D01*
X116935Y97643D01*
X117040Y97387D01*
X117209Y97168D01*
X117428Y97000D01*
X117683Y96894D01*
X117958Y96858D01*
X118232Y96894D01*
X118487Y97000D01*
X118706Y97168D01*
X118875Y97387D01*
X118981Y97643D01*
X119017Y97917D01*
X118981Y98191D01*
X118875Y98447D01*
X118706Y98666D01*
X118487Y98834D01*
X118232Y98940D01*
X117958Y98976D01*
D02*
G37*
G36*
X115418D02*
X115143Y98940D01*
X114888Y98834D01*
X114669Y98666D01*
X114500Y98447D01*
X114395Y98191D01*
X114359Y97917D01*
X114395Y97643D01*
X114500Y97387D01*
X114669Y97168D01*
X114888Y97000D01*
X115143Y96894D01*
X115418Y96858D01*
X115692Y96894D01*
X115947Y97000D01*
X116166Y97168D01*
X116335Y97387D01*
X116441Y97643D01*
X116477Y97917D01*
X116441Y98191D01*
X116335Y98447D01*
X116166Y98666D01*
X115947Y98834D01*
X115692Y98940D01*
X115418Y98976D01*
D02*
G37*
G36*
X112878D02*
X112603Y98940D01*
X112348Y98834D01*
X112129Y98666D01*
X111960Y98447D01*
X111855Y98191D01*
X111819Y97917D01*
X111855Y97643D01*
X111960Y97387D01*
X112129Y97168D01*
X112348Y97000D01*
X112603Y96894D01*
X112878Y96858D01*
X113152Y96894D01*
X113407Y97000D01*
X113626Y97168D01*
X113795Y97387D01*
X113901Y97643D01*
X113937Y97917D01*
X113901Y98191D01*
X113795Y98447D01*
X113626Y98666D01*
X113407Y98834D01*
X113152Y98940D01*
X112878Y98976D01*
D02*
G37*
G36*
X110338D02*
X110063Y98940D01*
X109808Y98834D01*
X109589Y98666D01*
X109420Y98447D01*
X109315Y98191D01*
X109279Y97917D01*
X109315Y97643D01*
X109420Y97387D01*
X109589Y97168D01*
X109808Y97000D01*
X110063Y96894D01*
X110338Y96858D01*
X110612Y96894D01*
X110867Y97000D01*
X111086Y97168D01*
X111255Y97387D01*
X111361Y97643D01*
X111397Y97917D01*
X111361Y98191D01*
X111255Y98447D01*
X111086Y98666D01*
X110867Y98834D01*
X110612Y98940D01*
X110338Y98976D01*
D02*
G37*
G36*
X107798D02*
X107523Y98940D01*
X107268Y98834D01*
X107049Y98666D01*
X106880Y98447D01*
X106775Y98191D01*
X106739Y97917D01*
X106775Y97643D01*
X106880Y97387D01*
X107049Y97168D01*
X107268Y97000D01*
X107523Y96894D01*
X107798Y96858D01*
X108072Y96894D01*
X108327Y97000D01*
X108546Y97168D01*
X108715Y97387D01*
X108821Y97643D01*
X108857Y97917D01*
X108821Y98191D01*
X108715Y98447D01*
X108546Y98666D01*
X108327Y98834D01*
X108072Y98940D01*
X107798Y98976D01*
D02*
G37*
G36*
X101224D02*
X100949Y98940D01*
X100694Y98834D01*
X100475Y98666D01*
X100306Y98447D01*
X100201Y98191D01*
X100165Y97917D01*
X100201Y97643D01*
X100306Y97387D01*
X100475Y97168D01*
X100694Y97000D01*
X100949Y96894D01*
X101224Y96858D01*
X101498Y96894D01*
X101753Y97000D01*
X101972Y97168D01*
X102141Y97387D01*
X102247Y97643D01*
X102283Y97917D01*
X102247Y98191D01*
X102141Y98447D01*
X101972Y98666D01*
X101753Y98834D01*
X101498Y98940D01*
X101224Y98976D01*
D02*
G37*
G36*
X98684D02*
X98409Y98940D01*
X98154Y98834D01*
X97935Y98666D01*
X97766Y98447D01*
X97661Y98191D01*
X97625Y97917D01*
X97661Y97643D01*
X97766Y97387D01*
X97935Y97168D01*
X98154Y97000D01*
X98409Y96894D01*
X98684Y96858D01*
X98958Y96894D01*
X99213Y97000D01*
X99432Y97168D01*
X99601Y97387D01*
X99707Y97643D01*
X99743Y97917D01*
X99707Y98191D01*
X99601Y98447D01*
X99432Y98666D01*
X99213Y98834D01*
X98958Y98940D01*
X98684Y98976D01*
D02*
G37*
G36*
X96144D02*
X95869Y98940D01*
X95614Y98834D01*
X95395Y98666D01*
X95226Y98447D01*
X95121Y98191D01*
X95085Y97917D01*
X95121Y97643D01*
X95226Y97387D01*
X95395Y97168D01*
X95614Y97000D01*
X95869Y96894D01*
X96144Y96858D01*
X96418Y96894D01*
X96673Y97000D01*
X96892Y97168D01*
X97061Y97387D01*
X97167Y97643D01*
X97203Y97917D01*
X97167Y98191D01*
X97061Y98447D01*
X96892Y98666D01*
X96673Y98834D01*
X96418Y98940D01*
X96144Y98976D01*
D02*
G37*
G36*
X93604D02*
X93329Y98940D01*
X93074Y98834D01*
X92855Y98666D01*
X92686Y98447D01*
X92581Y98191D01*
X92545Y97917D01*
X92581Y97643D01*
X92686Y97387D01*
X92855Y97168D01*
X93074Y97000D01*
X93329Y96894D01*
X93604Y96858D01*
X93878Y96894D01*
X94133Y97000D01*
X94352Y97168D01*
X94521Y97387D01*
X94627Y97643D01*
X94663Y97917D01*
X94627Y98191D01*
X94521Y98447D01*
X94352Y98666D01*
X94133Y98834D01*
X93878Y98940D01*
X93604Y98976D01*
D02*
G37*
G36*
X91064D02*
X90789Y98940D01*
X90534Y98834D01*
X90315Y98666D01*
X90146Y98447D01*
X90041Y98191D01*
X90005Y97917D01*
X90041Y97643D01*
X90146Y97387D01*
X90315Y97168D01*
X90534Y97000D01*
X90789Y96894D01*
X91064Y96858D01*
X91338Y96894D01*
X91593Y97000D01*
X91812Y97168D01*
X91981Y97387D01*
X92087Y97643D01*
X92123Y97917D01*
X92087Y98191D01*
X91981Y98447D01*
X91812Y98666D01*
X91593Y98834D01*
X91338Y98940D01*
X91064Y98976D01*
D02*
G37*
G36*
X83444D02*
X83169Y98940D01*
X82914Y98834D01*
X82695Y98666D01*
X82526Y98447D01*
X82421Y98191D01*
X82385Y97917D01*
X82421Y97643D01*
X82526Y97387D01*
X82695Y97168D01*
X82914Y97000D01*
X83169Y96894D01*
X83444Y96858D01*
X83718Y96894D01*
X83973Y97000D01*
X84192Y97168D01*
X84361Y97387D01*
X84467Y97643D01*
X84503Y97917D01*
X84467Y98191D01*
X84361Y98447D01*
X84192Y98666D01*
X83973Y98834D01*
X83718Y98940D01*
X83444Y98976D01*
D02*
G37*
G36*
X80904D02*
X80629Y98940D01*
X80374Y98834D01*
X80155Y98666D01*
X79986Y98447D01*
X79881Y98191D01*
X79845Y97917D01*
X79881Y97643D01*
X79986Y97387D01*
X80155Y97168D01*
X80374Y97000D01*
X80629Y96894D01*
X80904Y96858D01*
X81178Y96894D01*
X81433Y97000D01*
X81652Y97168D01*
X81821Y97387D01*
X81927Y97643D01*
X81963Y97917D01*
X81927Y98191D01*
X81821Y98447D01*
X81652Y98666D01*
X81433Y98834D01*
X81178Y98940D01*
X80904Y98976D01*
D02*
G37*
G36*
X74808Y99814D02*
X74438Y99777D01*
X74082Y99669D01*
X73754Y99494D01*
X73466Y99258D01*
X73231Y98971D01*
X73055Y98643D01*
X72947Y98287D01*
X72911Y97917D01*
X72947Y97547D01*
X73055Y97191D01*
X73231Y96863D01*
X73466Y96576D01*
X73754Y96340D01*
X74082Y96165D01*
X74438Y96057D01*
X74808Y96020D01*
X75178Y96057D01*
X75533Y96165D01*
X75861Y96340D01*
X76149Y96576D01*
X76385Y96863D01*
X76560Y97191D01*
X76668Y97547D01*
X76704Y97917D01*
X76668Y98287D01*
X76560Y98643D01*
X76385Y98971D01*
X76149Y99258D01*
X75861Y99494D01*
X75533Y99669D01*
X75178Y99777D01*
X74808Y99814D01*
D02*
G37*
G36*
X98811Y94087D02*
Y93218D01*
X99680D01*
X99662Y93353D01*
X99561Y93597D01*
X99400Y93807D01*
X99190Y93968D01*
X98946Y94069D01*
X98811Y94087D01*
D02*
G37*
G36*
X98557D02*
X98421Y94069D01*
X98177Y93968D01*
X97968Y93807D01*
X97807Y93597D01*
X97705Y93353D01*
X97688Y93218D01*
X98557D01*
Y94087D01*
D02*
G37*
G36*
X96271D02*
Y93218D01*
X97140D01*
X97122Y93353D01*
X97021Y93597D01*
X96860Y93807D01*
X96650Y93968D01*
X96406Y94069D01*
X96271Y94087D01*
D02*
G37*
G36*
X96017D02*
X95881Y94069D01*
X95637Y93968D01*
X95428Y93807D01*
X95267Y93597D01*
X95165Y93353D01*
X95148Y93218D01*
X96017D01*
Y94087D01*
D02*
G37*
G36*
X93731D02*
Y93218D01*
X94600D01*
X94582Y93353D01*
X94481Y93597D01*
X94320Y93807D01*
X94110Y93968D01*
X93866Y94069D01*
X93731Y94087D01*
D02*
G37*
G36*
X93477D02*
X93341Y94069D01*
X93097Y93968D01*
X92888Y93807D01*
X92727Y93597D01*
X92625Y93353D01*
X92608Y93218D01*
X93477D01*
Y94087D01*
D02*
G37*
G36*
X91191D02*
Y93218D01*
X92060D01*
X92042Y93353D01*
X91941Y93597D01*
X91780Y93807D01*
X91570Y93968D01*
X91326Y94069D01*
X91191Y94087D01*
D02*
G37*
G36*
X86111D02*
Y93218D01*
X86980D01*
X86962Y93353D01*
X86861Y93597D01*
X86700Y93807D01*
X86490Y93968D01*
X86246Y94069D01*
X86111Y94087D01*
D02*
G37*
G36*
X85857D02*
X85721Y94069D01*
X85477Y93968D01*
X85268Y93807D01*
X85107Y93597D01*
X85005Y93353D01*
X84988Y93218D01*
X85857D01*
Y94087D01*
D02*
G37*
G36*
X99680Y92964D02*
X98811D01*
Y92095D01*
X98946Y92113D01*
X99190Y92214D01*
X99400Y92375D01*
X99561Y92585D01*
X99662Y92829D01*
X99680Y92964D01*
D02*
G37*
G36*
X98557D02*
X97688D01*
X97705Y92829D01*
X97807Y92585D01*
X97968Y92375D01*
X98177Y92214D01*
X98421Y92113D01*
X98557Y92095D01*
Y92964D01*
D02*
G37*
G36*
X97140D02*
X96271D01*
Y92095D01*
X96406Y92113D01*
X96650Y92214D01*
X96860Y92375D01*
X97021Y92585D01*
X97122Y92829D01*
X97140Y92964D01*
D02*
G37*
G36*
X96017D02*
X95148D01*
X95165Y92829D01*
X95267Y92585D01*
X95428Y92375D01*
X95637Y92214D01*
X95881Y92113D01*
X96017Y92095D01*
Y92964D01*
D02*
G37*
G36*
X94600D02*
X93731D01*
Y92095D01*
X93866Y92113D01*
X94110Y92214D01*
X94320Y92375D01*
X94481Y92585D01*
X94582Y92829D01*
X94600Y92964D01*
D02*
G37*
G36*
X93477D02*
X92608D01*
X92625Y92829D01*
X92727Y92585D01*
X92888Y92375D01*
X93097Y92214D01*
X93341Y92113D01*
X93477Y92095D01*
Y92964D01*
D02*
G37*
G36*
X92060D02*
X91191D01*
Y92095D01*
X91326Y92113D01*
X91570Y92214D01*
X91780Y92375D01*
X91941Y92585D01*
X92042Y92829D01*
X92060Y92964D01*
D02*
G37*
G36*
X88524Y98976D02*
X88249Y98940D01*
X87994Y98834D01*
X87775Y98666D01*
X87606Y98447D01*
X87501Y98191D01*
X87465Y97917D01*
X87501Y97643D01*
X87606Y97387D01*
X87775Y97168D01*
X87794Y97154D01*
X87856Y97090D01*
X87980Y96951D01*
X88024Y96895D01*
X88060Y96843D01*
X88087Y96799D01*
X88104Y96763D01*
X88113Y96738D01*
X88116Y96728D01*
Y94717D01*
X88116Y94717D01*
X88147Y94561D01*
X88235Y94429D01*
X88443Y94221D01*
X88397Y94087D01*
X88261Y94069D01*
X88017Y93968D01*
X87808Y93807D01*
X87647Y93597D01*
X87545Y93353D01*
X87528Y93218D01*
X88524D01*
Y93091D01*
X88651D01*
Y92095D01*
X88786Y92113D01*
X89030Y92214D01*
X89240Y92375D01*
X89280Y92427D01*
X89407Y92384D01*
Y92227D01*
X89407Y92227D01*
X89438Y92071D01*
X89526Y91939D01*
X91812Y89653D01*
X91812Y89653D01*
X91944Y89565D01*
X92100Y89534D01*
X93887D01*
X94301Y89119D01*
X94253Y89002D01*
X93763D01*
Y88956D01*
X93715D01*
Y87827D01*
Y86698D01*
X93763D01*
Y86652D01*
X93779D01*
Y86490D01*
X93814Y86314D01*
X93914Y86165D01*
X94024Y86055D01*
X94010Y85954D01*
X94033Y85784D01*
X94098Y85626D01*
X94202Y85490D01*
X94338Y85386D01*
X94496Y85320D01*
X94666Y85298D01*
X94736Y85307D01*
X94796Y85187D01*
X93300Y83691D01*
X93211Y83559D01*
X93195Y83477D01*
X93113D01*
Y83431D01*
X92977D01*
X92916Y83522D01*
X92913Y83558D01*
X92934Y83718D01*
X92911Y83888D01*
X92846Y84046D01*
X92742Y84182D01*
X92606Y84286D01*
X92448Y84352D01*
X92278Y84374D01*
X92109Y84352D01*
X91950Y84286D01*
X91815Y84182D01*
X91710Y84046D01*
X91576D01*
X91472Y84182D01*
X91336Y84286D01*
X91214Y84337D01*
X91167Y84469D01*
X93226Y86528D01*
X93226Y86528D01*
X93309Y86652D01*
X93413D01*
Y86698D01*
X93461D01*
Y87827D01*
Y88956D01*
X93413D01*
Y89002D01*
X90746D01*
Y89697D01*
X90746Y89697D01*
X90715Y89853D01*
X90626Y89986D01*
X90626Y89986D01*
X90154Y90458D01*
X90021Y90547D01*
X89865Y90578D01*
X89865Y90578D01*
X87097D01*
X87077Y90574D01*
X86900Y90551D01*
X86716Y90475D01*
X86559Y90354D01*
X86556Y90350D01*
X86423Y90386D01*
X86415Y90446D01*
X86339Y90630D01*
X86218Y90787D01*
X86061Y90908D01*
X85877Y90984D01*
X85700Y91007D01*
X85681Y91011D01*
X85661Y91007D01*
X85484Y90984D01*
X85300Y90908D01*
X85143Y90787D01*
X85022Y90630D01*
X84946Y90446D01*
X84938Y90386D01*
X84805Y90350D01*
X84802Y90354D01*
X84645Y90475D01*
X84461Y90551D01*
X84284Y90574D01*
X84265Y90578D01*
X83261D01*
X83105Y90547D01*
X82973Y90458D01*
X82973Y90458D01*
X81601Y89087D01*
X81513Y88954D01*
X81484Y88809D01*
X81338Y88790D01*
X81174Y88722D01*
X81033Y88613D01*
X80925Y88472D01*
X80857Y88308D01*
X80837Y88158D01*
X80718Y88134D01*
X80585Y88045D01*
X78731Y86191D01*
X78643Y86059D01*
X78612Y85903D01*
X78612Y85903D01*
Y84674D01*
X78559D01*
X78539Y84670D01*
X78362Y84647D01*
X78179Y84571D01*
X78021Y84450D01*
X77900Y84292D01*
X77824Y84109D01*
X77801Y83932D01*
X77797Y83912D01*
X77801Y83892D01*
X77824Y83715D01*
X77900Y83532D01*
X78021Y83374D01*
X78146Y83279D01*
X78157Y83238D01*
Y83170D01*
X78146Y83129D01*
X78021Y83034D01*
X77900Y82876D01*
X77824Y82693D01*
X77801Y82516D01*
X77797Y82496D01*
X77801Y82476D01*
X77824Y82299D01*
X77900Y82116D01*
X78021Y81958D01*
X78179Y81837D01*
X78362Y81761D01*
X78539Y81738D01*
X78559Y81734D01*
X78612D01*
Y74149D01*
X78612Y74149D01*
X78643Y73993D01*
X78731Y73860D01*
X80033Y72559D01*
X80165Y72470D01*
X80321Y72439D01*
X80321Y72439D01*
X82089D01*
X82091Y72439D01*
X82097Y72436D01*
X82105Y72432D01*
X82115Y72425D01*
X82127Y72416D01*
X82142Y72403D01*
X82164Y72382D01*
X82168Y72379D01*
X82298Y72279D01*
X82457Y72214D01*
X82626Y72192D01*
X82796Y72214D01*
X82954Y72279D01*
X83090Y72384D01*
X83194Y72519D01*
X83229Y72604D01*
X83373Y72619D01*
X83436Y72536D01*
X83572Y72432D01*
X83730Y72367D01*
X83900Y72344D01*
X84070Y72367D01*
X84228Y72432D01*
X84364Y72536D01*
X84367Y72541D01*
X84371Y72544D01*
X84392Y72565D01*
X84406Y72577D01*
X84417Y72586D01*
X84427Y72592D01*
X84434Y72596D01*
X84439Y72598D01*
X84440Y72599D01*
X97908D01*
X97965Y72485D01*
X97889Y72386D01*
X97783Y72131D01*
X97747Y71857D01*
X97783Y71582D01*
X97889Y71327D01*
X98057Y71108D01*
X98276Y70939D01*
X98532Y70834D01*
X98806Y70798D01*
X99080Y70834D01*
X99336Y70939D01*
X99555Y71108D01*
X99723Y71327D01*
X99829Y71582D01*
X99865Y71857D01*
X99829Y72131D01*
X99723Y72386D01*
X99647Y72485D01*
X99704Y72599D01*
X100448D01*
X100505Y72485D01*
X100429Y72386D01*
X100323Y72131D01*
X100287Y71857D01*
X100323Y71582D01*
X100429Y71327D01*
X100597Y71108D01*
X100616Y71093D01*
X100679Y71030D01*
X100803Y70891D01*
X100846Y70835D01*
X100882Y70783D01*
X100909Y70738D01*
X100927Y70703D01*
X100936Y70678D01*
X100938Y70668D01*
Y70615D01*
X97831Y67508D01*
X83200D01*
X83044Y67477D01*
X82912Y67388D01*
X82912Y67388D01*
X80387Y64863D01*
X80298Y64731D01*
X80267Y64575D01*
X80267Y64575D01*
Y63938D01*
X79783D01*
Y64725D01*
X79752Y64881D01*
X79663Y65013D01*
X79663Y65013D01*
X78588Y66088D01*
X78473Y66165D01*
X78474Y66169D01*
X78500Y66292D01*
X78656Y66323D01*
X78788Y66412D01*
X78996Y66620D01*
X79002Y66620D01*
X79012Y66621D01*
X79025Y66620D01*
X79052Y66618D01*
X79078Y66620D01*
X79131Y66613D01*
X79301Y66635D01*
X79459Y66701D01*
X79595Y66805D01*
X79699Y66941D01*
X79764Y67099D01*
X79787Y67269D01*
X79764Y67438D01*
X79699Y67597D01*
X79595Y67732D01*
X79552Y67765D01*
X79595Y67892D01*
X79831D01*
X80331Y67392D01*
X80332Y67390D01*
X80335Y67384D01*
X80337Y67375D01*
X80340Y67363D01*
X80342Y67347D01*
X80343Y67329D01*
X80344Y67298D01*
X80345Y67293D01*
X80367Y67130D01*
X80432Y66972D01*
X80536Y66836D01*
X80672Y66732D01*
X80830Y66667D01*
X81000Y66644D01*
X81170Y66667D01*
X81328Y66732D01*
X81463Y66836D01*
X81568Y66972D01*
X81633Y67130D01*
X81655Y67300D01*
X81633Y67470D01*
X81568Y67628D01*
X81463Y67763D01*
X81328Y67868D01*
X81170Y67933D01*
X81007Y67955D01*
X81002Y67956D01*
X80971Y67956D01*
X80952Y67958D01*
X80937Y67960D01*
X80925Y67962D01*
X80916Y67965D01*
X80910Y67967D01*
X80908Y67968D01*
X80452Y68425D01*
X80500Y68542D01*
X81350D01*
X81350Y68542D01*
X81506Y68573D01*
X81638Y68661D01*
X82008Y69031D01*
X82010Y69032D01*
X82016Y69035D01*
X82025Y69037D01*
X82037Y69040D01*
X82052Y69042D01*
X82071Y69044D01*
X82102Y69044D01*
X82107Y69045D01*
X82270Y69067D01*
X82428Y69132D01*
X82564Y69236D01*
X82668Y69372D01*
X82733Y69530D01*
X82756Y69700D01*
X82733Y69870D01*
X82668Y70028D01*
X82564Y70164D01*
X82428Y70268D01*
X82270Y70333D01*
X82100Y70356D01*
X81930Y70333D01*
X81772Y70268D01*
X81636Y70164D01*
X81532Y70028D01*
X81467Y69870D01*
X81445Y69707D01*
X81444Y69702D01*
X81444Y69671D01*
X81442Y69652D01*
X81440Y69637D01*
X81437Y69625D01*
X81435Y69616D01*
X81432Y69610D01*
X81431Y69608D01*
X81181Y69358D01*
X80501D01*
X80446Y69485D01*
X80500Y69615D01*
X80522Y69785D01*
X80500Y69955D01*
X80434Y70113D01*
X80330Y70248D01*
X80194Y70353D01*
X80036Y70418D01*
X79867Y70440D01*
X79697Y70418D01*
X79539Y70353D01*
X79409Y70253D01*
X79404Y70250D01*
X79382Y70229D01*
X79368Y70216D01*
X79355Y70207D01*
X79345Y70200D01*
X79337Y70196D01*
X79331Y70193D01*
X79329Y70193D01*
X78745D01*
X76551Y72387D01*
X76419Y72475D01*
X76263Y72506D01*
X76263Y72506D01*
X67924D01*
X67768Y72475D01*
X67635Y72387D01*
X67635Y72387D01*
X65698Y70449D01*
X65692Y70447D01*
X65679Y70441D01*
X65659Y70435D01*
X65633Y70428D01*
X65605Y70424D01*
X65514Y70416D01*
X65466Y70416D01*
X65460Y70417D01*
X65258Y70390D01*
X65069Y70312D01*
X64907Y70188D01*
X64783Y70026D01*
X64705Y69837D01*
X64678Y69635D01*
X64705Y69433D01*
X64783Y69244D01*
X64819Y69197D01*
X64786Y69057D01*
X64712Y69031D01*
X64293Y69449D01*
Y74696D01*
X64591Y74994D01*
X64708Y74931D01*
X64674Y74762D01*
Y74287D01*
X64716Y74078D01*
X64835Y73900D01*
X65013Y73781D01*
X65223Y73739D01*
X65669D01*
X66316Y73092D01*
X66316Y73092D01*
X66448Y73004D01*
X66604Y72973D01*
X67433D01*
X67435Y72972D01*
X67441Y72969D01*
X67449Y72965D01*
X67459Y72958D01*
X67472Y72949D01*
X67486Y72937D01*
X67508Y72916D01*
X67513Y72913D01*
X67643Y72813D01*
X67801Y72747D01*
X67970Y72725D01*
X68140Y72747D01*
X68298Y72813D01*
X68434Y72917D01*
X68538Y73053D01*
X68604Y73211D01*
X68626Y73381D01*
X68604Y73550D01*
X68538Y73708D01*
X68493Y73767D01*
X68507Y73937D01*
X68553Y73972D01*
X68600Y74035D01*
X68727D01*
X68750Y74005D01*
X68902Y73888D01*
X69080Y73815D01*
X69143Y73806D01*
Y74525D01*
X69270D01*
Y74652D01*
X69989D01*
X69980Y74715D01*
X69907Y74893D01*
X69790Y75045D01*
X69760Y75068D01*
Y75195D01*
X69823Y75242D01*
X69947Y75404D01*
X70025Y75593D01*
X70052Y75795D01*
X70025Y75997D01*
X69947Y76186D01*
X69823Y76348D01*
X69661Y76472D01*
X69472Y76550D01*
X69270Y76577D01*
X69068Y76550D01*
X68879Y76472D01*
X68717Y76348D01*
X68699Y76323D01*
X68572D01*
X68553Y76348D01*
X68549Y76351D01*
X68480Y76424D01*
X68458Y76452D01*
X68439Y76479D01*
X68425Y76501D01*
X68415Y76520D01*
X68410Y76533D01*
X68408Y76539D01*
Y76678D01*
X68408Y76678D01*
X68377Y76834D01*
X68288Y76967D01*
X68288Y76967D01*
X67884Y77371D01*
X67882Y77376D01*
X67878Y77384D01*
X67875Y77395D01*
X67871Y77409D01*
X67868Y77427D01*
X67865Y77448D01*
X67863Y77479D01*
X67856Y77508D01*
X67842Y77614D01*
X67776Y77772D01*
X67672Y77908D01*
X67536Y78012D01*
X67378Y78078D01*
X67208Y78100D01*
X67039Y78078D01*
X66881Y78012D01*
X66745Y77908D01*
X66641Y77772D01*
X66575Y77614D01*
X66553Y77445D01*
X66564Y77356D01*
X66530Y77320D01*
X66450Y77268D01*
X66319Y77294D01*
X66319Y77294D01*
X63516D01*
X63516Y77294D01*
X63359Y77263D01*
X63227Y77174D01*
X63227Y77174D01*
X62786Y76733D01*
X62698Y76601D01*
X62667Y76445D01*
X62667Y76445D01*
Y68944D01*
X62667Y68944D01*
X62698Y68788D01*
X62786Y68656D01*
X64240Y67202D01*
X64240Y67202D01*
X64373Y67113D01*
X64529Y67082D01*
X64529Y67082D01*
X65962D01*
X65962Y67082D01*
X66118Y67113D01*
X66250Y67202D01*
X66563Y67514D01*
X66573Y67520D01*
X66592Y67530D01*
X66619Y67540D01*
X66646Y67549D01*
X66734Y67570D01*
X66811Y67550D01*
X66841Y67540D01*
X66868Y67530D01*
X66887Y67520D01*
X66897Y67514D01*
X68900Y65512D01*
X68900Y65512D01*
X69032Y65423D01*
X69188Y65392D01*
X69188Y65392D01*
X73082D01*
X73082Y65392D01*
X73082Y65392D01*
X73650D01*
X73650Y65392D01*
X73650Y65392D01*
X74096D01*
X74222Y65389D01*
X74222Y65265D01*
Y64627D01*
X74984D01*
X75746D01*
X75746Y65389D01*
X75872Y65392D01*
X75914D01*
X75914Y65392D01*
X75914Y65392D01*
X76208D01*
Y63565D01*
X77824D01*
Y63760D01*
X77951Y63865D01*
X78019Y63856D01*
X78024Y63855D01*
X78054Y63854D01*
X78073Y63853D01*
X78089Y63851D01*
X78101Y63848D01*
X78109Y63846D01*
X78116Y63843D01*
X78117Y63842D01*
X78250Y63710D01*
Y63649D01*
X78247Y63634D01*
X78250Y63620D01*
Y63600D01*
X78250Y63595D01*
X78250Y63594D01*
Y62365D01*
X78133Y62316D01*
X77930Y62518D01*
X77798Y62607D01*
X77764Y62614D01*
Y63165D01*
X76148D01*
Y61295D01*
X77764D01*
Y61365D01*
X77881Y61414D01*
X78217Y61078D01*
X78349Y60990D01*
X78505Y60959D01*
X78505Y60959D01*
X79705D01*
X79705Y60959D01*
X79861Y60990D01*
X79994Y61078D01*
X80313Y61398D01*
X80385Y61505D01*
X80409Y61506D01*
X80473Y61384D01*
X80473Y61381D01*
X80432Y61328D01*
X80367Y61170D01*
X80344Y61000D01*
X80367Y60830D01*
X80432Y60672D01*
X80536Y60536D01*
X80545Y60530D01*
X80502Y60403D01*
X77755D01*
Y60930D01*
X76139D01*
Y59060D01*
X77008D01*
X77047Y58933D01*
X76993Y58897D01*
X76723Y58626D01*
X76623Y58477D01*
X76614Y58431D01*
X76451D01*
X76448Y58432D01*
X76435Y58431D01*
X76429D01*
X76415Y58434D01*
X76401Y58431D01*
X76112D01*
Y58202D01*
X76102Y58199D01*
X76052Y58191D01*
X76019Y58188D01*
X75676D01*
X75643Y58191D01*
X75593Y58199D01*
X75583Y58202D01*
Y58431D01*
X75294D01*
X75280Y58434D01*
X75266Y58431D01*
X75260D01*
X75247Y58432D01*
X75244Y58431D01*
X73942D01*
X73911Y58456D01*
X73844Y58558D01*
X73861Y58683D01*
X73839Y58852D01*
X73807Y58929D01*
Y59089D01*
X73989Y59271D01*
X74107Y59223D01*
Y59060D01*
X75723D01*
Y60590D01*
X75724Y60594D01*
X75723Y60606D01*
Y60613D01*
X75725Y60628D01*
X75723Y60642D01*
Y60930D01*
X75497D01*
X75495Y60939D01*
X75487Y60989D01*
X75484Y61022D01*
Y61201D01*
X75487Y61235D01*
X75495Y61286D01*
X75498Y61295D01*
X75732D01*
Y61596D01*
X75733Y61602D01*
X75732Y61608D01*
Y63165D01*
X74116D01*
Y61634D01*
X74115Y61631D01*
X74116Y61619D01*
Y61612D01*
X74113Y61597D01*
X74116Y61583D01*
Y61295D01*
X74341D01*
X74344Y61286D01*
X74352Y61235D01*
X74354Y61203D01*
Y61023D01*
X74351Y60989D01*
X74343Y60939D01*
X74341Y60930D01*
X74107D01*
Y60629D01*
X74105Y60623D01*
X74004Y60560D01*
X73914D01*
X73914Y60560D01*
X73698Y60517D01*
X73515Y60394D01*
X73515Y60394D01*
X72843Y59722D01*
X72720Y59539D01*
X72677Y59323D01*
X72677Y59323D01*
Y59062D01*
X72637Y59010D01*
X72572Y58852D01*
X72550Y58683D01*
X72572Y58513D01*
X72637Y58355D01*
X72677Y58303D01*
Y58203D01*
X72677Y58203D01*
X72720Y57987D01*
X72843Y57804D01*
X73423Y57224D01*
X73423Y57224D01*
X73606Y57101D01*
X73713Y57080D01*
Y56815D01*
X75244D01*
X75247Y56814D01*
X75260Y56815D01*
X75266D01*
X75280Y56812D01*
X75294Y56815D01*
X75583D01*
Y57044D01*
X75593Y57047D01*
X75643Y57055D01*
X75676Y57058D01*
X76019D01*
X76052Y57055D01*
X76102Y57047D01*
X76112Y57044D01*
Y56815D01*
X76401D01*
X76415Y56812D01*
X76429Y56815D01*
X76435D01*
X76448Y56814D01*
X76451Y56815D01*
X77982D01*
Y58114D01*
X78220D01*
X78250Y58083D01*
Y56062D01*
X79200D01*
Y56109D01*
X79248D01*
Y57237D01*
Y58367D01*
X79200D01*
Y58412D01*
X79145D01*
X79138Y58443D01*
X79039Y58592D01*
X78734Y58897D01*
X78585Y58996D01*
X78410Y59031D01*
X77870D01*
X77755Y59060D01*
X77755Y59158D01*
Y59587D01*
X81356D01*
X81356Y59587D01*
X81512Y59618D01*
X81645Y59706D01*
X82263Y60325D01*
X82263Y60325D01*
X82352Y60458D01*
X82383Y60614D01*
X82383Y60614D01*
Y61588D01*
X83100D01*
Y61633D01*
X83148D01*
Y62763D01*
Y63891D01*
X83100D01*
Y63938D01*
X83033D01*
Y64356D01*
X83656Y64979D01*
X97715D01*
X97800Y64852D01*
X97773Y64788D01*
X97750Y64612D01*
Y63862D01*
X97773Y63685D01*
X97841Y63521D01*
X97950Y63380D01*
X98091Y63272D01*
X98255Y63204D01*
X98431Y63181D01*
X99181D01*
X99357Y63204D01*
X99521Y63272D01*
X99662Y63380D01*
X99771Y63521D01*
X99839Y63685D01*
X99862Y63862D01*
Y64612D01*
X99839Y64788D01*
X99812Y64852D01*
X99897Y64979D01*
X100448D01*
X100505Y64865D01*
X100429Y64766D01*
X100323Y64511D01*
X100287Y64237D01*
X100323Y63963D01*
X100429Y63707D01*
X100597Y63488D01*
X100816Y63319D01*
X101072Y63214D01*
X101346Y63178D01*
X101620Y63214D01*
X101876Y63319D01*
X102095Y63488D01*
X102263Y63707D01*
X102369Y63963D01*
X102405Y64237D01*
X102369Y64511D01*
X102263Y64766D01*
X102187Y64865D01*
X102244Y64979D01*
X102567D01*
X102757Y64789D01*
X102762Y64780D01*
X102773Y64756D01*
X102786Y64718D01*
X102799Y64668D01*
X102810Y64606D01*
X102819Y64535D01*
X102830Y64349D01*
X102830Y64260D01*
X102827Y64237D01*
X102863Y63963D01*
X102969Y63707D01*
X103137Y63488D01*
X103356Y63319D01*
X103612Y63214D01*
X103886Y63178D01*
X104160Y63214D01*
X104416Y63319D01*
X104635Y63488D01*
X104803Y63707D01*
X104909Y63963D01*
X104945Y64237D01*
X104909Y64511D01*
X104803Y64766D01*
X104635Y64985D01*
X104416Y65154D01*
X104160Y65260D01*
X103886Y65296D01*
X103862Y65293D01*
X103773Y65293D01*
X103587Y65304D01*
X103517Y65312D01*
X103454Y65324D01*
X103404Y65337D01*
X103367Y65349D01*
X103342Y65360D01*
X103334Y65366D01*
X103024Y65675D01*
X102892Y65763D01*
X102736Y65794D01*
X102736Y65794D01*
X83487D01*
X83487Y65794D01*
X83331Y65763D01*
X83198Y65675D01*
X82337Y64813D01*
X82248Y64681D01*
X82217Y64525D01*
X82217Y64525D01*
Y63938D01*
X81083D01*
Y64406D01*
X83369Y66692D01*
X98000D01*
X98000Y66692D01*
X98156Y66723D01*
X98288Y66812D01*
X101634Y70158D01*
X101634Y70158D01*
X101723Y70290D01*
X101754Y70446D01*
X101754Y70446D01*
Y70668D01*
X101756Y70678D01*
X101766Y70703D01*
X101783Y70738D01*
X101810Y70783D01*
X101846Y70835D01*
X101889Y70891D01*
X102013Y71030D01*
X102076Y71093D01*
X102095Y71108D01*
X102263Y71327D01*
X102369Y71582D01*
X102405Y71857D01*
X102369Y72131D01*
X102263Y72386D01*
X102187Y72485D01*
X102244Y72599D01*
X102988D01*
X103045Y72485D01*
X102969Y72386D01*
X102863Y72131D01*
X102827Y71857D01*
X102863Y71582D01*
X102969Y71327D01*
X103137Y71108D01*
X103356Y70939D01*
X103612Y70834D01*
X103886Y70798D01*
X104160Y70834D01*
X104416Y70939D01*
X104635Y71108D01*
X104803Y71327D01*
X104909Y71582D01*
X104945Y71857D01*
X104909Y72131D01*
X104803Y72386D01*
X104727Y72485D01*
X104784Y72599D01*
X105107D01*
X105297Y72409D01*
X105302Y72400D01*
X105313Y72376D01*
X105326Y72338D01*
X105339Y72288D01*
X105350Y72226D01*
X105359Y72155D01*
X105370Y71969D01*
X105370Y71880D01*
X105367Y71857D01*
X105403Y71582D01*
X105509Y71327D01*
X105677Y71108D01*
X105896Y70939D01*
X106152Y70834D01*
X106426Y70798D01*
X106700Y70834D01*
X106956Y70939D01*
X107175Y71108D01*
X107343Y71327D01*
X107449Y71582D01*
X107485Y71857D01*
X107449Y72131D01*
X107343Y72386D01*
X107175Y72605D01*
X106956Y72774D01*
X106700Y72880D01*
X106426Y72916D01*
X106402Y72913D01*
X106313Y72913D01*
X106127Y72924D01*
X106057Y72933D01*
X105994Y72944D01*
X105944Y72956D01*
X105907Y72969D01*
X105882Y72980D01*
X105874Y72986D01*
X105564Y73295D01*
X105432Y73383D01*
X105276Y73414D01*
X105276Y73414D01*
X84435D01*
X84432Y73416D01*
X84425Y73418D01*
X84416Y73423D01*
X84405Y73430D01*
X84392Y73440D01*
X84376Y73452D01*
X84354Y73474D01*
X84338Y73483D01*
X84228Y73568D01*
X84070Y73633D01*
X83900Y73656D01*
X83730Y73633D01*
X83572Y73568D01*
X83436Y73464D01*
X83332Y73328D01*
X83297Y73243D01*
X83153Y73228D01*
X83090Y73311D01*
X82954Y73415D01*
X82796Y73480D01*
X82626Y73503D01*
X82457Y73480D01*
X82298Y73415D01*
X82168Y73315D01*
X82164Y73312D01*
X82142Y73291D01*
X82127Y73279D01*
X82115Y73269D01*
X82105Y73263D01*
X82097Y73258D01*
X82091Y73256D01*
X82089Y73255D01*
X80490D01*
X79427Y74318D01*
Y81788D01*
X79423Y81808D01*
X79400Y81985D01*
X79324Y82168D01*
X79203Y82326D01*
X79242Y82456D01*
X79346Y82469D01*
X79530Y82545D01*
X79687Y82666D01*
X79808Y82824D01*
X79884Y83007D01*
X79907Y83184D01*
X79911Y83204D01*
X79907Y83224D01*
X79884Y83401D01*
X79808Y83584D01*
X79687Y83742D01*
X79530Y83863D01*
X79346Y83939D01*
X79242Y83952D01*
X79203Y84082D01*
X79324Y84240D01*
X79400Y84423D01*
X79423Y84600D01*
X79427Y84620D01*
Y85734D01*
X80789Y87095D01*
X80913Y87070D01*
X80925Y87042D01*
X81033Y86901D01*
X81174Y86792D01*
X81338Y86724D01*
X81515Y86701D01*
X82265D01*
X82441Y86724D01*
X82605Y86792D01*
X82746Y86901D01*
X82854Y87042D01*
X82922Y87206D01*
X82945Y87382D01*
Y88132D01*
X82922Y88308D01*
X82854Y88472D01*
X82746Y88613D01*
X82605Y88722D01*
X82558Y88741D01*
X82534Y88866D01*
X83430Y89762D01*
X84215D01*
X84238Y89589D01*
X84314Y89406D01*
X84435Y89248D01*
X84592Y89127D01*
X84776Y89051D01*
X84953Y89028D01*
X84973Y89024D01*
X84992Y89028D01*
X85169Y89051D01*
X85353Y89127D01*
X85510Y89248D01*
X85606Y89373D01*
X85647Y89384D01*
X85714D01*
X85755Y89373D01*
X85851Y89248D01*
X86008Y89127D01*
X86192Y89051D01*
X86369Y89028D01*
X86389Y89024D01*
X86408Y89028D01*
X86585Y89051D01*
X86769Y89127D01*
X86926Y89248D01*
X87047Y89406D01*
X87123Y89589D01*
X87146Y89762D01*
X89696D01*
X89930Y89528D01*
Y89002D01*
X87913D01*
Y86934D01*
X87848Y86869D01*
X85195D01*
X85154Y86990D01*
X85178Y87008D01*
X85347Y87227D01*
X85453Y87483D01*
X85489Y87757D01*
X85453Y88031D01*
X85347Y88287D01*
X85178Y88506D01*
X84959Y88674D01*
X84704Y88780D01*
X84430Y88816D01*
X84156Y88780D01*
X83900Y88674D01*
X83681Y88506D01*
X83512Y88287D01*
X83407Y88031D01*
X83371Y87757D01*
X83407Y87483D01*
X83512Y87227D01*
X83681Y87008D01*
X83705Y86990D01*
X83664Y86869D01*
X83134D01*
X83134Y86869D01*
X82978Y86838D01*
X82846Y86750D01*
X82846Y86750D01*
X82442Y86346D01*
X82433Y86341D01*
X82409Y86330D01*
X82371Y86317D01*
X82321Y86304D01*
X82259Y86293D01*
X82188Y86284D01*
X82002Y86273D01*
X81913Y86273D01*
X81890Y86276D01*
X81616Y86240D01*
X81360Y86134D01*
X81141Y85966D01*
X80972Y85747D01*
X80867Y85491D01*
X80831Y85217D01*
X80867Y84943D01*
X80972Y84687D01*
X81141Y84468D01*
X81360Y84300D01*
X81616Y84194D01*
X81890Y84158D01*
X82164Y84194D01*
X82419Y84300D01*
X82638Y84468D01*
X82807Y84687D01*
X82913Y84943D01*
X82949Y85217D01*
X82946Y85241D01*
X82946Y85330D01*
X82957Y85516D01*
X82965Y85586D01*
X82977Y85649D01*
X82989Y85699D01*
X83002Y85736D01*
X83013Y85761D01*
X83019Y85769D01*
X83303Y86054D01*
X83598D01*
X83651Y85927D01*
X83512Y85747D01*
X83407Y85491D01*
X83371Y85217D01*
X83407Y84943D01*
X83512Y84687D01*
X83681Y84468D01*
X83795Y84380D01*
X83803Y84254D01*
X82852Y83303D01*
X82713Y83339D01*
X82697Y83357D01*
X82683Y83368D01*
X82638Y83426D01*
X82419Y83594D01*
X82164Y83700D01*
X81890Y83736D01*
X81616Y83700D01*
X81360Y83594D01*
X81141Y83426D01*
X80972Y83207D01*
X80867Y82951D01*
X80831Y82677D01*
X80867Y82403D01*
X80972Y82147D01*
X81141Y81928D01*
X81360Y81760D01*
X81616Y81654D01*
X81890Y81618D01*
X82164Y81654D01*
X82419Y81760D01*
X82638Y81928D01*
X82807Y82147D01*
X82873Y82308D01*
X82886Y82328D01*
X82901Y82367D01*
X82911Y82387D01*
X82918Y82399D01*
X82923Y82405D01*
X82924Y82405D01*
X82924Y82406D01*
X82940D01*
X82940Y82406D01*
X82950Y82408D01*
X82957Y82408D01*
X82974Y82412D01*
X83096Y82437D01*
X83228Y82525D01*
X83270Y82567D01*
X83390Y82526D01*
X83407Y82403D01*
X83512Y82147D01*
X83588Y82049D01*
X83532Y81935D01*
X83280D01*
X83280Y81935D01*
X83124Y81904D01*
X82991Y81815D01*
X82442Y81266D01*
X82433Y81261D01*
X82409Y81250D01*
X82371Y81237D01*
X82321Y81224D01*
X82259Y81213D01*
X82188Y81204D01*
X82002Y81193D01*
X81913Y81193D01*
X81890Y81196D01*
X81616Y81160D01*
X81360Y81054D01*
X81141Y80886D01*
X80972Y80667D01*
X80867Y80411D01*
X80831Y80137D01*
X80867Y79863D01*
X80972Y79607D01*
X81141Y79388D01*
X81360Y79220D01*
X81616Y79114D01*
X81890Y79078D01*
X82164Y79114D01*
X82419Y79220D01*
X82638Y79388D01*
X82807Y79607D01*
X82913Y79863D01*
X82949Y80137D01*
X82946Y80161D01*
X82946Y80250D01*
X82957Y80436D01*
X82965Y80506D01*
X82977Y80569D01*
X82989Y80619D01*
X83002Y80656D01*
X83013Y80681D01*
X83019Y80689D01*
X83449Y81119D01*
X83862D01*
X83895Y80992D01*
X83714Y80853D01*
X83553Y80643D01*
X83451Y80399D01*
X83434Y80264D01*
X84430D01*
X85426D01*
X85408Y80399D01*
X85307Y80643D01*
X85146Y80853D01*
X84964Y80992D01*
X84997Y81119D01*
X85261D01*
X85261Y81119D01*
X85417Y81150D01*
X85549Y81239D01*
X88002Y83692D01*
X90221D01*
X90221Y83692D01*
X90228Y83693D01*
X90369Y83592D01*
X90374Y83558D01*
X90370Y83522D01*
X90309Y83431D01*
X90163D01*
Y83477D01*
X88563D01*
Y83431D01*
X88515D01*
Y82302D01*
X88388D01*
Y82175D01*
X87959D01*
Y81173D01*
X88353D01*
X88392Y81095D01*
X88402Y81046D01*
X88307Y80922D01*
X88241Y80764D01*
X88219Y80594D01*
X88241Y80425D01*
X88307Y80266D01*
X88411Y80131D01*
X88547Y80026D01*
X88668Y79976D01*
X88716Y79844D01*
X88612Y79740D01*
X88600Y79723D01*
X88492Y79581D01*
X88416Y79398D01*
X88390Y79201D01*
X88391Y79194D01*
X88272Y79125D01*
X88232Y79156D01*
X88048Y79232D01*
X87851Y79258D01*
X87655Y79232D01*
X87471Y79156D01*
X87330Y79047D01*
X87313Y79036D01*
X87302Y79019D01*
X87193Y78877D01*
X87117Y78694D01*
X87091Y78497D01*
X87117Y78300D01*
X87193Y78117D01*
X87224Y78077D01*
X87155Y77958D01*
X87148Y77959D01*
X86951Y77933D01*
X86768Y77857D01*
X86626Y77748D01*
X86609Y77737D01*
X85727Y76855D01*
X85286D01*
X85223Y76982D01*
X85307Y77091D01*
X85408Y77335D01*
X85426Y77470D01*
X84430D01*
X83434D01*
X83451Y77335D01*
X83553Y77091D01*
X83636Y76982D01*
X83573Y76855D01*
X82787D01*
X82731Y76969D01*
X82807Y77067D01*
X82913Y77323D01*
X82949Y77597D01*
X82913Y77871D01*
X82807Y78127D01*
X82638Y78346D01*
X82419Y78514D01*
X82164Y78620D01*
X81890Y78656D01*
X81616Y78620D01*
X81360Y78514D01*
X81141Y78346D01*
X80972Y78127D01*
X80867Y77871D01*
X80831Y77597D01*
X80867Y77323D01*
X80972Y77067D01*
X81141Y76848D01*
X81360Y76680D01*
X81510Y76618D01*
X81513Y76603D01*
X81601Y76470D01*
X81913Y76159D01*
X81913Y76159D01*
X82045Y76070D01*
X82201Y76039D01*
X85896D01*
X85896Y76039D01*
X86052Y76070D01*
X86184Y76159D01*
X87152Y77126D01*
X87281Y77028D01*
X87464Y76952D01*
X87661Y76926D01*
X87858Y76952D01*
X88042Y77028D01*
X88183Y77136D01*
X88200Y77147D01*
X88211Y77164D01*
X88320Y77306D01*
X88396Y77489D01*
X88422Y77686D01*
X88401Y77842D01*
X88423Y77879D01*
X88470Y77926D01*
X88507Y77947D01*
X88663Y77927D01*
X88859Y77953D01*
X89043Y78029D01*
X89184Y78137D01*
X89201Y78149D01*
X89212Y78165D01*
X89321Y78307D01*
X89397Y78491D01*
X89423Y78687D01*
X89397Y78884D01*
X89321Y79068D01*
X89222Y79197D01*
X89976Y79951D01*
X89976Y79951D01*
X90065Y80083D01*
X90096Y80239D01*
Y81127D01*
X90163D01*
Y81173D01*
X90211D01*
Y82302D01*
X90465D01*
Y81173D01*
X90513D01*
Y81127D01*
X91463D01*
Y81173D01*
X91511D01*
Y82302D01*
X91765D01*
Y81173D01*
X91813D01*
Y81127D01*
X92763D01*
Y81173D01*
X92811D01*
Y82302D01*
X93065D01*
Y81173D01*
X93113D01*
Y81127D01*
X94063D01*
Y81173D01*
X94111D01*
Y82302D01*
X94238D01*
Y82429D01*
X94667D01*
Y83431D01*
X94359D01*
X94311Y83548D01*
X95704Y84942D01*
X95793Y85074D01*
X95824Y85230D01*
X95824Y85230D01*
Y88582D01*
X95824Y88582D01*
X95793Y88738D01*
X95704Y88870D01*
X95704Y88870D01*
X94345Y90230D01*
X94212Y90318D01*
X94056Y90349D01*
X94056Y90349D01*
X92269D01*
X90531Y92087D01*
X90603Y92195D01*
X90801Y92113D01*
X90937Y92095D01*
Y93091D01*
Y94087D01*
X90801Y94069D01*
X90557Y93968D01*
X90348Y93807D01*
X90265Y93700D01*
X90109Y93705D01*
X90103Y93715D01*
X90103Y93715D01*
X88931Y94886D01*
Y96728D01*
X88934Y96738D01*
X88943Y96763D01*
X88961Y96799D01*
X88987Y96843D01*
X89023Y96895D01*
X89067Y96951D01*
X89191Y97090D01*
X89253Y97154D01*
X89272Y97168D01*
X89441Y97387D01*
X89547Y97643D01*
X89583Y97917D01*
X89547Y98191D01*
X89441Y98447D01*
X89272Y98666D01*
X89053Y98834D01*
X88798Y98940D01*
X88524Y98976D01*
D02*
G37*
G36*
X88397Y92964D02*
X87528D01*
X87545Y92829D01*
X87647Y92585D01*
X87808Y92375D01*
X88017Y92214D01*
X88261Y92113D01*
X88397Y92095D01*
Y92964D01*
D02*
G37*
G36*
X86980D02*
X86111D01*
Y92095D01*
X86246Y92113D01*
X86490Y92214D01*
X86700Y92375D01*
X86861Y92585D01*
X86962Y92829D01*
X86980Y92964D01*
D02*
G37*
G36*
X85857D02*
X84988D01*
X85005Y92829D01*
X85107Y92585D01*
X85268Y92375D01*
X85477Y92214D01*
X85721Y92113D01*
X85857Y92095D01*
Y92964D01*
D02*
G37*
G36*
X105633Y94147D02*
X104883D01*
X104706Y94124D01*
X104542Y94056D01*
X104401Y93947D01*
X104293Y93806D01*
X104225Y93642D01*
X104202Y93466D01*
Y92716D01*
X104225Y92540D01*
X104293Y92376D01*
X104401Y92235D01*
X104542Y92126D01*
X104706Y92058D01*
X104883Y92035D01*
X105633D01*
X105809Y92058D01*
X105973Y92126D01*
X106114Y92235D01*
X106222Y92376D01*
X106290Y92540D01*
X106313Y92716D01*
Y93466D01*
X106290Y93642D01*
X106222Y93806D01*
X106114Y93947D01*
X105973Y94056D01*
X105809Y94124D01*
X105633Y94147D01*
D02*
G37*
G36*
X78739D02*
X77989D01*
X77812Y94124D01*
X77648Y94056D01*
X77507Y93947D01*
X77399Y93806D01*
X77331Y93642D01*
X77308Y93466D01*
Y92716D01*
X77331Y92540D01*
X77399Y92376D01*
X77507Y92235D01*
X77648Y92126D01*
X77812Y92058D01*
X77989Y92035D01*
X78739D01*
X78915Y92058D01*
X79079Y92126D01*
X79220Y92235D01*
X79328Y92376D01*
X79396Y92540D01*
X79419Y92716D01*
Y93466D01*
X79396Y93642D01*
X79328Y93806D01*
X79220Y93947D01*
X79079Y94056D01*
X78915Y94124D01*
X78739Y94147D01*
D02*
G37*
G36*
X123038Y94150D02*
X122763Y94114D01*
X122508Y94008D01*
X122289Y93840D01*
X122120Y93621D01*
X122015Y93365D01*
X121979Y93091D01*
X122015Y92817D01*
X122120Y92561D01*
X122289Y92342D01*
X122508Y92174D01*
X122763Y92068D01*
X123038Y92032D01*
X123312Y92068D01*
X123567Y92174D01*
X123786Y92342D01*
X123955Y92561D01*
X124061Y92817D01*
X124097Y93091D01*
X124061Y93365D01*
X123955Y93621D01*
X123786Y93840D01*
X123567Y94008D01*
X123312Y94114D01*
X123038Y94150D01*
D02*
G37*
G36*
X120498D02*
X120223Y94114D01*
X119968Y94008D01*
X119749Y93840D01*
X119580Y93621D01*
X119475Y93365D01*
X119439Y93091D01*
X119475Y92817D01*
X119580Y92561D01*
X119749Y92342D01*
X119968Y92174D01*
X120223Y92068D01*
X120498Y92032D01*
X120772Y92068D01*
X121027Y92174D01*
X121246Y92342D01*
X121415Y92561D01*
X121521Y92817D01*
X121557Y93091D01*
X121521Y93365D01*
X121415Y93621D01*
X121246Y93840D01*
X121027Y94008D01*
X120772Y94114D01*
X120498Y94150D01*
D02*
G37*
G36*
X117958D02*
X117684Y94114D01*
X117428Y94008D01*
X117209Y93840D01*
X117040Y93621D01*
X116935Y93365D01*
X116899Y93091D01*
X116935Y92817D01*
X117040Y92561D01*
X117209Y92342D01*
X117428Y92174D01*
X117684Y92068D01*
X117958Y92032D01*
X118232Y92068D01*
X118487Y92174D01*
X118706Y92342D01*
X118875Y92561D01*
X118981Y92817D01*
X119017Y93091D01*
X118981Y93365D01*
X118875Y93621D01*
X118706Y93840D01*
X118487Y94008D01*
X118232Y94114D01*
X117958Y94150D01*
D02*
G37*
G36*
X115418D02*
X115143Y94114D01*
X114888Y94008D01*
X114669Y93840D01*
X114500Y93621D01*
X114395Y93365D01*
X114359Y93091D01*
X114395Y92817D01*
X114500Y92561D01*
X114669Y92342D01*
X114888Y92174D01*
X115143Y92068D01*
X115418Y92032D01*
X115692Y92068D01*
X115947Y92174D01*
X116166Y92342D01*
X116335Y92561D01*
X116441Y92817D01*
X116477Y93091D01*
X116441Y93365D01*
X116335Y93621D01*
X116166Y93840D01*
X115947Y94008D01*
X115692Y94114D01*
X115418Y94150D01*
D02*
G37*
G36*
X112878D02*
X112603Y94114D01*
X112348Y94008D01*
X112129Y93840D01*
X111960Y93621D01*
X111855Y93365D01*
X111819Y93091D01*
X111855Y92817D01*
X111960Y92561D01*
X112129Y92342D01*
X112348Y92174D01*
X112603Y92068D01*
X112878Y92032D01*
X113152Y92068D01*
X113407Y92174D01*
X113626Y92342D01*
X113795Y92561D01*
X113901Y92817D01*
X113937Y93091D01*
X113901Y93365D01*
X113795Y93621D01*
X113626Y93840D01*
X113407Y94008D01*
X113152Y94114D01*
X112878Y94150D01*
D02*
G37*
G36*
X110338D02*
X110063Y94114D01*
X109808Y94008D01*
X109589Y93840D01*
X109420Y93621D01*
X109315Y93365D01*
X109279Y93091D01*
X109315Y92817D01*
X109420Y92561D01*
X109589Y92342D01*
X109808Y92174D01*
X110063Y92068D01*
X110338Y92032D01*
X110612Y92068D01*
X110867Y92174D01*
X111086Y92342D01*
X111255Y92561D01*
X111361Y92817D01*
X111397Y93091D01*
X111361Y93365D01*
X111255Y93621D01*
X111086Y93840D01*
X110867Y94008D01*
X110612Y94114D01*
X110338Y94150D01*
D02*
G37*
G36*
X107798D02*
X107523Y94114D01*
X107268Y94008D01*
X107049Y93840D01*
X106880Y93621D01*
X106775Y93365D01*
X106739Y93091D01*
X106775Y92817D01*
X106880Y92561D01*
X107049Y92342D01*
X107268Y92174D01*
X107523Y92068D01*
X107798Y92032D01*
X108072Y92068D01*
X108327Y92174D01*
X108546Y92342D01*
X108715Y92561D01*
X108821Y92817D01*
X108857Y93091D01*
X108821Y93365D01*
X108715Y93621D01*
X108546Y93840D01*
X108327Y94008D01*
X108072Y94114D01*
X107798Y94150D01*
D02*
G37*
G36*
X101224D02*
X100949Y94114D01*
X100694Y94008D01*
X100475Y93840D01*
X100306Y93621D01*
X100201Y93365D01*
X100165Y93091D01*
X100201Y92817D01*
X100306Y92561D01*
X100475Y92342D01*
X100694Y92174D01*
X100949Y92068D01*
X101224Y92032D01*
X101498Y92068D01*
X101753Y92174D01*
X101972Y92342D01*
X102141Y92561D01*
X102247Y92817D01*
X102283Y93091D01*
X102247Y93365D01*
X102141Y93621D01*
X101972Y93840D01*
X101753Y94008D01*
X101498Y94114D01*
X101224Y94150D01*
D02*
G37*
G36*
X83444D02*
X83169Y94114D01*
X82914Y94008D01*
X82695Y93840D01*
X82526Y93621D01*
X82421Y93365D01*
X82385Y93091D01*
X82421Y92817D01*
X82526Y92561D01*
X82695Y92342D01*
X82914Y92174D01*
X83169Y92068D01*
X83444Y92032D01*
X83718Y92068D01*
X83973Y92174D01*
X84192Y92342D01*
X84361Y92561D01*
X84467Y92817D01*
X84503Y93091D01*
X84467Y93365D01*
X84361Y93621D01*
X84192Y93840D01*
X83973Y94008D01*
X83718Y94114D01*
X83444Y94150D01*
D02*
G37*
G36*
X80904D02*
X80629Y94114D01*
X80374Y94008D01*
X80155Y93840D01*
X79986Y93621D01*
X79881Y93365D01*
X79845Y93091D01*
X79881Y92817D01*
X79986Y92561D01*
X80155Y92342D01*
X80374Y92174D01*
X80629Y92068D01*
X80904Y92032D01*
X81178Y92068D01*
X81433Y92174D01*
X81652Y92342D01*
X81821Y92561D01*
X81927Y92817D01*
X81963Y93091D01*
X81927Y93365D01*
X81821Y93621D01*
X81652Y93840D01*
X81433Y94008D01*
X81178Y94114D01*
X80904Y94150D01*
D02*
G37*
G36*
X88261Y83431D02*
X87959D01*
Y82429D01*
X88261D01*
Y83431D01*
D02*
G37*
G36*
X94667Y82175D02*
X94365D01*
Y81173D01*
X94667D01*
Y82175D01*
D02*
G37*
G36*
X85426Y80010D02*
X84557D01*
Y79141D01*
X84692Y79159D01*
X84936Y79260D01*
X85146Y79421D01*
X85307Y79631D01*
X85408Y79875D01*
X85426Y80010D01*
D02*
G37*
G36*
X84303D02*
X83434D01*
X83451Y79875D01*
X83553Y79631D01*
X83714Y79421D01*
X83923Y79260D01*
X84168Y79159D01*
X84303Y79141D01*
Y80010D01*
D02*
G37*
G36*
X99551Y80684D02*
X98111D01*
X97963Y80655D01*
X97837Y80571D01*
X97753Y80445D01*
X97724Y80297D01*
Y78657D01*
X97753Y78508D01*
X97837Y78383D01*
X97963Y78299D01*
X98111Y78269D01*
X99551D01*
X99700Y78299D01*
X99825Y78383D01*
X99909Y78508D01*
X99939Y78657D01*
Y80297D01*
X99909Y80445D01*
X99825Y80571D01*
X99700Y80655D01*
X99551Y80684D01*
D02*
G37*
G36*
X106451Y80686D02*
X106164Y80648D01*
X105897Y80537D01*
X105667Y80361D01*
X105491Y80131D01*
X105380Y79864D01*
X105342Y79577D01*
Y79377D01*
X105380Y79089D01*
X105491Y78822D01*
X105667Y78592D01*
X105897Y78416D01*
X106164Y78305D01*
X106451Y78267D01*
X106739Y78305D01*
X107006Y78416D01*
X107236Y78592D01*
X107412Y78822D01*
X107523Y79089D01*
X107561Y79377D01*
Y79577D01*
X107523Y79864D01*
X107412Y80131D01*
X107236Y80361D01*
X107006Y80537D01*
X106739Y80648D01*
X106451Y80686D01*
D02*
G37*
G36*
X103911D02*
X103624Y80648D01*
X103357Y80537D01*
X103127Y80361D01*
X102951Y80131D01*
X102840Y79864D01*
X102802Y79577D01*
Y79377D01*
X102840Y79089D01*
X102951Y78822D01*
X103127Y78592D01*
X103357Y78416D01*
X103624Y78305D01*
X103911Y78267D01*
X104199Y78305D01*
X104466Y78416D01*
X104696Y78592D01*
X104872Y78822D01*
X104983Y79089D01*
X105021Y79377D01*
Y79577D01*
X104983Y79864D01*
X104872Y80131D01*
X104696Y80361D01*
X104466Y80537D01*
X104199Y80648D01*
X103911Y80686D01*
D02*
G37*
G36*
X101371D02*
X101084Y80648D01*
X100817Y80537D01*
X100587Y80361D01*
X100411Y80131D01*
X100300Y79864D01*
X100262Y79577D01*
Y79377D01*
X100300Y79089D01*
X100411Y78822D01*
X100587Y78592D01*
X100817Y78416D01*
X101084Y78305D01*
X101371Y78267D01*
X101659Y78305D01*
X101926Y78416D01*
X102156Y78592D01*
X102332Y78822D01*
X102443Y79089D01*
X102481Y79377D01*
Y79577D01*
X102443Y79864D01*
X102332Y80131D01*
X102156Y80361D01*
X101926Y80537D01*
X101659Y80648D01*
X101371Y80686D01*
D02*
G37*
G36*
X84557Y78593D02*
Y77724D01*
X85426D01*
X85408Y77859D01*
X85307Y78103D01*
X85146Y78313D01*
X84936Y78474D01*
X84692Y78575D01*
X84557Y78593D01*
D02*
G37*
G36*
X84303D02*
X84168Y78575D01*
X83923Y78474D01*
X83714Y78313D01*
X83553Y78103D01*
X83451Y77859D01*
X83434Y77724D01*
X84303D01*
Y78593D01*
D02*
G37*
G36*
X69989Y74398D02*
X69397D01*
Y73806D01*
X69460Y73815D01*
X69638Y73888D01*
X69790Y74005D01*
X69907Y74157D01*
X69980Y74335D01*
X69989Y74398D01*
D02*
G37*
G36*
X116586Y72916D02*
X116312Y72880D01*
X116056Y72774D01*
X115837Y72605D01*
X115669Y72386D01*
X115563Y72131D01*
X115527Y71857D01*
X115563Y71582D01*
X115669Y71327D01*
X115837Y71108D01*
X116056Y70939D01*
X116312Y70834D01*
X116586Y70798D01*
X116860Y70834D01*
X117116Y70939D01*
X117335Y71108D01*
X117503Y71327D01*
X117609Y71582D01*
X117645Y71857D01*
X117609Y72131D01*
X117503Y72386D01*
X117335Y72605D01*
X117116Y72774D01*
X116860Y72880D01*
X116586Y72916D01*
D02*
G37*
G36*
X114046D02*
X113772Y72880D01*
X113516Y72774D01*
X113297Y72605D01*
X113129Y72386D01*
X113023Y72131D01*
X112987Y71857D01*
X113023Y71582D01*
X113129Y71327D01*
X113297Y71108D01*
X113516Y70939D01*
X113772Y70834D01*
X114046Y70798D01*
X114320Y70834D01*
X114576Y70939D01*
X114795Y71108D01*
X114963Y71327D01*
X115069Y71582D01*
X115105Y71857D01*
X115069Y72131D01*
X114963Y72386D01*
X114795Y72605D01*
X114576Y72774D01*
X114320Y72880D01*
X114046Y72916D01*
D02*
G37*
G36*
X111506D02*
X111232Y72880D01*
X110976Y72774D01*
X110757Y72605D01*
X110589Y72386D01*
X110483Y72131D01*
X110447Y71857D01*
X110483Y71582D01*
X110589Y71327D01*
X110757Y71108D01*
X110976Y70939D01*
X111232Y70834D01*
X111506Y70798D01*
X111780Y70834D01*
X112036Y70939D01*
X112255Y71108D01*
X112423Y71327D01*
X112529Y71582D01*
X112565Y71857D01*
X112529Y72131D01*
X112423Y72386D01*
X112255Y72605D01*
X112036Y72774D01*
X111780Y72880D01*
X111506Y72916D01*
D02*
G37*
G36*
X108966D02*
X108692Y72880D01*
X108436Y72774D01*
X108217Y72605D01*
X108049Y72386D01*
X107943Y72131D01*
X107907Y71857D01*
X107943Y71582D01*
X108049Y71327D01*
X108217Y71108D01*
X108436Y70939D01*
X108692Y70834D01*
X108966Y70798D01*
X109240Y70834D01*
X109496Y70939D01*
X109715Y71108D01*
X109883Y71327D01*
X109989Y71582D01*
X110025Y71857D01*
X109989Y72131D01*
X109883Y72386D01*
X109715Y72605D01*
X109496Y72774D01*
X109240Y72880D01*
X108966Y72916D01*
D02*
G37*
G36*
X106553Y65233D02*
Y64364D01*
X107422D01*
X107404Y64499D01*
X107303Y64743D01*
X107142Y64953D01*
X106932Y65114D01*
X106688Y65215D01*
X106553Y65233D01*
D02*
G37*
G36*
X106299D02*
X106164Y65215D01*
X105920Y65114D01*
X105710Y64953D01*
X105549Y64743D01*
X105448Y64499D01*
X105430Y64364D01*
X106299D01*
Y65233D01*
D02*
G37*
G36*
X75746Y64373D02*
X75111D01*
Y63611D01*
X75746D01*
Y64373D01*
D02*
G37*
G36*
X74857D02*
X74222D01*
Y63611D01*
X74857D01*
Y64373D01*
D02*
G37*
G36*
X107422Y64110D02*
X106553D01*
Y63241D01*
X106688Y63258D01*
X106932Y63360D01*
X107142Y63521D01*
X107303Y63730D01*
X107404Y63975D01*
X107422Y64110D01*
D02*
G37*
G36*
X106299D02*
X105430D01*
X105448Y63975D01*
X105549Y63730D01*
X105710Y63521D01*
X105920Y63360D01*
X106164Y63258D01*
X106299Y63241D01*
Y64110D01*
D02*
G37*
G36*
X116586Y65296D02*
X116312Y65260D01*
X116056Y65154D01*
X115837Y64985D01*
X115669Y64766D01*
X115563Y64511D01*
X115527Y64237D01*
X115563Y63963D01*
X115669Y63707D01*
X115837Y63488D01*
X116056Y63319D01*
X116312Y63214D01*
X116586Y63178D01*
X116860Y63214D01*
X117116Y63319D01*
X117335Y63488D01*
X117503Y63707D01*
X117609Y63963D01*
X117645Y64237D01*
X117609Y64511D01*
X117503Y64766D01*
X117335Y64985D01*
X117116Y65154D01*
X116860Y65260D01*
X116586Y65296D01*
D02*
G37*
G36*
X114046D02*
X113772Y65260D01*
X113516Y65154D01*
X113297Y64985D01*
X113129Y64766D01*
X113023Y64511D01*
X112987Y64237D01*
X113023Y63963D01*
X113129Y63707D01*
X113297Y63488D01*
X113516Y63319D01*
X113772Y63214D01*
X114046Y63178D01*
X114320Y63214D01*
X114576Y63319D01*
X114795Y63488D01*
X114963Y63707D01*
X115069Y63963D01*
X115105Y64237D01*
X115069Y64511D01*
X114963Y64766D01*
X114795Y64985D01*
X114576Y65154D01*
X114320Y65260D01*
X114046Y65296D01*
D02*
G37*
G36*
X111506D02*
X111232Y65260D01*
X110976Y65154D01*
X110757Y64985D01*
X110589Y64766D01*
X110483Y64511D01*
X110447Y64237D01*
X110483Y63963D01*
X110589Y63707D01*
X110757Y63488D01*
X110976Y63319D01*
X111232Y63214D01*
X111506Y63178D01*
X111780Y63214D01*
X112036Y63319D01*
X112255Y63488D01*
X112423Y63707D01*
X112529Y63963D01*
X112565Y64237D01*
X112529Y64511D01*
X112423Y64766D01*
X112255Y64985D01*
X112036Y65154D01*
X111780Y65260D01*
X111506Y65296D01*
D02*
G37*
G36*
X108966D02*
X108692Y65260D01*
X108436Y65154D01*
X108217Y64985D01*
X108049Y64766D01*
X107943Y64511D01*
X107907Y64237D01*
X107943Y63963D01*
X108049Y63707D01*
X108217Y63488D01*
X108436Y63319D01*
X108692Y63214D01*
X108966Y63178D01*
X109240Y63214D01*
X109496Y63319D01*
X109715Y63488D01*
X109883Y63707D01*
X109989Y63963D01*
X110025Y64237D01*
X109989Y64511D01*
X109883Y64766D01*
X109715Y64985D01*
X109496Y65154D01*
X109240Y65260D01*
X108966Y65296D01*
D02*
G37*
G36*
X83704Y63891D02*
X83402D01*
Y62889D01*
X83704D01*
Y63891D01*
D02*
G37*
G36*
Y62636D02*
X83402D01*
Y61633D01*
X83704D01*
Y62636D01*
D02*
G37*
G36*
X63820Y60897D02*
X62180D01*
X62032Y60868D01*
X61906Y60784D01*
X61822Y60658D01*
X61793Y60510D01*
Y59070D01*
X61822Y58922D01*
X61906Y58796D01*
X62032Y58712D01*
X62180Y58683D01*
X63820D01*
X63968Y58712D01*
X64094Y58796D01*
X64178Y58922D01*
X64207Y59070D01*
Y60510D01*
X64178Y60658D01*
X64094Y60784D01*
X63968Y60868D01*
X63820Y60897D01*
D02*
G37*
G36*
X63100Y58359D02*
X62900D01*
X62613Y58322D01*
X62345Y58211D01*
X62115Y58035D01*
X61939Y57805D01*
X61828Y57537D01*
X61791Y57250D01*
X61828Y56963D01*
X61939Y56695D01*
X62115Y56465D01*
X62345Y56289D01*
X62613Y56178D01*
X62900Y56141D01*
X63100D01*
X63387Y56178D01*
X63655Y56289D01*
X63885Y56465D01*
X64061Y56695D01*
X64172Y56963D01*
X64209Y57250D01*
X64172Y57537D01*
X64061Y57805D01*
X63885Y58035D01*
X63655Y58211D01*
X63387Y58322D01*
X63100Y58359D01*
D02*
G37*
G36*
X83750Y58412D02*
X79550D01*
Y58367D01*
X79502D01*
Y57237D01*
Y56109D01*
X79550D01*
Y56062D01*
X83750D01*
Y58412D01*
D02*
G37*
G36*
X75537Y56353D02*
X74775D01*
Y55718D01*
X75537D01*
Y56353D01*
D02*
G37*
G36*
X74521D02*
X73759D01*
Y55718D01*
X74521D01*
Y56353D01*
D02*
G37*
G36*
X77936Y56353D02*
X77174D01*
Y55718D01*
X77936D01*
Y56353D01*
D02*
G37*
G36*
X76920D02*
X76158D01*
Y55718D01*
X76920D01*
Y56353D01*
D02*
G37*
G36*
X75537Y55464D02*
X74775D01*
Y54829D01*
X75537D01*
Y55464D01*
D02*
G37*
G36*
X74521D02*
X73759D01*
Y54829D01*
X74521D01*
Y55464D01*
D02*
G37*
G36*
X77936Y55464D02*
X77174D01*
Y54829D01*
X77936D01*
Y55464D01*
D02*
G37*
G36*
X76920D02*
X76158D01*
Y54829D01*
X76920D01*
Y55464D01*
D02*
G37*
G36*
X101067Y55657D02*
Y54788D01*
X101936D01*
X101918Y54923D01*
X101817Y55167D01*
X101656Y55377D01*
X101446Y55538D01*
X101202Y55639D01*
X101067Y55657D01*
D02*
G37*
G36*
X100813D02*
X100678Y55639D01*
X100433Y55538D01*
X100224Y55377D01*
X100063Y55167D01*
X99961Y54923D01*
X99944Y54788D01*
X100813D01*
Y55657D01*
D02*
G37*
G36*
X98527D02*
Y54788D01*
X99396D01*
X99378Y54923D01*
X99277Y55167D01*
X99116Y55377D01*
X98906Y55538D01*
X98662Y55639D01*
X98527Y55657D01*
D02*
G37*
G36*
X98273D02*
X98138Y55639D01*
X97893Y55538D01*
X97684Y55377D01*
X97523Y55167D01*
X97421Y54923D01*
X97404Y54788D01*
X98273D01*
Y55657D01*
D02*
G37*
G36*
X101936Y54534D02*
X101067D01*
Y53665D01*
X101202Y53683D01*
X101446Y53784D01*
X101656Y53945D01*
X101817Y54154D01*
X101918Y54399D01*
X101936Y54534D01*
D02*
G37*
G36*
X100813D02*
X99944D01*
X99961Y54399D01*
X100063Y54154D01*
X100224Y53945D01*
X100433Y53784D01*
X100678Y53683D01*
X100813Y53665D01*
Y54534D01*
D02*
G37*
G36*
X99396D02*
X98527D01*
Y53665D01*
X98662Y53683D01*
X98906Y53784D01*
X99116Y53945D01*
X99277Y54154D01*
X99378Y54399D01*
X99396Y54534D01*
D02*
G37*
G36*
X98273D02*
X97404D01*
X97421Y54399D01*
X97523Y54154D01*
X97684Y53945D01*
X97893Y53784D01*
X98138Y53683D01*
X98273Y53665D01*
Y54534D01*
D02*
G37*
G36*
X108630Y55717D02*
X107880D01*
X107704Y55693D01*
X107539Y55625D01*
X107398Y55517D01*
X107290Y55376D01*
X107222Y55212D01*
X107199Y55036D01*
Y54286D01*
X107222Y54110D01*
X107290Y53945D01*
X107398Y53804D01*
X107539Y53696D01*
X107704Y53628D01*
X107880Y53605D01*
X108630D01*
X108806Y53628D01*
X108970Y53696D01*
X109111Y53804D01*
X109219Y53945D01*
X109287Y54110D01*
X109311Y54286D01*
Y55036D01*
X109287Y55212D01*
X109219Y55376D01*
X109111Y55517D01*
X108970Y55625D01*
X108806Y55693D01*
X108630Y55717D01*
D02*
G37*
G36*
X86075D02*
X85325D01*
X85148Y55693D01*
X84984Y55625D01*
X84843Y55517D01*
X84735Y55376D01*
X84667Y55212D01*
X84644Y55036D01*
Y54286D01*
X84667Y54110D01*
X84735Y53945D01*
X84843Y53804D01*
X84984Y53696D01*
X85148Y53628D01*
X85325Y53605D01*
X86075D01*
X86251Y53628D01*
X86415Y53696D01*
X86556Y53804D01*
X86664Y53945D01*
X86732Y54110D01*
X86755Y54286D01*
Y55036D01*
X86732Y55212D01*
X86664Y55376D01*
X86556Y55517D01*
X86415Y55625D01*
X86251Y55693D01*
X86075Y55717D01*
D02*
G37*
G36*
X120955Y55720D02*
X120681Y55684D01*
X120425Y55578D01*
X120206Y55410D01*
X120038Y55190D01*
X119932Y54935D01*
X119896Y54661D01*
X119932Y54387D01*
X120038Y54131D01*
X120206Y53912D01*
X120425Y53744D01*
X120681Y53638D01*
X120955Y53602D01*
X121229Y53638D01*
X121484Y53744D01*
X121704Y53912D01*
X121872Y54131D01*
X121978Y54387D01*
X122014Y54661D01*
X121978Y54935D01*
X121872Y55190D01*
X121704Y55410D01*
X121484Y55578D01*
X121229Y55684D01*
X120955Y55720D01*
D02*
G37*
G36*
X118415D02*
X118141Y55684D01*
X117885Y55578D01*
X117666Y55410D01*
X117498Y55190D01*
X117392Y54935D01*
X117356Y54661D01*
X117392Y54387D01*
X117498Y54131D01*
X117666Y53912D01*
X117885Y53744D01*
X118141Y53638D01*
X118415Y53602D01*
X118689Y53638D01*
X118944Y53744D01*
X119164Y53912D01*
X119332Y54131D01*
X119438Y54387D01*
X119474Y54661D01*
X119438Y54935D01*
X119332Y55190D01*
X119164Y55410D01*
X118944Y55578D01*
X118689Y55684D01*
X118415Y55720D01*
D02*
G37*
G36*
X115875D02*
X115601Y55684D01*
X115345Y55578D01*
X115126Y55410D01*
X114958Y55190D01*
X114852Y54935D01*
X114816Y54661D01*
X114852Y54387D01*
X114958Y54131D01*
X115126Y53912D01*
X115345Y53744D01*
X115601Y53638D01*
X115875Y53602D01*
X116149Y53638D01*
X116404Y53744D01*
X116624Y53912D01*
X116792Y54131D01*
X116898Y54387D01*
X116934Y54661D01*
X116898Y54935D01*
X116792Y55190D01*
X116624Y55410D01*
X116404Y55578D01*
X116149Y55684D01*
X115875Y55720D01*
D02*
G37*
G36*
X113335D02*
X113061Y55684D01*
X112805Y55578D01*
X112586Y55410D01*
X112418Y55190D01*
X112312Y54935D01*
X112276Y54661D01*
X112312Y54387D01*
X112418Y54131D01*
X112586Y53912D01*
X112805Y53744D01*
X113061Y53638D01*
X113335Y53602D01*
X113609Y53638D01*
X113864Y53744D01*
X114084Y53912D01*
X114252Y54131D01*
X114358Y54387D01*
X114394Y54661D01*
X114358Y54935D01*
X114252Y55190D01*
X114084Y55410D01*
X113864Y55578D01*
X113609Y55684D01*
X113335Y55720D01*
D02*
G37*
G36*
X110795D02*
X110521Y55684D01*
X110265Y55578D01*
X110046Y55410D01*
X109878Y55190D01*
X109772Y54935D01*
X109736Y54661D01*
X109772Y54387D01*
X109878Y54131D01*
X110046Y53912D01*
X110265Y53744D01*
X110521Y53638D01*
X110795Y53602D01*
X111069Y53638D01*
X111324Y53744D01*
X111544Y53912D01*
X111712Y54131D01*
X111818Y54387D01*
X111854Y54661D01*
X111818Y54935D01*
X111712Y55190D01*
X111544Y55410D01*
X111324Y55578D01*
X111069Y55684D01*
X110795Y55720D01*
D02*
G37*
G36*
X103480D02*
X103206Y55684D01*
X102950Y55578D01*
X102731Y55410D01*
X102562Y55190D01*
X102457Y54935D01*
X102421Y54661D01*
X102457Y54387D01*
X102562Y54131D01*
X102731Y53912D01*
X102950Y53744D01*
X103206Y53638D01*
X103480Y53602D01*
X103754Y53638D01*
X104009Y53744D01*
X104228Y53912D01*
X104397Y54131D01*
X104503Y54387D01*
X104539Y54661D01*
X104503Y54935D01*
X104397Y55190D01*
X104228Y55410D01*
X104009Y55578D01*
X103754Y55684D01*
X103480Y55720D01*
D02*
G37*
G36*
X95860D02*
X95586Y55684D01*
X95330Y55578D01*
X95111Y55410D01*
X94942Y55190D01*
X94837Y54935D01*
X94801Y54661D01*
X94837Y54387D01*
X94942Y54131D01*
X95111Y53912D01*
X95330Y53744D01*
X95586Y53638D01*
X95860Y53602D01*
X96134Y53638D01*
X96389Y53744D01*
X96608Y53912D01*
X96777Y54131D01*
X96883Y54387D01*
X96919Y54661D01*
X96883Y54935D01*
X96777Y55190D01*
X96608Y55410D01*
X96389Y55578D01*
X96134Y55684D01*
X95860Y55720D01*
D02*
G37*
G36*
X93320D02*
X93046Y55684D01*
X92790Y55578D01*
X92571Y55410D01*
X92402Y55190D01*
X92297Y54935D01*
X92261Y54661D01*
X92297Y54387D01*
X92402Y54131D01*
X92571Y53912D01*
X92790Y53744D01*
X93046Y53638D01*
X93320Y53602D01*
X93594Y53638D01*
X93849Y53744D01*
X94068Y53912D01*
X94237Y54131D01*
X94343Y54387D01*
X94379Y54661D01*
X94343Y54935D01*
X94237Y55190D01*
X94068Y55410D01*
X93849Y55578D01*
X93594Y55684D01*
X93320Y55720D01*
D02*
G37*
G36*
X90780D02*
X90506Y55684D01*
X90250Y55578D01*
X90031Y55410D01*
X89862Y55190D01*
X89757Y54935D01*
X89721Y54661D01*
X89757Y54387D01*
X89862Y54131D01*
X90031Y53912D01*
X90250Y53744D01*
X90506Y53638D01*
X90780Y53602D01*
X91054Y53638D01*
X91309Y53744D01*
X91528Y53912D01*
X91697Y54131D01*
X91803Y54387D01*
X91839Y54661D01*
X91803Y54935D01*
X91697Y55190D01*
X91528Y55410D01*
X91309Y55578D01*
X91054Y55684D01*
X90780Y55720D01*
D02*
G37*
G36*
X88240D02*
X87966Y55684D01*
X87710Y55578D01*
X87491Y55410D01*
X87322Y55190D01*
X87217Y54935D01*
X87181Y54661D01*
X87217Y54387D01*
X87322Y54131D01*
X87491Y53912D01*
X87710Y53744D01*
X87966Y53638D01*
X88240Y53602D01*
X88514Y53638D01*
X88769Y53744D01*
X88988Y53912D01*
X89157Y54131D01*
X89263Y54387D01*
X89299Y54661D01*
X89263Y54935D01*
X89157Y55190D01*
X88988Y55410D01*
X88769Y55578D01*
X88514Y55684D01*
X88240Y55720D01*
D02*
G37*
G36*
X63100Y55819D02*
X62900D01*
X62613Y55782D01*
X62345Y55671D01*
X62115Y55495D01*
X61939Y55265D01*
X61828Y54997D01*
X61791Y54710D01*
X61828Y54423D01*
X61939Y54155D01*
X62115Y53925D01*
X62345Y53749D01*
X62613Y53638D01*
X62900Y53601D01*
X63100D01*
X63387Y53638D01*
X63655Y53749D01*
X63885Y53925D01*
X64061Y54155D01*
X64172Y54423D01*
X64209Y54710D01*
X64172Y54997D01*
X64061Y55265D01*
X63885Y55495D01*
X63655Y55671D01*
X63387Y55782D01*
X63100Y55819D01*
D02*
G37*
G36*
X102845Y50653D02*
Y49784D01*
X103714D01*
X103696Y49919D01*
X103595Y50163D01*
X103434Y50373D01*
X103224Y50534D01*
X102980Y50635D01*
X102845Y50653D01*
D02*
G37*
G36*
X102591D02*
X102455Y50635D01*
X102211Y50534D01*
X102002Y50373D01*
X101841Y50163D01*
X101739Y49919D01*
X101722Y49784D01*
X102591D01*
Y50653D01*
D02*
G37*
G36*
X100305D02*
Y49784D01*
X101174D01*
X101156Y49919D01*
X101055Y50163D01*
X100894Y50373D01*
X100684Y50534D01*
X100440Y50635D01*
X100305Y50653D01*
D02*
G37*
G36*
X100051D02*
X99915Y50635D01*
X99671Y50534D01*
X99462Y50373D01*
X99301Y50163D01*
X99199Y49919D01*
X99182Y49784D01*
X100051D01*
Y50653D01*
D02*
G37*
G36*
X103714Y49530D02*
X102845D01*
Y48661D01*
X102980Y48679D01*
X103224Y48780D01*
X103434Y48941D01*
X103595Y49151D01*
X103696Y49395D01*
X103714Y49530D01*
D02*
G37*
G36*
X102591D02*
X101722D01*
X101739Y49395D01*
X101841Y49151D01*
X102002Y48941D01*
X102211Y48780D01*
X102455Y48679D01*
X102591Y48661D01*
Y49530D01*
D02*
G37*
G36*
X101174D02*
X100305D01*
Y48661D01*
X100440Y48679D01*
X100684Y48780D01*
X100894Y48941D01*
X101055Y49151D01*
X101156Y49395D01*
X101174Y49530D01*
D02*
G37*
G36*
X100051D02*
X99182D01*
X99199Y49395D01*
X99301Y49151D01*
X99462Y48941D01*
X99671Y48780D01*
X99915Y48679D01*
X100051Y48661D01*
Y49530D01*
D02*
G37*
G36*
X110683Y50713D02*
X109933D01*
X109757Y50690D01*
X109593Y50622D01*
X109452Y50513D01*
X109344Y50372D01*
X109276Y50208D01*
X109253Y50032D01*
Y49282D01*
X109276Y49106D01*
X109344Y48942D01*
X109452Y48801D01*
X109593Y48692D01*
X109757Y48624D01*
X109933Y48601D01*
X110683D01*
X110860Y48624D01*
X111024Y48692D01*
X111165Y48801D01*
X111273Y48942D01*
X111341Y49106D01*
X111364Y49282D01*
Y50032D01*
X111341Y50208D01*
X111273Y50372D01*
X111165Y50513D01*
X111024Y50622D01*
X110860Y50690D01*
X110683Y50713D01*
D02*
G37*
G36*
X87853D02*
X87103D01*
X86926Y50690D01*
X86762Y50622D01*
X86621Y50513D01*
X86513Y50372D01*
X86445Y50208D01*
X86422Y50032D01*
Y49282D01*
X86445Y49106D01*
X86513Y48942D01*
X86621Y48801D01*
X86762Y48692D01*
X86926Y48624D01*
X87103Y48601D01*
X87853D01*
X88029Y48624D01*
X88193Y48692D01*
X88334Y48801D01*
X88442Y48942D01*
X88510Y49106D01*
X88533Y49282D01*
Y50032D01*
X88510Y50208D01*
X88442Y50372D01*
X88334Y50513D01*
X88193Y50622D01*
X88029Y50690D01*
X87853Y50713D01*
D02*
G37*
G36*
X123008Y50716D02*
X122734Y50680D01*
X122479Y50574D01*
X122260Y50406D01*
X122091Y50187D01*
X121985Y49931D01*
X121949Y49657D01*
X121985Y49383D01*
X122091Y49127D01*
X122260Y48908D01*
X122479Y48740D01*
X122734Y48634D01*
X123008Y48598D01*
X123283Y48634D01*
X123538Y48740D01*
X123757Y48908D01*
X123926Y49127D01*
X124031Y49383D01*
X124067Y49657D01*
X124031Y49931D01*
X123926Y50187D01*
X123757Y50406D01*
X123538Y50574D01*
X123283Y50680D01*
X123008Y50716D01*
D02*
G37*
G36*
X120468D02*
X120194Y50680D01*
X119939Y50574D01*
X119720Y50406D01*
X119551Y50187D01*
X119445Y49931D01*
X119409Y49657D01*
X119445Y49383D01*
X119551Y49127D01*
X119720Y48908D01*
X119939Y48740D01*
X120194Y48634D01*
X120468Y48598D01*
X120743Y48634D01*
X120998Y48740D01*
X121217Y48908D01*
X121386Y49127D01*
X121491Y49383D01*
X121527Y49657D01*
X121491Y49931D01*
X121386Y50187D01*
X121217Y50406D01*
X120998Y50574D01*
X120743Y50680D01*
X120468Y50716D01*
D02*
G37*
G36*
X117928D02*
X117654Y50680D01*
X117399Y50574D01*
X117180Y50406D01*
X117011Y50187D01*
X116905Y49931D01*
X116869Y49657D01*
X116905Y49383D01*
X117011Y49127D01*
X117180Y48908D01*
X117399Y48740D01*
X117654Y48634D01*
X117928Y48598D01*
X118203Y48634D01*
X118458Y48740D01*
X118677Y48908D01*
X118846Y49127D01*
X118951Y49383D01*
X118987Y49657D01*
X118951Y49931D01*
X118846Y50187D01*
X118677Y50406D01*
X118458Y50574D01*
X118203Y50680D01*
X117928Y50716D01*
D02*
G37*
G36*
X115388D02*
X115114Y50680D01*
X114859Y50574D01*
X114640Y50406D01*
X114471Y50187D01*
X114365Y49931D01*
X114329Y49657D01*
X114365Y49383D01*
X114471Y49127D01*
X114640Y48908D01*
X114859Y48740D01*
X115114Y48634D01*
X115388Y48598D01*
X115663Y48634D01*
X115918Y48740D01*
X116137Y48908D01*
X116306Y49127D01*
X116411Y49383D01*
X116447Y49657D01*
X116411Y49931D01*
X116306Y50187D01*
X116137Y50406D01*
X115918Y50574D01*
X115663Y50680D01*
X115388Y50716D01*
D02*
G37*
G36*
X112848D02*
X112574Y50680D01*
X112319Y50574D01*
X112100Y50406D01*
X111931Y50187D01*
X111825Y49931D01*
X111789Y49657D01*
X111825Y49383D01*
X111931Y49127D01*
X112100Y48908D01*
X112319Y48740D01*
X112574Y48634D01*
X112848Y48598D01*
X113123Y48634D01*
X113378Y48740D01*
X113597Y48908D01*
X113766Y49127D01*
X113871Y49383D01*
X113907Y49657D01*
X113871Y49931D01*
X113766Y50187D01*
X113597Y50406D01*
X113378Y50574D01*
X113123Y50680D01*
X112848Y50716D01*
D02*
G37*
G36*
X105258D02*
X104983Y50680D01*
X104728Y50574D01*
X104509Y50406D01*
X104340Y50187D01*
X104235Y49931D01*
X104199Y49657D01*
X104235Y49383D01*
X104340Y49127D01*
X104509Y48908D01*
X104728Y48740D01*
X104983Y48634D01*
X105258Y48598D01*
X105532Y48634D01*
X105787Y48740D01*
X106006Y48908D01*
X106175Y49127D01*
X106281Y49383D01*
X106317Y49657D01*
X106281Y49931D01*
X106175Y50187D01*
X106006Y50406D01*
X105787Y50574D01*
X105532Y50680D01*
X105258Y50716D01*
D02*
G37*
G36*
X97638D02*
X97363Y50680D01*
X97108Y50574D01*
X96889Y50406D01*
X96720Y50187D01*
X96615Y49931D01*
X96579Y49657D01*
X96615Y49383D01*
X96720Y49127D01*
X96889Y48908D01*
X97108Y48740D01*
X97363Y48634D01*
X97638Y48598D01*
X97912Y48634D01*
X98167Y48740D01*
X98386Y48908D01*
X98555Y49127D01*
X98661Y49383D01*
X98697Y49657D01*
X98661Y49931D01*
X98555Y50187D01*
X98386Y50406D01*
X98167Y50574D01*
X97912Y50680D01*
X97638Y50716D01*
D02*
G37*
G36*
X95098D02*
X94823Y50680D01*
X94568Y50574D01*
X94349Y50406D01*
X94180Y50187D01*
X94075Y49931D01*
X94039Y49657D01*
X94075Y49383D01*
X94180Y49127D01*
X94349Y48908D01*
X94568Y48740D01*
X94823Y48634D01*
X95098Y48598D01*
X95372Y48634D01*
X95627Y48740D01*
X95846Y48908D01*
X96015Y49127D01*
X96121Y49383D01*
X96157Y49657D01*
X96121Y49931D01*
X96015Y50187D01*
X95846Y50406D01*
X95627Y50574D01*
X95372Y50680D01*
X95098Y50716D01*
D02*
G37*
G36*
X92558D02*
X92283Y50680D01*
X92028Y50574D01*
X91809Y50406D01*
X91640Y50187D01*
X91535Y49931D01*
X91499Y49657D01*
X91535Y49383D01*
X91640Y49127D01*
X91809Y48908D01*
X92028Y48740D01*
X92283Y48634D01*
X92558Y48598D01*
X92832Y48634D01*
X93087Y48740D01*
X93306Y48908D01*
X93475Y49127D01*
X93581Y49383D01*
X93617Y49657D01*
X93581Y49931D01*
X93475Y50187D01*
X93306Y50406D01*
X93087Y50574D01*
X92832Y50680D01*
X92558Y50716D01*
D02*
G37*
G36*
X90018D02*
X89743Y50680D01*
X89488Y50574D01*
X89269Y50406D01*
X89100Y50187D01*
X88995Y49931D01*
X88959Y49657D01*
X88995Y49383D01*
X89100Y49127D01*
X89269Y48908D01*
X89488Y48740D01*
X89743Y48634D01*
X90018Y48598D01*
X90292Y48634D01*
X90547Y48740D01*
X90766Y48908D01*
X90935Y49127D01*
X91041Y49383D01*
X91077Y49657D01*
X91041Y49931D01*
X90935Y50187D01*
X90766Y50406D01*
X90547Y50574D01*
X90292Y50680D01*
X90018Y50716D01*
D02*
G37*
G36*
X73508Y51554D02*
X73138Y51517D01*
X72782Y51409D01*
X72454Y51234D01*
X72166Y50998D01*
X71931Y50711D01*
X71755Y50383D01*
X71647Y50027D01*
X71611Y49657D01*
X71647Y49287D01*
X71755Y48931D01*
X71931Y48603D01*
X72166Y48316D01*
X72454Y48080D01*
X72782Y47905D01*
X73138Y47797D01*
X73508Y47760D01*
X73878Y47797D01*
X74233Y47905D01*
X74561Y48080D01*
X74849Y48316D01*
X75085Y48603D01*
X75260Y48931D01*
X75368Y49287D01*
X75404Y49657D01*
X75368Y50027D01*
X75260Y50383D01*
X75085Y50711D01*
X74849Y50998D01*
X74561Y51234D01*
X74233Y51409D01*
X73878Y51517D01*
X73508Y51554D01*
D02*
G37*
%LPD*%
G36*
X88968Y97300D02*
X88832Y97147D01*
X88777Y97076D01*
X88730Y97009D01*
X88692Y96945D01*
X88662Y96884D01*
X88641Y96827D01*
X88628Y96774D01*
X88624Y96724D01*
X88424D01*
X88419Y96774D01*
X88407Y96827D01*
X88385Y96884D01*
X88356Y96945D01*
X88317Y97009D01*
X88271Y97076D01*
X88215Y97147D01*
X88079Y97300D01*
X87999Y97381D01*
X89049D01*
X88968Y97300D01*
D02*
G37*
G36*
X90439Y88861D02*
X90444Y88797D01*
X90450Y88771D01*
X90456Y88749D01*
X90464Y88731D01*
X90473Y88717D01*
X90484Y88707D01*
X90496Y88701D01*
X90510Y88699D01*
X90166D01*
X90180Y88701D01*
X90192Y88707D01*
X90203Y88717D01*
X90212Y88731D01*
X90220Y88749D01*
X90226Y88771D01*
X90232Y88797D01*
X90235Y88827D01*
X90237Y88861D01*
X90238Y88899D01*
X90438D01*
X90439Y88861D01*
D02*
G37*
G36*
X81991Y88669D02*
X81994Y88634D01*
X81999Y88604D01*
X82006Y88577D01*
X82015Y88555D01*
X82026Y88537D01*
X82039Y88522D01*
X82054Y88512D01*
X82071Y88506D01*
X82090Y88504D01*
X81690D01*
X81709Y88506D01*
X81726Y88512D01*
X81741Y88522D01*
X81754Y88537D01*
X81765Y88555D01*
X81774Y88577D01*
X81781Y88604D01*
X81786Y88634D01*
X81789Y88669D01*
X81790Y88707D01*
X81990D01*
X81991Y88669D01*
D02*
G37*
G36*
X81142Y87557D02*
X81140Y87576D01*
X81134Y87593D01*
X81124Y87608D01*
X81110Y87621D01*
X81092Y87632D01*
X81069Y87641D01*
X81043Y87648D01*
X81013Y87653D01*
X80978Y87656D01*
X80939Y87657D01*
Y87857D01*
X80978Y87858D01*
X81013Y87861D01*
X81043Y87866D01*
X81069Y87873D01*
X81092Y87882D01*
X81110Y87893D01*
X81124Y87906D01*
X81134Y87921D01*
X81140Y87938D01*
X81142Y87957D01*
Y87557D01*
D02*
G37*
G36*
X88506Y86957D02*
X88503Y86953D01*
X88499Y86947D01*
X88496Y86938D01*
X88494Y86927D01*
X88492Y86913D01*
X88489Y86878D01*
X88488Y86832D01*
X88288D01*
X88288Y86856D01*
X88282Y86927D01*
X88280Y86938D01*
X88277Y86947D01*
X88273Y86953D01*
X88270Y86957D01*
X88265Y86958D01*
X88511D01*
X88506Y86957D01*
D02*
G37*
G36*
X93069Y86957D02*
X93063Y86953D01*
X93057Y86945D01*
X93052Y86936D01*
X93048Y86923D01*
X93044Y86907D01*
X93041Y86889D01*
X93040Y86868D01*
X93038Y86817D01*
X92838D01*
X92838Y86843D01*
X92835Y86889D01*
X92832Y86907D01*
X92828Y86923D01*
X92824Y86936D01*
X92819Y86945D01*
X92813Y86953D01*
X92807Y86957D01*
X92799Y86958D01*
X93077D01*
X93069Y86957D01*
D02*
G37*
G36*
X91796Y86953D02*
X91784Y86947D01*
X91773Y86937D01*
X91764Y86923D01*
X91756Y86905D01*
X91750Y86883D01*
X91744Y86857D01*
X91741Y86827D01*
X91739Y86793D01*
X91738Y86755D01*
X91538D01*
X91537Y86793D01*
X91532Y86857D01*
X91526Y86883D01*
X91520Y86905D01*
X91512Y86923D01*
X91503Y86937D01*
X91492Y86947D01*
X91480Y86953D01*
X91466Y86955D01*
X91810D01*
X91796Y86953D01*
D02*
G37*
G36*
X89094Y86955D02*
X89210D01*
X89195Y86953D01*
X89182Y86947D01*
X89170Y86937D01*
X89160Y86923D01*
X89152Y86905D01*
X89145Y86883D01*
X89143Y86874D01*
X89145Y86864D01*
X89155Y86834D01*
X89168Y86804D01*
X89184Y86774D01*
X89203Y86745D01*
X89224Y86715D01*
X89249Y86686D01*
X89276Y86657D01*
X88786Y86665D01*
X88814Y86693D01*
X88839Y86721D01*
X88861Y86749D01*
X88880Y86778D01*
X88896Y86807D01*
X88909Y86837D01*
X88919Y86867D01*
X88922Y86880D01*
X88922Y86883D01*
X88916Y86905D01*
X88909Y86923D01*
X88900Y86937D01*
X88890Y86947D01*
X88879Y86953D01*
X88866Y86955D01*
X88932D01*
X88933Y86958D01*
X89094Y86955D01*
D02*
G37*
G36*
X94406Y86952D02*
X94402Y86943D01*
X94399Y86928D01*
X94396Y86907D01*
X94392Y86847D01*
X94388Y86655D01*
X94088D01*
X94088Y86712D01*
X94074Y86943D01*
X94070Y86952D01*
X94066Y86955D01*
X94410D01*
X94406Y86952D01*
D02*
G37*
G36*
X94515Y86426D02*
X94566Y86383D01*
X94591Y86364D01*
X94641Y86333D01*
X94666Y86321D01*
X94690Y86310D01*
X94715Y86302D01*
X94739Y86296D01*
X94325Y86034D01*
X94329Y86059D01*
X94331Y86085D01*
X94328Y86110D01*
X94323Y86136D01*
X94315Y86162D01*
X94303Y86188D01*
X94288Y86214D01*
X94270Y86240D01*
X94248Y86266D01*
X94223Y86292D01*
X94489Y86451D01*
X94515Y86426D01*
D02*
G37*
G36*
X82804Y85990D02*
X82772Y85952D01*
X82743Y85905D01*
X82718Y85850D01*
X82696Y85786D01*
X82678Y85713D01*
X82663Y85633D01*
X82652Y85543D01*
X82640Y85339D01*
X82640Y85225D01*
X81897Y85967D01*
X82012Y85968D01*
X82216Y85979D01*
X82305Y85990D01*
X82386Y86005D01*
X82458Y86023D01*
X82522Y86045D01*
X82577Y86070D01*
X82624Y86099D01*
X82663Y86132D01*
X82804Y85990D01*
D02*
G37*
G36*
X87375Y84819D02*
X87411Y84808D01*
X87459Y84785D01*
X87524Y84629D01*
X87576Y84561D01*
X87550Y84391D01*
X87545Y84388D01*
X87545Y84388D01*
X85584Y82427D01*
X85464Y82486D01*
X85489Y82677D01*
X85453Y82951D01*
X85347Y83207D01*
X85178Y83426D01*
X85015Y83551D01*
X85033Y83663D01*
X85047Y83687D01*
X85062Y83690D01*
X85194Y83779D01*
X86072Y84657D01*
X86889D01*
Y84652D01*
X87135Y84701D01*
X87318Y84824D01*
X87375Y84819D01*
D02*
G37*
G36*
X93689Y83336D02*
X93694Y83272D01*
X93700Y83246D01*
X93706Y83224D01*
X93714Y83206D01*
X93723Y83192D01*
X93734Y83182D01*
X93746Y83176D01*
X93760Y83174D01*
X93416D01*
X93430Y83176D01*
X93442Y83182D01*
X93453Y83192D01*
X93462Y83206D01*
X93470Y83224D01*
X93476Y83246D01*
X93482Y83272D01*
X93485Y83302D01*
X93487Y83336D01*
X93488Y83374D01*
X93688D01*
X93689Y83336D01*
D02*
G37*
G36*
X92499Y83443D02*
X92475Y83414D01*
X92453Y83384D01*
X92435Y83355D01*
X92419Y83325D01*
X92406Y83295D01*
X92396Y83265D01*
X92394Y83255D01*
X92395Y83246D01*
X92402Y83224D01*
X92411Y83206D01*
X92421Y83192D01*
X92432Y83182D01*
X92445Y83176D01*
X92460Y83174D01*
X92353D01*
X92183Y83172D01*
X92183Y83174D01*
X92116D01*
X92129Y83176D01*
X92140Y83182D01*
X92150Y83192D01*
X92159Y83206D01*
X92166Y83224D01*
X92172Y83246D01*
X92173Y83250D01*
X92170Y83263D01*
X92160Y83292D01*
X92147Y83322D01*
X92130Y83351D01*
X92111Y83380D01*
X92089Y83409D01*
X92065Y83437D01*
X92037Y83465D01*
X92527Y83472D01*
X92499Y83443D01*
D02*
G37*
G36*
X91238Y83455D02*
X91210Y83428D01*
X91184Y83401D01*
X91162Y83374D01*
X91142Y83346D01*
X91126Y83317D01*
X91112Y83288D01*
X91102Y83259D01*
X91099Y83249D01*
X91100Y83246D01*
X91106Y83224D01*
X91114Y83206D01*
X91123Y83192D01*
X91134Y83182D01*
X91146Y83176D01*
X91160Y83174D01*
X91088D01*
X91088Y83168D01*
X90981Y83174D01*
X90816D01*
X90830Y83176D01*
X90842Y83182D01*
X90853Y83192D01*
X90862Y83206D01*
X90870Y83224D01*
X90876Y83246D01*
X90879Y83257D01*
X90876Y83270D01*
X90866Y83300D01*
X90853Y83331D01*
X90838Y83361D01*
X90820Y83392D01*
X90799Y83422D01*
X90776Y83452D01*
X90749Y83483D01*
X91238Y83455D01*
D02*
G37*
G36*
X82508Y83109D02*
X82550Y83068D01*
X82594Y83032D01*
X82639Y83000D01*
X82685Y82974D01*
X82733Y82952D01*
X82783Y82935D01*
X82834Y82923D01*
X82886Y82916D01*
X82940Y82913D01*
Y82713D01*
X82892Y82711D01*
X82847Y82702D01*
X82806Y82689D01*
X82767Y82669D01*
X82732Y82644D01*
X82699Y82614D01*
X82670Y82578D01*
X82644Y82537D01*
X82620Y82490D01*
X82600Y82438D01*
X82468Y83155D01*
X82508Y83109D01*
D02*
G37*
G36*
X89846Y81428D02*
X89834Y81422D01*
X89823Y81412D01*
X89814Y81398D01*
X89806Y81380D01*
X89800Y81358D01*
X89794Y81332D01*
X89791Y81302D01*
X89789Y81268D01*
X89788Y81230D01*
X89588D01*
X89587Y81268D01*
X89582Y81332D01*
X89576Y81358D01*
X89570Y81380D01*
X89562Y81398D01*
X89553Y81412D01*
X89542Y81422D01*
X89530Y81428D01*
X89516Y81430D01*
X89860D01*
X89846Y81428D01*
D02*
G37*
G36*
X89196D02*
X89184Y81422D01*
X89173Y81412D01*
X89164Y81398D01*
X89156Y81380D01*
X89150Y81358D01*
X89144Y81332D01*
X89141Y81302D01*
X89139Y81268D01*
X89138Y81230D01*
X88938D01*
X88937Y81268D01*
X88932Y81332D01*
X88926Y81358D01*
X88920Y81380D01*
X88912Y81398D01*
X88903Y81412D01*
X88892Y81422D01*
X88880Y81428D01*
X88866Y81430D01*
X89210D01*
X89196Y81428D01*
D02*
G37*
G36*
X82804Y80910D02*
X82772Y80872D01*
X82743Y80825D01*
X82718Y80770D01*
X82696Y80706D01*
X82678Y80633D01*
X82663Y80553D01*
X82652Y80463D01*
X82640Y80259D01*
X82640Y80145D01*
X81897Y80887D01*
X82012Y80888D01*
X82216Y80899D01*
X82305Y80910D01*
X82386Y80925D01*
X82458Y80943D01*
X82522Y80965D01*
X82577Y80990D01*
X82624Y81019D01*
X82663Y81051D01*
X82804Y80910D01*
D02*
G37*
G36*
X67561Y77419D02*
X67565Y77381D01*
X67572Y77344D01*
X67581Y77310D01*
X67591Y77278D01*
X67604Y77248D01*
X67618Y77219D01*
X67635Y77193D01*
X67653Y77169D01*
X67673Y77147D01*
X67539Y76997D01*
X67517Y77018D01*
X67492Y77037D01*
X67465Y77053D01*
X67437Y77066D01*
X67407Y77077D01*
X67375Y77086D01*
X67342Y77092D01*
X67306Y77095D01*
X67269Y77096D01*
X67230Y77095D01*
X67558Y77459D01*
X67561Y77419D01*
D02*
G37*
G36*
X81992Y76853D02*
X81991Y76850D01*
X81991Y76845D01*
X81990Y76820D01*
X81990Y76759D01*
X81790D01*
X81787Y76854D01*
X81993D01*
X81992Y76853D01*
D02*
G37*
G36*
X66831Y76439D02*
X66836Y76404D01*
X66843Y76372D01*
X66852Y76341D01*
X66865Y76313D01*
X66880Y76287D01*
X66898Y76264D01*
X66919Y76242D01*
X66943Y76223D01*
X66969Y76205D01*
X66491D01*
X66517Y76223D01*
X66541Y76242D01*
X66562Y76264D01*
X66580Y76287D01*
X66595Y76313D01*
X66608Y76341D01*
X66617Y76372D01*
X66624Y76404D01*
X66629Y76439D01*
X66630Y76475D01*
X66830D01*
X66831Y76439D01*
D02*
G37*
G36*
X68102Y76507D02*
X68109Y76470D01*
X68121Y76431D01*
X68137Y76391D01*
X68158Y76351D01*
X68184Y76309D01*
X68214Y76267D01*
X68249Y76224D01*
X68332Y76134D01*
X67668D01*
X67712Y76179D01*
X67786Y76267D01*
X67816Y76309D01*
X67842Y76351D01*
X67863Y76391D01*
X67879Y76431D01*
X67891Y76470D01*
X67898Y76507D01*
X67900Y76544D01*
X68100D01*
X68102Y76507D01*
D02*
G37*
G36*
X65121Y75463D02*
X65103Y75477D01*
X65082Y75491D01*
X65057Y75503D01*
X65028Y75513D01*
X64996Y75521D01*
X64959Y75528D01*
X64918Y75534D01*
X64826Y75540D01*
X64774Y75541D01*
Y76049D01*
X64826Y76050D01*
X64918Y76056D01*
X64959Y76062D01*
X64996Y76069D01*
X65028Y76077D01*
X65057Y76087D01*
X65082Y76099D01*
X65103Y76113D01*
X65121Y76128D01*
Y75463D01*
D02*
G37*
G36*
X65922Y74316D02*
X65916Y74298D01*
X65916Y74278D01*
X65921Y74255D01*
X65931Y74230D01*
X65946Y74202D01*
X65967Y74172D01*
X65993Y74139D01*
X66025Y74103D01*
X66062Y74065D01*
X65920Y73923D01*
X65882Y73960D01*
X65813Y74018D01*
X65783Y74039D01*
X65755Y74054D01*
X65730Y74064D01*
X65707Y74069D01*
X65687Y74069D01*
X65669Y74063D01*
X65654Y74051D01*
X65934Y74331D01*
X65922Y74316D01*
D02*
G37*
G36*
X67720Y73136D02*
X67692Y73163D01*
X67663Y73188D01*
X67634Y73210D01*
X67605Y73228D01*
X67576Y73244D01*
X67546Y73257D01*
X67516Y73268D01*
X67486Y73275D01*
X67456Y73279D01*
X67425Y73281D01*
Y73481D01*
X67456Y73482D01*
X67486Y73486D01*
X67516Y73494D01*
X67546Y73504D01*
X67576Y73517D01*
X67605Y73533D01*
X67634Y73552D01*
X67663Y73573D01*
X67692Y73598D01*
X67720Y73626D01*
Y73136D01*
D02*
G37*
G36*
X84174Y73222D02*
X84204Y73198D01*
X84233Y73177D01*
X84263Y73158D01*
X84293Y73142D01*
X84323Y73130D01*
X84353Y73119D01*
X84383Y73112D01*
X84413Y73108D01*
X84443Y73107D01*
X84447Y72907D01*
X84417Y72905D01*
X84386Y72901D01*
X84356Y72893D01*
X84326Y72883D01*
X84297Y72870D01*
X84268Y72854D01*
X84239Y72835D01*
X84211Y72813D01*
X84182Y72788D01*
X84155Y72760D01*
X84145Y73250D01*
X84174Y73222D01*
D02*
G37*
G36*
X82376Y72602D02*
X82348Y72630D01*
X82319Y72654D01*
X82290Y72676D01*
X82261Y72695D01*
X82231Y72711D01*
X82202Y72724D01*
X82172Y72734D01*
X82142Y72741D01*
X82111Y72746D01*
X82081Y72747D01*
Y72947D01*
X82111Y72949D01*
X82142Y72953D01*
X82172Y72960D01*
X82202Y72970D01*
X82231Y72983D01*
X82261Y72999D01*
X82290Y73018D01*
X82319Y73040D01*
X82348Y73065D01*
X82376Y73092D01*
Y72602D01*
D02*
G37*
G36*
X105691Y72739D02*
X105738Y72710D01*
X105793Y72685D01*
X105857Y72663D01*
X105930Y72645D01*
X106010Y72630D01*
X106100Y72619D01*
X106304Y72607D01*
X106419Y72607D01*
X105676Y71864D01*
X105675Y71979D01*
X105664Y72183D01*
X105653Y72272D01*
X105638Y72353D01*
X105620Y72425D01*
X105598Y72489D01*
X105573Y72545D01*
X105544Y72591D01*
X105512Y72630D01*
X105653Y72771D01*
X105691Y72739D01*
D02*
G37*
G36*
X101790Y71239D02*
X101654Y71087D01*
X101599Y71016D01*
X101552Y70948D01*
X101514Y70884D01*
X101484Y70824D01*
X101463Y70767D01*
X101450Y70713D01*
X101446Y70663D01*
X101246D01*
X101242Y70713D01*
X101229Y70767D01*
X101208Y70824D01*
X101178Y70884D01*
X101140Y70948D01*
X101093Y71016D01*
X101038Y71087D01*
X100902Y71239D01*
X100821Y71321D01*
X101871D01*
X101790Y71239D01*
D02*
G37*
G36*
X73783Y71522D02*
X73651Y71434D01*
X73651Y71434D01*
X73205Y70988D01*
X68945D01*
X68789Y70957D01*
X68657Y70869D01*
X68238Y70449D01*
X68232Y70447D01*
X68219Y70441D01*
X68199Y70435D01*
X68173Y70428D01*
X68145Y70424D01*
X68054Y70416D01*
X68006Y70416D01*
X68000Y70417D01*
X67798Y70390D01*
X67609Y70312D01*
X67447Y70188D01*
X67400Y70125D01*
X67299D01*
X67331Y70094D01*
X67306Y70066D01*
X67284Y70035D01*
X67265Y69999D01*
X67249Y69960D01*
X67235Y69916D01*
X67224Y69869D01*
X67215Y69817D01*
X67209Y69762D01*
X67205Y69640D01*
X66735Y70110D01*
X66798Y70111D01*
X66912Y70120D01*
X66964Y70128D01*
X67011Y70140D01*
X67055Y70154D01*
X67094Y70170D01*
X67130Y70189D01*
X67161Y70211D01*
X67169Y70217D01*
X67098Y70272D01*
X66920Y70345D01*
X66910Y70347D01*
X66869Y70467D01*
X68093Y71691D01*
X73783D01*
Y71522D01*
D02*
G37*
G36*
X68601Y70094D02*
X68576Y70066D01*
X68554Y70035D01*
X68535Y69999D01*
X68519Y69960D01*
X68505Y69916D01*
X68494Y69869D01*
X68485Y69817D01*
X68479Y69762D01*
X68475Y69640D01*
X68005Y70110D01*
X68068Y70111D01*
X68182Y70120D01*
X68234Y70128D01*
X68281Y70140D01*
X68325Y70154D01*
X68364Y70170D01*
X68400Y70189D01*
X68431Y70211D01*
X68459Y70236D01*
X68601Y70094D01*
D02*
G37*
G36*
X66061D02*
X66036Y70066D01*
X66014Y70035D01*
X65995Y69999D01*
X65979Y69960D01*
X65965Y69916D01*
X65954Y69869D01*
X65945Y69817D01*
X65939Y69762D01*
X65935Y69640D01*
X65465Y70110D01*
X65528Y70111D01*
X65642Y70120D01*
X65694Y70128D01*
X65741Y70140D01*
X65785Y70154D01*
X65824Y70170D01*
X65860Y70189D01*
X65891Y70211D01*
X65919Y70236D01*
X66061Y70094D01*
D02*
G37*
G36*
X79617Y69540D02*
X79588Y69567D01*
X79559Y69592D01*
X79530Y69614D01*
X79501Y69633D01*
X79472Y69649D01*
X79442Y69662D01*
X79412Y69672D01*
X79382Y69679D01*
X79352Y69683D01*
X79321Y69685D01*
Y69885D01*
X79352Y69886D01*
X79382Y69891D01*
X79412Y69898D01*
X79442Y69908D01*
X79472Y69921D01*
X79501Y69937D01*
X79530Y69956D01*
X79559Y69978D01*
X79588Y70002D01*
X79617Y70030D01*
Y69540D01*
D02*
G37*
G36*
X82096Y69350D02*
X82057Y69349D01*
X82019Y69346D01*
X81983Y69341D01*
X81949Y69334D01*
X81917Y69324D01*
X81887Y69313D01*
X81859Y69299D01*
X81832Y69283D01*
X81808Y69264D01*
X81785Y69244D01*
X81644Y69385D01*
X81664Y69408D01*
X81683Y69432D01*
X81699Y69459D01*
X81713Y69487D01*
X81724Y69517D01*
X81734Y69549D01*
X81741Y69583D01*
X81746Y69619D01*
X81749Y69657D01*
X81750Y69697D01*
X82096Y69350D01*
D02*
G37*
G36*
X69746Y69567D02*
X69755Y69453D01*
X69764Y69401D01*
X69775Y69354D01*
X69789Y69310D01*
X69805Y69271D01*
X69824Y69235D01*
X69846Y69204D01*
X69871Y69176D01*
X69729Y69034D01*
X69701Y69059D01*
X69670Y69081D01*
X69634Y69100D01*
X69595Y69116D01*
X69551Y69130D01*
X69504Y69141D01*
X69452Y69150D01*
X69397Y69156D01*
X69275Y69160D01*
X69745Y69630D01*
X69746Y69567D01*
D02*
G37*
G36*
X70109Y68941D02*
X70140Y68919D01*
X70176Y68900D01*
X70215Y68884D01*
X70259Y68870D01*
X70306Y68858D01*
X70358Y68850D01*
X70413Y68844D01*
X70535Y68840D01*
X70065Y68370D01*
X70064Y68433D01*
X70055Y68547D01*
X70046Y68599D01*
X70035Y68646D01*
X70021Y68690D01*
X70005Y68729D01*
X69986Y68765D01*
X69964Y68796D01*
X69939Y68824D01*
X70081Y68966D01*
X70109Y68941D01*
D02*
G37*
G36*
X65055Y67962D02*
X65050Y67988D01*
X65035Y68011D01*
X65012Y68031D01*
X64979Y68049D01*
X64938Y68064D01*
X64887Y68076D01*
X64827Y68085D01*
X64758Y68092D01*
X64592Y68097D01*
Y68605D01*
X64677Y68607D01*
X64820Y68618D01*
X64878Y68627D01*
X64927Y68639D01*
X64967Y68654D01*
X64998Y68672D01*
X65020Y68692D01*
X65033Y68715D01*
X65037Y68741D01*
X65055Y67962D01*
D02*
G37*
G36*
X67190Y68226D02*
X67185Y68171D01*
X67184Y68119D01*
X67187Y68070D01*
X67194Y68024D01*
X67204Y67982D01*
X67219Y67943D01*
X67237Y67907D01*
X67259Y67875D01*
X67284Y67845D01*
X67120Y67727D01*
X67094Y67750D01*
X67064Y67771D01*
X67029Y67791D01*
X66990Y67810D01*
X66947Y67827D01*
X66898Y67844D01*
X66788Y67872D01*
X66730Y67883D01*
X66562Y67844D01*
X66513Y67827D01*
X66470Y67810D01*
X66431Y67791D01*
X66396Y67771D01*
X66366Y67750D01*
X66340Y67727D01*
X66176Y67845D01*
X66201Y67875D01*
X66223Y67907D01*
X66241Y67943D01*
X66256Y67982D01*
X66266Y68024D01*
X66273Y68070D01*
X66276Y68119D01*
X66275Y68171D01*
X66270Y68226D01*
X66262Y68285D01*
X66730Y67946D01*
X67198Y68285D01*
X67190Y68226D01*
D02*
G37*
G36*
X70989Y68202D02*
X70986Y68175D01*
X70986Y68148D01*
X70990Y68122D01*
X70997Y68095D01*
X71008Y68069D01*
X71021Y68043D01*
X71039Y68017D01*
X71059Y67991D01*
X71084Y67965D01*
X70942Y67823D01*
X70916Y67847D01*
X70890Y67868D01*
X70864Y67885D01*
X70838Y67899D01*
X70812Y67910D01*
X70786Y67917D01*
X70759Y67920D01*
X70733Y67920D01*
X70706Y67917D01*
X70679Y67911D01*
X70995Y68229D01*
X70989Y68202D01*
D02*
G37*
G36*
X69746Y68297D02*
X69755Y68183D01*
X69764Y68131D01*
X69775Y68084D01*
X69789Y68040D01*
X69805Y68001D01*
X69824Y67965D01*
X69846Y67934D01*
X69871Y67906D01*
X69729Y67764D01*
X69701Y67789D01*
X69670Y67811D01*
X69634Y67830D01*
X69595Y67846D01*
X69551Y67860D01*
X69504Y67871D01*
X69452Y67880D01*
X69397Y67886D01*
X69275Y67890D01*
X69745Y68360D01*
X69746Y68297D01*
D02*
G37*
G36*
X80708Y67736D02*
X80732Y67717D01*
X80758Y67701D01*
X80787Y67687D01*
X80817Y67675D01*
X80849Y67666D01*
X80883Y67659D01*
X80919Y67653D01*
X80957Y67651D01*
X80996Y67650D01*
X80650Y67303D01*
X80649Y67343D01*
X80646Y67381D01*
X80641Y67417D01*
X80634Y67451D01*
X80624Y67483D01*
X80613Y67513D01*
X80599Y67541D01*
X80582Y67568D01*
X80564Y67592D01*
X80543Y67615D01*
X80685Y67756D01*
X80708Y67736D01*
D02*
G37*
G36*
X72250Y69081D02*
X72287Y69065D01*
X72357Y68897D01*
X72474Y68744D01*
X72627Y68627D01*
X72805Y68553D01*
X72974Y68531D01*
X72996Y68526D01*
X73041D01*
X73063Y68531D01*
X73232Y68553D01*
X73410Y68627D01*
X73563Y68744D01*
X73651Y68859D01*
X73684Y68869D01*
X73769D01*
X73802Y68859D01*
X73890Y68744D01*
X74043Y68627D01*
X74221Y68553D01*
X74390Y68531D01*
X74412Y68526D01*
X74457D01*
X74479Y68531D01*
X74648Y68553D01*
X74826Y68627D01*
X74979Y68744D01*
X75096Y68897D01*
X75166Y69065D01*
X75203Y69081D01*
X75301Y69098D01*
X75313Y69082D01*
X75470Y68961D01*
X75654Y68885D01*
X75831Y68862D01*
X75851Y68858D01*
X77047D01*
X77893Y68012D01*
X78026Y67923D01*
X78182Y67892D01*
X78182Y67892D01*
X78667D01*
X78710Y67765D01*
X78667Y67732D01*
X78563Y67597D01*
X78498Y67438D01*
X78490Y67382D01*
X78481Y67358D01*
X78470Y67291D01*
X78466Y67274D01*
X78461Y67257D01*
X78456Y67243D01*
X78451Y67232D01*
X78447Y67224D01*
X78446Y67223D01*
X78331Y67108D01*
X77041D01*
Y67135D01*
X77037Y67155D01*
X77014Y67332D01*
X76938Y67516D01*
X76817Y67673D01*
X76659Y67794D01*
X76476Y67870D01*
X76299Y67893D01*
X76279Y67897D01*
X76259Y67893D01*
X76082Y67870D01*
X75899Y67794D01*
X75741Y67673D01*
X75646Y67548D01*
X75605Y67538D01*
X75538D01*
X75497Y67548D01*
X75401Y67673D01*
X75243Y67794D01*
X75060Y67870D01*
X74883Y67893D01*
X74863Y67897D01*
X74843Y67893D01*
X74666Y67870D01*
X74483Y67794D01*
X74325Y67673D01*
X74205Y67516D01*
X74138Y67354D01*
X74066Y67329D01*
X74000Y67325D01*
X73985Y67344D01*
X73827Y67465D01*
X73644Y67541D01*
X73467Y67564D01*
X73447Y67568D01*
X73427Y67564D01*
X73250Y67541D01*
X73067Y67465D01*
X72909Y67344D01*
X72877Y67301D01*
X72731Y67320D01*
X72690Y67420D01*
X72569Y67578D01*
X72411Y67699D01*
X72228Y67775D01*
X72051Y67798D01*
X72031Y67802D01*
X72011Y67798D01*
X71834Y67775D01*
X71651Y67699D01*
X71493Y67578D01*
X71373Y67420D01*
X71297Y67237D01*
X71280Y67108D01*
X71104D01*
X70679Y67533D01*
X70720Y67653D01*
X70730Y67655D01*
X70908Y67728D01*
X71060Y67845D01*
X71177Y67997D01*
X71250Y68175D01*
X71259Y68238D01*
X70540D01*
Y68492D01*
X71259D01*
X71250Y68555D01*
X71177Y68733D01*
X71168Y68744D01*
X71224Y68858D01*
X71603D01*
X71622Y68862D01*
X71799Y68885D01*
X71983Y68961D01*
X72140Y69082D01*
X72152Y69098D01*
X72250Y69081D01*
D02*
G37*
G36*
X79083Y66922D02*
X79046Y66926D01*
X79009Y66927D01*
X78975Y66925D01*
X78942Y66921D01*
X78910Y66914D01*
X78880Y66904D01*
X78852Y66891D01*
X78826Y66876D01*
X78801Y66857D01*
X78778Y66836D01*
X78655Y66997D01*
X78675Y67018D01*
X78693Y67042D01*
X78710Y67068D01*
X78725Y67096D01*
X78739Y67127D01*
X78751Y67159D01*
X78762Y67193D01*
X78770Y67230D01*
X78783Y67309D01*
X79083Y66922D01*
D02*
G37*
G36*
X77776Y64266D02*
X77747Y64293D01*
X77718Y64318D01*
X77689Y64340D01*
X77660Y64359D01*
X77631Y64374D01*
X77601Y64388D01*
X77586Y64393D01*
X77569Y64386D01*
X77550Y64375D01*
X77536Y64362D01*
X77526Y64347D01*
X77520Y64330D01*
X77518Y64311D01*
Y64408D01*
X77511Y64409D01*
X77480Y64411D01*
Y64611D01*
X77511Y64612D01*
X77518Y64613D01*
Y64711D01*
X77520Y64692D01*
X77526Y64675D01*
X77536Y64660D01*
X77550Y64647D01*
X77569Y64636D01*
X77586Y64629D01*
X77601Y64634D01*
X77631Y64647D01*
X77660Y64663D01*
X77689Y64682D01*
X77718Y64704D01*
X77747Y64728D01*
X77776Y64756D01*
Y64266D01*
D02*
G37*
G36*
X103151Y65119D02*
X103198Y65090D01*
X103253Y65065D01*
X103317Y65043D01*
X103390Y65025D01*
X103470Y65010D01*
X103560Y64999D01*
X103764Y64987D01*
X103879Y64987D01*
X103136Y64244D01*
X103135Y64359D01*
X103124Y64563D01*
X103113Y64652D01*
X103098Y64733D01*
X103080Y64805D01*
X103058Y64869D01*
X103033Y64925D01*
X103004Y64971D01*
X102972Y65010D01*
X103113Y65151D01*
X103151Y65119D01*
D02*
G37*
G36*
X78376Y64468D02*
X78379Y64430D01*
X78384Y64394D01*
X78392Y64360D01*
X78401Y64328D01*
X78413Y64298D01*
X78427Y64269D01*
X78443Y64243D01*
X78462Y64218D01*
X78482Y64196D01*
X78341Y64054D01*
X78318Y64075D01*
X78294Y64093D01*
X78267Y64109D01*
X78239Y64123D01*
X78209Y64135D01*
X78177Y64145D01*
X78143Y64152D01*
X78107Y64157D01*
X78069Y64160D01*
X78029Y64161D01*
X78376Y64507D01*
X78376Y64468D01*
D02*
G37*
G36*
X82726Y63796D02*
X82731Y63732D01*
X82737Y63706D01*
X82743Y63684D01*
X82751Y63666D01*
X82760Y63652D01*
X82771Y63642D01*
X82783Y63636D01*
X82797Y63634D01*
X82453D01*
X82467Y63636D01*
X82479Y63642D01*
X82490Y63652D01*
X82499Y63666D01*
X82507Y63684D01*
X82513Y63706D01*
X82519Y63732D01*
X82522Y63762D01*
X82524Y63796D01*
X82525Y63834D01*
X82725D01*
X82726Y63796D01*
D02*
G37*
G36*
X80776D02*
X80781Y63732D01*
X80787Y63706D01*
X80793Y63684D01*
X80801Y63666D01*
X80810Y63652D01*
X80821Y63642D01*
X80833Y63636D01*
X80847Y63634D01*
X80503D01*
X80517Y63636D01*
X80529Y63642D01*
X80540Y63652D01*
X80549Y63666D01*
X80557Y63684D01*
X80563Y63706D01*
X80569Y63732D01*
X80572Y63762D01*
X80574Y63796D01*
X80575Y63834D01*
X80775D01*
X80776Y63796D01*
D02*
G37*
G36*
X79476D02*
X79481Y63732D01*
X79487Y63706D01*
X79493Y63684D01*
X79501Y63666D01*
X79510Y63652D01*
X79521Y63642D01*
X79533Y63636D01*
X79547Y63634D01*
X79203D01*
X79217Y63636D01*
X79229Y63642D01*
X79240Y63652D01*
X79249Y63666D01*
X79257Y63684D01*
X79263Y63706D01*
X79269Y63732D01*
X79272Y63762D01*
X79274Y63796D01*
X79275Y63834D01*
X79475D01*
X79476Y63796D01*
D02*
G37*
G36*
X78826Y63778D02*
X78831Y63721D01*
X78837Y63698D01*
X78843Y63679D01*
X78851Y63663D01*
X78860Y63650D01*
X78871Y63642D01*
X78883Y63636D01*
X78897Y63634D01*
X78553D01*
X78567Y63636D01*
X78579Y63642D01*
X78590Y63650D01*
X78599Y63663D01*
X78607Y63679D01*
X78613Y63698D01*
X78619Y63721D01*
X78622Y63748D01*
X78624Y63778D01*
X78625Y63811D01*
X78825D01*
X78826Y63778D01*
D02*
G37*
G36*
X77463Y62395D02*
X77468Y62382D01*
X77477Y62370D01*
X77490Y62359D01*
X77506Y62350D01*
X77526Y62343D01*
X77550Y62337D01*
X77577Y62333D01*
X77607Y62331D01*
X77642Y62330D01*
Y62130D01*
X77607Y62129D01*
X77577Y62127D01*
X77550Y62123D01*
X77526Y62117D01*
X77506Y62110D01*
X77490Y62101D01*
X77477Y62090D01*
X77468Y62078D01*
X77463Y62065D01*
X77461Y62049D01*
Y62411D01*
X77463Y62395D01*
D02*
G37*
G36*
X82133Y61889D02*
X82121Y61883D01*
X82110Y61873D01*
X82101Y61859D01*
X82093Y61841D01*
X82087Y61819D01*
X82081Y61793D01*
X82078Y61763D01*
X82076Y61729D01*
X82075Y61691D01*
X81875D01*
X81874Y61729D01*
X81869Y61793D01*
X81863Y61819D01*
X81857Y61841D01*
X81849Y61859D01*
X81840Y61873D01*
X81829Y61883D01*
X81817Y61889D01*
X81803Y61891D01*
X82147D01*
X82133Y61889D01*
D02*
G37*
G36*
X81483D02*
X81471Y61883D01*
X81460Y61873D01*
X81451Y61859D01*
X81443Y61841D01*
X81437Y61819D01*
X81431Y61793D01*
X81428Y61763D01*
X81426Y61729D01*
X81425Y61691D01*
X81225D01*
X81224Y61729D01*
X81219Y61793D01*
X81213Y61819D01*
X81207Y61841D01*
X81199Y61859D01*
X81190Y61873D01*
X81179Y61883D01*
X81167Y61889D01*
X81153Y61891D01*
X81497D01*
X81483Y61889D01*
D02*
G37*
G36*
X80183D02*
X80171Y61883D01*
X80160Y61873D01*
X80151Y61859D01*
X80143Y61841D01*
X80137Y61819D01*
X80131Y61793D01*
X80128Y61763D01*
X80126Y61729D01*
X80125Y61691D01*
X79925D01*
X79924Y61729D01*
X79919Y61793D01*
X79913Y61819D01*
X79907Y61841D01*
X79899Y61859D01*
X79890Y61873D01*
X79879Y61883D01*
X79867Y61889D01*
X79853Y61891D01*
X80197D01*
X80183Y61889D01*
D02*
G37*
G36*
X81396Y61390D02*
X81375Y61366D01*
X81357Y61342D01*
X81343Y61316D01*
X81332Y61289D01*
X81324Y61261D01*
X81320Y61231D01*
X81319Y61200D01*
X81321Y61168D01*
X81327Y61134D01*
X81336Y61099D01*
X80908Y61338D01*
X80949Y61350D01*
X81058Y61390D01*
X81090Y61405D01*
X81147Y61437D01*
X81172Y61455D01*
X81195Y61473D01*
X81215Y61492D01*
X81396Y61390D01*
D02*
G37*
G36*
X75379Y61596D02*
X75336Y61580D01*
X75298Y61555D01*
X75265Y61519D01*
X75237Y61473D01*
X75214Y61417D01*
X75196Y61350D01*
X75183Y61274D01*
X75176Y61187D01*
X75174Y61112D01*
X75176Y61038D01*
X75183Y60952D01*
X75195Y60876D01*
X75213Y60810D01*
X75235Y60754D01*
X75262Y60708D01*
X75294Y60672D01*
X75331Y60647D01*
X75373Y60632D01*
X75420Y60627D01*
X74411Y60624D01*
X74460Y60629D01*
X74503Y60644D01*
X74541Y60670D01*
X74574Y60706D01*
X74602Y60752D01*
X74625Y60808D01*
X74642Y60874D01*
X74655Y60951D01*
X74663Y61038D01*
X74665Y61113D01*
X74663Y61187D01*
X74655Y61273D01*
X74643Y61349D01*
X74626Y61415D01*
X74604Y61471D01*
X74577Y61517D01*
X74545Y61552D01*
X74508Y61578D01*
X74466Y61593D01*
X74419Y61598D01*
X75427Y61601D01*
X75379Y61596D01*
D02*
G37*
G36*
X77454Y60176D02*
X77460Y60159D01*
X77470Y60144D01*
X77484Y60131D01*
X77502Y60120D01*
X77524Y60111D01*
X77550Y60104D01*
X77580Y60099D01*
X77614Y60096D01*
X77652Y60095D01*
Y59895D01*
X77614Y59894D01*
X77580Y59891D01*
X77550Y59886D01*
X77524Y59879D01*
X77502Y59870D01*
X77484Y59859D01*
X77470Y59846D01*
X77460Y59831D01*
X77454Y59814D01*
X77452Y59795D01*
Y60195D01*
X77454Y60176D01*
D02*
G37*
G36*
X74413Y59499D02*
X74408Y59545D01*
X74393Y59586D01*
X74368Y59622D01*
X74333Y59654D01*
X74288Y59680D01*
X74233Y59702D01*
X74168Y59719D01*
X74094Y59731D01*
X74009Y59738D01*
X73914Y59741D01*
Y60249D01*
X74009Y60251D01*
X74094Y60258D01*
X74168Y60271D01*
X74233Y60287D01*
X74288Y60309D01*
X74333Y60336D01*
X74368Y60367D01*
X74393Y60403D01*
X74408Y60445D01*
X74413Y60490D01*
Y59499D01*
D02*
G37*
G36*
X78873Y58106D02*
X78556D01*
X78558Y58108D01*
X78559Y58113D01*
X78561Y58121D01*
X78562Y58132D01*
X78564Y58210D01*
X78565Y58268D01*
X78865D01*
X78873Y58106D01*
D02*
G37*
G36*
X77197Y58268D02*
X77206Y58153D01*
X77209Y58141D01*
X77212Y58132D01*
X77216Y58127D01*
X77221Y58125D01*
X77203D01*
X77222Y57827D01*
X77229Y57806D01*
X77236Y57793D01*
X76858D01*
X76866Y57806D01*
X76872Y57827D01*
X76878Y57857D01*
X76883Y57895D01*
X76891Y57997D01*
X76893Y58125D01*
X76873D01*
X76878Y58127D01*
X76882Y58132D01*
X76885Y58141D01*
X76888Y58153D01*
X76891Y58169D01*
X76893Y58189D01*
X76896Y58250D01*
X76897Y58302D01*
X77197D01*
X77197Y58268D01*
D02*
G37*
G36*
X75285Y58080D02*
X75300Y58038D01*
X75326Y58000D01*
X75361Y57967D01*
X75407Y57940D01*
X75463Y57917D01*
X75529Y57900D01*
X75605Y57887D01*
X75691Y57880D01*
X75788Y57877D01*
Y57369D01*
X75691Y57366D01*
X75605Y57359D01*
X75529Y57346D01*
X75463Y57329D01*
X75407Y57306D01*
X75361Y57279D01*
X75326Y57246D01*
X75300Y57208D01*
X75285Y57166D01*
X75280Y57118D01*
Y58128D01*
X75285Y58080D01*
D02*
G37*
G36*
X76415Y57118D02*
X76410Y57166D01*
X76395Y57208D01*
X76369Y57246D01*
X76334Y57279D01*
X76288Y57306D01*
X76232Y57329D01*
X76166Y57346D01*
X76090Y57359D01*
X76004Y57366D01*
X75907Y57369D01*
Y57877D01*
X76004Y57880D01*
X76090Y57887D01*
X76166Y57900D01*
X76232Y57917D01*
X76288Y57940D01*
X76334Y57967D01*
X76369Y58000D01*
X76395Y58038D01*
X76410Y58080D01*
X76415Y58128D01*
Y57118D01*
D02*
G37*
D14*
X78665Y84266D02*
G03*
X79019Y84620I0J354D01*
G01*
X78559Y84266D02*
G03*
X78205Y83912I0J-354D01*
G01*
D02*
G03*
X78559Y83558I354J0D01*
G01*
X79504Y83204D02*
G03*
X79150Y83558I-354J0D01*
G01*
Y82850D02*
G03*
X79504Y83204I0J354D01*
G01*
X78559Y82850D02*
G03*
X78205Y82496I0J-354D01*
G01*
D02*
G03*
X78559Y82142I354J0D01*
G01*
X79019Y81788D02*
G03*
X78665Y82142I-354J0D01*
G01*
X75497Y69620D02*
G03*
X75851Y69266I354J0D01*
G01*
X75497Y69726D02*
G03*
X75143Y70080I-354J0D01*
G01*
D02*
G03*
X74789Y69726I0J-354D01*
G01*
X74457Y68934D02*
G03*
X74789Y69266I0J332D01*
G01*
X74081D02*
G03*
X74412Y68934I332J0D01*
G01*
X74081Y69726D02*
G03*
X73727Y70080I-354J0D01*
G01*
D02*
G03*
X73373Y69726I0J-354D01*
G01*
X73041Y68934D02*
G03*
X73373Y69266I0J332D01*
G01*
X72665D02*
G03*
X72996Y68934I332J0D01*
G01*
X72665Y69726D02*
G03*
X72311Y70080I-354J0D01*
G01*
D02*
G03*
X71957Y69726I0J-354D01*
G01*
X71603Y69266D02*
G03*
X71957Y69620I0J354D01*
G01*
X76633Y67054D02*
G03*
X76987Y66700I354J0D01*
G01*
X76633Y67135D02*
G03*
X76279Y67489I-354J0D01*
G01*
D02*
G03*
X75925Y67135I0J-354D01*
G01*
X75571Y66300D02*
G03*
X75925Y66654I0J354D01*
G01*
X75217D02*
G03*
X75571Y66300I354J0D01*
G01*
X75217Y67135D02*
G03*
X74863Y67489I-354J0D01*
G01*
D02*
G03*
X74509Y67135I0J-354D01*
G01*
X74155Y66300D02*
G03*
X74509Y66654I0J354D01*
G01*
X73801D02*
G03*
X74155Y66300I354J0D01*
G01*
X73801Y66806D02*
G03*
X73447Y67160I-354J0D01*
G01*
D02*
G03*
X73093Y66806I0J-354D01*
G01*
X72739Y66300D02*
G03*
X73093Y66654I0J354D01*
G01*
X72385D02*
G03*
X72739Y66300I354J0D01*
G01*
X72385Y67040D02*
G03*
X72031Y67394I-354J0D01*
G01*
D02*
G03*
X71677Y67040I0J-354D01*
G01*
X71337Y66700D02*
G03*
X71677Y67040I0J340D01*
G01*
X87398Y77449D02*
G03*
X86897Y77449I-250J-250D01*
G01*
X87411Y77436D02*
G03*
X87912Y77436I250J250D01*
G01*
D02*
G03*
X87912Y77936I-250J250D01*
G01*
X87601Y78748D02*
G03*
X87601Y78247I250J-250D01*
G01*
X88102Y78748D02*
G03*
X87601Y78748I-250J-250D01*
G01*
X88412Y78437D02*
G03*
X88913Y78437I250J250D01*
G01*
D02*
G03*
X88913Y78938I-250J250D01*
G01*
X88900Y79451D02*
G03*
X88900Y78951I250J-250D01*
G01*
X89244Y85296D02*
G03*
X89476Y85065I232J0D01*
G01*
X89244Y85296D02*
G03*
X88890Y85650I-354J0D01*
G01*
D02*
G03*
X88536Y85296I0J-354D01*
G01*
X88182Y84656D02*
G03*
X88536Y85010I0J354D01*
G01*
X87828D02*
G03*
X88182Y84656I354J0D01*
G01*
X87828Y85296D02*
G03*
X87474Y85650I-354J0D01*
G01*
D02*
G03*
X87120Y85296I0J-354D01*
G01*
X86889Y85065D02*
G03*
X87120Y85296I0J232D01*
G01*
X84619Y89816D02*
G03*
X84265Y90170I-354J0D01*
G01*
X84619Y89786D02*
G03*
X84973Y89432I354J0D01*
G01*
D02*
G03*
X85327Y89786I0J354D01*
G01*
X85681Y90603D02*
G03*
X85327Y90249I0J-354D01*
G01*
X86035D02*
G03*
X85681Y90603I-354J0D01*
G01*
X86035Y89786D02*
G03*
X86389Y89432I354J0D01*
G01*
D02*
G03*
X86743Y89786I0J354D01*
G01*
X87097Y90170D02*
G03*
X86743Y89816I0J-354D01*
G01*
X80874Y87757D02*
X81890D01*
X79019Y85903D02*
X80874Y87757D01*
X79019Y84811D02*
Y85903D01*
Y74149D02*
Y81788D01*
Y84620D02*
Y84811D01*
X78559Y84266D02*
X78665D01*
X78559Y83558D02*
X79019D01*
X79150D01*
X79019Y82850D02*
X79150D01*
X78559D02*
X79019D01*
X78559Y82142D02*
X78665D01*
X79019Y74149D02*
X80321Y72847D01*
X82626D01*
X78577Y69785D02*
X79867D01*
X81350Y68950D02*
X82100Y69700D01*
X79069Y67269D02*
X79131D01*
X78300Y65800D02*
X79375Y64725D01*
X77898Y65800D02*
X78300D01*
X77898Y65800D02*
X77898Y65800D01*
X77330Y65800D02*
X77898D01*
X78557Y68950D02*
X81350D01*
X78182Y68300D02*
X80000D01*
X81000Y67300D01*
X76263Y72099D02*
X78577Y69785D01*
X76362Y71145D02*
X78557Y68950D01*
X73939Y71145D02*
X76362D01*
X73374Y70580D02*
X73939Y71145D01*
X68945Y70580D02*
X73374D01*
X77216Y69266D02*
X78182Y68300D01*
X81356Y59995D02*
X81975Y60614D01*
Y62763D01*
X76947Y59995D02*
X81356D01*
X80025Y61686D02*
Y62763D01*
X79705Y61366D02*
X80025Y61686D01*
X78505Y61366D02*
X79705D01*
X77642Y62230D02*
X78505Y61366D01*
X76956Y62230D02*
X77642D01*
X78725Y62763D02*
Y63811D01*
X78026Y64511D02*
X78725Y63811D01*
X76761Y64511D02*
X78026D01*
X76750Y64500D02*
X76761Y64511D01*
X76073Y69266D02*
X77216D01*
X70909D02*
X71603D01*
X75851D02*
X76073D01*
X75497Y69620D02*
Y69726D01*
X74789Y69266D02*
Y69726D01*
X74412Y68934D02*
X74457D01*
X74081Y69266D02*
Y69726D01*
X73373Y69266D02*
Y69726D01*
X72996Y68934D02*
X73041D01*
X72665Y69266D02*
Y69726D01*
X71957Y69620D02*
Y69726D01*
X78500Y66700D02*
X79069Y67269D01*
X77318Y66700D02*
X78500D01*
X70935D02*
X71323D01*
X76987D02*
X77318D01*
X76633Y67054D02*
Y67135D01*
X75925Y66700D02*
Y67135D01*
Y66654D02*
Y66700D01*
X75217Y66654D02*
Y66700D01*
Y67135D01*
X74509Y66700D02*
Y67135D01*
Y66654D02*
Y66700D01*
X73801Y66654D02*
Y66700D01*
Y66806D01*
X73093Y66700D02*
Y66806D01*
Y66654D02*
Y66700D01*
X72385Y66654D02*
Y66700D01*
Y67040D01*
X71323Y66700D02*
X71337D01*
X69270Y68365D02*
X70935Y66700D01*
X68434Y71339D02*
X72822D01*
X71013Y67894D02*
X73635D01*
X70542Y68365D02*
X71013Y67894D01*
X70540Y68365D02*
X70542D01*
X66730Y69635D02*
X68434Y71339D01*
X72923Y71145D02*
Y71247D01*
X72822Y71349D02*
X72923Y71247D01*
X72822Y71339D02*
Y71349D01*
X65460Y69635D02*
X67924Y72099D01*
X76263D01*
X68000Y69635D02*
X68945Y70580D01*
X70540Y69635D02*
X70909Y69266D01*
X69270Y69635D02*
X69270D01*
X70540Y68365D01*
Y68365D02*
Y68365D01*
X66604Y73381D02*
X67970D01*
X65460Y74525D02*
X66604Y73381D01*
X65962Y67490D02*
X66730Y68258D01*
X64529Y67490D02*
X65962D01*
X66730Y68258D02*
Y68365D01*
X63075Y68944D02*
X64529Y67490D01*
X66730Y75795D02*
Y76475D01*
X66319Y76886D02*
X66730Y76475D01*
X63516Y76886D02*
X66319D01*
X63075Y68944D02*
Y76445D01*
X63516Y76886D01*
X73650Y65800D02*
X74498D01*
X73650Y65800D02*
X73650Y65800D01*
X73082Y65800D02*
X73650D01*
X73082Y65800D02*
X73082Y65800D01*
X69188Y65800D02*
X73082D01*
X75066D02*
X75914D01*
X75066Y65800D02*
X75066Y65800D01*
X74498Y65800D02*
X75066D01*
X74498Y65800D02*
X74498Y65800D01*
X77330Y65800D02*
X77330Y65800D01*
X76482Y65800D02*
X77330D01*
X76482Y65800D02*
X76482Y65800D01*
X75914Y65800D02*
X76482D01*
X75914Y65800D02*
X75914Y65800D01*
X66730Y68258D02*
X69188Y65800D01*
X67208Y77445D02*
X67234D01*
X68000Y75795D02*
Y76678D01*
X67234Y77445D02*
X68000Y76678D01*
X83200Y67100D02*
X98000D01*
X80675Y64575D02*
X83200Y67100D01*
X83487Y65387D02*
X102736D01*
X82625Y64525D02*
X83487Y65387D01*
X87097Y90170D02*
X89865D01*
X89027Y86411D02*
X89033Y86416D01*
Y87822D01*
X89038Y87827D01*
X88017Y86462D02*
X88388Y86832D01*
X83134Y86462D02*
X88017D01*
X88388Y86832D02*
Y87827D01*
X95416Y85230D02*
Y88582D01*
X93588Y83403D02*
X95416Y85230D01*
X93588Y82302D02*
Y83403D01*
X94056Y89941D02*
X95416Y88582D01*
X92100Y89941D02*
X94056D01*
X89814Y92227D02*
X92100Y89941D01*
X88524Y94717D02*
X89814Y93427D01*
Y92227D02*
Y93427D01*
X88524Y94717D02*
Y97917D01*
X89038Y81139D02*
Y82302D01*
X88875Y80975D02*
X89038Y81139D01*
X88875Y80594D02*
Y80975D01*
X89688Y80239D02*
Y82302D01*
X88900Y79451D02*
X89688Y80239D01*
X87833Y84099D02*
X90221D01*
X85261Y81527D02*
X87833Y84099D01*
X83280Y81527D02*
X85261D01*
X90221Y84099D02*
X92938Y86817D01*
X92278Y83718D02*
X92283Y83714D01*
Y82307D02*
Y83714D01*
Y82307D02*
X92288Y82302D01*
X88412Y78437D02*
X88412D01*
X87912Y77936D02*
X87912D01*
X90988Y82302D02*
Y83698D01*
X91008Y83718D01*
X90475Y85065D02*
X91638Y86228D01*
X89865Y85065D02*
X90475D01*
X92938Y86817D02*
Y87827D01*
X91638Y86228D02*
Y87827D01*
X85896Y76447D02*
X86804Y77356D01*
X86897Y77449D01*
X87398D02*
X87411Y77436D01*
X87648Y78200D02*
X87912Y77936D01*
X87601Y78247D02*
X87648Y78200D01*
X88102Y78748D02*
X88149Y78700D01*
X88412Y78437D01*
X88900Y78951D02*
X88913Y78938D01*
X82201Y76447D02*
X85896D01*
X81890Y76759D02*
X82201Y76447D01*
X81890Y76759D02*
Y77597D01*
X85904Y85065D02*
X86766D01*
X89476D02*
X89865D01*
X88536D02*
Y85296D01*
Y85010D02*
Y85065D01*
X87828Y85010D02*
Y85065D01*
Y85296D01*
X86766Y85065D02*
X86889D01*
X84906Y84067D02*
X85904Y85065D01*
X84193Y84067D02*
X84906D01*
X82940Y82813D02*
X84193Y84067D01*
X82026Y82813D02*
X82940D01*
X90338Y87827D02*
Y89697D01*
X89865Y90170D02*
X90338Y89697D01*
X83261Y90170D02*
X83972D01*
X84265D01*
X84619Y89786D02*
Y89816D01*
X85327Y89786D02*
Y90170D01*
Y90249D01*
X86035Y90170D02*
Y90249D01*
Y89786D02*
Y90170D01*
X86743Y89786D02*
Y89816D01*
X81890Y88798D02*
X83261Y90170D01*
X81890Y87757D02*
Y88798D01*
Y85217D02*
X83134Y86462D01*
X81890Y80137D02*
X83280Y81527D01*
X81890Y82677D02*
X82026Y82813D01*
X83907Y73007D02*
X105276D01*
X106426Y71857D01*
X81000Y61135D02*
X81325Y61460D01*
X81000Y61000D02*
Y61135D01*
X81325Y61460D02*
Y62763D01*
X79375D02*
Y64725D01*
X82625Y62763D02*
Y64525D01*
X102736Y65387D02*
X103886Y64237D01*
X101346Y70446D02*
Y71857D01*
X98000Y67100D02*
X101346Y70446D01*
X80675Y62763D02*
Y64575D01*
X83900Y73000D02*
X83907Y73007D01*
D26*
X77016Y64500D02*
D03*
X74984D02*
D03*
X74924Y62230D02*
D03*
X76956D02*
D03*
X74915Y59995D02*
D03*
X76947D02*
D03*
D27*
X77047Y55591D02*
D03*
Y57623D02*
D03*
X74648Y55591D02*
D03*
Y57623D02*
D03*
D29*
X89038Y82302D02*
D03*
X88388D02*
D03*
Y87827D02*
D03*
X89038D02*
D03*
X89688D02*
D03*
X90338D02*
D03*
X90988D02*
D03*
X91638D02*
D03*
X89688Y82302D02*
D03*
X90338D02*
D03*
X90988D02*
D03*
X91638D02*
D03*
X92288D02*
D03*
X92938D02*
D03*
X93588D02*
D03*
X94238D02*
D03*
Y87827D02*
D03*
X93588D02*
D03*
X92938D02*
D03*
X92288D02*
D03*
X78725Y62763D02*
D03*
X79375D02*
D03*
X80025D02*
D03*
X80675D02*
D03*
X81325D02*
D03*
X81975D02*
D03*
X82625D02*
D03*
X83275D02*
D03*
X79375Y57237D02*
D03*
X80025D02*
D03*
X80675D02*
D03*
X81325D02*
D03*
X81975D02*
D03*
X82625D02*
D03*
X83275D02*
D03*
X78725D02*
D03*
D48*
X73822Y57623D02*
X74648D01*
X73242Y58203D02*
X73822Y57623D01*
X73242Y58203D02*
Y58646D01*
X73914Y59995D02*
X74915D01*
X73242Y59323D02*
X73914Y59995D01*
X73242Y58719D02*
Y59323D01*
X74648Y57623D02*
X77047D01*
X77047Y57623D01*
X73205Y58683D02*
X73242Y58646D01*
X73205Y58683D02*
X73242Y58719D01*
X74915Y59995D02*
X74919Y60000D01*
Y62225D01*
X74924Y62230D01*
X63729Y74930D02*
X64594Y75795D01*
X63729Y69215D02*
Y74930D01*
Y69215D02*
X64592Y68351D01*
X64594Y75795D02*
X65460D01*
X64592Y68351D02*
X65446D01*
X65460Y68365D01*
D50*
X77318Y58572D02*
X78410D01*
X77047Y58302D02*
X77318Y58572D01*
X77047Y57623D02*
Y58302D01*
X78715Y57248D02*
Y58268D01*
X78410Y58572D02*
X78715Y58268D01*
Y57248D02*
X78725Y57237D01*
X94666Y85954D02*
Y86062D01*
X94238Y86490D02*
X94666Y86062D01*
X94238Y86490D02*
Y87827D01*
D51*
X69270Y74525D02*
D03*
X68000D02*
D03*
X66730D02*
D03*
X69270Y75795D02*
D03*
X68000D02*
D03*
X66730D02*
D03*
X65460D02*
D03*
X70540Y69635D02*
D03*
Y68365D02*
D03*
X69270D02*
D03*
X68000D02*
D03*
X66730D02*
D03*
X69270Y69635D02*
D03*
X68000D02*
D03*
X66730D02*
D03*
X65460D02*
D03*
D52*
Y74525D02*
D03*
Y68365D02*
D03*
D53*
X84430Y82677D02*
D03*
X81890D02*
D03*
X84430Y85217D02*
D03*
X81890D02*
D03*
X84430Y87757D02*
D03*
X81890Y80137D02*
D03*
X84430D02*
D03*
X81890Y77597D02*
D03*
X84430D02*
D03*
X123008Y49657D02*
D03*
X120468D02*
D03*
X117928D02*
D03*
X115388D02*
D03*
X112848D02*
D03*
X116586Y64237D02*
D03*
X114046D02*
D03*
X101346D02*
D03*
X103886D02*
D03*
X108966D02*
D03*
X111506D02*
D03*
X106426D02*
D03*
X111506Y71857D02*
D03*
X114046D02*
D03*
X116586D02*
D03*
X106426D02*
D03*
X108966D02*
D03*
X103886D02*
D03*
X101346D02*
D03*
X98806D02*
D03*
X91064Y93091D02*
D03*
X88524D02*
D03*
X85984D02*
D03*
X83444D02*
D03*
X80904D02*
D03*
X93604D02*
D03*
X96144D02*
D03*
X98684D02*
D03*
X101224D02*
D03*
X120955Y54661D02*
D03*
X118415D02*
D03*
X115875D02*
D03*
X113335D02*
D03*
X110795D02*
D03*
X117958Y97917D02*
D03*
X115418D02*
D03*
X112878D02*
D03*
X110338D02*
D03*
X107798D02*
D03*
X120498D02*
D03*
X123038D02*
D03*
X101224D02*
D03*
X98684D02*
D03*
X96144D02*
D03*
X93604D02*
D03*
X80904D02*
D03*
X83444D02*
D03*
X85984D02*
D03*
X88524D02*
D03*
X91064D02*
D03*
X103480Y54661D02*
D03*
X100940D02*
D03*
X88240D02*
D03*
X90780D02*
D03*
X93320D02*
D03*
X95860D02*
D03*
X98400D02*
D03*
X100178Y49657D02*
D03*
X97638D02*
D03*
X95098D02*
D03*
X92558D02*
D03*
X90018D02*
D03*
X102718D02*
D03*
X105258D02*
D03*
X117958Y93091D02*
D03*
X115418D02*
D03*
X112878D02*
D03*
X110338D02*
D03*
X107798D02*
D03*
X120498D02*
D03*
X123038D02*
D03*
D54*
X81890Y87757D02*
D03*
X98806Y64237D02*
D03*
D55*
X106451Y79477D02*
D03*
X103911D02*
D03*
X101371D02*
D03*
D56*
X98831D02*
D03*
D57*
X110308Y49657D02*
D03*
X78364Y93091D02*
D03*
X108255Y54661D02*
D03*
X105258Y97917D02*
D03*
X78364D02*
D03*
X85700Y54661D02*
D03*
X87478Y49657D02*
D03*
X105258Y93091D02*
D03*
D58*
X63000Y54710D02*
D03*
Y57250D02*
D03*
D59*
Y59790D02*
D03*
D60*
X74808Y97917D02*
D03*
X125608Y54737D02*
D03*
Y82677D02*
D03*
X73508Y49657D02*
D03*
D61*
X79867Y69785D02*
D03*
X82100Y69700D02*
D03*
X79131Y67269D02*
D03*
X81000Y67300D02*
D03*
X73205Y58683D02*
D03*
X78026Y64511D02*
D03*
X77522Y49404D02*
D03*
X79944Y49416D02*
D03*
X77306Y78437D02*
D03*
X102264Y87519D02*
D03*
X105317Y87504D02*
D03*
X91213Y95389D02*
D03*
X96470Y95472D02*
D03*
X93625Y95424D02*
D03*
X66016Y72558D02*
D03*
X86315Y83800D02*
D03*
X74849Y74376D02*
D03*
X122766Y90698D02*
D03*
Y86698D02*
D03*
Y82698D02*
D03*
Y78698D02*
D03*
Y74698D02*
D03*
Y70698D02*
D03*
Y66698D02*
D03*
Y62698D02*
D03*
Y58698D02*
D03*
Y54698D02*
D03*
X118766Y90698D02*
D03*
Y86698D02*
D03*
Y82698D02*
D03*
Y78698D02*
D03*
Y58698D02*
D03*
X114766Y90698D02*
D03*
Y86698D02*
D03*
Y82698D02*
D03*
Y74698D02*
D03*
Y66698D02*
D03*
Y62698D02*
D03*
X110766Y90698D02*
D03*
Y86698D02*
D03*
Y78698D02*
D03*
Y74698D02*
D03*
Y66698D02*
D03*
Y62698D02*
D03*
X106766Y94698D02*
D03*
Y90698D02*
D03*
Y86698D02*
D03*
Y82698D02*
D03*
Y66698D02*
D03*
Y54698D02*
D03*
Y50698D02*
D03*
X102766Y94698D02*
D03*
Y90698D02*
D03*
Y82698D02*
D03*
Y74698D02*
D03*
Y70698D02*
D03*
Y66698D02*
D03*
Y62698D02*
D03*
X98766Y90698D02*
D03*
Y86698D02*
D03*
Y66698D02*
D03*
Y62698D02*
D03*
Y50698D02*
D03*
X94766Y78698D02*
D03*
Y74698D02*
D03*
Y70698D02*
D03*
Y62698D02*
D03*
X90766Y78698D02*
D03*
Y70698D02*
D03*
X86766Y94698D02*
D03*
Y70698D02*
D03*
X82766Y50698D02*
D03*
X78766Y90698D02*
D03*
Y54698D02*
D03*
X74766Y94698D02*
D03*
Y90698D02*
D03*
Y86698D02*
D03*
Y82698D02*
D03*
X70766Y94698D02*
D03*
Y90698D02*
D03*
Y86698D02*
D03*
Y82698D02*
D03*
Y78698D02*
D03*
Y74698D02*
D03*
Y62698D02*
D03*
Y50698D02*
D03*
X66766Y94698D02*
D03*
Y90698D02*
D03*
Y86698D02*
D03*
Y82698D02*
D03*
Y78698D02*
D03*
Y66698D02*
D03*
Y50698D02*
D03*
X62766Y94698D02*
D03*
Y90698D02*
D03*
Y86698D02*
D03*
Y82698D02*
D03*
Y78698D02*
D03*
Y62698D02*
D03*
Y50698D02*
D03*
X73635Y67894D02*
D03*
X72822Y71349D02*
D03*
X67970Y73381D02*
D03*
X67208Y77445D02*
D03*
X84146Y66209D02*
D03*
X82626Y72847D02*
D03*
X89027Y86411D02*
D03*
X94666Y85954D02*
D03*
X88875Y80594D02*
D03*
X92278Y83718D02*
D03*
X91008D02*
D03*
X66943Y60026D02*
D03*
X69505Y59144D02*
D03*
X66972Y54501D02*
D03*
X69505Y57441D02*
D03*
X62272Y65476D02*
D03*
X84378Y62789D02*
D03*
X73824Y64452D02*
D03*
X81000Y61000D02*
D03*
X83900Y73000D02*
D03*
M02*
