G04*
G04 #@! TF.GenerationSoftware,Altium Limited,Altium Designer,19.1.6 (110)*
G04*
G04 Layer_Color=8388736*
%FSLAX43Y43*%
%MOMM*%
G71*
G01*
G75*
%ADD30R,1.219X1.473*%
%ADD31R,1.473X1.219*%
G04:AMPARAMS|DCode=32|XSize=0.965mm|YSize=1.473mm|CornerRadius=0.216mm|HoleSize=0mm|Usage=FLASHONLY|Rotation=270.000|XOffset=0mm|YOffset=0mm|HoleType=Round|Shape=RoundedRectangle|*
%AMROUNDEDRECTD32*
21,1,0.965,1.041,0,0,270.0*
21,1,0.533,1.473,0,0,270.0*
1,1,0.432,-0.521,-0.267*
1,1,0.432,-0.521,0.267*
1,1,0.432,0.521,0.267*
1,1,0.432,0.521,-0.267*
%
%ADD32ROUNDEDRECTD32*%
%ADD33R,1.203X0.803*%
%ADD34R,0.553X1.953*%
G04:AMPARAMS|DCode=35|XSize=0.965mm|YSize=1.473mm|CornerRadius=0.216mm|HoleSize=0mm|Usage=FLASHONLY|Rotation=0.000|XOffset=0mm|YOffset=0mm|HoleType=Round|Shape=RoundedRectangle|*
%AMROUNDEDRECTD35*
21,1,0.965,1.041,0,0,0.0*
21,1,0.533,1.473,0,0,0.0*
1,1,0.432,0.267,-0.521*
1,1,0.432,-0.267,-0.521*
1,1,0.432,-0.267,0.521*
1,1,0.432,0.267,0.521*
%
%ADD35ROUNDEDRECTD35*%
%ADD36C,1.153*%
G04:AMPARAMS|DCode=37|XSize=1.153mm|YSize=1.153mm|CornerRadius=0.339mm|HoleSize=0mm|Usage=FLASHONLY|Rotation=0.000|XOffset=0mm|YOffset=0mm|HoleType=Round|Shape=RoundedRectangle|*
%AMROUNDEDRECTD37*
21,1,1.153,0.475,0,0,0.0*
21,1,0.475,1.153,0,0,0.0*
1,1,0.678,0.238,-0.238*
1,1,0.678,-0.238,-0.238*
1,1,0.678,-0.238,0.238*
1,1,0.678,0.238,0.238*
%
%ADD37ROUNDEDRECTD37*%
%ADD38C,1.703*%
G04:AMPARAMS|DCode=39|XSize=1.703mm|YSize=1.703mm|CornerRadius=0.477mm|HoleSize=0mm|Usage=FLASHONLY|Rotation=270.000|XOffset=0mm|YOffset=0mm|HoleType=Round|Shape=RoundedRectangle|*
%AMROUNDEDRECTD39*
21,1,1.703,0.750,0,0,270.0*
21,1,0.750,1.703,0,0,270.0*
1,1,0.953,-0.375,-0.375*
1,1,0.953,-0.375,0.375*
1,1,0.953,0.375,0.375*
1,1,0.953,0.375,-0.375*
%
%ADD39ROUNDEDRECTD39*%
%ADD40O,1.803X2.003*%
G04:AMPARAMS|DCode=41|XSize=1.803mm|YSize=2.003mm|CornerRadius=0.182mm|HoleSize=0mm|Usage=FLASHONLY|Rotation=0.000|XOffset=0mm|YOffset=0mm|HoleType=Round|Shape=RoundedRectangle|*
%AMROUNDEDRECTD41*
21,1,1.803,1.640,0,0,0.0*
21,1,1.440,2.003,0,0,0.0*
1,1,0.363,0.720,-0.820*
1,1,0.363,-0.720,-0.820*
1,1,0.363,-0.720,0.820*
1,1,0.363,0.720,0.820*
%
%ADD41ROUNDEDRECTD41*%
G04:AMPARAMS|DCode=42|XSize=1.703mm|YSize=1.703mm|CornerRadius=0.477mm|HoleSize=0mm|Usage=FLASHONLY|Rotation=0.000|XOffset=0mm|YOffset=0mm|HoleType=Round|Shape=RoundedRectangle|*
%AMROUNDEDRECTD42*
21,1,1.703,0.750,0,0,0.0*
21,1,0.750,1.703,0,0,0.0*
1,1,0.953,0.375,-0.375*
1,1,0.953,-0.375,-0.375*
1,1,0.953,-0.375,0.375*
1,1,0.953,0.375,0.375*
%
%ADD42ROUNDEDRECTD42*%
%ADD43O,2.003X1.803*%
G04:AMPARAMS|DCode=44|XSize=1.803mm|YSize=2.003mm|CornerRadius=0.182mm|HoleSize=0mm|Usage=FLASHONLY|Rotation=270.000|XOffset=0mm|YOffset=0mm|HoleType=Round|Shape=RoundedRectangle|*
%AMROUNDEDRECTD44*
21,1,1.803,1.640,0,0,270.0*
21,1,1.440,2.003,0,0,270.0*
1,1,0.363,-0.820,-0.720*
1,1,0.363,-0.820,0.720*
1,1,0.363,0.820,0.720*
1,1,0.363,0.820,-0.720*
%
%ADD44ROUNDEDRECTD44*%
%ADD45C,3.378*%
D30*
X89027Y78892D02*
D03*
X86995D02*
D03*
X76234Y75347D02*
D03*
X78266D02*
D03*
X76234Y73293D02*
D03*
X78266D02*
D03*
D31*
X95834Y87986D02*
D03*
Y85954D02*
D03*
D32*
X87401Y89611D02*
D03*
Y87833D02*
D03*
X77500Y50861D02*
D03*
Y52639D02*
D03*
X80000Y52639D02*
D03*
Y50861D02*
D03*
X71000Y59111D02*
D03*
Y60889D02*
D03*
X105308Y86030D02*
D03*
X105308Y84252D02*
D03*
X102286Y86030D02*
D03*
X102286Y84252D02*
D03*
X71000Y57389D02*
D03*
Y55611D02*
D03*
D33*
X68350Y53550D02*
D03*
Y55450D02*
D03*
X65750Y54500D02*
D03*
Y53550D02*
D03*
Y55450D02*
D03*
X68300Y59050D02*
D03*
Y60950D02*
D03*
X65700Y60000D02*
D03*
Y59050D02*
D03*
Y60950D02*
D03*
D34*
X78725Y71262D02*
D03*
X83275D02*
D03*
X82625D02*
D03*
X81975D02*
D03*
X81325D02*
D03*
X80675D02*
D03*
X80025D02*
D03*
X79375D02*
D03*
X83275Y65738D02*
D03*
X82625D02*
D03*
X81975D02*
D03*
X81325D02*
D03*
X80675D02*
D03*
X80025D02*
D03*
X79375D02*
D03*
X78725D02*
D03*
D35*
X63611Y65500D02*
D03*
X65389Y65500D02*
D03*
D36*
X69270Y74525D02*
D03*
X68000D02*
D03*
X66730D02*
D03*
X69270Y75795D02*
D03*
X68000D02*
D03*
X66730D02*
D03*
X65460D02*
D03*
X70540Y69635D02*
D03*
Y68365D02*
D03*
X69270D02*
D03*
X68000D02*
D03*
X66730D02*
D03*
X69270Y69635D02*
D03*
X68000D02*
D03*
X66730D02*
D03*
X65460D02*
D03*
D37*
Y74525D02*
D03*
Y68365D02*
D03*
D38*
X84430Y82677D02*
D03*
X81890D02*
D03*
X84430Y85217D02*
D03*
X81890D02*
D03*
X84430Y87757D02*
D03*
X81890Y80137D02*
D03*
X84430D02*
D03*
X81890Y77597D02*
D03*
X84430D02*
D03*
X123008Y49657D02*
D03*
X120468D02*
D03*
X117928D02*
D03*
X115388D02*
D03*
X112848D02*
D03*
X116586Y64237D02*
D03*
X114046D02*
D03*
X101346D02*
D03*
X103886D02*
D03*
X108966D02*
D03*
X111506D02*
D03*
X106426D02*
D03*
X111506Y71857D02*
D03*
X114046D02*
D03*
X116586D02*
D03*
X106426D02*
D03*
X108966D02*
D03*
X103886D02*
D03*
X101346D02*
D03*
X98806D02*
D03*
X91064Y93091D02*
D03*
X88524D02*
D03*
X85984D02*
D03*
X83444D02*
D03*
X80904D02*
D03*
X93604D02*
D03*
X96144D02*
D03*
X98684D02*
D03*
X101224D02*
D03*
X120955Y54661D02*
D03*
X118415D02*
D03*
X115875D02*
D03*
X113335D02*
D03*
X110795D02*
D03*
X117958Y97917D02*
D03*
X115418D02*
D03*
X112878D02*
D03*
X110338D02*
D03*
X107798D02*
D03*
X120498D02*
D03*
X123038D02*
D03*
X101224D02*
D03*
X98684D02*
D03*
X96144D02*
D03*
X93604D02*
D03*
X80904D02*
D03*
X83444D02*
D03*
X85984D02*
D03*
X88524D02*
D03*
X91064D02*
D03*
X103480Y54661D02*
D03*
X100940D02*
D03*
X88240D02*
D03*
X90780D02*
D03*
X93320D02*
D03*
X95860D02*
D03*
X98400D02*
D03*
X100178Y49657D02*
D03*
X97638D02*
D03*
X95098D02*
D03*
X92558D02*
D03*
X90018D02*
D03*
X102718D02*
D03*
X105258D02*
D03*
X117958Y93091D02*
D03*
X115418D02*
D03*
X112878D02*
D03*
X110338D02*
D03*
X107798D02*
D03*
X120498D02*
D03*
X123038D02*
D03*
D39*
X81890Y87757D02*
D03*
X98806Y64237D02*
D03*
D40*
X106451Y79477D02*
D03*
X103911D02*
D03*
X101371D02*
D03*
D41*
X98831D02*
D03*
D42*
X110308Y49657D02*
D03*
X78364Y93091D02*
D03*
X108255Y54661D02*
D03*
X105258Y97917D02*
D03*
X78364D02*
D03*
X85700Y54661D02*
D03*
X87478Y49657D02*
D03*
X105258Y93091D02*
D03*
D43*
X63000Y54710D02*
D03*
Y57250D02*
D03*
D44*
Y59790D02*
D03*
D45*
X74808Y97917D02*
D03*
X125608Y54737D02*
D03*
Y82677D02*
D03*
X73508Y49657D02*
D03*
M02*
