M48
;Layer_Color=9474304
;FILE_FORMAT=4:3
METRIC,LZ
;TYPE=PLATED
T1F00S00C0.300
T2F00S00C0.650
T3F00S00C0.800
T4F00S00C0.900
T5F00S00C1.000
T6F00S00C3.175
%
T01
X0122766Y0054698
Y0058698
Y0062698
Y0066698
Y0070698
X0114766Y0066698
Y0062698
X0118766Y0058698
X0110766Y0062698
Y0066698
X0106766
X0102766
Y0070698
Y0062698
X0098766
Y0066698
X0094766Y0070698
X0090766
X0086766
X00839Y0073
X0082626Y0072847
X00821Y00697
X0079867Y0069785
X0079131Y0067269
X0081Y00673
X0084146Y0066209
X0084378Y0062789
X0081Y0061
X0078026Y0064511
X0078766Y0054698
X0079944Y0049416
X0077522Y0049404
X0082766Y0050698
X0098766
X0106766
Y0054698
X0094766Y0062698
X0073824Y0064452
X0073635Y0067894
X0072822Y0071349
X006797Y0073381
X0066016Y0072558
X0066766Y0066698
X0062272Y0065476
X0062766Y0062698
X0066943Y0060026
X0069505Y0059144
Y0057441
X0073205Y0058683
X0070766Y0062698
X0066972Y0054501
X0066766Y0050698
X0070766
X0062766
Y0078698
X0066766
X0067208Y0077445
X0070766Y0078698
Y0082698
Y0086698
Y0090698
Y0094698
X0066766
Y0090698
Y0086698
Y0082698
X0062766
Y0086698
Y0090698
Y0094698
X0070766Y0074698
X0074849Y0074376
X0077306Y0078437
X0074766Y0082698
Y0086698
Y0090698
X0078766
X0074766Y0094698
X0086766
X0091213Y0095389
X0093625Y0095424
X009647Y0095472
X0102766Y0094698
X0106766
Y0090698
X0110766
Y0086698
X0106766
X0105317Y0087504
X0102264Y0087519
X0102766Y0090698
X0098766
Y0086698
X0094666Y0085954
X0092278Y0083718
X0091008
X0089027Y0086411
X0086315Y00838
X0088875Y0080594
X0090766Y0078698
X0094766
Y0074698
X0102766
X0110766
Y0078698
X0106766Y0082698
X0102766
X0114766
X0118766
X0122766
Y0086698
Y0090698
X0118766
Y0086698
X0114766
Y0090698
X0118766Y0078698
X0122766
Y0074698
X0114766
T02
X006546Y0068365
X006673
X0068
X006927
X007054
Y0069635
X006927
X0068
X006673
X006546
Y0074525
X006673
X0068
X006927
Y0075795
X0068
X006673
X006546
T03
X0114046Y0064237
X0116586
Y0071857
X0114046
X0111506
X0108966
X0106426
X0103886
X0101346
X0098806
Y0064237
X0101346
X0103886
X0106426
X0108966
X0111506
T04
X0115388Y0049657
X0117928
X0120468
X0123008
X0120955Y0054661
X0118415
X0115875
X0113335
X0110795
X0108255
X010348
X010094
X00984
X009586
X009332
X009078
X008824
X00857
X0087478Y0049657
X0090018
X0092558
X0095098
X0097638
X0100178
X0102718
X0105258
X0110308
X0112848
X0112878Y0093091
X0110338
X0107798
X0105258
X0101224
X0098684
X0096144
X0093604
X0091064
X0088524
X0085984
X0083444
X0080904
X0078364
Y0097917
X0080904
X0083444
X0085984
X0088524
X0091064
X0093604
X0096144
X0098684
X0101224
X0105258
X0107798
X0110338
X0112878
X008443Y0087757
Y0085217
Y0082677
X008189
Y0085217
Y0087757
Y0080137
X008443
Y0077597
X008189
X0115418Y0093091
X0117958
X0120498
X0123038
Y0097917
X0120498
X0117958
X0115418
T05
X0063Y005471
Y005725
Y005979
X0098831Y0079477
X0101371
X0103911
X0106451
T06
X0125608Y0054737
X0073508Y0049657
X0074808Y0097917
X0125608Y0082677
M30
