G04*
G04 #@! TF.GenerationSoftware,Altium Limited,Altium Designer,19.1.6 (110)*
G04*
G04 Layer_Color=128*
%FSLAX43Y43*%
%MOMM*%
G71*
G01*
G75*
%ADD26R,1.016X1.270*%
%ADD27R,1.270X1.016*%
%ADD29R,0.350X1.750*%
D26*
X77016Y64500D02*
D03*
X74984D02*
D03*
X74924Y62230D02*
D03*
X76956D02*
D03*
X74915Y59995D02*
D03*
X76947D02*
D03*
D27*
X77047Y55591D02*
D03*
Y57623D02*
D03*
X74648Y55591D02*
D03*
Y57623D02*
D03*
D29*
X89038Y82302D02*
D03*
X88388D02*
D03*
Y87827D02*
D03*
X89038D02*
D03*
X89688D02*
D03*
X90338D02*
D03*
X90988D02*
D03*
X91638D02*
D03*
X89688Y82302D02*
D03*
X90338D02*
D03*
X90988D02*
D03*
X91638D02*
D03*
X92288D02*
D03*
X92938D02*
D03*
X93588D02*
D03*
X94238D02*
D03*
Y87827D02*
D03*
X93588D02*
D03*
X92938D02*
D03*
X92288D02*
D03*
X78725Y62763D02*
D03*
X79375D02*
D03*
X80025D02*
D03*
X80675D02*
D03*
X81325D02*
D03*
X81975D02*
D03*
X82625D02*
D03*
X83275D02*
D03*
X79375Y57237D02*
D03*
X80025D02*
D03*
X80675D02*
D03*
X81325D02*
D03*
X81975D02*
D03*
X82625D02*
D03*
X83275D02*
D03*
X78725D02*
D03*
M02*
