G04*
G04 #@! TF.GenerationSoftware,Altium Limited,Altium Designer,19.1.6 (110)*
G04*
G04 Layer_Color=32896*
%FSLAX43Y43*%
%MOMM*%
G71*
G01*
G75*
%ADD10C,0.250*%
%ADD13C,0.150*%
%ADD14C,0.200*%
%ADD16C,0.254*%
D10*
X95338Y82465D02*
G03*
X95338Y82465I-125J0D01*
G01*
X77875Y62600D02*
G03*
X77875Y62600I-125J0D01*
G01*
D13*
X74222Y63611D02*
X77778D01*
Y65389D01*
X74222D02*
X77778D01*
X74222Y63611D02*
Y65389D01*
X74162Y63119D02*
X77718D01*
X74162Y61341D02*
Y63119D01*
Y61341D02*
X77718D01*
Y63119D01*
X74153Y60884D02*
X77709D01*
X74153Y59106D02*
Y60884D01*
Y59106D02*
X77709D01*
Y60884D01*
X76158Y54829D02*
X77936D01*
X76158D02*
Y58385D01*
X77936D01*
Y54829D02*
Y58385D01*
X73759Y54829D02*
X75537D01*
X73759D02*
Y58385D01*
X75537D01*
Y54829D02*
Y58385D01*
D14*
X92943Y83597D02*
X94568Y85222D01*
X94563Y83602D02*
Y86527D01*
X88063D02*
X94563D01*
X88063Y83602D02*
Y86527D01*
Y83602D02*
X94563D01*
X78400Y61463D02*
X83600D01*
Y58537D02*
Y61463D01*
X78400Y58537D02*
X83600D01*
X78400D02*
Y61463D01*
X78395Y59843D02*
X80020Y61468D01*
D16*
X73500Y64000D02*
Y65000D01*
X73000D01*
X72834Y64833D01*
Y64500D01*
X73000Y64333D01*
X73500D01*
X73167D02*
X72834Y64000D01*
X72500Y64833D02*
X72334Y65000D01*
X72000D01*
X71834Y64833D01*
Y64666D01*
X72000Y64500D01*
X72167D01*
X72000D01*
X71834Y64333D01*
Y64167D01*
X72000Y64000D01*
X72334D01*
X72500Y64167D01*
X73533Y61773D02*
Y62772D01*
X73033D01*
X72867Y62606D01*
Y62273D01*
X73033Y62106D01*
X73533D01*
X73200D02*
X72867Y61773D01*
X71867D02*
X72533D01*
X71867Y62439D01*
Y62606D01*
X72033Y62772D01*
X72367D01*
X72533Y62606D01*
X73362Y59532D02*
Y60532D01*
X72862D01*
X72696Y60365D01*
Y60032D01*
X72862Y59866D01*
X73362D01*
X73029D02*
X72696Y59532D01*
X72362D02*
X72029D01*
X72196D01*
Y60532D01*
X72362Y60365D01*
X87313Y83565D02*
X86313D01*
Y84064D01*
X86480Y84231D01*
X87146D01*
X87313Y84064D01*
Y83565D01*
Y84564D02*
X86313D01*
Y85064D01*
X86480Y85231D01*
X87146D01*
X87313Y85064D01*
Y84564D01*
X87146Y85564D02*
X87313Y85731D01*
Y86064D01*
X87146Y86230D01*
X86979D01*
X86813Y86064D01*
Y85897D01*
Y86064D01*
X86646Y86230D01*
X86480D01*
X86313Y86064D01*
Y85731D01*
X86480Y85564D01*
X85500Y58000D02*
X84500D01*
Y58500D01*
X84667Y58666D01*
X85333D01*
X85500Y58500D01*
Y58000D01*
Y59000D02*
X84500D01*
Y59500D01*
X84667Y59666D01*
X85333D01*
X85500Y59500D01*
Y59000D01*
X84500Y60666D02*
Y59999D01*
X85166Y60666D01*
X85333D01*
X85500Y60499D01*
Y60166D01*
X85333Y59999D01*
X77531Y53506D02*
X77698Y53339D01*
Y53006D01*
X77531Y52840D01*
X76865D01*
X76698Y53006D01*
Y53339D01*
X76865Y53506D01*
X76698Y54339D02*
X77698D01*
X77198Y53839D01*
Y54506D01*
X74996Y53473D02*
X75163Y53307D01*
Y52974D01*
X74996Y52807D01*
X74330D01*
X74163Y52974D01*
Y53307D01*
X74330Y53473D01*
X74996Y53807D02*
X75163Y53973D01*
Y54306D01*
X74996Y54473D01*
X74830D01*
X74663Y54306D01*
Y54140D01*
Y54306D01*
X74496Y54473D01*
X74330D01*
X74163Y54306D01*
Y53973D01*
X74330Y53807D01*
M02*
