M48
;Layer_Color=9474304
;FILE_FORMAT=4:3
METRIC,LZ
;TYPE=PLATED
T1F00S00C0.300
T2F00S00C0.700
T3F00S00C1.000
T4F00S00C1.300
T5F00S00C1.500
T6F00S00C1.700
T7F00S00C2.000
T8F00S00C2.300
T9F00S00C3.200
T10F00S00C4.000
%
T01
X0112Y0028
X0116
Y0032
Y0036
X0112
Y0032
X0108Y0036
X0104
X012
Y0032
X0124
Y0028
X012
X0132
X0136
X014
X0144
X0148
X0152
X0156
Y0032
Y0036
X0152
Y0032
X0148
Y0036
X0144
Y0032
X014
Y0036
X0136
Y0032
X0132
Y0036
X016
X0164
X0168
X0172
X0176
X018
X0184
X0188
X0192
X0196
X0188Y0032
Y0028
X0184
Y0032
X018
Y0028
X0176
Y0032
X0172
Y0028
X0168
Y0032
X0164
Y0028
X016
Y0032
X02
Y0036
X0208
X0212
X0216
X022
X0224
X0228
X0232
X0236
Y0028
X0228
X0224
Y0032
X022
X0216
X0212
Y0028
X0208Y0032
X02Y0028
X024
X0244
X0248
X0252
X0256
X026
X0264
X0268
X0272
X0276
Y0032
Y0036
X0272
Y0032
X0268
Y0036
X0264
Y0032
X026
Y0036
X0256
Y0032
X0252
X0248
Y0036
X0244
Y0032
X024
Y0036
X028
X0284
X0288
X0292
X0296
X03
X0304
X0308
X0312
X0316
Y0032
Y0028
X0312
Y0032
X0308
Y0028
X0304
Y0032
X03
Y0028
X0296
Y0032
X0292
Y0028
X0288
Y0032
X0284
Y0028
X028
Y0032
X032
X0324
X0328
X0332
X0336
X034
Y0036
X0344
X0336
X0332
X0328
Y0028
X0332
X0336
X034
X0324
X032
Y0036
Y004
X0324
X0328
X0332
X0336
X034
X0344
Y0044
Y0048
Y0052
Y0056
Y006
Y0064
Y0068
Y0072
Y0076
X034
Y0072
Y0068
Y0064
Y006
Y0056
Y0052
Y0048
Y0044
X0336
Y0048
Y0052
Y0056
Y006
Y0064
Y0068
Y0072
Y0076
X0332
Y0072
Y0068
Y0064
Y006
Y0056
Y0052
Y0048
Y0044
X0328
Y0048
Y0052
Y0056
Y006
Y0064
Y0068
Y0072
Y0076
X0324
Y0072
Y0068
Y0064
Y006
Y0056
Y0052
Y0048
Y0044
X032
Y0048
Y0052
Y0056
Y006
Y0064
Y0068
Y0072
Y0076
X0316
Y0072
Y0068
Y0064
Y006
Y0056
Y0052
Y0048
Y0044
Y004
X0312
Y0044
Y0048
Y0052
Y0056
Y006
Y0064
Y0068
Y0072
Y0076
X0308
Y0072
Y0068
Y0064
Y006
Y0056
Y0052
Y0048
Y0044
Y004
X0304
Y0044
Y0048
Y0052
Y0056
Y006
Y0064
Y0068
Y0072
Y0076
X03
Y0072
Y0068
Y0064
Y006
Y0056
Y0052
Y0048
Y0044
Y004
X0296
Y0044
Y0048
Y0052
Y0056
Y006
Y0064
Y0068
Y0072
Y0076
X0292
Y0072
Y0068
Y0064
Y006
Y0056
Y0052
Y0048
Y0044
Y004
X0288
Y0044
Y0048
Y0052
Y0056
Y006
Y0064
Y0068
Y0072
Y0076
X0284
Y0072
Y0068
Y0064
Y006
Y0056
Y0052
Y0048
Y0044
Y004
X028
Y0044
Y0048
Y0052
Y0056
Y006
Y0064
Y0068
Y0072
Y0076
X0276
Y0072
Y0068
Y0064
Y006
Y0056
Y0052
Y0048
Y0044
Y004
X0272
Y0044
Y0048
Y0052
Y0056
Y006
Y0064
Y0068
Y0072
Y0076
X0268
Y0072
Y0068
Y0064
Y006
Y0056
Y0052
Y0048
Y0044
Y004
X0264
Y0044
Y0048
Y0052
Y0056
Y006
Y0064
Y0068
Y0072
Y0076
X026
Y0072
Y0068
Y0064
Y006
Y0056
Y0052
Y0048
Y0044
Y004
X0256
Y0044
Y0048
Y0052
Y0056
Y006
Y0064
Y0068
Y0072
Y0076
X0252
Y0072
Y0068
Y0064
Y006
Y0056
Y0052
Y0048
Y0044
Y004
X0248
Y0044
Y0048
Y0052
Y0056
Y006
Y0064
Y0068
Y0072
Y0076
X0244
Y0072
Y0068
Y0064
Y006
Y0056
Y0052
Y0048
Y0044
Y004
X024
Y0044
Y0048
Y0052
Y0056
Y006
Y0064
Y0068
Y0072
Y0076
X0236
Y0072
Y0068
Y0064
Y006
Y0056
Y0052
Y0048
Y0044
Y004
X0232
Y0044
Y0048
Y0052
Y0056
Y006
Y0064
Y0068
Y0072
Y0076
X0228
Y0072
Y0068
Y0064
Y006
Y0056
Y0052
Y0048
Y0044
Y004
X0224
Y0044
Y0048
Y0052
Y0056
Y006
Y0064
Y0068
Y0072
Y0076
X022Y0072
Y0068
Y0064
Y006
Y0056
Y0052
Y0048
Y0044
Y004
X0216
X0212
Y0044
X0208
Y004
X02
Y0044
Y0048
X0204
Y0052
X0208
X0212
X0216
Y0056
Y006
Y0064
Y0068
Y0072
X0212
Y0068
Y0064
Y006
Y0056
X0208
Y006
Y0064
Y0068
X0204
Y0072
Y0076
X02
Y0072
Y0068
Y0064
X0204
Y006
Y0056
X02
Y006
Y0052
X0216Y0048
X0196
Y0052
Y0056
Y006
Y0064
Y0068
Y0072
Y0076
X0192
Y0072
Y0068
Y0064
Y006
Y0056
Y0052
Y0048
Y0044
X0196
Y004
X0192
X0188
Y0044
Y0048
Y0052
Y0056
Y006
Y0064
Y0068
Y0072
Y0076
X0184
Y0072
Y0068
Y0064
Y006
Y0056
Y0052
Y0048
Y0044
Y004
X018
Y0044
Y0048
Y0052
Y0056
Y006
Y0064
Y0068
Y0072
Y0076
X0176
Y0072
Y0068
Y0064
Y006
Y0056
Y0052
Y0048
Y0044
Y004
X0172
Y0044
Y0048
Y0052
Y0056
Y006
Y0064
Y0068
Y0072
Y0076
X0168
Y0072
Y0068
Y0064
Y006
Y0056
Y0052
Y0048
Y0044
Y004
X0164
Y0044
Y0048
Y0052
Y0056
Y006
Y0064
Y0068
Y0072
Y0076
X016
Y0072
Y0068
Y0064
Y006
Y0056
Y0052
Y0048
Y0044
Y004
X0156
Y0044
Y0048
Y0052
Y0056
Y006
Y0064
Y0068
Y0072
Y0076
X0152
Y0072
Y0068
Y0064
Y006
Y0056
Y0052
Y0048
Y0044
Y004
X0148
Y0044
Y0048
Y0052
Y0056
Y006
Y0064
Y0068
Y0072
Y0076
X0144
Y0072
Y0068
Y0064
Y006
Y0056
Y0052
Y0048
Y0044
Y004
X014
Y0044
Y0048
Y0052
Y0056
Y006
Y0064
Y0068
Y0072
Y0076
X0132
Y0072
Y0068
X0128
Y0072
Y0076
X012
Y0072
Y0068
Y0064
Y006
Y0056
X0124
Y0052
X012
Y0048
Y0044
Y004
X0132
X0136
Y0044
Y0048
Y0052
Y0056
Y006
X0132
Y0056
Y0048
Y0044
X0128Y0048
Y006
X0116
Y0064
Y0068
Y0072
Y0076
X0112
Y0072
Y0068
Y0064
Y006
Y0056
X0116
Y0052
Y0048
Y0044
Y004
X0112
Y0044
Y0048
Y0052
X0108
Y0056
Y006
Y0064
Y0068
Y0072
Y0076
X0104
Y0072
Y0068
Y0064
Y006
Y0056
Y0052
Y0048
X0108
Y0044
Y004
X0104
Y0044
Y008
X0108
X0112
X0116
X0112Y0084
Y0088
Y0092
X0116
X01163Y00976
X0116Y01
X0112
Y0104
Y0108
Y0112
Y0116
X0108
Y0112
Y0108
Y0104
Y01
Y0096
X0112
X0108Y0092
Y0088
Y0084
X0104
Y0088
Y0092
Y0096
Y01
Y0104
Y0108
Y0112
Y0116
X0132
X0136
X014
Y0112
X0136
X0132
X0128
X0136Y0104
X01362Y00992
X01346Y00996
X01333Y0098
Y00963
X0132Y0088
X0136
Y0084
X014
X0144
Y0088
X0152
X0156
Y0084
Y008
X0152
Y0084
X0148Y008
X0144
X014
X0132Y0084
X01276Y00849
X0124Y0084
X012
X01258Y00881
X01247Y00978
X012Y01
X01417Y01028
X0148Y0104
X0152
X0156
Y0108
Y0112
Y0116
X0152
Y0112
Y0108
X0148
Y0112
Y0116
X01376Y01189
X0148Y01
X0152
X0156
Y0096
X0152
X0144
X016
X0164
X01639Y00926
X0168Y0092
X0172
X0176
X018
X0184
X0188
X0192
X0196
Y0096
Y01
Y0104
Y0108
Y0112
Y0116
X0192
Y0112
Y0108
Y0104
Y01
Y0096
X0188
Y01
Y0104
Y0108
Y0112
Y0116
X0184
Y0112
Y0108
Y0104
Y01
Y0096
X018
Y01
Y0104
Y0108
Y0112
Y0116
X0176
Y0112
Y0108
Y0104
Y01
Y0096
X0172
Y01
Y0104
Y0108
Y0112
Y0116
X0168
Y0112
Y0108
Y0104
Y01
Y0096
Y0088
X0172
X0176
X018
X0184
X0188
X0192
X0196
Y0084
Y008
X0192
Y0084
X0188
Y008
X0184
Y0084
X018
Y008
X0176
Y0084
X0172
Y008
X0168
Y0084
X0164
X01639Y00875
X016Y0084
Y008
X0164
Y01
Y0104
Y0108
Y0112
Y0116
X016Y0108
Y0104
Y01
X02
X0204
Y0096
Y0092
Y0088
Y0084
X0208
X0212
Y008
X0216
X022
X0224
X0228
X0232
X0236
Y0084
Y0088
Y0092
Y0096
Y01
Y0104
Y0108
Y0112
Y0116
X0232
X0230666Y011775
X0228684Y011303
X0228125Y010984
Y010874
X0226875
Y010984
X0225625
Y010874
X022325Y01087
Y01098
X0222
Y01087
X022075
Y01098
X022Y0112
X0220184Y011313
X0216Y0112
Y0116
X0214609Y01178
X0218809Y0117805
X0212559Y0113155
X0212068Y010989
Y010879
X0210818
Y010989
X0209568
Y010879
X0207225Y010875
Y010985
X0205975
Y010875
X0204725
Y010985
X0204068Y0113215
X0208Y0112
X02
Y0116
X0202693Y011789
X02Y0108
Y0104
X0202634Y0104875
X02126Y0104075
X0212Y01
X0216
X022
X021875Y010479
X0216Y0108
Y0096
X0212
Y0092
X022
X0224
X0228
X0232
Y0096
Y01
X0228
Y0096
X0224
Y0088
X0228
X0232
Y0084
X0228
X0224
X022
Y0088
X0216
X0208Y008
X0204
X02
Y0084
Y0088
Y0092
Y0096
X02287Y0104025
X0232Y0108
Y0112
X024
X0244
X0248
X0252
X0256
X026
X0264
X0268
X0272
X0276
Y0116
X0272
X0268
X0264
X026
X0256
Y0108
X026
X0264
X0268
X0272
X0276
Y0104
Y01
Y0096
Y0092
Y0088
Y0084
Y008
X0272
Y0084
Y0088
Y0092
Y0096
Y01
Y0104
X0268
Y01
Y0096
Y0092
Y0088
Y0084
Y008
X0264
Y0084
Y0088
Y0092
Y0096
Y01
Y0104
X026
Y01
Y0096
Y0092
Y0088
Y0084
Y008
X0256
Y0084
Y0088
Y0092
Y0096
Y01
Y0104
X0252
Y0108
X0248
Y0104
Y01
X0252
Y0096
Y0092
Y0088
Y0084
Y008
X0248
Y0084
Y0088
Y0092
Y0096
X0244
Y01
Y0104
Y0108
X024
Y0104
Y01
Y0096
Y0092
X0244
Y0088
Y0084
Y008
X024
Y0084
Y0088
Y0116
X0244
X0248
X028
X0284
X0288
X0292
X0296
X03
X0304
X0308
X0312
X0316
Y0112
Y0108
Y0104
Y01
Y0096
Y0092
Y0088
Y0084
Y008
X0312
Y0084
Y0088
Y0092
Y0096
Y01
Y0104
Y0108
Y0112
X0308
Y0108
Y0104
Y01
Y0096
Y0092
Y0088
Y0084
Y008
X0304
Y0084
Y0088
Y0092
Y0096
Y01
Y0104
Y0108
Y0112
X03
Y0108
Y0104
Y01
Y0096
Y0092
Y0088
Y0084
Y008
X0296
Y0084
Y0088
Y0092
Y0096
Y01
Y0104
Y0108
Y0112
X0292
Y0108
Y0104
Y01
Y0096
Y0092
Y0088
Y0084
Y008
X0288
Y0084
Y0088
Y0092
Y0096
Y01
Y0104
Y0108
Y0112
X0284
Y0108
Y0104
Y01
Y0096
Y0092
Y0088
Y0084
Y008
X028
Y0084
Y0088
Y0092
Y0096
Y01
Y0104
Y0108
Y0112
X032
X0324
X0328
X0332
X0336
X034
X0344
Y0116
X034
X0336
X0332
X0328
Y0108
X0332
X0336
X034
X0344
Y0104
Y01
Y0096
Y0092
Y0088
Y0084
Y008
X034
Y0084
Y0088
Y0092
Y0096
Y01
Y0104
X0336
Y01
Y0096
Y0092
Y0088
Y0084
Y008
X0332
Y0084
Y0088
Y0092
Y0096
Y01
Y0104
X0328
Y01
Y0096
Y0092
Y0088
Y0084
Y008
X0324
Y0084
Y0088
Y0092
Y0096
Y01
Y0104
Y0108
X032
Y0104
Y01
Y0096
Y0092
Y0088
Y0084
Y008
Y0116
Y012
X0324
X0328
X0332
X0336
X034
X0344
Y0124
Y0128
Y0132
Y0136
Y014
Y0144
Y0148
Y0152
Y0156
X034Y0148
Y0144
Y014
Y0136
Y0132
Y0128
Y0124
X0336
Y0128
Y0132
Y0136
X0332
Y0132
Y0128
Y0124
X0328
Y0128
X0324
Y0132
Y0136
Y014
X03226Y01453
X0324Y0148
X0328
X0332
X0336
X03361Y01453
X0336Y0144
X0328
Y0152
Y0156
X03284Y01327
X032Y0132
Y0136
Y0128
Y0124
X0324
X0316
Y0128
X0312
Y0124
Y012
X0316
X0308
Y0124
Y0128
X0304
Y0124
Y012
X03
Y0124
Y0128
X0296
Y0124
Y012
X0292
Y0124
Y0128
X0288
Y0124
Y012
X0284
Y0124
Y0128
X028
Y0124
Y012
Y0136
X0284
Y014
X02821Y01453
X0284Y0148
X0288
Y0152
Y0144
X02956Y01453
X0296Y0148
X03
Y0152
Y0156
X0308Y0152
Y0148
X03091Y01453
X0308Y0144
X03133Y01435
Y01453
X0312Y0148
Y014
Y0136
X0308
X0304
X03
X0296
X0292
X02879Y01327
X03014
X03Y0144
X03149Y01327
X02744
X0272Y0136
Y014
X02728Y01435
Y01453
X0272Y0148
X0268
X02686Y01453
X0268Y0144
Y0152
X0264
Y0156
X026
Y0152
Y0148
X0264
X026Y0144
X02551Y01453
X0256Y0148
Y0136
X0252
X02474Y01327
X0248Y0128
X0252
X0256
X026
X0264
X0268
X0272
X0276
Y0124
Y012
X0272
Y0124
X0268
Y012
X0264
Y0124
X026
Y012
X0256
Y0124
X0252
Y012
X0248
Y0124
X0244
Y0128
Y0136
Y014
X02457Y01435
Y01453
X02416Y01453
X0244Y0148
X024Y0152
Y0136
Y012
X0244
X02609Y01327
X0264Y0136
X0268
X0232
X0228
X0224
X02204Y01327
X0216Y0136
Y014
X02146Y01453
X0216Y0148
X022
X0224
X0228
X02281Y01453
X0228Y0144
X0232
Y0148
X022Y0152
Y0156
Y0144
X02052Y01435
Y01453
X0204Y0148
X02
X02011Y01453
X02Y0144
X0204Y014
Y0136
X02
X02069Y01327
X0212Y0136
X0216Y012
X022
X0232
X0236
Y0124
Y0128
X02339Y01327
X0204Y012
X02
Y0152
X0192
Y0156
Y0148
Y0144
X01876Y01453
X0188Y0148
X018
Y0152
Y0144
X01741Y01453
X0176Y0148
Y014
Y0136
X0172
Y0128
X0176
X018
X0184
X0188
X0192
X0196
Y0124
Y012
X0192
Y0124
X0188
Y012
X0184
Y0124
X018
Y012
X0176
Y0124
X0172
Y012
X0168
Y0124
Y0128
X0164
Y0124
Y012
X016
Y0124
Y0128
Y0136
X0164
Y014
X01648Y01435
Y01454
X0164Y0148
X016
X01606Y01453
X016Y0144
Y0152
X01664Y01327
X01799
X0184Y0136
X0188
X0192
X0196
X01934Y01327
X01529
X0152Y0128
X0156
Y0124
Y012
X0152
Y0124
X0148
Y0128
X0144
Y0124
Y012
X0148
X014Y0124
Y0128
X0136
X0132
X0128
Y0124
Y012
X0124Y0124
Y0128
X012
Y0124
Y012
Y0136
X0124
X01259Y01327
X0132Y0136
X0136
Y014
X01376Y01435
Y01453
X01336Y01453
X0136Y0148
X0148
X01471Y01453
X0152Y0144
Y0148
X0156
Y0152
Y0156
Y0136
X0148
X0144
X01394Y01327
X0124Y0144
Y0148
X012
X01201Y01453
X012Y0144
X0116Y0148
X0112
Y0152
Y0156
X0108
Y0152
Y0148
Y0144
X0112
X0108Y014
Y0136
X0104
Y014
Y0144
Y0148
Y0152
Y0156
Y0132
Y0128
X0108
X0112
X0116
Y0124
Y012
X0112
X0108
Y0124
X0104
Y012
X01124Y01327
X0116Y0136
Y016
X0108
Y0164
Y0168
X0112
Y0172
Y0176
Y018
Y0184
Y0188
Y0192
Y0196
X0116
X0108Y0188
Y0184
Y018
Y0176
Y0172
X0104
Y0176
Y018
Y0184
Y0168
Y0164
Y016
X012
X0124
X0128
X0132
Y0168
X0136
X014
Y0172
Y0176
Y018
X0136
Y0176
Y0172
X0132
Y0176
Y018
Y0184
Y0188
Y0192
X0136
Y0196
X014
X0144
X0148
X0152
X0156
Y0192
X0152
Y0188
Y0184
X0156
Y018
Y0176
Y0172
Y0168
X0152
Y0172
Y0176
Y018
X0148Y0192
X0144
Y0188
X014
X0132Y0196
X0128
Y0192
X0124
Y0196
X012
Y0192
Y0188
X0124
X0128Y0184
X012
Y018
X0124Y0172
X0128
Y0168
X0124
Y0164
X012
X0144Y016
X0156
X016
X0164
Y0164
Y0168
X0168
X0172
X0176
X018
Y0172
Y0176
X0176Y018
Y0184
X0172
Y0188
Y0192
X0176
Y0196
X018
X0184
X0188
X0192
X0196
Y0192
Y0188
Y0184
Y018
Y0176
Y0172
Y0168
X0192
Y0172
Y0176
Y0184
Y0188
Y0192
X0188
Y0188
X0184
Y0192
Y0184
X0188Y018
Y0164
Y016
X0184
X0196
X0172
Y0172
X0176
X0172Y0176
X0168Y0172
X0164
Y0176
X016
Y018
Y0188
X0164
Y0192
X0168
Y0196
X0172
X0164
X016
X018Y0188
X016Y0164
X02
Y0168
X0204
X0208
Y0172
X0204
X02
Y0176
Y018
X0204
Y0184
Y0188
X0208
Y0192
X0212
X0216
X022
Y0196
X0224
X0228
X0232
X0236
Y0192
Y0188
Y0184
Y018
Y0176
Y0172
Y0168
X0232
Y0172
Y0164
Y016
X0236
X0228
Y0164
X0224Y016
X022Y0168
Y0172
Y0176
Y018
X0216
Y0184
Y0188
X0224
X0228
Y0192
X0232
X0228Y018
Y0176
X0216
X0212Y0184
Y0196
X0216
X0208
X0204
Y0192
X02Y0196
Y016
X0212
X024
Y0168
X0244
X0248
Y0172
Y0176
Y018
Y0184
Y0188
Y0192
X0252
X0256
X026
Y0196
X0264
X0268
X0272
X0276
Y0192
X0272
Y0188
X0268
Y0192
Y0184
X0276
Y0176
Y0172
Y0168
X0272
Y0172
Y0164
Y016
X0268
Y0164
X0264Y0168
Y0172
Y0176
X0268
X026Y018
Y0184
Y0188
X0264
X0256
Y0184
Y0176
X026Y0172
Y0168
X0264Y016
X0252
X0244Y0172
Y0176
Y018
Y0188
Y0196
X0248
X0252
X0256
X024
Y0192
Y0184
Y0176
Y0172
X028
Y0176
X0284
Y018
X0288
Y0184
Y0188
X0292
Y0192
X0296
X03
X0304
Y0196
X0308
X0312
X0316
Y0192
X0312
Y0188
X0308
Y018
Y0172
Y0168
X0312
X0316
Y0172
Y0184
X0304
X03
Y0188
Y0196
X0296
X0292
X0288
Y0192
X0284Y0196
X028
Y0192
Y0188
Y0184
X0296
X03Y018
X0304Y0176
Y0172
Y0168
X03
Y0172
X0296Y0164
Y016
X0292
X0304
X0308
Y0164
X0288Y0168
Y0172
X0284Y0168
X028
Y016
X032
X0332
X0336
X034
X0344
Y0164
Y0168
Y0172
Y0176
Y018
Y0184
X034
Y0188
Y0192
Y0196
X0336
Y0192
X0332
Y0196
X0328
X0324
Y0192
X032
Y0196
Y0188
Y0184
X0324
Y018
X0328
X0332Y0184
Y0188
X0328
X0332Y0176
X034
Y0172
Y0168
Y0164
X0336
Y0172
X0328
Y0168
X0324Y0176
X032
Y018
T02
X03195Y01545
Y01565
X0333
Y01545
X0306
Y01565
X02925
Y01545
X0279
Y01565
X02655
Y01545
X0252
Y01565
X02385
Y01545
X0225
Y01565
X02115
Y01545
X0198
Y01565
X01845
Y01545
X0171
Y01565
X01575
Y01545
X0144
Y01565
X01305
Y01545
X0117Y01545
Y01565
Y0162
Y0164
X01305Y0164
Y0162
X0144
Y0164
X01575
Y0162
X0171
Y0164
X01845
Y0162
X0198
Y0164
X02115
Y0162
X0225
Y0164
X02385
Y0162
X0252
Y0164
X02655
Y0162
X0279
Y0164
X02925
Y0162
X0306
Y0164
X03195
Y0162
X0333
Y0164
T03
X02095Y0049
X02145
X02185Y007488
Y007742
X0207Y00775
Y007496
X01354Y00738
Y00713
Y00688
Y00638
X01234
Y00688
Y00713
Y00738
Y00788
X01354
X01294Y0057
Y00515
X013194
X012686
X0116Y00847
X01189Y008926
Y00918
Y009434
X01224
Y00918
Y008926
X01288Y01001
X012948Y01071
X013202
X013456
X01371
X013964
X01255Y0107
Y01095
Y0112
X0132Y011896
X01415Y0094
Y00915
Y0089
X01585Y008896
Y00915
Y009404
X01589Y01142
X0214759Y0109265
Y0106725
Y0104185
X0230816Y0104135
Y0106675
Y0109215
X02185Y008758
Y00825
X0207Y008258
Y008766
X03245Y015146
Y0154
Y015654
X0338
Y0154
Y015146
X0311
Y0154
Y015654
X02975
Y0154
Y015146
X0284
Y0154
Y015654
X02705
Y0154
Y015146
X0257
Y0154
Y015654
X02435
Y0154
Y015146
X023
Y0154
Y015654
X02165
Y0154
Y015146
X0203
Y0154
Y015654
X02055Y012704
Y01245
X02105
Y012704
X02135
Y01245
X0221Y012446
Y0127
X0224
Y012446
X023
Y0127
X0233
Y012446
X01895Y015146
Y0154
Y015654
X0176
Y0154
Y015146
X01625
Y0154
Y015654
X0149
Y0154
Y015146
X01355
Y0154
Y015654
X0122Y015654
Y0154
Y015146
X01233Y01215
X0132
Y012404
X01125Y015892
Y016146
Y0164
X0126Y0164
Y016146
Y015892
X01395
Y016146
Y0164
X0153
Y016146
Y015892
X01665
Y016146
Y0164
X018
Y016146
Y015892
X01935
Y016146
Y0164
X0207
Y016146
Y015892
X02205
Y016146
Y0164
X0234
Y016146
Y015892
X02475
Y016146
Y0164
X0261
Y016146
Y015892
X02745
Y016146
Y0164
X0288
Y016146
Y015892
X03015
Y016146
Y0164
X0315
Y016146
Y015892
X03285
Y016146
Y0164
T04
X020319Y0029
X0207
X021719
X0221
T05
X0117Y01845
X01245
X01255Y01765
X013805Y01845
X014555
X014655Y01765
X01591Y01845
X01666
X01676Y01765
X018015Y01845
X018765
X018865Y01765
X02012Y01845
X02087
X02097Y01765
X022225Y01845
X022975
X023075Y01765
X02433Y01845
X02508
X02518Y01765
X026435Y01845
X027185
X027285Y01765
X02854Y01845
X02929
X02939Y01765
X030645Y01845
X031395
X031495Y01765
X03275Y01845
X0335
X0336Y01765
T06
X0129Y0029
X0127Y00315
Y00371
X0129Y00352
Y00408
T07
X0117Y0192
X013805
X014855Y01805
X01275
X01696
X019065
X018015Y0192
X01591
X02012
X022225
X023275Y01805
X02117
X02538
X027485
X026435Y0192
X02433
X02854
X030645
X031695Y01805
X02959
X0338
X03275Y0192
T08
X01185Y01045
Y01145
X01485Y00965
Y00865
T09
X02525Y00365
X03225
X02525Y01175
X03225
T10
X0105Y0031
X0193
X0232
X0345
X0105Y01925
X0345
M30
