G04*
G04 #@! TF.GenerationSoftware,Altium Limited,Altium Designer,19.1.6 (110)*
G04*
G04 Layer_Color=8388736*
%FSLAX43Y43*%
%MOMM*%
G71*
G01*
G75*
G04:AMPARAMS|DCode=21|XSize=1.983mm|YSize=0.923mm|CornerRadius=0.282mm|HoleSize=0mm|Usage=FLASHONLY|Rotation=0.000|XOffset=0mm|YOffset=0mm|HoleType=Round|Shape=RoundedRectangle|*
%AMROUNDEDRECTD21*
21,1,1.983,0.360,0,0,0.0*
21,1,1.420,0.923,0,0,0.0*
1,1,0.563,0.710,-0.180*
1,1,0.563,-0.710,-0.180*
1,1,0.563,-0.710,0.180*
1,1,0.563,0.710,0.180*
%
%ADD21ROUNDEDRECTD21*%
%ADD22R,1.103X1.003*%
%ADD23R,1.003X1.103*%
%ADD24R,1.603X1.903*%
%ADD25R,2.103X1.853*%
G04:AMPARAMS|DCode=26|XSize=0.653mm|YSize=1.603mm|CornerRadius=0.147mm|HoleSize=0mm|Usage=FLASHONLY|Rotation=0.000|XOffset=0mm|YOffset=0mm|HoleType=Round|Shape=RoundedRectangle|*
%AMROUNDEDRECTD26*
21,1,0.653,1.310,0,0,0.0*
21,1,0.360,1.603,0,0,0.0*
1,1,0.293,0.180,-0.655*
1,1,0.293,-0.180,-0.655*
1,1,0.293,-0.180,0.655*
1,1,0.293,0.180,0.655*
%
%ADD26ROUNDEDRECTD26*%
%ADD27C,2.203*%
%ADD28R,2.203X2.203*%
G04:AMPARAMS|DCode=29|XSize=1.803mm|YSize=2.003mm|CornerRadius=0.182mm|HoleSize=0mm|Usage=FLASHONLY|Rotation=0.000|XOffset=0mm|YOffset=0mm|HoleType=Round|Shape=RoundedRectangle|*
%AMROUNDEDRECTD29*
21,1,1.803,1.640,0,0,0.0*
21,1,1.440,2.003,0,0,0.0*
1,1,0.363,0.720,-0.820*
1,1,0.363,-0.720,-0.820*
1,1,0.363,-0.720,0.820*
1,1,0.363,0.720,0.820*
%
%ADD29ROUNDEDRECTD29*%
%ADD30O,1.803X2.003*%
%ADD31C,4.203*%
%ADD32C,1.903*%
%ADD33O,2.003X1.803*%
G04:AMPARAMS|DCode=34|XSize=1.803mm|YSize=2.003mm|CornerRadius=0.182mm|HoleSize=0mm|Usage=FLASHONLY|Rotation=90.000|XOffset=0mm|YOffset=0mm|HoleType=Round|Shape=RoundedRectangle|*
%AMROUNDEDRECTD34*
21,1,1.803,1.640,0,0,90.0*
21,1,1.440,2.003,0,0,90.0*
1,1,0.363,0.820,0.720*
1,1,0.363,0.820,-0.720*
1,1,0.363,-0.820,-0.720*
1,1,0.363,-0.820,0.720*
%
%ADD34ROUNDEDRECTD34*%
%ADD35C,8.203*%
%ADD36C,2.703*%
%ADD37C,3.203*%
%ADD38R,1.203X1.203*%
%ADD39C,1.603*%
%ADD40C,1.803*%
%ADD41C,2.503*%
%ADD42C,2.003*%
%ADD43R,1.903X1.903*%
D21*
X134650Y90395D02*
D03*
Y91665D02*
D03*
Y92935D02*
D03*
Y94205D02*
D03*
X129150Y90395D02*
D03*
Y91665D02*
D03*
Y92935D02*
D03*
Y94205D02*
D03*
X330250Y141905D02*
D03*
Y140635D02*
D03*
Y139365D02*
D03*
Y138095D02*
D03*
X335750Y141905D02*
D03*
Y140635D02*
D03*
Y139365D02*
D03*
Y138095D02*
D03*
X316750Y141905D02*
D03*
Y140635D02*
D03*
Y139365D02*
D03*
Y138095D02*
D03*
X322250Y141905D02*
D03*
Y140635D02*
D03*
Y139365D02*
D03*
Y138095D02*
D03*
X303250Y141905D02*
D03*
Y140635D02*
D03*
Y139365D02*
D03*
Y138095D02*
D03*
X308750Y141905D02*
D03*
Y140635D02*
D03*
Y139365D02*
D03*
Y138095D02*
D03*
X289750Y141905D02*
D03*
Y140635D02*
D03*
Y139365D02*
D03*
Y138095D02*
D03*
X295250Y141905D02*
D03*
Y140635D02*
D03*
Y139365D02*
D03*
Y138095D02*
D03*
X276250Y141905D02*
D03*
Y140635D02*
D03*
Y139365D02*
D03*
Y138095D02*
D03*
X281750Y141905D02*
D03*
Y140635D02*
D03*
Y139365D02*
D03*
Y138095D02*
D03*
X262750Y141905D02*
D03*
Y140635D02*
D03*
Y139365D02*
D03*
Y138095D02*
D03*
X268250Y141905D02*
D03*
Y140635D02*
D03*
Y139365D02*
D03*
Y138095D02*
D03*
X249250Y141905D02*
D03*
Y140635D02*
D03*
Y139365D02*
D03*
Y138095D02*
D03*
X254750Y141905D02*
D03*
Y140635D02*
D03*
Y139365D02*
D03*
Y138095D02*
D03*
X235750Y141905D02*
D03*
Y140635D02*
D03*
Y139365D02*
D03*
Y138095D02*
D03*
X241250Y141905D02*
D03*
Y140635D02*
D03*
Y139365D02*
D03*
Y138095D02*
D03*
X222250Y141905D02*
D03*
Y140635D02*
D03*
Y139365D02*
D03*
Y138095D02*
D03*
X227750Y141905D02*
D03*
Y140635D02*
D03*
Y139365D02*
D03*
Y138095D02*
D03*
X208750Y141905D02*
D03*
Y140635D02*
D03*
Y139365D02*
D03*
Y138095D02*
D03*
X214250Y141905D02*
D03*
Y140635D02*
D03*
Y139365D02*
D03*
Y138095D02*
D03*
X195250Y141905D02*
D03*
Y140635D02*
D03*
Y139365D02*
D03*
Y138095D02*
D03*
X200750Y141905D02*
D03*
Y140635D02*
D03*
Y139365D02*
D03*
Y138095D02*
D03*
X181750Y141905D02*
D03*
Y140635D02*
D03*
Y139365D02*
D03*
Y138095D02*
D03*
X187250Y141905D02*
D03*
Y140635D02*
D03*
Y139365D02*
D03*
Y138095D02*
D03*
X168250Y141905D02*
D03*
Y140635D02*
D03*
Y139365D02*
D03*
Y138095D02*
D03*
X173750Y141905D02*
D03*
Y140635D02*
D03*
Y139365D02*
D03*
Y138095D02*
D03*
X154750Y141905D02*
D03*
Y140635D02*
D03*
Y139365D02*
D03*
Y138095D02*
D03*
X160250Y141905D02*
D03*
Y140635D02*
D03*
Y139365D02*
D03*
Y138095D02*
D03*
X141250Y141905D02*
D03*
Y140635D02*
D03*
Y139365D02*
D03*
Y138095D02*
D03*
X146750Y141905D02*
D03*
Y140635D02*
D03*
Y139365D02*
D03*
Y138095D02*
D03*
X127750Y141905D02*
D03*
Y140635D02*
D03*
Y139365D02*
D03*
Y138095D02*
D03*
X133250Y141905D02*
D03*
Y140635D02*
D03*
Y139365D02*
D03*
Y138095D02*
D03*
X114250Y141905D02*
D03*
Y140635D02*
D03*
Y139365D02*
D03*
Y138095D02*
D03*
X119750Y141905D02*
D03*
Y140635D02*
D03*
Y139365D02*
D03*
Y138095D02*
D03*
D22*
X137150Y101100D02*
D03*
X138650D02*
D03*
X138850Y102900D02*
D03*
X140350D02*
D03*
X134950Y118900D02*
D03*
X136450D02*
D03*
X134650Y98050D02*
D03*
X136150D02*
D03*
X127650Y88300D02*
D03*
X129150D02*
D03*
X134650Y96300D02*
D03*
X136150D02*
D03*
X127650Y86550D02*
D03*
X129150D02*
D03*
X331250Y169500D02*
D03*
X332750D02*
D03*
X338000D02*
D03*
X336500D02*
D03*
X317750D02*
D03*
X319250D02*
D03*
X324500D02*
D03*
X323000D02*
D03*
X304250D02*
D03*
X305750D02*
D03*
X311000D02*
D03*
X309500D02*
D03*
X290750D02*
D03*
X292250D02*
D03*
X297500D02*
D03*
X296000D02*
D03*
X277250D02*
D03*
X278750D02*
D03*
X284000D02*
D03*
X282500D02*
D03*
X263750D02*
D03*
X265250D02*
D03*
X270500D02*
D03*
X269000D02*
D03*
X250250D02*
D03*
X251750D02*
D03*
X257000D02*
D03*
X255500D02*
D03*
X236750D02*
D03*
X238250D02*
D03*
X243500D02*
D03*
X242000D02*
D03*
X223250D02*
D03*
X224750D02*
D03*
X230000D02*
D03*
X228500D02*
D03*
X209750D02*
D03*
X211250D02*
D03*
X216500D02*
D03*
X215000D02*
D03*
X196250D02*
D03*
X197750D02*
D03*
X203000D02*
D03*
X201500D02*
D03*
X182750D02*
D03*
X184250D02*
D03*
X189500D02*
D03*
X188000D02*
D03*
X169250D02*
D03*
X170750D02*
D03*
X176000D02*
D03*
X174500D02*
D03*
X155750D02*
D03*
X157250D02*
D03*
X162500D02*
D03*
X161000D02*
D03*
X142250D02*
D03*
X143750D02*
D03*
X149000D02*
D03*
X147500D02*
D03*
X128750D02*
D03*
X130250D02*
D03*
X135500D02*
D03*
X134000D02*
D03*
X122000Y169500D02*
D03*
X120500D02*
D03*
X115250D02*
D03*
X116750D02*
D03*
X205725Y115800D02*
D03*
X207225D02*
D03*
X203725Y104800D02*
D03*
X205225D02*
D03*
X205725Y113800D02*
D03*
X207225D02*
D03*
X202725Y115800D02*
D03*
X204225D02*
D03*
X219750Y104750D02*
D03*
X221250D02*
D03*
X221750Y115750D02*
D03*
X223250D02*
D03*
X218750D02*
D03*
X220250D02*
D03*
X221750Y113750D02*
D03*
X223250D02*
D03*
X337350Y143500D02*
D03*
X338850D02*
D03*
X337350Y145300D02*
D03*
X338850D02*
D03*
X329950Y134000D02*
D03*
X328450D02*
D03*
X329950Y136200D02*
D03*
X328450D02*
D03*
X323850Y143500D02*
D03*
X325350D02*
D03*
X323850Y145300D02*
D03*
X325350D02*
D03*
X316450Y134000D02*
D03*
X314950D02*
D03*
X316450Y136200D02*
D03*
X314950D02*
D03*
X310350Y143500D02*
D03*
X311850D02*
D03*
X310350Y145300D02*
D03*
X311850D02*
D03*
X302950Y134000D02*
D03*
X301450D02*
D03*
X302950Y136200D02*
D03*
X301450D02*
D03*
X296850Y143500D02*
D03*
X298350D02*
D03*
X296850Y145300D02*
D03*
X298350D02*
D03*
X289450Y134000D02*
D03*
X287950D02*
D03*
X289450Y136200D02*
D03*
X287950D02*
D03*
X283350Y143500D02*
D03*
X284850D02*
D03*
X283350Y145300D02*
D03*
X284850D02*
D03*
X275950Y134000D02*
D03*
X274450D02*
D03*
X275950Y136200D02*
D03*
X274450D02*
D03*
X269850Y143500D02*
D03*
X271350D02*
D03*
X269850Y145300D02*
D03*
X271350D02*
D03*
X262450Y134000D02*
D03*
X260950D02*
D03*
X262450Y136200D02*
D03*
X260950D02*
D03*
X256350Y143500D02*
D03*
X257850D02*
D03*
X256350Y145300D02*
D03*
X257850D02*
D03*
X248950Y134000D02*
D03*
X247450D02*
D03*
X248950Y136200D02*
D03*
X247450D02*
D03*
X242850Y143500D02*
D03*
X244350D02*
D03*
X242850Y145300D02*
D03*
X244350D02*
D03*
X235450Y134000D02*
D03*
X233950D02*
D03*
X235450Y136200D02*
D03*
X233950D02*
D03*
X229350Y143500D02*
D03*
X230850D02*
D03*
X229350Y145300D02*
D03*
X230850D02*
D03*
X221950Y134000D02*
D03*
X220450D02*
D03*
X221950Y136200D02*
D03*
X220450D02*
D03*
X215850Y143500D02*
D03*
X217350D02*
D03*
X215850Y145300D02*
D03*
X217350D02*
D03*
X208450Y134000D02*
D03*
X206950D02*
D03*
X208450Y136200D02*
D03*
X206950D02*
D03*
X202350Y143500D02*
D03*
X203850D02*
D03*
X202350Y145300D02*
D03*
X203850D02*
D03*
X194950Y134000D02*
D03*
X193450D02*
D03*
X194950Y136200D02*
D03*
X193450D02*
D03*
X188850Y143500D02*
D03*
X190350D02*
D03*
X188850Y145300D02*
D03*
X190350D02*
D03*
X181450Y134000D02*
D03*
X179950D02*
D03*
X181450Y136200D02*
D03*
X179950D02*
D03*
X175350Y143500D02*
D03*
X176850D02*
D03*
X175350Y145300D02*
D03*
X176850D02*
D03*
X167950Y134000D02*
D03*
X166450D02*
D03*
X167950Y136200D02*
D03*
X166450D02*
D03*
X161850Y143500D02*
D03*
X163350D02*
D03*
X161850Y145300D02*
D03*
X163350D02*
D03*
X154450Y134000D02*
D03*
X152950D02*
D03*
X154450Y136200D02*
D03*
X152950D02*
D03*
X148350Y143500D02*
D03*
X149850D02*
D03*
X148350Y145300D02*
D03*
X149850D02*
D03*
X140950Y134000D02*
D03*
X139450D02*
D03*
X140950Y136200D02*
D03*
X139450D02*
D03*
X134850Y143500D02*
D03*
X136350D02*
D03*
X134850Y145300D02*
D03*
X136350D02*
D03*
X127450Y134000D02*
D03*
X125950D02*
D03*
X127450Y136200D02*
D03*
X125950D02*
D03*
X113950Y136200D02*
D03*
X112450D02*
D03*
X113950Y134000D02*
D03*
X112450D02*
D03*
X121350Y145300D02*
D03*
X122850D02*
D03*
X121350Y143500D02*
D03*
X122850D02*
D03*
D23*
X116400Y96050D02*
D03*
Y94550D02*
D03*
X125900Y91050D02*
D03*
Y89550D02*
D03*
X124900Y94800D02*
D03*
Y96300D02*
D03*
X162400Y92550D02*
D03*
Y91050D02*
D03*
Y89050D02*
D03*
Y87550D02*
D03*
X137400Y91550D02*
D03*
Y93050D02*
D03*
X330000Y144750D02*
D03*
Y146250D02*
D03*
X333500Y144750D02*
D03*
Y146250D02*
D03*
X316500Y144750D02*
D03*
Y146250D02*
D03*
X320000Y144750D02*
D03*
Y146250D02*
D03*
X303000Y144750D02*
D03*
Y146250D02*
D03*
X306500Y144750D02*
D03*
Y146250D02*
D03*
X289500Y144750D02*
D03*
Y146250D02*
D03*
X293000Y144750D02*
D03*
Y146250D02*
D03*
X276000Y144750D02*
D03*
Y146250D02*
D03*
X279500Y144750D02*
D03*
Y146250D02*
D03*
X262500Y144750D02*
D03*
Y146250D02*
D03*
X266000Y144750D02*
D03*
Y146250D02*
D03*
X249000Y144750D02*
D03*
Y146250D02*
D03*
X252500Y144750D02*
D03*
Y146250D02*
D03*
X235500Y144750D02*
D03*
Y146250D02*
D03*
X239000Y144750D02*
D03*
Y146250D02*
D03*
X222000Y144750D02*
D03*
Y146250D02*
D03*
X225500Y144750D02*
D03*
Y146250D02*
D03*
X208500Y144750D02*
D03*
Y146250D02*
D03*
X212000Y144750D02*
D03*
Y146250D02*
D03*
X195000Y144750D02*
D03*
Y146250D02*
D03*
X198500Y144750D02*
D03*
Y146250D02*
D03*
X181500Y144750D02*
D03*
Y146250D02*
D03*
X185000Y144750D02*
D03*
Y146250D02*
D03*
X168000Y144750D02*
D03*
Y146250D02*
D03*
X171500Y144750D02*
D03*
Y146250D02*
D03*
X154500Y144750D02*
D03*
Y146250D02*
D03*
X158000Y144750D02*
D03*
Y146250D02*
D03*
X141000Y144750D02*
D03*
Y146250D02*
D03*
X144500Y144750D02*
D03*
Y146250D02*
D03*
X127500Y144750D02*
D03*
Y146250D02*
D03*
X131000Y144750D02*
D03*
Y146250D02*
D03*
X117500Y144750D02*
D03*
Y146250D02*
D03*
X114000Y144750D02*
D03*
Y146250D02*
D03*
D24*
X207359Y103300D02*
D03*
X210591D02*
D03*
X207091Y117800D02*
D03*
X203859D02*
D03*
X223384Y103250D02*
D03*
X226616D02*
D03*
X223116Y117750D02*
D03*
X219884D02*
D03*
D25*
X205975Y109300D02*
D03*
X222000Y109250D02*
D03*
D26*
X206950Y107025D02*
D03*
X206300D02*
D03*
X205650D02*
D03*
X205000D02*
D03*
Y111575D02*
D03*
X205650D02*
D03*
X206300D02*
D03*
X206950D02*
D03*
X222975Y106975D02*
D03*
X222325D02*
D03*
X221675D02*
D03*
X221025D02*
D03*
Y111525D02*
D03*
X221675D02*
D03*
X222325D02*
D03*
X222975D02*
D03*
D27*
X221000Y29000D02*
D03*
X207000D02*
D03*
D28*
X217190D02*
D03*
X203190D02*
D03*
D29*
X129400Y57000D02*
D03*
X131940Y51500D02*
D03*
X128800Y100100D02*
D03*
X116000Y84700D02*
D03*
X158900Y114200D02*
D03*
X123300Y121500D02*
D03*
X129480Y107100D02*
D03*
D30*
X129400Y51500D02*
D03*
X126860D02*
D03*
X132020Y107100D02*
D03*
X134560D02*
D03*
X139640D02*
D03*
X137100D02*
D03*
D31*
X148500Y86500D02*
D03*
Y96500D02*
D03*
X118500Y104500D02*
D03*
Y114500D02*
D03*
D32*
X141500Y89000D02*
D03*
Y94000D02*
D03*
Y91500D02*
D03*
X125500Y109500D02*
D03*
Y107000D02*
D03*
Y112000D02*
D03*
X207000Y77500D02*
D03*
Y87660D02*
D03*
Y82580D02*
D03*
X218500Y77420D02*
D03*
Y87580D02*
D03*
Y82500D02*
D03*
D33*
X158500Y94040D02*
D03*
Y91500D02*
D03*
X132000Y118960D02*
D03*
Y121500D02*
D03*
X233000Y127000D02*
D03*
X230000D02*
D03*
X224000D02*
D03*
X221000D02*
D03*
X213500Y127040D02*
D03*
X205500D02*
D03*
X210500D02*
D03*
X230816Y106675D02*
D03*
Y109215D02*
D03*
X328500Y161460D02*
D03*
Y164000D02*
D03*
X338000Y154000D02*
D03*
Y156540D02*
D03*
X315000Y161460D02*
D03*
Y164000D02*
D03*
X324500Y154000D02*
D03*
Y156540D02*
D03*
X301500Y161460D02*
D03*
Y164000D02*
D03*
X311000Y154000D02*
D03*
Y156540D02*
D03*
X288000Y161460D02*
D03*
Y164000D02*
D03*
X297500Y154000D02*
D03*
Y156540D02*
D03*
X274500Y161460D02*
D03*
Y164000D02*
D03*
X284000Y154000D02*
D03*
Y156540D02*
D03*
X261000Y161460D02*
D03*
Y164000D02*
D03*
X270500Y154000D02*
D03*
Y156540D02*
D03*
X247500Y161460D02*
D03*
Y164000D02*
D03*
X257000Y154000D02*
D03*
Y156540D02*
D03*
X234000Y161460D02*
D03*
Y164000D02*
D03*
X243500Y154000D02*
D03*
Y156540D02*
D03*
X220500Y161460D02*
D03*
Y164000D02*
D03*
X230000Y154000D02*
D03*
Y156540D02*
D03*
X207000Y161460D02*
D03*
Y164000D02*
D03*
X216500Y154000D02*
D03*
Y156540D02*
D03*
X193500Y161460D02*
D03*
Y164000D02*
D03*
X203000Y154000D02*
D03*
Y156540D02*
D03*
X180000Y161460D02*
D03*
Y164000D02*
D03*
X189500Y154000D02*
D03*
Y156540D02*
D03*
X166500Y161460D02*
D03*
Y164000D02*
D03*
X176000Y154000D02*
D03*
Y156540D02*
D03*
X153000Y161460D02*
D03*
Y164000D02*
D03*
X162500Y154000D02*
D03*
Y156540D02*
D03*
X139500Y161460D02*
D03*
Y164000D02*
D03*
X149000Y154000D02*
D03*
Y156540D02*
D03*
X126000Y161460D02*
D03*
Y164000D02*
D03*
X135500Y154000D02*
D03*
Y156540D02*
D03*
X122000Y154000D02*
D03*
Y156540D02*
D03*
X112500Y161460D02*
D03*
Y164000D02*
D03*
X214759Y109265D02*
D03*
Y106725D02*
D03*
X118900Y89260D02*
D03*
Y91800D02*
D03*
X122400Y89260D02*
D03*
Y91800D02*
D03*
D34*
X158500Y88960D02*
D03*
X132000Y124040D02*
D03*
X233000Y124460D02*
D03*
X230000D02*
D03*
X224000D02*
D03*
X221000D02*
D03*
X213500Y124500D02*
D03*
X205500D02*
D03*
X210500D02*
D03*
X230816Y104135D02*
D03*
X328500Y158920D02*
D03*
X338000Y151460D02*
D03*
X315000Y158920D02*
D03*
X324500Y151460D02*
D03*
X301500Y158920D02*
D03*
X311000Y151460D02*
D03*
X288000Y158920D02*
D03*
X297500Y151460D02*
D03*
X274500Y158920D02*
D03*
X284000Y151460D02*
D03*
X261000Y158920D02*
D03*
X270500Y151460D02*
D03*
X247500Y158920D02*
D03*
X257000Y151460D02*
D03*
X234000Y158920D02*
D03*
X243500Y151460D02*
D03*
X220500Y158920D02*
D03*
X230000Y151460D02*
D03*
X207000Y158920D02*
D03*
X216500Y151460D02*
D03*
X193500Y158920D02*
D03*
X203000Y151460D02*
D03*
X180000Y158920D02*
D03*
X189500Y151460D02*
D03*
X166500Y158920D02*
D03*
X176000Y151460D02*
D03*
X153000Y158920D02*
D03*
X162500Y151460D02*
D03*
X139500Y158920D02*
D03*
X149000Y151460D02*
D03*
X126000Y158920D02*
D03*
X135500Y151460D02*
D03*
X122000Y151460D02*
D03*
X112500Y158920D02*
D03*
X214759Y104185D02*
D03*
X118900Y94340D02*
D03*
X122400D02*
D03*
D35*
X105000Y192500D02*
D03*
X345000D02*
D03*
Y31000D02*
D03*
X232000D02*
D03*
X193000D02*
D03*
X105000D02*
D03*
D36*
X209700Y176500D02*
D03*
X208700Y184500D02*
D03*
X201200D02*
D03*
X230750Y176500D02*
D03*
X229750Y184500D02*
D03*
X222250D02*
D03*
X251800Y176500D02*
D03*
X250800Y184500D02*
D03*
X243300D02*
D03*
X272850Y176500D02*
D03*
X271850Y184500D02*
D03*
X264350D02*
D03*
X293900Y176500D02*
D03*
X292900Y184500D02*
D03*
X285400D02*
D03*
X314950Y176500D02*
D03*
X313950Y184500D02*
D03*
X306450D02*
D03*
X336000Y176500D02*
D03*
X335000Y184500D02*
D03*
X327500D02*
D03*
X188650Y176500D02*
D03*
X187650Y184500D02*
D03*
X180150D02*
D03*
X167600Y176500D02*
D03*
X166600Y184500D02*
D03*
X159100D02*
D03*
X146550Y176500D02*
D03*
X145550Y184500D02*
D03*
X138050D02*
D03*
X125500Y176500D02*
D03*
X124500Y184500D02*
D03*
X117000D02*
D03*
D37*
X211700Y180500D02*
D03*
X201200Y192000D02*
D03*
X232750Y180500D02*
D03*
X222250Y192000D02*
D03*
X253800Y180500D02*
D03*
X243300Y192000D02*
D03*
X274850Y180500D02*
D03*
X264350Y192000D02*
D03*
X295900Y180500D02*
D03*
X285400Y192000D02*
D03*
X316950Y180500D02*
D03*
X306450Y192000D02*
D03*
X338000Y180500D02*
D03*
X327500Y192000D02*
D03*
X190650Y180500D02*
D03*
X180150Y192000D02*
D03*
X169600Y180500D02*
D03*
X159100Y192000D02*
D03*
X148550Y180500D02*
D03*
X138050Y192000D02*
D03*
X127500Y180500D02*
D03*
X117000Y192000D02*
D03*
X252500Y117500D02*
D03*
X322500D02*
D03*
Y36500D02*
D03*
X252500D02*
D03*
D38*
X198700Y188500D02*
D03*
X211200D02*
D03*
X219750D02*
D03*
X232250D02*
D03*
X240800D02*
D03*
X253300D02*
D03*
X261850D02*
D03*
X274350D02*
D03*
X282900D02*
D03*
X295400D02*
D03*
X303950D02*
D03*
X316450D02*
D03*
X325000D02*
D03*
X337500D02*
D03*
X177650D02*
D03*
X190150D02*
D03*
X156600D02*
D03*
X169100D02*
D03*
X135550D02*
D03*
X148050D02*
D03*
X114500D02*
D03*
X127000D02*
D03*
D39*
X333000Y162000D02*
D03*
Y164000D02*
D03*
Y154500D02*
D03*
Y156500D02*
D03*
X319500Y162000D02*
D03*
Y164000D02*
D03*
Y154500D02*
D03*
Y156500D02*
D03*
X306000Y162000D02*
D03*
Y164000D02*
D03*
Y154500D02*
D03*
Y156500D02*
D03*
X292500Y162000D02*
D03*
Y164000D02*
D03*
Y154500D02*
D03*
Y156500D02*
D03*
X279000Y162000D02*
D03*
Y164000D02*
D03*
Y154500D02*
D03*
Y156500D02*
D03*
X265500Y162000D02*
D03*
Y164000D02*
D03*
Y154500D02*
D03*
Y156500D02*
D03*
X252000Y162000D02*
D03*
Y164000D02*
D03*
Y154500D02*
D03*
Y156500D02*
D03*
X238500Y162000D02*
D03*
Y164000D02*
D03*
Y154500D02*
D03*
Y156500D02*
D03*
X225000Y162000D02*
D03*
Y164000D02*
D03*
Y154500D02*
D03*
Y156500D02*
D03*
X211500Y162000D02*
D03*
Y164000D02*
D03*
Y154500D02*
D03*
Y156500D02*
D03*
X198000Y162000D02*
D03*
Y164000D02*
D03*
Y154500D02*
D03*
Y156500D02*
D03*
X184500Y162000D02*
D03*
Y164000D02*
D03*
Y154500D02*
D03*
Y156500D02*
D03*
X171000Y162000D02*
D03*
Y164000D02*
D03*
Y154500D02*
D03*
Y156500D02*
D03*
X157500Y162000D02*
D03*
Y164000D02*
D03*
Y154500D02*
D03*
Y156500D02*
D03*
X144000Y162000D02*
D03*
Y164000D02*
D03*
Y154500D02*
D03*
Y156500D02*
D03*
X130500Y162000D02*
D03*
Y164000D02*
D03*
Y154500D02*
D03*
Y156500D02*
D03*
X117000Y164000D02*
D03*
Y162000D02*
D03*
Y156500D02*
D03*
Y154500D02*
D03*
D40*
X214500Y49000D02*
D03*
X209500D02*
D03*
D41*
X127000Y37100D02*
D03*
Y31500D02*
D03*
X129000Y29000D02*
D03*
Y35200D02*
D03*
Y40800D02*
D03*
D42*
X123400Y78800D02*
D03*
Y68800D02*
D03*
Y71300D02*
D03*
Y73800D02*
D03*
Y63800D02*
D03*
X135400Y78800D02*
D03*
Y68800D02*
D03*
Y71300D02*
D03*
Y73800D02*
D03*
Y63800D02*
D03*
D43*
X207000Y74960D02*
D03*
X218500Y74880D02*
D03*
M02*
