G04*
G04 #@! TF.GenerationSoftware,Altium Limited,Altium Designer,19.1.6 (110)*
G04*
G04 Layer_Color=65535*
%FSLAX43Y43*%
%MOMM*%
G71*
G01*
G75*
%ADD10C,0.100*%
%ADD11C,0.200*%
%ADD12C,0.250*%
%ADD13C,0.150*%
%ADD14C,0.254*%
D10*
X217952Y26714D02*
G03*
X216428Y26714I-762J-572D01*
G01*
X221762D02*
G03*
X220238Y26714I-762J-572D01*
G01*
X203952D02*
G03*
X202428Y26714I-762J-572D01*
G01*
X207762D02*
G03*
X206238Y26714I-762J-572D01*
G01*
X214590Y25900D02*
Y33650D01*
Y25900D02*
X223815D01*
X217952Y31286D02*
Y32048D01*
X218333D01*
X216428Y31286D02*
Y32048D01*
X216047D02*
X216428D01*
X218333Y26714D02*
X218714D01*
Y31286D01*
X217952D02*
X218714D01*
X215666Y26714D02*
X216047D01*
X215666D02*
Y31286D01*
X216428D01*
X217952Y26714D02*
X218333D01*
X216047D02*
X216428D01*
X215666Y32810D02*
X218714D01*
X215666D02*
X216047Y32048D01*
X218333D02*
X218714Y32810D01*
X222143Y32048D02*
X222524Y32810D01*
X219476D02*
X219857Y32048D01*
X223815Y25900D02*
Y33650D01*
X214590D02*
X223815D01*
X219476Y32810D02*
X222524D01*
X219857Y26714D02*
X220238D01*
X221762D02*
X222143D01*
X219476Y31286D02*
X220238D01*
X219476Y26714D02*
Y31286D01*
Y26714D02*
X219857D01*
X221762Y31286D02*
X222524D01*
Y26714D02*
Y31286D01*
X222143Y26714D02*
X222524D01*
X219857Y32048D02*
X220238D01*
Y31286D02*
Y32048D01*
X221762D02*
X222143D01*
X221762Y31286D02*
Y32048D01*
X200590Y25900D02*
Y33650D01*
Y25900D02*
X209815D01*
X203952Y31286D02*
Y32048D01*
X204333D01*
X202428Y31286D02*
Y32048D01*
X202047D02*
X202428D01*
X204333Y26714D02*
X204714D01*
Y31286D01*
X203952D02*
X204714D01*
X201666Y26714D02*
X202047D01*
X201666D02*
Y31286D01*
X202428D01*
X203952Y26714D02*
X204333D01*
X202047D02*
X202428D01*
X201666Y32810D02*
X204714D01*
X201666D02*
X202047Y32048D01*
X204333D02*
X204714Y32810D01*
X208143Y32048D02*
X208524Y32810D01*
X205476D02*
X205857Y32048D01*
X209815Y25900D02*
Y33650D01*
X200590D02*
X209815D01*
X205476Y32810D02*
X208524D01*
X205857Y26714D02*
X206238D01*
X207762D02*
X208143D01*
X205476Y31286D02*
X206238D01*
X205476Y26714D02*
Y31286D01*
Y26714D02*
X205857D01*
X207762Y31286D02*
X208524D01*
Y26714D02*
Y31286D01*
X208143Y26714D02*
X208524D01*
X205857Y32048D02*
X206238D01*
Y31286D02*
Y32048D01*
X207762D02*
X208143D01*
X207762Y31286D02*
Y32048D01*
X128130Y55730D02*
Y58270D01*
Y55730D02*
X130670D01*
Y58270D01*
X128130D02*
X130670D01*
X130035Y52770D02*
X130670Y52135D01*
X128765Y52770D02*
X130035D01*
X128130Y52135D02*
X128765Y52770D01*
X127495D02*
X128130Y52135D01*
X126225Y52770D02*
X127495D01*
X125590Y52135D02*
X126225Y52770D01*
X125590Y50865D02*
Y52135D01*
Y50865D02*
X126225Y50230D01*
X127495D01*
X128130Y50865D01*
X128765Y50230D01*
X130035D01*
X130670Y50865D01*
X133210Y50230D02*
Y52770D01*
X130670D02*
X133210D01*
X130670Y50230D02*
Y52770D01*
Y50230D02*
X133210D01*
X127530Y98830D02*
Y101370D01*
Y98830D02*
X130070D01*
Y101370D01*
X127530D02*
X130070D01*
X132340Y94840D02*
X133424D01*
X132100Y94600D02*
X132340Y94840D01*
X130376D02*
X131460D01*
X131700Y94600D01*
X132100D01*
X130376Y89760D02*
Y94840D01*
Y89760D02*
X133424D01*
Y94840D01*
X114730Y83430D02*
Y85970D01*
Y83430D02*
X117270D01*
Y85970D01*
X114730D02*
X117270D01*
X157630Y112930D02*
Y115470D01*
Y112930D02*
X160170D01*
Y115470D01*
X157630D02*
X160170D01*
X122030Y120230D02*
Y122770D01*
Y120230D02*
X124570D01*
Y122770D01*
X122030D02*
X124570D01*
X140000Y84000D02*
X155500D01*
X140000D02*
Y99000D01*
X155500D01*
Y84000D02*
Y99000D01*
X130750Y106465D02*
X131385Y105830D01*
X132655D01*
X133290Y106465D01*
X133925Y105830D01*
X135195D01*
X135830Y106465D01*
X140910D02*
Y107735D01*
X135195Y108370D02*
X135830Y107735D01*
X133925Y108370D02*
X135195D01*
X133290Y107735D02*
X133925Y108370D01*
X132655D02*
X133290Y107735D01*
X131385Y108370D02*
X132655D01*
X130750Y107735D02*
X131385Y108370D01*
X128210Y105830D02*
Y108370D01*
Y105830D02*
X130750D01*
Y108370D01*
X128210D02*
X130750D01*
X140275D02*
X140910Y107735D01*
X140275Y105830D02*
X140910Y106465D01*
X135830Y107735D02*
X136465Y108370D01*
X137735D01*
X138370Y107735D01*
X139005Y108370D01*
X140275D01*
X139005Y105830D02*
X140275D01*
X138370Y106465D02*
X139005Y105830D01*
X137735D02*
X138370Y106465D01*
X136465Y105830D02*
X137735D01*
X135830Y106465D02*
X136465Y105830D01*
X157230Y87690D02*
Y90230D01*
X159770D01*
Y87690D02*
Y90230D01*
X157230Y87690D02*
X159770D01*
X157230Y90865D02*
X157865Y90230D01*
X157230Y90865D02*
Y92135D01*
X157865Y92770D01*
X157230Y93405D02*
X157865Y92770D01*
X157230Y93405D02*
Y94675D01*
X157865Y95310D01*
X159135D01*
X159770Y94675D01*
Y93405D02*
Y94675D01*
X159135Y92770D02*
X159770Y93405D01*
X159135Y92770D02*
X159770Y92135D01*
Y90865D02*
Y92135D01*
X159135Y90230D02*
X159770Y90865D01*
X133270Y122770D02*
Y125310D01*
X130730Y122770D02*
X133270D01*
X130730D02*
Y125310D01*
X133270D01*
X132635Y122770D02*
X133270Y122135D01*
Y120865D02*
Y122135D01*
X132635Y120230D02*
X133270Y120865D01*
X132635Y120230D02*
X133270Y119595D01*
Y118325D02*
Y119595D01*
X132635Y117690D02*
X133270Y118325D01*
X131365Y117690D02*
X132635D01*
X130730Y118325D02*
X131365Y117690D01*
X130730Y118325D02*
Y119595D01*
X131365Y120230D01*
X130730Y120865D02*
X131365Y120230D01*
X130730Y120865D02*
Y122135D01*
X131365Y122770D01*
X111500Y102000D02*
Y117000D01*
Y102000D02*
X127000D01*
Y117000D01*
X111500D02*
X127000D01*
X232365Y128270D02*
X233635D01*
Y125730D02*
X234270Y126365D01*
Y127635D01*
X233635Y128270D02*
X234270Y127635D01*
X231730D02*
X232365Y128270D01*
X231730Y126365D02*
Y127635D01*
Y126365D02*
X232365Y125730D01*
X231730Y123190D02*
X234270D01*
Y125730D01*
X231730D02*
X234270D01*
X231730Y123190D02*
Y125730D01*
X229365Y128270D02*
X230635D01*
Y125730D02*
X231270Y126365D01*
Y127635D01*
X230635Y128270D02*
X231270Y127635D01*
X228730D02*
X229365Y128270D01*
X228730Y126365D02*
Y127635D01*
Y126365D02*
X229365Y125730D01*
X228730Y123190D02*
X231270D01*
Y125730D01*
X228730D02*
X231270D01*
X228730Y123190D02*
Y125730D01*
X223365Y128270D02*
X224635D01*
Y125730D02*
X225270Y126365D01*
Y127635D01*
X224635Y128270D02*
X225270Y127635D01*
X222730D02*
X223365Y128270D01*
X222730Y126365D02*
Y127635D01*
Y126365D02*
X223365Y125730D01*
X222730Y123190D02*
X225270D01*
Y125730D01*
X222730D02*
X225270D01*
X222730Y123190D02*
Y125730D01*
X220365Y128270D02*
X221635D01*
Y125730D02*
X222270Y126365D01*
Y127635D01*
X221635Y128270D02*
X222270Y127635D01*
X219730D02*
X220365Y128270D01*
X219730Y126365D02*
Y127635D01*
Y126365D02*
X220365Y125730D01*
X219730Y123190D02*
X222270D01*
Y125730D01*
X219730D02*
X222270D01*
X219730Y123190D02*
Y125730D01*
X212865Y128310D02*
X214135D01*
Y125770D02*
X214770Y126405D01*
Y127675D01*
X214135Y128310D02*
X214770Y127675D01*
X212230D02*
X212865Y128310D01*
X212230Y126405D02*
Y127675D01*
Y126405D02*
X212865Y125770D01*
X212230Y123230D02*
X214770D01*
Y125770D01*
X212230D02*
X214770D01*
X212230Y123230D02*
Y125770D01*
X204865Y128310D02*
X206135D01*
Y125770D02*
X206770Y126405D01*
Y127675D01*
X206135Y128310D02*
X206770Y127675D01*
X204230D02*
X204865Y128310D01*
X204230Y126405D02*
Y127675D01*
Y126405D02*
X204865Y125770D01*
X204230Y123230D02*
X206770D01*
Y125770D01*
X204230D02*
X206770D01*
X204230Y123230D02*
Y125770D01*
X209865Y128310D02*
X211135D01*
Y125770D02*
X211770Y126405D01*
Y127675D01*
X211135Y128310D02*
X211770Y127675D01*
X209230D02*
X209865Y128310D01*
X209230Y126405D02*
Y127675D01*
Y126405D02*
X209865Y125770D01*
X209230Y123230D02*
X211770D01*
Y125770D01*
X209230D02*
X211770D01*
X209230Y123230D02*
Y125770D01*
X231451Y105405D02*
X232086Y106040D01*
Y107310D01*
X231451Y107945D02*
X232086Y107310D01*
X231451Y107945D02*
X232086Y108580D01*
Y109850D01*
X231451Y110485D02*
X232086Y109850D01*
X230181Y110485D02*
X231451D01*
X229546Y109850D02*
X230181Y110485D01*
X229546Y108580D02*
Y109850D01*
Y108580D02*
X230181Y107945D01*
X229546Y107310D02*
X230181Y107945D01*
X229546Y106040D02*
Y107310D01*
Y106040D02*
X230181Y105405D01*
X229546Y102865D02*
X232086D01*
Y105405D01*
X229546D02*
X232086D01*
X229546Y102865D02*
Y105405D01*
X329135Y160190D02*
X329770Y160825D01*
Y162095D01*
X329135Y162730D02*
X329770Y162095D01*
X329135Y162730D02*
X329770Y163365D01*
Y164635D01*
X329135Y165270D02*
X329770Y164635D01*
X327865Y165270D02*
X329135D01*
X327230Y164635D02*
X327865Y165270D01*
X327230Y163365D02*
Y164635D01*
Y163365D02*
X327865Y162730D01*
X327230Y162095D02*
X327865Y162730D01*
X327230Y160825D02*
Y162095D01*
Y160825D02*
X327865Y160190D01*
X327230Y157650D02*
X329770D01*
Y160190D01*
X327230D02*
X329770D01*
X327230Y157650D02*
Y160190D01*
X338635Y152730D02*
X339270Y153365D01*
Y154635D01*
X338635Y155270D02*
X339270Y154635D01*
X338635Y155270D02*
X339270Y155905D01*
Y157175D01*
X338635Y157810D02*
X339270Y157175D01*
X337365Y157810D02*
X338635D01*
X336730Y157175D02*
X337365Y157810D01*
X336730Y155905D02*
Y157175D01*
Y155905D02*
X337365Y155270D01*
X336730Y154635D02*
X337365Y155270D01*
X336730Y153365D02*
Y154635D01*
Y153365D02*
X337365Y152730D01*
X336730Y150190D02*
X339270D01*
Y152730D01*
X336730D02*
X339270D01*
X336730Y150190D02*
Y152730D01*
X315635Y160190D02*
X316270Y160825D01*
Y162095D01*
X315635Y162730D02*
X316270Y162095D01*
X315635Y162730D02*
X316270Y163365D01*
Y164635D01*
X315635Y165270D02*
X316270Y164635D01*
X314365Y165270D02*
X315635D01*
X313730Y164635D02*
X314365Y165270D01*
X313730Y163365D02*
Y164635D01*
Y163365D02*
X314365Y162730D01*
X313730Y162095D02*
X314365Y162730D01*
X313730Y160825D02*
Y162095D01*
Y160825D02*
X314365Y160190D01*
X313730Y157650D02*
X316270D01*
Y160190D01*
X313730D02*
X316270D01*
X313730Y157650D02*
Y160190D01*
X325135Y152730D02*
X325770Y153365D01*
Y154635D01*
X325135Y155270D02*
X325770Y154635D01*
X325135Y155270D02*
X325770Y155905D01*
Y157175D01*
X325135Y157810D02*
X325770Y157175D01*
X323865Y157810D02*
X325135D01*
X323230Y157175D02*
X323865Y157810D01*
X323230Y155905D02*
Y157175D01*
Y155905D02*
X323865Y155270D01*
X323230Y154635D02*
X323865Y155270D01*
X323230Y153365D02*
Y154635D01*
Y153365D02*
X323865Y152730D01*
X323230Y150190D02*
X325770D01*
Y152730D01*
X323230D02*
X325770D01*
X323230Y150190D02*
Y152730D01*
X302135Y160190D02*
X302770Y160825D01*
Y162095D01*
X302135Y162730D02*
X302770Y162095D01*
X302135Y162730D02*
X302770Y163365D01*
Y164635D01*
X302135Y165270D02*
X302770Y164635D01*
X300865Y165270D02*
X302135D01*
X300230Y164635D02*
X300865Y165270D01*
X300230Y163365D02*
Y164635D01*
Y163365D02*
X300865Y162730D01*
X300230Y162095D02*
X300865Y162730D01*
X300230Y160825D02*
Y162095D01*
Y160825D02*
X300865Y160190D01*
X300230Y157650D02*
X302770D01*
Y160190D01*
X300230D02*
X302770D01*
X300230Y157650D02*
Y160190D01*
X311635Y152730D02*
X312270Y153365D01*
Y154635D01*
X311635Y155270D02*
X312270Y154635D01*
X311635Y155270D02*
X312270Y155905D01*
Y157175D01*
X311635Y157810D02*
X312270Y157175D01*
X310365Y157810D02*
X311635D01*
X309730Y157175D02*
X310365Y157810D01*
X309730Y155905D02*
Y157175D01*
Y155905D02*
X310365Y155270D01*
X309730Y154635D02*
X310365Y155270D01*
X309730Y153365D02*
Y154635D01*
Y153365D02*
X310365Y152730D01*
X309730Y150190D02*
X312270D01*
Y152730D01*
X309730D02*
X312270D01*
X309730Y150190D02*
Y152730D01*
X288635Y160190D02*
X289270Y160825D01*
Y162095D01*
X288635Y162730D02*
X289270Y162095D01*
X288635Y162730D02*
X289270Y163365D01*
Y164635D01*
X288635Y165270D02*
X289270Y164635D01*
X287365Y165270D02*
X288635D01*
X286730Y164635D02*
X287365Y165270D01*
X286730Y163365D02*
Y164635D01*
Y163365D02*
X287365Y162730D01*
X286730Y162095D02*
X287365Y162730D01*
X286730Y160825D02*
Y162095D01*
Y160825D02*
X287365Y160190D01*
X286730Y157650D02*
X289270D01*
Y160190D01*
X286730D02*
X289270D01*
X286730Y157650D02*
Y160190D01*
X298135Y152730D02*
X298770Y153365D01*
Y154635D01*
X298135Y155270D02*
X298770Y154635D01*
X298135Y155270D02*
X298770Y155905D01*
Y157175D01*
X298135Y157810D02*
X298770Y157175D01*
X296865Y157810D02*
X298135D01*
X296230Y157175D02*
X296865Y157810D01*
X296230Y155905D02*
Y157175D01*
Y155905D02*
X296865Y155270D01*
X296230Y154635D02*
X296865Y155270D01*
X296230Y153365D02*
Y154635D01*
Y153365D02*
X296865Y152730D01*
X296230Y150190D02*
X298770D01*
Y152730D01*
X296230D02*
X298770D01*
X296230Y150190D02*
Y152730D01*
X275135Y160190D02*
X275770Y160825D01*
Y162095D01*
X275135Y162730D02*
X275770Y162095D01*
X275135Y162730D02*
X275770Y163365D01*
Y164635D01*
X275135Y165270D02*
X275770Y164635D01*
X273865Y165270D02*
X275135D01*
X273230Y164635D02*
X273865Y165270D01*
X273230Y163365D02*
Y164635D01*
Y163365D02*
X273865Y162730D01*
X273230Y162095D02*
X273865Y162730D01*
X273230Y160825D02*
Y162095D01*
Y160825D02*
X273865Y160190D01*
X273230Y157650D02*
X275770D01*
Y160190D01*
X273230D02*
X275770D01*
X273230Y157650D02*
Y160190D01*
X284635Y152730D02*
X285270Y153365D01*
Y154635D01*
X284635Y155270D02*
X285270Y154635D01*
X284635Y155270D02*
X285270Y155905D01*
Y157175D01*
X284635Y157810D02*
X285270Y157175D01*
X283365Y157810D02*
X284635D01*
X282730Y157175D02*
X283365Y157810D01*
X282730Y155905D02*
Y157175D01*
Y155905D02*
X283365Y155270D01*
X282730Y154635D02*
X283365Y155270D01*
X282730Y153365D02*
Y154635D01*
Y153365D02*
X283365Y152730D01*
X282730Y150190D02*
X285270D01*
Y152730D01*
X282730D02*
X285270D01*
X282730Y150190D02*
Y152730D01*
X261635Y160190D02*
X262270Y160825D01*
Y162095D01*
X261635Y162730D02*
X262270Y162095D01*
X261635Y162730D02*
X262270Y163365D01*
Y164635D01*
X261635Y165270D02*
X262270Y164635D01*
X260365Y165270D02*
X261635D01*
X259730Y164635D02*
X260365Y165270D01*
X259730Y163365D02*
Y164635D01*
Y163365D02*
X260365Y162730D01*
X259730Y162095D02*
X260365Y162730D01*
X259730Y160825D02*
Y162095D01*
Y160825D02*
X260365Y160190D01*
X259730Y157650D02*
X262270D01*
Y160190D01*
X259730D02*
X262270D01*
X259730Y157650D02*
Y160190D01*
X271135Y152730D02*
X271770Y153365D01*
Y154635D01*
X271135Y155270D02*
X271770Y154635D01*
X271135Y155270D02*
X271770Y155905D01*
Y157175D01*
X271135Y157810D02*
X271770Y157175D01*
X269865Y157810D02*
X271135D01*
X269230Y157175D02*
X269865Y157810D01*
X269230Y155905D02*
Y157175D01*
Y155905D02*
X269865Y155270D01*
X269230Y154635D02*
X269865Y155270D01*
X269230Y153365D02*
Y154635D01*
Y153365D02*
X269865Y152730D01*
X269230Y150190D02*
X271770D01*
Y152730D01*
X269230D02*
X271770D01*
X269230Y150190D02*
Y152730D01*
X248135Y160190D02*
X248770Y160825D01*
Y162095D01*
X248135Y162730D02*
X248770Y162095D01*
X248135Y162730D02*
X248770Y163365D01*
Y164635D01*
X248135Y165270D02*
X248770Y164635D01*
X246865Y165270D02*
X248135D01*
X246230Y164635D02*
X246865Y165270D01*
X246230Y163365D02*
Y164635D01*
Y163365D02*
X246865Y162730D01*
X246230Y162095D02*
X246865Y162730D01*
X246230Y160825D02*
Y162095D01*
Y160825D02*
X246865Y160190D01*
X246230Y157650D02*
X248770D01*
Y160190D01*
X246230D02*
X248770D01*
X246230Y157650D02*
Y160190D01*
X257635Y152730D02*
X258270Y153365D01*
Y154635D01*
X257635Y155270D02*
X258270Y154635D01*
X257635Y155270D02*
X258270Y155905D01*
Y157175D01*
X257635Y157810D02*
X258270Y157175D01*
X256365Y157810D02*
X257635D01*
X255730Y157175D02*
X256365Y157810D01*
X255730Y155905D02*
Y157175D01*
Y155905D02*
X256365Y155270D01*
X255730Y154635D02*
X256365Y155270D01*
X255730Y153365D02*
Y154635D01*
Y153365D02*
X256365Y152730D01*
X255730Y150190D02*
X258270D01*
Y152730D01*
X255730D02*
X258270D01*
X255730Y150190D02*
Y152730D01*
X234635Y160190D02*
X235270Y160825D01*
Y162095D01*
X234635Y162730D02*
X235270Y162095D01*
X234635Y162730D02*
X235270Y163365D01*
Y164635D01*
X234635Y165270D02*
X235270Y164635D01*
X233365Y165270D02*
X234635D01*
X232730Y164635D02*
X233365Y165270D01*
X232730Y163365D02*
Y164635D01*
Y163365D02*
X233365Y162730D01*
X232730Y162095D02*
X233365Y162730D01*
X232730Y160825D02*
Y162095D01*
Y160825D02*
X233365Y160190D01*
X232730Y157650D02*
X235270D01*
Y160190D01*
X232730D02*
X235270D01*
X232730Y157650D02*
Y160190D01*
X244135Y152730D02*
X244770Y153365D01*
Y154635D01*
X244135Y155270D02*
X244770Y154635D01*
X244135Y155270D02*
X244770Y155905D01*
Y157175D01*
X244135Y157810D02*
X244770Y157175D01*
X242865Y157810D02*
X244135D01*
X242230Y157175D02*
X242865Y157810D01*
X242230Y155905D02*
Y157175D01*
Y155905D02*
X242865Y155270D01*
X242230Y154635D02*
X242865Y155270D01*
X242230Y153365D02*
Y154635D01*
Y153365D02*
X242865Y152730D01*
X242230Y150190D02*
X244770D01*
Y152730D01*
X242230D02*
X244770D01*
X242230Y150190D02*
Y152730D01*
X221135Y160190D02*
X221770Y160825D01*
Y162095D01*
X221135Y162730D02*
X221770Y162095D01*
X221135Y162730D02*
X221770Y163365D01*
Y164635D01*
X221135Y165270D02*
X221770Y164635D01*
X219865Y165270D02*
X221135D01*
X219230Y164635D02*
X219865Y165270D01*
X219230Y163365D02*
Y164635D01*
Y163365D02*
X219865Y162730D01*
X219230Y162095D02*
X219865Y162730D01*
X219230Y160825D02*
Y162095D01*
Y160825D02*
X219865Y160190D01*
X219230Y157650D02*
X221770D01*
Y160190D01*
X219230D02*
X221770D01*
X219230Y157650D02*
Y160190D01*
X230635Y152730D02*
X231270Y153365D01*
Y154635D01*
X230635Y155270D02*
X231270Y154635D01*
X230635Y155270D02*
X231270Y155905D01*
Y157175D01*
X230635Y157810D02*
X231270Y157175D01*
X229365Y157810D02*
X230635D01*
X228730Y157175D02*
X229365Y157810D01*
X228730Y155905D02*
Y157175D01*
Y155905D02*
X229365Y155270D01*
X228730Y154635D02*
X229365Y155270D01*
X228730Y153365D02*
Y154635D01*
Y153365D02*
X229365Y152730D01*
X228730Y150190D02*
X231270D01*
Y152730D01*
X228730D02*
X231270D01*
X228730Y150190D02*
Y152730D01*
X207635Y160190D02*
X208270Y160825D01*
Y162095D01*
X207635Y162730D02*
X208270Y162095D01*
X207635Y162730D02*
X208270Y163365D01*
Y164635D01*
X207635Y165270D02*
X208270Y164635D01*
X206365Y165270D02*
X207635D01*
X205730Y164635D02*
X206365Y165270D01*
X205730Y163365D02*
Y164635D01*
Y163365D02*
X206365Y162730D01*
X205730Y162095D02*
X206365Y162730D01*
X205730Y160825D02*
Y162095D01*
Y160825D02*
X206365Y160190D01*
X205730Y157650D02*
X208270D01*
Y160190D01*
X205730D02*
X208270D01*
X205730Y157650D02*
Y160190D01*
X217135Y152730D02*
X217770Y153365D01*
Y154635D01*
X217135Y155270D02*
X217770Y154635D01*
X217135Y155270D02*
X217770Y155905D01*
Y157175D01*
X217135Y157810D02*
X217770Y157175D01*
X215865Y157810D02*
X217135D01*
X215230Y157175D02*
X215865Y157810D01*
X215230Y155905D02*
Y157175D01*
Y155905D02*
X215865Y155270D01*
X215230Y154635D02*
X215865Y155270D01*
X215230Y153365D02*
Y154635D01*
Y153365D02*
X215865Y152730D01*
X215230Y150190D02*
X217770D01*
Y152730D01*
X215230D02*
X217770D01*
X215230Y150190D02*
Y152730D01*
X194135Y160190D02*
X194770Y160825D01*
Y162095D01*
X194135Y162730D02*
X194770Y162095D01*
X194135Y162730D02*
X194770Y163365D01*
Y164635D01*
X194135Y165270D02*
X194770Y164635D01*
X192865Y165270D02*
X194135D01*
X192230Y164635D02*
X192865Y165270D01*
X192230Y163365D02*
Y164635D01*
Y163365D02*
X192865Y162730D01*
X192230Y162095D02*
X192865Y162730D01*
X192230Y160825D02*
Y162095D01*
Y160825D02*
X192865Y160190D01*
X192230Y157650D02*
X194770D01*
Y160190D01*
X192230D02*
X194770D01*
X192230Y157650D02*
Y160190D01*
X203635Y152730D02*
X204270Y153365D01*
Y154635D01*
X203635Y155270D02*
X204270Y154635D01*
X203635Y155270D02*
X204270Y155905D01*
Y157175D01*
X203635Y157810D02*
X204270Y157175D01*
X202365Y157810D02*
X203635D01*
X201730Y157175D02*
X202365Y157810D01*
X201730Y155905D02*
Y157175D01*
Y155905D02*
X202365Y155270D01*
X201730Y154635D02*
X202365Y155270D01*
X201730Y153365D02*
Y154635D01*
Y153365D02*
X202365Y152730D01*
X201730Y150190D02*
X204270D01*
Y152730D01*
X201730D02*
X204270D01*
X201730Y150190D02*
Y152730D01*
X180635Y160190D02*
X181270Y160825D01*
Y162095D01*
X180635Y162730D02*
X181270Y162095D01*
X180635Y162730D02*
X181270Y163365D01*
Y164635D01*
X180635Y165270D02*
X181270Y164635D01*
X179365Y165270D02*
X180635D01*
X178730Y164635D02*
X179365Y165270D01*
X178730Y163365D02*
Y164635D01*
Y163365D02*
X179365Y162730D01*
X178730Y162095D02*
X179365Y162730D01*
X178730Y160825D02*
Y162095D01*
Y160825D02*
X179365Y160190D01*
X178730Y157650D02*
X181270D01*
Y160190D01*
X178730D02*
X181270D01*
X178730Y157650D02*
Y160190D01*
X190135Y152730D02*
X190770Y153365D01*
Y154635D01*
X190135Y155270D02*
X190770Y154635D01*
X190135Y155270D02*
X190770Y155905D01*
Y157175D01*
X190135Y157810D02*
X190770Y157175D01*
X188865Y157810D02*
X190135D01*
X188230Y157175D02*
X188865Y157810D01*
X188230Y155905D02*
Y157175D01*
Y155905D02*
X188865Y155270D01*
X188230Y154635D02*
X188865Y155270D01*
X188230Y153365D02*
Y154635D01*
Y153365D02*
X188865Y152730D01*
X188230Y150190D02*
X190770D01*
Y152730D01*
X188230D02*
X190770D01*
X188230Y150190D02*
Y152730D01*
X167135Y160190D02*
X167770Y160825D01*
Y162095D01*
X167135Y162730D02*
X167770Y162095D01*
X167135Y162730D02*
X167770Y163365D01*
Y164635D01*
X167135Y165270D02*
X167770Y164635D01*
X165865Y165270D02*
X167135D01*
X165230Y164635D02*
X165865Y165270D01*
X165230Y163365D02*
Y164635D01*
Y163365D02*
X165865Y162730D01*
X165230Y162095D02*
X165865Y162730D01*
X165230Y160825D02*
Y162095D01*
Y160825D02*
X165865Y160190D01*
X165230Y157650D02*
X167770D01*
Y160190D01*
X165230D02*
X167770D01*
X165230Y157650D02*
Y160190D01*
X176635Y152730D02*
X177270Y153365D01*
Y154635D01*
X176635Y155270D02*
X177270Y154635D01*
X176635Y155270D02*
X177270Y155905D01*
Y157175D01*
X176635Y157810D02*
X177270Y157175D01*
X175365Y157810D02*
X176635D01*
X174730Y157175D02*
X175365Y157810D01*
X174730Y155905D02*
Y157175D01*
Y155905D02*
X175365Y155270D01*
X174730Y154635D02*
X175365Y155270D01*
X174730Y153365D02*
Y154635D01*
Y153365D02*
X175365Y152730D01*
X174730Y150190D02*
X177270D01*
Y152730D01*
X174730D02*
X177270D01*
X174730Y150190D02*
Y152730D01*
X153635Y160190D02*
X154270Y160825D01*
Y162095D01*
X153635Y162730D02*
X154270Y162095D01*
X153635Y162730D02*
X154270Y163365D01*
Y164635D01*
X153635Y165270D02*
X154270Y164635D01*
X152365Y165270D02*
X153635D01*
X151730Y164635D02*
X152365Y165270D01*
X151730Y163365D02*
Y164635D01*
Y163365D02*
X152365Y162730D01*
X151730Y162095D02*
X152365Y162730D01*
X151730Y160825D02*
Y162095D01*
Y160825D02*
X152365Y160190D01*
X151730Y157650D02*
X154270D01*
Y160190D01*
X151730D02*
X154270D01*
X151730Y157650D02*
Y160190D01*
X163135Y152730D02*
X163770Y153365D01*
Y154635D01*
X163135Y155270D02*
X163770Y154635D01*
X163135Y155270D02*
X163770Y155905D01*
Y157175D01*
X163135Y157810D02*
X163770Y157175D01*
X161865Y157810D02*
X163135D01*
X161230Y157175D02*
X161865Y157810D01*
X161230Y155905D02*
Y157175D01*
Y155905D02*
X161865Y155270D01*
X161230Y154635D02*
X161865Y155270D01*
X161230Y153365D02*
Y154635D01*
Y153365D02*
X161865Y152730D01*
X161230Y150190D02*
X163770D01*
Y152730D01*
X161230D02*
X163770D01*
X161230Y150190D02*
Y152730D01*
X140135Y160190D02*
X140770Y160825D01*
Y162095D01*
X140135Y162730D02*
X140770Y162095D01*
X140135Y162730D02*
X140770Y163365D01*
Y164635D01*
X140135Y165270D02*
X140770Y164635D01*
X138865Y165270D02*
X140135D01*
X138230Y164635D02*
X138865Y165270D01*
X138230Y163365D02*
Y164635D01*
Y163365D02*
X138865Y162730D01*
X138230Y162095D02*
X138865Y162730D01*
X138230Y160825D02*
Y162095D01*
Y160825D02*
X138865Y160190D01*
X138230Y157650D02*
X140770D01*
Y160190D01*
X138230D02*
X140770D01*
X138230Y157650D02*
Y160190D01*
X149635Y152730D02*
X150270Y153365D01*
Y154635D01*
X149635Y155270D02*
X150270Y154635D01*
X149635Y155270D02*
X150270Y155905D01*
Y157175D01*
X149635Y157810D02*
X150270Y157175D01*
X148365Y157810D02*
X149635D01*
X147730Y157175D02*
X148365Y157810D01*
X147730Y155905D02*
Y157175D01*
Y155905D02*
X148365Y155270D01*
X147730Y154635D02*
X148365Y155270D01*
X147730Y153365D02*
Y154635D01*
Y153365D02*
X148365Y152730D01*
X147730Y150190D02*
X150270D01*
Y152730D01*
X147730D02*
X150270D01*
X147730Y150190D02*
Y152730D01*
X126635Y160190D02*
X127270Y160825D01*
Y162095D01*
X126635Y162730D02*
X127270Y162095D01*
X126635Y162730D02*
X127270Y163365D01*
Y164635D01*
X126635Y165270D02*
X127270Y164635D01*
X125365Y165270D02*
X126635D01*
X124730Y164635D02*
X125365Y165270D01*
X124730Y163365D02*
Y164635D01*
Y163365D02*
X125365Y162730D01*
X124730Y162095D02*
X125365Y162730D01*
X124730Y160825D02*
Y162095D01*
Y160825D02*
X125365Y160190D01*
X124730Y157650D02*
X127270D01*
Y160190D01*
X124730D02*
X127270D01*
X124730Y157650D02*
Y160190D01*
X136135Y152730D02*
X136770Y153365D01*
Y154635D01*
X136135Y155270D02*
X136770Y154635D01*
X136135Y155270D02*
X136770Y155905D01*
Y157175D01*
X136135Y157810D02*
X136770Y157175D01*
X134865Y157810D02*
X136135D01*
X134230Y157175D02*
X134865Y157810D01*
X134230Y155905D02*
Y157175D01*
Y155905D02*
X134865Y155270D01*
X134230Y154635D02*
X134865Y155270D01*
X134230Y153365D02*
Y154635D01*
Y153365D02*
X134865Y152730D01*
X134230Y150190D02*
X136770D01*
Y152730D01*
X134230D02*
X136770D01*
X134230Y150190D02*
Y152730D01*
X118900Y62047D02*
Y80564D01*
Y62047D02*
X127900D01*
Y80564D01*
X118900D02*
X127900D01*
X130900Y62047D02*
Y80564D01*
Y62047D02*
X139900D01*
Y80564D01*
X130900D02*
X139900D01*
X122635Y152730D02*
X123270Y153365D01*
Y154635D01*
X122635Y155270D02*
X123270Y154635D01*
X122635Y155270D02*
X123270Y155905D01*
Y157175D01*
X122635Y157810D02*
X123270Y157175D01*
X121365Y157810D02*
X122635D01*
X120730Y157175D02*
X121365Y157810D01*
X120730Y155905D02*
Y157175D01*
Y155905D02*
X121365Y155270D01*
X120730Y154635D02*
X121365Y155270D01*
X120730Y153365D02*
Y154635D01*
Y153365D02*
X121365Y152730D01*
X120730Y150190D02*
X123270D01*
Y152730D01*
X120730D02*
X123270D01*
X120730Y150190D02*
Y152730D01*
X113135Y160190D02*
X113770Y160825D01*
Y162095D01*
X113135Y162730D02*
X113770Y162095D01*
X113135Y162730D02*
X113770Y163365D01*
Y164635D01*
X113135Y165270D02*
X113770Y164635D01*
X111865Y165270D02*
X113135D01*
X111230Y164635D02*
X111865Y165270D01*
X111230Y163365D02*
Y164635D01*
Y163365D02*
X111865Y162730D01*
X111230Y162095D02*
X111865Y162730D01*
X111230Y160825D02*
Y162095D01*
Y160825D02*
X111865Y160190D01*
X111230Y157650D02*
X113770D01*
Y160190D01*
X111230D02*
X113770D01*
X111230Y157650D02*
Y160190D01*
X243500Y125500D02*
X331500D01*
X243500D02*
X243500Y28500D01*
X331500D01*
X331500Y125500D02*
X331500Y28500D01*
X213489Y102915D02*
Y105455D01*
X216029D01*
Y102915D02*
Y105455D01*
X213489Y102915D02*
X216029D01*
X213489Y106090D02*
X214124Y105455D01*
X213489Y106090D02*
Y107360D01*
X214124Y107995D01*
X213489Y108630D02*
X214124Y107995D01*
X213489Y108630D02*
Y109900D01*
X214124Y110535D01*
X215394D01*
X216029Y109900D01*
Y108630D02*
Y109900D01*
X215394Y107995D02*
X216029Y108630D01*
X215394Y107995D02*
X216029Y107360D01*
Y106090D02*
Y107360D01*
X215394Y105455D02*
X216029Y106090D01*
X204275Y107740D02*
Y110860D01*
X207675Y107740D02*
Y110860D01*
X207475D02*
X207675D01*
X207475Y107740D02*
X207675D01*
X204275Y110860D02*
X204475D01*
X204275Y107740D02*
X204475D01*
X220300Y107690D02*
Y110810D01*
X223700Y107690D02*
Y110810D01*
X223500D02*
X223700D01*
X223500Y107690D02*
X223700D01*
X220300Y110810D02*
X220500D01*
X220300Y107690D02*
X220500D01*
X334524Y137460D02*
Y142540D01*
X331476Y137460D02*
X334524D01*
X331476D02*
Y142540D01*
X332800Y142300D02*
X333200D01*
X332560Y142540D02*
X332800Y142300D01*
X331476Y142540D02*
X332560D01*
X333200Y142300D02*
X333440Y142540D01*
X334524D01*
X321024Y137460D02*
Y142540D01*
X317976Y137460D02*
X321024D01*
X317976D02*
Y142540D01*
X319300Y142300D02*
X319700D01*
X319060Y142540D02*
X319300Y142300D01*
X317976Y142540D02*
X319060D01*
X319700Y142300D02*
X319940Y142540D01*
X321024D01*
X307524Y137460D02*
Y142540D01*
X304476Y137460D02*
X307524D01*
X304476D02*
Y142540D01*
X305800Y142300D02*
X306200D01*
X305560Y142540D02*
X305800Y142300D01*
X304476Y142540D02*
X305560D01*
X306200Y142300D02*
X306440Y142540D01*
X307524D01*
X294024Y137460D02*
Y142540D01*
X290976Y137460D02*
X294024D01*
X290976D02*
Y142540D01*
X292300Y142300D02*
X292700D01*
X292060Y142540D02*
X292300Y142300D01*
X290976Y142540D02*
X292060D01*
X292700Y142300D02*
X292940Y142540D01*
X294024D01*
X280524Y137460D02*
Y142540D01*
X277476Y137460D02*
X280524D01*
X277476D02*
Y142540D01*
X278800Y142300D02*
X279200D01*
X278560Y142540D02*
X278800Y142300D01*
X277476Y142540D02*
X278560D01*
X279200Y142300D02*
X279440Y142540D01*
X280524D01*
X267024Y137460D02*
Y142540D01*
X263976Y137460D02*
X267024D01*
X263976D02*
Y142540D01*
X265300Y142300D02*
X265700D01*
X265060Y142540D02*
X265300Y142300D01*
X263976Y142540D02*
X265060D01*
X265700Y142300D02*
X265940Y142540D01*
X267024D01*
X253524Y137460D02*
Y142540D01*
X250476Y137460D02*
X253524D01*
X250476D02*
Y142540D01*
X251800Y142300D02*
X252200D01*
X251560Y142540D02*
X251800Y142300D01*
X250476Y142540D02*
X251560D01*
X252200Y142300D02*
X252440Y142540D01*
X253524D01*
X240024Y137460D02*
Y142540D01*
X236976Y137460D02*
X240024D01*
X236976D02*
Y142540D01*
X238300Y142300D02*
X238700D01*
X238060Y142540D02*
X238300Y142300D01*
X236976Y142540D02*
X238060D01*
X238700Y142300D02*
X238940Y142540D01*
X240024D01*
X226524Y137460D02*
Y142540D01*
X223476Y137460D02*
X226524D01*
X223476D02*
Y142540D01*
X224800Y142300D02*
X225200D01*
X224560Y142540D02*
X224800Y142300D01*
X223476Y142540D02*
X224560D01*
X225200Y142300D02*
X225440Y142540D01*
X226524D01*
X213024Y137460D02*
Y142540D01*
X209976Y137460D02*
X213024D01*
X209976D02*
Y142540D01*
X211300Y142300D02*
X211700D01*
X211060Y142540D02*
X211300Y142300D01*
X209976Y142540D02*
X211060D01*
X211700Y142300D02*
X211940Y142540D01*
X213024D01*
X199524Y137460D02*
Y142540D01*
X196476Y137460D02*
X199524D01*
X196476D02*
Y142540D01*
X197800Y142300D02*
X198200D01*
X197560Y142540D02*
X197800Y142300D01*
X196476Y142540D02*
X197560D01*
X198200Y142300D02*
X198440Y142540D01*
X199524D01*
X186024Y137460D02*
Y142540D01*
X182976Y137460D02*
X186024D01*
X182976D02*
Y142540D01*
X184300Y142300D02*
X184700D01*
X184060Y142540D02*
X184300Y142300D01*
X182976Y142540D02*
X184060D01*
X184700Y142300D02*
X184940Y142540D01*
X186024D01*
X172524Y137460D02*
Y142540D01*
X169476Y137460D02*
X172524D01*
X169476D02*
Y142540D01*
X170800Y142300D02*
X171200D01*
X170560Y142540D02*
X170800Y142300D01*
X169476Y142540D02*
X170560D01*
X171200Y142300D02*
X171440Y142540D01*
X172524D01*
X159024Y137460D02*
Y142540D01*
X155976Y137460D02*
X159024D01*
X155976D02*
Y142540D01*
X157300Y142300D02*
X157700D01*
X157060Y142540D02*
X157300Y142300D01*
X155976Y142540D02*
X157060D01*
X157700Y142300D02*
X157940Y142540D01*
X159024D01*
X145524Y137460D02*
Y142540D01*
X142476Y137460D02*
X145524D01*
X142476D02*
Y142540D01*
X143800Y142300D02*
X144200D01*
X143560Y142540D02*
X143800Y142300D01*
X142476Y142540D02*
X143560D01*
X144200Y142300D02*
X144440Y142540D01*
X145524D01*
X132024Y137460D02*
Y142540D01*
X128976Y137460D02*
X132024D01*
X128976D02*
Y142540D01*
X130300Y142300D02*
X130700D01*
X130060Y142540D02*
X130300Y142300D01*
X128976Y142540D02*
X130060D01*
X130700Y142300D02*
X130940Y142540D01*
X132024D01*
X118524Y137460D02*
Y142540D01*
X115476Y137460D02*
X118524D01*
X115476D02*
Y142540D01*
X116800Y142300D02*
X117200D01*
X116560Y142540D02*
X116800Y142300D01*
X115476Y142540D02*
X116560D01*
X117200Y142300D02*
X117440Y142540D01*
X118524D01*
X120170Y93070D02*
Y95610D01*
X117630Y93070D02*
X120170D01*
X117630D02*
Y95610D01*
X120170D01*
X119535Y93070D02*
X120170Y92435D01*
Y91165D02*
Y92435D01*
X119535Y90530D02*
X120170Y91165D01*
X119535Y90530D02*
X120170Y89895D01*
Y88625D02*
Y89895D01*
X119535Y87990D02*
X120170Y88625D01*
X118265Y87990D02*
X119535D01*
X117630Y88625D02*
X118265Y87990D01*
X117630Y88625D02*
Y89895D01*
X118265Y90530D01*
X117630Y91165D02*
X118265Y90530D01*
X117630Y91165D02*
Y92435D01*
X118265Y93070D01*
X123670D02*
Y95610D01*
X121130Y93070D02*
X123670D01*
X121130D02*
Y95610D01*
X123670D01*
X123035Y93070D02*
X123670Y92435D01*
Y91165D02*
Y92435D01*
X123035Y90530D02*
X123670Y91165D01*
X123035Y90530D02*
X123670Y89895D01*
Y88625D02*
Y89895D01*
X123035Y87990D02*
X123670Y88625D01*
X121765Y87990D02*
X123035D01*
X121130Y88625D02*
X121765Y87990D01*
X121130Y88625D02*
Y89895D01*
X121765Y90530D01*
X121130Y91165D02*
X121765Y90530D01*
X121130Y91165D02*
Y92435D01*
X121765Y93070D01*
X205476Y72674D02*
Y92486D01*
X211826D01*
Y72674D02*
Y92486D01*
X205476Y72674D02*
X211826D01*
X216976Y72594D02*
Y92406D01*
X223326D01*
Y72594D02*
Y92406D01*
X216976Y72594D02*
X223326D01*
D11*
X129300Y95000D02*
G03*
X129300Y95000I-100J0D01*
G01*
X131000Y94300D02*
G03*
X131000Y94300I-100J0D01*
G01*
X335700Y163000D02*
G03*
X335700Y163000I-2700J0D01*
G01*
Y155500D02*
G03*
X335700Y155500I-2700J0D01*
G01*
X322200Y163000D02*
G03*
X322200Y163000I-2700J0D01*
G01*
Y155500D02*
G03*
X322200Y155500I-2700J0D01*
G01*
X308700Y163000D02*
G03*
X308700Y163000I-2700J0D01*
G01*
Y155500D02*
G03*
X308700Y155500I-2700J0D01*
G01*
X295200Y163000D02*
G03*
X295200Y163000I-2700J0D01*
G01*
Y155500D02*
G03*
X295200Y155500I-2700J0D01*
G01*
X281700Y163000D02*
G03*
X281700Y163000I-2700J0D01*
G01*
Y155500D02*
G03*
X281700Y155500I-2700J0D01*
G01*
X268200Y163000D02*
G03*
X268200Y163000I-2700J0D01*
G01*
Y155500D02*
G03*
X268200Y155500I-2700J0D01*
G01*
X254700Y163000D02*
G03*
X254700Y163000I-2700J0D01*
G01*
Y155500D02*
G03*
X254700Y155500I-2700J0D01*
G01*
X241200Y163000D02*
G03*
X241200Y163000I-2700J0D01*
G01*
Y155500D02*
G03*
X241200Y155500I-2700J0D01*
G01*
X227700Y163000D02*
G03*
X227700Y163000I-2700J0D01*
G01*
Y155500D02*
G03*
X227700Y155500I-2700J0D01*
G01*
X214200Y163000D02*
G03*
X214200Y163000I-2700J0D01*
G01*
Y155500D02*
G03*
X214200Y155500I-2700J0D01*
G01*
X200700Y163000D02*
G03*
X200700Y163000I-2700J0D01*
G01*
Y155500D02*
G03*
X200700Y155500I-2700J0D01*
G01*
X187200Y163000D02*
G03*
X187200Y163000I-2700J0D01*
G01*
Y155500D02*
G03*
X187200Y155500I-2700J0D01*
G01*
X173700Y163000D02*
G03*
X173700Y163000I-2700J0D01*
G01*
Y155500D02*
G03*
X173700Y155500I-2700J0D01*
G01*
X160200Y163000D02*
G03*
X160200Y163000I-2700J0D01*
G01*
Y155500D02*
G03*
X160200Y155500I-2700J0D01*
G01*
X146700Y163000D02*
G03*
X146700Y163000I-2700J0D01*
G01*
Y155500D02*
G03*
X146700Y155500I-2700J0D01*
G01*
X133200Y163000D02*
G03*
X133200Y163000I-2700J0D01*
G01*
Y155500D02*
G03*
X133200Y155500I-2700J0D01*
G01*
X219000Y49000D02*
G03*
X219000Y49000I-7000J0D01*
G01*
X119700Y163000D02*
G03*
X119700Y163000I-2700J0D01*
G01*
Y155500D02*
G03*
X119700Y155500I-2700J0D01*
G01*
X332100Y142000D02*
G03*
X332100Y142000I-100J0D01*
G01*
X330400Y142700D02*
G03*
X330400Y142700I-100J0D01*
G01*
X318600Y142000D02*
G03*
X318600Y142000I-100J0D01*
G01*
X316900Y142700D02*
G03*
X316900Y142700I-100J0D01*
G01*
X305100Y142000D02*
G03*
X305100Y142000I-100J0D01*
G01*
X303400Y142700D02*
G03*
X303400Y142700I-100J0D01*
G01*
X291600Y142000D02*
G03*
X291600Y142000I-100J0D01*
G01*
X289900Y142700D02*
G03*
X289900Y142700I-100J0D01*
G01*
X278100Y142000D02*
G03*
X278100Y142000I-100J0D01*
G01*
X276400Y142700D02*
G03*
X276400Y142700I-100J0D01*
G01*
X264600Y142000D02*
G03*
X264600Y142000I-100J0D01*
G01*
X262900Y142700D02*
G03*
X262900Y142700I-100J0D01*
G01*
X251100Y142000D02*
G03*
X251100Y142000I-100J0D01*
G01*
X249400Y142700D02*
G03*
X249400Y142700I-100J0D01*
G01*
X237600Y142000D02*
G03*
X237600Y142000I-100J0D01*
G01*
X235900Y142700D02*
G03*
X235900Y142700I-100J0D01*
G01*
X224100Y142000D02*
G03*
X224100Y142000I-100J0D01*
G01*
X222400Y142700D02*
G03*
X222400Y142700I-100J0D01*
G01*
X210600Y142000D02*
G03*
X210600Y142000I-100J0D01*
G01*
X208900Y142700D02*
G03*
X208900Y142700I-100J0D01*
G01*
X197100Y142000D02*
G03*
X197100Y142000I-100J0D01*
G01*
X195400Y142700D02*
G03*
X195400Y142700I-100J0D01*
G01*
X183600Y142000D02*
G03*
X183600Y142000I-100J0D01*
G01*
X181900Y142700D02*
G03*
X181900Y142700I-100J0D01*
G01*
X170100Y142000D02*
G03*
X170100Y142000I-100J0D01*
G01*
X168400Y142700D02*
G03*
X168400Y142700I-100J0D01*
G01*
X156600Y142000D02*
G03*
X156600Y142000I-100J0D01*
G01*
X154900Y142700D02*
G03*
X154900Y142700I-100J0D01*
G01*
X143100Y142000D02*
G03*
X143100Y142000I-100J0D01*
G01*
X141400Y142700D02*
G03*
X141400Y142700I-100J0D01*
G01*
X129600Y142000D02*
G03*
X129600Y142000I-100J0D01*
G01*
X127900Y142700D02*
G03*
X127900Y142700I-100J0D01*
G01*
X116100Y142000D02*
G03*
X116100Y142000I-100J0D01*
G01*
X114400Y142700D02*
G03*
X114400Y142700I-100J0D01*
G01*
X197700Y197500D02*
X213700D01*
Y174000D02*
Y197500D01*
X197700Y174000D02*
X213700D01*
X197700D02*
Y197500D01*
X218750D02*
X234750D01*
Y174000D02*
Y197500D01*
X218750Y174000D02*
X234750D01*
X218750D02*
Y197500D01*
X239800D02*
X255800D01*
Y174000D02*
Y197500D01*
X239800Y174000D02*
X255800D01*
X239800D02*
Y197500D01*
X260850D02*
X276850D01*
Y174000D02*
Y197500D01*
X260850Y174000D02*
X276850D01*
X260850D02*
Y197500D01*
X281900D02*
X297900D01*
Y174000D02*
Y197500D01*
X281900Y174000D02*
X297900D01*
X281900D02*
Y197500D01*
X302950D02*
X318950D01*
Y174000D02*
Y197500D01*
X302950Y174000D02*
X318950D01*
X302950D02*
Y197500D01*
X324000D02*
X340000D01*
Y174000D02*
Y197500D01*
X324000Y174000D02*
X340000D01*
X324000D02*
Y197500D01*
X176650D02*
X192650D01*
Y174000D02*
Y197500D01*
X176650Y174000D02*
X192650D01*
X176650D02*
Y197500D01*
X155600D02*
X171600D01*
Y174000D02*
Y197500D01*
X155600Y174000D02*
X171600D01*
X155600D02*
Y197500D01*
X134550D02*
X150550D01*
Y174000D02*
Y197500D01*
X134550Y174000D02*
X150550D01*
X134550D02*
Y197500D01*
X113500D02*
X129500D01*
Y174000D02*
Y197500D01*
X113500Y174000D02*
X129500D01*
X113500D02*
Y197500D01*
X124750Y27250D02*
X133250D01*
Y42250D01*
X124750D02*
X133250D01*
X124750Y27250D02*
Y42250D01*
D12*
X207800Y111750D02*
G03*
X207800Y111750I-125J0D01*
G01*
X223825Y111700D02*
G03*
X223825Y111700I-125J0D01*
G01*
X207125Y71912D02*
G03*
X207125Y71912I-125J0D01*
G01*
X218625Y71832D02*
G03*
X218625Y71832I-125J0D01*
G01*
D13*
X136503Y100465D02*
X139297D01*
Y101735D01*
X136503D02*
X139297D01*
X136503Y100465D02*
Y101735D01*
X138203Y102265D02*
X140997D01*
Y103535D01*
X138203D02*
X140997D01*
X138203Y102265D02*
Y103535D01*
X115765Y93903D02*
Y96697D01*
Y93903D02*
X117035D01*
Y96697D01*
X115765D02*
X117035D01*
X125265Y88903D02*
Y91697D01*
Y88903D02*
X126535D01*
Y91697D01*
X125265D02*
X126535D01*
X125535Y94153D02*
Y96947D01*
X124265D02*
X125535D01*
X124265Y94153D02*
Y96947D01*
Y94153D02*
X125535D01*
X134303Y118265D02*
X137097D01*
Y119535D01*
X134303D02*
X137097D01*
X134303Y118265D02*
Y119535D01*
X134003Y97415D02*
X136797D01*
Y98685D01*
X134003D02*
X136797D01*
X134003Y97415D02*
Y98685D01*
X127003Y87665D02*
X129797D01*
Y88935D01*
X127003D02*
X129797D01*
X127003Y87665D02*
Y88935D01*
X161765Y90403D02*
Y93197D01*
Y90403D02*
X163035D01*
Y93197D01*
X161765D02*
X163035D01*
X161765Y86903D02*
Y89697D01*
Y86903D02*
X163035D01*
Y89697D01*
X161765D02*
X163035D01*
X138035Y90903D02*
Y93697D01*
X136765D02*
X138035D01*
X136765Y90903D02*
Y93697D01*
Y90903D02*
X138035D01*
X134003Y95665D02*
X136797D01*
Y96935D01*
X134003D02*
X136797D01*
X134003Y95665D02*
Y96935D01*
X127003Y85915D02*
X129797D01*
Y87185D01*
X127003D02*
X129797D01*
X127003Y85915D02*
Y87185D01*
X332800Y159700D02*
X333200D01*
X333000Y159500D02*
Y159900D01*
X332800Y152200D02*
X333200D01*
X333000Y152000D02*
Y152400D01*
X330635Y144103D02*
Y146897D01*
X329365D02*
X330635D01*
X329365Y144103D02*
Y146897D01*
Y144103D02*
X330635D01*
X330603Y168865D02*
X333397D01*
Y170135D01*
X330603D02*
X333397D01*
X330603Y168865D02*
Y170135D01*
X334135Y144103D02*
Y146897D01*
X332865D02*
X334135D01*
X332865Y144103D02*
Y146897D01*
Y144103D02*
X334135D01*
X335853Y170135D02*
X338647D01*
X335853Y168865D02*
Y170135D01*
Y168865D02*
X338647D01*
Y170135D01*
X319300Y159700D02*
X319700D01*
X319500Y159500D02*
Y159900D01*
X319300Y152200D02*
X319700D01*
X319500Y152000D02*
Y152400D01*
X317135Y144103D02*
Y146897D01*
X315865D02*
X317135D01*
X315865Y144103D02*
Y146897D01*
Y144103D02*
X317135D01*
X317103Y168865D02*
X319897D01*
Y170135D01*
X317103D02*
X319897D01*
X317103Y168865D02*
Y170135D01*
X320635Y144103D02*
Y146897D01*
X319365D02*
X320635D01*
X319365Y144103D02*
Y146897D01*
Y144103D02*
X320635D01*
X322353Y170135D02*
X325147D01*
X322353Y168865D02*
Y170135D01*
Y168865D02*
X325147D01*
Y170135D01*
X305800Y159700D02*
X306200D01*
X306000Y159500D02*
Y159900D01*
X305800Y152200D02*
X306200D01*
X306000Y152000D02*
Y152400D01*
X303635Y144103D02*
Y146897D01*
X302365D02*
X303635D01*
X302365Y144103D02*
Y146897D01*
Y144103D02*
X303635D01*
X303603Y168865D02*
X306397D01*
Y170135D01*
X303603D02*
X306397D01*
X303603Y168865D02*
Y170135D01*
X307135Y144103D02*
Y146897D01*
X305865D02*
X307135D01*
X305865Y144103D02*
Y146897D01*
Y144103D02*
X307135D01*
X308853Y170135D02*
X311647D01*
X308853Y168865D02*
Y170135D01*
Y168865D02*
X311647D01*
Y170135D01*
X292300Y159700D02*
X292700D01*
X292500Y159500D02*
Y159900D01*
X292300Y152200D02*
X292700D01*
X292500Y152000D02*
Y152400D01*
X290135Y144103D02*
Y146897D01*
X288865D02*
X290135D01*
X288865Y144103D02*
Y146897D01*
Y144103D02*
X290135D01*
X290103Y168865D02*
X292897D01*
Y170135D01*
X290103D02*
X292897D01*
X290103Y168865D02*
Y170135D01*
X293635Y144103D02*
Y146897D01*
X292365D02*
X293635D01*
X292365Y144103D02*
Y146897D01*
Y144103D02*
X293635D01*
X295353Y170135D02*
X298147D01*
X295353Y168865D02*
Y170135D01*
Y168865D02*
X298147D01*
Y170135D01*
X278800Y159700D02*
X279200D01*
X279000Y159500D02*
Y159900D01*
X278800Y152200D02*
X279200D01*
X279000Y152000D02*
Y152400D01*
X276635Y144103D02*
Y146897D01*
X275365D02*
X276635D01*
X275365Y144103D02*
Y146897D01*
Y144103D02*
X276635D01*
X276603Y168865D02*
X279397D01*
Y170135D01*
X276603D02*
X279397D01*
X276603Y168865D02*
Y170135D01*
X280135Y144103D02*
Y146897D01*
X278865D02*
X280135D01*
X278865Y144103D02*
Y146897D01*
Y144103D02*
X280135D01*
X281853Y170135D02*
X284647D01*
X281853Y168865D02*
Y170135D01*
Y168865D02*
X284647D01*
Y170135D01*
X265300Y159700D02*
X265700D01*
X265500Y159500D02*
Y159900D01*
X265300Y152200D02*
X265700D01*
X265500Y152000D02*
Y152400D01*
X263135Y144103D02*
Y146897D01*
X261865D02*
X263135D01*
X261865Y144103D02*
Y146897D01*
Y144103D02*
X263135D01*
X263103Y168865D02*
X265897D01*
Y170135D01*
X263103D02*
X265897D01*
X263103Y168865D02*
Y170135D01*
X266635Y144103D02*
Y146897D01*
X265365D02*
X266635D01*
X265365Y144103D02*
Y146897D01*
Y144103D02*
X266635D01*
X268353Y170135D02*
X271147D01*
X268353Y168865D02*
Y170135D01*
Y168865D02*
X271147D01*
Y170135D01*
X251800Y159700D02*
X252200D01*
X252000Y159500D02*
Y159900D01*
X251800Y152200D02*
X252200D01*
X252000Y152000D02*
Y152400D01*
X249635Y144103D02*
Y146897D01*
X248365D02*
X249635D01*
X248365Y144103D02*
Y146897D01*
Y144103D02*
X249635D01*
X249603Y168865D02*
X252397D01*
Y170135D01*
X249603D02*
X252397D01*
X249603Y168865D02*
Y170135D01*
X253135Y144103D02*
Y146897D01*
X251865D02*
X253135D01*
X251865Y144103D02*
Y146897D01*
Y144103D02*
X253135D01*
X254853Y170135D02*
X257647D01*
X254853Y168865D02*
Y170135D01*
Y168865D02*
X257647D01*
Y170135D01*
X238300Y159700D02*
X238700D01*
X238500Y159500D02*
Y159900D01*
X238300Y152200D02*
X238700D01*
X238500Y152000D02*
Y152400D01*
X236135Y144103D02*
Y146897D01*
X234865D02*
X236135D01*
X234865Y144103D02*
Y146897D01*
Y144103D02*
X236135D01*
X236103Y168865D02*
X238897D01*
Y170135D01*
X236103D02*
X238897D01*
X236103Y168865D02*
Y170135D01*
X239635Y144103D02*
Y146897D01*
X238365D02*
X239635D01*
X238365Y144103D02*
Y146897D01*
Y144103D02*
X239635D01*
X241353Y170135D02*
X244147D01*
X241353Y168865D02*
Y170135D01*
Y168865D02*
X244147D01*
Y170135D01*
X224800Y159700D02*
X225200D01*
X225000Y159500D02*
Y159900D01*
X224800Y152200D02*
X225200D01*
X225000Y152000D02*
Y152400D01*
X222635Y144103D02*
Y146897D01*
X221365D02*
X222635D01*
X221365Y144103D02*
Y146897D01*
Y144103D02*
X222635D01*
X222603Y168865D02*
X225397D01*
Y170135D01*
X222603D02*
X225397D01*
X222603Y168865D02*
Y170135D01*
X226135Y144103D02*
Y146897D01*
X224865D02*
X226135D01*
X224865Y144103D02*
Y146897D01*
Y144103D02*
X226135D01*
X227853Y170135D02*
X230647D01*
X227853Y168865D02*
Y170135D01*
Y168865D02*
X230647D01*
Y170135D01*
X211300Y159700D02*
X211700D01*
X211500Y159500D02*
Y159900D01*
X211300Y152200D02*
X211700D01*
X211500Y152000D02*
Y152400D01*
X209135Y144103D02*
Y146897D01*
X207865D02*
X209135D01*
X207865Y144103D02*
Y146897D01*
Y144103D02*
X209135D01*
X209103Y168865D02*
X211897D01*
Y170135D01*
X209103D02*
X211897D01*
X209103Y168865D02*
Y170135D01*
X212635Y144103D02*
Y146897D01*
X211365D02*
X212635D01*
X211365Y144103D02*
Y146897D01*
Y144103D02*
X212635D01*
X214353Y170135D02*
X217147D01*
X214353Y168865D02*
Y170135D01*
Y168865D02*
X217147D01*
Y170135D01*
X197800Y159700D02*
X198200D01*
X198000Y159500D02*
Y159900D01*
X197800Y152200D02*
X198200D01*
X198000Y152000D02*
Y152400D01*
X195635Y144103D02*
Y146897D01*
X194365D02*
X195635D01*
X194365Y144103D02*
Y146897D01*
Y144103D02*
X195635D01*
X195603Y168865D02*
X198397D01*
Y170135D01*
X195603D02*
X198397D01*
X195603Y168865D02*
Y170135D01*
X199135Y144103D02*
Y146897D01*
X197865D02*
X199135D01*
X197865Y144103D02*
Y146897D01*
Y144103D02*
X199135D01*
X200853Y170135D02*
X203647D01*
X200853Y168865D02*
Y170135D01*
Y168865D02*
X203647D01*
Y170135D01*
X184300Y159700D02*
X184700D01*
X184500Y159500D02*
Y159900D01*
X184300Y152200D02*
X184700D01*
X184500Y152000D02*
Y152400D01*
X182135Y144103D02*
Y146897D01*
X180865D02*
X182135D01*
X180865Y144103D02*
Y146897D01*
Y144103D02*
X182135D01*
X182103Y168865D02*
X184897D01*
Y170135D01*
X182103D02*
X184897D01*
X182103Y168865D02*
Y170135D01*
X185635Y144103D02*
Y146897D01*
X184365D02*
X185635D01*
X184365Y144103D02*
Y146897D01*
Y144103D02*
X185635D01*
X187353Y170135D02*
X190147D01*
X187353Y168865D02*
Y170135D01*
Y168865D02*
X190147D01*
Y170135D01*
X170800Y159700D02*
X171200D01*
X171000Y159500D02*
Y159900D01*
X170800Y152200D02*
X171200D01*
X171000Y152000D02*
Y152400D01*
X168635Y144103D02*
Y146897D01*
X167365D02*
X168635D01*
X167365Y144103D02*
Y146897D01*
Y144103D02*
X168635D01*
X168603Y168865D02*
X171397D01*
Y170135D01*
X168603D02*
X171397D01*
X168603Y168865D02*
Y170135D01*
X172135Y144103D02*
Y146897D01*
X170865D02*
X172135D01*
X170865Y144103D02*
Y146897D01*
Y144103D02*
X172135D01*
X173853Y170135D02*
X176647D01*
X173853Y168865D02*
Y170135D01*
Y168865D02*
X176647D01*
Y170135D01*
X157300Y159700D02*
X157700D01*
X157500Y159500D02*
Y159900D01*
X157300Y152200D02*
X157700D01*
X157500Y152000D02*
Y152400D01*
X155135Y144103D02*
Y146897D01*
X153865D02*
X155135D01*
X153865Y144103D02*
Y146897D01*
Y144103D02*
X155135D01*
X155103Y168865D02*
X157897D01*
Y170135D01*
X155103D02*
X157897D01*
X155103Y168865D02*
Y170135D01*
X158635Y144103D02*
Y146897D01*
X157365D02*
X158635D01*
X157365Y144103D02*
Y146897D01*
Y144103D02*
X158635D01*
X160353Y170135D02*
X163147D01*
X160353Y168865D02*
Y170135D01*
Y168865D02*
X163147D01*
Y170135D01*
X143800Y159700D02*
X144200D01*
X144000Y159500D02*
Y159900D01*
X143800Y152200D02*
X144200D01*
X144000Y152000D02*
Y152400D01*
X141635Y144103D02*
Y146897D01*
X140365D02*
X141635D01*
X140365Y144103D02*
Y146897D01*
Y144103D02*
X141635D01*
X141603Y168865D02*
X144397D01*
Y170135D01*
X141603D02*
X144397D01*
X141603Y168865D02*
Y170135D01*
X145135Y144103D02*
Y146897D01*
X143865D02*
X145135D01*
X143865Y144103D02*
Y146897D01*
Y144103D02*
X145135D01*
X146853Y170135D02*
X149647D01*
X146853Y168865D02*
Y170135D01*
Y168865D02*
X149647D01*
Y170135D01*
X130300Y159700D02*
X130700D01*
X130500Y159500D02*
Y159900D01*
X130300Y152200D02*
X130700D01*
X130500Y152000D02*
Y152400D01*
X128135Y144103D02*
Y146897D01*
X126865D02*
X128135D01*
X126865Y144103D02*
Y146897D01*
Y144103D02*
X128135D01*
X128103Y168865D02*
X130897D01*
Y170135D01*
X128103D02*
X130897D01*
X128103Y168865D02*
Y170135D01*
X131635Y144103D02*
Y146897D01*
X130365D02*
X131635D01*
X130365Y144103D02*
Y146897D01*
Y144103D02*
X131635D01*
X133353Y170135D02*
X136147D01*
X133353Y168865D02*
Y170135D01*
Y168865D02*
X136147D01*
Y170135D01*
X119853Y170135D02*
X122647D01*
X119853Y168865D02*
Y170135D01*
Y168865D02*
X122647D01*
Y170135D01*
X114603Y168865D02*
X117397D01*
Y170135D01*
X114603D02*
X117397D01*
X114603Y168865D02*
Y170135D01*
X118135Y144103D02*
Y146897D01*
X116865D02*
X118135D01*
X116865Y144103D02*
Y146897D01*
Y144103D02*
X118135D01*
X114635D02*
Y146897D01*
X113365D02*
X114635D01*
X113365Y144103D02*
Y146897D01*
Y144103D02*
X114635D01*
X204000Y49000D02*
X204400D01*
X204200Y48800D02*
Y49200D01*
X117000Y159500D02*
Y159900D01*
X116800Y159700D02*
X117200D01*
X117000Y152000D02*
Y152400D01*
X116800Y152200D02*
X117200D01*
X211575Y102200D02*
Y104400D01*
X206375D02*
X211575D01*
X206375Y102200D02*
Y104400D01*
Y102200D02*
X211575D01*
X207872Y115165D02*
Y116435D01*
X205078Y115165D02*
X207872D01*
X205078D02*
Y116435D01*
X207872D01*
X202875Y116700D02*
Y118900D01*
Y116700D02*
X208075D01*
Y118900D01*
X202875D02*
X208075D01*
X205872Y104165D02*
Y105435D01*
X203078Y104165D02*
X205872D01*
X203078D02*
Y105435D01*
X205872D01*
X207872Y113165D02*
Y114435D01*
X205078Y113165D02*
X207872D01*
X205078D02*
Y114435D01*
X207872D01*
X204872Y115165D02*
Y116435D01*
X202078Y115165D02*
X204872D01*
X202078D02*
Y116435D01*
X204872D01*
X227600Y102150D02*
Y104350D01*
X222400D02*
X227600D01*
X222400Y102150D02*
Y104350D01*
Y102150D02*
X227600D01*
X221897Y104115D02*
Y105385D01*
X219103Y104115D02*
X221897D01*
X219103D02*
Y105385D01*
X221897D01*
X218900Y116650D02*
Y118850D01*
Y116650D02*
X224100D01*
Y118850D01*
X218900D02*
X224100D01*
X223897Y115115D02*
Y116385D01*
X221103Y115115D02*
X223897D01*
X221103D02*
Y116385D01*
X223897D01*
X220897Y115115D02*
Y116385D01*
X218103Y115115D02*
X220897D01*
X218103D02*
Y116385D01*
X220897D01*
X223897Y113115D02*
Y114385D01*
X221103Y113115D02*
X223897D01*
X221103D02*
Y114385D01*
X223897D01*
X339497Y142865D02*
Y144135D01*
X336703Y142865D02*
X339497D01*
X336703D02*
Y144135D01*
X339497D01*
Y144665D02*
Y145935D01*
X336703Y144665D02*
X339497D01*
X336703D02*
Y145935D01*
X339497D01*
X327803Y133365D02*
Y134635D01*
X330597D01*
Y133365D02*
Y134635D01*
X327803Y133365D02*
X330597D01*
X327803Y135565D02*
Y136835D01*
X330597D01*
Y135565D02*
Y136835D01*
X327803Y135565D02*
X330597D01*
X325997Y142865D02*
Y144135D01*
X323203Y142865D02*
X325997D01*
X323203D02*
Y144135D01*
X325997D01*
Y144665D02*
Y145935D01*
X323203Y144665D02*
X325997D01*
X323203D02*
Y145935D01*
X325997D01*
X314303Y133365D02*
Y134635D01*
X317097D01*
Y133365D02*
Y134635D01*
X314303Y133365D02*
X317097D01*
X314303Y135565D02*
Y136835D01*
X317097D01*
Y135565D02*
Y136835D01*
X314303Y135565D02*
X317097D01*
X312497Y142865D02*
Y144135D01*
X309703Y142865D02*
X312497D01*
X309703D02*
Y144135D01*
X312497D01*
Y144665D02*
Y145935D01*
X309703Y144665D02*
X312497D01*
X309703D02*
Y145935D01*
X312497D01*
X300803Y133365D02*
Y134635D01*
X303597D01*
Y133365D02*
Y134635D01*
X300803Y133365D02*
X303597D01*
X300803Y135565D02*
Y136835D01*
X303597D01*
Y135565D02*
Y136835D01*
X300803Y135565D02*
X303597D01*
X298997Y142865D02*
Y144135D01*
X296203Y142865D02*
X298997D01*
X296203D02*
Y144135D01*
X298997D01*
Y144665D02*
Y145935D01*
X296203Y144665D02*
X298997D01*
X296203D02*
Y145935D01*
X298997D01*
X287303Y133365D02*
Y134635D01*
X290097D01*
Y133365D02*
Y134635D01*
X287303Y133365D02*
X290097D01*
X287303Y135565D02*
Y136835D01*
X290097D01*
Y135565D02*
Y136835D01*
X287303Y135565D02*
X290097D01*
X285497Y142865D02*
Y144135D01*
X282703Y142865D02*
X285497D01*
X282703D02*
Y144135D01*
X285497D01*
Y144665D02*
Y145935D01*
X282703Y144665D02*
X285497D01*
X282703D02*
Y145935D01*
X285497D01*
X273803Y133365D02*
Y134635D01*
X276597D01*
Y133365D02*
Y134635D01*
X273803Y133365D02*
X276597D01*
X273803Y135565D02*
Y136835D01*
X276597D01*
Y135565D02*
Y136835D01*
X273803Y135565D02*
X276597D01*
X271997Y142865D02*
Y144135D01*
X269203Y142865D02*
X271997D01*
X269203D02*
Y144135D01*
X271997D01*
Y144665D02*
Y145935D01*
X269203Y144665D02*
X271997D01*
X269203D02*
Y145935D01*
X271997D01*
X260303Y133365D02*
Y134635D01*
X263097D01*
Y133365D02*
Y134635D01*
X260303Y133365D02*
X263097D01*
X260303Y135565D02*
Y136835D01*
X263097D01*
Y135565D02*
Y136835D01*
X260303Y135565D02*
X263097D01*
X258497Y142865D02*
Y144135D01*
X255703Y142865D02*
X258497D01*
X255703D02*
Y144135D01*
X258497D01*
Y144665D02*
Y145935D01*
X255703Y144665D02*
X258497D01*
X255703D02*
Y145935D01*
X258497D01*
X246803Y133365D02*
Y134635D01*
X249597D01*
Y133365D02*
Y134635D01*
X246803Y133365D02*
X249597D01*
X246803Y135565D02*
Y136835D01*
X249597D01*
Y135565D02*
Y136835D01*
X246803Y135565D02*
X249597D01*
X244997Y142865D02*
Y144135D01*
X242203Y142865D02*
X244997D01*
X242203D02*
Y144135D01*
X244997D01*
Y144665D02*
Y145935D01*
X242203Y144665D02*
X244997D01*
X242203D02*
Y145935D01*
X244997D01*
X233303Y133365D02*
Y134635D01*
X236097D01*
Y133365D02*
Y134635D01*
X233303Y133365D02*
X236097D01*
X233303Y135565D02*
Y136835D01*
X236097D01*
Y135565D02*
Y136835D01*
X233303Y135565D02*
X236097D01*
X231497Y142865D02*
Y144135D01*
X228703Y142865D02*
X231497D01*
X228703D02*
Y144135D01*
X231497D01*
Y144665D02*
Y145935D01*
X228703Y144665D02*
X231497D01*
X228703D02*
Y145935D01*
X231497D01*
X219803Y133365D02*
Y134635D01*
X222597D01*
Y133365D02*
Y134635D01*
X219803Y133365D02*
X222597D01*
X219803Y135565D02*
Y136835D01*
X222597D01*
Y135565D02*
Y136835D01*
X219803Y135565D02*
X222597D01*
X217997Y142865D02*
Y144135D01*
X215203Y142865D02*
X217997D01*
X215203D02*
Y144135D01*
X217997D01*
Y144665D02*
Y145935D01*
X215203Y144665D02*
X217997D01*
X215203D02*
Y145935D01*
X217997D01*
X206303Y133365D02*
Y134635D01*
X209097D01*
Y133365D02*
Y134635D01*
X206303Y133365D02*
X209097D01*
X206303Y135565D02*
Y136835D01*
X209097D01*
Y135565D02*
Y136835D01*
X206303Y135565D02*
X209097D01*
X204497Y142865D02*
Y144135D01*
X201703Y142865D02*
X204497D01*
X201703D02*
Y144135D01*
X204497D01*
Y144665D02*
Y145935D01*
X201703Y144665D02*
X204497D01*
X201703D02*
Y145935D01*
X204497D01*
X192803Y133365D02*
Y134635D01*
X195597D01*
Y133365D02*
Y134635D01*
X192803Y133365D02*
X195597D01*
X192803Y135565D02*
Y136835D01*
X195597D01*
Y135565D02*
Y136835D01*
X192803Y135565D02*
X195597D01*
X190997Y142865D02*
Y144135D01*
X188203Y142865D02*
X190997D01*
X188203D02*
Y144135D01*
X190997D01*
Y144665D02*
Y145935D01*
X188203Y144665D02*
X190997D01*
X188203D02*
Y145935D01*
X190997D01*
X179303Y133365D02*
Y134635D01*
X182097D01*
Y133365D02*
Y134635D01*
X179303Y133365D02*
X182097D01*
X179303Y135565D02*
Y136835D01*
X182097D01*
Y135565D02*
Y136835D01*
X179303Y135565D02*
X182097D01*
X177497Y142865D02*
Y144135D01*
X174703Y142865D02*
X177497D01*
X174703D02*
Y144135D01*
X177497D01*
Y144665D02*
Y145935D01*
X174703Y144665D02*
X177497D01*
X174703D02*
Y145935D01*
X177497D01*
X165803Y133365D02*
Y134635D01*
X168597D01*
Y133365D02*
Y134635D01*
X165803Y133365D02*
X168597D01*
X165803Y135565D02*
Y136835D01*
X168597D01*
Y135565D02*
Y136835D01*
X165803Y135565D02*
X168597D01*
X163997Y142865D02*
Y144135D01*
X161203Y142865D02*
X163997D01*
X161203D02*
Y144135D01*
X163997D01*
Y144665D02*
Y145935D01*
X161203Y144665D02*
X163997D01*
X161203D02*
Y145935D01*
X163997D01*
X152303Y133365D02*
Y134635D01*
X155097D01*
Y133365D02*
Y134635D01*
X152303Y133365D02*
X155097D01*
X152303Y135565D02*
Y136835D01*
X155097D01*
Y135565D02*
Y136835D01*
X152303Y135565D02*
X155097D01*
X150497Y142865D02*
Y144135D01*
X147703Y142865D02*
X150497D01*
X147703D02*
Y144135D01*
X150497D01*
Y144665D02*
Y145935D01*
X147703Y144665D02*
X150497D01*
X147703D02*
Y145935D01*
X150497D01*
X138803Y133365D02*
Y134635D01*
X141597D01*
Y133365D02*
Y134635D01*
X138803Y133365D02*
X141597D01*
X138803Y135565D02*
Y136835D01*
X141597D01*
Y135565D02*
Y136835D01*
X138803Y135565D02*
X141597D01*
X136997Y142865D02*
Y144135D01*
X134203Y142865D02*
X136997D01*
X134203D02*
Y144135D01*
X136997D01*
Y144665D02*
Y145935D01*
X134203Y144665D02*
X136997D01*
X134203D02*
Y145935D01*
X136997D01*
X125303Y133365D02*
Y134635D01*
X128097D01*
Y133365D02*
Y134635D01*
X125303Y133365D02*
X128097D01*
X125303Y135565D02*
Y136835D01*
X128097D01*
Y135565D02*
Y136835D01*
X125303Y135565D02*
X128097D01*
X111803Y135565D02*
Y136835D01*
X114597D01*
Y135565D02*
Y136835D01*
X111803Y135565D02*
X114597D01*
X111803Y133365D02*
Y134635D01*
X114597D01*
Y133365D02*
Y134635D01*
X111803Y133365D02*
X114597D01*
X123497Y144665D02*
Y145935D01*
X120703Y144665D02*
X123497D01*
X120703D02*
Y145935D01*
X123497D01*
Y142865D02*
Y144135D01*
X120703Y142865D02*
X123497D01*
X120703D02*
Y144135D01*
X123497D01*
D14*
X216700Y34800D02*
X217367D01*
X217700Y35133D01*
X217367Y35466D01*
X216700D01*
X216867Y36466D02*
X216700Y36300D01*
Y35966D01*
X216867Y35800D01*
X217533D01*
X217700Y35966D01*
Y36300D01*
X217533Y36466D01*
X216867Y37466D02*
X216700Y37299D01*
Y36966D01*
X216867Y36799D01*
X217533D01*
X217700Y36966D01*
Y37299D01*
X217533Y37466D01*
X220867Y35466D02*
X220700Y35300D01*
Y34967D01*
X220867Y34800D01*
X221533D01*
X221700Y34967D01*
Y35300D01*
X221533Y35466D01*
X221200D01*
Y35133D01*
X221700Y35800D02*
X220700D01*
X221700Y36466D01*
X220700D01*
Y36799D02*
X221700D01*
Y37299D01*
X221533Y37466D01*
X220867D01*
X220700Y37299D01*
Y36799D01*
X206867Y35366D02*
X206700Y35200D01*
Y34867D01*
X206867Y34700D01*
X207533D01*
X207700Y34867D01*
Y35200D01*
X207533Y35366D01*
X207200D01*
Y35033D01*
X207700Y35700D02*
X206700D01*
X207700Y36366D01*
X206700D01*
Y36699D02*
X207700D01*
Y37199D01*
X207533Y37366D01*
X206867D01*
X206700Y37199D01*
Y36699D01*
X202700Y34700D02*
X203367D01*
X203700Y35033D01*
X203367Y35366D01*
X202700D01*
X202867Y36366D02*
X202700Y36200D01*
Y35866D01*
X202867Y35700D01*
X203533D01*
X203700Y35866D01*
Y36200D01*
X203533Y36366D01*
X202867Y37366D02*
X202700Y37199D01*
Y36866D01*
X202867Y36699D01*
X203533D01*
X203700Y36866D01*
Y37199D01*
X203533Y37366D01*
X131300Y57600D02*
X131633D01*
X131467D01*
Y56600D01*
X131300D01*
X131633D01*
X132133D02*
Y57600D01*
X132800Y56600D01*
Y57600D01*
X133133Y56433D02*
X133799D01*
X134132Y56600D02*
Y57600D01*
X134632D01*
X134799Y57433D01*
Y57100D01*
X134632Y56933D01*
X134132D01*
X135799Y57433D02*
X135632Y57600D01*
X135299D01*
X135132Y57433D01*
Y56767D01*
X135299Y56600D01*
X135632D01*
X135799Y56767D01*
X118400Y85200D02*
X118067D01*
X117900Y85033D01*
Y84367D01*
X118067Y84200D01*
X118400D01*
X118566Y84367D01*
Y85033D01*
X118400Y85200D01*
X118900D02*
Y84367D01*
X119066Y84200D01*
X119400D01*
X119566Y84367D01*
Y85200D01*
X119899D02*
X120566D01*
X120233D01*
Y84200D01*
X120899Y84033D02*
X121565D01*
X122565Y85033D02*
X122399Y85200D01*
X122065D01*
X121899Y85033D01*
Y84367D01*
X122065Y84200D01*
X122399D01*
X122565Y84367D01*
X136600Y109400D02*
Y109067D01*
X136767Y108900D01*
X137433D01*
X137600Y109067D01*
Y109400D01*
X137433Y109566D01*
X136767D01*
X136600Y109400D01*
Y109900D02*
X137433D01*
X137600Y110066D01*
Y110400D01*
X137433Y110566D01*
X136600D01*
Y110899D02*
Y111566D01*
Y111233D01*
X137600D01*
X137767Y111899D02*
Y112565D01*
X136600Y112899D02*
X137267D01*
X137600Y113232D01*
X137267Y113565D01*
X136600D01*
X137600Y113898D02*
X136934Y114565D01*
X137600Y115565D02*
Y114898D01*
X136934Y115565D01*
X136767D01*
X136600Y115398D01*
Y115065D01*
X136767Y114898D01*
X134100Y108900D02*
Y109233D01*
Y109067D01*
X135100D01*
Y108900D01*
Y109233D01*
Y109733D02*
X134100D01*
X135100Y110400D01*
X134100D01*
X135267Y110733D02*
Y111399D01*
X134100Y111732D02*
X135100D01*
Y112232D01*
X134933Y112399D01*
X134267D01*
X134100Y112232D01*
Y111732D01*
X135100Y113399D02*
Y112732D01*
X134434Y113399D01*
X134267D01*
X134100Y113232D01*
Y112899D01*
X134267Y112732D01*
X131600Y109400D02*
Y109067D01*
X131767Y108900D01*
X132433D01*
X132600Y109067D01*
Y109400D01*
X132433Y109566D01*
X131767D01*
X131600Y109400D01*
Y109900D02*
X132433D01*
X132600Y110066D01*
Y110400D01*
X132433Y110566D01*
X131600D01*
Y110899D02*
Y111566D01*
Y111233D01*
X132600D01*
X132767Y111899D02*
Y112565D01*
X131600Y112899D02*
X132600D01*
Y113399D01*
X132433Y113565D01*
X131767D01*
X131600Y113399D01*
Y112899D01*
X132600Y113898D02*
Y114232D01*
Y114065D01*
X131600D01*
X131767Y113898D01*
X161266Y114633D02*
X161100Y114800D01*
X160767D01*
X160600Y114633D01*
Y113967D01*
X160767Y113800D01*
X161100D01*
X161266Y113967D01*
Y114300D01*
X160933D01*
X161600Y113800D02*
Y114800D01*
X162266Y113800D01*
Y114800D01*
X162599D02*
Y113800D01*
X163099D01*
X163266Y113967D01*
Y114633D01*
X163099Y114800D01*
X162599D01*
X129000Y108700D02*
Y109033D01*
Y108867D01*
X130000D01*
Y108700D01*
Y109033D01*
Y109533D02*
X129000D01*
X130000Y110200D01*
X129000D01*
X130167Y110533D02*
Y111199D01*
X130000Y111532D02*
X129000D01*
Y112032D01*
X129167Y112199D01*
X129500D01*
X129667Y112032D01*
Y111532D01*
Y111866D02*
X130000Y112199D01*
X203400Y129500D02*
X204066D01*
X203733Y129833D02*
Y129167D01*
X204400Y130000D02*
Y129333D01*
X204733Y129000D01*
X205066Y129333D01*
Y130000D01*
X206066Y129833D02*
X205899Y130000D01*
X205566D01*
X205399Y129833D01*
Y129167D01*
X205566Y129000D01*
X205899D01*
X206066Y129167D01*
X207065Y129833D02*
X206899Y130000D01*
X206566D01*
X206399Y129833D01*
Y129167D01*
X206566Y129000D01*
X206899D01*
X207065Y129167D01*
X207399Y129000D02*
X207732D01*
X207565D01*
Y130000D01*
X207399Y129833D01*
X209900Y129500D02*
X210566D01*
X210900Y130000D02*
Y129333D01*
X211233Y129000D01*
X211566Y129333D01*
Y130000D01*
X212566Y129833D02*
X212399Y130000D01*
X212066D01*
X211899Y129833D01*
Y129167D01*
X212066Y129000D01*
X212399D01*
X212566Y129167D01*
X213565Y129833D02*
X213399Y130000D01*
X213066D01*
X212899Y129833D01*
Y129167D01*
X213066Y129000D01*
X213399D01*
X213565Y129167D01*
X213899Y129000D02*
X214232D01*
X214065D01*
Y130000D01*
X213899Y129833D01*
X220200Y129500D02*
X220866D01*
X220533Y129833D02*
Y129167D01*
X221200Y130000D02*
Y129333D01*
X221533Y129000D01*
X221866Y129333D01*
Y130000D01*
X222866Y129833D02*
X222699Y130000D01*
X222366D01*
X222199Y129833D01*
Y129167D01*
X222366Y129000D01*
X222699D01*
X222866Y129167D01*
X223865Y129833D02*
X223699Y130000D01*
X223366D01*
X223199Y129833D01*
Y129167D01*
X223366Y129000D01*
X223699D01*
X223865Y129167D01*
X224199D02*
X224365Y129000D01*
X224699D01*
X224865Y129167D01*
Y129833D01*
X224699Y130000D01*
X224365D01*
X224199Y129833D01*
Y129666D01*
X224365Y129500D01*
X224865D01*
X229200D02*
X229866D01*
X230200Y130000D02*
Y129333D01*
X230533Y129000D01*
X230866Y129333D01*
Y130000D01*
X231866Y129833D02*
X231699Y130000D01*
X231366D01*
X231199Y129833D01*
Y129167D01*
X231366Y129000D01*
X231699D01*
X231866Y129167D01*
X232865Y129833D02*
X232699Y130000D01*
X232366D01*
X232199Y129833D01*
Y129167D01*
X232366Y129000D01*
X232699D01*
X232865Y129167D01*
X233199D02*
X233365Y129000D01*
X233699D01*
X233865Y129167D01*
Y129833D01*
X233699Y130000D01*
X233365D01*
X233199Y129833D01*
Y129666D01*
X233365Y129500D01*
X233865D01*
X233500Y120900D02*
X232500D01*
X233500Y121566D01*
X232500D01*
X233500Y122566D02*
Y121899D01*
X232834Y122566D01*
X232667D01*
X232500Y122399D01*
Y122066D01*
X232667Y121899D01*
X230100Y118234D02*
Y118900D01*
X229600Y119234D02*
X230267D01*
X230600Y119567D01*
X230267Y119900D01*
X229600D01*
X229767Y120900D02*
X229600Y120733D01*
Y120400D01*
X229767Y120233D01*
X230433D01*
X230600Y120400D01*
Y120733D01*
X230433Y120900D01*
X229767Y121899D02*
X229600Y121733D01*
Y121400D01*
X229767Y121233D01*
X230433D01*
X230600Y121400D01*
Y121733D01*
X230433Y121899D01*
X230600Y122233D02*
Y122566D01*
Y122399D01*
X229600D01*
X229767Y122233D01*
X224500Y120900D02*
X223500D01*
Y121400D01*
X223667Y121566D01*
X224000D01*
X224167Y121400D01*
Y120900D01*
X224500Y122566D02*
Y121899D01*
X223834Y122566D01*
X223667D01*
X223500Y122399D01*
Y122066D01*
X223667Y121899D01*
X221500Y121233D02*
X220500D01*
Y121733D01*
X220667Y121899D01*
X221000D01*
X221167Y121733D01*
Y121233D01*
X221500Y122233D02*
Y122566D01*
Y122399D01*
X220500D01*
X220667Y122233D01*
X213167Y120566D02*
X213000Y120400D01*
Y120067D01*
X213167Y119900D01*
X213833D01*
X214000Y120067D01*
Y120400D01*
X213833Y120566D01*
X213500D01*
Y120233D01*
X214000Y120900D02*
X213000D01*
X214000Y121566D01*
X213000D01*
Y121899D02*
X214000D01*
Y122399D01*
X213833Y122566D01*
X213167D01*
X213000Y122399D01*
Y121899D01*
X210900Y121233D02*
X209900D01*
X210900Y121899D01*
X209900D01*
X210900Y122233D02*
Y122566D01*
Y122399D01*
X209900D01*
X210067Y122233D01*
X205800Y121233D02*
X204800D01*
Y121733D01*
X204967Y121899D01*
X205300D01*
X205467Y121733D01*
Y121233D01*
X205800Y122233D02*
Y122566D01*
Y122399D01*
X204800D01*
X204967Y122233D01*
X125600Y56400D02*
Y57400D01*
X126100D01*
X126266Y57233D01*
Y56900D01*
X126100Y56733D01*
X125600D01*
X127266Y57400D02*
X126600D01*
Y56900D01*
X126933Y57066D01*
X127100D01*
X127266Y56900D01*
Y56567D01*
X127100Y56400D01*
X126766D01*
X126600Y56567D01*
X157836Y116281D02*
Y117281D01*
X158335D01*
X158502Y117114D01*
Y116781D01*
X158335Y116614D01*
X157836D01*
X159335Y116281D02*
Y117281D01*
X158835Y116781D01*
X159502D01*
X112300Y84100D02*
Y85100D01*
X112800D01*
X112966Y84933D01*
Y84600D01*
X112800Y84433D01*
X112300D01*
X113300Y84933D02*
X113466Y85100D01*
X113800D01*
X113966Y84933D01*
Y84766D01*
X113800Y84600D01*
X113633D01*
X113800D01*
X113966Y84433D01*
Y84267D01*
X113800Y84100D01*
X113466D01*
X113300Y84267D01*
X128000Y97300D02*
Y98300D01*
X128500D01*
X128666Y98133D01*
Y97800D01*
X128500Y97633D01*
X128000D01*
X129666Y97300D02*
X129000D01*
X129666Y97966D01*
Y98133D01*
X129500Y98300D01*
X129166D01*
X129000Y98133D01*
X122225Y123576D02*
Y124575D01*
X122725D01*
X122891Y124409D01*
Y124076D01*
X122725Y123909D01*
X122225D01*
X123224Y123576D02*
X123558D01*
X123391D01*
Y124575D01*
X123224Y124409D01*
X138400Y104100D02*
Y105100D01*
X138900D01*
X139066Y104933D01*
Y104600D01*
X138900Y104433D01*
X138400D01*
X138733D02*
X139066Y104100D01*
X139400D02*
X139733D01*
X139566D01*
Y105100D01*
X139400Y104933D01*
X140233D02*
X140399Y105100D01*
X140733D01*
X140899Y104933D01*
Y104267D01*
X140733Y104100D01*
X140399D01*
X140233Y104267D01*
Y104933D01*
X134300Y100600D02*
Y101600D01*
X134800D01*
X134966Y101433D01*
Y101100D01*
X134800Y100933D01*
X134300D01*
X134633D02*
X134966Y100600D01*
X135300Y100767D02*
X135466Y100600D01*
X135800D01*
X135966Y100767D01*
Y101433D01*
X135800Y101600D01*
X135466D01*
X135300Y101433D01*
Y101266D01*
X135466Y101100D01*
X135966D01*
X111712Y117804D02*
Y118804D01*
X112212D01*
X112378Y118637D01*
Y118304D01*
X112212Y118137D01*
X111712D01*
X112045D02*
X112378Y117804D01*
X113378Y118804D02*
X113045Y118637D01*
X112712Y118304D01*
Y117971D01*
X112878Y117804D01*
X113212D01*
X113378Y117971D01*
Y118137D01*
X113212Y118304D01*
X112712D01*
X152900Y99500D02*
Y100500D01*
X153400D01*
X153566Y100333D01*
Y100000D01*
X153400Y99833D01*
X152900D01*
X153233D02*
X153566Y99500D01*
X154400D02*
Y100500D01*
X153900Y100000D01*
X154566D01*
X142466Y107600D02*
X142133D01*
X142300D01*
Y106767D01*
X142133Y106600D01*
X141967D01*
X141800Y106767D01*
X142800Y107433D02*
X142966Y107600D01*
X143300D01*
X143466Y107433D01*
Y107266D01*
X143300Y107100D01*
X143133D01*
X143300D01*
X143466Y106933D01*
Y106767D01*
X143300Y106600D01*
X142966D01*
X142800Y106767D01*
X131609Y127128D02*
X131275D01*
X131442D01*
Y126295D01*
X131275Y126128D01*
X131109D01*
X130942Y126295D01*
X132608Y126128D02*
X131942D01*
X132608Y126795D01*
Y126961D01*
X132442Y127128D01*
X132108D01*
X131942Y126961D01*
X158092Y97113D02*
X157759D01*
X157926D01*
Y96280D01*
X157759Y96114D01*
X157592D01*
X157426Y96280D01*
X158425Y96114D02*
X158759D01*
X158592D01*
Y97113D01*
X158425Y96947D01*
X204857Y57683D02*
X204690Y57850D01*
X204357D01*
X204191Y57683D01*
Y57017D01*
X204357Y56850D01*
X204690D01*
X204857Y57017D01*
X205190Y57683D02*
X205357Y57850D01*
X205690D01*
X205857Y57683D01*
Y57516D01*
X205690Y57350D01*
X205523D01*
X205690D01*
X205857Y57183D01*
Y57017D01*
X205690Y56850D01*
X205357D01*
X205190Y57017D01*
X124892Y44100D02*
X125558Y43100D01*
Y44100D02*
X124892Y43100D01*
X126558Y43933D02*
X126391Y44100D01*
X126058D01*
X125891Y43933D01*
Y43767D01*
X126058Y43600D01*
X126391D01*
X126558Y43433D01*
Y43267D01*
X126391Y43100D01*
X126058D01*
X125891Y43267D01*
X126891Y43100D02*
X127224D01*
X127058D01*
Y44100D01*
X126891Y43933D01*
X213000Y27700D02*
X214000Y28366D01*
X213000D02*
X214000Y27700D01*
Y28700D02*
X213000D01*
Y29200D01*
X213167Y29366D01*
X213500D01*
X213667Y29200D01*
Y28700D01*
X214000Y30366D02*
Y29699D01*
X213334Y30366D01*
X213167D01*
X213000Y30199D01*
Y29866D01*
X213167Y29699D01*
X198800Y27700D02*
X199800Y28366D01*
X198800D02*
X199800Y27700D01*
Y28700D02*
X198800D01*
Y29200D01*
X198967Y29366D01*
X199300D01*
X199467Y29200D01*
Y28700D01*
X199800Y29699D02*
Y30033D01*
Y29866D01*
X198800D01*
X198967Y29699D01*
X336000Y170750D02*
Y171750D01*
X336500D01*
X336666Y171583D01*
Y171250D01*
X336500Y171083D01*
X336000D01*
X336333D02*
X336666Y170750D01*
X337000Y171583D02*
X337166Y171750D01*
X337500D01*
X337666Y171583D01*
Y171416D01*
X337500Y171250D01*
X337666Y171083D01*
Y170917D01*
X337500Y170750D01*
X337166D01*
X337000Y170917D01*
Y171083D01*
X337166Y171250D01*
X337000Y171416D01*
Y171583D01*
X337166Y171250D02*
X337500D01*
X337999Y171583D02*
X338166Y171750D01*
X338499D01*
X338666Y171583D01*
Y171416D01*
X338499Y171250D01*
X338333D01*
X338499D01*
X338666Y171083D01*
Y170917D01*
X338499Y170750D01*
X338166D01*
X337999Y170917D01*
X322500Y170750D02*
Y171750D01*
X323000D01*
X323166Y171583D01*
Y171250D01*
X323000Y171083D01*
X322500D01*
X322833D02*
X323166Y170750D01*
X323500Y171750D02*
X324166D01*
Y171583D01*
X323500Y170917D01*
Y170750D01*
X324499Y170917D02*
X324666Y170750D01*
X324999D01*
X325166Y170917D01*
Y171583D01*
X324999Y171750D01*
X324666D01*
X324499Y171583D01*
Y171416D01*
X324666Y171250D01*
X325166D01*
X309000Y170750D02*
Y171750D01*
X309500D01*
X309666Y171583D01*
Y171250D01*
X309500Y171083D01*
X309000D01*
X309333D02*
X309666Y170750D01*
X310000Y171750D02*
X310666D01*
Y171583D01*
X310000Y170917D01*
Y170750D01*
X311666Y171750D02*
X310999D01*
Y171250D01*
X311333Y171416D01*
X311499D01*
X311666Y171250D01*
Y170917D01*
X311499Y170750D01*
X311166D01*
X310999Y170917D01*
X295500Y170750D02*
Y171750D01*
X296000D01*
X296166Y171583D01*
Y171250D01*
X296000Y171083D01*
X295500D01*
X295833D02*
X296166Y170750D01*
X296500Y171750D02*
X297166D01*
Y171583D01*
X296500Y170917D01*
Y170750D01*
X297499D02*
X297833D01*
X297666D01*
Y171750D01*
X297499Y171583D01*
X282000Y170750D02*
Y171750D01*
X282500D01*
X282666Y171583D01*
Y171250D01*
X282500Y171083D01*
X282000D01*
X282333D02*
X282666Y170750D01*
X283666Y171750D02*
X283333Y171583D01*
X283000Y171250D01*
Y170917D01*
X283166Y170750D01*
X283500D01*
X283666Y170917D01*
Y171083D01*
X283500Y171250D01*
X283000D01*
X283999Y171750D02*
X284666D01*
Y171583D01*
X283999Y170917D01*
Y170750D01*
X268500D02*
Y171750D01*
X269000D01*
X269166Y171583D01*
Y171250D01*
X269000Y171083D01*
X268500D01*
X268833D02*
X269166Y170750D01*
X270166Y171750D02*
X269833Y171583D01*
X269500Y171250D01*
Y170917D01*
X269666Y170750D01*
X270000D01*
X270166Y170917D01*
Y171083D01*
X270000Y171250D01*
X269500D01*
X270499Y171583D02*
X270666Y171750D01*
X270999D01*
X271166Y171583D01*
Y171416D01*
X270999Y171250D01*
X270833D01*
X270999D01*
X271166Y171083D01*
Y170917D01*
X270999Y170750D01*
X270666D01*
X270499Y170917D01*
X255000Y170750D02*
Y171750D01*
X255500D01*
X255666Y171583D01*
Y171250D01*
X255500Y171083D01*
X255000D01*
X255333D02*
X255666Y170750D01*
X256666Y171750D02*
X256000D01*
Y171250D01*
X256333Y171416D01*
X256500D01*
X256666Y171250D01*
Y170917D01*
X256500Y170750D01*
X256166D01*
X256000Y170917D01*
X256999D02*
X257166Y170750D01*
X257499D01*
X257666Y170917D01*
Y171583D01*
X257499Y171750D01*
X257166D01*
X256999Y171583D01*
Y171416D01*
X257166Y171250D01*
X257666D01*
X241500Y170750D02*
Y171750D01*
X242000D01*
X242166Y171583D01*
Y171250D01*
X242000Y171083D01*
X241500D01*
X241833D02*
X242166Y170750D01*
X243166Y171750D02*
X242500D01*
Y171250D01*
X242833Y171416D01*
X243000D01*
X243166Y171250D01*
Y170917D01*
X243000Y170750D01*
X242666D01*
X242500Y170917D01*
X244166Y171750D02*
X243499D01*
Y171250D01*
X243833Y171416D01*
X243999D01*
X244166Y171250D01*
Y170917D01*
X243999Y170750D01*
X243666D01*
X243499Y170917D01*
X228000Y170750D02*
Y171750D01*
X228500D01*
X228666Y171583D01*
Y171250D01*
X228500Y171083D01*
X228000D01*
X228333D02*
X228666Y170750D01*
X229666Y171750D02*
X229000D01*
Y171250D01*
X229333Y171416D01*
X229500D01*
X229666Y171250D01*
Y170917D01*
X229500Y170750D01*
X229166D01*
X229000Y170917D01*
X229999Y170750D02*
X230333D01*
X230166D01*
Y171750D01*
X229999Y171583D01*
X214500Y170750D02*
Y171750D01*
X215000D01*
X215166Y171583D01*
Y171250D01*
X215000Y171083D01*
X214500D01*
X214833D02*
X215166Y170750D01*
X216000D02*
Y171750D01*
X215500Y171250D01*
X216166D01*
X216499Y171750D02*
X217166D01*
Y171583D01*
X216499Y170917D01*
Y170750D01*
X201000D02*
Y171750D01*
X201500D01*
X201666Y171583D01*
Y171250D01*
X201500Y171083D01*
X201000D01*
X201333D02*
X201666Y170750D01*
X202500D02*
Y171750D01*
X202000Y171250D01*
X202666D01*
X202999Y171583D02*
X203166Y171750D01*
X203499D01*
X203666Y171583D01*
Y171416D01*
X203499Y171250D01*
X203333D01*
X203499D01*
X203666Y171083D01*
Y170917D01*
X203499Y170750D01*
X203166D01*
X202999Y170917D01*
X187500Y170750D02*
Y171750D01*
X188000D01*
X188166Y171583D01*
Y171250D01*
X188000Y171083D01*
X187500D01*
X187833D02*
X188166Y170750D01*
X188500Y171583D02*
X188666Y171750D01*
X189000D01*
X189166Y171583D01*
Y171416D01*
X189000Y171250D01*
X188833D01*
X189000D01*
X189166Y171083D01*
Y170917D01*
X189000Y170750D01*
X188666D01*
X188500Y170917D01*
X189499D02*
X189666Y170750D01*
X189999D01*
X190166Y170917D01*
Y171583D01*
X189999Y171750D01*
X189666D01*
X189499Y171583D01*
Y171416D01*
X189666Y171250D01*
X190166D01*
X174000Y170750D02*
Y171750D01*
X174500D01*
X174666Y171583D01*
Y171250D01*
X174500Y171083D01*
X174000D01*
X174333D02*
X174666Y170750D01*
X175000Y171583D02*
X175166Y171750D01*
X175500D01*
X175666Y171583D01*
Y171416D01*
X175500Y171250D01*
X175333D01*
X175500D01*
X175666Y171083D01*
Y170917D01*
X175500Y170750D01*
X175166D01*
X175000Y170917D01*
X176666Y171750D02*
X175999D01*
Y171250D01*
X176333Y171416D01*
X176499D01*
X176666Y171250D01*
Y170917D01*
X176499Y170750D01*
X176166D01*
X175999Y170917D01*
X160500Y170750D02*
Y171750D01*
X161000D01*
X161166Y171583D01*
Y171250D01*
X161000Y171083D01*
X160500D01*
X160833D02*
X161166Y170750D01*
X161500Y171583D02*
X161666Y171750D01*
X162000D01*
X162166Y171583D01*
Y171416D01*
X162000Y171250D01*
X161833D01*
X162000D01*
X162166Y171083D01*
Y170917D01*
X162000Y170750D01*
X161666D01*
X161500Y170917D01*
X162499Y170750D02*
X162833D01*
X162666D01*
Y171750D01*
X162499Y171583D01*
X147000Y170750D02*
Y171750D01*
X147500D01*
X147666Y171583D01*
Y171250D01*
X147500Y171083D01*
X147000D01*
X147333D02*
X147666Y170750D01*
X148666D02*
X148000D01*
X148666Y171416D01*
Y171583D01*
X148500Y171750D01*
X148166D01*
X148000Y171583D01*
X148999Y171750D02*
X149666D01*
Y171583D01*
X148999Y170917D01*
Y170750D01*
X133500D02*
Y171750D01*
X134000D01*
X134166Y171583D01*
Y171250D01*
X134000Y171083D01*
X133500D01*
X133833D02*
X134166Y170750D01*
X135166D02*
X134500D01*
X135166Y171416D01*
Y171583D01*
X135000Y171750D01*
X134666D01*
X134500Y171583D01*
X135499D02*
X135666Y171750D01*
X135999D01*
X136166Y171583D01*
Y171416D01*
X135999Y171250D01*
X135833D01*
X135999D01*
X136166Y171083D01*
Y170917D01*
X135999Y170750D01*
X135666D01*
X135499Y170917D01*
X120000Y170750D02*
Y171750D01*
X120500D01*
X120666Y171583D01*
Y171250D01*
X120500Y171083D01*
X120000D01*
X120333D02*
X120666Y170750D01*
X121000D02*
X121333D01*
X121166D01*
Y171750D01*
X121000Y171583D01*
X122499Y171750D02*
X121833D01*
Y171250D01*
X122166Y171416D01*
X122333D01*
X122499Y171250D01*
Y170917D01*
X122333Y170750D01*
X121999D01*
X121833Y170917D01*
X332500Y144500D02*
X331500D01*
Y145000D01*
X331667Y145166D01*
X332000D01*
X332167Y145000D01*
Y144500D01*
Y144833D02*
X332500Y145166D01*
X331667Y145500D02*
X331500Y145666D01*
Y146000D01*
X331667Y146166D01*
X331834D01*
X332000Y146000D01*
X332167Y146166D01*
X332333D01*
X332500Y146000D01*
Y145666D01*
X332333Y145500D01*
X332167D01*
X332000Y145666D01*
X331834Y145500D01*
X331667D01*
X332000Y145666D02*
Y146000D01*
X332500Y147166D02*
Y146499D01*
X331834Y147166D01*
X331667D01*
X331500Y146999D01*
Y146666D01*
X331667Y146499D01*
X319000Y144500D02*
X318000D01*
Y145000D01*
X318167Y145166D01*
X318500D01*
X318667Y145000D01*
Y144500D01*
Y144833D02*
X319000Y145166D01*
X318000Y145500D02*
Y146166D01*
X318167D01*
X318833Y145500D01*
X319000D01*
X318167Y146499D02*
X318000Y146666D01*
Y146999D01*
X318167Y147166D01*
X318334D01*
X318500Y146999D01*
X318667Y147166D01*
X318833D01*
X319000Y146999D01*
Y146666D01*
X318833Y146499D01*
X318667D01*
X318500Y146666D01*
X318334Y146499D01*
X318167D01*
X318500Y146666D02*
Y146999D01*
X305500Y144500D02*
X304500D01*
Y145000D01*
X304667Y145166D01*
X305000D01*
X305167Y145000D01*
Y144500D01*
Y144833D02*
X305500Y145166D01*
X304500Y145500D02*
Y146166D01*
X304667D01*
X305333Y145500D01*
X305500D01*
Y146999D02*
X304500D01*
X305000Y146499D01*
Y147166D01*
X292000Y144500D02*
X291000D01*
Y145000D01*
X291167Y145166D01*
X291500D01*
X291667Y145000D01*
Y144500D01*
Y144833D02*
X292000Y145166D01*
X291000Y145500D02*
Y146166D01*
X291167D01*
X291833Y145500D01*
X292000D01*
X291167Y146499D02*
X291000Y146666D01*
Y146999D01*
X291167Y147166D01*
X291833D01*
X292000Y146999D01*
Y146666D01*
X291833Y146499D01*
X291167D01*
X278500Y144500D02*
X277500D01*
Y145000D01*
X277667Y145166D01*
X278000D01*
X278167Y145000D01*
Y144500D01*
Y144833D02*
X278500Y145166D01*
X277500Y146166D02*
X277667Y145833D01*
X278000Y145500D01*
X278333D01*
X278500Y145666D01*
Y146000D01*
X278333Y146166D01*
X278167D01*
X278000Y146000D01*
Y145500D01*
X277500Y147166D02*
X277667Y146833D01*
X278000Y146499D01*
X278333D01*
X278500Y146666D01*
Y146999D01*
X278333Y147166D01*
X278167D01*
X278000Y146999D01*
Y146499D01*
X265000Y144500D02*
X264000D01*
Y145000D01*
X264167Y145166D01*
X264500D01*
X264667Y145000D01*
Y144500D01*
Y144833D02*
X265000Y145166D01*
X264000Y146166D02*
X264167Y145833D01*
X264500Y145500D01*
X264833D01*
X265000Y145666D01*
Y146000D01*
X264833Y146166D01*
X264667D01*
X264500Y146000D01*
Y145500D01*
X265000Y147166D02*
Y146499D01*
X264334Y147166D01*
X264167D01*
X264000Y146999D01*
Y146666D01*
X264167Y146499D01*
X251500Y144500D02*
X250500D01*
Y145000D01*
X250667Y145166D01*
X251000D01*
X251167Y145000D01*
Y144500D01*
Y144833D02*
X251500Y145166D01*
X250500Y146166D02*
Y145500D01*
X251000D01*
X250834Y145833D01*
Y146000D01*
X251000Y146166D01*
X251333D01*
X251500Y146000D01*
Y145666D01*
X251333Y145500D01*
X250667Y146499D02*
X250500Y146666D01*
Y146999D01*
X250667Y147166D01*
X250834D01*
X251000Y146999D01*
X251167Y147166D01*
X251333D01*
X251500Y146999D01*
Y146666D01*
X251333Y146499D01*
X251167D01*
X251000Y146666D01*
X250834Y146499D01*
X250667D01*
X251000Y146666D02*
Y146999D01*
X238000Y144500D02*
X237000D01*
Y145000D01*
X237167Y145166D01*
X237500D01*
X237667Y145000D01*
Y144500D01*
Y144833D02*
X238000Y145166D01*
X237000Y146166D02*
Y145500D01*
X237500D01*
X237334Y145833D01*
Y146000D01*
X237500Y146166D01*
X237833D01*
X238000Y146000D01*
Y145666D01*
X237833Y145500D01*
X238000Y146999D02*
X237000D01*
X237500Y146499D01*
Y147166D01*
X224500Y144500D02*
X223500D01*
Y145000D01*
X223667Y145166D01*
X224000D01*
X224167Y145000D01*
Y144500D01*
Y144833D02*
X224500Y145166D01*
X223500Y146166D02*
Y145500D01*
X224000D01*
X223834Y145833D01*
Y146000D01*
X224000Y146166D01*
X224333D01*
X224500Y146000D01*
Y145666D01*
X224333Y145500D01*
X223667Y146499D02*
X223500Y146666D01*
Y146999D01*
X223667Y147166D01*
X224333D01*
X224500Y146999D01*
Y146666D01*
X224333Y146499D01*
X223667D01*
X211000Y144500D02*
X210000D01*
Y145000D01*
X210167Y145166D01*
X210500D01*
X210667Y145000D01*
Y144500D01*
Y144833D02*
X211000Y145166D01*
Y146000D02*
X210000D01*
X210500Y145500D01*
Y146166D01*
X210000Y147166D02*
X210167Y146833D01*
X210500Y146499D01*
X210833D01*
X211000Y146666D01*
Y146999D01*
X210833Y147166D01*
X210667D01*
X210500Y146999D01*
Y146499D01*
X197500Y144500D02*
X196500D01*
Y145000D01*
X196667Y145166D01*
X197000D01*
X197167Y145000D01*
Y144500D01*
Y144833D02*
X197500Y145166D01*
Y146000D02*
X196500D01*
X197000Y145500D01*
Y146166D01*
X197500Y147166D02*
Y146499D01*
X196834Y147166D01*
X196667D01*
X196500Y146999D01*
Y146666D01*
X196667Y146499D01*
X184000Y144500D02*
X183000D01*
Y145000D01*
X183167Y145166D01*
X183500D01*
X183667Y145000D01*
Y144500D01*
Y144833D02*
X184000Y145166D01*
X183167Y145500D02*
X183000Y145666D01*
Y146000D01*
X183167Y146166D01*
X183334D01*
X183500Y146000D01*
Y145833D01*
Y146000D01*
X183667Y146166D01*
X183833D01*
X184000Y146000D01*
Y145666D01*
X183833Y145500D01*
X183167Y146499D02*
X183000Y146666D01*
Y146999D01*
X183167Y147166D01*
X183334D01*
X183500Y146999D01*
X183667Y147166D01*
X183833D01*
X184000Y146999D01*
Y146666D01*
X183833Y146499D01*
X183667D01*
X183500Y146666D01*
X183334Y146499D01*
X183167D01*
X183500Y146666D02*
Y146999D01*
X170500Y144500D02*
X169500D01*
Y145000D01*
X169667Y145166D01*
X170000D01*
X170167Y145000D01*
Y144500D01*
Y144833D02*
X170500Y145166D01*
X169667Y145500D02*
X169500Y145666D01*
Y146000D01*
X169667Y146166D01*
X169834D01*
X170000Y146000D01*
Y145833D01*
Y146000D01*
X170167Y146166D01*
X170333D01*
X170500Y146000D01*
Y145666D01*
X170333Y145500D01*
X170500Y146999D02*
X169500D01*
X170000Y146499D01*
Y147166D01*
X157000Y144500D02*
X156000D01*
Y145000D01*
X156167Y145166D01*
X156500D01*
X156667Y145000D01*
Y144500D01*
Y144833D02*
X157000Y145166D01*
X156167Y145500D02*
X156000Y145666D01*
Y146000D01*
X156167Y146166D01*
X156334D01*
X156500Y146000D01*
Y145833D01*
Y146000D01*
X156667Y146166D01*
X156833D01*
X157000Y146000D01*
Y145666D01*
X156833Y145500D01*
X156167Y146499D02*
X156000Y146666D01*
Y146999D01*
X156167Y147166D01*
X156833D01*
X157000Y146999D01*
Y146666D01*
X156833Y146499D01*
X156167D01*
X143500Y144500D02*
X142500D01*
Y145000D01*
X142667Y145166D01*
X143000D01*
X143167Y145000D01*
Y144500D01*
Y144833D02*
X143500Y145166D01*
Y146166D02*
Y145500D01*
X142834Y146166D01*
X142667D01*
X142500Y146000D01*
Y145666D01*
X142667Y145500D01*
X142500Y147166D02*
X142667Y146833D01*
X143000Y146499D01*
X143333D01*
X143500Y146666D01*
Y146999D01*
X143333Y147166D01*
X143167D01*
X143000Y146999D01*
Y146499D01*
X130000Y144500D02*
X129000D01*
Y145000D01*
X129167Y145166D01*
X129500D01*
X129667Y145000D01*
Y144500D01*
Y144833D02*
X130000Y145166D01*
Y146166D02*
Y145500D01*
X129334Y146166D01*
X129167D01*
X129000Y146000D01*
Y145666D01*
X129167Y145500D01*
X130000Y147166D02*
Y146499D01*
X129334Y147166D01*
X129167D01*
X129000Y146999D01*
Y146666D01*
X129167Y146499D01*
X116500Y144500D02*
X115500D01*
Y145000D01*
X115667Y145166D01*
X116000D01*
X116167Y145000D01*
Y144500D01*
Y144833D02*
X116500Y145166D01*
Y145500D02*
Y145833D01*
Y145666D01*
X115500D01*
X115667Y145500D01*
X116500Y146833D02*
X115500D01*
X116000Y146333D01*
Y146999D01*
X330750Y170750D02*
Y171750D01*
X331250D01*
X331416Y171583D01*
Y171250D01*
X331250Y171083D01*
X330750D01*
X331083D02*
X331416Y170750D01*
X331750Y171583D02*
X331916Y171750D01*
X332250D01*
X332416Y171583D01*
Y171416D01*
X332250Y171250D01*
X332416Y171083D01*
Y170917D01*
X332250Y170750D01*
X331916D01*
X331750Y170917D01*
Y171083D01*
X331916Y171250D01*
X331750Y171416D01*
Y171583D01*
X331916Y171250D02*
X332250D01*
X332749Y170750D02*
X333083D01*
X332916D01*
Y171750D01*
X332749Y171583D01*
X317250Y170750D02*
Y171750D01*
X317750D01*
X317916Y171583D01*
Y171250D01*
X317750Y171083D01*
X317250D01*
X317583D02*
X317916Y170750D01*
X318250Y171750D02*
X318916D01*
Y171583D01*
X318250Y170917D01*
Y170750D01*
X319249Y171750D02*
X319916D01*
Y171583D01*
X319249Y170917D01*
Y170750D01*
X303750D02*
Y171750D01*
X304250D01*
X304416Y171583D01*
Y171250D01*
X304250Y171083D01*
X303750D01*
X304083D02*
X304416Y170750D01*
X304750Y171750D02*
X305416D01*
Y171583D01*
X304750Y170917D01*
Y170750D01*
X305749Y171583D02*
X305916Y171750D01*
X306249D01*
X306416Y171583D01*
Y171416D01*
X306249Y171250D01*
X306083D01*
X306249D01*
X306416Y171083D01*
Y170917D01*
X306249Y170750D01*
X305916D01*
X305749Y170917D01*
X290250Y170750D02*
Y171750D01*
X290750D01*
X290916Y171583D01*
Y171250D01*
X290750Y171083D01*
X290250D01*
X290583D02*
X290916Y170750D01*
X291916Y171750D02*
X291583Y171583D01*
X291250Y171250D01*
Y170917D01*
X291416Y170750D01*
X291750D01*
X291916Y170917D01*
Y171083D01*
X291750Y171250D01*
X291250D01*
X292249Y170917D02*
X292416Y170750D01*
X292749D01*
X292916Y170917D01*
Y171583D01*
X292749Y171750D01*
X292416D01*
X292249Y171583D01*
Y171416D01*
X292416Y171250D01*
X292916D01*
X276750Y170750D02*
Y171750D01*
X277250D01*
X277416Y171583D01*
Y171250D01*
X277250Y171083D01*
X276750D01*
X277083D02*
X277416Y170750D01*
X278416Y171750D02*
X278083Y171583D01*
X277750Y171250D01*
Y170917D01*
X277916Y170750D01*
X278250D01*
X278416Y170917D01*
Y171083D01*
X278250Y171250D01*
X277750D01*
X279416Y171750D02*
X278749D01*
Y171250D01*
X279083Y171416D01*
X279249D01*
X279416Y171250D01*
Y170917D01*
X279249Y170750D01*
X278916D01*
X278749Y170917D01*
X263250Y170750D02*
Y171750D01*
X263750D01*
X263916Y171583D01*
Y171250D01*
X263750Y171083D01*
X263250D01*
X263583D02*
X263916Y170750D01*
X264916Y171750D02*
X264583Y171583D01*
X264250Y171250D01*
Y170917D01*
X264416Y170750D01*
X264750D01*
X264916Y170917D01*
Y171083D01*
X264750Y171250D01*
X264250D01*
X265249Y170750D02*
X265583D01*
X265416D01*
Y171750D01*
X265249Y171583D01*
X249750Y170750D02*
Y171750D01*
X250250D01*
X250416Y171583D01*
Y171250D01*
X250250Y171083D01*
X249750D01*
X250083D02*
X250416Y170750D01*
X251416Y171750D02*
X250750D01*
Y171250D01*
X251083Y171416D01*
X251250D01*
X251416Y171250D01*
Y170917D01*
X251250Y170750D01*
X250916D01*
X250750Y170917D01*
X251749Y171750D02*
X252416D01*
Y171583D01*
X251749Y170917D01*
Y170750D01*
X236250D02*
Y171750D01*
X236750D01*
X236916Y171583D01*
Y171250D01*
X236750Y171083D01*
X236250D01*
X236583D02*
X236916Y170750D01*
X237916Y171750D02*
X237250D01*
Y171250D01*
X237583Y171416D01*
X237750D01*
X237916Y171250D01*
Y170917D01*
X237750Y170750D01*
X237416D01*
X237250Y170917D01*
X238249Y171583D02*
X238416Y171750D01*
X238749D01*
X238916Y171583D01*
Y171416D01*
X238749Y171250D01*
X238583D01*
X238749D01*
X238916Y171083D01*
Y170917D01*
X238749Y170750D01*
X238416D01*
X238249Y170917D01*
X222750Y170750D02*
Y171750D01*
X223250D01*
X223416Y171583D01*
Y171250D01*
X223250Y171083D01*
X222750D01*
X223083D02*
X223416Y170750D01*
X224250D02*
Y171750D01*
X223750Y171250D01*
X224416D01*
X224749Y170917D02*
X224916Y170750D01*
X225249D01*
X225416Y170917D01*
Y171583D01*
X225249Y171750D01*
X224916D01*
X224749Y171583D01*
Y171416D01*
X224916Y171250D01*
X225416D01*
X209250Y170750D02*
Y171750D01*
X209750D01*
X209916Y171583D01*
Y171250D01*
X209750Y171083D01*
X209250D01*
X209583D02*
X209916Y170750D01*
X210750D02*
Y171750D01*
X210250Y171250D01*
X210916D01*
X211916Y171750D02*
X211249D01*
Y171250D01*
X211583Y171416D01*
X211749D01*
X211916Y171250D01*
Y170917D01*
X211749Y170750D01*
X211416D01*
X211249Y170917D01*
X195750Y170750D02*
Y171750D01*
X196250D01*
X196416Y171583D01*
Y171250D01*
X196250Y171083D01*
X195750D01*
X196083D02*
X196416Y170750D01*
X197250D02*
Y171750D01*
X196750Y171250D01*
X197416D01*
X197749Y170750D02*
X198083D01*
X197916D01*
Y171750D01*
X197749Y171583D01*
X182250Y170750D02*
Y171750D01*
X182750D01*
X182916Y171583D01*
Y171250D01*
X182750Y171083D01*
X182250D01*
X182583D02*
X182916Y170750D01*
X183250Y171583D02*
X183416Y171750D01*
X183750D01*
X183916Y171583D01*
Y171416D01*
X183750Y171250D01*
X183583D01*
X183750D01*
X183916Y171083D01*
Y170917D01*
X183750Y170750D01*
X183416D01*
X183250Y170917D01*
X184249Y171750D02*
X184916D01*
Y171583D01*
X184249Y170917D01*
Y170750D01*
X168750D02*
Y171750D01*
X169250D01*
X169416Y171583D01*
Y171250D01*
X169250Y171083D01*
X168750D01*
X169083D02*
X169416Y170750D01*
X169750Y171583D02*
X169916Y171750D01*
X170250D01*
X170416Y171583D01*
Y171416D01*
X170250Y171250D01*
X170083D01*
X170250D01*
X170416Y171083D01*
Y170917D01*
X170250Y170750D01*
X169916D01*
X169750Y170917D01*
X170749Y171583D02*
X170916Y171750D01*
X171249D01*
X171416Y171583D01*
Y171416D01*
X171249Y171250D01*
X171083D01*
X171249D01*
X171416Y171083D01*
Y170917D01*
X171249Y170750D01*
X170916D01*
X170749Y170917D01*
X155250Y170750D02*
Y171750D01*
X155750D01*
X155916Y171583D01*
Y171250D01*
X155750Y171083D01*
X155250D01*
X155583D02*
X155916Y170750D01*
X156916D02*
X156250D01*
X156916Y171416D01*
Y171583D01*
X156750Y171750D01*
X156416D01*
X156250Y171583D01*
X157249Y170917D02*
X157416Y170750D01*
X157749D01*
X157916Y170917D01*
Y171583D01*
X157749Y171750D01*
X157416D01*
X157249Y171583D01*
Y171416D01*
X157416Y171250D01*
X157916D01*
X141750Y170750D02*
Y171750D01*
X142250D01*
X142416Y171583D01*
Y171250D01*
X142250Y171083D01*
X141750D01*
X142083D02*
X142416Y170750D01*
X143416D02*
X142750D01*
X143416Y171416D01*
Y171583D01*
X143250Y171750D01*
X142916D01*
X142750Y171583D01*
X144416Y171750D02*
X143749D01*
Y171250D01*
X144083Y171416D01*
X144249D01*
X144416Y171250D01*
Y170917D01*
X144249Y170750D01*
X143916D01*
X143749Y170917D01*
X128250Y170750D02*
Y171750D01*
X128750D01*
X128916Y171583D01*
Y171250D01*
X128750Y171083D01*
X128250D01*
X128583D02*
X128916Y170750D01*
X129916D02*
X129250D01*
X129916Y171416D01*
Y171583D01*
X129750Y171750D01*
X129416D01*
X129250Y171583D01*
X130249Y170750D02*
X130583D01*
X130416D01*
Y171750D01*
X130249Y171583D01*
X114750Y170750D02*
Y171750D01*
X115250D01*
X115416Y171583D01*
Y171250D01*
X115250Y171083D01*
X114750D01*
X115083D02*
X115416Y170750D01*
X115750D02*
X116083D01*
X115916D01*
Y171750D01*
X115750Y171583D01*
X116583D02*
X116749Y171750D01*
X117083D01*
X117249Y171583D01*
Y171416D01*
X117083Y171250D01*
X116916D01*
X117083D01*
X117249Y171083D01*
Y170917D01*
X117083Y170750D01*
X116749D01*
X116583Y170917D01*
X328925Y144300D02*
X327925D01*
Y144800D01*
X328092Y144966D01*
X328425D01*
X328592Y144800D01*
Y144300D01*
Y144633D02*
X328925Y144966D01*
X328092Y145300D02*
X327925Y145466D01*
Y145800D01*
X328092Y145966D01*
X328259D01*
X328425Y145800D01*
X328592Y145966D01*
X328758D01*
X328925Y145800D01*
Y145466D01*
X328758Y145300D01*
X328592D01*
X328425Y145466D01*
X328259Y145300D01*
X328092D01*
X328425Y145466D02*
Y145800D01*
X328092Y146299D02*
X327925Y146466D01*
Y146799D01*
X328092Y146966D01*
X328758D01*
X328925Y146799D01*
Y146466D01*
X328758Y146299D01*
X328092D01*
X315425Y144300D02*
X314425D01*
Y144800D01*
X314592Y144966D01*
X314925D01*
X315092Y144800D01*
Y144300D01*
Y144633D02*
X315425Y144966D01*
X314425Y145300D02*
Y145966D01*
X314592D01*
X315258Y145300D01*
X315425D01*
X314425Y146966D02*
X314592Y146633D01*
X314925Y146299D01*
X315258D01*
X315425Y146466D01*
Y146799D01*
X315258Y146966D01*
X315092D01*
X314925Y146799D01*
Y146299D01*
X301925Y144300D02*
X300925D01*
Y144800D01*
X301092Y144966D01*
X301425D01*
X301592Y144800D01*
Y144300D01*
Y144633D02*
X301925Y144966D01*
X300925Y145300D02*
Y145966D01*
X301092D01*
X301758Y145300D01*
X301925D01*
Y146966D02*
Y146299D01*
X301259Y146966D01*
X301092D01*
X300925Y146799D01*
Y146466D01*
X301092Y146299D01*
X288425Y144300D02*
X287425D01*
Y144800D01*
X287592Y144966D01*
X287925D01*
X288092Y144800D01*
Y144300D01*
Y144633D02*
X288425Y144966D01*
X287425Y145966D02*
X287592Y145633D01*
X287925Y145300D01*
X288258D01*
X288425Y145466D01*
Y145800D01*
X288258Y145966D01*
X288092D01*
X287925Y145800D01*
Y145300D01*
X287592Y146299D02*
X287425Y146466D01*
Y146799D01*
X287592Y146966D01*
X287759D01*
X287925Y146799D01*
X288092Y146966D01*
X288258D01*
X288425Y146799D01*
Y146466D01*
X288258Y146299D01*
X288092D01*
X287925Y146466D01*
X287759Y146299D01*
X287592D01*
X287925Y146466D02*
Y146799D01*
X274925Y144300D02*
X273925D01*
Y144800D01*
X274092Y144966D01*
X274425D01*
X274592Y144800D01*
Y144300D01*
Y144633D02*
X274925Y144966D01*
X273925Y145966D02*
X274092Y145633D01*
X274425Y145300D01*
X274758D01*
X274925Y145466D01*
Y145800D01*
X274758Y145966D01*
X274592D01*
X274425Y145800D01*
Y145300D01*
X274925Y146799D02*
X273925D01*
X274425Y146299D01*
Y146966D01*
X261425Y144300D02*
X260425D01*
Y144800D01*
X260592Y144966D01*
X260925D01*
X261092Y144800D01*
Y144300D01*
Y144633D02*
X261425Y144966D01*
X260425Y145966D02*
X260592Y145633D01*
X260925Y145300D01*
X261258D01*
X261425Y145466D01*
Y145800D01*
X261258Y145966D01*
X261092D01*
X260925Y145800D01*
Y145300D01*
X260592Y146299D02*
X260425Y146466D01*
Y146799D01*
X260592Y146966D01*
X261258D01*
X261425Y146799D01*
Y146466D01*
X261258Y146299D01*
X260592D01*
X247925Y144300D02*
X246925D01*
Y144800D01*
X247092Y144966D01*
X247425D01*
X247592Y144800D01*
Y144300D01*
Y144633D02*
X247925Y144966D01*
X246925Y145966D02*
Y145300D01*
X247425D01*
X247259Y145633D01*
Y145800D01*
X247425Y145966D01*
X247758D01*
X247925Y145800D01*
Y145466D01*
X247758Y145300D01*
X246925Y146966D02*
X247092Y146633D01*
X247425Y146299D01*
X247758D01*
X247925Y146466D01*
Y146799D01*
X247758Y146966D01*
X247592D01*
X247425Y146799D01*
Y146299D01*
X234425Y144300D02*
X233425D01*
Y144800D01*
X233592Y144966D01*
X233925D01*
X234092Y144800D01*
Y144300D01*
Y144633D02*
X234425Y144966D01*
X233425Y145966D02*
Y145300D01*
X233925D01*
X233759Y145633D01*
Y145800D01*
X233925Y145966D01*
X234258D01*
X234425Y145800D01*
Y145466D01*
X234258Y145300D01*
X234425Y146966D02*
Y146299D01*
X233759Y146966D01*
X233592D01*
X233425Y146799D01*
Y146466D01*
X233592Y146299D01*
X220925Y144300D02*
X219925D01*
Y144800D01*
X220092Y144966D01*
X220425D01*
X220592Y144800D01*
Y144300D01*
Y144633D02*
X220925Y144966D01*
Y145800D02*
X219925D01*
X220425Y145300D01*
Y145966D01*
X220092Y146299D02*
X219925Y146466D01*
Y146799D01*
X220092Y146966D01*
X220259D01*
X220425Y146799D01*
X220592Y146966D01*
X220758D01*
X220925Y146799D01*
Y146466D01*
X220758Y146299D01*
X220592D01*
X220425Y146466D01*
X220259Y146299D01*
X220092D01*
X220425Y146466D02*
Y146799D01*
X207425Y144300D02*
X206425D01*
Y144800D01*
X206592Y144966D01*
X206925D01*
X207092Y144800D01*
Y144300D01*
Y144633D02*
X207425Y144966D01*
Y145800D02*
X206425D01*
X206925Y145300D01*
Y145966D01*
X207425Y146799D02*
X206425D01*
X206925Y146299D01*
Y146966D01*
X193925Y144300D02*
X192925D01*
Y144800D01*
X193092Y144966D01*
X193425D01*
X193592Y144800D01*
Y144300D01*
Y144633D02*
X193925Y144966D01*
Y145800D02*
X192925D01*
X193425Y145300D01*
Y145966D01*
X193092Y146299D02*
X192925Y146466D01*
Y146799D01*
X193092Y146966D01*
X193758D01*
X193925Y146799D01*
Y146466D01*
X193758Y146299D01*
X193092D01*
X180425Y144300D02*
X179425D01*
Y144800D01*
X179592Y144966D01*
X179925D01*
X180092Y144800D01*
Y144300D01*
Y144633D02*
X180425Y144966D01*
X179592Y145300D02*
X179425Y145466D01*
Y145800D01*
X179592Y145966D01*
X179759D01*
X179925Y145800D01*
Y145633D01*
Y145800D01*
X180092Y145966D01*
X180258D01*
X180425Y145800D01*
Y145466D01*
X180258Y145300D01*
X179425Y146966D02*
X179592Y146633D01*
X179925Y146299D01*
X180258D01*
X180425Y146466D01*
Y146799D01*
X180258Y146966D01*
X180092D01*
X179925Y146799D01*
Y146299D01*
X166925Y144300D02*
X165925D01*
Y144800D01*
X166092Y144966D01*
X166425D01*
X166592Y144800D01*
Y144300D01*
Y144633D02*
X166925Y144966D01*
X166092Y145300D02*
X165925Y145466D01*
Y145800D01*
X166092Y145966D01*
X166259D01*
X166425Y145800D01*
Y145633D01*
Y145800D01*
X166592Y145966D01*
X166758D01*
X166925Y145800D01*
Y145466D01*
X166758Y145300D01*
X166925Y146966D02*
Y146299D01*
X166259Y146966D01*
X166092D01*
X165925Y146799D01*
Y146466D01*
X166092Y146299D01*
X153425Y144300D02*
X152425D01*
Y144800D01*
X152592Y144966D01*
X152925D01*
X153092Y144800D01*
Y144300D01*
Y144633D02*
X153425Y144966D01*
Y145966D02*
Y145300D01*
X152759Y145966D01*
X152592D01*
X152425Y145800D01*
Y145466D01*
X152592Y145300D01*
Y146299D02*
X152425Y146466D01*
Y146799D01*
X152592Y146966D01*
X152759D01*
X152925Y146799D01*
X153092Y146966D01*
X153258D01*
X153425Y146799D01*
Y146466D01*
X153258Y146299D01*
X153092D01*
X152925Y146466D01*
X152759Y146299D01*
X152592D01*
X152925Y146466D02*
Y146799D01*
X139925Y144300D02*
X138925D01*
Y144800D01*
X139092Y144966D01*
X139425D01*
X139592Y144800D01*
Y144300D01*
Y144633D02*
X139925Y144966D01*
Y145966D02*
Y145300D01*
X139259Y145966D01*
X139092D01*
X138925Y145800D01*
Y145466D01*
X139092Y145300D01*
X139925Y146799D02*
X138925D01*
X139425Y146299D01*
Y146966D01*
X126425Y144300D02*
X125425D01*
Y144800D01*
X125592Y144966D01*
X125925D01*
X126092Y144800D01*
Y144300D01*
Y144633D02*
X126425Y144966D01*
Y145966D02*
Y145300D01*
X125759Y145966D01*
X125592D01*
X125425Y145800D01*
Y145466D01*
X125592Y145300D01*
Y146299D02*
X125425Y146466D01*
Y146799D01*
X125592Y146966D01*
X126258D01*
X126425Y146799D01*
Y146466D01*
X126258Y146299D01*
X125592D01*
X112925Y144300D02*
X111925D01*
Y144800D01*
X112092Y144966D01*
X112425D01*
X112592Y144800D01*
Y144300D01*
Y144633D02*
X112925Y144966D01*
Y145300D02*
Y145633D01*
Y145466D01*
X111925D01*
X112092Y145300D01*
X112925Y146799D02*
Y146133D01*
X112259Y146799D01*
X112092D01*
X111925Y146633D01*
Y146299D01*
X112092Y146133D01*
X134900Y120000D02*
Y121000D01*
X135400D01*
X135566Y120833D01*
Y120500D01*
X135400Y120333D01*
X134900D01*
X135233D02*
X135566Y120000D01*
X135900Y120833D02*
X136066Y121000D01*
X136400D01*
X136566Y120833D01*
Y120666D01*
X136400Y120500D01*
X136566Y120333D01*
Y120167D01*
X136400Y120000D01*
X136066D01*
X135900Y120167D01*
Y120333D01*
X136066Y120500D01*
X135900Y120666D01*
Y120833D01*
X136066Y120500D02*
X136400D01*
X235000Y127266D02*
Y126933D01*
Y127100D01*
X235833D01*
X236000Y126933D01*
Y126767D01*
X235833Y126600D01*
X236000Y127600D02*
Y127933D01*
Y127766D01*
X235000D01*
X235167Y127600D01*
Y128433D02*
X235000Y128599D01*
Y128933D01*
X235167Y129099D01*
X235334D01*
X235500Y128933D01*
Y128766D01*
Y128933D01*
X235667Y129099D01*
X235833D01*
X236000Y128933D01*
Y128599D01*
X235833Y128433D01*
X226000Y127366D02*
Y127033D01*
Y127200D01*
X226833D01*
X227000Y127033D01*
Y126867D01*
X226833Y126700D01*
X227000Y127700D02*
Y128033D01*
Y127866D01*
X226000D01*
X226167Y127700D01*
X227000Y129199D02*
Y128533D01*
X226334Y129199D01*
X226167D01*
X226000Y129033D01*
Y128699D01*
X226167Y128533D01*
X227200Y123166D02*
Y122833D01*
Y123000D01*
X228033D01*
X228200Y122833D01*
Y122667D01*
X228033Y122500D01*
X228200Y123500D02*
Y123833D01*
Y123666D01*
X227200D01*
X227367Y123500D01*
X228200Y124333D02*
Y124666D01*
Y124499D01*
X227200D01*
X227367Y124333D01*
X215400Y127466D02*
Y127133D01*
Y127300D01*
X216233D01*
X216400Y127133D01*
Y126967D01*
X216233Y126800D01*
X216400Y127800D02*
Y128133D01*
Y127966D01*
X215400D01*
X215567Y127800D01*
Y128633D02*
X215400Y128799D01*
Y129133D01*
X215567Y129299D01*
X216233D01*
X216400Y129133D01*
Y128799D01*
X216233Y128633D01*
X215567D01*
X218100Y123266D02*
Y122933D01*
Y123100D01*
X218933D01*
X219100Y122933D01*
Y122767D01*
X218933Y122600D01*
Y123600D02*
X219100Y123766D01*
Y124100D01*
X218933Y124266D01*
X218267D01*
X218100Y124100D01*
Y123766D01*
X218267Y123600D01*
X218434D01*
X218600Y123766D01*
Y124266D01*
X207700Y123366D02*
Y123033D01*
Y123200D01*
X208533D01*
X208700Y123033D01*
Y122867D01*
X208533Y122700D01*
X207867Y123700D02*
X207700Y123866D01*
Y124200D01*
X207867Y124366D01*
X208034D01*
X208200Y124200D01*
X208367Y124366D01*
X208533D01*
X208700Y124200D01*
Y123866D01*
X208533Y123700D01*
X208367D01*
X208200Y123866D01*
X208034Y123700D01*
X207867D01*
X208200Y123866D02*
Y124200D01*
X202400Y126866D02*
Y126533D01*
Y126700D01*
X203233D01*
X203400Y126533D01*
Y126367D01*
X203233Y126200D01*
X202400Y127200D02*
Y127866D01*
X202567D01*
X203233Y127200D01*
X203400D01*
X123906Y52100D02*
X123573D01*
X123740D01*
Y51267D01*
X123573Y51100D01*
X123407D01*
X123240Y51267D01*
X124740Y51100D02*
Y52100D01*
X124240Y51600D01*
X124906D01*
X131762Y82219D02*
X131596Y82385D01*
X131263D01*
X131096Y82219D01*
Y81552D01*
X131263Y81386D01*
X131596D01*
X131762Y81552D01*
X132762Y81386D02*
X132096D01*
X132762Y82052D01*
Y82219D01*
X132596Y82385D01*
X132262D01*
X132096Y82219D01*
X119761D02*
X119594Y82385D01*
X119261D01*
X119094Y82219D01*
Y81552D01*
X119261Y81386D01*
X119594D01*
X119761Y81552D01*
X120094Y81386D02*
X120427D01*
X120260D01*
Y82385D01*
X120094Y82219D01*
X328667Y154666D02*
X328500Y154500D01*
Y154167D01*
X328667Y154000D01*
X329333D01*
X329500Y154167D01*
Y154500D01*
X329333Y154666D01*
X329500Y155000D02*
Y155333D01*
Y155166D01*
X328500D01*
X328667Y155000D01*
X329500Y155833D02*
Y156166D01*
Y155999D01*
X328500D01*
X328667Y155833D01*
Y156666D02*
X328500Y156832D01*
Y157166D01*
X328667Y157332D01*
X328834D01*
X329000Y157166D01*
Y156999D01*
Y157166D01*
X329167Y157332D01*
X329333D01*
X329500Y157166D01*
Y156832D01*
X329333Y156666D01*
X314867Y154066D02*
X314700Y153900D01*
Y153567D01*
X314867Y153400D01*
X315533D01*
X315700Y153567D01*
Y153900D01*
X315533Y154066D01*
X315700Y154400D02*
Y154733D01*
Y154566D01*
X314700D01*
X314867Y154400D01*
Y155233D02*
X314700Y155399D01*
Y155733D01*
X314867Y155899D01*
X315533D01*
X315700Y155733D01*
Y155399D01*
X315533Y155233D01*
X314867D01*
X314700Y156232D02*
Y156899D01*
X314867D01*
X315533Y156232D01*
X315700D01*
X301667Y154666D02*
X301500Y154500D01*
Y154167D01*
X301667Y154000D01*
X302333D01*
X302500Y154167D01*
Y154500D01*
X302333Y154666D01*
X302500Y155000D02*
Y155333D01*
Y155166D01*
X301500D01*
X301667Y155000D01*
Y155833D02*
X301500Y155999D01*
Y156333D01*
X301667Y156499D01*
X302333D01*
X302500Y156333D01*
Y155999D01*
X302333Y155833D01*
X301667D01*
X302500Y156832D02*
Y157166D01*
Y156999D01*
X301500D01*
X301667Y156832D01*
X288167Y154666D02*
X288000Y154500D01*
Y154167D01*
X288167Y154000D01*
X288833D01*
X289000Y154167D01*
Y154500D01*
X288833Y154666D01*
Y155000D02*
X289000Y155166D01*
Y155500D01*
X288833Y155666D01*
X288167D01*
X288000Y155500D01*
Y155166D01*
X288167Y155000D01*
X288334D01*
X288500Y155166D01*
Y155666D01*
X288000Y156666D02*
Y155999D01*
X288500D01*
X288334Y156333D01*
Y156499D01*
X288500Y156666D01*
X288833D01*
X289000Y156499D01*
Y156166D01*
X288833Y155999D01*
X274667Y154666D02*
X274500Y154500D01*
Y154167D01*
X274667Y154000D01*
X275333D01*
X275500Y154167D01*
Y154500D01*
X275333Y154666D01*
X274667Y155000D02*
X274500Y155166D01*
Y155500D01*
X274667Y155666D01*
X274834D01*
X275000Y155500D01*
X275167Y155666D01*
X275333D01*
X275500Y155500D01*
Y155166D01*
X275333Y155000D01*
X275167D01*
X275000Y155166D01*
X274834Y155000D01*
X274667D01*
X275000Y155166D02*
Y155500D01*
X275333Y155999D02*
X275500Y156166D01*
Y156499D01*
X275333Y156666D01*
X274667D01*
X274500Y156499D01*
Y156166D01*
X274667Y155999D01*
X274834D01*
X275000Y156166D01*
Y156666D01*
X261167Y154666D02*
X261000Y154500D01*
Y154167D01*
X261167Y154000D01*
X261833D01*
X262000Y154167D01*
Y154500D01*
X261833Y154666D01*
X261167Y155000D02*
X261000Y155166D01*
Y155500D01*
X261167Y155666D01*
X261334D01*
X261500Y155500D01*
X261667Y155666D01*
X261833D01*
X262000Y155500D01*
Y155166D01*
X261833Y155000D01*
X261667D01*
X261500Y155166D01*
X261334Y155000D01*
X261167D01*
X261500Y155166D02*
Y155500D01*
X261167Y155999D02*
X261000Y156166D01*
Y156499D01*
X261167Y156666D01*
X261334D01*
X261500Y156499D01*
Y156333D01*
Y156499D01*
X261667Y156666D01*
X261833D01*
X262000Y156499D01*
Y156166D01*
X261833Y155999D01*
X247667Y154666D02*
X247500Y154500D01*
Y154167D01*
X247667Y154000D01*
X248333D01*
X248500Y154167D01*
Y154500D01*
X248333Y154666D01*
X247500Y155000D02*
Y155666D01*
X247667D01*
X248333Y155000D01*
X248500D01*
X247500Y155999D02*
Y156666D01*
X247667D01*
X248333Y155999D01*
X248500D01*
X234167Y154666D02*
X234000Y154500D01*
Y154167D01*
X234167Y154000D01*
X234833D01*
X235000Y154167D01*
Y154500D01*
X234833Y154666D01*
X234000Y155000D02*
Y155666D01*
X234167D01*
X234833Y155000D01*
X235000D01*
Y155999D02*
Y156333D01*
Y156166D01*
X234000D01*
X234167Y155999D01*
X220667Y154666D02*
X220500Y154500D01*
Y154167D01*
X220667Y154000D01*
X221333D01*
X221500Y154167D01*
Y154500D01*
X221333Y154666D01*
X220500Y155666D02*
X220667Y155333D01*
X221000Y155000D01*
X221333D01*
X221500Y155166D01*
Y155500D01*
X221333Y155666D01*
X221167D01*
X221000Y155500D01*
Y155000D01*
X220500Y156666D02*
Y155999D01*
X221000D01*
X220834Y156333D01*
Y156499D01*
X221000Y156666D01*
X221333D01*
X221500Y156499D01*
Y156166D01*
X221333Y155999D01*
X207167Y154666D02*
X207000Y154500D01*
Y154167D01*
X207167Y154000D01*
X207833D01*
X208000Y154167D01*
Y154500D01*
X207833Y154666D01*
X207000Y155666D02*
Y155000D01*
X207500D01*
X207334Y155333D01*
Y155500D01*
X207500Y155666D01*
X207833D01*
X208000Y155500D01*
Y155166D01*
X207833Y155000D01*
Y155999D02*
X208000Y156166D01*
Y156499D01*
X207833Y156666D01*
X207167D01*
X207000Y156499D01*
Y156166D01*
X207167Y155999D01*
X207334D01*
X207500Y156166D01*
Y156666D01*
X193667Y154666D02*
X193500Y154500D01*
Y154167D01*
X193667Y154000D01*
X194333D01*
X194500Y154167D01*
Y154500D01*
X194333Y154666D01*
X193500Y155666D02*
Y155000D01*
X194000D01*
X193834Y155333D01*
Y155500D01*
X194000Y155666D01*
X194333D01*
X194500Y155500D01*
Y155166D01*
X194333Y155000D01*
X193667Y155999D02*
X193500Y156166D01*
Y156499D01*
X193667Y156666D01*
X193834D01*
X194000Y156499D01*
Y156333D01*
Y156499D01*
X194167Y156666D01*
X194333D01*
X194500Y156499D01*
Y156166D01*
X194333Y155999D01*
X180167Y154666D02*
X180000Y154500D01*
Y154167D01*
X180167Y154000D01*
X180833D01*
X181000Y154167D01*
Y154500D01*
X180833Y154666D01*
X181000Y155500D02*
X180000D01*
X180500Y155000D01*
Y155666D01*
X180000Y155999D02*
Y156666D01*
X180167D01*
X180833Y155999D01*
X181000D01*
X166667Y154666D02*
X166500Y154500D01*
Y154167D01*
X166667Y154000D01*
X167333D01*
X167500Y154167D01*
Y154500D01*
X167333Y154666D01*
X167500Y155500D02*
X166500D01*
X167000Y155000D01*
Y155666D01*
X167500Y155999D02*
Y156333D01*
Y156166D01*
X166500D01*
X166667Y155999D01*
X153167Y154666D02*
X153000Y154500D01*
Y154167D01*
X153167Y154000D01*
X153833D01*
X154000Y154167D01*
Y154500D01*
X153833Y154666D01*
X153167Y155000D02*
X153000Y155166D01*
Y155500D01*
X153167Y155666D01*
X153334D01*
X153500Y155500D01*
Y155333D01*
Y155500D01*
X153667Y155666D01*
X153833D01*
X154000Y155500D01*
Y155166D01*
X153833Y155000D01*
X153000Y156666D02*
Y155999D01*
X153500D01*
X153334Y156333D01*
Y156499D01*
X153500Y156666D01*
X153833D01*
X154000Y156499D01*
Y156166D01*
X153833Y155999D01*
X139667Y154666D02*
X139500Y154500D01*
Y154167D01*
X139667Y154000D01*
X140333D01*
X140500Y154167D01*
Y154500D01*
X140333Y154666D01*
X140500Y155666D02*
Y155000D01*
X139834Y155666D01*
X139667D01*
X139500Y155500D01*
Y155166D01*
X139667Y155000D01*
X140333Y155999D02*
X140500Y156166D01*
Y156499D01*
X140333Y156666D01*
X139667D01*
X139500Y156499D01*
Y156166D01*
X139667Y155999D01*
X139834D01*
X140000Y156166D01*
Y156666D01*
X336367Y161666D02*
X336200Y161500D01*
Y161167D01*
X336367Y161000D01*
X337033D01*
X337200Y161167D01*
Y161500D01*
X337033Y161666D01*
X337200Y162000D02*
Y162333D01*
Y162166D01*
X336200D01*
X336367Y162000D01*
X337200Y162833D02*
Y163166D01*
Y162999D01*
X336200D01*
X336367Y162833D01*
X337200Y164332D02*
Y163666D01*
X336534Y164332D01*
X336367D01*
X336200Y164166D01*
Y163832D01*
X336367Y163666D01*
X322867Y161666D02*
X322700Y161500D01*
Y161167D01*
X322867Y161000D01*
X323533D01*
X323700Y161167D01*
Y161500D01*
X323533Y161666D01*
X323700Y162000D02*
Y162333D01*
Y162166D01*
X322700D01*
X322867Y162000D01*
Y162833D02*
X322700Y162999D01*
Y163333D01*
X322867Y163499D01*
X323533D01*
X323700Y163333D01*
Y162999D01*
X323533Y162833D01*
X322867D01*
X322700Y164499D02*
X322867Y164166D01*
X323200Y163832D01*
X323533D01*
X323700Y163999D01*
Y164332D01*
X323533Y164499D01*
X323367D01*
X323200Y164332D01*
Y163832D01*
X309367Y161666D02*
X309200Y161500D01*
Y161167D01*
X309367Y161000D01*
X310033D01*
X310200Y161167D01*
Y161500D01*
X310033Y161666D01*
X310200Y162000D02*
Y162333D01*
Y162166D01*
X309200D01*
X309367Y162000D01*
Y162833D02*
X309200Y162999D01*
Y163333D01*
X309367Y163499D01*
X310033D01*
X310200Y163333D01*
Y162999D01*
X310033Y162833D01*
X309367D01*
Y163832D02*
X309200Y163999D01*
Y164332D01*
X309367Y164499D01*
X310033D01*
X310200Y164332D01*
Y163999D01*
X310033Y163832D01*
X309367D01*
X295867Y161666D02*
X295700Y161500D01*
Y161167D01*
X295867Y161000D01*
X296533D01*
X296700Y161167D01*
Y161500D01*
X296533Y161666D01*
Y162000D02*
X296700Y162166D01*
Y162500D01*
X296533Y162666D01*
X295867D01*
X295700Y162500D01*
Y162166D01*
X295867Y162000D01*
X296034D01*
X296200Y162166D01*
Y162666D01*
X296700Y163499D02*
X295700D01*
X296200Y162999D01*
Y163666D01*
X282367Y161666D02*
X282200Y161500D01*
Y161167D01*
X282367Y161000D01*
X283033D01*
X283200Y161167D01*
Y161500D01*
X283033Y161666D01*
X282367Y162000D02*
X282200Y162166D01*
Y162500D01*
X282367Y162666D01*
X282534D01*
X282700Y162500D01*
X282867Y162666D01*
X283033D01*
X283200Y162500D01*
Y162166D01*
X283033Y162000D01*
X282867D01*
X282700Y162166D01*
X282534Y162000D01*
X282367D01*
X282700Y162166D02*
Y162500D01*
X282367Y162999D02*
X282200Y163166D01*
Y163499D01*
X282367Y163666D01*
X282534D01*
X282700Y163499D01*
X282867Y163666D01*
X283033D01*
X283200Y163499D01*
Y163166D01*
X283033Y162999D01*
X282867D01*
X282700Y163166D01*
X282534Y162999D01*
X282367D01*
X282700Y163166D02*
Y163499D01*
X268867Y161666D02*
X268700Y161500D01*
Y161167D01*
X268867Y161000D01*
X269533D01*
X269700Y161167D01*
Y161500D01*
X269533Y161666D01*
X268867Y162000D02*
X268700Y162166D01*
Y162500D01*
X268867Y162666D01*
X269034D01*
X269200Y162500D01*
X269367Y162666D01*
X269533D01*
X269700Y162500D01*
Y162166D01*
X269533Y162000D01*
X269367D01*
X269200Y162166D01*
X269034Y162000D01*
X268867D01*
X269200Y162166D02*
Y162500D01*
X269700Y163666D02*
Y162999D01*
X269034Y163666D01*
X268867D01*
X268700Y163499D01*
Y163166D01*
X268867Y162999D01*
X255367Y161666D02*
X255200Y161500D01*
Y161167D01*
X255367Y161000D01*
X256033D01*
X256200Y161167D01*
Y161500D01*
X256033Y161666D01*
X255200Y162000D02*
Y162666D01*
X255367D01*
X256033Y162000D01*
X256200D01*
X255200Y163666D02*
X255367Y163333D01*
X255700Y162999D01*
X256033D01*
X256200Y163166D01*
Y163499D01*
X256033Y163666D01*
X255867D01*
X255700Y163499D01*
Y162999D01*
X241867Y161666D02*
X241700Y161500D01*
Y161167D01*
X241867Y161000D01*
X242533D01*
X242700Y161167D01*
Y161500D01*
X242533Y161666D01*
X241700Y162000D02*
Y162666D01*
X241867D01*
X242533Y162000D01*
X242700D01*
X241867Y162999D02*
X241700Y163166D01*
Y163499D01*
X241867Y163666D01*
X242533D01*
X242700Y163499D01*
Y163166D01*
X242533Y162999D01*
X241867D01*
X228367Y161666D02*
X228200Y161500D01*
Y161167D01*
X228367Y161000D01*
X229033D01*
X229200Y161167D01*
Y161500D01*
X229033Y161666D01*
X228200Y162666D02*
X228367Y162333D01*
X228700Y162000D01*
X229033D01*
X229200Y162166D01*
Y162500D01*
X229033Y162666D01*
X228867D01*
X228700Y162500D01*
Y162000D01*
X229200Y163499D02*
X228200D01*
X228700Y162999D01*
Y163666D01*
X214867Y161666D02*
X214700Y161500D01*
Y161167D01*
X214867Y161000D01*
X215533D01*
X215700Y161167D01*
Y161500D01*
X215533Y161666D01*
X214700Y162666D02*
Y162000D01*
X215200D01*
X215034Y162333D01*
Y162500D01*
X215200Y162666D01*
X215533D01*
X215700Y162500D01*
Y162166D01*
X215533Y162000D01*
X214867Y162999D02*
X214700Y163166D01*
Y163499D01*
X214867Y163666D01*
X215034D01*
X215200Y163499D01*
X215367Y163666D01*
X215533D01*
X215700Y163499D01*
Y163166D01*
X215533Y162999D01*
X215367D01*
X215200Y163166D01*
X215034Y162999D01*
X214867D01*
X215200Y163166D02*
Y163499D01*
X201367Y161666D02*
X201200Y161500D01*
Y161167D01*
X201367Y161000D01*
X202033D01*
X202200Y161167D01*
Y161500D01*
X202033Y161666D01*
X201200Y162666D02*
Y162000D01*
X201700D01*
X201534Y162333D01*
Y162500D01*
X201700Y162666D01*
X202033D01*
X202200Y162500D01*
Y162166D01*
X202033Y162000D01*
X202200Y163666D02*
Y162999D01*
X201534Y163666D01*
X201367D01*
X201200Y163499D01*
Y163166D01*
X201367Y162999D01*
X187867Y161666D02*
X187700Y161500D01*
Y161167D01*
X187867Y161000D01*
X188533D01*
X188700Y161167D01*
Y161500D01*
X188533Y161666D01*
X188700Y162500D02*
X187700D01*
X188200Y162000D01*
Y162666D01*
X187700Y163666D02*
X187867Y163333D01*
X188200Y162999D01*
X188533D01*
X188700Y163166D01*
Y163499D01*
X188533Y163666D01*
X188367D01*
X188200Y163499D01*
Y162999D01*
X174367Y161666D02*
X174200Y161500D01*
Y161167D01*
X174367Y161000D01*
X175033D01*
X175200Y161167D01*
Y161500D01*
X175033Y161666D01*
X175200Y162500D02*
X174200D01*
X174700Y162000D01*
Y162666D01*
X174367Y162999D02*
X174200Y163166D01*
Y163499D01*
X174367Y163666D01*
X175033D01*
X175200Y163499D01*
Y163166D01*
X175033Y162999D01*
X174367D01*
X160867Y161666D02*
X160700Y161500D01*
Y161167D01*
X160867Y161000D01*
X161533D01*
X161700Y161167D01*
Y161500D01*
X161533Y161666D01*
X160867Y162000D02*
X160700Y162166D01*
Y162500D01*
X160867Y162666D01*
X161034D01*
X161200Y162500D01*
Y162333D01*
Y162500D01*
X161367Y162666D01*
X161533D01*
X161700Y162500D01*
Y162166D01*
X161533Y162000D01*
X161700Y163499D02*
X160700D01*
X161200Y162999D01*
Y163666D01*
X147367Y161666D02*
X147200Y161500D01*
Y161167D01*
X147367Y161000D01*
X148033D01*
X148200Y161167D01*
Y161500D01*
X148033Y161666D01*
X148200Y162666D02*
Y162000D01*
X147534Y162666D01*
X147367D01*
X147200Y162500D01*
Y162166D01*
X147367Y162000D01*
Y162999D02*
X147200Y163166D01*
Y163499D01*
X147367Y163666D01*
X147534D01*
X147700Y163499D01*
X147867Y163666D01*
X148033D01*
X148200Y163499D01*
Y163166D01*
X148033Y162999D01*
X147867D01*
X147700Y163166D01*
X147534Y162999D01*
X147367D01*
X147700Y163166D02*
Y163499D01*
X126167Y154666D02*
X126000Y154500D01*
Y154167D01*
X126167Y154000D01*
X126833D01*
X127000Y154167D01*
Y154500D01*
X126833Y154666D01*
X127000Y155666D02*
Y155000D01*
X126334Y155666D01*
X126167D01*
X126000Y155500D01*
Y155166D01*
X126167Y155000D01*
Y155999D02*
X126000Y156166D01*
Y156499D01*
X126167Y156666D01*
X126334D01*
X126500Y156499D01*
Y156333D01*
Y156499D01*
X126667Y156666D01*
X126833D01*
X127000Y156499D01*
Y156166D01*
X126833Y155999D01*
X112667Y154666D02*
X112500Y154500D01*
Y154167D01*
X112667Y154000D01*
X113333D01*
X113500Y154167D01*
Y154500D01*
X113333Y154666D01*
Y155000D02*
X113500Y155166D01*
Y155500D01*
X113333Y155666D01*
X112667D01*
X112500Y155500D01*
Y155166D01*
X112667Y155000D01*
X112834D01*
X113000Y155166D01*
Y155666D01*
X133867Y161666D02*
X133700Y161500D01*
Y161167D01*
X133867Y161000D01*
X134533D01*
X134700Y161167D01*
Y161500D01*
X134533Y161666D01*
X134700Y162666D02*
Y162000D01*
X134034Y162666D01*
X133867D01*
X133700Y162500D01*
Y162166D01*
X133867Y162000D01*
X134700Y163666D02*
Y162999D01*
X134034Y163666D01*
X133867D01*
X133700Y163499D01*
Y163166D01*
X133867Y162999D01*
X120367Y161666D02*
X120200Y161500D01*
Y161167D01*
X120367Y161000D01*
X121033D01*
X121200Y161167D01*
Y161500D01*
X121033Y161666D01*
X120367Y162000D02*
X120200Y162166D01*
Y162500D01*
X120367Y162666D01*
X120534D01*
X120700Y162500D01*
X120867Y162666D01*
X121033D01*
X121200Y162500D01*
Y162166D01*
X121033Y162000D01*
X120867D01*
X120700Y162166D01*
X120534Y162000D01*
X120367D01*
X120700Y162166D02*
Y162500D01*
X338750Y199000D02*
X339416Y198000D01*
Y199000D02*
X338750Y198000D01*
X340416Y198833D02*
X340250Y199000D01*
X339916D01*
X339750Y198833D01*
Y198666D01*
X339916Y198500D01*
X340250D01*
X340416Y198333D01*
Y198167D01*
X340250Y198000D01*
X339916D01*
X339750Y198167D01*
X340749Y198000D02*
X341083D01*
X340916D01*
Y199000D01*
X340749Y198833D01*
X342249Y198000D02*
X341582D01*
X342249Y198666D01*
Y198833D01*
X342082Y199000D01*
X341749D01*
X341582Y198833D01*
X317500Y199000D02*
X318166Y198000D01*
Y199000D02*
X317500Y198000D01*
X319166Y198833D02*
X319000Y199000D01*
X318666D01*
X318500Y198833D01*
Y198666D01*
X318666Y198500D01*
X319000D01*
X319166Y198333D01*
Y198167D01*
X319000Y198000D01*
X318666D01*
X318500Y198167D01*
X319499Y198000D02*
X319833D01*
X319666D01*
Y199000D01*
X319499Y198833D01*
X320332Y198000D02*
X320666D01*
X320499D01*
Y199000D01*
X320332Y198833D01*
X296500Y199000D02*
X297166Y198000D01*
Y199000D02*
X296500Y198000D01*
X298166Y198833D02*
X298000Y199000D01*
X297666D01*
X297500Y198833D01*
Y198666D01*
X297666Y198500D01*
X298000D01*
X298166Y198333D01*
Y198167D01*
X298000Y198000D01*
X297666D01*
X297500Y198167D01*
X298499Y198000D02*
X298833D01*
X298666D01*
Y199000D01*
X298499Y198833D01*
X299332D02*
X299499Y199000D01*
X299832D01*
X299999Y198833D01*
Y198167D01*
X299832Y198000D01*
X299499D01*
X299332Y198167D01*
Y198833D01*
X275500Y199000D02*
X276166Y198000D01*
Y199000D02*
X275500Y198000D01*
X277166Y198833D02*
X277000Y199000D01*
X276666D01*
X276500Y198833D01*
Y198666D01*
X276666Y198500D01*
X277000D01*
X277166Y198333D01*
Y198167D01*
X277000Y198000D01*
X276666D01*
X276500Y198167D01*
X277499D02*
X277666Y198000D01*
X277999D01*
X278166Y198167D01*
Y198833D01*
X277999Y199000D01*
X277666D01*
X277499Y198833D01*
Y198666D01*
X277666Y198500D01*
X278166D01*
X254250Y199000D02*
X254916Y198000D01*
Y199000D02*
X254250Y198000D01*
X255916Y198833D02*
X255750Y199000D01*
X255416D01*
X255250Y198833D01*
Y198666D01*
X255416Y198500D01*
X255750D01*
X255916Y198333D01*
Y198167D01*
X255750Y198000D01*
X255416D01*
X255250Y198167D01*
X256249Y198833D02*
X256416Y199000D01*
X256749D01*
X256916Y198833D01*
Y198666D01*
X256749Y198500D01*
X256916Y198333D01*
Y198167D01*
X256749Y198000D01*
X256416D01*
X256249Y198167D01*
Y198333D01*
X256416Y198500D01*
X256249Y198666D01*
Y198833D01*
X256416Y198500D02*
X256749D01*
X233250Y199000D02*
X233916Y198000D01*
Y199000D02*
X233250Y198000D01*
X234916Y198833D02*
X234750Y199000D01*
X234416D01*
X234250Y198833D01*
Y198666D01*
X234416Y198500D01*
X234750D01*
X234916Y198333D01*
Y198167D01*
X234750Y198000D01*
X234416D01*
X234250Y198167D01*
X235249Y199000D02*
X235916D01*
Y198833D01*
X235249Y198167D01*
Y198000D01*
X212250Y199250D02*
X212916Y198250D01*
Y199250D02*
X212250Y198250D01*
X213916Y199083D02*
X213750Y199250D01*
X213416D01*
X213250Y199083D01*
Y198916D01*
X213416Y198750D01*
X213750D01*
X213916Y198583D01*
Y198417D01*
X213750Y198250D01*
X213416D01*
X213250Y198417D01*
X214916Y199250D02*
X214583Y199083D01*
X214249Y198750D01*
Y198417D01*
X214416Y198250D01*
X214749D01*
X214916Y198417D01*
Y198583D01*
X214749Y198750D01*
X214249D01*
X191500Y199000D02*
X192166Y198000D01*
Y199000D02*
X191500Y198000D01*
X193166Y198833D02*
X193000Y199000D01*
X192666D01*
X192500Y198833D01*
Y198666D01*
X192666Y198500D01*
X193000D01*
X193166Y198333D01*
Y198167D01*
X193000Y198000D01*
X192666D01*
X192500Y198167D01*
X194166Y199000D02*
X193499D01*
Y198500D01*
X193833Y198666D01*
X193999D01*
X194166Y198500D01*
Y198167D01*
X193999Y198000D01*
X193666D01*
X193499Y198167D01*
X170250Y199000D02*
X170916Y198000D01*
Y199000D02*
X170250Y198000D01*
X171916Y198833D02*
X171750Y199000D01*
X171416D01*
X171250Y198833D01*
Y198666D01*
X171416Y198500D01*
X171750D01*
X171916Y198333D01*
Y198167D01*
X171750Y198000D01*
X171416D01*
X171250Y198167D01*
X172749Y198000D02*
Y199000D01*
X172249Y198500D01*
X172916D01*
X149250Y199000D02*
X149916Y198000D01*
Y199000D02*
X149250Y198000D01*
X150916Y198833D02*
X150750Y199000D01*
X150416D01*
X150250Y198833D01*
Y198666D01*
X150416Y198500D01*
X150750D01*
X150916Y198333D01*
Y198167D01*
X150750Y198000D01*
X150416D01*
X150250Y198167D01*
X151249Y198833D02*
X151416Y199000D01*
X151749D01*
X151916Y198833D01*
Y198666D01*
X151749Y198500D01*
X151583D01*
X151749D01*
X151916Y198333D01*
Y198167D01*
X151749Y198000D01*
X151416D01*
X151249Y198167D01*
X128000Y199000D02*
X128666Y198000D01*
Y199000D02*
X128000Y198000D01*
X129666Y198833D02*
X129500Y199000D01*
X129166D01*
X129000Y198833D01*
Y198666D01*
X129166Y198500D01*
X129500D01*
X129666Y198333D01*
Y198167D01*
X129500Y198000D01*
X129166D01*
X129000Y198167D01*
X130666Y198000D02*
X129999D01*
X130666Y198666D01*
Y198833D01*
X130499Y199000D01*
X130166D01*
X129999Y198833D01*
X214725Y115225D02*
Y116225D01*
X215225D01*
X215391Y116058D01*
Y115725D01*
X215225Y115558D01*
X214725D01*
X215058D02*
X215391Y115225D01*
X215725Y116058D02*
X215891Y116225D01*
X216225D01*
X216391Y116058D01*
Y115891D01*
X216225Y115725D01*
X216391Y115558D01*
Y115392D01*
X216225Y115225D01*
X215891D01*
X215725Y115392D01*
Y115558D01*
X215891Y115725D01*
X215725Y115891D01*
Y116058D01*
X215891Y115725D02*
X216225D01*
X217391Y116225D02*
X216724D01*
Y115725D01*
X217058Y115891D01*
X217224D01*
X217391Y115725D01*
Y115392D01*
X217224Y115225D01*
X216891D01*
X216724Y115392D01*
X198825Y115325D02*
Y116325D01*
X199325D01*
X199491Y116158D01*
Y115825D01*
X199325Y115658D01*
X198825D01*
X199158D02*
X199491Y115325D01*
X199825D02*
X200158D01*
X199991D01*
Y116325D01*
X199825Y116158D01*
X200658Y116325D02*
X201324D01*
Y116158D01*
X200658Y115492D01*
Y115325D01*
X217875Y113225D02*
Y114225D01*
X218375D01*
X218541Y114058D01*
Y113725D01*
X218375Y113558D01*
X217875D01*
X218208D02*
X218541Y113225D01*
X218875Y114058D02*
X219041Y114225D01*
X219375D01*
X219541Y114058D01*
Y113891D01*
X219375Y113725D01*
X219541Y113558D01*
Y113392D01*
X219375Y113225D01*
X219041D01*
X218875Y113392D01*
Y113558D01*
X219041Y113725D01*
X218875Y113891D01*
Y114058D01*
X219041Y113725D02*
X219375D01*
X220374Y113225D02*
Y114225D01*
X219874Y113725D01*
X220541D01*
X201975Y113250D02*
Y114250D01*
X202475D01*
X202641Y114083D01*
Y113750D01*
X202475Y113583D01*
X201975D01*
X202308D02*
X202641Y113250D01*
X202975D02*
X203308D01*
X203141D01*
Y114250D01*
X202975Y114083D01*
X204474Y114250D02*
X204141Y114083D01*
X203808Y113750D01*
Y113417D01*
X203974Y113250D01*
X204308D01*
X204474Y113417D01*
Y113583D01*
X204308Y113750D01*
X203808D01*
X162900Y84800D02*
X161900D01*
Y85300D01*
X162067Y85466D01*
X162400D01*
X162567Y85300D01*
Y84800D01*
Y85133D02*
X162900Y85466D01*
X162067Y85800D02*
X161900Y85966D01*
Y86300D01*
X162067Y86466D01*
X162234D01*
X162400Y86300D01*
Y86133D01*
Y86300D01*
X162567Y86466D01*
X162733D01*
X162900Y86300D01*
Y85966D01*
X162733Y85800D01*
X162900Y93800D02*
X161900D01*
Y94300D01*
X162067Y94466D01*
X162400D01*
X162567Y94300D01*
Y93800D01*
Y94133D02*
X162900Y94466D01*
Y94800D02*
Y95133D01*
Y94966D01*
X161900D01*
X162067Y94800D01*
X137900Y88800D02*
X136900D01*
Y89300D01*
X137067Y89466D01*
X137400D01*
X137567Y89300D01*
Y88800D01*
Y89133D02*
X137900Y89466D01*
Y90466D02*
Y89800D01*
X137234Y90466D01*
X137067D01*
X136900Y90300D01*
Y89966D01*
X137067Y89800D01*
X125400Y97525D02*
X124400D01*
Y98025D01*
X124567Y98191D01*
X124900D01*
X125067Y98025D01*
Y97525D01*
Y97858D02*
X125400Y98191D01*
Y98525D02*
Y98858D01*
Y98691D01*
X124400D01*
X124567Y98525D01*
X125400Y99358D02*
Y99691D01*
Y99524D01*
X124400D01*
X124567Y99358D01*
X126300Y86750D02*
X125300D01*
Y87250D01*
X125467Y87416D01*
X125800D01*
X125967Y87250D01*
Y86750D01*
Y87083D02*
X126300Y87416D01*
X125300Y87750D02*
Y88416D01*
X125467D01*
X126133Y87750D01*
X126300D01*
X116925Y97300D02*
X115925D01*
Y97800D01*
X116092Y97966D01*
X116425D01*
X116592Y97800D01*
Y97300D01*
Y97633D02*
X116925Y97966D01*
X115925Y98966D02*
Y98300D01*
X116425D01*
X116259Y98633D01*
Y98800D01*
X116425Y98966D01*
X116758D01*
X116925Y98800D01*
Y98466D01*
X116758Y98300D01*
X230409Y112302D02*
X230076D01*
X230243D01*
Y111469D01*
X230076Y111303D01*
X229910D01*
X229743Y111469D01*
X231243Y111303D02*
Y112302D01*
X230743Y111803D01*
X231409D01*
X231742Y111469D02*
X231909Y111303D01*
X232242D01*
X232409Y111469D01*
Y112136D01*
X232242Y112302D01*
X231909D01*
X231742Y112136D01*
Y111969D01*
X231909Y111803D01*
X232409D01*
X214357Y112353D02*
X214023D01*
X214190D01*
Y111520D01*
X214023Y111354D01*
X213857D01*
X213690Y111520D01*
X214690Y111354D02*
X215023D01*
X214856D01*
Y112353D01*
X214690Y112187D01*
X216189Y112353D02*
X215856Y112187D01*
X215523Y111853D01*
Y111520D01*
X215690Y111354D01*
X216023D01*
X216189Y111520D01*
Y111687D01*
X216023Y111853D01*
X215523D01*
X338425Y159516D02*
Y159183D01*
Y159350D01*
X339258D01*
X339425Y159183D01*
Y159017D01*
X339258Y158850D01*
X339425Y160350D02*
X338425D01*
X338925Y159850D01*
Y160516D01*
X338592Y160849D02*
X338425Y161016D01*
Y161349D01*
X338592Y161516D01*
X338759D01*
X338925Y161349D01*
X339092Y161516D01*
X339258D01*
X339425Y161349D01*
Y161016D01*
X339258Y160849D01*
X339092D01*
X338925Y161016D01*
X338759Y160849D01*
X338592D01*
X338925Y161016D02*
Y161349D01*
X324925Y159516D02*
Y159183D01*
Y159350D01*
X325758D01*
X325925Y159183D01*
Y159017D01*
X325758Y158850D01*
X325925Y160350D02*
X324925D01*
X325425Y159850D01*
Y160516D01*
X324925Y161516D02*
X325092Y161183D01*
X325425Y160849D01*
X325758D01*
X325925Y161016D01*
Y161349D01*
X325758Y161516D01*
X325592D01*
X325425Y161349D01*
Y160849D01*
X311425Y159516D02*
Y159183D01*
Y159350D01*
X312258D01*
X312425Y159183D01*
Y159017D01*
X312258Y158850D01*
X312425Y160350D02*
X311425D01*
X311925Y159850D01*
Y160516D01*
X312425Y161349D02*
X311425D01*
X311925Y160849D01*
Y161516D01*
X297925Y159516D02*
Y159183D01*
Y159350D01*
X298758D01*
X298925Y159183D01*
Y159017D01*
X298758Y158850D01*
X298925Y160350D02*
X297925D01*
X298425Y159850D01*
Y160516D01*
X298925Y161516D02*
Y160849D01*
X298259Y161516D01*
X298092D01*
X297925Y161349D01*
Y161016D01*
X298092Y160849D01*
X284425Y159516D02*
Y159183D01*
Y159350D01*
X285258D01*
X285425Y159183D01*
Y159017D01*
X285258Y158850D01*
X285425Y160350D02*
X284425D01*
X284925Y159850D01*
Y160516D01*
X284592Y160849D02*
X284425Y161016D01*
Y161349D01*
X284592Y161516D01*
X285258D01*
X285425Y161349D01*
Y161016D01*
X285258Y160849D01*
X284592D01*
X270925Y159516D02*
Y159183D01*
Y159350D01*
X271758D01*
X271925Y159183D01*
Y159017D01*
X271758Y158850D01*
X271092Y159850D02*
X270925Y160016D01*
Y160350D01*
X271092Y160516D01*
X271259D01*
X271425Y160350D01*
Y160183D01*
Y160350D01*
X271592Y160516D01*
X271758D01*
X271925Y160350D01*
Y160016D01*
X271758Y159850D01*
X271092Y160849D02*
X270925Y161016D01*
Y161349D01*
X271092Y161516D01*
X271259D01*
X271425Y161349D01*
X271592Y161516D01*
X271758D01*
X271925Y161349D01*
Y161016D01*
X271758Y160849D01*
X271592D01*
X271425Y161016D01*
X271259Y160849D01*
X271092D01*
X271425Y161016D02*
Y161349D01*
X257425Y159516D02*
Y159183D01*
Y159350D01*
X258258D01*
X258425Y159183D01*
Y159017D01*
X258258Y158850D01*
X257592Y159850D02*
X257425Y160016D01*
Y160350D01*
X257592Y160516D01*
X257759D01*
X257925Y160350D01*
Y160183D01*
Y160350D01*
X258092Y160516D01*
X258258D01*
X258425Y160350D01*
Y160016D01*
X258258Y159850D01*
X257425Y161516D02*
X257592Y161183D01*
X257925Y160849D01*
X258258D01*
X258425Y161016D01*
Y161349D01*
X258258Y161516D01*
X258092D01*
X257925Y161349D01*
Y160849D01*
X243925Y159516D02*
Y159183D01*
Y159350D01*
X244758D01*
X244925Y159183D01*
Y159017D01*
X244758Y158850D01*
X244092Y159850D02*
X243925Y160016D01*
Y160350D01*
X244092Y160516D01*
X244259D01*
X244425Y160350D01*
Y160183D01*
Y160350D01*
X244592Y160516D01*
X244758D01*
X244925Y160350D01*
Y160016D01*
X244758Y159850D01*
X244925Y161349D02*
X243925D01*
X244425Y160849D01*
Y161516D01*
X230425Y159516D02*
Y159183D01*
Y159350D01*
X231258D01*
X231425Y159183D01*
Y159017D01*
X231258Y158850D01*
X230592Y159850D02*
X230425Y160016D01*
Y160350D01*
X230592Y160516D01*
X230759D01*
X230925Y160350D01*
Y160183D01*
Y160350D01*
X231092Y160516D01*
X231258D01*
X231425Y160350D01*
Y160016D01*
X231258Y159850D01*
X231425Y161516D02*
Y160849D01*
X230759Y161516D01*
X230592D01*
X230425Y161349D01*
Y161016D01*
X230592Y160849D01*
X216925Y159516D02*
Y159183D01*
Y159350D01*
X217758D01*
X217925Y159183D01*
Y159017D01*
X217758Y158850D01*
X217092Y159850D02*
X216925Y160016D01*
Y160350D01*
X217092Y160516D01*
X217259D01*
X217425Y160350D01*
Y160183D01*
Y160350D01*
X217592Y160516D01*
X217758D01*
X217925Y160350D01*
Y160016D01*
X217758Y159850D01*
X217092Y160849D02*
X216925Y161016D01*
Y161349D01*
X217092Y161516D01*
X217758D01*
X217925Y161349D01*
Y161016D01*
X217758Y160849D01*
X217092D01*
X203425Y159516D02*
Y159183D01*
Y159350D01*
X204258D01*
X204425Y159183D01*
Y159017D01*
X204258Y158850D01*
X204425Y160516D02*
Y159850D01*
X203759Y160516D01*
X203592D01*
X203425Y160350D01*
Y160016D01*
X203592Y159850D01*
Y160849D02*
X203425Y161016D01*
Y161349D01*
X203592Y161516D01*
X203759D01*
X203925Y161349D01*
X204092Y161516D01*
X204258D01*
X204425Y161349D01*
Y161016D01*
X204258Y160849D01*
X204092D01*
X203925Y161016D01*
X203759Y160849D01*
X203592D01*
X203925Y161016D02*
Y161349D01*
X189925Y159516D02*
Y159183D01*
Y159350D01*
X190758D01*
X190925Y159183D01*
Y159017D01*
X190758Y158850D01*
X190925Y160516D02*
Y159850D01*
X190259Y160516D01*
X190092D01*
X189925Y160350D01*
Y160016D01*
X190092Y159850D01*
X189925Y161516D02*
X190092Y161183D01*
X190425Y160849D01*
X190758D01*
X190925Y161016D01*
Y161349D01*
X190758Y161516D01*
X190592D01*
X190425Y161349D01*
Y160849D01*
X176425Y159516D02*
Y159183D01*
Y159350D01*
X177258D01*
X177425Y159183D01*
Y159017D01*
X177258Y158850D01*
X177425Y160516D02*
Y159850D01*
X176759Y160516D01*
X176592D01*
X176425Y160350D01*
Y160016D01*
X176592Y159850D01*
X177425Y161349D02*
X176425D01*
X176925Y160849D01*
Y161516D01*
X162925Y159516D02*
Y159183D01*
Y159350D01*
X163758D01*
X163925Y159183D01*
Y159017D01*
X163758Y158850D01*
X163925Y160516D02*
Y159850D01*
X163259Y160516D01*
X163092D01*
X162925Y160350D01*
Y160016D01*
X163092Y159850D01*
X163925Y161516D02*
Y160849D01*
X163259Y161516D01*
X163092D01*
X162925Y161349D01*
Y161016D01*
X163092Y160849D01*
X149425Y159516D02*
Y159183D01*
Y159350D01*
X150258D01*
X150425Y159183D01*
Y159017D01*
X150258Y158850D01*
X150425Y160516D02*
Y159850D01*
X149759Y160516D01*
X149592D01*
X149425Y160350D01*
Y160016D01*
X149592Y159850D01*
Y160849D02*
X149425Y161016D01*
Y161349D01*
X149592Y161516D01*
X150258D01*
X150425Y161349D01*
Y161016D01*
X150258Y160849D01*
X149592D01*
X135925Y159516D02*
Y159183D01*
Y159350D01*
X136758D01*
X136925Y159183D01*
Y159017D01*
X136758Y158850D01*
X136925Y159850D02*
Y160183D01*
Y160016D01*
X135925D01*
X136092Y159850D01*
Y160683D02*
X135925Y160849D01*
Y161183D01*
X136092Y161349D01*
X136259D01*
X136425Y161183D01*
X136592Y161349D01*
X136758D01*
X136925Y161183D01*
Y160849D01*
X136758Y160683D01*
X136592D01*
X136425Y160849D01*
X136259Y160683D01*
X136092D01*
X136425Y160849D02*
Y161183D01*
X122425Y159516D02*
Y159183D01*
Y159350D01*
X123258D01*
X123425Y159183D01*
Y159017D01*
X123258Y158850D01*
X123425Y159850D02*
Y160183D01*
Y160016D01*
X122425D01*
X122592Y159850D01*
X122425Y161349D02*
Y160683D01*
X122925D01*
X122759Y161016D01*
Y161183D01*
X122925Y161349D01*
X123258D01*
X123425Y161183D01*
Y160849D01*
X123258Y160683D01*
X327750Y166476D02*
Y166143D01*
Y166310D01*
X328583D01*
X328750Y166143D01*
Y165977D01*
X328583Y165810D01*
X328750Y167310D02*
X327750D01*
X328250Y166810D01*
Y167476D01*
X327750Y167809D02*
Y168476D01*
X327917D01*
X328583Y167809D01*
X328750D01*
X314250Y166476D02*
Y166143D01*
Y166310D01*
X315083D01*
X315250Y166143D01*
Y165977D01*
X315083Y165810D01*
X315250Y167310D02*
X314250D01*
X314750Y166810D01*
Y167476D01*
X314250Y168476D02*
Y167809D01*
X314750D01*
X314584Y168143D01*
Y168309D01*
X314750Y168476D01*
X315083D01*
X315250Y168309D01*
Y167976D01*
X315083Y167809D01*
X300750Y166476D02*
Y166143D01*
Y166310D01*
X301583D01*
X301750Y166143D01*
Y165977D01*
X301583Y165810D01*
X301750Y167310D02*
X300750D01*
X301250Y166810D01*
Y167476D01*
X300917Y167809D02*
X300750Y167976D01*
Y168309D01*
X300917Y168476D01*
X301084D01*
X301250Y168309D01*
Y168143D01*
Y168309D01*
X301417Y168476D01*
X301583D01*
X301750Y168309D01*
Y167976D01*
X301583Y167809D01*
X287250Y166476D02*
Y166143D01*
Y166310D01*
X288083D01*
X288250Y166143D01*
Y165977D01*
X288083Y165810D01*
X288250Y167310D02*
X287250D01*
X287750Y166810D01*
Y167476D01*
X288250Y167809D02*
Y168143D01*
Y167976D01*
X287250D01*
X287417Y167809D01*
X273750Y166476D02*
Y166143D01*
Y166310D01*
X274583D01*
X274750Y166143D01*
Y165977D01*
X274583Y165810D01*
X273917Y166810D02*
X273750Y166976D01*
Y167310D01*
X273917Y167476D01*
X274084D01*
X274250Y167310D01*
Y167143D01*
Y167310D01*
X274417Y167476D01*
X274583D01*
X274750Y167310D01*
Y166976D01*
X274583Y166810D01*
Y167809D02*
X274750Y167976D01*
Y168309D01*
X274583Y168476D01*
X273917D01*
X273750Y168309D01*
Y167976D01*
X273917Y167809D01*
X274084D01*
X274250Y167976D01*
Y168476D01*
X260250Y166476D02*
Y166143D01*
Y166310D01*
X261083D01*
X261250Y166143D01*
Y165977D01*
X261083Y165810D01*
X260417Y166810D02*
X260250Y166976D01*
Y167310D01*
X260417Y167476D01*
X260584D01*
X260750Y167310D01*
Y167143D01*
Y167310D01*
X260917Y167476D01*
X261083D01*
X261250Y167310D01*
Y166976D01*
X261083Y166810D01*
X260250Y167809D02*
Y168476D01*
X260417D01*
X261083Y167809D01*
X261250D01*
X246750Y166476D02*
Y166143D01*
Y166310D01*
X247583D01*
X247750Y166143D01*
Y165977D01*
X247583Y165810D01*
X246917Y166810D02*
X246750Y166976D01*
Y167310D01*
X246917Y167476D01*
X247084D01*
X247250Y167310D01*
Y167143D01*
Y167310D01*
X247417Y167476D01*
X247583D01*
X247750Y167310D01*
Y166976D01*
X247583Y166810D01*
X246750Y168476D02*
Y167809D01*
X247250D01*
X247084Y168143D01*
Y168309D01*
X247250Y168476D01*
X247583D01*
X247750Y168309D01*
Y167976D01*
X247583Y167809D01*
X233250Y166476D02*
Y166143D01*
Y166310D01*
X234083D01*
X234250Y166143D01*
Y165977D01*
X234083Y165810D01*
X233417Y166810D02*
X233250Y166976D01*
Y167310D01*
X233417Y167476D01*
X233584D01*
X233750Y167310D01*
Y167143D01*
Y167310D01*
X233917Y167476D01*
X234083D01*
X234250Y167310D01*
Y166976D01*
X234083Y166810D01*
X233417Y167809D02*
X233250Y167976D01*
Y168309D01*
X233417Y168476D01*
X233584D01*
X233750Y168309D01*
Y168143D01*
Y168309D01*
X233917Y168476D01*
X234083D01*
X234250Y168309D01*
Y167976D01*
X234083Y167809D01*
X219750Y166476D02*
Y166143D01*
Y166310D01*
X220583D01*
X220750Y166143D01*
Y165977D01*
X220583Y165810D01*
X219917Y166810D02*
X219750Y166976D01*
Y167310D01*
X219917Y167476D01*
X220084D01*
X220250Y167310D01*
Y167143D01*
Y167310D01*
X220417Y167476D01*
X220583D01*
X220750Y167310D01*
Y166976D01*
X220583Y166810D01*
X220750Y167809D02*
Y168143D01*
Y167976D01*
X219750D01*
X219917Y167809D01*
X206250Y166476D02*
Y166143D01*
Y166310D01*
X207083D01*
X207250Y166143D01*
Y165977D01*
X207083Y165810D01*
X207250Y167476D02*
Y166810D01*
X206584Y167476D01*
X206417D01*
X206250Y167310D01*
Y166976D01*
X206417Y166810D01*
X207083Y167809D02*
X207250Y167976D01*
Y168309D01*
X207083Y168476D01*
X206417D01*
X206250Y168309D01*
Y167976D01*
X206417Y167809D01*
X206584D01*
X206750Y167976D01*
Y168476D01*
X192750Y166476D02*
Y166143D01*
Y166310D01*
X193583D01*
X193750Y166143D01*
Y165977D01*
X193583Y165810D01*
X193750Y167476D02*
Y166810D01*
X193084Y167476D01*
X192917D01*
X192750Y167310D01*
Y166976D01*
X192917Y166810D01*
X192750Y167809D02*
Y168476D01*
X192917D01*
X193583Y167809D01*
X193750D01*
X179250Y166476D02*
Y166143D01*
Y166310D01*
X180083D01*
X180250Y166143D01*
Y165977D01*
X180083Y165810D01*
X180250Y167476D02*
Y166810D01*
X179584Y167476D01*
X179417D01*
X179250Y167310D01*
Y166976D01*
X179417Y166810D01*
X179250Y168476D02*
Y167809D01*
X179750D01*
X179584Y168143D01*
Y168309D01*
X179750Y168476D01*
X180083D01*
X180250Y168309D01*
Y167976D01*
X180083Y167809D01*
X165750Y166476D02*
Y166143D01*
Y166310D01*
X166583D01*
X166750Y166143D01*
Y165977D01*
X166583Y165810D01*
X166750Y167476D02*
Y166810D01*
X166084Y167476D01*
X165917D01*
X165750Y167310D01*
Y166976D01*
X165917Y166810D01*
Y167809D02*
X165750Y167976D01*
Y168309D01*
X165917Y168476D01*
X166084D01*
X166250Y168309D01*
Y168143D01*
Y168309D01*
X166417Y168476D01*
X166583D01*
X166750Y168309D01*
Y167976D01*
X166583Y167809D01*
X152250Y166476D02*
Y166143D01*
Y166310D01*
X153083D01*
X153250Y166143D01*
Y165977D01*
X153083Y165810D01*
X153250Y167476D02*
Y166810D01*
X152584Y167476D01*
X152417D01*
X152250Y167310D01*
Y166976D01*
X152417Y166810D01*
X153250Y167809D02*
Y168143D01*
Y167976D01*
X152250D01*
X152417Y167809D01*
X138750Y166476D02*
Y166143D01*
Y166310D01*
X139583D01*
X139750Y166143D01*
Y165977D01*
X139583Y165810D01*
X139750Y166810D02*
Y167143D01*
Y166976D01*
X138750D01*
X138917Y166810D01*
X139583Y167643D02*
X139750Y167809D01*
Y168143D01*
X139583Y168309D01*
X138917D01*
X138750Y168143D01*
Y167809D01*
X138917Y167643D01*
X139084D01*
X139250Y167809D01*
Y168309D01*
X125250Y166476D02*
Y166143D01*
Y166310D01*
X126083D01*
X126250Y166143D01*
Y165977D01*
X126083Y165810D01*
X126250Y166810D02*
Y167143D01*
Y166976D01*
X125250D01*
X125417Y166810D01*
X125250Y167643D02*
Y168309D01*
X125417D01*
X126083Y167643D01*
X126250D01*
X111750Y166476D02*
Y166143D01*
Y166310D01*
X112583D01*
X112750Y166143D01*
Y165977D01*
X112583Y165810D01*
X112750Y166810D02*
Y167143D01*
Y166976D01*
X111750D01*
X111917Y166810D01*
X112750Y168143D02*
X111750D01*
X112250Y167643D01*
Y168309D01*
X121996Y97410D02*
X121663D01*
X121829D01*
Y96577D01*
X121663Y96410D01*
X121496D01*
X121329Y96577D01*
X122996Y97410D02*
X122662Y97243D01*
X122329Y96910D01*
Y96577D01*
X122496Y96410D01*
X122829D01*
X122996Y96577D01*
Y96743D01*
X122829Y96910D01*
X122329D01*
X118491Y97410D02*
X118157D01*
X118324D01*
Y96577D01*
X118157Y96410D01*
X117991D01*
X117824Y96577D01*
X119490Y97410D02*
X118824D01*
Y96910D01*
X119157Y97076D01*
X119324D01*
X119490Y96910D01*
Y96577D01*
X119324Y96410D01*
X118990D01*
X118824Y96577D01*
X224725Y107450D02*
X225725D01*
Y107950D01*
X225558Y108116D01*
X224892D01*
X224725Y107950D01*
Y107450D01*
X225725Y108450D02*
X225059D01*
X224725Y108783D01*
X225059Y109116D01*
X225725D01*
X225225D01*
Y108450D01*
X225725Y110116D02*
Y109449D01*
X225059Y110116D01*
X224892D01*
X224725Y109949D01*
Y109616D01*
X224892Y109449D01*
Y110449D02*
X224725Y110616D01*
Y110949D01*
X224892Y111115D01*
X225059D01*
X225225Y110949D01*
Y110782D01*
Y110949D01*
X225392Y111115D01*
X225558D01*
X225725Y110949D01*
Y110616D01*
X225558Y110449D01*
X208475Y107675D02*
X209475D01*
Y108175D01*
X209308Y108341D01*
X208642D01*
X208475Y108175D01*
Y107675D01*
X209475Y108675D02*
X208809D01*
X208475Y109008D01*
X208809Y109341D01*
X209475D01*
X208975D01*
Y108675D01*
X208475Y110341D02*
Y109674D01*
X208975D01*
X208809Y110008D01*
Y110174D01*
X208975Y110341D01*
X209308D01*
X209475Y110174D01*
Y109841D01*
X209308Y109674D01*
X337750Y136500D02*
X338750D01*
Y137000D01*
X338583Y137166D01*
X337917D01*
X337750Y137000D01*
Y136500D01*
X338750Y137500D02*
X338084D01*
X337750Y137833D01*
X338084Y138166D01*
X338750D01*
X338250D01*
Y137500D01*
X338750Y139166D02*
Y138499D01*
X338084Y139166D01*
X337917D01*
X337750Y138999D01*
Y138666D01*
X337917Y138499D01*
X338750Y140165D02*
Y139499D01*
X338084Y140165D01*
X337917D01*
X337750Y139999D01*
Y139666D01*
X337917Y139499D01*
X324250Y136500D02*
X325250D01*
Y137000D01*
X325083Y137166D01*
X324417D01*
X324250Y137000D01*
Y136500D01*
X325250Y137500D02*
X324584D01*
X324250Y137833D01*
X324584Y138166D01*
X325250D01*
X324750D01*
Y137500D01*
X325250Y139166D02*
Y138499D01*
X324584Y139166D01*
X324417D01*
X324250Y138999D01*
Y138666D01*
X324417Y138499D01*
X325250Y139499D02*
Y139832D01*
Y139666D01*
X324250D01*
X324417Y139499D01*
X310750Y136500D02*
X311750D01*
Y137000D01*
X311583Y137166D01*
X310917D01*
X310750Y137000D01*
Y136500D01*
X311750Y137500D02*
X311084D01*
X310750Y137833D01*
X311084Y138166D01*
X311750D01*
X311250D01*
Y137500D01*
X311750Y139166D02*
Y138499D01*
X311084Y139166D01*
X310917D01*
X310750Y138999D01*
Y138666D01*
X310917Y138499D01*
Y139499D02*
X310750Y139666D01*
Y139999D01*
X310917Y140165D01*
X311583D01*
X311750Y139999D01*
Y139666D01*
X311583Y139499D01*
X310917D01*
X297250Y136500D02*
X298250D01*
Y137000D01*
X298083Y137166D01*
X297417D01*
X297250Y137000D01*
Y136500D01*
X298250Y137500D02*
X297584D01*
X297250Y137833D01*
X297584Y138166D01*
X298250D01*
X297750D01*
Y137500D01*
X298250Y138499D02*
Y138833D01*
Y138666D01*
X297250D01*
X297417Y138499D01*
X298083Y139332D02*
X298250Y139499D01*
Y139832D01*
X298083Y139999D01*
X297417D01*
X297250Y139832D01*
Y139499D01*
X297417Y139332D01*
X297584D01*
X297750Y139499D01*
Y139999D01*
X283750Y136500D02*
X284750D01*
Y137000D01*
X284583Y137166D01*
X283917D01*
X283750Y137000D01*
Y136500D01*
X284750Y137500D02*
X284084D01*
X283750Y137833D01*
X284084Y138166D01*
X284750D01*
X284250D01*
Y137500D01*
X284750Y138499D02*
Y138833D01*
Y138666D01*
X283750D01*
X283917Y138499D01*
Y139332D02*
X283750Y139499D01*
Y139832D01*
X283917Y139999D01*
X284084D01*
X284250Y139832D01*
X284417Y139999D01*
X284583D01*
X284750Y139832D01*
Y139499D01*
X284583Y139332D01*
X284417D01*
X284250Y139499D01*
X284084Y139332D01*
X283917D01*
X284250Y139499D02*
Y139832D01*
X270250Y136500D02*
X271250D01*
Y137000D01*
X271083Y137166D01*
X270417D01*
X270250Y137000D01*
Y136500D01*
X271250Y137500D02*
X270584D01*
X270250Y137833D01*
X270584Y138166D01*
X271250D01*
X270750D01*
Y137500D01*
X271250Y138499D02*
Y138833D01*
Y138666D01*
X270250D01*
X270417Y138499D01*
X270250Y139332D02*
Y139999D01*
X270417D01*
X271083Y139332D01*
X271250D01*
X256750Y136500D02*
X257750D01*
Y137000D01*
X257583Y137166D01*
X256917D01*
X256750Y137000D01*
Y136500D01*
X257750Y137500D02*
X257084D01*
X256750Y137833D01*
X257084Y138166D01*
X257750D01*
X257250D01*
Y137500D01*
X257750Y138499D02*
Y138833D01*
Y138666D01*
X256750D01*
X256917Y138499D01*
X256750Y139999D02*
X256917Y139666D01*
X257250Y139332D01*
X257583D01*
X257750Y139499D01*
Y139832D01*
X257583Y139999D01*
X257417D01*
X257250Y139832D01*
Y139332D01*
X243250Y136500D02*
X244250D01*
Y137000D01*
X244083Y137166D01*
X243417D01*
X243250Y137000D01*
Y136500D01*
X244250Y137500D02*
X243584D01*
X243250Y137833D01*
X243584Y138166D01*
X244250D01*
X243750D01*
Y137500D01*
X244250Y138499D02*
Y138833D01*
Y138666D01*
X243250D01*
X243417Y138499D01*
X243250Y139999D02*
Y139332D01*
X243750D01*
X243584Y139666D01*
Y139832D01*
X243750Y139999D01*
X244083D01*
X244250Y139832D01*
Y139499D01*
X244083Y139332D01*
X229750Y136500D02*
X230750D01*
Y137000D01*
X230583Y137166D01*
X229917D01*
X229750Y137000D01*
Y136500D01*
X230750Y137500D02*
X230084D01*
X229750Y137833D01*
X230084Y138166D01*
X230750D01*
X230250D01*
Y137500D01*
X230750Y138499D02*
Y138833D01*
Y138666D01*
X229750D01*
X229917Y138499D01*
X230750Y139832D02*
X229750D01*
X230250Y139332D01*
Y139999D01*
X216250Y136500D02*
X217250D01*
Y137000D01*
X217083Y137166D01*
X216417D01*
X216250Y137000D01*
Y136500D01*
X217250Y137500D02*
X216584D01*
X216250Y137833D01*
X216584Y138166D01*
X217250D01*
X216750D01*
Y137500D01*
X217250Y138499D02*
Y138833D01*
Y138666D01*
X216250D01*
X216417Y138499D01*
Y139332D02*
X216250Y139499D01*
Y139832D01*
X216417Y139999D01*
X216584D01*
X216750Y139832D01*
Y139666D01*
Y139832D01*
X216917Y139999D01*
X217083D01*
X217250Y139832D01*
Y139499D01*
X217083Y139332D01*
X202750Y136500D02*
X203750D01*
Y137000D01*
X203583Y137166D01*
X202917D01*
X202750Y137000D01*
Y136500D01*
X203750Y137500D02*
X203084D01*
X202750Y137833D01*
X203084Y138166D01*
X203750D01*
X203250D01*
Y137500D01*
X203750Y138499D02*
Y138833D01*
Y138666D01*
X202750D01*
X202917Y138499D01*
X203750Y139999D02*
Y139332D01*
X203084Y139999D01*
X202917D01*
X202750Y139832D01*
Y139499D01*
X202917Y139332D01*
X189250Y136500D02*
X190250D01*
Y137000D01*
X190083Y137166D01*
X189417D01*
X189250Y137000D01*
Y136500D01*
X190250Y137500D02*
X189584D01*
X189250Y137833D01*
X189584Y138166D01*
X190250D01*
X189750D01*
Y137500D01*
X190250Y138499D02*
Y138833D01*
Y138666D01*
X189250D01*
X189417Y138499D01*
X190250Y139332D02*
Y139666D01*
Y139499D01*
X189250D01*
X189417Y139332D01*
X175750Y136500D02*
X176750D01*
Y137000D01*
X176583Y137166D01*
X175917D01*
X175750Y137000D01*
Y136500D01*
X176750Y137500D02*
X176084D01*
X175750Y137833D01*
X176084Y138166D01*
X176750D01*
X176250D01*
Y137500D01*
X176750Y138499D02*
Y138833D01*
Y138666D01*
X175750D01*
X175917Y138499D01*
Y139332D02*
X175750Y139499D01*
Y139832D01*
X175917Y139999D01*
X176583D01*
X176750Y139832D01*
Y139499D01*
X176583Y139332D01*
X175917D01*
X162250Y136500D02*
X163250D01*
Y137000D01*
X163083Y137166D01*
X162417D01*
X162250Y137000D01*
Y136500D01*
X163250Y137500D02*
X162584D01*
X162250Y137833D01*
X162584Y138166D01*
X163250D01*
X162750D01*
Y137500D01*
X163083Y138499D02*
X163250Y138666D01*
Y138999D01*
X163083Y139166D01*
X162417D01*
X162250Y138999D01*
Y138666D01*
X162417Y138499D01*
X162584D01*
X162750Y138666D01*
Y139166D01*
X148750Y136500D02*
X149750D01*
Y137000D01*
X149583Y137166D01*
X148917D01*
X148750Y137000D01*
Y136500D01*
X149750Y137500D02*
X149084D01*
X148750Y137833D01*
X149084Y138166D01*
X149750D01*
X149250D01*
Y137500D01*
X148917Y138499D02*
X148750Y138666D01*
Y138999D01*
X148917Y139166D01*
X149084D01*
X149250Y138999D01*
X149417Y139166D01*
X149583D01*
X149750Y138999D01*
Y138666D01*
X149583Y138499D01*
X149417D01*
X149250Y138666D01*
X149084Y138499D01*
X148917D01*
X149250Y138666D02*
Y138999D01*
X135250Y136500D02*
X136250D01*
Y137000D01*
X136083Y137166D01*
X135417D01*
X135250Y137000D01*
Y136500D01*
X136250Y137500D02*
X135584D01*
X135250Y137833D01*
X135584Y138166D01*
X136250D01*
X135750D01*
Y137500D01*
X135250Y138499D02*
Y139166D01*
X135417D01*
X136083Y138499D01*
X136250D01*
X121750Y136500D02*
X122750D01*
Y137000D01*
X122583Y137166D01*
X121917D01*
X121750Y137000D01*
Y136500D01*
X122750Y137500D02*
X122084D01*
X121750Y137833D01*
X122084Y138166D01*
X122750D01*
X122250D01*
Y137500D01*
X122750Y138999D02*
X121750D01*
X122250Y138499D01*
Y139166D01*
X217185Y94219D02*
Y93220D01*
X217685D01*
X217851Y93386D01*
Y94053D01*
X217685Y94219D01*
X217185D01*
X218184Y93220D02*
Y93886D01*
X218518Y94219D01*
X218851Y93886D01*
Y93220D01*
Y93720D01*
X218184D01*
X219184Y94053D02*
X219351Y94219D01*
X219684D01*
X219851Y94053D01*
Y93886D01*
X219684Y93720D01*
X219517D01*
X219684D01*
X219851Y93553D01*
Y93386D01*
X219684Y93220D01*
X219351D01*
X219184Y93386D01*
X205685Y94296D02*
Y93296D01*
X206185D01*
X206352Y93463D01*
Y94129D01*
X206185Y94296D01*
X205685D01*
X206685Y93296D02*
Y93962D01*
X207018Y94296D01*
X207351Y93962D01*
Y93296D01*
Y93796D01*
X206685D01*
X208351Y93296D02*
X207685D01*
X208351Y93962D01*
Y94129D01*
X208184Y94296D01*
X207851D01*
X207685Y94129D01*
X133200Y88800D02*
Y87800D01*
X133700D01*
X133866Y87967D01*
Y88633D01*
X133700Y88800D01*
X133200D01*
X134200Y87800D02*
Y88466D01*
X134533Y88800D01*
X134866Y88466D01*
Y87800D01*
Y88300D01*
X134200D01*
X135199Y87800D02*
X135533D01*
X135366D01*
Y88800D01*
X135199Y88633D01*
X219016Y103383D02*
X218850Y103550D01*
X218517D01*
X218350Y103383D01*
Y102717D01*
X218517Y102550D01*
X218850D01*
X219016Y102717D01*
X219350Y102550D02*
X219683D01*
X219516D01*
Y103550D01*
X219350Y103383D01*
X220849Y102550D02*
X220183D01*
X220849Y103216D01*
Y103383D01*
X220683Y103550D01*
X220349D01*
X220183Y103383D01*
X221182Y102550D02*
X221516D01*
X221349D01*
Y103550D01*
X221182Y103383D01*
X200616Y105033D02*
X200450Y105200D01*
X200117D01*
X199950Y105033D01*
Y104367D01*
X200117Y104200D01*
X200450D01*
X200616Y104367D01*
X200950Y104200D02*
X201283D01*
X201116D01*
Y105200D01*
X200950Y105033D01*
X201783Y105200D02*
X202449D01*
Y105033D01*
X201783Y104367D01*
Y104200D01*
X225166Y118083D02*
X225000Y118250D01*
X224667D01*
X224500Y118083D01*
Y117417D01*
X224667Y117250D01*
X225000D01*
X225166Y117417D01*
X225500Y117250D02*
X225833D01*
X225666D01*
Y118250D01*
X225500Y118083D01*
X226999Y117250D02*
X226333D01*
X226999Y117916D01*
Y118083D01*
X226833Y118250D01*
X226499D01*
X226333Y118083D01*
X227332D02*
X227499Y118250D01*
X227832D01*
X227999Y118083D01*
Y117417D01*
X227832Y117250D01*
X227499D01*
X227332Y117417D01*
Y118083D01*
X209141Y118133D02*
X208975Y118300D01*
X208642D01*
X208475Y118133D01*
Y117467D01*
X208642Y117300D01*
X208975D01*
X209141Y117467D01*
X209475Y117300D02*
X209808D01*
X209641D01*
Y118300D01*
X209475Y118133D01*
X210974Y118300D02*
X210641Y118133D01*
X210308Y117800D01*
Y117467D01*
X210474Y117300D01*
X210808D01*
X210974Y117467D01*
Y117633D01*
X210808Y117800D01*
X210308D01*
X225166Y116083D02*
X225000Y116250D01*
X224667D01*
X224500Y116083D01*
Y115417D01*
X224667Y115250D01*
X225000D01*
X225166Y115417D01*
X225500Y115250D02*
X225833D01*
X225666D01*
Y116250D01*
X225500Y116083D01*
X226333Y115250D02*
X226666D01*
X226499D01*
Y116250D01*
X226333Y116083D01*
X227166Y115417D02*
X227332Y115250D01*
X227666D01*
X227832Y115417D01*
Y116083D01*
X227666Y116250D01*
X227332D01*
X227166Y116083D01*
Y115916D01*
X227332Y115750D01*
X227832D01*
X209141Y116133D02*
X208975Y116300D01*
X208642D01*
X208475Y116133D01*
Y115467D01*
X208642Y115300D01*
X208975D01*
X209141Y115467D01*
X209475Y115300D02*
X209808D01*
X209641D01*
Y116300D01*
X209475Y116133D01*
X210974Y116300D02*
X210308D01*
Y115800D01*
X210641Y115966D01*
X210808D01*
X210974Y115800D01*
Y115467D01*
X210808Y115300D01*
X210474D01*
X210308Y115467D01*
X224166Y105583D02*
X224000Y105750D01*
X223667D01*
X223500Y105583D01*
Y104917D01*
X223667Y104750D01*
X224000D01*
X224166Y104917D01*
X224500Y104750D02*
X224833D01*
X224666D01*
Y105750D01*
X224500Y105583D01*
X225333Y104750D02*
X225666D01*
X225499D01*
Y105750D01*
X225333Y105583D01*
X226166D02*
X226332Y105750D01*
X226666D01*
X226832Y105583D01*
Y105416D01*
X226666Y105250D01*
X226832Y105083D01*
Y104917D01*
X226666Y104750D01*
X226332D01*
X226166Y104917D01*
Y105083D01*
X226332Y105250D01*
X226166Y105416D01*
Y105583D01*
X226332Y105250D02*
X226666D01*
X208141Y105633D02*
X207975Y105800D01*
X207642D01*
X207475Y105633D01*
Y104967D01*
X207642Y104800D01*
X207975D01*
X208141Y104967D01*
X208475Y104800D02*
X208808D01*
X208641D01*
Y105800D01*
X208475Y105633D01*
X209808Y104800D02*
Y105800D01*
X209308Y105300D01*
X209974D01*
X331766Y136533D02*
X331600Y136700D01*
X331267D01*
X331100Y136533D01*
Y135867D01*
X331267Y135700D01*
X331600D01*
X331766Y135867D01*
X332100Y135700D02*
X332433D01*
X332266D01*
Y136700D01*
X332100Y136533D01*
X332933Y135700D02*
X333266D01*
X333099D01*
Y136700D01*
X332933Y136533D01*
X333766Y136700D02*
X334432D01*
Y136533D01*
X333766Y135867D01*
Y135700D01*
X318266Y136533D02*
X318100Y136700D01*
X317767D01*
X317600Y136533D01*
Y135867D01*
X317767Y135700D01*
X318100D01*
X318266Y135867D01*
X318600Y135700D02*
X318933D01*
X318766D01*
Y136700D01*
X318600Y136533D01*
X319433Y135700D02*
X319766D01*
X319599D01*
Y136700D01*
X319433Y136533D01*
X320266Y135700D02*
X320599D01*
X320432D01*
Y136700D01*
X320266Y136533D01*
X304766D02*
X304600Y136700D01*
X304267D01*
X304100Y136533D01*
Y135867D01*
X304267Y135700D01*
X304600D01*
X304766Y135867D01*
X305100Y135700D02*
X305433D01*
X305266D01*
Y136700D01*
X305100Y136533D01*
X305933D02*
X306099Y136700D01*
X306433D01*
X306599Y136533D01*
Y135867D01*
X306433Y135700D01*
X306099D01*
X305933Y135867D01*
Y136533D01*
X307599Y136700D02*
X306932D01*
Y136200D01*
X307266Y136366D01*
X307432D01*
X307599Y136200D01*
Y135867D01*
X307432Y135700D01*
X307099D01*
X306932Y135867D01*
X291266Y136533D02*
X291100Y136700D01*
X290767D01*
X290600Y136533D01*
Y135867D01*
X290767Y135700D01*
X291100D01*
X291266Y135867D01*
X291600D02*
X291766Y135700D01*
X292100D01*
X292266Y135867D01*
Y136533D01*
X292100Y136700D01*
X291766D01*
X291600Y136533D01*
Y136366D01*
X291766Y136200D01*
X292266D01*
X292599Y135867D02*
X292766Y135700D01*
X293099D01*
X293266Y135867D01*
Y136533D01*
X293099Y136700D01*
X292766D01*
X292599Y136533D01*
Y136366D01*
X292766Y136200D01*
X293266D01*
X277766Y136533D02*
X277600Y136700D01*
X277267D01*
X277100Y136533D01*
Y135867D01*
X277267Y135700D01*
X277600D01*
X277766Y135867D01*
X278100D02*
X278266Y135700D01*
X278600D01*
X278766Y135867D01*
Y136533D01*
X278600Y136700D01*
X278266D01*
X278100Y136533D01*
Y136366D01*
X278266Y136200D01*
X278766D01*
X279099Y136533D02*
X279266Y136700D01*
X279599D01*
X279766Y136533D01*
Y136366D01*
X279599Y136200D01*
X279433D01*
X279599D01*
X279766Y136033D01*
Y135867D01*
X279599Y135700D01*
X279266D01*
X279099Y135867D01*
X264266Y136533D02*
X264100Y136700D01*
X263767D01*
X263600Y136533D01*
Y135867D01*
X263767Y135700D01*
X264100D01*
X264266Y135867D01*
X264600Y136533D02*
X264766Y136700D01*
X265100D01*
X265266Y136533D01*
Y136366D01*
X265100Y136200D01*
X265266Y136033D01*
Y135867D01*
X265100Y135700D01*
X264766D01*
X264600Y135867D01*
Y136033D01*
X264766Y136200D01*
X264600Y136366D01*
Y136533D01*
X264766Y136200D02*
X265100D01*
X265599Y136700D02*
X266266D01*
Y136533D01*
X265599Y135867D01*
Y135700D01*
X250766Y136533D02*
X250600Y136700D01*
X250267D01*
X250100Y136533D01*
Y135867D01*
X250267Y135700D01*
X250600D01*
X250766Y135867D01*
X251100Y136533D02*
X251266Y136700D01*
X251600D01*
X251766Y136533D01*
Y136366D01*
X251600Y136200D01*
X251766Y136033D01*
Y135867D01*
X251600Y135700D01*
X251266D01*
X251100Y135867D01*
Y136033D01*
X251266Y136200D01*
X251100Y136366D01*
Y136533D01*
X251266Y136200D02*
X251600D01*
X252099Y135700D02*
X252433D01*
X252266D01*
Y136700D01*
X252099Y136533D01*
X237266D02*
X237100Y136700D01*
X236767D01*
X236600Y136533D01*
Y135867D01*
X236767Y135700D01*
X237100D01*
X237266Y135867D01*
X237600Y136700D02*
X238266D01*
Y136533D01*
X237600Y135867D01*
Y135700D01*
X239266Y136700D02*
X238599D01*
Y136200D01*
X238933Y136366D01*
X239099D01*
X239266Y136200D01*
Y135867D01*
X239099Y135700D01*
X238766D01*
X238599Y135867D01*
X223766Y136533D02*
X223600Y136700D01*
X223267D01*
X223100Y136533D01*
Y135867D01*
X223267Y135700D01*
X223600D01*
X223766Y135867D01*
X224766Y136700D02*
X224433Y136533D01*
X224100Y136200D01*
Y135867D01*
X224266Y135700D01*
X224600D01*
X224766Y135867D01*
Y136033D01*
X224600Y136200D01*
X224100D01*
X225099Y135867D02*
X225266Y135700D01*
X225599D01*
X225766Y135867D01*
Y136533D01*
X225599Y136700D01*
X225266D01*
X225099Y136533D01*
Y136366D01*
X225266Y136200D01*
X225766D01*
X210266Y136533D02*
X210100Y136700D01*
X209767D01*
X209600Y136533D01*
Y135867D01*
X209767Y135700D01*
X210100D01*
X210266Y135867D01*
X211266Y136700D02*
X210933Y136533D01*
X210600Y136200D01*
Y135867D01*
X210766Y135700D01*
X211100D01*
X211266Y135867D01*
Y136033D01*
X211100Y136200D01*
X210600D01*
X211599Y136533D02*
X211766Y136700D01*
X212099D01*
X212266Y136533D01*
Y136366D01*
X212099Y136200D01*
X211933D01*
X212099D01*
X212266Y136033D01*
Y135867D01*
X212099Y135700D01*
X211766D01*
X211599Y135867D01*
X196766Y136533D02*
X196600Y136700D01*
X196267D01*
X196100Y136533D01*
Y135867D01*
X196267Y135700D01*
X196600D01*
X196766Y135867D01*
X197766Y136700D02*
X197100D01*
Y136200D01*
X197433Y136366D01*
X197600D01*
X197766Y136200D01*
Y135867D01*
X197600Y135700D01*
X197266D01*
X197100Y135867D01*
X198099Y136700D02*
X198766D01*
Y136533D01*
X198099Y135867D01*
Y135700D01*
X183266Y136533D02*
X183100Y136700D01*
X182767D01*
X182600Y136533D01*
Y135867D01*
X182767Y135700D01*
X183100D01*
X183266Y135867D01*
X184266Y136700D02*
X183600D01*
Y136200D01*
X183933Y136366D01*
X184100D01*
X184266Y136200D01*
Y135867D01*
X184100Y135700D01*
X183766D01*
X183600Y135867D01*
X184599Y135700D02*
X184933D01*
X184766D01*
Y136700D01*
X184599Y136533D01*
X169766D02*
X169600Y136700D01*
X169267D01*
X169100Y136533D01*
Y135867D01*
X169267Y135700D01*
X169600D01*
X169766Y135867D01*
X170600Y135700D02*
Y136700D01*
X170100Y136200D01*
X170766D01*
X171766Y136700D02*
X171099D01*
Y136200D01*
X171433Y136366D01*
X171599D01*
X171766Y136200D01*
Y135867D01*
X171599Y135700D01*
X171266D01*
X171099Y135867D01*
X156266Y136533D02*
X156100Y136700D01*
X155767D01*
X155600Y136533D01*
Y135867D01*
X155767Y135700D01*
X156100D01*
X156266Y135867D01*
X156600Y136533D02*
X156766Y136700D01*
X157100D01*
X157266Y136533D01*
Y136366D01*
X157100Y136200D01*
X156933D01*
X157100D01*
X157266Y136033D01*
Y135867D01*
X157100Y135700D01*
X156766D01*
X156600Y135867D01*
X157599D02*
X157766Y135700D01*
X158099D01*
X158266Y135867D01*
Y136533D01*
X158099Y136700D01*
X157766D01*
X157599Y136533D01*
Y136366D01*
X157766Y136200D01*
X158266D01*
X142766Y136533D02*
X142600Y136700D01*
X142267D01*
X142100Y136533D01*
Y135867D01*
X142267Y135700D01*
X142600D01*
X142766Y135867D01*
X143100Y136533D02*
X143266Y136700D01*
X143600D01*
X143766Y136533D01*
Y136366D01*
X143600Y136200D01*
X143433D01*
X143600D01*
X143766Y136033D01*
Y135867D01*
X143600Y135700D01*
X143266D01*
X143100Y135867D01*
X144099Y136533D02*
X144266Y136700D01*
X144599D01*
X144766Y136533D01*
Y136366D01*
X144599Y136200D01*
X144433D01*
X144599D01*
X144766Y136033D01*
Y135867D01*
X144599Y135700D01*
X144266D01*
X144099Y135867D01*
X129266Y136533D02*
X129100Y136700D01*
X128767D01*
X128600Y136533D01*
Y135867D01*
X128767Y135700D01*
X129100D01*
X129266Y135867D01*
X130266Y135700D02*
X129600D01*
X130266Y136366D01*
Y136533D01*
X130100Y136700D01*
X129766D01*
X129600Y136533D01*
X130599Y136700D02*
X131266D01*
Y136533D01*
X130599Y135867D01*
Y135700D01*
X115766Y136533D02*
X115600Y136700D01*
X115267D01*
X115100Y136533D01*
Y135867D01*
X115267Y135700D01*
X115600D01*
X115766Y135867D01*
X116100Y135700D02*
X116433D01*
X116266D01*
Y136700D01*
X116100Y136533D01*
X116933D02*
X117099Y136700D01*
X117433D01*
X117599Y136533D01*
Y136366D01*
X117433Y136200D01*
X117266D01*
X117433D01*
X117599Y136033D01*
Y135867D01*
X117433Y135700D01*
X117099D01*
X116933Y135867D01*
X331866Y134433D02*
X331700Y134600D01*
X331367D01*
X331200Y134433D01*
Y133767D01*
X331367Y133600D01*
X331700D01*
X331866Y133767D01*
X332200Y133600D02*
X332533D01*
X332366D01*
Y134600D01*
X332200Y134433D01*
X333033Y133600D02*
X333366D01*
X333199D01*
Y134600D01*
X333033Y134433D01*
X334532Y134600D02*
X334199Y134433D01*
X333866Y134100D01*
Y133767D01*
X334032Y133600D01*
X334366D01*
X334532Y133767D01*
Y133933D01*
X334366Y134100D01*
X333866D01*
X318366Y134433D02*
X318200Y134600D01*
X317867D01*
X317700Y134433D01*
Y133767D01*
X317867Y133600D01*
X318200D01*
X318366Y133767D01*
X318700Y133600D02*
X319033D01*
X318866D01*
Y134600D01*
X318700Y134433D01*
X319533Y133600D02*
X319866D01*
X319699D01*
Y134600D01*
X319533Y134433D01*
X320366D02*
X320532Y134600D01*
X320866D01*
X321032Y134433D01*
Y133767D01*
X320866Y133600D01*
X320532D01*
X320366Y133767D01*
Y134433D01*
X304866D02*
X304700Y134600D01*
X304367D01*
X304200Y134433D01*
Y133767D01*
X304367Y133600D01*
X304700D01*
X304866Y133767D01*
X305200Y133600D02*
X305533D01*
X305366D01*
Y134600D01*
X305200Y134433D01*
X306033D02*
X306199Y134600D01*
X306533D01*
X306699Y134433D01*
Y133767D01*
X306533Y133600D01*
X306199D01*
X306033Y133767D01*
Y134433D01*
X307532Y133600D02*
Y134600D01*
X307032Y134100D01*
X307699D01*
X291366Y134433D02*
X291200Y134600D01*
X290867D01*
X290700Y134433D01*
Y133767D01*
X290867Y133600D01*
X291200D01*
X291366Y133767D01*
X291700D02*
X291866Y133600D01*
X292200D01*
X292366Y133767D01*
Y134433D01*
X292200Y134600D01*
X291866D01*
X291700Y134433D01*
Y134266D01*
X291866Y134100D01*
X292366D01*
X292699Y134433D02*
X292866Y134600D01*
X293199D01*
X293366Y134433D01*
Y134266D01*
X293199Y134100D01*
X293366Y133933D01*
Y133767D01*
X293199Y133600D01*
X292866D01*
X292699Y133767D01*
Y133933D01*
X292866Y134100D01*
X292699Y134266D01*
Y134433D01*
X292866Y134100D02*
X293199D01*
X277866Y134433D02*
X277700Y134600D01*
X277367D01*
X277200Y134433D01*
Y133767D01*
X277367Y133600D01*
X277700D01*
X277866Y133767D01*
X278200D02*
X278366Y133600D01*
X278700D01*
X278866Y133767D01*
Y134433D01*
X278700Y134600D01*
X278366D01*
X278200Y134433D01*
Y134266D01*
X278366Y134100D01*
X278866D01*
X279866Y133600D02*
X279199D01*
X279866Y134266D01*
Y134433D01*
X279699Y134600D01*
X279366D01*
X279199Y134433D01*
X264366D02*
X264200Y134600D01*
X263867D01*
X263700Y134433D01*
Y133767D01*
X263867Y133600D01*
X264200D01*
X264366Y133767D01*
X264700Y134433D02*
X264866Y134600D01*
X265200D01*
X265366Y134433D01*
Y134266D01*
X265200Y134100D01*
X265366Y133933D01*
Y133767D01*
X265200Y133600D01*
X264866D01*
X264700Y133767D01*
Y133933D01*
X264866Y134100D01*
X264700Y134266D01*
Y134433D01*
X264866Y134100D02*
X265200D01*
X266366Y134600D02*
X266033Y134433D01*
X265699Y134100D01*
Y133767D01*
X265866Y133600D01*
X266199D01*
X266366Y133767D01*
Y133933D01*
X266199Y134100D01*
X265699D01*
X250866Y134433D02*
X250700Y134600D01*
X250367D01*
X250200Y134433D01*
Y133767D01*
X250367Y133600D01*
X250700D01*
X250866Y133767D01*
X251200Y134433D02*
X251366Y134600D01*
X251700D01*
X251866Y134433D01*
Y134266D01*
X251700Y134100D01*
X251866Y133933D01*
Y133767D01*
X251700Y133600D01*
X251366D01*
X251200Y133767D01*
Y133933D01*
X251366Y134100D01*
X251200Y134266D01*
Y134433D01*
X251366Y134100D02*
X251700D01*
X252199Y134433D02*
X252366Y134600D01*
X252699D01*
X252866Y134433D01*
Y133767D01*
X252699Y133600D01*
X252366D01*
X252199Y133767D01*
Y134433D01*
X237366D02*
X237200Y134600D01*
X236867D01*
X236700Y134433D01*
Y133767D01*
X236867Y133600D01*
X237200D01*
X237366Y133767D01*
X237700Y134600D02*
X238366D01*
Y134433D01*
X237700Y133767D01*
Y133600D01*
X239199D02*
Y134600D01*
X238699Y134100D01*
X239366D01*
X223866Y134433D02*
X223700Y134600D01*
X223367D01*
X223200Y134433D01*
Y133767D01*
X223367Y133600D01*
X223700D01*
X223866Y133767D01*
X224866Y134600D02*
X224533Y134433D01*
X224200Y134100D01*
Y133767D01*
X224366Y133600D01*
X224700D01*
X224866Y133767D01*
Y133933D01*
X224700Y134100D01*
X224200D01*
X225199Y134433D02*
X225366Y134600D01*
X225699D01*
X225866Y134433D01*
Y134266D01*
X225699Y134100D01*
X225866Y133933D01*
Y133767D01*
X225699Y133600D01*
X225366D01*
X225199Y133767D01*
Y133933D01*
X225366Y134100D01*
X225199Y134266D01*
Y134433D01*
X225366Y134100D02*
X225699D01*
X210366Y134433D02*
X210200Y134600D01*
X209867D01*
X209700Y134433D01*
Y133767D01*
X209867Y133600D01*
X210200D01*
X210366Y133767D01*
X211366Y134600D02*
X211033Y134433D01*
X210700Y134100D01*
Y133767D01*
X210866Y133600D01*
X211200D01*
X211366Y133767D01*
Y133933D01*
X211200Y134100D01*
X210700D01*
X212366Y133600D02*
X211699D01*
X212366Y134266D01*
Y134433D01*
X212199Y134600D01*
X211866D01*
X211699Y134433D01*
X196866D02*
X196700Y134600D01*
X196367D01*
X196200Y134433D01*
Y133767D01*
X196367Y133600D01*
X196700D01*
X196866Y133767D01*
X197866Y134600D02*
X197200D01*
Y134100D01*
X197533Y134266D01*
X197700D01*
X197866Y134100D01*
Y133767D01*
X197700Y133600D01*
X197366D01*
X197200Y133767D01*
X198866Y134600D02*
X198533Y134433D01*
X198199Y134100D01*
Y133767D01*
X198366Y133600D01*
X198699D01*
X198866Y133767D01*
Y133933D01*
X198699Y134100D01*
X198199D01*
X183366Y134433D02*
X183200Y134600D01*
X182867D01*
X182700Y134433D01*
Y133767D01*
X182867Y133600D01*
X183200D01*
X183366Y133767D01*
X184366Y134600D02*
X183700D01*
Y134100D01*
X184033Y134266D01*
X184200D01*
X184366Y134100D01*
Y133767D01*
X184200Y133600D01*
X183866D01*
X183700Y133767D01*
X184699Y134433D02*
X184866Y134600D01*
X185199D01*
X185366Y134433D01*
Y133767D01*
X185199Y133600D01*
X184866D01*
X184699Y133767D01*
Y134433D01*
X169866D02*
X169700Y134600D01*
X169367D01*
X169200Y134433D01*
Y133767D01*
X169367Y133600D01*
X169700D01*
X169866Y133767D01*
X170700Y133600D02*
Y134600D01*
X170200Y134100D01*
X170866D01*
X171699Y133600D02*
Y134600D01*
X171199Y134100D01*
X171866D01*
X156366Y134433D02*
X156200Y134600D01*
X155867D01*
X155700Y134433D01*
Y133767D01*
X155867Y133600D01*
X156200D01*
X156366Y133767D01*
X156700Y134433D02*
X156866Y134600D01*
X157200D01*
X157366Y134433D01*
Y134266D01*
X157200Y134100D01*
X157033D01*
X157200D01*
X157366Y133933D01*
Y133767D01*
X157200Y133600D01*
X156866D01*
X156700Y133767D01*
X157699Y134433D02*
X157866Y134600D01*
X158199D01*
X158366Y134433D01*
Y134266D01*
X158199Y134100D01*
X158366Y133933D01*
Y133767D01*
X158199Y133600D01*
X157866D01*
X157699Y133767D01*
Y133933D01*
X157866Y134100D01*
X157699Y134266D01*
Y134433D01*
X157866Y134100D02*
X158199D01*
X142866Y134433D02*
X142700Y134600D01*
X142367D01*
X142200Y134433D01*
Y133767D01*
X142367Y133600D01*
X142700D01*
X142866Y133767D01*
X143200Y134433D02*
X143366Y134600D01*
X143700D01*
X143866Y134433D01*
Y134266D01*
X143700Y134100D01*
X143533D01*
X143700D01*
X143866Y133933D01*
Y133767D01*
X143700Y133600D01*
X143366D01*
X143200Y133767D01*
X144866Y133600D02*
X144199D01*
X144866Y134266D01*
Y134433D01*
X144699Y134600D01*
X144366D01*
X144199Y134433D01*
X129366D02*
X129200Y134600D01*
X128867D01*
X128700Y134433D01*
Y133767D01*
X128867Y133600D01*
X129200D01*
X129366Y133767D01*
X130366Y133600D02*
X129700D01*
X130366Y134266D01*
Y134433D01*
X130200Y134600D01*
X129866D01*
X129700Y134433D01*
X131366Y134600D02*
X131033Y134433D01*
X130699Y134100D01*
Y133767D01*
X130866Y133600D01*
X131199D01*
X131366Y133767D01*
Y133933D01*
X131199Y134100D01*
X130699D01*
X115866Y134433D02*
X115700Y134600D01*
X115367D01*
X115200Y134433D01*
Y133767D01*
X115367Y133600D01*
X115700D01*
X115866Y133767D01*
X116200Y133600D02*
X116533D01*
X116366D01*
Y134600D01*
X116200Y134433D01*
X117699Y133600D02*
X117033D01*
X117699Y134266D01*
Y134433D01*
X117533Y134600D01*
X117199D01*
X117033Y134433D01*
X338166Y147333D02*
X338000Y147500D01*
X337667D01*
X337500Y147333D01*
Y146667D01*
X337667Y146500D01*
X338000D01*
X338166Y146667D01*
X338500Y146500D02*
X338833D01*
X338666D01*
Y147500D01*
X338500Y147333D01*
X339333Y146500D02*
X339666D01*
X339499D01*
Y147500D01*
X339333Y147333D01*
X340832Y147500D02*
X340166D01*
Y147000D01*
X340499Y147166D01*
X340666D01*
X340832Y147000D01*
Y146667D01*
X340666Y146500D01*
X340332D01*
X340166Y146667D01*
X324666Y147333D02*
X324500Y147500D01*
X324167D01*
X324000Y147333D01*
Y146667D01*
X324167Y146500D01*
X324500D01*
X324666Y146667D01*
X325000Y146500D02*
X325333D01*
X325166D01*
Y147500D01*
X325000Y147333D01*
X325833D02*
X325999Y147500D01*
X326333D01*
X326499Y147333D01*
Y146667D01*
X326333Y146500D01*
X325999D01*
X325833Y146667D01*
Y147333D01*
X326832Y146667D02*
X326999Y146500D01*
X327332D01*
X327499Y146667D01*
Y147333D01*
X327332Y147500D01*
X326999D01*
X326832Y147333D01*
Y147166D01*
X326999Y147000D01*
X327499D01*
X311166Y147333D02*
X311000Y147500D01*
X310667D01*
X310500Y147333D01*
Y146667D01*
X310667Y146500D01*
X311000D01*
X311166Y146667D01*
X311500Y146500D02*
X311833D01*
X311666D01*
Y147500D01*
X311500Y147333D01*
X312333D02*
X312499Y147500D01*
X312833D01*
X312999Y147333D01*
Y146667D01*
X312833Y146500D01*
X312499D01*
X312333Y146667D01*
Y147333D01*
X313332D02*
X313499Y147500D01*
X313832D01*
X313999Y147333D01*
Y147166D01*
X313832Y147000D01*
X313666D01*
X313832D01*
X313999Y146833D01*
Y146667D01*
X313832Y146500D01*
X313499D01*
X313332Y146667D01*
X297666Y147333D02*
X297500Y147500D01*
X297167D01*
X297000Y147333D01*
Y146667D01*
X297167Y146500D01*
X297500D01*
X297666Y146667D01*
X298000D02*
X298166Y146500D01*
X298500D01*
X298666Y146667D01*
Y147333D01*
X298500Y147500D01*
X298166D01*
X298000Y147333D01*
Y147166D01*
X298166Y147000D01*
X298666D01*
X298999Y147500D02*
X299666D01*
Y147333D01*
X298999Y146667D01*
Y146500D01*
X284166Y147333D02*
X284000Y147500D01*
X283667D01*
X283500Y147333D01*
Y146667D01*
X283667Y146500D01*
X284000D01*
X284166Y146667D01*
X284500D02*
X284666Y146500D01*
X285000D01*
X285166Y146667D01*
Y147333D01*
X285000Y147500D01*
X284666D01*
X284500Y147333D01*
Y147166D01*
X284666Y147000D01*
X285166D01*
X285499Y146500D02*
X285833D01*
X285666D01*
Y147500D01*
X285499Y147333D01*
X270666D02*
X270500Y147500D01*
X270167D01*
X270000Y147333D01*
Y146667D01*
X270167Y146500D01*
X270500D01*
X270666Y146667D01*
X271000Y147333D02*
X271166Y147500D01*
X271500D01*
X271666Y147333D01*
Y147166D01*
X271500Y147000D01*
X271666Y146833D01*
Y146667D01*
X271500Y146500D01*
X271166D01*
X271000Y146667D01*
Y146833D01*
X271166Y147000D01*
X271000Y147166D01*
Y147333D01*
X271166Y147000D02*
X271500D01*
X272666Y147500D02*
X271999D01*
Y147000D01*
X272333Y147166D01*
X272499D01*
X272666Y147000D01*
Y146667D01*
X272499Y146500D01*
X272166D01*
X271999Y146667D01*
X257166Y147333D02*
X257000Y147500D01*
X256667D01*
X256500Y147333D01*
Y146667D01*
X256667Y146500D01*
X257000D01*
X257166Y146667D01*
X257500Y147500D02*
X258166D01*
Y147333D01*
X257500Y146667D01*
Y146500D01*
X258499Y146667D02*
X258666Y146500D01*
X258999D01*
X259166Y146667D01*
Y147333D01*
X258999Y147500D01*
X258666D01*
X258499Y147333D01*
Y147166D01*
X258666Y147000D01*
X259166D01*
X243666Y147333D02*
X243500Y147500D01*
X243167D01*
X243000Y147333D01*
Y146667D01*
X243167Y146500D01*
X243500D01*
X243666Y146667D01*
X244000Y147500D02*
X244666D01*
Y147333D01*
X244000Y146667D01*
Y146500D01*
X244999Y147333D02*
X245166Y147500D01*
X245499D01*
X245666Y147333D01*
Y147166D01*
X245499Y147000D01*
X245333D01*
X245499D01*
X245666Y146833D01*
Y146667D01*
X245499Y146500D01*
X245166D01*
X244999Y146667D01*
X230166Y147333D02*
X230000Y147500D01*
X229667D01*
X229500Y147333D01*
Y146667D01*
X229667Y146500D01*
X230000D01*
X230166Y146667D01*
X231166Y147500D02*
X230833Y147333D01*
X230500Y147000D01*
Y146667D01*
X230666Y146500D01*
X231000D01*
X231166Y146667D01*
Y146833D01*
X231000Y147000D01*
X230500D01*
X231499Y147500D02*
X232166D01*
Y147333D01*
X231499Y146667D01*
Y146500D01*
X216666Y147333D02*
X216500Y147500D01*
X216167D01*
X216000Y147333D01*
Y146667D01*
X216167Y146500D01*
X216500D01*
X216666Y146667D01*
X217666Y147500D02*
X217333Y147333D01*
X217000Y147000D01*
Y146667D01*
X217166Y146500D01*
X217500D01*
X217666Y146667D01*
Y146833D01*
X217500Y147000D01*
X217000D01*
X217999Y146500D02*
X218333D01*
X218166D01*
Y147500D01*
X217999Y147333D01*
X203166D02*
X203000Y147500D01*
X202667D01*
X202500Y147333D01*
Y146667D01*
X202667Y146500D01*
X203000D01*
X203166Y146667D01*
X204166Y147500D02*
X203500D01*
Y147000D01*
X203833Y147166D01*
X204000D01*
X204166Y147000D01*
Y146667D01*
X204000Y146500D01*
X203666D01*
X203500Y146667D01*
X205166Y147500D02*
X204499D01*
Y147000D01*
X204833Y147166D01*
X204999D01*
X205166Y147000D01*
Y146667D01*
X204999Y146500D01*
X204666D01*
X204499Y146667D01*
X189666Y147333D02*
X189500Y147500D01*
X189167D01*
X189000Y147333D01*
Y146667D01*
X189167Y146500D01*
X189500D01*
X189666Y146667D01*
X190500Y146500D02*
Y147500D01*
X190000Y147000D01*
X190666D01*
X190999Y146667D02*
X191166Y146500D01*
X191499D01*
X191666Y146667D01*
Y147333D01*
X191499Y147500D01*
X191166D01*
X190999Y147333D01*
Y147166D01*
X191166Y147000D01*
X191666D01*
X176166Y147333D02*
X176000Y147500D01*
X175667D01*
X175500Y147333D01*
Y146667D01*
X175667Y146500D01*
X176000D01*
X176166Y146667D01*
X177000Y146500D02*
Y147500D01*
X176500Y147000D01*
X177166D01*
X177499Y147333D02*
X177666Y147500D01*
X177999D01*
X178166Y147333D01*
Y147166D01*
X177999Y147000D01*
X177833D01*
X177999D01*
X178166Y146833D01*
Y146667D01*
X177999Y146500D01*
X177666D01*
X177499Y146667D01*
X162666Y147333D02*
X162500Y147500D01*
X162167D01*
X162000Y147333D01*
Y146667D01*
X162167Y146500D01*
X162500D01*
X162666Y146667D01*
X163000Y147333D02*
X163166Y147500D01*
X163500D01*
X163666Y147333D01*
Y147166D01*
X163500Y147000D01*
X163333D01*
X163500D01*
X163666Y146833D01*
Y146667D01*
X163500Y146500D01*
X163166D01*
X163000Y146667D01*
X163999Y147500D02*
X164666D01*
Y147333D01*
X163999Y146667D01*
Y146500D01*
X149166Y147333D02*
X149000Y147500D01*
X148667D01*
X148500Y147333D01*
Y146667D01*
X148667Y146500D01*
X149000D01*
X149166Y146667D01*
X149500Y147333D02*
X149666Y147500D01*
X150000D01*
X150166Y147333D01*
Y147166D01*
X150000Y147000D01*
X149833D01*
X150000D01*
X150166Y146833D01*
Y146667D01*
X150000Y146500D01*
X149666D01*
X149500Y146667D01*
X150499Y146500D02*
X150833D01*
X150666D01*
Y147500D01*
X150499Y147333D01*
X135666D02*
X135500Y147500D01*
X135167D01*
X135000Y147333D01*
Y146667D01*
X135167Y146500D01*
X135500D01*
X135666Y146667D01*
X136666Y146500D02*
X136000D01*
X136666Y147166D01*
Y147333D01*
X136500Y147500D01*
X136166D01*
X136000Y147333D01*
X137666Y147500D02*
X136999D01*
Y147000D01*
X137333Y147166D01*
X137499D01*
X137666Y147000D01*
Y146667D01*
X137499Y146500D01*
X137166D01*
X136999Y146667D01*
X122166Y147333D02*
X122000Y147500D01*
X121667D01*
X121500Y147333D01*
Y146667D01*
X121667Y146500D01*
X122000D01*
X122166Y146667D01*
X122500Y146500D02*
X122833D01*
X122666D01*
Y147500D01*
X122500Y147333D01*
X123333Y146500D02*
X123666D01*
X123499D01*
Y147500D01*
X123333Y147333D01*
X338166Y142083D02*
X338000Y142250D01*
X337667D01*
X337500Y142083D01*
Y141417D01*
X337667Y141250D01*
X338000D01*
X338166Y141417D01*
X338500Y141250D02*
X338833D01*
X338666D01*
Y142250D01*
X338500Y142083D01*
X339333Y141250D02*
X339666D01*
X339499D01*
Y142250D01*
X339333Y142083D01*
X340666Y141250D02*
Y142250D01*
X340166Y141750D01*
X340832D01*
X324666Y142083D02*
X324500Y142250D01*
X324167D01*
X324000Y142083D01*
Y141417D01*
X324167Y141250D01*
X324500D01*
X324666Y141417D01*
X325000Y141250D02*
X325333D01*
X325166D01*
Y142250D01*
X325000Y142083D01*
X325833D02*
X325999Y142250D01*
X326333D01*
X326499Y142083D01*
Y141417D01*
X326333Y141250D01*
X325999D01*
X325833Y141417D01*
Y142083D01*
X326832D02*
X326999Y142250D01*
X327332D01*
X327499Y142083D01*
Y141916D01*
X327332Y141750D01*
X327499Y141583D01*
Y141417D01*
X327332Y141250D01*
X326999D01*
X326832Y141417D01*
Y141583D01*
X326999Y141750D01*
X326832Y141916D01*
Y142083D01*
X326999Y141750D02*
X327332D01*
X311166Y142083D02*
X311000Y142250D01*
X310667D01*
X310500Y142083D01*
Y141417D01*
X310667Y141250D01*
X311000D01*
X311166Y141417D01*
X311500Y141250D02*
X311833D01*
X311666D01*
Y142250D01*
X311500Y142083D01*
X312333D02*
X312499Y142250D01*
X312833D01*
X312999Y142083D01*
Y141417D01*
X312833Y141250D01*
X312499D01*
X312333Y141417D01*
Y142083D01*
X313999Y141250D02*
X313332D01*
X313999Y141916D01*
Y142083D01*
X313832Y142250D01*
X313499D01*
X313332Y142083D01*
X297666D02*
X297500Y142250D01*
X297167D01*
X297000Y142083D01*
Y141417D01*
X297167Y141250D01*
X297500D01*
X297666Y141417D01*
X298000D02*
X298166Y141250D01*
X298500D01*
X298666Y141417D01*
Y142083D01*
X298500Y142250D01*
X298166D01*
X298000Y142083D01*
Y141916D01*
X298166Y141750D01*
X298666D01*
X299666Y142250D02*
X299333Y142083D01*
X298999Y141750D01*
Y141417D01*
X299166Y141250D01*
X299499D01*
X299666Y141417D01*
Y141583D01*
X299499Y141750D01*
X298999D01*
X284166Y142083D02*
X284000Y142250D01*
X283667D01*
X283500Y142083D01*
Y141417D01*
X283667Y141250D01*
X284000D01*
X284166Y141417D01*
X284500D02*
X284666Y141250D01*
X285000D01*
X285166Y141417D01*
Y142083D01*
X285000Y142250D01*
X284666D01*
X284500Y142083D01*
Y141916D01*
X284666Y141750D01*
X285166D01*
X285499Y142083D02*
X285666Y142250D01*
X285999D01*
X286166Y142083D01*
Y141417D01*
X285999Y141250D01*
X285666D01*
X285499Y141417D01*
Y142083D01*
X270666D02*
X270500Y142250D01*
X270167D01*
X270000Y142083D01*
Y141417D01*
X270167Y141250D01*
X270500D01*
X270666Y141417D01*
X271000Y142083D02*
X271166Y142250D01*
X271500D01*
X271666Y142083D01*
Y141916D01*
X271500Y141750D01*
X271666Y141583D01*
Y141417D01*
X271500Y141250D01*
X271166D01*
X271000Y141417D01*
Y141583D01*
X271166Y141750D01*
X271000Y141916D01*
Y142083D01*
X271166Y141750D02*
X271500D01*
X272499Y141250D02*
Y142250D01*
X271999Y141750D01*
X272666D01*
X257166Y142083D02*
X257000Y142250D01*
X256667D01*
X256500Y142083D01*
Y141417D01*
X256667Y141250D01*
X257000D01*
X257166Y141417D01*
X257500Y142250D02*
X258166D01*
Y142083D01*
X257500Y141417D01*
Y141250D01*
X258499Y142083D02*
X258666Y142250D01*
X258999D01*
X259166Y142083D01*
Y141916D01*
X258999Y141750D01*
X259166Y141583D01*
Y141417D01*
X258999Y141250D01*
X258666D01*
X258499Y141417D01*
Y141583D01*
X258666Y141750D01*
X258499Y141916D01*
Y142083D01*
X258666Y141750D02*
X258999D01*
X243666Y142083D02*
X243500Y142250D01*
X243167D01*
X243000Y142083D01*
Y141417D01*
X243167Y141250D01*
X243500D01*
X243666Y141417D01*
X244000Y142250D02*
X244666D01*
Y142083D01*
X244000Y141417D01*
Y141250D01*
X245666D02*
X244999D01*
X245666Y141916D01*
Y142083D01*
X245499Y142250D01*
X245166D01*
X244999Y142083D01*
X230166D02*
X230000Y142250D01*
X229667D01*
X229500Y142083D01*
Y141417D01*
X229667Y141250D01*
X230000D01*
X230166Y141417D01*
X231166Y142250D02*
X230833Y142083D01*
X230500Y141750D01*
Y141417D01*
X230666Y141250D01*
X231000D01*
X231166Y141417D01*
Y141583D01*
X231000Y141750D01*
X230500D01*
X232166Y142250D02*
X231833Y142083D01*
X231499Y141750D01*
Y141417D01*
X231666Y141250D01*
X231999D01*
X232166Y141417D01*
Y141583D01*
X231999Y141750D01*
X231499D01*
X216666Y142083D02*
X216500Y142250D01*
X216167D01*
X216000Y142083D01*
Y141417D01*
X216167Y141250D01*
X216500D01*
X216666Y141417D01*
X217666Y142250D02*
X217333Y142083D01*
X217000Y141750D01*
Y141417D01*
X217166Y141250D01*
X217500D01*
X217666Y141417D01*
Y141583D01*
X217500Y141750D01*
X217000D01*
X217999Y142083D02*
X218166Y142250D01*
X218499D01*
X218666Y142083D01*
Y141417D01*
X218499Y141250D01*
X218166D01*
X217999Y141417D01*
Y142083D01*
X203166D02*
X203000Y142250D01*
X202667D01*
X202500Y142083D01*
Y141417D01*
X202667Y141250D01*
X203000D01*
X203166Y141417D01*
X204166Y142250D02*
X203500D01*
Y141750D01*
X203833Y141916D01*
X204000D01*
X204166Y141750D01*
Y141417D01*
X204000Y141250D01*
X203666D01*
X203500Y141417D01*
X204999Y141250D02*
Y142250D01*
X204499Y141750D01*
X205166D01*
X189666Y142083D02*
X189500Y142250D01*
X189167D01*
X189000Y142083D01*
Y141417D01*
X189167Y141250D01*
X189500D01*
X189666Y141417D01*
X190500Y141250D02*
Y142250D01*
X190000Y141750D01*
X190666D01*
X190999Y142083D02*
X191166Y142250D01*
X191499D01*
X191666Y142083D01*
Y141916D01*
X191499Y141750D01*
X191666Y141583D01*
Y141417D01*
X191499Y141250D01*
X191166D01*
X190999Y141417D01*
Y141583D01*
X191166Y141750D01*
X190999Y141916D01*
Y142083D01*
X191166Y141750D02*
X191499D01*
X176166Y142083D02*
X176000Y142250D01*
X175667D01*
X175500Y142083D01*
Y141417D01*
X175667Y141250D01*
X176000D01*
X176166Y141417D01*
X177000Y141250D02*
Y142250D01*
X176500Y141750D01*
X177166D01*
X178166Y141250D02*
X177499D01*
X178166Y141916D01*
Y142083D01*
X177999Y142250D01*
X177666D01*
X177499Y142083D01*
X162666D02*
X162500Y142250D01*
X162167D01*
X162000Y142083D01*
Y141417D01*
X162167Y141250D01*
X162500D01*
X162666Y141417D01*
X163000Y142083D02*
X163166Y142250D01*
X163500D01*
X163666Y142083D01*
Y141916D01*
X163500Y141750D01*
X163333D01*
X163500D01*
X163666Y141583D01*
Y141417D01*
X163500Y141250D01*
X163166D01*
X163000Y141417D01*
X164666Y142250D02*
X164333Y142083D01*
X163999Y141750D01*
Y141417D01*
X164166Y141250D01*
X164499D01*
X164666Y141417D01*
Y141583D01*
X164499Y141750D01*
X163999D01*
X149166Y142083D02*
X149000Y142250D01*
X148667D01*
X148500Y142083D01*
Y141417D01*
X148667Y141250D01*
X149000D01*
X149166Y141417D01*
X149500Y142083D02*
X149666Y142250D01*
X150000D01*
X150166Y142083D01*
Y141916D01*
X150000Y141750D01*
X149833D01*
X150000D01*
X150166Y141583D01*
Y141417D01*
X150000Y141250D01*
X149666D01*
X149500Y141417D01*
X150499Y142083D02*
X150666Y142250D01*
X150999D01*
X151166Y142083D01*
Y141417D01*
X150999Y141250D01*
X150666D01*
X150499Y141417D01*
Y142083D01*
X135666D02*
X135500Y142250D01*
X135167D01*
X135000Y142083D01*
Y141417D01*
X135167Y141250D01*
X135500D01*
X135666Y141417D01*
X136666Y141250D02*
X136000D01*
X136666Y141916D01*
Y142083D01*
X136500Y142250D01*
X136166D01*
X136000Y142083D01*
X137499Y141250D02*
Y142250D01*
X136999Y141750D01*
X137666D01*
X122166Y142083D02*
X122000Y142250D01*
X121667D01*
X121500Y142083D01*
Y141417D01*
X121667Y141250D01*
X122000D01*
X122166Y141417D01*
X122500Y141250D02*
X122833D01*
X122666D01*
Y142250D01*
X122500Y142083D01*
X123333D02*
X123499Y142250D01*
X123833D01*
X123999Y142083D01*
Y141417D01*
X123833Y141250D01*
X123499D01*
X123333Y141417D01*
Y142083D01*
X131066Y88633D02*
X130900Y88800D01*
X130567D01*
X130400Y88633D01*
Y87967D01*
X130567Y87800D01*
X130900D01*
X131066Y87967D01*
X131400Y88800D02*
X132066D01*
Y88633D01*
X131400Y87967D01*
Y87800D01*
X131066Y86883D02*
X130900Y87050D01*
X130567D01*
X130400Y86883D01*
Y86217D01*
X130567Y86050D01*
X130900D01*
X131066Y86217D01*
X132066Y87050D02*
X131733Y86883D01*
X131400Y86550D01*
Y86217D01*
X131566Y86050D01*
X131900D01*
X132066Y86217D01*
Y86383D01*
X131900Y86550D01*
X131400D01*
X138066Y96633D02*
X137900Y96800D01*
X137567D01*
X137400Y96633D01*
Y95967D01*
X137567Y95800D01*
X137900D01*
X138066Y95967D01*
X139066Y96800D02*
X138400D01*
Y96300D01*
X138733Y96466D01*
X138900D01*
X139066Y96300D01*
Y95967D01*
X138900Y95800D01*
X138566D01*
X138400Y95967D01*
X138066Y98383D02*
X137900Y98550D01*
X137567D01*
X137400Y98383D01*
Y97717D01*
X137567Y97550D01*
X137900D01*
X138066Y97717D01*
X138900Y97550D02*
Y98550D01*
X138400Y98050D01*
X139066D01*
M02*
