M48
;Layer_Color=9474304
;FILE_FORMAT=4:3
METRIC,LZ
;TYPE=NON_PLATED
T11F00S00C1.800
%
G90
G05
T11
G00X01145Y01879
M15
G01Y01891
M16
G00X0127Y01879
M15
G01Y01891
M16
G00X013555Y01879
M15
G01Y01891
M16
G00X014805Y01879
M15
G01Y01891
M16
G00X01566Y01879
M15
G01Y01891
M16
G00X01691Y01879
M15
G01Y01891
M16
G00X017765Y01879
M15
G01Y01891
M16
G00X019015Y01879
M15
G01Y01891
M16
G00X01987Y01879
M15
G01Y01891
M16
G00X02112Y01879
M15
G01Y01891
M16
G00X021975Y01879
M15
G01Y01891
M16
G00X023225Y01879
M15
G01Y01891
M16
G00X02408Y01879
M15
G01Y01891
M16
G00X02533Y01879
M15
G01Y01891
M16
G00X026185Y01879
M15
G01Y01891
M16
G00X027435Y01879
M15
G01Y01891
M16
G00X02829Y01879
M15
G01Y01891
M16
G00X02954Y01879
M15
G01Y01891
M16
G00X030395Y01879
M15
G01Y01891
M16
G00X031645Y01879
M15
G01Y01891
M16
G00X0325Y01879
M15
G01Y01891
M16
G00X03375Y01879
M15
G01Y01891
M16
M30
