G04*
G04 #@! TF.GenerationSoftware,Altium Limited,Altium Designer,19.1.6 (110)*
G04*
G04 Layer_Color=32896*
%FSLAX43Y43*%
%MOMM*%
G71*
G01*
G75*
%ADD10C,0.100*%
%ADD12C,0.250*%
%ADD13C,0.150*%
%ADD14C,0.254*%
D10*
X228575Y107730D02*
Y110850D01*
X225175Y107730D02*
Y110850D01*
X225375D01*
X225175Y107730D02*
X225375D01*
X228375Y110850D02*
X228575D01*
X228375Y107730D02*
X228575D01*
X212518Y107780D02*
Y110900D01*
X209118Y107780D02*
Y110900D01*
X209318D01*
X209118Y107780D02*
X209318D01*
X212318Y110900D02*
X212518D01*
X212318Y107780D02*
X212518D01*
D12*
X225300Y111740D02*
G03*
X225300Y111740I-125J0D01*
G01*
X209243Y111790D02*
G03*
X209243Y111790I-125J0D01*
G01*
D13*
X221391Y102100D02*
Y104300D01*
X226591D01*
Y102100D02*
Y104300D01*
X221391Y102100D02*
X226591D01*
X224978Y113105D02*
Y114375D01*
Y113105D02*
X227772D01*
Y114375D01*
X224978D02*
X227772D01*
X229975Y116640D02*
Y118840D01*
X224775Y116640D02*
X229975D01*
X224775D02*
Y118840D01*
X229975D01*
X226478Y104605D02*
Y105875D01*
Y104605D02*
X229272D01*
Y105875D01*
X226478D02*
X229272D01*
X224978Y115105D02*
Y116375D01*
Y115105D02*
X227772D01*
Y116375D01*
X224978D02*
X227772D01*
X228478Y115105D02*
Y116375D01*
Y115105D02*
X231272D01*
Y116375D01*
X228478D02*
X231272D01*
X205334Y102150D02*
Y104350D01*
X210534D01*
Y102150D02*
Y104350D01*
X205334Y102150D02*
X210534D01*
X208921Y113155D02*
Y114425D01*
Y113155D02*
X211715D01*
Y114425D01*
X208921D02*
X211715D01*
X213918Y116690D02*
Y118890D01*
X208718Y116690D02*
X213918D01*
X208718D02*
Y118890D01*
X213918D01*
X210421Y104655D02*
Y105925D01*
Y104655D02*
X213215D01*
Y105925D01*
X210421D02*
X213215D01*
X208921Y115155D02*
Y116425D01*
Y115155D02*
X211715D01*
Y116425D01*
X208921D02*
X211715D01*
X212421Y115155D02*
Y116425D01*
Y115155D02*
X215215D01*
Y116425D01*
X212421D02*
X215215D01*
D14*
X234425Y115250D02*
Y116250D01*
X233925D01*
X233759Y116083D01*
Y115750D01*
X233925Y115583D01*
X234425D01*
X234092D02*
X233759Y115250D01*
X233425Y116083D02*
X233259Y116250D01*
X232925D01*
X232759Y116083D01*
Y115916D01*
X232925Y115750D01*
X232759Y115583D01*
Y115417D01*
X232925Y115250D01*
X233259D01*
X233425Y115417D01*
Y115583D01*
X233259Y115750D01*
X233425Y115916D01*
Y116083D01*
X233259Y115750D02*
X232925D01*
X232426Y116250D02*
X231759D01*
Y116083D01*
X232426Y115417D01*
Y115250D01*
X218275Y115200D02*
Y116200D01*
X217775D01*
X217609Y116033D01*
Y115700D01*
X217775Y115533D01*
X218275D01*
X217942D02*
X217609Y115200D01*
X217275D02*
X216942D01*
X217109D01*
Y116200D01*
X217275Y116033D01*
X216442Y115367D02*
X216276Y115200D01*
X215942D01*
X215776Y115367D01*
Y116033D01*
X215942Y116200D01*
X216276D01*
X216442Y116033D01*
Y115866D01*
X216276Y115700D01*
X215776D01*
X224375Y115325D02*
Y116325D01*
X223875D01*
X223709Y116158D01*
Y115825D01*
X223875Y115658D01*
X224375D01*
X224042D02*
X223709Y115325D01*
X223375Y116158D02*
X223209Y116325D01*
X222875D01*
X222709Y116158D01*
Y115991D01*
X222875Y115825D01*
X222709Y115658D01*
Y115492D01*
X222875Y115325D01*
X223209D01*
X223375Y115492D01*
Y115658D01*
X223209Y115825D01*
X223375Y115991D01*
Y116158D01*
X223209Y115825D02*
X222875D01*
X221709Y116325D02*
X222042Y116158D01*
X222376Y115825D01*
Y115492D01*
X222209Y115325D01*
X221876D01*
X221709Y115492D01*
Y115658D01*
X221876Y115825D01*
X222376D01*
X208318Y115290D02*
Y116290D01*
X207818D01*
X207652Y116123D01*
Y115790D01*
X207818Y115623D01*
X208318D01*
X207985D02*
X207652Y115290D01*
X207318D02*
X206985D01*
X207152D01*
Y116290D01*
X207318Y116123D01*
X206485D02*
X206319Y116290D01*
X205985D01*
X205819Y116123D01*
Y115956D01*
X205985Y115790D01*
X205819Y115623D01*
Y115457D01*
X205985Y115290D01*
X206319D01*
X206485Y115457D01*
Y115623D01*
X206319Y115790D01*
X206485Y115956D01*
Y116123D01*
X206319Y115790D02*
X205985D01*
X224125Y107725D02*
X223125D01*
Y108225D01*
X223292Y108391D01*
X223958D01*
X224125Y108225D01*
Y107725D01*
X223125Y108725D02*
X223791D01*
X224125Y109058D01*
X223791Y109391D01*
X223125D01*
X223625D01*
Y108725D01*
X223125Y110391D02*
Y109724D01*
X223791Y110391D01*
X223958D01*
X224125Y110224D01*
Y109891D01*
X223958Y109724D01*
X223125Y111224D02*
X224125D01*
X223625Y110724D01*
Y111390D01*
X208300Y108275D02*
X207300D01*
Y108775D01*
X207467Y108941D01*
X208133D01*
X208300Y108775D01*
Y108275D01*
X207300Y109275D02*
X207966D01*
X208300Y109608D01*
X207966Y109941D01*
X207300D01*
X207800D01*
Y109275D01*
X208300Y110941D02*
X208133Y110608D01*
X207800Y110274D01*
X207467D01*
X207300Y110441D01*
Y110774D01*
X207467Y110941D01*
X207633D01*
X207800Y110774D01*
Y110274D01*
X225384Y105583D02*
X225550Y105750D01*
X225883D01*
X226050Y105583D01*
Y104917D01*
X225883Y104750D01*
X225550D01*
X225384Y104917D01*
X225050Y104750D02*
X224717D01*
X224884D01*
Y105750D01*
X225050Y105583D01*
X223551Y104750D02*
X224217D01*
X223551Y105416D01*
Y105583D01*
X223717Y105750D01*
X224051D01*
X224217Y105583D01*
X222551Y105750D02*
X223218D01*
Y105250D01*
X222884Y105416D01*
X222718D01*
X222551Y105250D01*
Y104917D01*
X222718Y104750D01*
X223051D01*
X223218Y104917D01*
X209152Y105623D02*
X209318Y105790D01*
X209651D01*
X209818Y105623D01*
Y104957D01*
X209651Y104790D01*
X209318D01*
X209152Y104957D01*
X208152Y104790D02*
X208818D01*
X208152Y105456D01*
Y105623D01*
X208318Y105790D01*
X208652D01*
X208818Y105623D01*
X207819Y104790D02*
X207485D01*
X207652D01*
Y105790D01*
X207819Y105623D01*
X228809Y120283D02*
X228975Y120450D01*
X229308D01*
X229475Y120283D01*
Y119617D01*
X229308Y119450D01*
X228975D01*
X228809Y119617D01*
X228475Y119450D02*
X228142D01*
X228309D01*
Y120450D01*
X228475Y120283D01*
X226976Y119450D02*
X227642D01*
X226976Y120116D01*
Y120283D01*
X227142Y120450D01*
X227476D01*
X227642Y120283D01*
X226143Y119450D02*
Y120450D01*
X226643Y119950D01*
X225976D01*
X211484Y120308D02*
X211650Y120475D01*
X211983D01*
X212150Y120308D01*
Y119642D01*
X211983Y119475D01*
X211650D01*
X211484Y119642D01*
X210484Y119475D02*
X211150D01*
X210484Y120141D01*
Y120308D01*
X210650Y120475D01*
X210984D01*
X211150Y120308D01*
X210151D02*
X209984Y120475D01*
X209651D01*
X209484Y120308D01*
Y119642D01*
X209651Y119475D01*
X209984D01*
X210151Y119642D01*
Y120308D01*
X223959Y114083D02*
X224125Y114250D01*
X224458D01*
X224625Y114083D01*
Y113417D01*
X224458Y113250D01*
X224125D01*
X223959Y113417D01*
X223625Y113250D02*
X223292D01*
X223459D01*
Y114250D01*
X223625Y114083D01*
X222126Y113250D02*
X222792D01*
X222126Y113916D01*
Y114083D01*
X222292Y114250D01*
X222626D01*
X222792Y114083D01*
X221793D02*
X221626Y114250D01*
X221293D01*
X221126Y114083D01*
Y113916D01*
X221293Y113750D01*
X221459D01*
X221293D01*
X221126Y113583D01*
Y113417D01*
X221293Y113250D01*
X221626D01*
X221793Y113417D01*
X207652Y114123D02*
X207818Y114290D01*
X208151D01*
X208318Y114123D01*
Y113457D01*
X208151Y113290D01*
X207818D01*
X207652Y113457D01*
X207318Y113290D02*
X206985D01*
X207152D01*
Y114290D01*
X207318Y114123D01*
X206485Y113457D02*
X206319Y113290D01*
X205985D01*
X205819Y113457D01*
Y114123D01*
X205985Y114290D01*
X206319D01*
X206485Y114123D01*
Y113956D01*
X206319Y113790D01*
X205819D01*
X224984Y101258D02*
X225150Y101425D01*
X225483D01*
X225650Y101258D01*
Y100592D01*
X225483Y100425D01*
X225150D01*
X224984Y100592D01*
X224650Y100425D02*
X224317D01*
X224484D01*
Y101425D01*
X224650Y101258D01*
X223151Y100425D02*
X223817D01*
X223151Y101091D01*
Y101258D01*
X223317Y101425D01*
X223651D01*
X223817Y101258D01*
X222151Y100425D02*
X222818D01*
X222151Y101091D01*
Y101258D01*
X222318Y101425D01*
X222651D01*
X222818Y101258D01*
X208509Y101283D02*
X208675Y101450D01*
X209008D01*
X209175Y101283D01*
Y100617D01*
X209008Y100450D01*
X208675D01*
X208509Y100617D01*
X208175Y100450D02*
X207842D01*
X208009D01*
Y101450D01*
X208175Y101283D01*
X207342D02*
X207176Y101450D01*
X206842D01*
X206676Y101283D01*
Y101116D01*
X206842Y100950D01*
X206676Y100783D01*
Y100617D01*
X206842Y100450D01*
X207176D01*
X207342Y100617D01*
Y100783D01*
X207176Y100950D01*
X207342Y101116D01*
Y101283D01*
X207176Y100950D02*
X206842D01*
M02*
